<svg width="151" height="101" viewBox="0 0 151 101" fill="none" xmlns="http://www.w3.org/2000/svg">
<rect x="45.5508" y="13.082" width="48" height="48" rx="4" transform="rotate(-8 45.5508 13.082)" fill="#F2E9DC"/>
<g filter="url(#filter0_dd_282_3076)">
<path d="M60.305 21.0515L61.3976 28.8251L64.2174 48.889C64.4052 50.2259 65.6413 51.1574 66.9782 50.9695L82.7125 48.7582C84.0494 48.5703 84.9808 47.3342 84.7929 45.9973L80.8806 18.1598C80.6927 16.8229 79.4566 15.8915 78.1198 16.0794L62.3855 18.2907C61.0486 18.4785 60.1172 19.7146 60.305 21.0515Z" fill="#F2E9DC"/>
<path d="M77.9493 14.8686C79.9546 14.5868 81.809 15.9843 82.0909 17.9896L86.0033 45.8273C86.285 47.8326 84.8876 49.6872 82.8823 49.969L67.1483 52.1803C65.143 52.462 63.2885 51.0646 63.0066 49.0593L59.0943 21.2216C58.8125 19.2163 60.21 17.3618 62.2152 17.0799L77.9493 14.8686Z" stroke="#F2E9DC" stroke-width="2.44444" stroke-linecap="round"/>
</g>
<line x1="61.7768" y1="20.5362" x2="79.3266" y2="18.0697" stroke="#F2E9DC" stroke-width="3.05556" stroke-linecap="square"/>
<line x1="65.5988" y1="49.9301" x2="83.7537" y2="47.3786" stroke="#F2E9DC" stroke-width="2.44444" stroke-linecap="round"/>
<g filter="url(#filter1_dd_282_3076)">
<path d="M59.0808 38.9261C56.3663 45.1003 57.6456 47.8054 60.2141 51.7459C60.729 52.5359 61.6585 52.9514 62.5923 52.8202L70.175 51.7545C74.5977 51.133 75.0261 46.7529 69.5796 47.5184C67.159 47.8586 64.4627 49.4718 65.7785 46.8184L70.9024 36.9912C71.5446 35.7596 70.9918 34.2424 69.7078 33.7125C68.599 33.255 67.3233 33.7002 66.7399 34.7483L63.736 40.146C63.7008 40.2092 63.6059 40.1941 63.5921 40.1231L61.9963 31.922L59.0808 38.9261Z" fill="#F2E9DC"/>
<path d="M63.1964 31.6882L64.1926 36.8114L65.6721 34.1538C66.5569 32.5641 68.492 31.8884 70.1739 32.5823C72.1216 33.386 72.9604 35.6879 71.9863 37.5562L67.1507 46.8292C67.2463 46.8029 67.3478 46.7765 67.4547 46.747C68.0251 46.5901 68.7173 46.4049 69.4097 46.3076C70.9025 46.0978 72.165 46.2125 73.1177 46.6661C74.1142 47.1407 74.7788 48.0107 74.7999 49.0923C74.8195 50.1051 74.2676 51.0115 73.5007 51.6575C72.7191 52.3158 71.6379 52.7831 70.3453 52.9648L62.7626 54.0305C61.366 54.2268 59.9679 53.6063 59.1902 52.4133C57.9051 50.4416 56.8039 48.5862 56.4581 46.3616C56.1086 44.1121 56.5504 41.6526 57.9526 38.4566L60.8675 31.4525L62.4232 27.7162L63.1964 31.6882Z" stroke="#F2E9DC" stroke-width="2.44444" stroke-linecap="round"/>
</g>
<path d="M60.305 21.0515L61.3976 28.8251L64.2174 48.889C64.4052 50.2259 65.6413 51.1574 66.9782 50.9695L82.7125 48.7582C84.0494 48.5703 84.9808 47.3342 84.7929 45.9973L80.8806 18.1598C80.6927 16.8229 79.4566 15.8915 78.1198 16.0794L62.3855 18.2907C61.0486 18.4785 60.1172 19.7146 60.305 21.0515Z" fill="#FFCE99" stroke="#FE7500" stroke-width="1.22222" stroke-linecap="round"/>
<line x1="61.7768" y1="20.5362" x2="79.3266" y2="18.0697" stroke="#FE7500" stroke-width="3.05556" stroke-linecap="square"/>
<line x1="65.5988" y1="49.9301" x2="83.7537" y2="47.3786" stroke="#FE7500" stroke-width="2.44444" stroke-linecap="round"/>
<path d="M59.0808 38.9261C56.3663 45.1003 57.6456 47.8054 60.2141 51.7459C60.729 52.5359 61.6585 52.9514 62.5923 52.8202L70.175 51.7545C74.5977 51.133 75.0261 46.7529 69.5796 47.5184C67.159 47.8586 64.2115 49.0499 65.5273 46.3965L69.7134 40.1174C70.5868 38.8073 69.8721 37.0287 68.3351 36.6871C67.5297 36.5081 66.6912 36.7862 66.1523 37.4108L63.7274 40.2218C63.689 40.2664 63.6162 40.247 63.605 40.1893L61.9963 31.922L59.0808 38.9261Z" fill="#FFCE99" stroke="#FE7500" stroke-width="1.22222" stroke-linecap="round"/>
<rect x="7.51562" y="72.959" width="140" height="28" rx="8" transform="rotate(-8 7.51562 72.959)" fill="#FECE99"/>
<path d="M42.916 87.1701L41.5521 77.4655L43.0216 77.259L47.3655 82.5156L46.6565 82.6011L49.4267 76.3588L50.8131 76.164L52.177 85.8686L50.6797 86.079L50.1205 82.1001C50.0036 81.2683 49.9169 80.5171 49.8603 79.8464C49.813 79.1744 49.7941 78.5032 49.8035 77.8327L50.0697 78.3184L47.5846 83.6723L46.6696 83.8009L42.9099 79.3812L42.9825 78.7913C43.1712 79.3963 43.3302 80.0243 43.4594 80.6753C43.5965 81.3158 43.7281 82.0843 43.8541 82.9808L44.4133 86.9597L42.916 87.1701ZM57.7954 85.2203C57.0838 85.3204 56.4233 85.2482 55.814 85.004C55.2127 84.7492 54.7107 84.3626 54.308 83.8443C53.904 83.3167 53.6507 82.6879 53.548 81.9577C53.4454 81.2276 53.5162 80.5578 53.7605 79.9486C54.0034 79.3301 54.3795 78.8201 54.8885 78.4187C55.4056 78.0067 56.0199 77.7508 56.7316 77.6507C57.434 77.552 58.0859 77.63 58.6872 77.8848C59.2965 78.1291 59.8031 78.515 60.2071 79.0426C60.6099 79.5609 60.8625 80.1851 60.9651 80.9153C61.0678 81.6455 60.9976 82.3198 60.7546 82.9383C60.5104 83.5475 60.1297 84.0582 59.6127 84.4701C59.1036 84.8715 58.4979 85.1216 57.7954 85.2203ZM57.6123 83.9171C58.0467 83.8561 58.4199 83.6953 58.732 83.4346C59.0428 83.1647 59.2693 82.8313 59.4114 82.4343C59.5523 82.0281 59.5849 81.59 59.5095 81.1199C59.4511 80.638 59.299 80.2258 59.0529 79.8834C58.8056 79.5317 58.496 79.2736 58.1241 79.1091C57.7523 78.9446 57.3492 78.8929 56.9148 78.9539C56.4804 79.015 56.1031 79.1811 55.7831 79.4523C55.471 79.7129 55.2445 80.0463 55.1037 80.4526C54.9616 80.8495 54.9282 81.2831 55.0037 81.7531C55.0607 82.2258 55.2129 82.638 55.4603 82.9896C55.7063 83.332 56.0159 83.5901 56.3891 83.7639C56.7701 83.9271 57.1779 83.9782 57.6123 83.9171ZM66.8462 83.9483C66.5319 83.9925 66.2105 83.9858 65.882 83.9283C65.5627 83.8695 65.262 83.7751 64.9798 83.6451C64.7056 83.5046 64.4664 83.345 64.2622 83.1664C64.066 82.9772 63.9252 82.7802 63.8398 82.5754L64.173 82.3306L64.4224 84.1052L62.9945 84.3059L61.5585 74.0883L62.9864 73.8876L63.6392 78.532L63.3998 78.4384C63.4161 78.2193 63.4892 78.0017 63.6191 77.7855C63.7476 77.5601 63.921 77.3519 64.1392 77.161C64.3654 76.9596 64.6152 76.7925 64.8888 76.6598C65.161 76.5179 65.445 76.4261 65.7407 76.3846C66.397 76.2924 67.002 76.3723 67.5558 76.6243C68.1096 76.8764 68.5746 77.2681 68.9509 77.7996C69.3259 78.3218 69.5647 78.948 69.6673 79.6782C69.77 80.4083 69.7137 81.0807 69.4984 81.6953C69.2924 82.3086 68.9587 82.8173 68.4971 83.2215C68.0342 83.6164 67.4839 83.8587 66.8462 83.9483ZM66.4273 82.6783C66.8525 82.6185 67.2165 82.459 67.5194 82.1996C67.8209 81.9311 68.0428 81.5983 68.1849 81.2013C68.3257 80.7951 68.3624 80.3517 68.2948 79.871C68.2286 79.3997 68.0724 78.9928 67.8264 78.6504C67.5883 78.2974 67.2879 78.038 66.9253 77.8722C66.5627 77.7064 66.1642 77.654 65.7298 77.715C65.2954 77.7761 64.9268 77.9363 64.6239 78.1956C64.3211 78.455 64.0992 78.7878 63.9584 79.194C63.8163 79.591 63.7783 80.0251 63.8446 80.4965C63.9121 80.9771 64.0696 81.3932 64.3169 81.7449C64.563 82.0873 64.8679 82.3461 65.2318 82.5211C65.5944 82.6869 65.9929 82.7393 66.4273 82.6783ZM71.9352 83.0917L70.9123 75.8133L72.3403 75.6126L73.3632 82.8911L71.9352 83.0917ZM71.3795 74.1077C71.0745 74.1505 70.8278 74.1051 70.6393 73.9713C70.4509 73.8376 70.3365 73.6275 70.2962 73.341C70.2586 73.0729 70.3112 72.844 70.4542 72.6543C70.6064 72.4632 70.8304 72.3469 71.1262 72.3054C71.4312 72.2625 71.6779 72.3079 71.8664 72.4417C72.0548 72.5754 72.1692 72.7856 72.2094 73.0721C72.2471 73.3401 72.1898 73.5696 72.0376 73.7607C71.8946 73.9504 71.6753 74.0661 71.3795 74.1077ZM75.5526 82.5834L74.1107 72.3242L75.5387 72.1235L76.9805 82.3827L75.5526 82.5834ZM82.2518 81.7832C81.5031 81.8884 80.8156 81.8248 80.1891 81.5924C79.5706 81.3495 79.0561 80.9741 78.6454 80.4663C78.244 79.9572 77.9926 79.3422 77.8913 78.6213C77.8108 78.0483 77.8298 77.5131 77.9484 77.0157C78.067 76.5184 78.264 76.076 78.5394 75.6886C78.8228 75.2906 79.1779 74.9674 79.6048 74.7189C80.0397 74.4598 80.5251 74.2926 81.0612 74.2173C81.5326 74.151 81.9846 74.1818 82.4172 74.3095C82.8486 74.4279 83.2342 74.6235 83.5742 74.8962C83.9233 75.1675 84.207 75.5094 84.4252 75.9217C84.6513 76.3235 84.7954 76.7792 84.8576 77.2888L84.9295 77.9008L78.982 78.7366L78.5033 77.6446L83.5359 76.9374L83.361 77.2023L83.3143 76.8695C83.2437 76.5684 83.1037 76.3101 82.8943 76.0944C82.6849 75.8788 82.4365 75.7205 82.149 75.6196C81.8614 75.5186 81.5606 75.4902 81.2463 75.5343C80.7472 75.6045 80.3403 75.7606 80.0256 76.0028C79.7096 76.2357 79.4898 76.5493 79.3662 76.9437C79.2412 77.3289 79.2164 77.7895 79.2917 78.3255C79.3632 78.8339 79.5318 79.2626 79.7977 79.6116C80.0622 79.9515 80.4028 80.1958 80.8196 80.3445C81.2364 80.4933 81.6989 80.532 82.2073 80.4605C82.5677 80.4099 82.892 80.3031 83.1801 80.14C83.4775 79.9757 83.7843 79.7111 84.1006 79.3462L84.9637 80.2569C84.7731 80.5099 84.5277 80.7423 84.2276 80.9542C83.9368 81.1647 83.6182 81.3461 83.2721 81.4985C82.9338 81.6402 82.5937 81.7352 82.2518 81.7832ZM86.2044 77.764L86.0057 76.3499L89.9984 75.7888L90.1972 77.2029L86.2044 77.764ZM93.1388 80.1118L92.0009 72.0153C91.9425 71.5994 91.9829 71.2167 92.1223 70.8673C92.2617 70.5178 92.4802 70.2279 92.7777 69.9976C93.0752 69.7673 93.4365 69.6223 93.8617 69.5625C94.1574 69.5209 94.4425 69.5374 94.7169 69.612C94.9912 69.6865 95.22 69.8052 95.4031 69.9679L95.0718 71.1314C94.936 71.0373 94.7897 70.9684 94.6327 70.9245C94.4837 70.87 94.3445 70.8519 94.2151 70.8701C94.021 70.8973 93.8592 70.9531 93.7296 71.0372C93.608 71.1109 93.524 71.2169 93.4774 71.3554C93.4296 71.4847 93.4181 71.6371 93.4427 71.8127L94.5806 79.9091L93.8597 80.0105C93.7396 80.0273 93.6194 80.0442 93.4993 80.0611C93.3791 80.078 93.2589 80.0949 93.1388 80.1118ZM91.154 74.4388L90.9689 73.1218L95.2943 72.5138L95.4794 73.8309L91.154 74.4388ZM98.0327 79.424L97.0098 72.1455L98.4377 71.9448L99.4607 79.2233L98.0327 79.424ZM97.4769 70.4399C97.1719 70.4828 96.9252 70.4373 96.7368 70.3036C96.5483 70.1698 96.434 69.9597 96.3937 69.6732C96.356 69.4052 96.4087 69.1763 96.5517 68.9865C96.7039 68.7955 96.9279 68.6792 97.2237 68.6376C97.5287 68.5947 97.7754 68.6402 97.9638 68.7739C98.1523 68.9077 98.2666 69.1178 98.3069 69.4043C98.3446 69.6723 98.2873 69.9019 98.1351 70.0929C97.9921 70.2827 97.7727 70.3983 97.4769 70.4399ZM101.616 78.9203L100.594 71.6419L102.035 71.4392L102.357 73.7267L102.14 73.1917C102.193 72.8262 102.319 72.4833 102.519 72.163C102.728 71.8414 102.978 71.5753 103.269 71.3648C103.569 71.153 103.89 71.023 104.232 70.975C104.389 70.9529 104.539 70.946 104.682 70.9542C104.833 70.9612 104.953 70.9773 105.042 71.0025L104.886 72.6079C104.768 72.5773 104.638 72.5578 104.496 72.5496C104.361 72.5308 104.229 72.5305 104.1 72.5487C103.85 72.5838 103.617 72.6684 103.4 72.8025C103.192 72.9261 103.012 73.0881 102.861 73.2883C102.718 73.4781 102.612 73.6956 102.542 73.941C102.472 74.1771 102.456 74.4292 102.493 74.6972L103.058 78.7177L101.616 78.9203ZM109.62 77.9368C109.01 78.0226 108.445 77.9936 107.926 77.8498C107.406 77.7061 106.955 77.449 106.573 77.0785L107.427 76.1103C107.75 76.3948 108.083 76.5883 108.427 76.6907C108.78 76.7826 109.164 76.7993 109.58 76.7409C109.746 76.7175 109.896 76.6776 110.029 76.6211C110.171 76.5541 110.286 76.4719 110.376 76.3744C110.475 76.2756 110.545 76.1669 110.585 76.0482C110.623 75.9203 110.633 75.787 110.614 75.6483C110.58 75.408 110.465 75.2263 110.268 75.1031C110.167 75.0514 110.009 75.0028 109.795 74.9575C109.59 74.9016 109.324 74.8541 108.998 74.8151C108.442 74.7518 107.981 74.6564 107.615 74.5288C107.248 74.4013 106.957 74.2396 106.741 74.0437C106.577 73.8876 106.449 73.7124 106.356 73.5182C106.261 73.3147 106.196 73.0882 106.161 72.8386C106.118 72.5336 106.144 72.2473 106.238 71.9795C106.341 71.7013 106.494 71.4535 106.699 71.2361C106.912 71.0083 107.169 70.8214 107.469 70.6756C107.778 70.5285 108.113 70.4296 108.473 70.3789C108.815 70.3308 109.159 70.3296 109.505 70.3753C109.86 70.4197 110.193 70.5095 110.504 70.6449C110.815 70.7802 111.085 70.9544 111.313 71.1674L110.621 72.1835C110.421 72.0326 110.206 71.9074 109.975 71.8078C109.752 71.6978 109.529 71.6207 109.306 71.5767C109.083 71.5326 108.884 71.5229 108.708 71.5476C108.514 71.5749 108.341 71.618 108.189 71.6771C108.037 71.7361 107.911 71.8104 107.811 71.8999C107.719 71.9882 107.654 72.0916 107.614 72.2103C107.574 72.329 107.564 72.4577 107.583 72.5964C107.609 72.7152 107.653 72.8268 107.715 72.9313C107.785 73.0251 107.871 73.1025 107.974 73.1635C108.086 73.2231 108.25 73.2803 108.465 73.3349C108.68 73.3895 108.95 73.4317 109.274 73.4615C109.753 73.5167 110.151 73.5974 110.467 73.7037C110.792 73.7995 111.055 73.9275 111.257 74.0876C111.466 74.2373 111.624 74.4224 111.73 74.6431C111.837 74.8638 111.91 75.1174 111.951 75.4039C112.009 75.8198 111.941 76.211 111.748 76.5775C111.562 76.9335 111.284 77.2318 110.912 77.4725C110.541 77.7132 110.11 77.868 109.62 77.9368ZM114.677 77.0848L113.393 67.9486L114.821 67.7479L116.105 76.8841L114.677 77.0848ZM112.337 71.4051L112.143 70.0187L116.773 69.368L116.968 70.7543L112.337 71.4051Z" fill="#562F00"/>
<defs>
<filter id="filter0_dd_282_3076" x="52.947" y="9.94466" width="39.2036" height="49.6039" filterUnits="userSpaceOnUse" color-interpolation-filters="sRGB">
<feFlood flood-opacity="0" result="BackgroundImageFix"/>
<feColorMatrix in="SourceAlpha" type="matrix" values="0 0 0 0 0 0 0 0 0 0 0 0 0 0 0 0 0 0 127 0" result="hardAlpha"/>
<feMorphology radius="1.22222" operator="dilate" in="SourceAlpha" result="effect1_dropShadow_282_3076"/>
<feOffset dy="1.22222"/>
<feGaussianBlur stdDeviation="1.83333"/>
<feColorMatrix type="matrix" values="0 0 0 0 0 0 0 0 0 0 0 0 0 0 0 0 0 0 0.15 0"/>
<feBlend mode="normal" in2="BackgroundImageFix" result="effect1_dropShadow_282_3076"/>
<feColorMatrix in="SourceAlpha" type="matrix" values="0 0 0 0 0 0 0 0 0 0 0 0 0 0 0 0 0 0 127 0" result="hardAlpha"/>
<feOffset dy="1.22222"/>
<feGaussianBlur stdDeviation="1.22222"/>
<feColorMatrix type="matrix" values="0 0 0 0 0 0 0 0 0 0 0 0 0 0 0 0 0 0 0.3 0"/>
<feBlend mode="normal" in2="effect1_dropShadow_282_3076" result="effect2_dropShadow_282_3076"/>
<feBlend mode="normal" in="SourceGraphic" in2="effect2_dropShadow_282_3076" result="shape"/>
</filter>
<filter id="filter1_dd_282_3076" x="50.2322" y="19.8431" width="30.6801" height="41.5571" filterUnits="userSpaceOnUse" color-interpolation-filters="sRGB">
<feFlood flood-opacity="0" result="BackgroundImageFix"/>
<feColorMatrix in="SourceAlpha" type="matrix" values="0 0 0 0 0 0 0 0 0 0 0 0 0 0 0 0 0 0 127 0" result="hardAlpha"/>
<feMorphology radius="1.22222" operator="dilate" in="SourceAlpha" result="effect1_dropShadow_282_3076"/>
<feOffset dy="1.22222"/>
<feGaussianBlur stdDeviation="1.83333"/>
<feColorMatrix type="matrix" values="0 0 0 0 0 0 0 0 0 0 0 0 0 0 0 0 0 0 0.15 0"/>
<feBlend mode="normal" in2="BackgroundImageFix" result="effect1_dropShadow_282_3076"/>
<feColorMatrix in="SourceAlpha" type="matrix" values="0 0 0 0 0 0 0 0 0 0 0 0 0 0 0 0 0 0 127 0" result="hardAlpha"/>
<feOffset dy="1.22222"/>
<feGaussianBlur stdDeviation="1.22222"/>
<feColorMatrix type="matrix" values="0 0 0 0 0 0 0 0 0 0 0 0 0 0 0 0 0 0 0.3 0"/>
<feBlend mode="normal" in2="effect1_dropShadow_282_3076" result="effect2_dropShadow_282_3076"/>
<feBlend mode="normal" in="SourceGraphic" in2="effect2_dropShadow_282_3076" result="shape"/>
</filter>
</defs>
</svg>
