<svg width="55" height="55" viewBox="0 0 55 55" fill="none" xmlns="http://www.w3.org/2000/svg">
<rect y="6.68031" width="48" height="48" rx="4" transform="rotate(-8 0 6.68031)" fill="#F2E9DC"/>
<g filter="url(#filter0_dd_282_3077)">
<path d="M14.7543 14.6498L15.8468 22.4234L18.6666 42.4873C18.8545 43.8242 20.0905 44.7557 21.4274 44.5678L37.1617 42.3565C38.4986 42.1686 39.43 40.9325 39.2421 39.5956L35.3298 11.7581C35.1419 10.4212 33.9059 9.48974 32.569 9.67763L16.8347 11.8889C15.4978 12.0768 14.5664 13.3129 14.7543 14.6498Z" fill="#F2E9DC"/>
<path d="M32.3985 8.46692C34.4038 8.18509 36.2583 9.5826 36.5401 11.5879L40.4525 39.4256C40.7343 41.4309 39.3368 43.2855 37.3315 43.5673L21.5975 45.7786C19.5922 46.0603 17.7377 44.6628 17.4558 42.6576L13.5435 14.8198C13.2617 12.8146 14.6592 10.9601 16.6644 10.6782L32.3985 8.46692Z" stroke="#F2E9DC" stroke-width="2.44444" stroke-linecap="round"/>
</g>
<line x1="16.2261" y1="14.1345" x2="33.7758" y2="11.668" stroke="#F2E9DC" stroke-width="3.05556" stroke-linecap="square"/>
<line x1="20.048" y1="43.5284" x2="38.203" y2="40.9769" stroke="#F2E9DC" stroke-width="2.44444" stroke-linecap="round"/>
<g filter="url(#filter1_dd_282_3077)">
<path d="M13.53 32.5244C10.8155 38.6986 12.0948 41.4037 14.6633 45.3442C15.1782 46.1342 16.1078 46.5497 17.0416 46.4185L24.6242 45.3528C29.047 44.7312 29.4753 40.3512 24.0288 41.1167C21.6082 41.4569 18.9119 43.07 20.2278 40.4166L25.3517 30.5895C25.9938 29.3579 25.441 27.8406 24.157 27.3108C23.0482 26.8532 21.7725 27.2985 21.1892 28.3466L18.1852 33.7443C18.15 33.8075 18.0551 33.7924 18.0413 33.7214L16.4455 25.5203L13.53 32.5244Z" fill="#F2E9DC"/>
<path d="M17.6456 25.2865L18.6418 30.4097L20.1213 27.7521C21.0061 26.1624 22.9412 25.4867 24.6231 26.1806C26.5708 26.9843 27.4096 29.2862 26.4355 31.1545L21.5999 40.4275C21.6956 40.4012 21.797 40.3748 21.904 40.3453C22.4743 40.1883 23.1665 40.0032 23.8589 39.9059C25.3517 39.6961 26.6143 39.8108 27.567 40.2644C28.5634 40.7389 29.228 41.609 29.2491 42.6906C29.2687 43.7034 28.7168 44.6098 27.9499 45.2558C27.1684 45.9141 26.0871 46.3814 24.7945 46.5631L17.2118 47.6288C15.8152 47.8251 14.4171 47.2046 13.6395 46.0116C12.3543 44.0399 11.2531 42.1845 10.9074 39.9599C10.5578 37.7104 10.9997 35.2508 12.4018 32.0549L15.3167 25.0507L16.8724 21.3145L17.6456 25.2865Z" stroke="#F2E9DC" stroke-width="2.44444" stroke-linecap="round"/>
</g>
<path d="M14.7543 14.6498L15.8468 22.4234L18.6666 42.4873C18.8545 43.8242 20.0905 44.7557 21.4274 44.5678L37.1617 42.3565C38.4986 42.1686 39.43 40.9325 39.2421 39.5956L35.3298 11.7581C35.1419 10.4212 33.9059 9.48974 32.569 9.67763L16.8347 11.8889C15.4978 12.0768 14.5664 13.3129 14.7543 14.6498Z" fill="#FFCE99" stroke="#FE7500" stroke-width="1.22222" stroke-linecap="round"/>
<line x1="16.2261" y1="14.1345" x2="33.7758" y2="11.668" stroke="#FE7500" stroke-width="3.05556" stroke-linecap="square"/>
<line x1="20.048" y1="43.5284" x2="38.203" y2="40.9769" stroke="#FE7500" stroke-width="2.44444" stroke-linecap="round"/>
<path d="M13.53 32.5244C10.8155 38.6986 12.0948 41.4037 14.6633 45.3442C15.1782 46.1342 16.1078 46.5497 17.0416 46.4185L24.6242 45.3528C29.047 44.7312 29.4753 40.3512 24.0288 41.1167C21.6082 41.4569 18.6607 42.6482 19.9766 39.9948L24.1626 33.7157C25.036 32.4056 24.3214 30.6269 22.7843 30.2854C21.9789 30.1064 21.1404 30.3844 20.6015 31.0091L18.1766 33.8201C18.1382 33.8646 18.0654 33.8453 18.0542 33.7876L16.4455 25.5203L13.53 32.5244Z" fill="#FFCE99" stroke="#FE7500" stroke-width="1.22222" stroke-linecap="round"/>
<defs>
<filter id="filter0_dd_282_3077" x="7.39627" y="3.54294" width="39.2036" height="49.6039" filterUnits="userSpaceOnUse" color-interpolation-filters="sRGB">
<feFlood flood-opacity="0" result="BackgroundImageFix"/>
<feColorMatrix in="SourceAlpha" type="matrix" values="0 0 0 0 0 0 0 0 0 0 0 0 0 0 0 0 0 0 127 0" result="hardAlpha"/>
<feMorphology radius="1.22222" operator="dilate" in="SourceAlpha" result="effect1_dropShadow_282_3077"/>
<feOffset dy="1.22222"/>
<feGaussianBlur stdDeviation="1.83333"/>
<feColorMatrix type="matrix" values="0 0 0 0 0 0 0 0 0 0 0 0 0 0 0 0 0 0 0.15 0"/>
<feBlend mode="normal" in2="BackgroundImageFix" result="effect1_dropShadow_282_3077"/>
<feColorMatrix in="SourceAlpha" type="matrix" values="0 0 0 0 0 0 0 0 0 0 0 0 0 0 0 0 0 0 127 0" result="hardAlpha"/>
<feOffset dy="1.22222"/>
<feGaussianBlur stdDeviation="1.22222"/>
<feColorMatrix type="matrix" values="0 0 0 0 0 0 0 0 0 0 0 0 0 0 0 0 0 0 0.3 0"/>
<feBlend mode="normal" in2="effect1_dropShadow_282_3077" result="effect2_dropShadow_282_3077"/>
<feBlend mode="normal" in="SourceGraphic" in2="effect2_dropShadow_282_3077" result="shape"/>
</filter>
<filter id="filter1_dd_282_3077" x="4.68142" y="13.4414" width="30.6801" height="41.5571" filterUnits="userSpaceOnUse" color-interpolation-filters="sRGB">
<feFlood flood-opacity="0" result="BackgroundImageFix"/>
<feColorMatrix in="SourceAlpha" type="matrix" values="0 0 0 0 0 0 0 0 0 0 0 0 0 0 0 0 0 0 127 0" result="hardAlpha"/>
<feMorphology radius="1.22222" operator="dilate" in="SourceAlpha" result="effect1_dropShadow_282_3077"/>
<feOffset dy="1.22222"/>
<feGaussianBlur stdDeviation="1.83333"/>
<feColorMatrix type="matrix" values="0 0 0 0 0 0 0 0 0 0 0 0 0 0 0 0 0 0 0.15 0"/>
<feBlend mode="normal" in2="BackgroundImageFix" result="effect1_dropShadow_282_3077"/>
<feColorMatrix in="SourceAlpha" type="matrix" values="0 0 0 0 0 0 0 0 0 0 0 0 0 0 0 0 0 0 127 0" result="hardAlpha"/>
<feOffset dy="1.22222"/>
<feGaussianBlur stdDeviation="1.22222"/>
<feColorMatrix type="matrix" values="0 0 0 0 0 0 0 0 0 0 0 0 0 0 0 0 0 0 0.3 0"/>
<feBlend mode="normal" in2="effect1_dropShadow_282_3077" result="effect2_dropShadow_282_3077"/>
<feBlend mode="normal" in="SourceGraphic" in2="effect2_dropShadow_282_3077" result="shape"/>
</filter>
</defs>
</svg>
