<svg width="151" height="101" viewBox="0 0 151 101" fill="none" xmlns="http://www.w3.org/2000/svg">
<rect x="56.9648" y="6.40234" width="48" height="48" rx="4" transform="rotate(8 56.9648 6.40234)" fill="#F2E9DC"/>
<g filter="url(#filter0_dd_282_3092)">
<path d="M82.0391 36.3477L90.5721 32.1719C91.3162 31.8077 92.2146 32.1157 92.5788 32.8598C92.9429 33.6039 92.6349 34.5024 91.8908 34.8665L83.3577 39.0423L82.0391 36.3477Z" fill="#F2E9DC"/>
</g>
<path d="M83.375 36.8066L90.9065 33.1209C91.2116 32.9716 91.58 33.0979 91.7293 33.403C91.8786 33.7081 91.7523 34.0764 91.4472 34.2257L83.9157 37.9114L83.375 36.8066Z" fill="#FE7500"/>
<g filter="url(#filter1_dd_282_3092)">
<path d="M74.9752 29.1308L76.2973 19.7233C76.4126 18.9029 77.1711 18.3313 77.9915 18.4466C78.8119 18.5619 79.3834 19.3204 79.2681 20.1408L77.946 29.5484L74.9752 29.1308Z" fill="#F2E9DC"/>
<path d="M76.1046 28.2797L77.2716 19.9763C77.3189 19.64 77.6299 19.4056 77.9662 19.4529C78.3026 19.5002 78.5369 19.8112 78.4896 20.1475L77.3227 28.4509L76.1046 28.2797Z" fill="#FE7500"/>
<path d="M87.1903 21.2542C87.075 22.0746 86.3165 22.6461 85.4961 22.5308L70.6421 20.4432C69.8217 20.3279 69.2502 19.5694 69.3655 18.7491C69.4808 17.9287 70.2393 17.3571 71.0596 17.4724L85.9136 19.56C86.734 19.6753 87.3056 20.4338 87.1903 21.2542Z" fill="#F2E9DC"/>
<path d="M86.216 21.0011C86.1688 21.3375 85.8578 21.5718 85.5214 21.5246L70.8952 19.469C70.5588 19.4217 70.3245 19.1107 70.3717 18.7744C70.419 18.438 70.73 18.2037 71.0663 18.2509L85.6926 20.3065C86.0289 20.3538 86.2633 20.6648 86.216 21.0011Z" fill="#FE7500"/>
</g>
<g filter="url(#filter2_dd_282_3092)">
<rect x="67.4727" y="25.0469" width="19" height="19" rx="9.5" transform="rotate(8 67.4727 25.0469)" fill="#F2E9DC"/>
<rect x="66.196" y="23.3527" width="22" height="22" rx="11" transform="rotate(8 66.196 23.3527)" stroke="#F2E9DC" stroke-width="3"/>
</g>
<rect x="66.9492" y="24.3523" width="20.23" height="20.23" rx="10.115" transform="rotate(8 66.9492 24.3523)" fill="#FECE99" stroke="#FE7500" stroke-width="1.23"/>
<rect x="74.8516" y="37.1914" width="6" height="1.23" rx="0.615" transform="rotate(-82 74.8516 37.1914)" fill="#FE7500"/>
<rect x="77.0312" y="41.3691" width="4.97866" height="1.23" rx="0.615" transform="rotate(-115.373 77.0312 41.3691)" fill="#FE7500"/>
<rect x="3.89844" y="53.4746" width="140" height="28" rx="8" transform="rotate(8 3.89844 53.4746)" fill="#FECE99"/>
<path d="M23.5422 75.5637C22.8583 75.4675 22.2842 75.2266 21.82 74.8409C21.3651 74.4565 20.9678 73.8635 20.628 73.0617L21.8959 72.4906C22.0789 72.8651 22.2657 73.1788 22.4563 73.4318C22.6575 73.6768 22.8711 73.8671 23.0971 74.0025C23.3232 74.138 23.5702 74.2245 23.8382 74.2622C24.1617 74.3076 24.4731 74.2713 24.7725 74.1531C25.0731 74.0257 25.3268 73.8305 25.5334 73.5673C25.7401 73.3042 25.8687 72.9924 25.9194 72.632C25.97 72.2715 25.9482 71.9574 25.8539 71.6897C25.7608 71.4127 25.5986 71.192 25.3673 71.0275C25.1372 70.8538 24.8512 70.7429 24.5092 70.6949C24.3521 70.6728 24.1831 70.6679 24.0023 70.6802C23.8321 70.6845 23.6454 70.7054 23.4422 70.7428C23.2403 70.771 23.0173 70.8151 22.7733 70.875L22.5113 69.7213L25.9696 66.8426L26.2003 67.3133L22.0689 66.7327L22.2637 65.3463L27.8231 66.1276L28.0225 66.7211L24.3528 69.7963L24.0568 69.3872C24.136 69.3606 24.2607 69.3451 24.4309 69.3408C24.6117 69.3285 24.7576 69.3301 24.8685 69.3457C25.2752 69.4029 25.6431 69.5347 25.9722 69.7412C26.3119 69.9397 26.5916 70.1958 26.8114 70.5095C27.0418 70.8152 27.2049 71.1632 27.3009 71.5537C27.4073 71.9363 27.4313 72.3355 27.3729 72.7514C27.2845 73.3799 27.0528 73.9223 26.6777 74.3785C26.3131 74.8268 25.8565 75.1585 25.3079 75.3735C24.7592 75.5886 24.1707 75.652 23.5422 75.5637ZM28.5793 72.8079L28.7781 71.3938L32.7708 71.9549L32.5721 73.369L28.5793 72.8079ZM36.3589 77.3225C35.7211 77.2329 35.1636 77.0084 34.6863 76.6492C34.2103 76.2807 33.8396 75.7997 33.5743 75.2064L34.5367 74.3944C34.9035 74.9361 35.2363 75.3174 35.5351 75.5385C35.834 75.7596 36.1728 75.8967 36.5518 75.95C36.9307 76.0032 37.2844 75.9681 37.6128 75.8446C37.9411 75.7211 38.2133 75.5285 38.4291 75.2666C38.6543 75.0061 38.7915 74.7002 38.8409 74.349C38.8928 73.9793 38.8511 73.6388 38.7158 73.3276C38.591 73.0085 38.397 72.7456 38.1339 72.539C37.872 72.3231 37.5609 72.1898 37.2004 72.1392C37.0248 72.1145 36.8565 72.105 36.6955 72.1106C36.5358 72.107 36.3392 72.1312 36.1057 72.1832C35.8721 72.2353 35.5628 72.3237 35.1777 72.4487L34.5375 71.2701L35.6846 67.2325L40.9251 67.969L40.7302 69.3553L36.4325 68.7513L36.7606 68.5288L35.8706 71.5423L35.5805 71.0915C35.6859 71.0121 35.8554 70.9464 36.0889 70.8944C36.3237 70.8331 36.579 70.7936 36.8548 70.7758C37.1412 70.7501 37.4092 70.7548 37.6587 70.7898C38.2502 70.873 38.7576 71.0856 39.1807 71.4279C39.6144 71.7621 39.9315 72.1884 40.132 72.7067C40.3417 73.2263 40.4031 73.7957 40.316 74.4149C40.2264 75.0527 39.9927 75.6089 39.615 76.0836C39.2385 76.5491 38.7655 76.8973 38.1958 77.1283C37.6274 77.35 37.0151 77.4147 36.3589 77.3225ZM45.4787 78.5052L46.5016 71.2268L47.9434 71.4294L47.7252 72.9822L47.4384 73.1115C47.5461 72.8816 47.6941 72.6668 47.8824 72.467C48.08 72.2686 48.306 72.1024 48.5604 71.9685C48.8254 71.8267 49.099 71.7238 49.3814 71.6598C49.6729 71.5971 49.962 71.5859 50.2485 71.6261C50.6644 71.6846 51.0197 71.8052 51.3145 71.988C51.6093 72.1708 51.8388 72.4151 52.0032 72.721C52.1676 73.0268 52.2667 73.3942 52.3007 73.8231L52.0867 73.7365L52.2168 73.5144C52.3484 73.3162 52.515 73.1369 52.7165 72.9768C52.9287 72.8086 53.1607 72.6669 53.4125 72.5515C53.6643 72.4361 53.9255 72.355 54.196 72.3082C54.4665 72.2613 54.7265 72.2555 54.976 72.2905C55.5213 72.3672 55.954 72.5411 56.2741 72.8123C56.6033 73.0847 56.824 73.4598 56.9359 73.9373C57.0571 74.4162 57.0703 74.993 56.9755 75.6677L56.3617 80.0348L54.9199 79.8321L55.522 75.5482C55.5804 75.1323 55.5724 74.7872 55.4978 74.5128C55.4338 74.2305 55.3046 74.0097 55.1102 73.8504C54.9159 73.6911 54.6523 73.5881 54.3196 73.5414C54.0608 73.505 53.8094 73.5168 53.5653 73.5767C53.3318 73.6287 53.1208 73.7216 52.9324 73.8553C52.7439 73.9891 52.5885 74.1558 52.4662 74.3553C52.3452 74.5457 52.2672 74.7656 52.2321 75.0152L51.6203 79.3684L50.1785 79.1658L50.7845 74.8541C50.8377 74.4752 50.8271 74.1485 50.7525 73.8742C50.6793 73.5905 50.5461 73.3645 50.353 73.196C50.1599 73.0274 49.9109 72.9218 49.6059 72.8789C49.3471 72.8425 49.1003 72.855 48.8655 72.9162C48.632 72.9682 48.421 73.0611 48.2326 73.1948C48.0454 73.3193 47.8907 73.4814 47.7684 73.681C47.6474 73.8713 47.57 74.0866 47.5362 74.3269L46.9205 78.7079L45.4787 78.5052ZM58.4759 80.3319L59.4989 73.0534L60.9268 73.2541L59.9039 80.5326L58.4759 80.3319ZM60.4181 71.5426C60.1131 71.4998 59.8884 71.3881 59.7441 71.2076C59.5998 71.0271 59.5478 70.7936 59.5881 70.5071C59.6258 70.239 59.7395 70.0335 59.9292 69.8905C60.1282 69.7489 60.3756 69.6988 60.6714 69.7404C60.9764 69.7832 61.201 69.8949 61.3453 70.0754C61.4896 70.2559 61.5416 70.4894 61.5013 70.7759C61.4636 71.044 61.3453 71.2488 61.1463 71.3905C60.9566 71.5335 60.7138 71.5842 60.4181 71.5426ZM62.0655 80.8364L63.0885 73.5579L64.5164 73.7586L64.306 75.2559L64.0331 75.3872C64.171 75.0767 64.3928 74.8062 64.6985 74.5759C65.0055 74.3363 65.3555 74.1593 65.7486 74.0449C66.143 73.9212 66.5342 73.8867 66.9224 73.9412C67.477 74.0192 67.9235 74.195 68.262 74.4688C68.6019 74.7333 68.833 75.1004 68.9555 75.57C69.078 76.0396 69.0919 76.6118 68.997 77.2865L68.3735 81.7229L66.9456 81.5222L67.5554 77.1829C67.6139 76.767 67.6065 76.4172 67.5333 76.1336C67.4613 75.8407 67.3183 75.618 67.1041 75.4653C66.8912 75.3035 66.6125 75.2077 66.2679 75.1782C65.9906 75.1392 65.73 75.1497 65.4859 75.2096C65.2432 75.2604 65.0229 75.3519 64.8252 75.4844C64.6368 75.6181 64.4768 75.7841 64.3453 75.9824C64.2243 76.1728 64.1469 76.3881 64.1131 76.6284L63.4935 81.0371L62.7865 80.9377C62.6663 80.9208 62.5461 80.9039 62.426 80.887C62.3058 80.8701 62.1857 80.8533 62.0655 80.8364ZM74.1575 82.5358L75.5993 72.2766L77.0273 72.4773L75.5855 82.7365L74.1575 82.5358ZM80.8177 83.6132C80.0691 83.508 79.4257 83.2573 78.8876 82.8613C78.36 82.4572 77.9688 81.9546 77.714 81.3533C77.4685 80.7532 77.3964 80.0928 77.4977 79.3719C77.5782 78.7988 77.744 78.2896 77.9951 77.8442C78.2462 77.3988 78.5576 77.0279 78.9291 76.7314C79.3112 76.4269 79.7417 76.2141 80.2205 76.0929C80.7099 75.9638 81.2227 75.9369 81.7587 76.0122C82.2301 76.0784 82.6561 76.2326 83.0368 76.4746C83.4188 76.7073 83.7356 77.0016 83.9872 77.3574C84.248 77.7145 84.4265 78.1213 84.5226 78.5778C84.6292 79.0263 84.6421 79.5041 84.5615 80.0112L84.4619 80.6192L78.5143 79.7834L78.3552 78.6017L83.3878 79.309L83.1467 79.5155L83.1934 79.1827C83.2086 78.8738 83.1452 78.5869 83.0034 78.3219C82.8616 78.0569 82.6664 77.8363 82.4178 77.66C82.1693 77.4836 81.8879 77.3734 81.5736 77.3292C81.0745 77.2591 80.6404 77.297 80.2711 77.4431C79.9032 77.5799 79.6054 77.8208 79.3778 78.1658C79.1516 78.5016 79.0008 78.9375 78.9254 79.4736C78.854 79.9819 78.8979 80.4405 79.0573 80.8493C79.2179 81.2489 79.478 81.5776 79.8376 81.8355C80.1972 82.0934 80.6312 82.258 81.1395 82.3295C81.5 82.3802 81.8411 82.3668 82.163 82.2895C82.4942 82.2136 82.862 82.0438 83.2667 81.7802L83.8453 82.8936C83.5924 83.0842 83.2924 83.24 82.9456 83.3609C82.6079 83.4831 82.2517 83.5697 81.877 83.6207C81.5128 83.6638 81.1597 83.6613 80.8177 83.6132ZM87.9373 84.6138C87.3273 84.5281 86.7923 84.3445 86.3323 84.0631C85.8723 83.7816 85.5098 83.4102 85.2448 82.9489L86.3322 82.2534C86.564 82.6159 86.8312 82.8938 87.1339 83.0871C87.4472 83.2725 87.8118 83.3945 88.2277 83.4529C88.394 83.4763 88.5491 83.4792 88.693 83.4617C88.8473 83.4363 88.9812 83.3892 89.0946 83.3203C89.2172 83.2527 89.314 83.1673 89.385 83.0642C89.4574 82.9518 89.5033 82.8263 89.5228 82.6877C89.5565 82.4474 89.496 82.241 89.3412 82.0684C89.2579 81.9907 89.1197 81.9006 88.9268 81.7981C88.7444 81.6876 88.5019 81.5687 88.1993 81.4414C87.6828 81.2274 87.2658 81.0086 86.9485 80.7849C86.6312 80.5613 86.3958 80.3255 86.2421 80.0777C86.1281 79.8826 86.0531 79.6789 86.017 79.4664C85.9821 79.2448 85.9823 79.0092 86.0173 78.7596C86.0602 78.4546 86.1639 78.1864 86.3283 77.9551C86.5033 77.7158 86.7194 77.5199 86.9764 77.3675C87.244 77.2072 87.5421 77.0983 87.8706 77.0408C88.2084 76.9846 88.5575 76.9818 88.9179 77.0325C89.2599 77.0806 89.5908 77.1742 89.9105 77.3134C90.2395 77.4538 90.5349 77.632 90.7967 77.8479C91.0586 78.0638 91.2697 78.3055 91.43 78.5731L90.4854 79.3593C90.3344 79.159 90.1618 78.9792 89.9674 78.8199C89.7835 78.6527 89.5905 78.5172 89.3883 78.4134C89.1861 78.3096 88.9972 78.2453 88.8216 78.2207C88.6275 78.1934 88.4493 78.1872 88.287 78.2021C88.1247 78.217 87.9829 78.2536 87.8616 78.3119C87.7495 78.3716 87.658 78.453 87.5869 78.5561C87.5159 78.6592 87.4706 78.7801 87.4512 78.9187C87.4435 79.0402 87.455 79.1596 87.4856 79.277C87.5268 79.3865 87.5884 79.4846 87.6704 79.5716C87.7617 79.6598 87.9032 79.7598 88.0948 79.8716C88.2865 79.9833 88.5342 80.0983 88.8381 80.2164C89.2833 80.4015 89.6434 80.5887 89.9184 80.7782C90.2039 80.9597 90.4215 81.1552 90.5711 81.3647C90.7313 81.5663 90.8321 81.7878 90.8736 82.0293C90.915 82.2707 90.9156 82.5347 90.8753 82.8212C90.8169 83.2372 90.6441 83.5946 90.3571 83.8935C90.0805 84.1846 89.7306 84.3946 89.3072 84.5236C88.8838 84.6526 88.4271 84.6826 87.9373 84.6138ZM94.538 85.5415C93.928 85.4557 93.393 85.2722 92.9331 84.9907C92.4731 84.7093 92.1106 84.3379 91.8455 83.8765L92.9329 83.1811C93.1647 83.5436 93.432 83.8215 93.7347 84.0148C94.0479 84.2002 94.4125 84.3221 94.8284 84.3806C94.9948 84.404 95.1499 84.4069 95.2937 84.3894C95.4481 84.364 95.582 84.3168 95.6953 84.2479C95.8179 84.1803 95.9147 84.095 95.9858 83.9919C96.0581 83.8795 96.104 83.754 96.1235 83.6154C96.1573 83.3751 96.0968 83.1686 95.9419 82.9961C95.8586 82.9184 95.7205 82.8283 95.5275 82.7258C95.3451 82.6153 95.1027 82.4964 94.8001 82.3691C94.2835 82.1551 93.8666 81.9363 93.5493 81.7126C93.232 81.4889 92.9965 81.2532 92.8428 81.0054C92.7289 80.8103 92.6538 80.6065 92.6177 80.3941C92.5829 80.1724 92.583 79.9368 92.6181 79.6873C92.661 79.3823 92.7646 79.1141 92.9291 78.8827C93.1041 78.6434 93.3201 78.4476 93.5772 78.2952C93.8447 78.1349 94.1428 78.026 94.4713 77.9685C94.8091 77.9123 95.1582 77.9095 95.5187 77.9602C95.8607 78.0082 96.1915 78.1018 96.5113 78.241C96.8402 78.3815 97.1357 78.5597 97.3975 78.7756C97.6593 78.9915 97.8704 79.2332 98.0307 79.5008L97.0861 80.287C96.9352 80.0867 96.7625 79.9069 96.5681 79.7476C96.3843 79.5804 96.1913 79.4449 95.9891 79.3411C95.7869 79.2373 95.598 79.173 95.4224 79.1483C95.2283 79.121 95.0501 79.1149 94.8878 79.1297C94.7255 79.1446 94.5836 79.1812 94.4623 79.2396C94.3503 79.2993 94.2587 79.3806 94.1877 79.4838C94.1167 79.5869 94.0714 79.7077 94.0519 79.8464C94.0443 79.9678 94.0558 80.0873 94.0864 80.2047C94.1275 80.3141 94.1891 80.4123 94.2712 80.4993C94.3625 80.5875 94.5039 80.6875 94.6956 80.7992C94.8872 80.911 95.1349 81.0259 95.4388 81.144C95.884 81.3291 96.2441 81.5164 96.5191 81.7059C96.8046 81.8874 97.0222 82.0829 97.1718 82.2924C97.332 82.494 97.4328 82.7155 97.4743 82.957C97.5158 83.1984 97.5164 83.4624 97.4761 83.7489C97.4176 84.1648 97.2449 84.5223 96.9578 84.8212C96.6813 85.1122 96.3313 85.3222 95.9079 85.4512C95.4845 85.5802 95.0279 85.6103 94.538 85.5415ZM101.984 86.588C101.273 86.488 100.658 86.2366 100.139 85.8339C99.6317 85.4232 99.2557 84.9133 99.0114 84.304C98.7685 83.6855 98.6983 83.0112 98.8009 82.281C98.9035 81.5509 99.1562 80.9266 99.5589 80.4083C99.9629 79.8807 100.465 79.4941 101.065 79.2486C101.676 78.9951 102.337 78.9184 103.048 79.0184C103.751 79.1171 104.356 79.3718 104.864 79.7825C105.382 80.1852 105.763 80.6958 106.006 81.3143C106.25 81.9236 106.321 82.5933 106.218 83.3234C106.115 84.0536 105.862 84.6824 105.458 85.21C105.055 85.7283 104.549 86.1143 103.938 86.3677C103.338 86.6133 102.687 86.6867 101.984 86.588ZM102.168 85.2848C102.602 85.3459 103.005 85.2941 103.377 85.1296C103.75 84.9558 104.06 84.6978 104.306 84.3553C104.553 84.0037 104.705 83.5915 104.762 83.1188C104.839 82.6395 104.806 82.2014 104.664 81.8044C104.523 81.3982 104.297 81.0647 103.985 80.8041C103.673 80.5435 103.3 80.3826 102.865 80.3216C102.431 80.2605 102.022 80.3162 101.64 80.4887C101.268 80.6532 100.959 80.9113 100.711 81.263C100.465 81.6054 100.314 82.0129 100.257 82.4856C100.181 82.9557 100.214 83.3938 100.355 83.8C100.497 84.197 100.723 84.5304 101.034 84.8003C101.355 85.0623 101.733 85.2237 102.168 85.2848ZM107.228 87.1836L108.251 79.9051L109.679 80.1058L109.469 81.6031L109.196 81.7344C109.334 81.4239 109.556 81.1535 109.861 80.9231C110.168 80.6835 110.518 80.5065 110.911 80.3921C111.306 80.2684 111.697 80.2339 112.085 80.2884C112.64 80.3664 113.086 80.5422 113.425 80.816C113.765 81.0805 113.996 81.4476 114.118 81.9172C114.241 82.3869 114.255 82.959 114.16 83.6337L113.536 88.0701L112.108 87.8694L112.718 83.5301C112.777 83.1142 112.769 82.7644 112.696 82.4808C112.624 82.1879 112.481 81.9652 112.267 81.8125C112.054 81.6507 111.775 81.555 111.431 81.5254C111.153 81.4864 110.893 81.4969 110.649 81.5569C110.406 81.6076 110.186 81.6991 109.988 81.8316C109.8 81.9653 109.64 82.1313 109.508 82.3296C109.387 82.52 109.31 82.7353 109.276 82.9756L108.656 87.3843L107.949 87.2849C107.829 87.268 107.709 87.2511 107.589 87.2342C107.469 87.2174 107.348 87.2005 107.228 87.1836ZM117.847 88.8173C117.237 88.7316 116.702 88.548 116.242 88.2666C115.782 87.9852 115.419 87.6138 115.154 87.1524L116.242 86.4569C116.474 86.8194 116.741 87.0973 117.043 87.2906C117.357 87.476 117.721 87.598 118.137 87.6564C118.304 87.6798 118.459 87.6827 118.603 87.6653C118.757 87.6398 118.891 87.5927 119.004 87.5238C119.127 87.4562 119.224 87.3708 119.295 87.2677C119.367 87.1554 119.413 87.0299 119.432 86.8912C119.466 86.6509 119.406 86.4445 119.251 86.2719C119.167 86.1942 119.029 86.1041 118.836 86.0016C118.654 85.8912 118.411 85.7722 118.109 85.6449C117.592 85.4309 117.175 85.2121 116.858 84.9884C116.541 84.7648 116.305 84.529 116.152 84.2812C116.038 84.0861 115.963 83.8824 115.927 83.67C115.892 83.4483 115.892 83.2127 115.927 82.9631C115.97 82.6581 116.073 82.3899 116.238 82.1586C116.413 81.9193 116.629 81.7234 116.886 81.5711C117.154 81.4107 117.452 81.3018 117.78 81.2443C118.118 81.1881 118.467 81.1853 118.827 81.236C119.169 81.2841 119.5 81.3777 119.82 81.5169C120.149 81.6574 120.444 81.8355 120.706 82.0514C120.968 82.2673 121.179 82.509 121.34 82.7766L120.395 83.5628C120.244 83.3625 120.071 83.1827 119.877 83.0235C119.693 82.8562 119.5 82.7207 119.298 82.6169C119.096 82.5131 118.907 82.4488 118.731 82.4242C118.537 82.3969 118.359 82.3907 118.197 82.4056C118.034 82.4205 117.892 82.4571 117.771 82.5154C117.659 82.5751 117.568 82.6565 117.496 82.7596C117.425 82.8627 117.38 82.9836 117.361 83.1222C117.353 83.2437 117.365 83.3631 117.395 83.4805C117.436 83.59 117.498 83.6882 117.58 83.7751C117.671 83.8633 117.813 83.9633 118.004 84.0751C118.196 84.1868 118.444 84.3018 118.748 84.4199C119.193 84.605 119.553 84.7922 119.828 84.9817C120.113 85.1632 120.331 85.3587 120.481 85.5682C120.641 85.7698 120.742 85.9913 120.783 86.2328C120.825 86.4743 120.825 86.7382 120.785 87.0248C120.726 87.4407 120.554 87.7981 120.267 88.0971C119.99 88.3881 119.64 88.5981 119.217 88.7271C118.793 88.8561 118.337 88.8861 117.847 88.8173Z" fill="#562F00"/>
<defs>
<filter id="filter0_dd_282_3092" x="78.0391" y="29.0195" width="18.6914" height="15.0234" filterUnits="userSpaceOnUse" color-interpolation-filters="sRGB">
<feFlood flood-opacity="0" result="BackgroundImageFix"/>
<feColorMatrix in="SourceAlpha" type="matrix" values="0 0 0 0 0 0 0 0 0 0 0 0 0 0 0 0 0 0 127 0" result="hardAlpha"/>
<feMorphology radius="1" operator="dilate" in="SourceAlpha" result="effect1_dropShadow_282_3092"/>
<feOffset dy="1"/>
<feGaussianBlur stdDeviation="1.5"/>
<feColorMatrix type="matrix" values="0 0 0 0 0 0 0 0 0 0 0 0 0 0 0 0 0 0 0.15 0"/>
<feBlend mode="normal" in2="BackgroundImageFix" result="effect1_dropShadow_282_3092"/>
<feColorMatrix in="SourceAlpha" type="matrix" values="0 0 0 0 0 0 0 0 0 0 0 0 0 0 0 0 0 0 127 0" result="hardAlpha"/>
<feOffset dy="1"/>
<feGaussianBlur stdDeviation="1"/>
<feColorMatrix type="matrix" values="0 0 0 0 0 0 0 0 0 0 0 0 0 0 0 0 0 0 0.3 0"/>
<feBlend mode="normal" in2="effect1_dropShadow_282_3092" result="effect2_dropShadow_282_3092"/>
<feBlend mode="normal" in="SourceGraphic" in2="effect2_dropShadow_282_3092" result="shape"/>
</filter>
<filter id="filter1_dd_282_3092" x="65.3516" y="14.457" width="25.8516" height="20.0918" filterUnits="userSpaceOnUse" color-interpolation-filters="sRGB">
<feFlood flood-opacity="0" result="BackgroundImageFix"/>
<feColorMatrix in="SourceAlpha" type="matrix" values="0 0 0 0 0 0 0 0 0 0 0 0 0 0 0 0 0 0 127 0" result="hardAlpha"/>
<feMorphology radius="1" operator="dilate" in="SourceAlpha" result="effect1_dropShadow_282_3092"/>
<feOffset dy="1"/>
<feGaussianBlur stdDeviation="1.5"/>
<feColorMatrix type="matrix" values="0 0 0 0 0 0 0 0 0 0 0 0 0 0 0 0 0 0 0.15 0"/>
<feBlend mode="normal" in2="BackgroundImageFix" result="effect1_dropShadow_282_3092"/>
<feColorMatrix in="SourceAlpha" type="matrix" values="0 0 0 0 0 0 0 0 0 0 0 0 0 0 0 0 0 0 127 0" result="hardAlpha"/>
<feOffset dy="1"/>
<feGaussianBlur stdDeviation="1"/>
<feColorMatrix type="matrix" values="0 0 0 0 0 0 0 0 0 0 0 0 0 0 0 0 0 0 0.3 0"/>
<feBlend mode="normal" in2="effect1_dropShadow_282_3092" result="effect2_dropShadow_282_3092"/>
<feBlend mode="normal" in="SourceGraphic" in2="effect2_dropShadow_282_3092" result="shape"/>
</filter>
<filter id="filter2_dd_282_3092" x="59.0547" y="20.2754" width="33.0039" height="33.002" filterUnits="userSpaceOnUse" color-interpolation-filters="sRGB">
<feFlood flood-opacity="0" result="BackgroundImageFix"/>
<feColorMatrix in="SourceAlpha" type="matrix" values="0 0 0 0 0 0 0 0 0 0 0 0 0 0 0 0 0 0 127 0" result="hardAlpha"/>
<feMorphology radius="1" operator="dilate" in="SourceAlpha" result="effect1_dropShadow_282_3092"/>
<feOffset dy="1"/>
<feGaussianBlur stdDeviation="1.5"/>
<feColorMatrix type="matrix" values="0 0 0 0 0 0 0 0 0 0 0 0 0 0 0 0 0 0 0.15 0"/>
<feBlend mode="normal" in2="BackgroundImageFix" result="effect1_dropShadow_282_3092"/>
<feColorMatrix in="SourceAlpha" type="matrix" values="0 0 0 0 0 0 0 0 0 0 0 0 0 0 0 0 0 0 127 0" result="hardAlpha"/>
<feOffset dy="1"/>
<feGaussianBlur stdDeviation="1"/>
<feColorMatrix type="matrix" values="0 0 0 0 0 0 0 0 0 0 0 0 0 0 0 0 0 0 0.3 0"/>
<feBlend mode="normal" in2="effect1_dropShadow_282_3092" result="effect2_dropShadow_282_3092"/>
<feBlend mode="normal" in="SourceGraphic" in2="effect2_dropShadow_282_3092" result="shape"/>
</filter>
</defs>
</svg>
