<svg width="55" height="55" viewBox="0 0 55 55" fill="none" xmlns="http://www.w3.org/2000/svg">
<rect x="6.68031" width="48" height="48" rx="4" transform="rotate(8 6.68031 0)" fill="#F2E9DC"/>
<g filter="url(#filter0_dd_282_3093)">
<path d="M31.7545 29.9453L40.2876 25.7695C41.0317 25.4054 41.9301 25.7134 42.2942 26.4575C42.6584 27.2016 42.3503 28.1 41.6062 28.4642L33.0732 32.64L31.7545 29.9453Z" fill="#F2E9DC"/>
</g>
<path d="M33.0905 30.4043L40.622 26.7186C40.9271 26.5693 41.2954 26.6956 41.4447 27.0007C41.594 27.3058 41.4677 27.6741 41.1626 27.8234L33.6311 31.5091L33.0905 30.4043Z" fill="#FE7500"/>
<g filter="url(#filter1_dd_282_3093)">
<path d="M24.6907 22.7285L26.0128 13.3209C26.1281 12.5006 26.8866 11.929 27.707 12.0443C28.5273 12.1596 29.0989 12.9181 28.9836 13.7385L27.6615 23.146L24.6907 22.7285Z" fill="#F2E9DC"/>
<path d="M25.8201 21.8774L26.9871 13.574C27.0343 13.2376 27.3453 13.0033 27.6817 13.0506C28.018 13.0978 28.2524 13.4088 28.2051 13.7452L27.0381 22.0486L25.8201 21.8774Z" fill="#FE7500"/>
<path d="M36.9057 14.8518C36.7905 15.6722 36.032 16.2438 35.2116 16.1285L20.3576 14.0409C19.5372 13.9256 18.9656 13.1671 19.0809 12.3467C19.1962 11.5264 19.9547 10.9548 20.7751 11.0701L35.6291 13.1577C36.4495 13.273 37.021 14.0315 36.9057 14.8518Z" fill="#F2E9DC"/>
<path d="M35.9315 14.5988C35.8842 14.9351 35.5732 15.1695 35.2369 15.1222L20.6106 13.0666C20.2743 13.0194 20.0399 12.7084 20.0872 12.372C20.1345 12.0357 20.4455 11.8013 20.7818 11.8486L35.4081 13.9042C35.7444 13.9515 35.9788 14.2624 35.9315 14.5988Z" fill="#FE7500"/>
</g>
<g filter="url(#filter2_dd_282_3093)">
<rect x="17.1881" y="18.6445" width="19" height="19" rx="9.5" transform="rotate(8 17.1881 18.6445)" fill="#F2E9DC"/>
<rect x="15.9115" y="16.9504" width="22" height="22" rx="11" transform="rotate(8 15.9115 16.9504)" stroke="#F2E9DC" stroke-width="3"/>
</g>
<rect x="16.6647" y="17.9499" width="20.23" height="20.23" rx="10.115" transform="rotate(8 16.6647 17.9499)" fill="#FECE99" stroke="#FE7500" stroke-width="1.23"/>
<rect x="24.567" y="30.7891" width="6" height="1.23" rx="0.615" transform="rotate(-82 24.567 30.7891)" fill="#FE7500"/>
<rect x="26.7467" y="34.9668" width="4.97866" height="1.23" rx="0.615" transform="rotate(-115.373 26.7467 34.9668)" fill="#FE7500"/>
<defs>
<filter id="filter0_dd_282_3093" x="27.7545" y="22.6172" width="18.6914" height="15.0234" filterUnits="userSpaceOnUse" color-interpolation-filters="sRGB">
<feFlood flood-opacity="0" result="BackgroundImageFix"/>
<feColorMatrix in="SourceAlpha" type="matrix" values="0 0 0 0 0 0 0 0 0 0 0 0 0 0 0 0 0 0 127 0" result="hardAlpha"/>
<feMorphology radius="1" operator="dilate" in="SourceAlpha" result="effect1_dropShadow_282_3093"/>
<feOffset dy="1"/>
<feGaussianBlur stdDeviation="1.5"/>
<feColorMatrix type="matrix" values="0 0 0 0 0 0 0 0 0 0 0 0 0 0 0 0 0 0 0.15 0"/>
<feBlend mode="normal" in2="BackgroundImageFix" result="effect1_dropShadow_282_3093"/>
<feColorMatrix in="SourceAlpha" type="matrix" values="0 0 0 0 0 0 0 0 0 0 0 0 0 0 0 0 0 0 127 0" result="hardAlpha"/>
<feOffset dy="1"/>
<feGaussianBlur stdDeviation="1"/>
<feColorMatrix type="matrix" values="0 0 0 0 0 0 0 0 0 0 0 0 0 0 0 0 0 0 0.3 0"/>
<feBlend mode="normal" in2="effect1_dropShadow_282_3093" result="effect2_dropShadow_282_3093"/>
<feBlend mode="normal" in="SourceGraphic" in2="effect2_dropShadow_282_3093" result="shape"/>
</filter>
<filter id="filter1_dd_282_3093" x="15.067" y="8.05469" width="25.8516" height="20.0918" filterUnits="userSpaceOnUse" color-interpolation-filters="sRGB">
<feFlood flood-opacity="0" result="BackgroundImageFix"/>
<feColorMatrix in="SourceAlpha" type="matrix" values="0 0 0 0 0 0 0 0 0 0 0 0 0 0 0 0 0 0 127 0" result="hardAlpha"/>
<feMorphology radius="1" operator="dilate" in="SourceAlpha" result="effect1_dropShadow_282_3093"/>
<feOffset dy="1"/>
<feGaussianBlur stdDeviation="1.5"/>
<feColorMatrix type="matrix" values="0 0 0 0 0 0 0 0 0 0 0 0 0 0 0 0 0 0 0.15 0"/>
<feBlend mode="normal" in2="BackgroundImageFix" result="effect1_dropShadow_282_3093"/>
<feColorMatrix in="SourceAlpha" type="matrix" values="0 0 0 0 0 0 0 0 0 0 0 0 0 0 0 0 0 0 127 0" result="hardAlpha"/>
<feOffset dy="1"/>
<feGaussianBlur stdDeviation="1"/>
<feColorMatrix type="matrix" values="0 0 0 0 0 0 0 0 0 0 0 0 0 0 0 0 0 0 0.3 0"/>
<feBlend mode="normal" in2="effect1_dropShadow_282_3093" result="effect2_dropShadow_282_3093"/>
<feBlend mode="normal" in="SourceGraphic" in2="effect2_dropShadow_282_3093" result="shape"/>
</filter>
<filter id="filter2_dd_282_3093" x="8.77015" y="13.873" width="33.0039" height="33.002" filterUnits="userSpaceOnUse" color-interpolation-filters="sRGB">
<feFlood flood-opacity="0" result="BackgroundImageFix"/>
<feColorMatrix in="SourceAlpha" type="matrix" values="0 0 0 0 0 0 0 0 0 0 0 0 0 0 0 0 0 0 127 0" result="hardAlpha"/>
<feMorphology radius="1" operator="dilate" in="SourceAlpha" result="effect1_dropShadow_282_3093"/>
<feOffset dy="1"/>
<feGaussianBlur stdDeviation="1.5"/>
<feColorMatrix type="matrix" values="0 0 0 0 0 0 0 0 0 0 0 0 0 0 0 0 0 0 0.15 0"/>
<feBlend mode="normal" in2="BackgroundImageFix" result="effect1_dropShadow_282_3093"/>
<feColorMatrix in="SourceAlpha" type="matrix" values="0 0 0 0 0 0 0 0 0 0 0 0 0 0 0 0 0 0 127 0" result="hardAlpha"/>
<feOffset dy="1"/>
<feGaussianBlur stdDeviation="1"/>
<feColorMatrix type="matrix" values="0 0 0 0 0 0 0 0 0 0 0 0 0 0 0 0 0 0 0.3 0"/>
<feBlend mode="normal" in2="effect1_dropShadow_282_3093" result="effect2_dropShadow_282_3093"/>
<feBlend mode="normal" in="SourceGraphic" in2="effect2_dropShadow_282_3093" result="shape"/>
</filter>
</defs>
</svg>
