<svg width="151" height="101" viewBox="0 0 151 101" fill="none" xmlns="http://www.w3.org/2000/svg">
<rect x="45.5508" y="13.082" width="48" height="48" rx="4" transform="rotate(-8 45.5508 13.082)" fill="#F2E9DC"/>
<g filter="url(#filter0_dd_282_3107)">
<path d="M59.6673 33.1936L58.3297 35.5958C58.0562 36.0868 57.9506 36.6537 58.0288 37.2103C58.3263 39.3272 60.2836 40.8021 62.4005 40.5046L71.5797 39.2146C73.6907 38.9179 75.1616 36.966 74.8649 34.8549C74.7857 34.292 74.5224 33.771 74.116 33.3735L72.1008 31.4024C70.7709 30.1015 68.9126 29.4911 67.0703 29.75L64.0743 30.1711C62.213 30.4327 60.5818 31.5514 59.6673 33.1936Z" fill="#F2E9DC"/>
<path d="M66.9511 28.899C69.0571 28.6031 71.1813 29.3009 72.7016 30.7879L74.7172 32.759C75.2592 33.2892 75.6102 33.9842 75.7158 34.735C76.0786 37.316 74.28 39.7029 71.6989 40.0656L62.5205 41.3556C59.9336 41.7191 57.5413 39.9164 57.1777 37.3295C57.0736 36.5877 57.214 35.832 57.5784 35.1776L58.9164 32.7756C59.9618 30.8982 61.8272 29.6191 63.9552 29.32L66.9511 28.899Z" stroke="#F2E9DC" stroke-width="1.71875" stroke-linecap="round"/>
</g>
<g filter="url(#filter1_dd_282_3107)">
<rect x="59.7461" y="20.6816" width="9" height="9" rx="4.5" transform="rotate(-8 59.7461 20.6816)" fill="#F2E9DC"/>
<rect x="58.5814" y="19.8039" width="11.0625" height="11.0625" rx="5.53125" transform="rotate(-8 58.5814 19.8039)" stroke="#F2E9DC" stroke-width="2.0625"/>
</g>
<path d="M59.6673 33.1936L58.3297 35.5958C58.0562 36.0868 57.9506 36.6537 58.0288 37.2103C58.3263 39.3272 60.2836 40.8021 62.4005 40.5046L71.5797 39.2146C73.6907 38.9179 75.1616 36.966 74.8649 34.8549C74.7857 34.292 74.5224 33.771 74.116 33.3735L72.1008 31.4024C70.7709 30.1015 68.9126 29.4911 67.0703 29.75L64.0743 30.1711C62.213 30.4327 60.5818 31.5514 59.6673 33.1936Z" fill="#FFCE99" stroke="#FE7500" stroke-width="0.845625" stroke-linecap="round"/>
<rect x="59.2686" y="20.3218" width="9.84563" height="9.84563" rx="4.92281" transform="rotate(-8 59.2686 20.3218)" fill="#FECE99" stroke="#FE7500" stroke-width="0.845625"/>
<g filter="url(#filter2_dd_282_3107)">
<path d="M72.5423 31.3851L71.2047 33.7872C70.9312 34.2782 70.8256 34.8451 70.9038 35.4017C71.2013 37.5186 73.1586 38.9935 75.2755 38.696L84.4547 37.406C86.5657 37.1093 88.0366 35.1574 87.7399 33.0464C87.6607 32.4834 87.3974 31.9624 86.991 31.5649L84.9758 29.5938C83.6459 28.2929 81.7876 27.6825 79.9453 27.9414L76.9493 28.3625C75.088 28.6241 73.4568 29.7429 72.5423 31.3851Z" fill="#F2E9DC"/>
<path d="M79.8261 27.0904C81.9321 26.7945 84.0563 27.4923 85.5766 28.9793L87.5922 30.9504C88.1342 31.4806 88.4852 32.1756 88.5908 32.9264C88.9536 35.5074 87.155 37.8943 84.5739 38.257L75.3955 39.547C72.8086 39.9105 70.4163 38.1078 70.0527 35.5209C69.9486 34.7791 70.089 34.0234 70.4534 33.369L71.7914 30.967C72.8368 29.0896 74.7022 27.8105 76.8302 27.5114L79.8261 27.0904Z" stroke="#F2E9DC" stroke-width="1.71875" stroke-linecap="round"/>
</g>
<rect x="71.4564" y="17.9954" width="11.0625" height="11.0625" rx="5.53125" transform="rotate(-8 71.4564 17.9954)" fill="#F2E9DC" stroke="#F2E9DC" stroke-width="2.0625"/>
<path d="M72.5423 31.3851L71.2047 33.7872C70.9312 34.2782 70.8256 34.8451 70.9038 35.4017C71.2013 37.5186 73.1586 38.9935 75.2755 38.696L84.4547 37.406C86.5657 37.1093 88.0366 35.1574 87.7399 33.0464C87.6607 32.4834 87.3974 31.9624 86.991 31.5649L84.9758 29.5938C83.6459 28.2929 81.7876 27.6825 79.9453 27.9414L76.9493 28.3625C75.088 28.6241 73.4568 29.7429 72.5423 31.3851Z" fill="#FFCE99" stroke="#FE7500" stroke-width="0.845625" stroke-linecap="round"/>
<rect x="72.1436" y="18.5132" width="9.84563" height="9.84563" rx="4.92281" transform="rotate(-8 72.1436 18.5132)" fill="#FECE99" stroke="#FE7500" stroke-width="0.845625"/>
<g filter="url(#filter3_dd_282_3107)">
<path d="M67.8509 41.1311L66.5133 43.5333C66.2398 44.0243 66.1342 44.5912 66.2124 45.1478C66.5099 47.2647 68.4672 48.7396 70.5841 48.4421L79.7632 47.1521C81.8743 46.8554 83.3451 44.9035 83.0485 42.7924C82.9693 42.2295 82.706 41.7085 82.2996 41.311L80.2844 39.3399C78.9544 38.039 77.0962 37.4286 75.2539 37.6875L72.2579 38.1086C70.3966 38.3702 68.7654 39.4889 67.8509 41.1311Z" fill="#F2E9DC"/>
<path d="M75.1347 36.8365C77.2407 36.5406 79.3648 37.2384 80.8852 38.7254L82.9008 40.6965C83.4428 41.2267 83.7938 41.9217 83.8994 42.6725C84.2622 45.2535 82.4635 47.6404 79.8825 48.0031L70.7041 49.2931C68.1172 49.6566 65.7249 47.8539 65.3613 45.267C65.2572 44.5252 65.3976 43.7695 65.762 43.1151L67.1 40.7131C68.1454 38.8357 70.0108 37.5566 72.1388 37.2575L75.1347 36.8365Z" stroke="#F2E9DC" stroke-width="1.71875" stroke-linecap="round"/>
</g>
<g filter="url(#filter4_dd_282_3107)">
<rect x="67.9297" y="28.6191" width="9" height="9" rx="4.5" transform="rotate(-8 67.9297 28.6191)" fill="#F2E9DC"/>
<rect x="66.765" y="27.7414" width="11.0625" height="11.0625" rx="5.53125" transform="rotate(-8 66.765 27.7414)" stroke="#F2E9DC" stroke-width="2.0625"/>
</g>
<path d="M67.8509 41.1311L66.5133 43.5333C66.2398 44.0243 66.1342 44.5912 66.2124 45.1478C66.5099 47.2647 68.4672 48.7396 70.5841 48.4421L79.7632 47.1521C81.8743 46.8554 83.3451 44.9035 83.0485 42.7924C82.9693 42.2295 82.706 41.7085 82.2996 41.311L80.2844 39.3399C78.9544 38.039 77.0962 37.4286 75.2539 37.6875L72.2579 38.1086C70.3966 38.3702 68.7654 39.4889 67.8509 41.1311Z" fill="#FFCE99" stroke="#FE7500" stroke-width="0.845625" stroke-linecap="round"/>
<rect x="67.4521" y="28.2593" width="9.84563" height="9.84563" rx="4.92281" transform="rotate(-8 67.4521 28.2593)" fill="#FECE99" stroke="#FE7500" stroke-width="0.845625"/>
<rect x="7.51562" y="72.959" width="140" height="28" rx="8" transform="rotate(-8 7.51562 72.959)" fill="#FECE99"/>
<path d="M35.4028 88.2264L34.2415 79.9636L31.5242 80.3454L31.3216 78.9036L38.3366 77.9177L38.5393 79.3595L35.7388 79.7531L36.9 88.0159L35.4028 88.2264ZM43.1882 87.2736C42.4396 87.3788 41.752 87.3152 41.1256 87.0828C40.5071 86.8398 39.9925 86.4644 39.5818 85.9567C39.1804 85.4476 38.929 84.8326 38.8277 84.1117C38.7472 83.5386 38.7662 83.0034 38.8848 82.5061C39.0034 82.0087 39.2004 81.5663 39.4759 81.1789C39.7592 80.7809 40.1144 80.4577 40.5413 80.2092C40.9761 79.9502 41.4616 79.783 41.9976 79.7076C42.469 79.6414 42.921 79.6721 43.3537 79.7998C43.785 79.9183 44.1706 80.1138 44.5106 80.3865C44.8597 80.6579 45.1434 80.9997 45.3616 81.412C45.5877 81.8138 45.7319 82.2695 45.7941 82.7792L45.8659 83.3911L39.9184 84.227L39.4397 83.135L44.4723 82.4277L44.2974 82.6926L44.2507 82.3599C44.1801 82.0588 44.0401 81.8004 43.8307 81.5848C43.6213 81.3691 43.3729 81.2109 43.0854 81.1099C42.7979 81.0089 42.497 80.9805 42.1827 81.0247C41.6836 81.0948 41.2767 81.251 40.962 81.4931C40.6461 81.726 40.4262 82.0397 40.3026 82.4341C40.1776 82.8192 40.1528 83.2798 40.2282 83.8159C40.2996 84.3242 40.4682 84.7529 40.7341 85.102C40.9986 85.4418 41.3393 85.6861 41.756 85.8349C42.1728 85.9837 42.6353 86.0223 43.1437 85.9509C43.5041 85.9002 43.8284 85.7934 44.1165 85.6304C44.4139 85.466 44.7207 85.2014 45.037 84.8365L45.9002 85.7473C45.7095 86.0003 45.4641 86.2327 45.164 86.4445C44.8732 86.655 44.5547 86.8365 44.2085 86.9888C43.8703 87.1306 43.5302 87.2255 43.1882 87.2736ZM50.6821 86.2204C50.0813 86.3048 49.508 86.2157 48.9621 85.9531C48.4255 85.6892 47.9691 85.2916 47.5928 84.7601C47.2165 84.2286 46.9777 83.6024 46.8764 82.8815C46.7737 82.1514 46.8307 81.4836 47.0472 80.8782C47.2717 80.2623 47.6154 79.7569 48.0782 79.362C48.5503 78.9658 49.1053 78.7228 49.743 78.6332C50.1219 78.58 50.4763 78.5867 50.8062 78.6535C51.136 78.7202 51.4307 78.839 51.6904 79.0099C51.958 79.1702 52.1839 79.3693 52.3681 79.6074C52.5616 79.8441 52.6976 80.1077 52.7762 80.3983L52.4417 80.3322L52.1767 78.4467L53.6186 78.2441L54.6415 85.5225L53.1997 85.7252L52.9561 83.9922L53.2752 83.8484C53.2548 84.1057 53.1737 84.3669 53.0319 84.6319C52.898 84.8863 52.71 85.1248 52.4679 85.3473C52.2351 85.5685 51.9648 85.7573 51.6569 85.9137C51.3582 86.0688 51.0333 86.171 50.6821 86.2204ZM50.8713 84.8507C51.3057 84.7896 51.6743 84.6295 51.9772 84.3701C52.28 84.1108 52.4979 83.7833 52.6308 83.3876C52.7716 82.9814 52.8083 82.5379 52.7407 82.0573C52.6745 81.586 52.5183 81.1791 52.2723 80.8367C52.0355 80.4929 51.7358 80.2382 51.3732 80.0723C51.0106 79.9065 50.6121 79.8542 50.1777 79.9152C49.7525 79.975 49.3885 80.1345 49.0856 80.3938C48.792 80.6519 48.5742 80.9794 48.432 81.3764C48.2991 81.772 48.2658 82.2056 48.3321 82.6769C48.3996 83.1575 48.5524 83.5743 48.7905 83.9273C49.0366 84.2697 49.3363 84.5245 49.6897 84.6916C50.0523 84.8574 50.4461 84.9105 50.8713 84.8507ZM56.5743 85.2509L55.5513 77.9724L56.9932 77.7698L57.2114 79.3225L56.9714 79.5259C57.0115 79.2752 57.0946 79.0279 57.2205 78.784C57.3557 78.5388 57.5272 78.3168 57.7348 78.118C57.9505 77.9086 58.1852 77.7342 58.4389 77.5949C58.7019 77.4542 58.9766 77.3638 59.2632 77.3235C59.6791 77.2651 60.0539 77.2831 60.3876 77.3776C60.7213 77.472 61.0094 77.6436 61.2517 77.8923C61.494 78.141 61.6906 78.4668 61.8414 78.8697L61.6118 78.8455L61.6757 78.5961C61.7475 78.3693 61.8583 78.1511 62.0079 77.9415C62.1655 77.7215 62.3494 77.5213 62.5597 77.3409C62.7699 77.1606 62.9986 77.0106 63.2457 76.891C63.4928 76.7715 63.7411 76.6942 63.9907 76.6591C64.536 76.5825 64.9999 76.6304 65.3822 76.8028C65.7739 76.974 66.0893 77.2737 66.3286 77.7019C66.5771 78.1288 66.7487 78.6796 66.8436 79.3543L67.4573 83.7214L66.0155 83.924L65.4134 79.6401C65.355 79.2242 65.2521 78.8946 65.1048 78.6514C64.9655 78.3977 64.7804 78.2211 64.5497 78.1215C64.3189 78.022 64.0372 77.9957 63.7044 78.0424C63.4456 78.0788 63.2072 78.1594 62.9891 78.2843C62.779 78.3987 62.6018 78.5461 62.4575 78.7266C62.3132 78.9071 62.2098 79.1101 62.1473 79.3357C62.0834 79.552 62.069 79.785 62.1041 80.0345L62.7159 84.3877L61.2741 84.5904L60.6681 80.2788C60.6149 79.8998 60.5146 79.5887 60.3673 79.3455C60.2187 79.0931 60.0284 78.9125 59.7963 78.8037C59.5643 78.695 59.2958 78.662 58.9908 78.7049C58.732 78.7412 58.4982 78.8212 58.2893 78.9448C58.0792 79.0592 57.902 79.2066 57.7577 79.3871C57.6121 79.5584 57.5081 79.7568 57.4455 79.9824C57.3817 80.1987 57.3666 80.427 57.4004 80.6673L58.0161 85.0483L56.5743 85.2509ZM76.2993 82.6201C75.6246 82.7149 74.9958 82.6336 74.413 82.3762C73.8394 82.1176 73.3552 81.7238 72.9605 81.1949C72.5749 80.6647 72.3321 80.0438 72.2321 79.3321C72.1321 78.6205 72.1943 77.9567 72.4188 77.3408C72.6525 76.7236 73.0094 76.2116 73.4895 75.8048C73.9788 75.3968 74.5608 75.1453 75.2355 75.0505C75.8824 74.9596 76.4882 75.0111 77.0527 75.2051C77.6251 75.3885 78.0818 75.6872 78.4227 76.1011L77.7689 77.1827C77.5911 76.9909 77.3743 76.8234 77.1186 76.6803C76.8629 76.5371 76.5985 76.4329 76.3254 76.3676C76.0523 76.3023 75.7956 76.2866 75.5553 76.3203C75.1117 76.3827 74.7298 76.5494 74.4098 76.8206C74.0977 77.0813 73.8666 77.4153 73.7165 77.8229C73.5664 78.2304 73.5245 78.6698 73.5908 79.1412C73.657 79.6126 73.8231 80.0228 74.0889 80.3718C74.3534 80.7117 74.6769 80.9678 75.0593 81.1403C75.4417 81.3127 75.8454 81.3691 76.2706 81.3093C76.5201 81.2743 76.7546 81.1989 76.974 81.0832C77.2026 80.9663 77.4161 80.809 77.6146 80.6115C77.813 80.414 77.9924 80.1814 78.1527 79.9138L79.0793 80.7732C78.842 81.2307 78.4649 81.6324 77.948 81.9784C77.4404 82.3231 76.8908 82.537 76.2993 82.6201ZM80.5742 81.8779L79.5513 74.5995L80.9931 74.3968L81.3146 76.6843L81.098 76.1493C81.1503 75.7838 81.2765 75.4409 81.4765 75.1206C81.6858 74.799 81.9359 74.5329 82.2268 74.3224C82.5269 74.1106 82.8479 73.9806 83.1899 73.9326C83.347 73.9105 83.4968 73.9036 83.6394 73.9118C83.7911 73.9188 83.9112 73.9349 83.9996 73.9601L83.8435 75.5655C83.7261 75.5349 83.5961 75.5154 83.4536 75.5072C83.319 75.4884 83.187 75.4881 83.0576 75.5063C82.8081 75.5414 82.5749 75.626 82.3581 75.7601C82.1493 75.8837 81.9694 76.0457 81.8185 76.2459C81.6755 76.4357 81.5694 76.6532 81.5002 76.8986C81.4297 77.1347 81.4133 77.3868 81.451 77.6548L82.016 81.6753L80.5742 81.8779ZM89.2372 80.8018C88.4885 80.907 87.801 80.8434 87.1745 80.611C86.556 80.368 86.0415 79.9927 85.6308 79.4849C85.2294 78.9758 84.978 78.3608 84.8767 77.6399C84.7961 77.0669 84.8152 76.5317 84.9338 76.0343C85.0524 75.537 85.2494 75.0946 85.5248 74.7071C85.8082 74.3092 86.1633 73.9859 86.5902 73.7374C87.0251 73.4784 87.5105 73.3112 88.0466 73.2359C88.518 73.1696 88.97 73.2003 89.4026 73.328C89.834 73.4465 90.2196 73.6421 90.5595 73.9147C90.9087 74.1861 91.1924 74.528 91.4106 74.9403C91.6367 75.3421 91.7808 75.7978 91.843 76.3074L91.9149 76.9193L85.9673 77.7552L85.4887 76.6632L90.5213 75.9559L90.3464 76.2208L90.2997 75.8881C90.2291 75.587 90.0891 75.3286 89.8797 75.113C89.6703 74.8974 89.4219 74.7391 89.1344 74.6381C88.8468 74.5372 88.546 74.5088 88.2317 74.5529C87.7326 74.6231 87.3257 74.7792 87.011 75.0214C86.695 75.2543 86.4752 75.5679 86.3516 75.9623C86.2266 76.3474 86.2018 76.808 86.2771 77.3441C86.3486 77.8524 86.5172 78.2811 86.7831 78.6302C87.0476 78.97 87.3882 79.2143 87.805 79.3631C88.2218 79.5119 88.6843 79.5506 89.1927 79.4791C89.5531 79.4285 89.8774 79.3216 90.1655 79.1586C90.4629 78.9943 90.7697 78.7297 91.086 78.3648L91.9491 79.2755C91.7585 79.5285 91.5131 79.7609 91.213 79.9727C90.9222 80.1833 90.6036 80.3647 90.2575 80.517C89.9192 80.6588 89.5791 80.7537 89.2372 80.8018ZM96.731 79.7486C96.1303 79.833 95.557 79.744 95.0111 79.4814C94.4745 79.2175 94.018 78.8198 93.6418 78.2883C93.2655 77.7569 93.0267 77.1307 92.9253 76.4098C92.8227 75.6796 92.8797 75.0118 93.0962 74.4065C93.3207 73.7906 93.6643 73.2852 94.1272 72.8902C94.5993 72.494 95.1542 72.2511 95.792 72.1615C96.1709 72.1082 96.5253 72.1149 96.8551 72.1817C97.185 72.2484 97.4797 72.3672 97.7394 72.5381C98.0069 72.6984 98.2329 72.8976 98.4171 73.1356C98.6106 73.3723 98.7466 73.6359 98.8251 73.9265L98.4907 73.8604L98.2257 71.9749L99.6675 71.7723L100.69 79.0508L99.2486 79.2534L99.0051 77.5204L99.3242 77.3766C99.3038 77.634 99.2227 77.8951 99.0808 78.1601C98.9469 78.4146 98.759 78.653 98.5169 78.8756C98.2841 79.0968 98.0138 79.2856 97.7059 79.4419C97.4072 79.597 97.0823 79.6992 96.731 79.7486ZM96.9203 78.3789C97.3547 78.3179 97.7233 78.1577 98.0261 77.8984C98.329 77.639 98.5469 77.3115 98.6798 76.9158C98.8206 76.5096 98.8572 76.0662 98.7897 75.5856C98.7235 75.1142 98.5673 74.7073 98.3213 74.3649C98.0844 74.0212 97.7847 73.7664 97.4221 73.6006C97.0595 73.4348 96.661 73.3824 96.2266 73.4434C95.8015 73.5032 95.4375 73.6627 95.1346 73.9221C94.841 74.1801 94.6231 74.5076 94.481 74.9046C94.3481 75.3003 94.3148 75.7338 94.381 76.2052C94.4486 76.6858 94.6014 77.1026 94.8395 77.4555C95.0856 77.798 95.3853 78.0527 95.7386 78.2198C96.1012 78.3857 96.4951 78.4387 96.9203 78.3789ZM103.552 78.6486L102.268 69.5124L103.696 69.3117L104.98 78.4479L103.552 78.6486ZM101.213 72.9689L101.018 71.5825L105.649 70.9317L105.843 72.3181L101.213 72.9689ZM108.174 77.999L107.151 70.7205L108.579 70.5198L109.602 77.7983L108.174 77.999ZM107.618 69.0149C107.313 69.0578 107.067 69.0123 106.878 68.8786C106.69 68.7449 106.575 68.5347 106.535 68.2482C106.497 67.9802 106.55 67.7513 106.693 67.5615C106.845 67.3705 107.069 67.2542 107.365 67.2126C107.67 67.1698 107.917 67.2152 108.105 67.3489C108.294 67.4827 108.408 67.6928 108.448 67.9793C108.486 68.2474 108.429 68.4769 108.276 68.6679C108.134 68.8577 107.914 68.9734 107.618 69.0149ZM115.055 77.1733C114.343 77.2733 113.683 77.2012 113.074 76.957C112.472 76.7022 111.97 76.3156 111.568 75.7973C111.164 75.2697 110.91 74.6409 110.808 73.9107C110.705 73.1805 110.776 72.5108 111.02 71.9016C111.263 71.2831 111.639 70.7731 112.148 70.3717C112.665 69.9597 113.28 69.7037 113.991 69.6037C114.694 69.505 115.346 69.583 115.947 69.8378C116.556 70.0821 117.063 70.468 117.467 70.9956C117.869 71.5139 118.122 72.1381 118.225 72.8683C118.327 73.5985 118.257 74.2728 118.014 74.8913C117.77 75.5005 117.389 76.0111 116.872 76.4231C116.363 76.8245 115.758 77.0746 115.055 77.1733ZM114.872 75.8701C115.306 75.8091 115.68 75.6482 115.992 75.3876C116.302 75.1177 116.529 74.7843 116.671 74.3873C116.812 73.9811 116.845 73.5429 116.769 73.0729C116.711 72.591 116.559 72.1788 116.313 71.8364C116.065 71.4847 115.756 71.2266 115.384 71.0621C115.012 70.8976 114.609 70.8459 114.174 70.9069C113.74 70.968 113.363 71.1341 113.043 71.4053C112.731 71.6659 112.504 71.9993 112.363 72.4055C112.221 72.8025 112.188 73.236 112.263 73.7061C112.32 74.1788 112.473 74.5909 112.72 74.9426C112.966 75.285 113.276 75.5431 113.649 75.7169C114.03 75.8801 114.438 75.9312 114.872 75.8701ZM120.26 76.3005L119.237 69.022L120.665 68.8213L120.875 70.3186L120.649 70.52C120.696 70.1835 120.835 69.8625 121.065 69.5568C121.294 69.2418 121.582 68.9752 121.928 68.7569C122.273 68.5293 122.64 68.3882 123.028 68.3337C123.583 68.2557 124.06 68.3017 124.461 68.4716C124.861 68.6322 125.184 68.9213 125.431 69.339C125.679 69.7566 125.85 70.3028 125.944 70.9775L126.568 75.4139L125.14 75.6146L124.53 71.2753C124.472 70.8593 124.368 70.5252 124.22 70.2727C124.07 70.011 123.871 69.8363 123.623 69.7487C123.374 69.6517 123.079 69.6366 122.74 69.7031C122.463 69.7421 122.215 69.824 121.997 69.9489C121.777 70.0646 121.591 70.2133 121.438 70.3951C121.293 70.5756 121.185 70.7793 121.113 71.0062C121.05 71.2225 121.035 71.4508 121.068 71.6911L121.688 76.0998L120.981 76.1991C120.861 76.216 120.741 76.2329 120.62 76.2498C120.5 76.2667 120.38 76.2836 120.26 76.3005Z" fill="#562F00"/>
<defs>
<filter id="filter0_dd_282_3107" x="53.5352" y="25.9102" width="25.8359" height="19.7891" filterUnits="userSpaceOnUse" color-interpolation-filters="sRGB">
<feFlood flood-opacity="0" result="BackgroundImageFix"/>
<feColorMatrix in="SourceAlpha" type="matrix" values="0 0 0 0 0 0 0 0 0 0 0 0 0 0 0 0 0 0 127 0" result="hardAlpha"/>
<feMorphology radius="0.6875" operator="dilate" in="SourceAlpha" result="effect1_dropShadow_282_3107"/>
<feOffset dy="0.6875"/>
<feGaussianBlur stdDeviation="1.03125"/>
<feColorMatrix type="matrix" values="0 0 0 0 0 0 0 0 0 0 0 0 0 0 0 0 0 0 0.15 0"/>
<feBlend mode="normal" in2="BackgroundImageFix" result="effect1_dropShadow_282_3107"/>
<feColorMatrix in="SourceAlpha" type="matrix" values="0 0 0 0 0 0 0 0 0 0 0 0 0 0 0 0 0 0 127 0" result="hardAlpha"/>
<feOffset dy="0.6875"/>
<feGaussianBlur stdDeviation="0.6875"/>
<feColorMatrix type="matrix" values="0 0 0 0 0 0 0 0 0 0 0 0 0 0 0 0 0 0 0.3 0"/>
<feBlend mode="normal" in2="effect1_dropShadow_282_3107" result="effect2_dropShadow_282_3107"/>
<feBlend mode="normal" in="SourceGraphic" in2="effect2_dropShadow_282_3107" result="shape"/>
</filter>
<filter id="filter1_dd_282_3107" x="55.5156" y="15.8867" width="18.625" height="18.625" filterUnits="userSpaceOnUse" color-interpolation-filters="sRGB">
<feFlood flood-opacity="0" result="BackgroundImageFix"/>
<feColorMatrix in="SourceAlpha" type="matrix" values="0 0 0 0 0 0 0 0 0 0 0 0 0 0 0 0 0 0 127 0" result="hardAlpha"/>
<feMorphology radius="0.6875" operator="dilate" in="SourceAlpha" result="effect1_dropShadow_282_3107"/>
<feOffset dy="0.6875"/>
<feGaussianBlur stdDeviation="1.03125"/>
<feColorMatrix type="matrix" values="0 0 0 0 0 0 0 0 0 0 0 0 0 0 0 0 0 0 0.15 0"/>
<feBlend mode="normal" in2="BackgroundImageFix" result="effect1_dropShadow_282_3107"/>
<feColorMatrix in="SourceAlpha" type="matrix" values="0 0 0 0 0 0 0 0 0 0 0 0 0 0 0 0 0 0 127 0" result="hardAlpha"/>
<feOffset dy="0.6875"/>
<feGaussianBlur stdDeviation="0.6875"/>
<feColorMatrix type="matrix" values="0 0 0 0 0 0 0 0 0 0 0 0 0 0 0 0 0 0 0.3 0"/>
<feBlend mode="normal" in2="effect1_dropShadow_282_3107" result="effect2_dropShadow_282_3107"/>
<feBlend mode="normal" in="SourceGraphic" in2="effect2_dropShadow_282_3107" result="shape"/>
</filter>
<filter id="filter2_dd_282_3107" x="66.4102" y="24.1016" width="25.8359" height="19.7891" filterUnits="userSpaceOnUse" color-interpolation-filters="sRGB">
<feFlood flood-opacity="0" result="BackgroundImageFix"/>
<feColorMatrix in="SourceAlpha" type="matrix" values="0 0 0 0 0 0 0 0 0 0 0 0 0 0 0 0 0 0 127 0" result="hardAlpha"/>
<feMorphology radius="0.6875" operator="dilate" in="SourceAlpha" result="effect1_dropShadow_282_3107"/>
<feOffset dy="0.6875"/>
<feGaussianBlur stdDeviation="1.03125"/>
<feColorMatrix type="matrix" values="0 0 0 0 0 0 0 0 0 0 0 0 0 0 0 0 0 0 0.15 0"/>
<feBlend mode="normal" in2="BackgroundImageFix" result="effect1_dropShadow_282_3107"/>
<feColorMatrix in="SourceAlpha" type="matrix" values="0 0 0 0 0 0 0 0 0 0 0 0 0 0 0 0 0 0 127 0" result="hardAlpha"/>
<feOffset dy="0.6875"/>
<feGaussianBlur stdDeviation="0.6875"/>
<feColorMatrix type="matrix" values="0 0 0 0 0 0 0 0 0 0 0 0 0 0 0 0 0 0 0.3 0"/>
<feBlend mode="normal" in2="effect1_dropShadow_282_3107" result="effect2_dropShadow_282_3107"/>
<feBlend mode="normal" in="SourceGraphic" in2="effect2_dropShadow_282_3107" result="shape"/>
</filter>
<filter id="filter3_dd_282_3107" x="61.7187" y="33.8477" width="25.8359" height="19.7891" filterUnits="userSpaceOnUse" color-interpolation-filters="sRGB">
<feFlood flood-opacity="0" result="BackgroundImageFix"/>
<feColorMatrix in="SourceAlpha" type="matrix" values="0 0 0 0 0 0 0 0 0 0 0 0 0 0 0 0 0 0 127 0" result="hardAlpha"/>
<feMorphology radius="0.6875" operator="dilate" in="SourceAlpha" result="effect1_dropShadow_282_3107"/>
<feOffset dy="0.6875"/>
<feGaussianBlur stdDeviation="1.03125"/>
<feColorMatrix type="matrix" values="0 0 0 0 0 0 0 0 0 0 0 0 0 0 0 0 0 0 0.15 0"/>
<feBlend mode="normal" in2="BackgroundImageFix" result="effect1_dropShadow_282_3107"/>
<feColorMatrix in="SourceAlpha" type="matrix" values="0 0 0 0 0 0 0 0 0 0 0 0 0 0 0 0 0 0 127 0" result="hardAlpha"/>
<feOffset dy="0.6875"/>
<feGaussianBlur stdDeviation="0.6875"/>
<feColorMatrix type="matrix" values="0 0 0 0 0 0 0 0 0 0 0 0 0 0 0 0 0 0 0.3 0"/>
<feBlend mode="normal" in2="effect1_dropShadow_282_3107" result="effect2_dropShadow_282_3107"/>
<feBlend mode="normal" in="SourceGraphic" in2="effect2_dropShadow_282_3107" result="shape"/>
</filter>
<filter id="filter4_dd_282_3107" x="63.6992" y="23.8242" width="18.625" height="18.625" filterUnits="userSpaceOnUse" color-interpolation-filters="sRGB">
<feFlood flood-opacity="0" result="BackgroundImageFix"/>
<feColorMatrix in="SourceAlpha" type="matrix" values="0 0 0 0 0 0 0 0 0 0 0 0 0 0 0 0 0 0 127 0" result="hardAlpha"/>
<feMorphology radius="0.6875" operator="dilate" in="SourceAlpha" result="effect1_dropShadow_282_3107"/>
<feOffset dy="0.6875"/>
<feGaussianBlur stdDeviation="1.03125"/>
<feColorMatrix type="matrix" values="0 0 0 0 0 0 0 0 0 0 0 0 0 0 0 0 0 0 0.15 0"/>
<feBlend mode="normal" in2="BackgroundImageFix" result="effect1_dropShadow_282_3107"/>
<feColorMatrix in="SourceAlpha" type="matrix" values="0 0 0 0 0 0 0 0 0 0 0 0 0 0 0 0 0 0 127 0" result="hardAlpha"/>
<feOffset dy="0.6875"/>
<feGaussianBlur stdDeviation="0.6875"/>
<feColorMatrix type="matrix" values="0 0 0 0 0 0 0 0 0 0 0 0 0 0 0 0 0 0 0.3 0"/>
<feBlend mode="normal" in2="effect1_dropShadow_282_3107" result="effect2_dropShadow_282_3107"/>
<feBlend mode="normal" in="SourceGraphic" in2="effect2_dropShadow_282_3107" result="shape"/>
</filter>
</defs>
</svg>
