<svg width="55" height="55" viewBox="0 0 55 55" fill="none" xmlns="http://www.w3.org/2000/svg">
<rect y="6.68031" width="48" height="48" rx="4" transform="rotate(-8 0 6.68031)" fill="#F2E9DC"/>
<g filter="url(#filter0_dd_282_3108)">
<path d="M14.1165 26.7919L12.7789 29.1941C12.5055 29.6851 12.3998 30.252 12.478 30.8086C12.7756 32.9255 14.7328 34.4004 16.8497 34.1029L26.0289 32.8128C28.1399 32.5162 29.6108 30.5643 29.3141 28.4532C29.235 27.8902 28.9716 27.3693 28.5652 26.9718L26.5501 25.0007C25.2201 23.6998 23.3619 23.0894 21.5195 23.3483L18.5236 23.7694C16.6622 24.031 15.031 25.1497 14.1165 26.7919Z" fill="#F2E9DC"/>
<path d="M21.4003 22.4972C23.5064 22.2014 25.6305 22.8992 27.1508 24.3862L29.1665 26.3573C29.7085 26.8875 30.0594 27.5824 30.165 28.3333C30.5278 30.9143 28.7292 33.3012 26.1481 33.6639L16.9698 34.9538C14.3829 35.3174 11.9905 33.5147 11.627 30.9278C11.5228 30.186 11.6633 29.4303 12.0277 28.7759L13.3656 26.3739C14.411 24.4965 16.2764 23.2174 18.4044 22.9183L21.4003 22.4972Z" stroke="#F2E9DC" stroke-width="1.71875" stroke-linecap="round"/>
</g>
<g filter="url(#filter1_dd_282_3108)">
<rect x="14.1953" y="14.2799" width="9" height="9" rx="4.5" transform="rotate(-8 14.1953 14.2799)" fill="#F2E9DC"/>
<rect x="13.0306" y="13.4022" width="11.0625" height="11.0625" rx="5.53125" transform="rotate(-8 13.0306 13.4022)" stroke="#F2E9DC" stroke-width="2.0625"/>
</g>
<path d="M14.1165 26.7919L12.7789 29.1941C12.5055 29.6851 12.3998 30.252 12.478 30.8086C12.7756 32.9255 14.7328 34.4004 16.8497 34.1029L26.0289 32.8128C28.1399 32.5162 29.6108 30.5643 29.3141 28.4532C29.235 27.8902 28.9716 27.3693 28.5652 26.9718L26.5501 25.0007C25.2201 23.6998 23.3619 23.0894 21.5195 23.3483L18.5236 23.7694C16.6622 24.031 15.031 25.1497 14.1165 26.7919Z" fill="#FFCE99" stroke="#FE7500" stroke-width="0.845625" stroke-linecap="round"/>
<rect x="13.7178" y="13.9201" width="9.84563" height="9.84563" rx="4.92281" transform="rotate(-8 13.7178 13.9201)" fill="#FECE99" stroke="#FE7500" stroke-width="0.845625"/>
<g filter="url(#filter2_dd_282_3108)">
<path d="M26.9915 24.9833L25.6539 27.3855C25.3805 27.8765 25.2748 28.4434 25.353 29C25.6506 31.1169 27.6078 32.5918 29.7247 32.2943L38.9039 31.0043C41.0149 30.7076 42.4858 28.7557 42.1891 26.6446C42.11 26.0816 41.8466 25.5607 41.4402 25.1632L39.4251 23.1921C38.0951 21.8912 36.2369 21.2808 34.3945 21.5397L31.3986 21.9608C29.5372 22.2224 27.906 23.3411 26.9915 24.9833Z" fill="#F2E9DC"/>
<path d="M34.2753 20.6887C36.3814 20.3928 38.5055 21.0906 40.0258 22.5776L42.0415 24.5487C42.5835 25.0789 42.9344 25.7739 43.04 26.5247C43.4028 29.1057 41.6042 31.4926 39.0231 31.8553L29.8448 33.1452C27.2579 33.5088 24.8655 31.7061 24.502 29.1192C24.3978 28.3774 24.5383 27.6217 24.9027 26.9673L26.2406 24.5653C27.286 22.6879 29.1514 21.4088 31.2794 21.1097L34.2753 20.6887Z" stroke="#F2E9DC" stroke-width="1.71875" stroke-linecap="round"/>
</g>
<rect x="25.9056" y="11.5936" width="11.0625" height="11.0625" rx="5.53125" transform="rotate(-8 25.9056 11.5936)" fill="#F2E9DC" stroke="#F2E9DC" stroke-width="2.0625"/>
<path d="M26.9915 24.9833L25.6539 27.3855C25.3805 27.8765 25.2748 28.4434 25.353 29C25.6506 31.1169 27.6078 32.5918 29.7247 32.2943L38.9039 31.0043C41.0149 30.7076 42.4858 28.7557 42.1891 26.6446C42.11 26.0816 41.8466 25.5607 41.4402 25.1632L39.4251 23.1921C38.0951 21.8912 36.2369 21.2808 34.3945 21.5397L31.3986 21.9608C29.5372 22.2224 27.906 23.3411 26.9915 24.9833Z" fill="#FFCE99" stroke="#FE7500" stroke-width="0.845625" stroke-linecap="round"/>
<rect x="26.5928" y="12.1115" width="9.84563" height="9.84563" rx="4.92281" transform="rotate(-8 26.5928 12.1115)" fill="#FECE99" stroke="#FE7500" stroke-width="0.845625"/>
<g filter="url(#filter3_dd_282_3108)">
<path d="M22.3001 34.7294L20.9625 37.1316C20.6891 37.6226 20.5834 38.1895 20.6616 38.7461C20.9591 40.863 22.9164 42.3379 25.0333 42.0404L34.2125 40.7503C36.3235 40.4537 37.7944 38.5018 37.4977 36.3907C37.4186 35.8277 37.1552 35.3068 36.7488 34.9093L34.7336 32.9382C33.4037 31.6373 31.5454 31.0269 29.7031 31.2858L26.7072 31.7069C24.8458 31.9685 23.2146 33.0872 22.3001 34.7294Z" fill="#F2E9DC"/>
<path d="M29.5839 30.4347C31.69 30.1389 33.8141 30.8367 35.3344 32.3237L37.3501 34.2948C37.892 34.825 38.243 35.5199 38.3486 36.2708C38.7114 38.8518 36.9128 41.2387 34.3317 41.6014L25.1533 42.8913C22.5664 43.2549 20.1741 41.4522 19.8106 38.8653C19.7064 38.1235 19.8469 37.3678 20.2113 36.7134L21.5492 34.3114C22.5946 32.434 24.46 31.1549 26.588 30.8558L29.5839 30.4347Z" stroke="#F2E9DC" stroke-width="1.71875" stroke-linecap="round"/>
</g>
<g filter="url(#filter4_dd_282_3108)">
<rect x="22.3789" y="22.2174" width="9" height="9" rx="4.5" transform="rotate(-8 22.3789 22.2174)" fill="#F2E9DC"/>
<rect x="21.2142" y="21.3397" width="11.0625" height="11.0625" rx="5.53125" transform="rotate(-8 21.2142 21.3397)" stroke="#F2E9DC" stroke-width="2.0625"/>
</g>
<path d="M22.3001 34.7294L20.9625 37.1316C20.6891 37.6226 20.5834 38.1895 20.6616 38.7461C20.9591 40.863 22.9164 42.3379 25.0333 42.0404L34.2125 40.7503C36.3235 40.4537 37.7944 38.5018 37.4977 36.3907C37.4186 35.8277 37.1552 35.3068 36.7488 34.9093L34.7336 32.9382C33.4037 31.6373 31.5454 31.0269 29.7031 31.2858L26.7072 31.7069C24.8458 31.9685 23.2146 33.0872 22.3001 34.7294Z" fill="#FFCE99" stroke="#FE7500" stroke-width="0.845625" stroke-linecap="round"/>
<rect x="21.9014" y="21.8576" width="9.84563" height="9.84563" rx="4.92281" transform="rotate(-8 21.9014 21.8576)" fill="#FECE99" stroke="#FE7500" stroke-width="0.845625"/>
<defs>
<filter id="filter0_dd_282_3108" x="7.98437" y="19.5084" width="25.8359" height="19.7891" filterUnits="userSpaceOnUse" color-interpolation-filters="sRGB">
<feFlood flood-opacity="0" result="BackgroundImageFix"/>
<feColorMatrix in="SourceAlpha" type="matrix" values="0 0 0 0 0 0 0 0 0 0 0 0 0 0 0 0 0 0 127 0" result="hardAlpha"/>
<feMorphology radius="0.6875" operator="dilate" in="SourceAlpha" result="effect1_dropShadow_282_3108"/>
<feOffset dy="0.6875"/>
<feGaussianBlur stdDeviation="1.03125"/>
<feColorMatrix type="matrix" values="0 0 0 0 0 0 0 0 0 0 0 0 0 0 0 0 0 0 0.15 0"/>
<feBlend mode="normal" in2="BackgroundImageFix" result="effect1_dropShadow_282_3108"/>
<feColorMatrix in="SourceAlpha" type="matrix" values="0 0 0 0 0 0 0 0 0 0 0 0 0 0 0 0 0 0 127 0" result="hardAlpha"/>
<feOffset dy="0.6875"/>
<feGaussianBlur stdDeviation="0.6875"/>
<feColorMatrix type="matrix" values="0 0 0 0 0 0 0 0 0 0 0 0 0 0 0 0 0 0 0.3 0"/>
<feBlend mode="normal" in2="effect1_dropShadow_282_3108" result="effect2_dropShadow_282_3108"/>
<feBlend mode="normal" in="SourceGraphic" in2="effect2_dropShadow_282_3108" result="shape"/>
</filter>
<filter id="filter1_dd_282_3108" x="9.96484" y="9.485" width="18.625" height="18.625" filterUnits="userSpaceOnUse" color-interpolation-filters="sRGB">
<feFlood flood-opacity="0" result="BackgroundImageFix"/>
<feColorMatrix in="SourceAlpha" type="matrix" values="0 0 0 0 0 0 0 0 0 0 0 0 0 0 0 0 0 0 127 0" result="hardAlpha"/>
<feMorphology radius="0.6875" operator="dilate" in="SourceAlpha" result="effect1_dropShadow_282_3108"/>
<feOffset dy="0.6875"/>
<feGaussianBlur stdDeviation="1.03125"/>
<feColorMatrix type="matrix" values="0 0 0 0 0 0 0 0 0 0 0 0 0 0 0 0 0 0 0.15 0"/>
<feBlend mode="normal" in2="BackgroundImageFix" result="effect1_dropShadow_282_3108"/>
<feColorMatrix in="SourceAlpha" type="matrix" values="0 0 0 0 0 0 0 0 0 0 0 0 0 0 0 0 0 0 127 0" result="hardAlpha"/>
<feOffset dy="0.6875"/>
<feGaussianBlur stdDeviation="0.6875"/>
<feColorMatrix type="matrix" values="0 0 0 0 0 0 0 0 0 0 0 0 0 0 0 0 0 0 0.3 0"/>
<feBlend mode="normal" in2="effect1_dropShadow_282_3108" result="effect2_dropShadow_282_3108"/>
<feBlend mode="normal" in="SourceGraphic" in2="effect2_dropShadow_282_3108" result="shape"/>
</filter>
<filter id="filter2_dd_282_3108" x="20.8594" y="17.6998" width="25.8359" height="19.7891" filterUnits="userSpaceOnUse" color-interpolation-filters="sRGB">
<feFlood flood-opacity="0" result="BackgroundImageFix"/>
<feColorMatrix in="SourceAlpha" type="matrix" values="0 0 0 0 0 0 0 0 0 0 0 0 0 0 0 0 0 0 127 0" result="hardAlpha"/>
<feMorphology radius="0.6875" operator="dilate" in="SourceAlpha" result="effect1_dropShadow_282_3108"/>
<feOffset dy="0.6875"/>
<feGaussianBlur stdDeviation="1.03125"/>
<feColorMatrix type="matrix" values="0 0 0 0 0 0 0 0 0 0 0 0 0 0 0 0 0 0 0.15 0"/>
<feBlend mode="normal" in2="BackgroundImageFix" result="effect1_dropShadow_282_3108"/>
<feColorMatrix in="SourceAlpha" type="matrix" values="0 0 0 0 0 0 0 0 0 0 0 0 0 0 0 0 0 0 127 0" result="hardAlpha"/>
<feOffset dy="0.6875"/>
<feGaussianBlur stdDeviation="0.6875"/>
<feColorMatrix type="matrix" values="0 0 0 0 0 0 0 0 0 0 0 0 0 0 0 0 0 0 0.3 0"/>
<feBlend mode="normal" in2="effect1_dropShadow_282_3108" result="effect2_dropShadow_282_3108"/>
<feBlend mode="normal" in="SourceGraphic" in2="effect2_dropShadow_282_3108" result="shape"/>
</filter>
<filter id="filter3_dd_282_3108" x="16.168" y="27.4459" width="25.8359" height="19.7891" filterUnits="userSpaceOnUse" color-interpolation-filters="sRGB">
<feFlood flood-opacity="0" result="BackgroundImageFix"/>
<feColorMatrix in="SourceAlpha" type="matrix" values="0 0 0 0 0 0 0 0 0 0 0 0 0 0 0 0 0 0 127 0" result="hardAlpha"/>
<feMorphology radius="0.6875" operator="dilate" in="SourceAlpha" result="effect1_dropShadow_282_3108"/>
<feOffset dy="0.6875"/>
<feGaussianBlur stdDeviation="1.03125"/>
<feColorMatrix type="matrix" values="0 0 0 0 0 0 0 0 0 0 0 0 0 0 0 0 0 0 0.15 0"/>
<feBlend mode="normal" in2="BackgroundImageFix" result="effect1_dropShadow_282_3108"/>
<feColorMatrix in="SourceAlpha" type="matrix" values="0 0 0 0 0 0 0 0 0 0 0 0 0 0 0 0 0 0 127 0" result="hardAlpha"/>
<feOffset dy="0.6875"/>
<feGaussianBlur stdDeviation="0.6875"/>
<feColorMatrix type="matrix" values="0 0 0 0 0 0 0 0 0 0 0 0 0 0 0 0 0 0 0.3 0"/>
<feBlend mode="normal" in2="effect1_dropShadow_282_3108" result="effect2_dropShadow_282_3108"/>
<feBlend mode="normal" in="SourceGraphic" in2="effect2_dropShadow_282_3108" result="shape"/>
</filter>
<filter id="filter4_dd_282_3108" x="18.1484" y="17.4225" width="18.625" height="18.625" filterUnits="userSpaceOnUse" color-interpolation-filters="sRGB">
<feFlood flood-opacity="0" result="BackgroundImageFix"/>
<feColorMatrix in="SourceAlpha" type="matrix" values="0 0 0 0 0 0 0 0 0 0 0 0 0 0 0 0 0 0 127 0" result="hardAlpha"/>
<feMorphology radius="0.6875" operator="dilate" in="SourceAlpha" result="effect1_dropShadow_282_3108"/>
<feOffset dy="0.6875"/>
<feGaussianBlur stdDeviation="1.03125"/>
<feColorMatrix type="matrix" values="0 0 0 0 0 0 0 0 0 0 0 0 0 0 0 0 0 0 0.15 0"/>
<feBlend mode="normal" in2="BackgroundImageFix" result="effect1_dropShadow_282_3108"/>
<feColorMatrix in="SourceAlpha" type="matrix" values="0 0 0 0 0 0 0 0 0 0 0 0 0 0 0 0 0 0 127 0" result="hardAlpha"/>
<feOffset dy="0.6875"/>
<feGaussianBlur stdDeviation="0.6875"/>
<feColorMatrix type="matrix" values="0 0 0 0 0 0 0 0 0 0 0 0 0 0 0 0 0 0 0.3 0"/>
<feBlend mode="normal" in2="effect1_dropShadow_282_3108" result="effect2_dropShadow_282_3108"/>
<feBlend mode="normal" in="SourceGraphic" in2="effect2_dropShadow_282_3108" result="shape"/>
</filter>
</defs>
</svg>
