<svg width="151" height="101" viewBox="0 0 151 101" fill="none" xmlns="http://www.w3.org/2000/svg">
<rect x="56.9648" y="6.40234" width="48" height="48" rx="4" transform="rotate(8 56.9648 6.40234)" fill="#F2E9DC"/>
<g filter="url(#filter0_dd_282_3130)">
<path d="M72.0352 29.979L60.3631 41.3936C60.2007 41.5524 60.1658 41.8008 60.2782 41.9983L62.5832 46.0495C62.7469 46.3373 63.1402 46.3893 63.3731 46.1539L70.8399 38.6097C71.0671 38.3801 71.4491 38.423 71.6198 38.6972L76.1606 45.9937C76.3331 46.2709 76.7206 46.3111 76.9463 46.0753L89.865 32.5817C90.1119 32.3238 90.5417 32.4004 90.6845 32.7276L91.5296 34.6653C91.7234 35.1095 92.3725 35.0459 92.4763 34.5725L94.8806 23.609C94.9578 23.2572 94.6488 22.9417 94.2954 23.0114L86.6006 24.5294C86.2656 24.5955 86.0939 24.9704 86.2628 25.2672L87.8352 28.0309C87.9476 28.2283 87.9127 28.4767 87.7502 28.6356L78.0893 38.0834C77.855 38.3126 77.4672 38.2581 77.3051 37.9732L72.8193 30.0892C72.6572 29.8043 72.2695 29.7498 72.0352 29.979Z" fill="#F2E9DC"/>
<path d="M94.2942 21.9329C95.3152 21.8652 96.154 22.8021 95.9267 23.8388L93.523 34.8024C93.1965 36.2899 91.1562 36.4893 90.5473 35.0932L90.0453 33.9428L77.7206 46.8167C77.0111 47.5577 75.7929 47.4303 75.2509 46.5594L71.0925 39.8775L64.1343 46.9072C63.4022 47.6469 62.1666 47.4836 61.6519 46.579L59.3466 42.5283C58.9934 41.9077 59.1033 41.1264 59.6138 40.6271L71.2857 29.2127C71.976 28.5376 73.0905 28.646 73.6469 29.3996L73.7507 29.5591L77.87 36.7996L86.6861 28.177L85.3313 25.7973C84.8007 24.8647 85.3403 23.686 86.3929 23.4782L94.0882 21.9602L94.2942 21.9329Z" stroke="#F2E9DC" stroke-width="2.14286"/>
</g>
<path d="M72.0352 29.979L60.3631 41.3936C60.2007 41.5524 60.1658 41.8008 60.2782 41.9983L62.5832 46.0495C62.7469 46.3373 63.1402 46.3893 63.3731 46.1539L70.8399 38.6097C71.0671 38.3801 71.4491 38.423 71.6198 38.6972L76.1606 45.9937C76.3331 46.2709 76.7206 46.3111 76.9463 46.0753L89.865 32.5817C90.1119 32.3238 90.5417 32.4004 90.6845 32.7276L91.5296 34.6653C91.7234 35.1095 92.3725 35.0459 92.4763 34.5725L94.8806 23.609C94.9578 23.2572 94.6488 22.9417 94.2954 23.0114L86.6006 24.5294C86.2656 24.5955 86.0939 24.9704 86.2628 25.2672L87.8352 28.0309C87.9476 28.2283 87.9127 28.4767 87.7502 28.6356L78.0893 38.0834C77.855 38.3126 77.4672 38.2581 77.3051 37.9732L72.8193 30.0892C72.6572 29.8043 72.2695 29.7498 72.0352 29.979Z" fill="#FFCE99" stroke="#FE7500" stroke-width="1.07143"/>
<rect x="3.89844" y="53.4746" width="140" height="28" rx="8" transform="rotate(8 3.89844 53.4746)" fill="#FECE99"/>
<path d="M17.38 74.5556L18.7439 64.8509L20.2412 65.0614L18.8773 74.766L17.38 74.5556ZM11.0443 73.6651L12.4082 63.9605L13.9055 64.1709L12.5416 73.8756L11.0443 73.6651ZM12.2746 69.6392L12.4772 68.1973L18.8268 69.0897L18.6242 70.5316L12.2746 69.6392ZM21.433 75.1252L22.4559 67.8467L23.8839 68.0474L22.861 75.3259L21.433 75.1252ZM23.3751 66.3359C23.0701 66.2931 22.8455 66.1814 22.7012 66.0009C22.5569 65.8204 22.5049 65.5869 22.5452 65.3003C22.5828 65.0323 22.6965 64.8268 22.8863 64.6838C23.0853 64.5421 23.3326 64.4921 23.6284 64.5336C23.9334 64.5765 24.1581 64.6882 24.3023 64.8687C24.4466 65.0492 24.4986 65.2827 24.4584 65.5692C24.4207 65.8373 24.3024 66.0421 24.1034 66.1838C23.9136 66.3268 23.6709 66.3775 23.3751 66.3359ZM27.8324 79.2762C27.3149 79.2035 26.809 79.0475 26.3148 78.8084C25.8285 78.5799 25.4464 78.3141 25.1686 78.0112L25.8513 76.9761C26.0166 77.1407 26.2169 77.2914 26.4522 77.4281C26.6862 77.5741 26.9379 77.6943 27.2074 77.7887C27.4756 77.8924 27.7437 77.9631 28.0117 78.0007C28.52 78.0722 28.9569 78.0487 29.3222 77.9304C29.6876 77.8121 29.9808 77.6036 30.2019 77.3048C30.4229 77.006 30.5672 76.6163 30.6348 76.1356L30.8316 74.7354L30.9704 74.8539C30.884 75.1339 30.6925 75.3898 30.396 75.6214C30.1101 75.8451 29.766 76.0135 29.3637 76.1267C28.9613 76.2398 28.5615 76.2684 28.164 76.2125C27.4709 76.1151 26.8743 75.8663 26.3745 75.4662C25.8852 75.0581 25.523 74.5501 25.288 73.9422C25.0543 73.325 24.9888 72.6513 25.0914 71.9211C25.194 71.191 25.4374 70.5654 25.8217 70.0445C26.2165 69.5156 26.7046 69.1271 27.2861 68.879C27.8782 68.6229 28.5116 68.5423 29.1863 68.6371C29.4636 68.676 29.7264 68.7507 29.9748 68.861C30.2245 68.9621 30.4512 69.0929 30.6548 69.2535C30.8597 69.4048 31.0396 69.5667 31.1944 69.7393C31.3493 69.9118 31.4704 70.0891 31.558 70.2711C31.6455 70.453 31.6927 70.6199 31.6997 70.7717L31.3791 70.8397L31.6187 69.1345L33.0467 69.3351L32.0861 76.17C32.0043 76.7522 31.8444 77.2529 31.6065 77.6718C31.3764 78.1013 31.0783 78.4458 30.7119 78.7054C30.3443 78.9742 29.9183 79.1546 29.4341 79.2468C28.9486 79.3482 28.4147 79.358 27.8324 79.2762ZM28.5016 74.9169C28.9545 74.9806 29.3715 74.9308 29.7526 74.7676C30.1337 74.6043 30.4473 74.3515 30.6933 74.0091C30.9394 73.6667 31.0962 73.2552 31.1637 72.7746C31.2313 72.2939 31.1893 71.8545 31.038 71.4562C30.8971 71.05 30.666 70.7159 30.3447 70.454C30.0326 70.1933 29.6501 70.0312 29.1972 69.9676C28.7536 69.9052 28.3406 69.9603 27.9582 70.1327C27.5863 70.2972 27.2721 70.5547 27.0155 70.905C26.7695 71.2475 26.6133 71.6544 26.5471 72.1257C26.4808 72.5971 26.5181 73.0359 26.659 73.4421C26.8103 73.8404 27.0421 74.1698 27.3542 74.4305C27.6755 74.6924 28.058 74.8546 28.5016 74.9169ZM33.9926 76.8903L35.4345 66.6311L36.8624 66.8318L36.2331 71.3098L35.9602 71.4411C36.0981 71.1306 36.3199 70.8602 36.6256 70.6298C36.9326 70.3902 37.2826 70.2132 37.6757 70.0988C38.0701 69.9752 38.4613 69.9406 38.8495 69.9952C39.4041 70.0731 39.8506 70.249 40.1891 70.5227C40.529 70.7873 40.7601 71.1543 40.8826 71.624C41.0051 72.0936 41.019 72.6657 40.9241 73.3404L40.3006 77.7768L38.8727 77.5762L39.4825 73.2368C39.541 72.8209 39.5336 72.4711 39.4604 72.1875C39.3884 71.8946 39.2454 71.6719 39.0312 71.5193C38.8183 71.3574 38.5396 71.2617 38.195 71.2321C37.9177 71.1931 37.6571 71.2036 37.413 71.2636C37.1703 71.3143 36.95 71.4059 36.7523 71.5383C36.5639 71.672 36.4039 71.8381 36.2724 72.0364C36.1514 72.2267 36.074 72.442 36.0402 72.6823L35.4206 77.091L34.7136 76.9916C34.5934 76.9747 34.4732 76.9579 34.3531 76.941C34.2329 76.9241 34.1128 76.9072 33.9926 76.8903ZM45.6282 81.6359L47.0798 71.3074L48.5216 71.51L48.2878 73.1736L48.0835 73.0177C48.178 72.7482 48.3721 72.5069 48.666 72.2937C48.9611 72.0713 49.3046 71.9075 49.6964 71.8023C50.0987 71.6892 50.4986 71.6606 50.896 71.7165C51.5522 71.8087 52.1118 72.0523 52.5746 72.4472C53.0375 72.8421 53.3772 73.3423 53.5937 73.9476C53.8103 74.553 53.8672 75.2207 53.7646 75.9509C53.6633 76.6718 53.4245 77.298 53.0482 77.8295C52.6824 78.353 52.222 78.7454 51.6669 79.0067C51.1131 79.2587 50.5173 79.3399 49.8796 79.2503C49.4544 79.1906 49.0548 79.0496 48.6808 78.8274C48.308 78.5959 48.0019 78.3267 47.7623 78.0197C47.5227 77.7127 47.3906 77.4114 47.3662 77.1158L47.7539 76.9723L47.0701 81.8385L45.6282 81.6359ZM49.829 77.9001C50.2542 77.9599 50.6481 77.9069 51.0107 77.741C51.3733 77.5752 51.6776 77.3211 51.9236 76.9787C52.1697 76.6363 52.3258 76.2294 52.3921 75.758C52.4583 75.2866 52.4197 74.8571 52.2763 74.4693C52.1434 74.0737 51.9255 73.7462 51.6227 73.4868C51.3198 73.2275 50.9512 73.0673 50.5168 73.0062C50.0824 72.9452 49.6839 72.9976 49.3213 73.1634C48.96 73.32 48.6563 73.5695 48.4103 73.9119C48.1642 74.2543 48.0081 74.6612 47.9418 75.1326C47.8756 75.6039 47.9135 76.0381 48.0557 76.4351C48.1978 76.8321 48.4203 77.1602 48.7231 77.4196C49.026 77.6789 49.3946 77.8391 49.829 77.9001ZM57.5507 80.3426C56.9499 80.2581 56.4234 80.0145 55.971 79.6116C55.5279 79.21 55.1988 78.7019 54.9836 78.0873C54.7683 77.4727 54.7114 76.805 54.8127 76.0841C54.9153 75.3539 55.1541 74.7277 55.5291 74.2055C55.9147 73.6753 56.3843 73.2842 56.9381 73.0322C57.5012 72.7814 58.1016 72.7009 58.7393 72.7905C59.1182 72.8437 59.457 72.9479 59.7557 73.103C60.0543 73.2581 60.3049 73.4535 60.5074 73.6893C60.7204 73.9172 60.8827 74.1709 60.9942 74.4505C61.115 74.7313 61.173 75.0222 61.1684 75.3232L60.8652 75.1675L61.1301 73.282L62.572 73.4846L61.5491 80.7631L60.1072 80.5605L60.3508 78.8275L60.6971 78.7772C60.6066 79.019 60.4567 79.2477 60.2473 79.4633C60.0484 79.671 59.802 79.8484 59.508 79.9956C59.2232 80.1441 58.9113 80.251 58.5722 80.3165C58.2424 80.3832 57.9019 80.3919 57.5507 80.3426ZM58.1101 79.0781C58.5445 79.1392 58.943 79.0868 59.3056 78.921C59.6682 78.7551 59.9679 78.5004 60.2047 78.1567C60.4521 77.805 60.6095 77.3889 60.6771 76.9082C60.7433 76.4369 60.7054 76.0027 60.5632 75.6057C60.4303 75.21 60.2125 74.8825 59.9096 74.6232C59.6068 74.3639 59.2381 74.2037 58.8037 74.1426C58.3786 74.0829 57.9847 74.1359 57.6221 74.3017C57.2687 74.4688 56.969 74.7236 56.723 75.066C56.4862 75.4097 56.3346 75.8173 56.2684 76.2886C56.2008 76.7693 56.2329 77.212 56.3645 77.6169C56.5066 78.0139 56.7245 78.3414 57.0181 78.5995C57.3209 78.8588 57.6849 79.0184 58.1101 79.0781ZM63.5096 81.0386L64.5325 73.7602L65.9743 73.9628L65.6528 76.2503L65.5921 75.6763C65.7432 75.3394 65.959 75.0445 66.2395 74.7918C66.5293 74.5403 66.8431 74.3535 67.1807 74.2313C67.5276 74.1104 67.872 74.074 68.2139 74.1221C68.3711 74.1441 68.517 74.1788 68.6517 74.226C68.7957 74.2745 68.9067 74.3231 68.9847 74.3718L68.3922 75.8719C68.2877 75.8101 68.1682 75.7556 68.0334 75.7084C67.9092 75.6532 67.7824 75.6165 67.653 75.5984C67.4035 75.5633 67.156 75.5804 66.9107 75.6495C66.6759 75.7108 66.4583 75.8169 66.258 75.9678C66.0683 76.1108 65.9063 76.2907 65.7722 76.5074C65.6394 76.715 65.5541 76.9528 65.5164 77.2208L64.9514 81.2413L63.5096 81.0386ZM70.2397 81.9845L71.5238 72.8483L72.9517 73.049L71.6677 82.1852L70.2397 81.9845ZM69.5567 75.88L69.7515 74.4937L74.382 75.1444L74.1872 76.5308L69.5567 75.88ZM74.8618 82.6341L75.8847 75.3556L77.3127 75.5563L76.2897 82.8348L74.8618 82.6341ZM76.8039 73.8449C76.4989 73.802 76.2742 73.6903 76.13 73.5098C75.9857 73.3293 75.9337 73.0958 75.9739 72.8093C76.0116 72.5412 76.1253 72.3357 76.3151 72.1927C76.5141 72.0511 76.7614 72.001 77.0572 72.0426C77.3622 72.0854 77.5868 72.1971 77.7311 72.3776C77.8754 72.5581 77.9274 72.7916 77.8871 73.0781C77.8495 73.3462 77.7311 73.551 77.5322 73.6927C77.3424 73.8357 77.0997 73.8864 76.8039 73.8449ZM81.5235 83.7117C80.8488 83.6169 80.2668 83.3654 79.7775 82.9574C79.2974 82.5506 78.9406 82.0386 78.7068 81.4214C78.4824 80.8055 78.4202 80.1417 78.5202 79.4301C78.6202 78.7184 78.863 78.0975 79.2485 77.5673C79.6433 77.0384 80.1275 76.6447 80.7011 76.386C81.2839 76.1286 81.9126 76.0473 82.5873 76.1421C83.2343 76.233 83.8024 76.4495 84.2915 76.7916C84.7912 77.1257 85.1479 77.5387 85.3615 78.0306L84.4349 78.89C84.3169 78.6566 84.1547 78.4359 83.9483 78.2278C83.7419 78.0197 83.5165 77.8467 83.272 77.7086C83.0275 77.5706 82.7851 77.4847 82.5448 77.4509C82.1011 77.3886 81.6881 77.4436 81.3057 77.6161C80.9339 77.7806 80.6197 78.038 80.3631 78.3884C80.1065 78.7388 79.9451 79.1496 79.8788 79.621C79.8126 80.0924 79.8591 80.5325 80.0184 80.9413C80.179 81.3409 80.4194 81.6762 80.7394 81.9474C81.0595 82.2186 81.4321 82.3841 81.8572 82.4438C82.1068 82.4789 82.3529 82.4711 82.5957 82.4204C82.8477 82.371 83.0963 82.2787 83.3415 82.1435C83.5867 82.0083 83.8232 81.8342 84.0511 81.6211L84.7049 82.7027C84.3507 83.077 83.8775 83.3592 83.2853 83.5493C82.7023 83.7407 82.115 83.7949 81.5235 83.7117ZM86.0731 84.2097L87.096 76.9313L88.5239 77.132L87.501 84.4104L86.0731 84.2097ZM88.0152 75.4205C87.7102 75.3776 87.4855 75.2659 87.3413 75.0854C87.197 74.9049 87.145 74.6714 87.1852 74.3849C87.2229 74.1169 87.3366 73.9114 87.5264 73.7684C87.7253 73.6267 87.9727 73.5766 88.2685 73.6182C88.5735 73.6611 88.7981 73.7728 88.9424 73.9533C89.0867 74.1338 89.1387 74.3673 89.0984 74.6538C89.0608 74.9218 88.9424 75.1267 88.7434 75.2684C88.5537 75.4114 88.3109 75.4621 88.0152 75.4205ZM89.234 87.7643L90.6856 77.4358L92.1274 77.6384L91.8936 79.302L91.6893 79.1461C91.7837 78.8766 91.9779 78.6353 92.2718 78.4221C92.5669 78.1997 92.9104 78.0359 93.3022 77.9307C93.7045 77.8176 94.1044 77.789 94.5018 77.8449C95.158 77.9371 95.7176 78.1807 96.1804 78.5756C96.6433 78.9705 96.983 79.4707 97.1995 80.076C97.4161 80.6814 97.473 81.3491 97.3704 82.0793C97.2691 82.8002 97.0303 83.4264 96.654 83.9579C96.2882 84.4814 95.8278 84.8738 95.2727 85.1351C94.7189 85.3871 94.1231 85.4683 93.4854 85.3787C93.0602 85.319 92.6606 85.178 92.2866 84.9558C91.9138 84.7243 91.6077 84.4551 91.3681 84.1481C91.1285 83.8411 90.9964 83.5398 90.972 83.2441L91.3597 83.1007L90.6758 87.9669L89.234 87.7643ZM93.4348 84.0285C93.86 84.0883 94.2538 84.0353 94.6164 83.8694C94.9791 83.7036 95.2834 83.4495 95.5294 83.1071C95.7755 82.7647 95.9316 82.3578 95.9979 81.8864C96.0641 81.415 96.0255 80.9855 95.8821 80.5977C95.7492 80.2021 95.5313 79.8746 95.2285 79.6152C94.9256 79.3559 94.557 79.1957 94.1226 79.1346C93.6882 79.0736 93.2897 79.126 92.9271 79.2918C92.5658 79.4484 92.2621 79.6978 92.0161 80.0403C91.77 80.3827 91.6139 80.7896 91.5476 81.261C91.4814 81.7323 91.5193 82.1665 91.6614 82.5635C91.8036 82.9605 92.0261 83.2886 92.3289 83.5479C92.6318 83.8073 93.0004 83.9675 93.4348 84.0285ZM101.156 86.471C100.556 86.3865 100.029 86.1429 99.5768 85.74C99.1337 85.3384 98.8046 84.8303 98.5893 84.2157C98.3741 83.6011 98.3172 82.9334 98.4185 82.2125C98.5211 81.4823 98.7599 80.8561 99.1349 80.3339C99.5204 79.8037 99.9901 79.4126 100.544 79.1606C101.107 78.9098 101.707 78.8293 102.345 78.9189C102.724 78.9721 103.063 79.0763 103.361 79.2314C103.66 79.3864 103.911 79.5819 104.113 79.8177C104.326 80.0456 104.488 80.2993 104.6 80.5789C104.721 80.8597 104.779 81.1506 104.774 81.4516L104.471 81.2959L104.736 79.4104L106.178 79.613L105.155 86.8915L103.713 86.6889L103.957 84.9559L104.303 84.9056C104.212 85.1474 104.062 85.3761 103.853 85.5917C103.654 85.7994 103.408 85.9768 103.114 86.124C102.829 86.2725 102.517 86.3794 102.178 86.4449C101.848 86.5116 101.508 86.5203 101.156 86.471ZM101.716 85.2065C102.15 85.2676 102.549 85.2152 102.911 85.0494C103.274 84.8835 103.574 84.6288 103.811 84.2851C104.058 83.9334 104.215 83.5172 104.283 83.0366C104.349 82.5653 104.311 82.1311 104.169 81.7341C104.036 81.3384 103.818 81.0109 103.515 80.7516C103.213 80.4923 102.844 80.3321 102.41 80.271C101.984 80.2113 101.59 80.2643 101.228 80.4301C100.875 80.5972 100.575 80.852 100.329 81.1944C100.092 81.5381 99.9404 81.9457 99.8742 82.417C99.8066 82.8977 99.8387 83.3404 99.9703 83.7453C100.112 84.1423 100.33 84.4698 100.624 84.7279C100.927 84.9872 101.291 85.1468 101.716 85.2065ZM108.016 87.2937L109.301 78.1575L110.728 78.3582L109.444 87.4944L108.016 87.2937ZM107.333 81.1892L107.528 79.8028L112.159 80.4536L111.964 81.84L107.333 81.1892ZM112.639 87.9433L113.661 80.6648L115.089 80.8655L114.066 88.144L112.639 87.9433ZM114.581 79.154C114.276 79.1112 114.051 78.9995 113.907 78.819C113.762 78.6385 113.71 78.405 113.751 78.1184C113.788 77.8504 113.902 77.6449 114.092 77.5019C114.291 77.3602 114.538 77.3102 114.834 77.3517C115.139 77.3946 115.364 77.5063 115.508 77.6868C115.652 77.8673 115.704 78.1008 115.664 78.3873C115.626 78.6554 115.508 78.8602 115.309 79.0019C115.119 79.1449 114.876 79.1956 114.581 79.154ZM119.48 89.0462C118.769 88.9462 118.154 88.6948 117.635 88.2921C117.128 87.8814 116.752 87.3715 116.507 86.7622C116.264 86.1437 116.194 85.4694 116.297 84.7392C116.4 84.0091 116.652 83.3848 117.055 82.8665C117.459 82.3389 117.961 81.9524 118.561 81.7068C119.172 81.4533 119.833 81.3766 120.544 81.4766C121.247 81.5753 121.852 81.83 122.36 82.2407C122.878 82.6434 123.259 83.154 123.502 83.7725C123.746 84.3818 123.817 85.0515 123.714 85.7817C123.611 86.5118 123.358 87.1407 122.954 87.6682C122.551 88.1866 122.045 88.5725 121.434 88.826C120.834 89.0715 120.183 89.1449 119.48 89.0462ZM119.664 87.743C120.098 87.8041 120.501 87.7524 120.873 87.5878C121.246 87.4141 121.556 87.156 121.802 86.8136C122.049 86.4619 122.201 86.0497 122.258 85.5771C122.335 85.0978 122.302 84.6596 122.16 84.2626C122.019 83.8564 121.793 83.523 121.481 83.2623C121.169 83.0017 120.796 82.8409 120.361 82.7798C119.927 82.7188 119.518 82.7745 119.136 82.9469C118.764 83.1114 118.455 83.3695 118.207 83.7212C117.961 84.0636 117.81 84.4712 117.753 84.9438C117.677 85.4139 117.71 85.852 117.851 86.2583C117.993 86.6552 118.219 86.9887 118.53 87.2586C118.851 87.5205 119.229 87.682 119.664 87.743ZM124.724 89.6418L125.747 82.3634L127.175 82.564L126.965 84.0613L126.692 84.1926C126.83 83.8821 127.052 83.6117 127.357 83.3813C127.664 83.1417 128.014 82.9647 128.407 82.8503C128.802 82.7267 129.193 82.6921 129.581 82.7467C130.136 82.8246 130.582 83.0005 130.921 83.2742C131.261 83.5388 131.492 83.9059 131.614 84.3755C131.737 84.8451 131.751 85.4173 131.656 86.092L131.032 90.5284L129.604 90.3277L130.214 85.9883C130.273 85.5724 130.265 85.2226 130.192 84.939C130.12 84.6462 129.977 84.4234 129.763 84.2708C129.55 84.1089 129.271 84.0132 128.927 83.9836C128.649 83.9446 128.389 83.9551 128.145 84.0151C127.902 84.0658 127.682 84.1574 127.484 84.2898C127.296 84.4236 127.136 84.5896 127.004 84.7879C126.883 84.9782 126.806 85.1935 126.772 85.4338L126.152 89.8425L125.445 89.7431C125.325 89.7263 125.205 89.7094 125.085 89.6925C124.965 89.6756 124.844 89.6587 124.724 89.6418Z" fill="#562F00"/>
<defs>
<filter id="filter0_dd_282_3130" x="54.0703" y="17.8574" width="46.9648" height="35.5879" filterUnits="userSpaceOnUse" color-interpolation-filters="sRGB">
<feFlood flood-opacity="0" result="BackgroundImageFix"/>
<feColorMatrix in="SourceAlpha" type="matrix" values="0 0 0 0 0 0 0 0 0 0 0 0 0 0 0 0 0 0 127 0" result="hardAlpha"/>
<feMorphology radius="1" operator="dilate" in="SourceAlpha" result="effect1_dropShadow_282_3130"/>
<feOffset dy="1"/>
<feGaussianBlur stdDeviation="1.5"/>
<feColorMatrix type="matrix" values="0 0 0 0 0 0 0 0 0 0 0 0 0 0 0 0 0 0 0.15 0"/>
<feBlend mode="normal" in2="BackgroundImageFix" result="effect1_dropShadow_282_3130"/>
<feColorMatrix in="SourceAlpha" type="matrix" values="0 0 0 0 0 0 0 0 0 0 0 0 0 0 0 0 0 0 127 0" result="hardAlpha"/>
<feOffset dy="1"/>
<feGaussianBlur stdDeviation="1"/>
<feColorMatrix type="matrix" values="0 0 0 0 0 0 0 0 0 0 0 0 0 0 0 0 0 0 0.3 0"/>
<feBlend mode="normal" in2="effect1_dropShadow_282_3130" result="effect2_dropShadow_282_3130"/>
<feBlend mode="normal" in="SourceGraphic" in2="effect2_dropShadow_282_3130" result="shape"/>
</filter>
</defs>
</svg>
