<svg width="55" height="55" viewBox="0 0 55 55" fill="none" xmlns="http://www.w3.org/2000/svg">
<rect x="6.68031" width="48" height="48" rx="4" transform="rotate(8 6.68031 0)" fill="#F2E9DC"/>
<g filter="url(#filter0_dd_282_3131)">
<path d="M21.7506 23.5767L10.0786 34.9912C9.91617 35.1501 9.88126 35.3985 9.99362 35.596L12.2986 39.6471C12.4624 39.935 12.8557 39.987 13.0886 39.7516L20.5554 32.2073C20.7826 31.9777 21.1646 32.0206 21.3353 32.2949L25.8761 39.5914C26.0486 39.8685 26.436 39.9087 26.6618 39.673L39.5805 26.1794C39.8274 25.9215 40.2572 25.998 40.3999 26.3253L41.2451 28.263C41.4388 28.7072 42.0879 28.6436 42.1918 28.1702L44.5961 17.2067C44.6732 16.8549 44.3643 16.5393 44.0109 16.609L36.3161 18.1271C35.9811 18.1931 35.8094 18.5681 35.9783 18.8649L37.5507 21.6285C37.6631 21.826 37.6282 22.0744 37.4657 22.2332L27.8048 31.6811C27.5705 31.9103 27.1827 31.8558 27.0206 31.5709L22.5348 23.6869C22.3727 23.402 21.985 23.3475 21.7506 23.5767Z" fill="#F2E9DC"/>
<path d="M44.0097 15.5306C45.0307 15.4629 45.8695 16.3997 45.6422 17.4365L43.2384 28.4C42.9119 29.8876 40.8717 30.087 40.2628 28.6909L39.7607 27.5405L27.436 40.4144C26.7265 41.1553 25.5084 41.028 24.9664 40.157L20.808 33.4752L13.8498 40.5049C13.1177 41.2446 11.8821 41.0813 11.3674 40.1767L9.06203 36.126C8.70891 35.5054 8.81872 34.724 9.32924 34.2248L21.0011 22.8104C21.6915 22.1353 22.8059 22.2436 23.3624 22.9972L23.4662 23.1568L27.5855 30.3972L36.4016 21.7747L35.0467 19.395C34.5161 18.4624 35.0558 17.2837 36.1084 17.0758L43.8037 15.5578L44.0097 15.5306Z" stroke="#F2E9DC" stroke-width="2.14286"/>
</g>
<path d="M21.7506 23.5767L10.0786 34.9912C9.91617 35.1501 9.88126 35.3985 9.99362 35.596L12.2986 39.6471C12.4624 39.935 12.8557 39.987 13.0886 39.7516L20.5554 32.2073C20.7826 31.9777 21.1646 32.0206 21.3353 32.2949L25.8761 39.5914C26.0486 39.8685 26.436 39.9087 26.6618 39.673L39.5805 26.1794C39.8274 25.9215 40.2572 25.998 40.3999 26.3253L41.2451 28.263C41.4388 28.7072 42.0879 28.6436 42.1918 28.1702L44.5961 17.2067C44.6732 16.8549 44.3643 16.5393 44.0109 16.609L36.3161 18.1271C35.9811 18.1931 35.8094 18.5681 35.9783 18.8649L37.5507 21.6285C37.6631 21.826 37.6282 22.0744 37.4657 22.2332L27.8048 31.6811C27.5705 31.9103 27.1827 31.8558 27.0206 31.5709L22.5348 23.6869C22.3727 23.402 21.985 23.3475 21.7506 23.5767Z" fill="#FFCE99" stroke="#FE7500" stroke-width="1.07143"/>
<defs>
<filter id="filter0_dd_282_3131" x="3.78578" y="11.4551" width="46.9648" height="35.5879" filterUnits="userSpaceOnUse" color-interpolation-filters="sRGB">
<feFlood flood-opacity="0" result="BackgroundImageFix"/>
<feColorMatrix in="SourceAlpha" type="matrix" values="0 0 0 0 0 0 0 0 0 0 0 0 0 0 0 0 0 0 127 0" result="hardAlpha"/>
<feMorphology radius="1" operator="dilate" in="SourceAlpha" result="effect1_dropShadow_282_3131"/>
<feOffset dy="1"/>
<feGaussianBlur stdDeviation="1.5"/>
<feColorMatrix type="matrix" values="0 0 0 0 0 0 0 0 0 0 0 0 0 0 0 0 0 0 0.15 0"/>
<feBlend mode="normal" in2="BackgroundImageFix" result="effect1_dropShadow_282_3131"/>
<feColorMatrix in="SourceAlpha" type="matrix" values="0 0 0 0 0 0 0 0 0 0 0 0 0 0 0 0 0 0 127 0" result="hardAlpha"/>
<feOffset dy="1"/>
<feGaussianBlur stdDeviation="1"/>
<feColorMatrix type="matrix" values="0 0 0 0 0 0 0 0 0 0 0 0 0 0 0 0 0 0 0.3 0"/>
<feBlend mode="normal" in2="effect1_dropShadow_282_3131" result="effect2_dropShadow_282_3131"/>
<feBlend mode="normal" in="SourceGraphic" in2="effect2_dropShadow_282_3131" result="shape"/>
</filter>
</defs>
</svg>
