<svg width="151" height="101" viewBox="0 0 151 101" fill="none" xmlns="http://www.w3.org/2000/svg">
<rect x="45.5508" y="13.082" width="48" height="48" rx="4" transform="rotate(-8 45.5508 13.082)" fill="#F2E9DC"/>
<g filter="url(#filter0_dd_282_3138)">
<path d="M56.8127 35.7349C55.5829 26.9844 61.6797 18.8937 70.4302 17.6639C79.1808 16.434 87.2715 22.5308 88.5013 31.2814C89.7311 40.0319 83.6343 48.1226 74.8838 49.3524C66.1332 50.5822 58.0425 44.4855 56.8127 35.7349Z" fill="#F2E9DC"/>
<path d="M61.9662 19.4775C62.0784 18.8415 62.9389 18.7206 63.222 19.301L64.6582 22.2456C64.7848 22.5052 65.0641 22.6538 65.3501 22.6136L68.5944 22.1576C69.234 22.0677 69.6149 22.8487 69.1503 23.2974L66.7936 25.5732C66.5859 25.7738 66.5309 26.0854 66.6575 26.345L68.0937 29.2896C68.3768 29.8701 67.7518 30.4737 67.1815 30.1705L64.2888 28.6324C64.0338 28.4968 63.7205 28.5409 63.5128 28.7415L61.1561 31.0173C60.6915 31.4659 59.9243 31.058 60.0364 30.422L60.6053 27.1956C60.6555 26.9111 60.5168 26.6268 60.2618 26.4912L57.3691 24.9531C56.7988 24.6499 56.9497 23.7942 57.5893 23.7043L60.8336 23.2483C61.1196 23.2081 61.3472 22.9883 61.3973 22.7039L61.9662 19.4775Z" fill="#F2E9DC"/>
<path d="M77.8105 17.2507C77.9227 16.6147 78.7831 16.4938 79.0663 17.0742L80.5024 20.0189C80.629 20.2785 80.9084 20.427 81.1944 20.3868L84.4387 19.9308C85.0783 19.841 85.4592 20.622 84.9946 21.0706L82.6379 23.3464C82.4302 23.547 82.3752 23.8586 82.5018 24.1182L83.938 27.0628C84.2211 27.6433 83.5961 28.2469 83.0258 27.9437L80.1331 26.4056C79.8781 26.27 79.5648 26.3141 79.357 26.5147L77.0004 28.7905C76.5358 29.2392 75.7686 28.8312 75.8807 28.1952L76.4496 24.9688C76.4998 24.6844 76.3611 24.4 76.1061 24.2644L73.2134 22.7263C72.6431 22.4231 72.794 21.5674 73.4336 21.4775L76.6779 21.0216C76.9639 20.9814 77.1915 20.7616 77.2416 20.4771L77.8105 17.2507Z" fill="#F2E9DC"/>
<path d="M82.5088 34.8164L63.6364 37.4688C63.1221 37.5411 62.8841 38.1493 63.2152 38.5494C65.9085 41.8039 67.9007 43.6017 73.9559 42.7506C79.4708 41.9756 81.5595 39.942 83.2135 35.6913C83.3944 35.2263 83.0029 34.747 82.5088 34.8164Z" fill="#F2E9DC"/>
<path d="M56.8127 35.7349C55.5829 26.9844 61.6797 18.8937 70.4302 17.6639C79.1808 16.434 87.2715 22.5308 88.5013 31.2814C89.7311 40.0319 83.6343 48.1226 74.8838 49.3524C66.1332 50.5822 58.0425 44.4855 56.8127 35.7349Z" stroke="#F2E9DC" stroke-width="1.23077"/>
<path d="M61.9662 19.4775C62.0784 18.8415 62.9389 18.7206 63.222 19.301L64.6582 22.2456C64.7848 22.5052 65.0641 22.6538 65.3501 22.6136L68.5944 22.1576C69.234 22.0677 69.6149 22.8487 69.1503 23.2974L66.7936 25.5732C66.5859 25.7738 66.5309 26.0854 66.6575 26.345L68.0937 29.2896C68.3768 29.8701 67.7518 30.4737 67.1815 30.1705L64.2888 28.6324C64.0338 28.4968 63.7205 28.5409 63.5128 28.7415L61.1561 31.0173C60.6915 31.4659 59.9243 31.058 60.0364 30.422L60.6053 27.1956C60.6555 26.9111 60.5168 26.6268 60.2618 26.4912L57.3691 24.9531C56.7988 24.6499 56.9497 23.7942 57.5893 23.7043L60.8336 23.2483C61.1196 23.2081 61.3472 22.9883 61.3973 22.7039L61.9662 19.4775Z" stroke="#F2E9DC" stroke-width="1.23077"/>
<path d="M77.8105 17.2507C77.9227 16.6147 78.7831 16.4938 79.0663 17.0742L80.5024 20.0189C80.629 20.2785 80.9084 20.427 81.1944 20.3868L84.4387 19.9308C85.0783 19.841 85.4592 20.622 84.9946 21.0706L82.6379 23.3464C82.4302 23.547 82.3752 23.8586 82.5018 24.1182L83.938 27.0628C84.2211 27.6433 83.5961 28.2469 83.0258 27.9437L80.1331 26.4056C79.8781 26.27 79.5648 26.3141 79.357 26.5147L77.0004 28.7905C76.5358 29.2392 75.7686 28.8312 75.8807 28.1952L76.4496 24.9688C76.4998 24.6844 76.3611 24.4 76.1061 24.2644L73.2134 22.7263C72.6431 22.4231 72.794 21.5674 73.4336 21.4775L76.6779 21.0216C76.9639 20.9814 77.1915 20.7616 77.2416 20.4771L77.8105 17.2507Z" stroke="#F2E9DC" stroke-width="1.23077"/>
<path d="M82.5088 34.8164L63.6364 37.4688C63.1221 37.5411 62.8841 38.1493 63.2152 38.5494C65.9085 41.8039 67.9007 43.6017 73.9559 42.7506C79.4708 41.9756 81.5595 39.942 83.2135 35.6913C83.3944 35.2263 83.0029 34.747 82.5088 34.8164Z" stroke="#F2E9DC" stroke-width="1.23077"/>
</g>
<path d="M58.032 35.5649C56.8968 27.4875 62.5246 20.0192 70.6021 18.884C78.6795 17.7488 86.1478 23.3766 87.283 31.454C88.4182 39.5314 82.7905 46.9998 74.713 48.135C66.6356 49.2702 59.1673 43.6424 58.032 35.5649Z" fill="#FFCE99"/>
<path d="M62.7891 20.5581C62.8927 19.971 63.6869 19.8594 63.9483 20.3952L65.274 23.1133C65.3909 23.3529 65.6487 23.49 65.9127 23.4529L68.9075 23.0321C69.4978 22.9491 69.8494 23.67 69.4206 24.0841L67.2452 26.1849C67.0534 26.3701 67.0027 26.6577 67.1196 26.8973L68.4453 29.6154C68.7066 30.1512 68.1296 30.7084 67.6033 30.4286L64.9331 29.0088C64.6977 28.8836 64.4085 28.9243 64.2167 29.1095L62.0413 31.2102C61.6125 31.6244 60.9043 31.2478 61.0078 30.6607L61.5329 27.6825C61.5792 27.4199 61.4512 27.1574 61.2158 27.0323L58.5456 25.6125C58.0192 25.3326 58.1585 24.5427 58.7489 24.4598L61.7436 24.0389C62.0076 24.0018 62.2177 23.7989 62.264 23.5363L62.7891 20.5581Z" fill="#FE7500"/>
<path d="M77.4146 18.5026C77.5182 17.9155 78.3124 17.8039 78.5738 18.3397L79.8995 21.0578C80.0164 21.2975 80.2742 21.4346 80.5382 21.3975L83.533 20.9766C84.1233 20.8936 84.4749 21.6145 84.0461 22.0286L81.8707 24.1294C81.6789 24.3146 81.6282 24.6022 81.7451 24.8418L83.0708 27.56C83.3321 28.0958 82.7551 28.6529 82.2288 28.3731L79.5586 26.9533C79.3232 26.8282 79.034 26.8688 78.8422 27.054L76.6668 29.1548C76.238 29.5689 75.5298 29.1923 75.6333 28.6052L76.1584 25.627C76.2047 25.3645 76.0767 25.102 75.8413 24.9768L73.1711 23.557C72.6447 23.2772 72.784 22.4872 73.3744 22.4043L76.3691 21.9834C76.6331 21.9463 76.8432 21.7434 76.8895 21.4809L77.4146 18.5026Z" fill="#FE7500"/>
<path d="M81.7515 34.7171L64.3308 37.1654C63.8561 37.2322 63.6364 37.7936 63.9421 38.1629C66.4282 41.1671 68.2671 42.8266 73.8566 42.041C78.9472 41.3256 80.8752 39.4484 82.402 35.5247C82.569 35.0955 82.2076 34.653 81.7515 34.7171Z" fill="#FE7500"/>
<path d="M58.032 35.5649C56.8968 27.4875 62.5246 20.0192 70.6021 18.884C78.6795 17.7488 86.1478 23.3766 87.283 31.454C88.4182 39.5314 82.7905 46.9998 74.713 48.135C66.6356 49.2702 59.1673 43.6424 58.032 35.5649Z" stroke="#FE7500" stroke-width="1.23077"/>
<path d="M62.7891 20.5581C62.8927 19.971 63.6869 19.8594 63.9483 20.3952L65.274 23.1133C65.3909 23.3529 65.6487 23.49 65.9127 23.4529L68.9075 23.0321C69.4978 22.9491 69.8494 23.67 69.4206 24.0841L67.2452 26.1849C67.0534 26.3701 67.0027 26.6577 67.1196 26.8973L68.4453 29.6154C68.7066 30.1512 68.1296 30.7084 67.6033 30.4286L64.9331 29.0088C64.6977 28.8836 64.4085 28.9243 64.2167 29.1095L62.0413 31.2102C61.6125 31.6244 60.9043 31.2478 61.0078 30.6607L61.5329 27.6825C61.5792 27.4199 61.4512 27.1574 61.2158 27.0323L58.5456 25.6125C58.0192 25.3326 58.1585 24.5427 58.7489 24.4598L61.7436 24.0389C62.0076 24.0018 62.2177 23.7989 62.264 23.5363L62.7891 20.5581Z" stroke="#FE7500" stroke-width="1.23077"/>
<path d="M77.4146 18.5026C77.5182 17.9155 78.3124 17.8039 78.5738 18.3397L79.8995 21.0578C80.0164 21.2975 80.2742 21.4346 80.5382 21.3975L83.533 20.9766C84.1233 20.8936 84.4749 21.6145 84.0461 22.0286L81.8707 24.1294C81.6789 24.3146 81.6282 24.6022 81.7451 24.8418L83.0708 27.56C83.3321 28.0958 82.7551 28.6529 82.2288 28.3731L79.5586 26.9533C79.3232 26.8282 79.034 26.8688 78.8422 27.054L76.6668 29.1548C76.238 29.5689 75.5298 29.1923 75.6333 28.6052L76.1584 25.627C76.2047 25.3645 76.0767 25.102 75.8413 24.9768L73.1711 23.557C72.6447 23.2772 72.784 22.4872 73.3744 22.4043L76.3691 21.9834C76.6331 21.9463 76.8432 21.7434 76.8895 21.4809L77.4146 18.5026Z" stroke="#FE7500" stroke-width="1.23077"/>
<path d="M81.7515 34.7171L64.3308 37.1654C63.8561 37.2322 63.6364 37.7936 63.9421 38.1629C66.4282 41.1671 68.2671 42.8266 73.8566 42.041C78.9472 41.3256 80.8752 39.4484 82.402 35.5247C82.569 35.0955 82.2076 34.653 81.7515 34.7171Z" stroke="#FE7500" stroke-width="1.23077"/>
<rect x="7.51562" y="72.959" width="140" height="28" rx="8" transform="rotate(-8 7.51562 72.959)" fill="#FECE99"/>
<path d="M49.0999 86.3021L47.736 76.5974L53.8499 75.7382L54.0526 77.18L49.4359 77.8288L50.3946 84.6498L55.0112 84.001L55.2138 85.4428L49.0999 86.3021ZM49.1811 81.9504L48.9784 80.5086L53.6505 79.852L53.8532 81.2938L49.1811 81.9504ZM57.2221 85.1606L56.1992 77.8821L57.6271 77.6814L57.8376 79.1787L57.6114 79.3801C57.6584 79.0437 57.797 78.7226 58.0274 78.4169C58.2565 78.1019 58.5442 77.8353 58.8905 77.617C59.2355 77.3894 59.6021 77.2483 59.9903 77.1938C60.5448 77.1158 61.0225 77.1618 61.4234 77.3317C61.823 77.4923 62.1464 77.7814 62.3936 78.1991C62.6408 78.6168 62.8118 79.1629 62.9066 79.8376L63.5301 84.274L62.1021 84.4747L61.4923 80.1354C61.4338 79.7195 61.3303 79.3853 61.1817 79.1328C61.0319 78.8711 60.8329 78.6965 60.585 78.6088C60.3357 78.5119 60.0414 78.4967 59.7021 78.5632C59.4248 78.6022 59.1771 78.6841 58.959 78.809C58.7397 78.9247 58.5532 79.0734 58.3997 79.2552C58.2554 79.4357 58.1474 79.6394 58.0756 79.8663C58.0117 80.0826 57.9967 80.3109 58.0305 80.5512L58.6501 84.9599L57.943 85.0593C57.8229 85.0761 57.7027 85.093 57.5826 85.1099C57.4624 85.1268 57.3423 85.1437 57.2221 85.1606ZM69.1401 86.7372C68.6225 86.81 68.0932 86.7995 67.5523 86.7059C67.0219 86.6202 66.5813 86.4701 66.2307 86.2555L66.6017 85.0723C66.806 85.185 67.0401 85.2746 67.3039 85.3412C67.5691 85.417 67.8442 85.4632 68.1292 85.4797C68.4156 85.5054 68.6928 85.4995 68.9608 85.4618C69.4692 85.3903 69.8826 85.2474 70.2012 85.033C70.5198 84.8186 70.7442 84.5373 70.8743 84.1891C71.0045 83.8409 71.0358 83.4265 70.9682 82.9459L70.7714 81.5457L70.9376 81.6213C70.9316 81.9143 70.8181 82.213 70.597 82.5174C70.3838 82.8113 70.0994 83.068 69.7439 83.2876C69.3883 83.5073 69.0118 83.645 68.6144 83.7009C67.9212 83.7983 67.2792 83.7236 66.6885 83.4767C66.1056 83.2193 65.6175 82.8308 65.224 82.3112C64.8292 81.7823 64.5805 81.1528 64.4779 80.4226C64.3753 79.6925 64.4369 79.0241 64.6626 78.4174C64.8963 77.8002 65.2585 77.2922 65.7491 76.8934C66.2476 76.484 66.8343 76.2319 67.509 76.1371C67.7862 76.0981 68.0595 76.0974 68.3286 76.135C68.5965 76.1633 68.8505 76.2266 69.0905 76.3248C69.3292 76.4138 69.5467 76.5199 69.7431 76.6431C69.9395 76.7663 70.1049 76.9033 70.2391 77.0541C70.3734 77.2048 70.4648 77.3522 70.5133 77.4962L70.2239 77.65L69.9843 75.9447L71.4122 75.744L72.3728 82.5789C72.4546 83.1611 72.4389 83.6864 72.3257 84.1548C72.223 84.631 72.0313 85.0444 71.7507 85.3949C71.4713 85.7546 71.1117 86.0455 70.6716 86.2675C70.2329 86.4988 69.7224 86.6554 69.1401 86.7372ZM68.5818 82.3624C69.0347 82.2987 69.4218 82.1359 69.7431 81.874C70.0645 81.6121 70.2962 81.2826 70.4383 80.8856C70.5805 80.4886 70.6178 80.0498 70.5502 79.5692C70.4827 79.0886 70.3213 78.6778 70.066 78.3366C69.8186 77.985 69.5044 77.7275 69.1233 77.5643C68.7515 77.3998 68.3391 77.3494 67.8862 77.413C67.4426 77.4754 67.0607 77.6421 66.7407 77.9133C66.4286 78.1739 66.1975 78.508 66.0474 78.9155C65.9053 79.3125 65.8673 79.7467 65.9336 80.2181C65.9998 80.6894 66.1566 81.1009 66.404 81.4526C66.6593 81.7937 66.9728 82.0466 67.3447 82.2111C67.7258 82.3743 68.1382 82.4247 68.5818 82.3624ZM77.224 82.4909C76.6232 82.5753 76.0499 82.4862 75.504 82.2236C74.9674 81.9597 74.511 81.5621 74.1347 81.0306C73.7584 80.4991 73.5196 79.8729 73.4183 79.152C73.3156 78.4219 73.3726 77.7541 73.5891 77.1487C73.8136 76.5328 74.1573 76.0274 74.6201 75.6325C75.0923 75.2363 75.6472 74.9933 76.2849 74.9037C76.6639 74.8505 77.0182 74.8572 77.3481 74.924C77.6779 74.9907 77.9726 75.1095 78.2323 75.2804C78.4999 75.4407 78.7258 75.6398 78.91 75.8779C79.1035 76.1146 79.2395 76.3782 79.3181 76.6688L78.9836 76.6027L78.7186 74.7172L80.1605 74.5146L81.1834 81.793L79.7416 81.9957L79.498 80.2627L79.8171 80.1189C79.7967 80.3762 79.7156 80.6374 79.5738 80.9024C79.4399 81.1568 79.2519 81.3953 79.0099 81.6178C78.777 81.839 78.5067 82.0278 78.1988 82.1842C77.9001 82.3393 77.5752 82.4415 77.224 82.4909ZM77.4132 81.1212C77.8476 81.0601 78.2162 80.9 78.5191 80.6406C78.8219 80.3813 79.0398 80.0538 79.1727 79.6581C79.3135 79.2519 79.3502 78.8085 79.2826 78.3278C79.2164 77.8565 79.0602 77.4496 78.8142 77.1072C78.5774 76.7634 78.2777 76.5087 77.9151 76.3429C77.5525 76.177 77.154 76.1247 76.7196 76.1857C76.2944 76.2455 75.9304 76.405 75.6275 76.6643C75.3339 76.9224 75.1161 77.2499 74.9739 77.6469C74.841 78.0425 74.8077 78.4761 74.874 78.9474C74.9415 79.428 75.0943 79.8448 75.3324 80.1978C75.5785 80.5402 75.8782 80.795 76.2316 80.9621C76.5942 81.1279 76.988 81.181 77.4132 81.1212ZM86.85 84.2483C86.3324 84.321 85.8032 84.3106 85.2622 84.217C84.7318 84.1313 84.2913 83.9811 83.9407 83.7665L84.3116 82.5834C84.5159 82.696 84.75 82.7856 85.0139 82.8522C85.279 82.9281 85.5541 82.9742 85.8392 82.9907C86.1255 83.0165 86.4027 83.0105 86.6708 82.9728C87.1791 82.9014 87.5926 82.7584 87.9112 82.544C88.2297 82.3296 88.4541 82.0483 88.5843 81.7001C88.7144 81.352 88.7457 80.9376 88.6782 80.457L88.4814 79.0567L88.6475 79.1323C88.6416 79.4253 88.528 79.7241 88.3069 80.0285C88.0937 80.3223 87.8094 80.5791 87.4538 80.7987C87.0982 81.0183 86.7217 81.156 86.3243 81.2119C85.6311 81.3093 84.9891 81.2346 84.3984 80.9878C83.8156 80.7304 83.3274 80.3419 82.9339 79.8222C82.5391 79.2934 82.2904 78.6638 82.1878 77.9337C82.0852 77.2035 82.1468 76.5351 82.3725 75.9285C82.6063 75.3113 82.9684 74.8032 83.459 74.4044C83.9576 73.995 84.5442 73.743 85.2189 73.6481C85.4962 73.6092 85.7694 73.6085 86.0386 73.646C86.3065 73.6744 86.5604 73.7376 86.8004 73.8359C87.0391 73.9248 87.2567 74.0309 87.453 74.1541C87.6494 74.2773 87.8148 74.4143 87.9491 74.5651C88.0834 74.7159 88.1748 74.8632 88.2233 75.0072L87.9339 75.161L87.6942 73.4558L89.1222 73.2551L90.0827 80.0899C90.1646 80.6722 90.1489 81.1975 90.0356 81.6658C89.9329 82.1421 89.7412 82.5554 89.4606 82.9059C89.1813 83.2656 88.8216 83.5565 88.3815 83.7786C87.9428 84.0099 87.4323 84.1664 86.85 84.2483ZM86.2917 79.8734C86.7446 79.8098 87.1317 79.647 87.4531 79.385C87.7744 79.1231 88.0061 78.7936 88.1483 78.3967C88.2904 77.9997 88.3277 77.5609 88.2601 77.0803C88.1926 76.5997 88.0312 76.1888 87.7759 75.8477C87.5285 75.496 87.2143 75.2386 86.8332 75.0753C86.4614 74.9108 86.049 74.8604 85.5961 74.924C85.1525 74.9864 84.7706 75.1532 84.4506 75.4243C84.1385 75.685 83.9074 76.0191 83.7573 76.4266C83.6152 76.8236 83.5773 77.2577 83.6435 77.7291C83.7098 78.2005 83.8666 78.612 84.1139 78.9636C84.3692 79.3048 84.6828 79.5576 85.0546 79.7221C85.4357 79.8853 85.8481 79.9358 86.2917 79.8734ZM92.3496 80.2237L91.3267 72.9452L92.7547 72.7446L93.7776 80.023L92.3496 80.2237ZM91.7939 71.2396C91.4889 71.2825 91.2421 71.2371 91.0537 71.1033C90.8652 70.9696 90.7509 70.7594 90.7106 70.4729C90.673 70.2049 90.7256 69.976 90.8686 69.7863C91.0208 69.5952 91.2448 69.4789 91.5406 69.4373C91.8456 69.3945 92.0923 69.4399 92.2808 69.5737C92.4692 69.7074 92.5836 69.9175 92.6238 70.204C92.6615 70.4721 92.6042 70.7016 92.452 70.8927C92.309 71.0824 92.0896 71.1981 91.7939 71.2396ZM95.9392 79.7192L94.9163 72.4408L96.3443 72.2401L96.5547 73.7374L96.3285 73.9388C96.3755 73.6023 96.5142 73.2812 96.7445 72.9755C96.9736 72.6606 97.2613 72.3939 97.6076 72.1756C97.9526 71.9481 98.3192 71.807 98.7074 71.7524C99.262 71.6745 99.7397 71.7205 100.141 71.8903C100.54 72.0509 100.864 72.3401 101.111 72.7578C101.358 73.1754 101.529 73.7216 101.624 74.3963L102.247 78.8327L100.819 79.0334L100.209 74.694C100.151 74.2781 100.047 73.9439 99.8989 73.6915C99.749 73.4298 99.5501 73.2551 99.3021 73.1674C99.0529 73.0705 98.7586 73.0553 98.4192 73.1219C98.1419 73.1608 97.8942 73.2428 97.6762 73.3677C97.4568 73.4833 97.2703 73.6321 97.1168 73.8139C96.9725 73.9944 96.8645 74.1981 96.7927 74.4249C96.7289 74.6412 96.7138 74.8696 96.7476 75.1099L97.3672 79.5185L96.6601 79.6179C96.54 79.6348 96.4198 79.6517 96.2997 79.6686C96.1795 79.6855 96.0594 79.7023 95.9392 79.7192ZM107.857 81.2959C107.34 81.3687 106.81 81.3582 106.269 81.2646C105.739 81.1789 105.298 81.0288 104.948 80.8141L105.319 79.631C105.523 79.7436 105.757 79.8333 106.021 79.8999C106.286 79.9757 106.561 80.0219 106.846 80.0384C107.133 80.0641 107.41 80.0581 107.678 80.0204C108.186 79.949 108.6 79.8061 108.918 79.5916C109.237 79.3772 109.461 79.0959 109.591 78.7478C109.722 78.3996 109.753 77.9852 109.685 77.5046L109.489 76.1043L109.655 76.18C109.649 76.473 109.535 76.7717 109.314 77.0761C109.101 77.3699 108.817 77.6267 108.461 77.8463C108.105 78.0659 107.729 78.2037 107.332 78.2595C106.638 78.3569 105.996 78.2822 105.406 78.0354C104.823 77.778 104.335 77.3895 103.941 76.8699C103.546 76.341 103.298 75.7115 103.195 74.9813C103.092 74.2512 103.154 73.5827 103.38 72.9761C103.613 72.3589 103.976 71.8509 104.466 71.452C104.965 71.0427 105.551 70.7906 106.226 70.6958C106.503 70.6568 106.777 70.6561 107.046 70.6937C107.314 70.722 107.568 70.7853 107.808 70.8835C108.046 70.9725 108.264 71.0785 108.46 71.2017C108.657 71.3249 108.822 71.4619 108.956 71.6127C109.091 71.7635 109.182 71.9109 109.23 72.0549L108.941 72.2086L108.701 70.5034L110.129 70.3027L111.09 77.1375C111.172 77.7198 111.156 78.2451 111.043 78.7134C110.94 79.1897 110.748 79.6031 110.468 79.9535C110.188 80.3132 109.829 80.6041 109.389 80.8262C108.95 81.0575 108.439 81.2141 107.857 81.2959ZM107.299 76.921C107.752 76.8574 108.139 76.6946 108.46 76.4327C108.782 76.1707 109.013 75.8413 109.155 75.4443C109.298 75.0473 109.335 74.6085 109.267 74.1279C109.2 73.6473 109.038 73.2364 108.783 72.8953C108.536 72.5436 108.222 72.2862 107.84 72.123C107.469 71.9585 107.056 71.908 106.603 71.9717C106.16 72.034 105.778 72.2008 105.458 72.472C105.146 72.7326 104.915 73.0667 104.765 73.4742C104.622 73.8712 104.584 74.3054 104.651 74.7767C104.717 75.2481 104.874 75.6596 105.121 76.0113C105.376 76.3524 105.69 76.6052 106.062 76.7697C106.443 76.933 106.855 76.9834 107.299 76.921Z" fill="#562F00"/>
<defs>
<filter id="filter0_dd_282_3138" x="52.4835" y="13.4173" width="40.3455" height="41.1521" filterUnits="userSpaceOnUse" color-interpolation-filters="sRGB">
<feFlood flood-opacity="0" result="BackgroundImageFix"/>
<feColorMatrix in="SourceAlpha" type="matrix" values="0 0 0 0 0 0 0 0 0 0 0 0 0 0 0 0 0 0 127 0" result="hardAlpha"/>
<feMorphology radius="0.888889" operator="dilate" in="SourceAlpha" result="effect1_dropShadow_282_3138"/>
<feOffset dy="0.888889"/>
<feGaussianBlur stdDeviation="1.33333"/>
<feColorMatrix type="matrix" values="0 0 0 0 0 0 0 0 0 0 0 0 0 0 0 0 0 0 0.15 0"/>
<feBlend mode="normal" in2="BackgroundImageFix" result="effect1_dropShadow_282_3138"/>
<feColorMatrix in="SourceAlpha" type="matrix" values="0 0 0 0 0 0 0 0 0 0 0 0 0 0 0 0 0 0 127 0" result="hardAlpha"/>
<feOffset dy="0.888889"/>
<feGaussianBlur stdDeviation="0.888889"/>
<feColorMatrix type="matrix" values="0 0 0 0 0 0 0 0 0 0 0 0 0 0 0 0 0 0 0.3 0"/>
<feBlend mode="normal" in2="effect1_dropShadow_282_3138" result="effect2_dropShadow_282_3138"/>
<feBlend mode="normal" in="SourceGraphic" in2="effect2_dropShadow_282_3138" result="shape"/>
</filter>
</defs>
</svg>
