<svg width="55" height="55" viewBox="0 0 55 55" fill="none" xmlns="http://www.w3.org/2000/svg">
<rect y="6.68031" width="48" height="48" rx="4" transform="rotate(-8 0 6.68031)" fill="#F2E9DC"/>
<g filter="url(#filter0_dd_282_3139)">
<path d="M11.2619 29.3332C10.0321 20.5826 16.1289 12.4919 24.8794 11.2621C33.63 10.0323 41.7207 16.1291 42.9505 24.8797C44.1803 33.6302 38.0835 41.7209 29.333 42.9507C20.5824 44.1805 12.4917 38.0838 11.2619 29.3332Z" fill="#F2E9DC"/>
<path d="M16.4154 13.0758C16.5276 12.4398 17.3881 12.3188 17.6712 12.8993L19.1074 15.8439C19.234 16.1035 19.5133 16.252 19.7993 16.2118L23.0437 15.7559C23.6832 15.666 24.0641 16.447 23.5995 16.8956L21.2428 19.1715C21.0351 19.3721 20.9801 19.6837 21.1068 19.9433L22.5429 22.8879C22.826 23.4683 22.201 24.072 21.6308 23.7688L18.7381 22.2307C18.4831 22.0951 18.1697 22.1391 17.962 22.3398L15.6053 24.6156C15.1407 25.0642 14.3735 24.6563 14.4856 24.0203L15.0545 20.7939C15.1047 20.5094 14.966 20.225 14.711 20.0895L11.8183 18.5514C11.2481 18.2482 11.399 17.3924 12.0385 17.3026L15.2828 16.8466C15.5688 16.8064 15.7964 16.5866 15.8465 16.3022L16.4154 13.0758Z" fill="#F2E9DC"/>
<path d="M32.2597 10.849C32.3719 10.213 33.2324 10.0921 33.5155 10.6725L34.9517 13.6171C35.0783 13.8767 35.3576 14.0253 35.6436 13.9851L38.8879 13.5291C39.5275 13.4392 39.9084 14.2202 39.4438 14.6689L37.0871 16.9447C36.8794 17.1453 36.8244 17.4569 36.951 17.7165L38.3872 20.6611C38.6703 21.2416 38.0453 21.8452 37.4751 21.542L34.5824 20.0039C34.3273 19.8683 34.014 19.9124 33.8063 20.113L31.4496 22.3888C30.985 22.8374 30.2178 22.4295 30.3299 21.7935L30.8988 18.5671C30.949 18.2827 30.8103 17.9983 30.5553 17.8627L27.6626 16.3246C27.0923 16.0214 27.2432 15.1657 27.8828 15.0758L31.1271 14.6198C31.4131 14.5796 31.6407 14.3599 31.6908 14.0754L32.2597 10.849Z" fill="#F2E9DC"/>
<path d="M36.958 28.4147L18.0856 31.0671C17.5713 31.1393 17.3334 31.7476 17.6645 32.1477C20.3577 35.4021 22.35 37.1999 28.4052 36.3489C33.92 35.5739 36.0087 33.5403 37.6627 29.2896C37.8436 28.8246 37.4521 28.3453 36.958 28.4147Z" fill="#F2E9DC"/>
<path d="M11.2619 29.3332C10.0321 20.5826 16.1289 12.4919 24.8794 11.2621C33.63 10.0323 41.7207 16.1291 42.9505 24.8797C44.1803 33.6302 38.0835 41.7209 29.333 42.9507C20.5824 44.1805 12.4917 38.0838 11.2619 29.3332Z" stroke="#F2E9DC" stroke-width="1.23077"/>
<path d="M16.4154 13.0758C16.5276 12.4398 17.3881 12.3188 17.6712 12.8993L19.1074 15.8439C19.234 16.1035 19.5133 16.252 19.7993 16.2118L23.0437 15.7559C23.6832 15.666 24.0641 16.447 23.5995 16.8956L21.2428 19.1715C21.0351 19.3721 20.9801 19.6837 21.1068 19.9433L22.5429 22.8879C22.826 23.4683 22.201 24.072 21.6308 23.7688L18.7381 22.2307C18.4831 22.0951 18.1697 22.1391 17.962 22.3398L15.6053 24.6156C15.1407 25.0642 14.3735 24.6563 14.4856 24.0203L15.0545 20.7939C15.1047 20.5094 14.966 20.225 14.711 20.0895L11.8183 18.5514C11.2481 18.2482 11.399 17.3924 12.0385 17.3026L15.2828 16.8466C15.5688 16.8064 15.7964 16.5866 15.8465 16.3022L16.4154 13.0758Z" stroke="#F2E9DC" stroke-width="1.23077"/>
<path d="M32.2597 10.849C32.3719 10.213 33.2324 10.0921 33.5155 10.6725L34.9517 13.6171C35.0783 13.8767 35.3576 14.0253 35.6436 13.9851L38.8879 13.5291C39.5275 13.4392 39.9084 14.2202 39.4438 14.6689L37.0871 16.9447C36.8794 17.1453 36.8244 17.4569 36.951 17.7165L38.3872 20.6611C38.6703 21.2416 38.0453 21.8452 37.4751 21.542L34.5824 20.0039C34.3273 19.8683 34.014 19.9124 33.8063 20.113L31.4496 22.3888C30.985 22.8374 30.2178 22.4295 30.3299 21.7935L30.8988 18.5671C30.949 18.2827 30.8103 17.9983 30.5553 17.8627L27.6626 16.3246C27.0923 16.0214 27.2432 15.1657 27.8828 15.0758L31.1271 14.6198C31.4131 14.5796 31.6407 14.3599 31.6908 14.0754L32.2597 10.849Z" stroke="#F2E9DC" stroke-width="1.23077"/>
<path d="M36.958 28.4147L18.0856 31.0671C17.5713 31.1393 17.3334 31.7476 17.6645 32.1477C20.3577 35.4021 22.35 37.1999 28.4052 36.3489C33.92 35.5739 36.0087 33.5403 37.6627 29.2896C37.8436 28.8246 37.4521 28.3453 36.958 28.4147Z" stroke="#F2E9DC" stroke-width="1.23077"/>
</g>
<path d="M12.4813 29.1632C11.3461 21.0858 16.9738 13.6175 25.0513 12.4823C33.1287 11.347 40.597 16.9748 41.7323 25.0523C42.8675 33.1297 37.2397 40.598 29.1622 41.7332C21.0848 42.8685 13.6165 37.2407 12.4813 29.1632Z" fill="#FFCE99"/>
<path d="M17.2384 14.1564C17.3419 13.5693 18.1362 13.4577 18.3975 13.9935L19.7232 16.7116C19.8401 16.9512 20.0979 17.0883 20.362 17.0512L23.3567 16.6303C23.947 16.5474 24.2987 17.2683 23.8698 17.6824L21.6944 19.7832C21.5026 19.9684 21.4519 20.256 21.5688 20.4956L22.8945 23.2137C23.1558 23.7495 22.5789 24.3067 22.0525 24.0268L19.3823 22.6071C19.1469 22.4819 18.8577 22.5226 18.6659 22.7078L16.4905 24.8085C16.0617 25.2226 15.3535 24.8461 15.457 24.259L15.9821 21.2808C16.0284 21.0182 15.9004 20.7557 15.665 20.6305L12.9948 19.2108C12.4685 18.9309 12.6077 18.141 13.1981 18.058L16.1928 17.6372C16.4568 17.6 16.6669 17.3972 16.7132 17.1346L17.2384 14.1564Z" fill="#FE7500"/>
<path d="M31.8639 12.1009C31.9674 11.5138 32.7617 11.4022 33.023 11.938L34.3487 14.6561C34.4656 14.8957 34.7234 15.0328 34.9875 14.9957L37.9822 14.5749C38.5725 14.4919 38.9241 15.2128 38.4953 15.6269L36.3199 17.7277C36.1281 17.9129 36.0774 18.2005 36.1943 18.4401L37.52 21.1582C37.7813 21.694 37.2044 22.2512 36.678 21.9714L34.0078 20.5516C33.7724 20.4264 33.4832 20.4671 33.2914 20.6523L31.116 22.753C30.6872 23.1672 29.979 22.7906 30.0825 22.2035L30.6076 19.2253C30.6539 18.9627 30.5259 18.7002 30.2905 18.5751L27.6203 17.1553C27.094 16.8754 27.2332 16.0855 27.8236 16.0026L30.8183 15.5817C31.0823 15.5446 31.2924 15.3417 31.3387 15.0791L31.8639 12.1009Z" fill="#FE7500"/>
<path d="M36.2007 28.3154L18.78 30.7637C18.3053 30.8304 18.0857 31.3919 18.3913 31.7612C20.8774 34.7653 22.7164 36.4248 28.3058 35.6393C33.3964 34.9238 35.3244 33.0467 36.8512 29.123C37.0182 28.6937 36.6568 28.2513 36.2007 28.3154Z" fill="#FE7500"/>
<path d="M12.4813 29.1632C11.3461 21.0858 16.9738 13.6175 25.0513 12.4823C33.1287 11.347 40.597 16.9748 41.7323 25.0523C42.8675 33.1297 37.2397 40.598 29.1622 41.7332C21.0848 42.8685 13.6165 37.2407 12.4813 29.1632Z" stroke="#FE7500" stroke-width="1.23077"/>
<path d="M17.2384 14.1564C17.3419 13.5693 18.1362 13.4577 18.3975 13.9935L19.7232 16.7116C19.8401 16.9512 20.0979 17.0883 20.362 17.0512L23.3567 16.6303C23.947 16.5474 24.2987 17.2683 23.8698 17.6824L21.6944 19.7832C21.5026 19.9684 21.4519 20.256 21.5688 20.4956L22.8945 23.2137C23.1558 23.7495 22.5789 24.3067 22.0525 24.0268L19.3823 22.6071C19.1469 22.4819 18.8577 22.5226 18.6659 22.7078L16.4905 24.8085C16.0617 25.2226 15.3535 24.8461 15.457 24.259L15.9821 21.2808C16.0284 21.0182 15.9004 20.7557 15.665 20.6305L12.9948 19.2108C12.4685 18.9309 12.6077 18.141 13.1981 18.058L16.1928 17.6372C16.4568 17.6 16.6669 17.3972 16.7132 17.1346L17.2384 14.1564Z" stroke="#FE7500" stroke-width="1.23077"/>
<path d="M31.8639 12.1009C31.9674 11.5138 32.7617 11.4022 33.023 11.938L34.3487 14.6561C34.4656 14.8957 34.7234 15.0328 34.9875 14.9957L37.9822 14.5749C38.5725 14.4919 38.9241 15.2128 38.4953 15.6269L36.3199 17.7277C36.1281 17.9129 36.0774 18.2005 36.1943 18.4401L37.52 21.1582C37.7813 21.694 37.2044 22.2512 36.678 21.9714L34.0078 20.5516C33.7724 20.4264 33.4832 20.4671 33.2914 20.6523L31.116 22.753C30.6872 23.1672 29.979 22.7906 30.0825 22.2035L30.6076 19.2253C30.6539 18.9627 30.5259 18.7002 30.2905 18.5751L27.6203 17.1553C27.094 16.8754 27.2332 16.0855 27.8236 16.0026L30.8183 15.5817C31.0823 15.5446 31.2924 15.3417 31.3387 15.0791L31.8639 12.1009Z" stroke="#FE7500" stroke-width="1.23077"/>
<path d="M36.2007 28.3154L18.78 30.7637C18.3053 30.8304 18.0857 31.3919 18.3913 31.7612C20.8774 34.7653 22.7164 36.4248 28.3058 35.6393C33.3964 34.9238 35.3244 33.0467 36.8512 29.123C37.0182 28.6937 36.6568 28.2513 36.2007 28.3154Z" stroke="#FE7500" stroke-width="1.23077"/>
<defs>
<filter id="filter0_dd_282_3139" x="6.93273" y="7.0156" width="40.3455" height="41.1521" filterUnits="userSpaceOnUse" color-interpolation-filters="sRGB">
<feFlood flood-opacity="0" result="BackgroundImageFix"/>
<feColorMatrix in="SourceAlpha" type="matrix" values="0 0 0 0 0 0 0 0 0 0 0 0 0 0 0 0 0 0 127 0" result="hardAlpha"/>
<feMorphology radius="0.888889" operator="dilate" in="SourceAlpha" result="effect1_dropShadow_282_3139"/>
<feOffset dy="0.888889"/>
<feGaussianBlur stdDeviation="1.33333"/>
<feColorMatrix type="matrix" values="0 0 0 0 0 0 0 0 0 0 0 0 0 0 0 0 0 0 0.15 0"/>
<feBlend mode="normal" in2="BackgroundImageFix" result="effect1_dropShadow_282_3139"/>
<feColorMatrix in="SourceAlpha" type="matrix" values="0 0 0 0 0 0 0 0 0 0 0 0 0 0 0 0 0 0 127 0" result="hardAlpha"/>
<feOffset dy="0.888889"/>
<feGaussianBlur stdDeviation="0.888889"/>
<feColorMatrix type="matrix" values="0 0 0 0 0 0 0 0 0 0 0 0 0 0 0 0 0 0 0.3 0"/>
<feBlend mode="normal" in2="effect1_dropShadow_282_3139" result="effect2_dropShadow_282_3139"/>
<feBlend mode="normal" in="SourceGraphic" in2="effect2_dropShadow_282_3139" result="shape"/>
</filter>
</defs>
</svg>
