<svg width="151" height="101" viewBox="0 0 151 101" fill="none" xmlns="http://www.w3.org/2000/svg">
<rect x="56.9648" y="6.40234" width="48" height="48" rx="4" transform="rotate(8 56.9648 6.40234)" fill="#F2E9DC"/>
<g filter="url(#filter0_dd_282_3145)">
<path d="M73.2871 19.0844C71.0094 22.4154 69.1609 23.7387 66.1606 24.4867C65.7325 24.5934 65.6089 25.1652 65.9602 25.4321C68.6699 27.4905 70.137 29.3728 71.4573 32.7906C71.6087 33.1825 72.1496 33.242 72.3813 32.8916C74.1127 30.2725 75.6462 28.8775 78.8043 27.6735C79.1976 27.5236 79.2632 26.9794 78.9181 26.7385C75.9045 24.6348 74.8453 22.6787 74.2522 19.2952C74.1715 18.8345 73.551 18.6984 73.2871 19.0844Z" fill="#F2E9DC"/>
<path d="M87.726 33.6454C86.5883 35.2533 85.4141 36.0012 83.6219 36.5128C83.2012 36.6329 83.0883 37.2002 83.4352 37.4666C84.9924 38.6625 85.9021 39.7592 86.6304 41.462C86.798 41.854 87.3551 41.9085 87.5948 41.5559C88.5805 40.1059 89.5743 39.2931 91.2709 38.5972C91.6832 38.4281 91.7273 37.8286 91.3531 37.5867C89.8282 36.6011 89.199 35.5048 88.7187 33.8062C88.595 33.3688 87.9885 33.2744 87.726 33.6454Z" fill="#F2E9DC"/>
<path d="M73.396 40.1135C72.591 41.2005 71.934 41.8802 70.7771 42.2695C70.3513 42.4128 70.2092 43.0104 70.5476 43.3058C71.372 44.0254 71.9589 44.8015 72.5525 46.0704C72.7331 46.4564 73.2897 46.4859 73.5202 46.1274C74.1634 45.127 74.8381 44.5158 75.882 44.1033C76.3442 43.9208 76.4179 43.1746 76.007 42.8951C75.1104 42.2852 74.6611 41.5398 74.3413 40.3114C74.2295 39.8819 73.6601 39.7568 73.396 40.1135Z" fill="#F2E9DC"/>
<path d="M72.6692 39.4216C73.4634 38.4985 74.9125 38.8829 75.2762 39.9507L75.3092 40.0599L75.4164 40.4339C75.6759 41.2497 76.0065 41.6855 76.5693 42.0683C77.1569 42.468 77.3182 43.1325 77.267 43.6367C77.2157 44.1412 76.9213 44.7676 76.2493 45.0331C75.4338 45.3552 74.9128 45.811 74.3617 46.6681C73.7211 47.6646 72.1726 47.6185 71.6466 46.4946C71.1039 45.3346 70.5964 44.676 69.8903 44.0595C69.3934 43.6258 69.2891 43.0011 69.4011 42.5085C69.5124 42.0198 69.8651 41.5216 70.4584 41.3219L70.7671 41.2025C71.4546 40.9009 71.9249 40.4198 72.5925 39.5183L72.6692 39.4216ZM86.9801 32.9746C87.7399 32.0546 89.3292 32.2926 89.6806 33.5336C89.906 34.331 90.1486 34.9193 90.4754 35.4076C90.7961 35.8868 91.2289 36.3162 91.8955 36.7472C92.9139 37.4054 92.8471 39.0314 91.6505 39.5223C90.1327 40.1449 89.2955 40.8327 88.4219 42.1177C87.7367 43.1257 86.1891 42.9719 85.7114 41.8551C85.0602 40.3326 84.2683 39.3668 82.8263 38.2594C81.8139 37.4819 82.154 35.8926 83.3469 35.5516L83.6393 35.4635C85.0644 35.0146 85.9786 34.3842 86.9098 33.0683L86.9801 32.9746ZM72.5373 18.4186C73.3454 17.4132 75.0101 17.8282 75.2371 19.1225C75.5223 20.7498 75.906 21.9498 76.5316 22.9768C77.1545 23.9995 78.0601 24.9195 79.4909 25.9183C80.4897 26.6157 80.3087 28.1696 79.1603 28.6074C77.6537 29.1818 76.5853 29.7829 75.6972 30.5211C74.8061 31.2617 74.0521 32.1779 73.2155 33.4434C72.5335 34.4747 70.9676 34.2965 70.5249 33.151C69.2718 29.9073 67.9182 28.1755 65.3551 26.2284C64.3168 25.4395 64.6991 23.8209 65.9186 23.5168L66.4311 23.3788C67.5925 23.044 68.5291 22.6035 69.3955 21.9542C70.3967 21.2039 71.3564 20.137 72.4618 18.5204L72.5373 18.4186Z" stroke="#F2E9DC" stroke-width="2"/>
</g>
<path d="M73.2871 19.0844C71.0094 22.4154 69.1609 23.7387 66.1606 24.4867C65.7325 24.5934 65.6089 25.1652 65.9602 25.4321C68.6699 27.4905 70.137 29.3728 71.4573 32.7906C71.6087 33.1825 72.1496 33.242 72.3813 32.8916C74.1127 30.2725 75.6462 28.8775 78.8043 27.6735C79.1976 27.5236 79.2632 26.9794 78.9181 26.7385C75.9045 24.6348 74.8453 22.6787 74.2522 19.2952C74.1715 18.8345 73.551 18.6984 73.2871 19.0844Z" fill="#FECE99"/>
<path d="M87.726 33.6454C86.5883 35.2533 85.4141 36.0012 83.6219 36.5128C83.2012 36.6329 83.0883 37.2002 83.4352 37.4666C84.9924 38.6625 85.9021 39.7592 86.6304 41.462C86.798 41.854 87.3551 41.9085 87.5948 41.5559C88.5805 40.1059 89.5743 39.2931 91.2709 38.5972C91.6832 38.4281 91.7273 37.8286 91.3531 37.5867C89.8282 36.6011 89.199 35.5048 88.7187 33.8062C88.595 33.3688 87.9885 33.2744 87.726 33.6454Z" fill="#FECE99"/>
<path d="M73.396 40.1135C72.591 41.2005 71.934 41.8802 70.7771 42.2695C70.3513 42.4128 70.2092 43.0104 70.5476 43.3058C71.372 44.0254 71.9589 44.8015 72.5525 46.0704C72.7331 46.4564 73.2897 46.4859 73.5202 46.1274C74.1634 45.127 74.8381 44.5158 75.882 44.1033C76.3442 43.9208 76.4179 43.1746 76.007 42.8951C75.1104 42.2852 74.6611 41.5398 74.3413 40.3114C74.2295 39.8819 73.6601 39.7568 73.396 40.1135Z" fill="#FECE99"/>
<path d="M73.2871 19.0844C71.0094 22.4154 69.1609 23.7387 66.1606 24.4867C65.7325 24.5934 65.6089 25.1652 65.9602 25.4321C68.6699 27.4905 70.137 29.3728 71.4573 32.7906C71.6087 33.1825 72.1496 33.242 72.3813 32.8916C74.1127 30.2725 75.6462 28.8775 78.8043 27.6735C79.1976 27.5236 79.2632 26.9794 78.9181 26.7385C75.9045 24.6348 74.8453 22.6787 74.2522 19.2952C74.1715 18.8345 73.551 18.6984 73.2871 19.0844Z" stroke="#FE7500" stroke-width="1.23"/>
<path d="M87.726 33.6454C86.5883 35.2533 85.4141 36.0012 83.6219 36.5128C83.2012 36.6329 83.0883 37.2002 83.4352 37.4666C84.9924 38.6625 85.9021 39.7592 86.6304 41.462C86.798 41.854 87.3551 41.9085 87.5948 41.5559C88.5805 40.1059 89.5743 39.2931 91.2709 38.5972C91.6832 38.4281 91.7273 37.8286 91.3531 37.5867C89.8282 36.6011 89.199 35.5048 88.7187 33.8062C88.595 33.3688 87.9885 33.2744 87.726 33.6454Z" stroke="#FE7500" stroke-width="1.23"/>
<path d="M73.396 40.1135C72.591 41.2005 71.934 41.8802 70.7771 42.2695C70.3513 42.4128 70.2092 43.0104 70.5476 43.3058C71.372 44.0254 71.9589 44.8015 72.5525 46.0704C72.7331 46.4564 73.2897 46.4859 73.5202 46.1274C74.1634 45.127 74.8381 44.5158 75.882 44.1033C76.3442 43.9208 76.4179 43.1746 76.007 42.8951C75.1104 42.2852 74.6611 41.5398 74.3413 40.3114C74.2295 39.8819 73.6601 39.7568 73.396 40.1135Z" stroke="#FE7500" stroke-width="1.23"/>
<rect x="3.89844" y="53.4746" width="140" height="28" rx="8" transform="rotate(8 3.89844 53.4746)" fill="#FECE99"/>
<path d="M46.5874 78.6601L47.9513 68.9555L49.4209 69.162L52.1476 75.4123L51.4425 75.2991L55.8259 70.0622L57.2123 70.257L55.8484 79.9617L54.3511 79.7512L54.9103 75.7723C55.0272 74.9405 55.1509 74.1945 55.2814 73.5342C55.4212 72.8752 55.588 72.2248 55.7819 71.5828L55.9039 72.1231L52.0393 76.5847L51.1243 76.4561L48.7285 71.1712L48.9609 70.6242C48.9756 71.2578 48.9552 71.9052 48.9 72.5666C48.8553 73.2201 48.7699 73.9951 48.6439 74.8916L48.0847 78.8705L46.5874 78.6601ZM61.4279 80.8872C60.7163 80.7872 60.1013 80.5358 59.5829 80.1331C59.0751 79.7224 58.6991 79.2124 58.4549 78.6032C58.2119 77.9847 58.1417 77.3103 58.2444 76.5802C58.347 75.85 58.5996 75.2258 59.0024 74.7075C59.4064 74.1799 59.9084 73.7933 60.5084 73.5478C61.119 73.2943 61.7801 73.2175 62.4918 73.3176C63.1942 73.4163 63.7993 73.671 64.3071 74.0816C64.8254 74.4844 65.2061 74.995 65.449 75.6135C65.6933 76.2227 65.7641 76.8924 65.6615 77.6226C65.5589 78.3528 65.3055 78.9816 64.9015 79.5092C64.4988 80.0275 63.9921 80.4134 63.3816 80.6669C62.7816 80.9125 62.1304 80.9859 61.4279 80.8872ZM61.6111 79.584C62.0455 79.645 62.4486 79.5933 62.8204 79.4288C63.1936 79.255 63.5032 78.9969 63.7492 78.6545C63.9966 78.3028 64.1488 77.8907 64.2058 77.418C64.2826 76.9387 64.2499 76.5006 64.1078 76.1036C63.9669 75.6974 63.7405 75.3639 63.4284 75.1033C63.1163 74.8427 62.743 74.6818 62.3086 74.6208C61.8742 74.5597 61.4658 74.6154 61.0834 74.7879C60.7116 74.9524 60.402 75.2105 60.1546 75.5621C59.9086 75.9046 59.7571 76.3121 59.7001 76.7848C59.6246 77.2548 59.6572 77.693 59.7981 78.0992C59.9402 78.4962 60.1667 78.8296 60.4775 79.0995C60.7988 79.3614 61.1767 79.5229 61.6111 79.584ZM69.6884 82.0481C69.023 81.9546 68.4496 81.7091 67.9682 81.3115C67.4974 80.9061 67.1491 80.4 66.9233 79.7933C66.6989 79.1774 66.6379 78.5044 66.7405 77.7743C66.8432 77.0441 67.082 76.4179 67.457 75.8957C67.8425 75.3655 68.3168 74.975 68.8798 74.7243C69.4442 74.4643 70.0545 74.3804 70.7107 74.4727C71.0711 74.5233 71.4093 74.6321 71.7251 74.799C72.0515 74.958 72.3344 75.158 72.5739 75.399C72.8146 75.6307 72.9921 75.8772 73.1062 76.1383C73.2308 76.3914 73.2763 76.6381 73.2425 76.8784L72.8227 76.8477L73.5066 71.9815L74.9346 72.1822L73.4927 82.4414L72.0648 82.2407L72.3083 80.5077L72.5856 80.5467C72.5544 80.7685 72.4493 80.98 72.2702 81.181C72.0925 81.3728 71.8658 81.5436 71.5903 81.6933C71.324 81.8444 71.0213 81.9527 70.6823 82.0181C70.3524 82.0849 70.0212 82.0949 69.6884 82.0481ZM70.0559 80.8415C70.4903 80.9026 70.8895 80.8456 71.2534 80.6705C71.6173 80.4954 71.9183 80.2314 72.1564 79.8785C72.4051 79.5176 72.5638 79.0922 72.6326 78.6023C72.7015 78.1125 72.6655 77.6644 72.5247 77.2582C72.3944 76.8441 72.1784 76.5027 71.8769 76.2341C71.5753 75.9655 71.2073 75.8007 70.773 75.7397C70.3386 75.6786 69.9394 75.7356 69.5755 75.9107C69.2116 76.0857 68.9053 76.3537 68.6567 76.7146C68.4186 77.0676 68.2651 77.489 68.1962 77.9788C68.1274 78.4687 68.1581 78.9207 68.2884 79.3349C68.4293 79.7411 68.6504 80.0785 68.952 80.3471C69.2536 80.6156 69.6215 80.7805 70.0559 80.8415ZM78.8023 83.329C78.0537 83.2238 77.4103 82.9731 76.8722 82.577C76.3446 82.173 75.9534 81.6704 75.6986 81.069C75.4531 80.469 75.381 79.8086 75.4823 79.0876C75.5628 78.5146 75.7286 78.0054 75.9797 77.56C76.2308 77.1146 76.5421 76.7437 76.9137 76.4472C77.2958 76.1427 77.7263 75.9299 78.2051 75.8087C78.6945 75.6795 79.2073 75.6526 79.7433 75.728C80.2147 75.7942 80.6407 75.9483 81.0214 76.1904C81.4034 76.4231 81.7202 76.7174 81.9718 77.0732C82.2326 77.4303 82.4111 77.8371 82.5072 78.2936C82.6138 78.7421 82.6267 79.2199 82.546 79.727L82.4465 80.335L76.4989 79.4991L76.3398 78.3175L81.3723 79.0248L81.1313 79.2312L81.178 78.8985C81.1932 78.5896 81.1298 78.3027 80.988 78.0377C80.8462 77.7727 80.651 77.552 80.4024 77.3757C80.1539 77.1994 79.8725 77.0892 79.5582 77.045C79.0591 76.9749 78.625 77.0128 78.2557 77.1589C77.8878 77.2957 77.59 77.5366 77.3624 77.8816C77.1362 78.2174 76.9854 78.6533 76.91 79.1893C76.8386 79.6977 76.8825 80.1563 77.0418 80.5651C77.2025 80.9647 77.4626 81.2934 77.8222 81.5513C78.1818 81.8092 78.6158 81.9738 79.1241 82.0453C79.4846 82.0959 79.8257 82.0826 80.1476 82.0053C80.4787 81.9293 80.8466 81.7596 81.2512 81.496L81.8299 82.6093C81.5769 82.8 81.277 82.9558 80.9301 83.0767C80.5925 83.1989 80.2363 83.2855 79.8616 83.3365C79.4974 83.3795 79.1443 83.377 78.8023 83.329ZM83.5152 83.85L84.5381 76.5715L85.9799 76.7741L85.6585 79.0616L85.5978 78.4876C85.7488 78.1507 85.9646 77.8558 86.2452 77.6031C86.535 77.3517 86.8487 77.1648 87.1863 77.0426C87.5332 76.9217 87.8776 76.8853 88.2196 76.9334C88.3767 76.9555 88.5226 76.9901 88.6574 77.0373C88.8014 77.0858 88.9123 77.1344 88.9903 77.1831L88.3978 78.6832C88.2934 78.6214 88.1738 78.5669 88.039 78.5197C87.9149 78.4645 87.7881 78.4279 87.6587 78.4097C87.4091 78.3746 87.1617 78.3917 86.9163 78.4609C86.6815 78.5221 86.464 78.6282 86.2637 78.7791C86.0739 78.9221 85.912 79.102 85.7778 79.3188C85.645 79.5263 85.5597 79.7641 85.5221 80.0321L84.957 84.0526L83.5152 83.85ZM89.0735 84.6311L90.0964 77.3527L91.5243 77.5533L91.3139 79.0506L91.041 79.1819C91.1789 78.8714 91.4007 78.601 91.7064 78.3706C92.0134 78.131 92.3634 77.954 92.7565 77.8396C93.1509 77.716 93.5422 77.6814 93.9303 77.736C94.4849 77.8139 94.9314 77.9898 95.27 78.2635C95.6098 78.5281 95.8409 78.8952 95.9634 79.3648C96.0859 79.8344 96.0998 80.4066 96.005 81.0813L95.3815 85.5177L93.9535 85.317L94.5634 80.9776C94.6218 80.5617 94.6144 80.2119 94.5412 79.9283C94.4692 79.6355 94.3262 79.4127 94.112 79.2601C93.8991 79.0982 93.6204 79.0025 93.2758 78.9729C92.9985 78.9339 92.7379 78.9444 92.4938 79.0044C92.2511 79.0551 92.0309 79.1467 91.8332 79.2791C91.6447 79.4129 91.4847 79.5789 91.3532 79.7772C91.2322 79.9675 91.1548 80.1828 91.121 80.4231L90.5014 84.8318L89.7944 84.7324C89.6742 84.7156 89.5541 84.6987 89.4339 84.6818C89.3138 84.6649 89.1936 84.648 89.0735 84.6311Z" fill="#562F00"/>
<defs>
<filter id="filter0_dd_282_3145" x="59.75" y="13.8574" width="37.8555" height="39.5215" filterUnits="userSpaceOnUse" color-interpolation-filters="sRGB">
<feFlood flood-opacity="0" result="BackgroundImageFix"/>
<feColorMatrix in="SourceAlpha" type="matrix" values="0 0 0 0 0 0 0 0 0 0 0 0 0 0 0 0 0 0 127 0" result="hardAlpha"/>
<feMorphology radius="1" operator="dilate" in="SourceAlpha" result="effect1_dropShadow_282_3145"/>
<feOffset dy="1"/>
<feGaussianBlur stdDeviation="1.5"/>
<feColorMatrix type="matrix" values="0 0 0 0 0 0 0 0 0 0 0 0 0 0 0 0 0 0 0.15 0"/>
<feBlend mode="normal" in2="BackgroundImageFix" result="effect1_dropShadow_282_3145"/>
<feColorMatrix in="SourceAlpha" type="matrix" values="0 0 0 0 0 0 0 0 0 0 0 0 0 0 0 0 0 0 127 0" result="hardAlpha"/>
<feOffset dy="1"/>
<feGaussianBlur stdDeviation="1"/>
<feColorMatrix type="matrix" values="0 0 0 0 0 0 0 0 0 0 0 0 0 0 0 0 0 0 0.3 0"/>
<feBlend mode="normal" in2="effect1_dropShadow_282_3145" result="effect2_dropShadow_282_3145"/>
<feBlend mode="normal" in="SourceGraphic" in2="effect2_dropShadow_282_3145" result="shape"/>
</filter>
</defs>
</svg>
