<svg width="55" height="55" viewBox="0 0 55 55" fill="none" xmlns="http://www.w3.org/2000/svg">
<rect x="6.68031" width="48" height="48" rx="4" transform="rotate(8 6.68031 0)" fill="#F2E9DC"/>
<g filter="url(#filter0_dd_282_3146)">
<path d="M23.0025 12.6821C20.7248 16.0131 18.8764 17.3363 15.876 18.0844C15.4479 18.1911 15.3244 18.7629 15.6757 19.0298C18.3854 21.0882 19.8524 22.9704 21.1728 26.3883C21.3242 26.7801 21.8651 26.8397 22.0967 26.4893C23.8282 23.8702 25.3616 22.4752 28.5198 21.2712C28.9131 21.1213 28.9787 20.577 28.6336 20.3362C25.6199 18.2324 24.5607 16.2763 23.9677 12.8928C23.887 12.4322 23.2665 12.296 23.0025 12.6821Z" fill="#F2E9DC"/>
<path d="M37.4415 27.243C36.3037 28.8509 35.1296 29.5988 33.3373 30.1105C32.9167 30.2306 32.8037 30.7979 33.1507 31.0643C34.7079 32.2601 35.6176 33.3569 36.3458 35.0596C36.5135 35.4517 37.0706 35.5061 37.3103 35.1535C38.296 33.7036 39.2898 32.8908 40.9864 32.1948C41.3986 32.0258 41.4427 31.4262 41.0685 31.1844C39.5437 30.1987 38.9144 29.1025 38.4341 27.4038C38.3104 26.9664 37.704 26.872 37.4415 27.243Z" fill="#F2E9DC"/>
<path d="M23.1114 33.7111C22.3064 34.7981 21.6495 35.4778 20.4926 35.8672C20.0668 36.0105 19.9246 36.608 20.2631 36.9034C21.0875 37.6231 21.6743 38.3991 22.268 39.6681C22.4485 40.054 23.0052 40.0835 23.2357 39.7251C23.8788 38.7246 24.5536 38.1134 25.5975 37.701C26.0597 37.5184 26.1334 36.7722 25.7225 36.4927C24.8259 35.8829 24.3765 35.1374 24.0568 33.909C23.945 33.4795 23.3756 33.3545 23.1114 33.7111Z" fill="#F2E9DC"/>
<path d="M22.3847 33.0193C23.1788 32.0961 24.6279 32.4806 24.9917 33.5484L25.0247 33.6575L25.1319 34.0316C25.3913 34.8474 25.722 35.2831 26.2848 35.6659C26.8723 36.0656 27.0337 36.7302 26.9824 37.2344C26.9312 37.7388 26.6368 38.3652 25.9647 38.6307C25.1493 38.9529 24.6283 39.4086 24.0772 40.2658C23.4365 41.2623 21.8881 41.2162 21.362 40.0923C20.8194 38.9323 20.3118 38.2736 19.6057 37.6571C19.1089 37.2235 19.0046 36.5987 19.1166 36.1062C19.2279 35.6175 19.5806 35.1192 20.1739 34.9195L20.4826 34.8002C21.17 34.4986 21.6403 34.0175 22.308 33.116L22.3847 33.0193ZM36.6956 26.5722C37.4554 25.6522 39.0447 25.8902 39.396 27.1313C39.6215 27.9286 39.8641 28.517 40.1908 29.0052C40.5116 29.4845 40.9444 29.9139 41.611 30.3448C42.6294 31.0031 42.5626 32.629 41.3659 33.1199C39.8482 33.7425 39.011 34.4304 38.1374 35.7154C37.4521 36.7234 35.9045 36.5696 35.4268 35.4528C34.7756 33.9303 33.9837 32.9645 32.5418 31.8571C31.5294 31.0796 31.8695 29.4903 33.0623 29.1493L33.3548 29.0612C34.7799 28.6122 35.694 27.9819 36.6253 26.6659L36.6956 26.5722ZM22.2527 12.0162C23.0608 11.0109 24.7256 11.4259 24.9525 12.7201C25.2378 14.3475 25.6215 15.5474 26.2471 16.5745C26.87 17.5971 27.7755 18.5172 29.2063 19.516C30.2051 20.2133 30.0242 21.7673 28.8757 22.2051C27.3692 22.7795 26.3008 23.3805 25.4126 24.1187C24.5216 24.8593 23.7676 25.7756 22.931 27.041C22.249 28.0724 20.6831 27.8941 20.2404 26.7487C18.9873 23.5049 17.6336 21.7731 15.0705 19.8261C14.0322 19.0371 14.4145 17.4186 15.6341 17.1144L16.1465 16.9764C17.3079 16.6417 18.2445 16.2011 19.111 15.5519C20.1122 14.8016 21.0718 13.7347 22.1773 12.1181L22.2527 12.0162Z" stroke="#F2E9DC" stroke-width="2"/>
</g>
<path d="M23.0025 12.6821C20.7248 16.0131 18.8764 17.3363 15.876 18.0844C15.4479 18.1911 15.3244 18.7629 15.6757 19.0298C18.3854 21.0882 19.8524 22.9704 21.1728 26.3883C21.3242 26.7801 21.8651 26.8397 22.0967 26.4893C23.8282 23.8702 25.3616 22.4752 28.5198 21.2712C28.9131 21.1213 28.9787 20.577 28.6336 20.3362C25.6199 18.2324 24.5607 16.2763 23.9677 12.8928C23.887 12.4322 23.2665 12.296 23.0025 12.6821Z" fill="#FECE99"/>
<path d="M37.4415 27.243C36.3037 28.8509 35.1296 29.5988 33.3373 30.1105C32.9167 30.2306 32.8037 30.7979 33.1507 31.0643C34.7079 32.2601 35.6176 33.3569 36.3458 35.0596C36.5135 35.4517 37.0706 35.5061 37.3103 35.1535C38.296 33.7036 39.2898 32.8908 40.9864 32.1948C41.3986 32.0258 41.4427 31.4262 41.0685 31.1844C39.5437 30.1987 38.9144 29.1025 38.4341 27.4038C38.3104 26.9664 37.704 26.872 37.4415 27.243Z" fill="#FECE99"/>
<path d="M23.1114 33.7111C22.3064 34.7981 21.6495 35.4778 20.4926 35.8672C20.0668 36.0105 19.9246 36.608 20.2631 36.9034C21.0875 37.6231 21.6743 38.3991 22.268 39.6681C22.4485 40.054 23.0052 40.0835 23.2357 39.7251C23.8788 38.7246 24.5536 38.1134 25.5975 37.701C26.0597 37.5184 26.1334 36.7722 25.7225 36.4927C24.8259 35.8829 24.3765 35.1374 24.0568 33.909C23.945 33.4795 23.3756 33.3545 23.1114 33.7111Z" fill="#FECE99"/>
<path d="M23.0025 12.6821C20.7248 16.0131 18.8764 17.3363 15.876 18.0844C15.4479 18.1911 15.3244 18.7629 15.6757 19.0298C18.3854 21.0882 19.8524 22.9704 21.1728 26.3883C21.3242 26.7801 21.8651 26.8397 22.0967 26.4893C23.8282 23.8702 25.3616 22.4752 28.5198 21.2712C28.9131 21.1213 28.9787 20.577 28.6336 20.3362C25.6199 18.2324 24.5607 16.2763 23.9677 12.8928C23.887 12.4322 23.2665 12.296 23.0025 12.6821Z" stroke="#FE7500" stroke-width="1.23"/>
<path d="M37.4415 27.243C36.3037 28.8509 35.1296 29.5988 33.3373 30.1105C32.9167 30.2306 32.8037 30.7979 33.1507 31.0643C34.7079 32.2601 35.6176 33.3569 36.3458 35.0596C36.5135 35.4517 37.0706 35.5061 37.3103 35.1535C38.296 33.7036 39.2898 32.8908 40.9864 32.1948C41.3986 32.0258 41.4427 31.4262 41.0685 31.1844C39.5437 30.1987 38.9144 29.1025 38.4341 27.4038C38.3104 26.9664 37.704 26.872 37.4415 27.243Z" stroke="#FE7500" stroke-width="1.23"/>
<path d="M23.1114 33.7111C22.3064 34.7981 21.6495 35.4778 20.4926 35.8672C20.0668 36.0105 19.9246 36.608 20.2631 36.9034C21.0875 37.6231 21.6743 38.3991 22.268 39.6681C22.4485 40.054 23.0052 40.0835 23.2357 39.7251C23.8788 38.7246 24.5536 38.1134 25.5975 37.701C26.0597 37.5184 26.1334 36.7722 25.7225 36.4927C24.8259 35.8829 24.3765 35.1374 24.0568 33.909C23.945 33.4795 23.3756 33.3545 23.1114 33.7111Z" stroke="#FE7500" stroke-width="1.23"/>
<defs>
<filter id="filter0_dd_282_3146" x="9.46547" y="7.45508" width="37.8555" height="39.5215" filterUnits="userSpaceOnUse" color-interpolation-filters="sRGB">
<feFlood flood-opacity="0" result="BackgroundImageFix"/>
<feColorMatrix in="SourceAlpha" type="matrix" values="0 0 0 0 0 0 0 0 0 0 0 0 0 0 0 0 0 0 127 0" result="hardAlpha"/>
<feMorphology radius="1" operator="dilate" in="SourceAlpha" result="effect1_dropShadow_282_3146"/>
<feOffset dy="1"/>
<feGaussianBlur stdDeviation="1.5"/>
<feColorMatrix type="matrix" values="0 0 0 0 0 0 0 0 0 0 0 0 0 0 0 0 0 0 0.15 0"/>
<feBlend mode="normal" in2="BackgroundImageFix" result="effect1_dropShadow_282_3146"/>
<feColorMatrix in="SourceAlpha" type="matrix" values="0 0 0 0 0 0 0 0 0 0 0 0 0 0 0 0 0 0 127 0" result="hardAlpha"/>
<feOffset dy="1"/>
<feGaussianBlur stdDeviation="1"/>
<feColorMatrix type="matrix" values="0 0 0 0 0 0 0 0 0 0 0 0 0 0 0 0 0 0 0.3 0"/>
<feBlend mode="normal" in2="effect1_dropShadow_282_3146" result="effect2_dropShadow_282_3146"/>
<feBlend mode="normal" in="SourceGraphic" in2="effect2_dropShadow_282_3146" result="shape"/>
</filter>
</defs>
</svg>
