<svg width="56" height="56" viewBox="0 0 56 56" fill="none" xmlns="http://www.w3.org/2000/svg">
<g filter="url(#filter0_dd_313_2953)">
<rect x="4" y="3" width="48" height="48" rx="2" fill="white"/>
<g clip-path="url(#clip0_313_2953)">
<rect x="6" y="5" width="44" height="44" rx="2" fill="#FFCE99"/>
<line x1="6.25" y1="9.75" x2="49.75" y2="9.75" stroke="#FE7500" stroke-width="0.5" stroke-linecap="round"/>
<line x1="6.25" y1="14.75" x2="49.75" y2="14.75" stroke="#FE7500" stroke-width="0.5" stroke-linecap="round"/>
<line x1="6.25" y1="19.75" x2="49.75" y2="19.75" stroke="#FE7500" stroke-width="0.5" stroke-linecap="round"/>
<line x1="6.25" y1="24.75" x2="49.75" y2="24.75" stroke="#FE7500" stroke-width="0.5" stroke-linecap="round"/>
<line x1="6.25" y1="29.75" x2="49.75" y2="29.75" stroke="#FE7500" stroke-width="0.5" stroke-linecap="round"/>
<line x1="6.25" y1="34.75" x2="49.75" y2="34.75" stroke="#FE7500" stroke-width="0.5" stroke-linecap="round"/>
<line x1="6.25" y1="39.75" x2="49.75" y2="39.75" stroke="#FE7500" stroke-width="0.5" stroke-linecap="round"/>
<line x1="6.25" y1="44.75" x2="49.75" y2="44.75" stroke="#FE7500" stroke-width="0.5" stroke-linecap="round"/>
<line x1="10.75" y1="48.75" x2="10.75" y2="5.25" stroke="#FE7500" stroke-width="0.5" stroke-linecap="round"/>
<line x1="15.75" y1="48.75" x2="15.75" y2="5.25" stroke="#FE7500" stroke-width="0.5" stroke-linecap="round"/>
<line x1="20.75" y1="48.75" x2="20.75" y2="5.25" stroke="#FE7500" stroke-width="0.5" stroke-linecap="round"/>
<line x1="25.75" y1="48.75" x2="25.75" y2="5.25" stroke="#FE7500" stroke-width="0.5" stroke-linecap="round"/>
<line x1="30.75" y1="48.75" x2="30.75" y2="5.25" stroke="#FE7500" stroke-width="0.5" stroke-linecap="round"/>
<line x1="35.75" y1="48.75" x2="35.75" y2="5.25" stroke="#FE7500" stroke-width="0.5" stroke-linecap="round"/>
<line x1="40.75" y1="48.75" x2="40.75" y2="5.25" stroke="#FE7500" stroke-width="0.5" stroke-linecap="round"/>
<line x1="45.75" y1="48.75" x2="45.75" y2="5.25" stroke="#FE7500" stroke-width="0.5" stroke-linecap="round"/>
<path fill-rule="evenodd" clip-rule="evenodd" d="M46.8523 12.0335C47.5213 11.8488 48.1398 12.4574 47.9656 13.1292L44.6297 25.9817C44.4552 26.6537 43.6186 26.8847 43.1238 26.3978L39.9754 23.2982C38.9566 24.5196 37.8202 25.6209 36.4041 26.6136C33.8815 28.3818 30.6319 29.6991 25.909 30.9573V30.9564C22.6342 31.8672 20.365 32.8291 18.3465 34.1732C16.3049 35.5327 14.4035 37.3608 11.9529 40.1673C11.1338 41.105 9.70915 41.2011 8.77127 40.3821C7.83365 39.5631 7.73753 38.1384 8.55643 37.2005C11.1078 34.2785 13.3161 32.1054 15.8465 30.4202C18.3952 28.723 21.1566 27.597 24.7264 26.6058L24.7371 26.6019L24.7488 26.5989C29.2615 25.3967 31.9232 24.2465 33.8152 22.9202C34.9428 22.1298 35.8531 21.2364 36.7469 20.1204L33.6609 17.0823C33.1667 16.5953 33.3847 15.7557 34.0535 15.5706L46.8523 12.0335Z" fill="white"/>
<path fill-rule="evenodd" clip-rule="evenodd" d="M44.7183 14.0257C45.3875 13.8408 46.006 14.4504 45.8316 15.1224L43.8696 22.682C43.6952 23.354 42.8585 23.5851 42.3638 23.098L40.0327 20.8031C38.7739 22.5424 37.4557 23.9936 35.6616 25.2513C33.3282 26.8871 30.2543 28.1544 25.5942 29.3959V29.3949C22.2274 30.3304 19.8092 31.3425 17.6304 32.7933C15.4422 34.2505 13.449 36.1827 10.9683 39.0238C10.6407 39.3986 10.0709 39.4369 9.69581 39.1097C9.32064 38.7821 9.28137 38.2115 9.6089 37.8363C12.1301 34.9489 14.2465 32.8798 16.6304 31.2923C18.8722 29.7994 21.3111 28.7588 24.479 27.8373L25.1216 27.6556L25.1314 27.6527C29.7068 26.4337 32.5444 25.2336 34.6255 23.7748C36.2768 22.6172 37.492 21.2682 38.7319 19.5228L36.7974 17.6185C36.303 17.1314 36.521 16.2918 37.1899 16.1068L44.7183 14.0257Z" fill="#FF7501"/>
</g>
</g>
<defs>
<filter id="filter0_dd_313_2953" x="0" y="0" width="56" height="56" filterUnits="userSpaceOnUse" color-interpolation-filters="sRGB">
<feFlood flood-opacity="0" result="BackgroundImageFix"/>
<feColorMatrix in="SourceAlpha" type="matrix" values="0 0 0 0 0 0 0 0 0 0 0 0 0 0 0 0 0 0 127 0" result="hardAlpha"/>
<feMorphology radius="1" operator="dilate" in="SourceAlpha" result="effect1_dropShadow_313_2953"/>
<feOffset dy="1"/>
<feGaussianBlur stdDeviation="1.5"/>
<feColorMatrix type="matrix" values="0 0 0 0 0 0 0 0 0 0 0 0 0 0 0 0 0 0 0.15 0"/>
<feBlend mode="normal" in2="BackgroundImageFix" result="effect1_dropShadow_313_2953"/>
<feColorMatrix in="SourceAlpha" type="matrix" values="0 0 0 0 0 0 0 0 0 0 0 0 0 0 0 0 0 0 127 0" result="hardAlpha"/>
<feOffset dy="1"/>
<feGaussianBlur stdDeviation="1"/>
<feColorMatrix type="matrix" values="0 0 0 0 0 0 0 0 0 0 0 0 0 0 0 0 0 0 0.3 0"/>
<feBlend mode="normal" in2="effect1_dropShadow_313_2953" result="effect2_dropShadow_313_2953"/>
<feBlend mode="normal" in="SourceGraphic" in2="effect2_dropShadow_313_2953" result="shape"/>
</filter>
<clipPath id="clip0_313_2953">
<rect x="6" y="5" width="44" height="44" rx="2" fill="white"/>
</clipPath>
</defs>
</svg>
