<svg width="60" height="60" viewBox="0 0 60 60" fill="none" xmlns="http://www.w3.org/2000/svg">
<g filter="url(#filter0_dd_311_2774)">
<mask id="path-1-outside-1_311_2774" maskUnits="userSpaceOnUse" x="21" y="25" width="21" height="9" fill="black">
<rect fill="white" x="21" y="25" width="21" height="9"/>
<path d="M22.0366 33L21.7066 32.18L23.8466 29.77C23.9599 29.65 24.0766 29.5133 24.1966 29.36C24.3233 29.2 24.4433 29.0367 24.5566 28.87C24.6699 28.7033 24.7599 28.54 24.8266 28.38C24.8999 28.2133 24.9366 28.0567 24.9366 27.91C24.9366 27.6967 24.8933 27.5167 24.8066 27.37C24.7266 27.2167 24.6066 27.1 24.4466 27.02C24.2933 26.94 24.1066 26.9 23.8866 26.9C23.6933 26.9 23.5033 26.9567 23.3166 27.07C23.1299 27.1833 22.9599 27.3433 22.8066 27.55C22.6533 27.7567 22.5333 27.9967 22.4466 28.27L21.6166 27.75C21.7299 27.3633 21.8999 27.0333 22.1266 26.76C22.3599 26.48 22.6366 26.2667 22.9566 26.12C23.2833 25.9733 23.6366 25.9 24.0166 25.9C24.4099 25.9 24.7599 25.9833 25.0666 26.15C25.3733 26.31 25.6133 26.5367 25.7866 26.83C25.9599 27.1167 26.0466 27.45 26.0466 27.83C26.0466 27.9833 26.0299 28.14 25.9966 28.3C25.9633 28.46 25.9099 28.6267 25.8366 28.8C25.7633 28.9667 25.6699 29.1433 25.5566 29.33C25.4433 29.51 25.3066 29.7 25.1466 29.9C24.9933 30.1 24.8166 30.31 24.6166 30.53L23.0266 32.26L22.8266 31.96H26.2666V33H22.0366ZM29.5911 33.1C29.0578 33.1 28.5978 32.9533 28.2111 32.66C27.8311 32.3667 27.5378 31.9533 27.3311 31.42C27.1244 30.88 27.0211 30.24 27.0211 29.5C27.0211 28.76 27.1244 28.1233 27.3311 27.59C27.5378 27.05 27.8311 26.6333 28.2111 26.34C28.5978 26.0467 29.0578 25.9 29.5911 25.9C30.1244 25.9 30.5844 26.0467 30.9711 26.34C31.3578 26.6333 31.6544 27.05 31.8611 27.59C32.0678 28.1233 32.1711 28.76 32.1711 29.5C32.1711 30.24 32.0678 30.88 31.8611 31.42C31.6544 31.9533 31.3578 32.3667 30.9711 32.66C30.5844 32.9533 30.1244 33.1 29.5911 33.1ZM29.5911 32.12C30.0778 32.12 30.4544 31.8933 30.7211 31.44C30.9878 30.98 31.1211 30.3333 31.1211 29.5C31.1211 28.6667 30.9878 28.0233 30.7211 27.57C30.4544 27.11 30.0778 26.88 29.5911 26.88C29.1044 26.88 28.7278 27.11 28.4611 27.57C28.1944 28.0233 28.0611 28.6667 28.0611 29.5C28.0611 30.3333 28.1944 30.98 28.4611 31.44C28.7278 31.8933 29.1044 32.12 29.5911 32.12ZM33.9013 33L38.5313 26H39.5613L34.8813 33H33.9013ZM34.5413 29.71C34.2413 29.71 33.9747 29.63 33.7413 29.47C33.5147 29.3033 33.3347 29.08 33.2013 28.8C33.0747 28.5133 33.0113 28.1867 33.0113 27.82C33.0113 27.4533 33.0747 27.1267 33.2013 26.84C33.3347 26.5467 33.518 26.32 33.7513 26.16C33.9847 25.9933 34.2513 25.91 34.5513 25.91C34.8513 25.91 35.1147 25.9933 35.3413 26.16C35.5747 26.32 35.7547 26.5467 35.8813 26.84C36.0147 27.1267 36.0813 27.4533 36.0813 27.82C36.0813 28.1733 36.0147 28.4933 35.8813 28.78C35.748 29.0667 35.5647 29.2933 35.3313 29.46C35.098 29.6267 34.8347 29.71 34.5413 29.71ZM34.5513 28.96C34.6913 28.96 34.8113 28.9133 34.9113 28.82C35.018 28.7267 35.098 28.5967 35.1513 28.43C35.2113 28.2567 35.2413 28.0533 35.2413 27.82C35.2413 27.5867 35.2113 27.3833 35.1513 27.21C35.098 27.0367 35.018 26.9033 34.9113 26.81C34.8113 26.7167 34.688 26.67 34.5413 26.67C34.4013 26.67 34.278 26.72 34.1713 26.82C34.0647 26.9133 33.9813 27.0467 33.9213 27.22C33.868 27.3867 33.8413 27.5867 33.8413 27.82C33.8413 28.0533 33.868 28.2567 33.9213 28.43C33.9813 28.5967 34.0647 28.7267 34.1713 28.82C34.278 28.9133 34.4047 28.96 34.5513 28.96ZM38.9713 33.09C38.6713 33.09 38.4047 33.0067 38.1713 32.84C37.9447 32.6733 37.7647 32.45 37.6313 32.17C37.498 31.8833 37.4313 31.56 37.4313 31.2C37.4313 30.8333 37.4947 30.5067 37.6213 30.22C37.7547 29.9267 37.938 29.7 38.1713 29.54C38.4047 29.3733 38.6713 29.29 38.9713 29.29C39.2713 29.29 39.5347 29.3733 39.7613 29.54C39.9947 29.7 40.1747 29.9267 40.3013 30.22C40.4347 30.5067 40.5013 30.8333 40.5013 31.2C40.5013 31.5533 40.4347 31.8733 40.3013 32.16C40.168 32.4467 39.9847 32.6733 39.7513 32.84C39.5247 33.0067 39.2647 33.09 38.9713 33.09ZM38.9713 32.35C39.1113 32.35 39.2347 32.3033 39.3413 32.21C39.448 32.11 39.528 31.9767 39.5813 31.81C39.6413 31.6367 39.6713 31.4333 39.6713 31.2C39.6713 30.9667 39.6413 30.7667 39.5813 30.6C39.528 30.4267 39.448 30.2933 39.3413 30.2C39.2347 30.1 39.1113 30.05 38.9713 30.05C38.8247 30.05 38.698 30.0967 38.5913 30.19C38.4847 30.2833 38.4013 30.4167 38.3413 30.59C38.288 30.7633 38.2613 30.9667 38.2613 31.2C38.2613 31.4333 38.288 31.6367 38.3413 31.81C38.4013 31.9767 38.4847 32.11 38.5913 32.21C38.698 32.3033 38.8247 32.35 38.9713 32.35Z"/>
</mask>
<path d="M22.0366 33L21.7066 32.18L23.8466 29.77C23.9599 29.65 24.0766 29.5133 24.1966 29.36C24.3233 29.2 24.4433 29.0367 24.5566 28.87C24.6699 28.7033 24.7599 28.54 24.8266 28.38C24.8999 28.2133 24.9366 28.0567 24.9366 27.91C24.9366 27.6967 24.8933 27.5167 24.8066 27.37C24.7266 27.2167 24.6066 27.1 24.4466 27.02C24.2933 26.94 24.1066 26.9 23.8866 26.9C23.6933 26.9 23.5033 26.9567 23.3166 27.07C23.1299 27.1833 22.9599 27.3433 22.8066 27.55C22.6533 27.7567 22.5333 27.9967 22.4466 28.27L21.6166 27.75C21.7299 27.3633 21.8999 27.0333 22.1266 26.76C22.3599 26.48 22.6366 26.2667 22.9566 26.12C23.2833 25.9733 23.6366 25.9 24.0166 25.9C24.4099 25.9 24.7599 25.9833 25.0666 26.15C25.3733 26.31 25.6133 26.5367 25.7866 26.83C25.9599 27.1167 26.0466 27.45 26.0466 27.83C26.0466 27.9833 26.0299 28.14 25.9966 28.3C25.9633 28.46 25.9099 28.6267 25.8366 28.8C25.7633 28.9667 25.6699 29.1433 25.5566 29.33C25.4433 29.51 25.3066 29.7 25.1466 29.9C24.9933 30.1 24.8166 30.31 24.6166 30.53L23.0266 32.26L22.8266 31.96H26.2666V33H22.0366ZM29.5911 33.1C29.0578 33.1 28.5978 32.9533 28.2111 32.66C27.8311 32.3667 27.5378 31.9533 27.3311 31.42C27.1244 30.88 27.0211 30.24 27.0211 29.5C27.0211 28.76 27.1244 28.1233 27.3311 27.59C27.5378 27.05 27.8311 26.6333 28.2111 26.34C28.5978 26.0467 29.0578 25.9 29.5911 25.9C30.1244 25.9 30.5844 26.0467 30.9711 26.34C31.3578 26.6333 31.6544 27.05 31.8611 27.59C32.0678 28.1233 32.1711 28.76 32.1711 29.5C32.1711 30.24 32.0678 30.88 31.8611 31.42C31.6544 31.9533 31.3578 32.3667 30.9711 32.66C30.5844 32.9533 30.1244 33.1 29.5911 33.1ZM29.5911 32.12C30.0778 32.12 30.4544 31.8933 30.7211 31.44C30.9878 30.98 31.1211 30.3333 31.1211 29.5C31.1211 28.6667 30.9878 28.0233 30.7211 27.57C30.4544 27.11 30.0778 26.88 29.5911 26.88C29.1044 26.88 28.7278 27.11 28.4611 27.57C28.1944 28.0233 28.0611 28.6667 28.0611 29.5C28.0611 30.3333 28.1944 30.98 28.4611 31.44C28.7278 31.8933 29.1044 32.12 29.5911 32.12ZM33.9013 33L38.5313 26H39.5613L34.8813 33H33.9013ZM34.5413 29.71C34.2413 29.71 33.9747 29.63 33.7413 29.47C33.5147 29.3033 33.3347 29.08 33.2013 28.8C33.0747 28.5133 33.0113 28.1867 33.0113 27.82C33.0113 27.4533 33.0747 27.1267 33.2013 26.84C33.3347 26.5467 33.518 26.32 33.7513 26.16C33.9847 25.9933 34.2513 25.91 34.5513 25.91C34.8513 25.91 35.1147 25.9933 35.3413 26.16C35.5747 26.32 35.7547 26.5467 35.8813 26.84C36.0147 27.1267 36.0813 27.4533 36.0813 27.82C36.0813 28.1733 36.0147 28.4933 35.8813 28.78C35.748 29.0667 35.5647 29.2933 35.3313 29.46C35.098 29.6267 34.8347 29.71 34.5413 29.71ZM34.5513 28.96C34.6913 28.96 34.8113 28.9133 34.9113 28.82C35.018 28.7267 35.098 28.5967 35.1513 28.43C35.2113 28.2567 35.2413 28.0533 35.2413 27.82C35.2413 27.5867 35.2113 27.3833 35.1513 27.21C35.098 27.0367 35.018 26.9033 34.9113 26.81C34.8113 26.7167 34.688 26.67 34.5413 26.67C34.4013 26.67 34.278 26.72 34.1713 26.82C34.0647 26.9133 33.9813 27.0467 33.9213 27.22C33.868 27.3867 33.8413 27.5867 33.8413 27.82C33.8413 28.0533 33.868 28.2567 33.9213 28.43C33.9813 28.5967 34.0647 28.7267 34.1713 28.82C34.278 28.9133 34.4047 28.96 34.5513 28.96ZM38.9713 33.09C38.6713 33.09 38.4047 33.0067 38.1713 32.84C37.9447 32.6733 37.7647 32.45 37.6313 32.17C37.498 31.8833 37.4313 31.56 37.4313 31.2C37.4313 30.8333 37.4947 30.5067 37.6213 30.22C37.7547 29.9267 37.938 29.7 38.1713 29.54C38.4047 29.3733 38.6713 29.29 38.9713 29.29C39.2713 29.29 39.5347 29.3733 39.7613 29.54C39.9947 29.7 40.1747 29.9267 40.3013 30.22C40.4347 30.5067 40.5013 30.8333 40.5013 31.2C40.5013 31.5533 40.4347 31.8733 40.3013 32.16C40.168 32.4467 39.9847 32.6733 39.7513 32.84C39.5247 33.0067 39.2647 33.09 38.9713 33.09ZM38.9713 32.35C39.1113 32.35 39.2347 32.3033 39.3413 32.21C39.448 32.11 39.528 31.9767 39.5813 31.81C39.6413 31.6367 39.6713 31.4333 39.6713 31.2C39.6713 30.9667 39.6413 30.7667 39.5813 30.6C39.528 30.4267 39.448 30.2933 39.3413 30.2C39.2347 30.1 39.1113 30.05 38.9713 30.05C38.8247 30.05 38.698 30.0967 38.5913 30.19C38.4847 30.2833 38.4013 30.4167 38.3413 30.59C38.288 30.7633 38.2613 30.9667 38.2613 31.2C38.2613 31.4333 38.288 31.6367 38.3413 31.81C38.4013 31.9767 38.4847 32.11 38.5913 32.21C38.698 32.3033 38.8247 32.35 38.9713 32.35Z" fill="white"/>
<path d="M22.0366 33L21.5727 33.1867L21.6988 33.5H22.0366V33ZM21.7066 32.18L21.3327 31.848L21.1272 32.0795L21.2427 32.3667L21.7066 32.18ZM23.8466 29.77L23.4831 29.4267L23.4778 29.4323L23.4727 29.438L23.8466 29.77ZM24.1966 29.36L23.8046 29.0496L23.8028 29.0518L24.1966 29.36ZM24.5566 28.87L24.9701 29.1512L24.9701 29.1512L24.5566 28.87ZM24.8266 28.38L24.3688 28.1786L24.3651 28.1877L24.8266 28.38ZM24.8066 27.37L24.3633 27.6013L24.3694 27.613L24.3761 27.6244L24.8066 27.37ZM24.4466 27.02L24.2153 27.4634L24.223 27.4672L24.4466 27.02ZM23.3166 27.07L23.0571 26.6426L23.0571 26.6426L23.3166 27.07ZM22.4466 28.27L22.1811 28.6937L22.7281 29.0364L22.9232 28.4211L22.4466 28.27ZM21.6166 27.75L21.1368 27.6094L21.0303 27.9727L21.3511 28.1737L21.6166 27.75ZM22.1266 26.76L21.7425 26.4399L21.7417 26.4408L22.1266 26.76ZM22.9566 26.12L22.7518 25.6639L22.7483 25.6655L22.9566 26.12ZM25.0666 26.15L24.8278 26.5894L24.8353 26.5933L25.0666 26.15ZM25.7866 26.83L25.3561 27.0844L25.3587 27.0887L25.7866 26.83ZM25.9966 28.3L25.5071 28.198V28.198L25.9966 28.3ZM25.8366 28.8L26.2943 29.0014L26.2971 28.9948L25.8366 28.8ZM25.5566 29.33L25.9798 29.5964L25.984 29.5895L25.5566 29.33ZM25.1466 29.9L24.7561 29.5876L24.7498 29.5958L25.1466 29.9ZM24.6166 30.53L24.9847 30.8683L24.9866 30.8663L24.6166 30.53ZM23.0266 32.26L22.6106 32.5373L22.9638 33.0672L23.3947 32.5983L23.0266 32.26ZM22.8266 31.96V31.46H21.8923L22.4106 32.2374L22.8266 31.96ZM26.2666 31.96H26.7666V31.46H26.2666V31.96ZM26.2666 33V33.5H26.7666V33H26.2666ZM22.0366 33L22.5004 32.8133L22.1704 31.9933L21.7066 32.18L21.2427 32.3667L21.5727 33.1867L22.0366 33ZM21.7066 32.18L22.0805 32.512L24.2205 30.102L23.8466 29.77L23.4727 29.438L21.3327 31.848L21.7066 32.18ZM23.8466 29.77L24.2101 30.1133C24.3357 29.9803 24.4625 29.8316 24.5903 29.6682L24.1966 29.36L23.8028 29.0518C23.6907 29.1951 23.5841 29.3197 23.4831 29.4267L23.8466 29.77ZM24.1966 29.36L24.5886 29.6704C24.7227 29.501 24.8498 29.3279 24.9701 29.1512L24.5566 28.87L24.1431 28.5888C24.0367 28.7454 23.9238 28.899 23.8046 29.0496L24.1966 29.36ZM24.5566 28.87L24.9701 29.1512C25.0994 28.961 25.2066 28.768 25.2881 28.5723L24.8266 28.38L24.3651 28.1877C24.3133 28.312 24.2405 28.4457 24.1431 28.5888L24.5566 28.87ZM24.8266 28.38L25.2843 28.5814C25.379 28.3661 25.4366 28.1406 25.4366 27.91H24.9366H24.4366C24.4366 27.9727 24.4209 28.0605 24.3689 28.1786L24.8266 28.38ZM24.9366 27.91H25.4366C25.4366 27.6295 25.3794 27.3565 25.2371 27.1156L24.8066 27.37L24.3761 27.6244C24.4071 27.6768 24.4366 27.7638 24.4366 27.91H24.9366ZM24.8066 27.37L25.2499 27.1387C25.1195 26.8887 24.9209 26.6981 24.6702 26.5728L24.4466 27.02L24.223 27.4672C24.2923 27.5019 24.3337 27.5446 24.3633 27.6013L24.8066 27.37ZM24.4466 27.02L24.6779 26.5767C24.4364 26.4507 24.1658 26.4 23.8866 26.4V26.9V27.4C24.0474 27.4 24.1502 27.4293 24.2153 27.4633L24.4466 27.02ZM23.8866 26.9V26.4C23.5903 26.4 23.3116 26.4881 23.0571 26.6426L23.3166 27.07L23.5761 27.4974C23.6949 27.4253 23.7962 27.4 23.8866 27.4V26.9ZM23.3166 27.07L23.0571 26.6426C22.8062 26.7949 22.5902 27.0026 22.405 27.2521L22.8066 27.55L23.2081 27.8479C23.3297 27.6841 23.4536 27.5717 23.5761 27.4974L23.3166 27.07ZM22.8066 27.55L22.405 27.2521C22.2152 27.508 22.0715 27.7988 21.97 28.1189L22.4466 28.27L22.9232 28.4211C22.995 28.1946 23.0913 28.0054 23.2081 27.8479L22.8066 27.55ZM22.4466 28.27L22.7121 27.8463L21.8821 27.3263L21.6166 27.75L21.3511 28.1737L22.1811 28.6937L22.4466 28.27ZM21.6166 27.75L22.0964 27.8906C22.1932 27.5605 22.3338 27.2935 22.5115 27.0792L22.1266 26.76L21.7417 26.4408C21.4661 26.7732 21.2667 27.1661 21.1368 27.6094L21.6166 27.75ZM22.1266 26.76L22.5107 27.0801C22.698 26.8554 22.9153 26.689 23.1649 26.5745L22.9566 26.12L22.7483 25.6655C22.3579 25.8444 22.0219 26.1046 21.7425 26.4399L22.1266 26.76ZM22.9566 26.12L23.1614 26.5761C23.4198 26.4601 23.7028 26.4 24.0166 26.4V25.9V25.4C23.5704 25.4 23.1468 25.4865 22.7518 25.6639L22.9566 26.12ZM24.0166 25.9V26.4C24.3373 26.4 24.6033 26.4673 24.8278 26.5893L25.0666 26.15L25.3054 25.7107C24.9165 25.4994 24.4826 25.4 24.0166 25.4V25.9ZM25.0666 26.15L24.8353 26.5933C25.0606 26.7108 25.231 26.8726 25.3561 27.0844L25.7866 26.83L26.2171 26.5756C25.9955 26.2007 25.6859 25.9092 25.2979 25.7067L25.0666 26.15ZM25.7866 26.83L25.3587 27.0887C25.4788 27.2873 25.5466 27.5287 25.5466 27.83H26.0466H26.5466C26.5466 27.3713 26.4411 26.9461 26.2145 26.5713L25.7866 26.83ZM26.0466 27.83H25.5466C25.5466 27.9469 25.5339 28.0694 25.5071 28.198L25.9966 28.3L26.4861 28.402C26.5259 28.2106 26.5466 28.0198 26.5466 27.83H26.0466ZM25.9966 28.3L25.5071 28.198C25.4813 28.3219 25.4386 28.4574 25.3761 28.6052L25.8366 28.8L26.2971 28.9948C26.3812 28.796 26.4452 28.5981 26.4861 28.402L25.9966 28.3ZM25.8366 28.8L25.3789 28.5986C25.3159 28.7418 25.2333 28.899 25.1292 29.0705L25.5566 29.33L25.984 29.5895C26.1065 29.3877 26.2106 29.1915 26.2943 29.0014L25.8366 28.8ZM25.5566 29.33L25.1335 29.0636C25.0319 29.2249 24.9067 29.3995 24.7562 29.5877L25.1466 29.9L25.537 30.2123C25.7065 30.0005 25.8546 29.7951 25.9797 29.5964L25.5566 29.33ZM25.1466 29.9L24.7498 29.5958C24.6063 29.783 24.4389 29.9822 24.2466 30.1937L24.6166 30.53L24.9866 30.8663C25.1943 30.6378 25.3802 30.417 25.5434 30.2042L25.1466 29.9ZM24.6166 30.53L24.2485 30.1917L22.6585 31.9217L23.0266 32.26L23.3947 32.5983L24.9847 30.8683L24.6166 30.53ZM23.0266 32.26L23.4426 31.9826L23.2426 31.6826L22.8266 31.96L22.4106 32.2374L22.6106 32.5373L23.0266 32.26ZM22.8266 31.96V32.46H26.2666V31.96V31.46H22.8266V31.96ZM26.2666 31.96H25.7666V33H26.2666H26.7666V31.96H26.2666ZM26.2666 33V32.5H22.0366V33V33.5H26.2666V33ZM28.2111 32.66L27.9056 33.0558L27.9089 33.0583L28.2111 32.66ZM27.3311 31.42L26.8641 31.5987L26.8649 31.6007L27.3311 31.42ZM27.3311 27.59L27.7973 27.7707L27.7981 27.7687L27.3311 27.59ZM28.2111 26.34L27.9089 25.9416L27.9056 25.9442L28.2111 26.34ZM30.9711 26.34L30.6689 26.7383V26.7383L30.9711 26.34ZM31.8611 27.59L31.3941 27.7687L31.3949 27.7707L31.8611 27.59ZM31.8611 31.42L32.3273 31.6007L32.3281 31.5987L31.8611 31.42ZM30.9711 32.66L30.6689 32.2617V32.2617L30.9711 32.66ZM30.7211 31.44L31.1521 31.6935L31.1537 31.6908L30.7211 31.44ZM30.7211 27.57L30.2885 27.8208L30.2901 27.8235L30.7211 27.57ZM28.4611 27.57L28.8921 27.8235L28.8937 27.8208L28.4611 27.57ZM28.4611 31.44L28.0285 31.6908L28.0301 31.6935L28.4611 31.44ZM29.5911 33.1V32.6C29.1555 32.6 28.8044 32.4825 28.5133 32.2617L28.2111 32.66L27.9089 33.0583C28.3912 33.4242 28.9601 33.6 29.5911 33.6V33.1ZM28.2111 32.66L28.5166 32.2642C28.2216 32.0364 27.9774 31.7041 27.7973 31.2393L27.3311 31.42L26.8649 31.6007C27.0981 32.2026 27.4406 32.6969 27.9056 33.0558L28.2111 32.66ZM27.3311 31.42L27.7981 31.2413C27.6184 30.7718 27.5211 30.1952 27.5211 29.5H27.0211H26.5211C26.5211 30.2848 26.6305 30.9882 26.8641 31.5987L27.3311 31.42ZM27.0211 29.5H27.5211C27.5211 28.8045 27.6185 28.2322 27.7973 27.7707L27.3311 27.59L26.8649 27.4093C26.6304 28.0145 26.5211 28.7155 26.5211 29.5H27.0211ZM27.3311 27.59L27.7981 27.7687C27.9786 27.2969 28.223 26.9625 28.5166 26.7358L28.2111 26.34L27.9056 25.9442C27.4392 26.3042 27.0969 26.8031 26.8641 27.4113L27.3311 27.59ZM28.2111 26.34L28.5133 26.7383C28.8044 26.5175 29.1555 26.4 29.5911 26.4V25.9V25.4C28.9601 25.4 28.3912 25.5758 27.9089 25.9417L28.2111 26.34ZM29.5911 25.9V26.4C30.0267 26.4 30.3779 26.5175 30.6689 26.7383L30.9711 26.34L31.2733 25.9417C30.791 25.5758 30.2222 25.4 29.5911 25.4V25.9ZM30.9711 26.34L30.6689 26.7383C30.9681 26.9653 31.2144 27.299 31.3941 27.7687L31.8611 27.59L32.3281 27.4113C32.0945 26.801 31.7475 26.3014 31.2733 25.9417L30.9711 26.34ZM31.8611 27.59L31.3949 27.7707C31.5737 28.2322 31.6711 28.8045 31.6711 29.5H32.1711H32.6711C32.6711 28.7155 32.5618 28.0145 32.3273 27.4093L31.8611 27.59ZM32.1711 29.5H31.6711C31.6711 30.1952 31.5738 30.7718 31.3941 31.2413L31.8611 31.42L32.3281 31.5987C32.5617 30.9882 32.6711 30.2848 32.6711 29.5H32.1711ZM31.8611 31.42L31.3949 31.2393C31.2156 31.7019 30.9695 32.0336 30.6689 32.2617L30.9711 32.66L31.2733 33.0583C31.746 32.6997 32.0933 32.2047 32.3273 31.6007L31.8611 31.42ZM30.9711 32.66L30.6689 32.2617C30.3779 32.4825 30.0267 32.6 29.5911 32.6V33.1V33.6C30.2222 33.6 30.791 33.4242 31.2733 33.0583L30.9711 32.66ZM29.5911 32.12V32.62C30.2717 32.62 30.8044 32.2846 31.1521 31.6935L30.7211 31.44L30.2901 31.1865C30.1045 31.5021 29.8839 31.62 29.5911 31.62V32.12ZM30.7211 31.44L31.1537 31.6908C31.4828 31.1231 31.6211 30.3759 31.6211 29.5H31.1211H30.6211C30.6211 30.2907 30.4928 30.8369 30.2885 31.1892L30.7211 31.44ZM31.1211 29.5H31.6211C31.6211 28.6248 31.483 27.8791 31.1521 27.3165L30.7211 27.57L30.2901 27.8235C30.4925 28.1675 30.6211 28.7085 30.6211 29.5H31.1211ZM30.7211 27.57L31.1537 27.3192C30.8076 26.7223 30.2753 26.38 29.5911 26.38V26.88V27.38C29.8803 27.38 30.1013 27.4977 30.2885 27.8208L30.7211 27.57ZM29.5911 26.88V26.38C28.907 26.38 28.3746 26.7223 28.0285 27.3192L28.4611 27.57L28.8937 27.8208C29.081 27.4977 29.3019 27.38 29.5911 27.38V26.88ZM28.4611 27.57L28.0301 27.3165C27.6992 27.8791 27.5611 28.6248 27.5611 29.5H28.0611H28.5611C28.5611 28.7085 28.6897 28.1675 28.8921 27.8235L28.4611 27.57ZM28.0611 29.5H27.5611C27.5611 30.3759 27.6994 31.1231 28.0285 31.6908L28.4611 31.44L28.8937 31.1892C28.6895 30.8369 28.5611 30.2907 28.5611 29.5H28.0611ZM28.4611 31.44L28.0301 31.6935C28.3778 32.2846 28.9106 32.62 29.5911 32.62V32.12V31.62C29.2983 31.62 29.0777 31.5021 28.8921 31.1865L28.4611 31.44ZM33.9013 33L33.4843 32.7242L32.9711 33.5H33.9013V33ZM38.5313 26V25.5H38.2626L38.1143 25.7242L38.5313 26ZM39.5613 26L39.977 26.2779L40.4971 25.5H39.5613V26ZM34.8813 33V33.5H35.1485L35.297 33.2779L34.8813 33ZM33.7413 29.47L33.4451 29.8728L33.4518 29.8777L33.4586 29.8824L33.7413 29.47ZM33.2013 28.8L32.744 29.0021L32.7469 29.0086L32.7499 29.015L33.2013 28.8ZM33.2013 26.84L32.7461 26.6331L32.744 26.6379L33.2013 26.84ZM33.7513 26.16L34.0341 26.5724L34.0419 26.5669L33.7513 26.16ZM35.3413 26.16L35.0451 26.5628L35.0518 26.5677L35.0586 26.5724L35.3413 26.16ZM35.8813 26.84L35.4221 27.0383L35.428 27.0509L35.8813 26.84ZM35.8813 28.78L36.3347 28.9909V28.9909L35.8813 28.78ZM35.3313 29.46L35.6219 29.8669V29.8669L35.3313 29.46ZM34.9113 28.82L34.5821 28.4437L34.576 28.449L34.5702 28.4545L34.9113 28.82ZM35.1513 28.43L34.6787 28.2664L34.6751 28.2776L35.1513 28.43ZM35.1513 27.21L34.6734 27.357L34.676 27.3653L34.6788 27.3736L35.1513 27.21ZM34.9113 26.81L34.5702 27.1755L34.576 27.181L34.5821 27.1863L34.9113 26.81ZM34.1713 26.82L34.5006 27.1963L34.507 27.1906L34.5133 27.1848L34.1713 26.82ZM33.9213 27.22L33.4487 27.0564L33.4451 27.0676L33.9213 27.22ZM33.9213 28.43L33.4434 28.577L33.4469 28.5883L33.4509 28.5994L33.9213 28.43ZM38.1713 32.84L37.8751 33.2429L37.8807 33.2469L38.1713 32.84ZM37.6313 32.17L37.1779 32.3809L37.1799 32.385L37.6313 32.17ZM37.6213 30.22L37.1661 30.0131L37.164 30.0179L37.6213 30.22ZM38.1713 29.54L38.4541 29.9524L38.4619 29.9469L38.1713 29.54ZM39.7613 29.54L39.4651 29.9428L39.4718 29.9477L39.4786 29.9524L39.7613 29.54ZM40.3013 30.22L39.8421 30.4183L39.848 30.4309L40.3013 30.22ZM40.3013 32.16L40.7547 32.3709V32.3709L40.3013 32.16ZM39.7513 32.84L39.4607 32.4331L39.4551 32.4372L39.7513 32.84ZM39.3413 32.21L39.6706 32.5863L39.677 32.5806L39.6833 32.5748L39.3413 32.21ZM39.5813 31.81L39.1087 31.6464L39.1051 31.6576L39.5813 31.81ZM39.5813 30.6L39.1034 30.747L39.1069 30.7583L39.1109 30.7694L39.5813 30.6ZM39.3413 30.2L38.9994 30.5648L39.0056 30.5706L39.0121 30.5763L39.3413 30.2ZM38.5913 30.19L38.9206 30.5663L38.9206 30.5663L38.5913 30.19ZM38.3413 30.59L37.8688 30.4264L37.866 30.4347L37.8634 30.443L38.3413 30.59ZM38.3413 31.81L37.8634 31.957L37.8669 31.9683L37.8709 31.9794L38.3413 31.81ZM38.5913 32.21L38.2494 32.5748L38.2556 32.5806L38.2621 32.5863L38.5913 32.21ZM33.9013 33L34.3184 33.2758L38.9484 26.2758L38.5313 26L38.1143 25.7242L33.4843 32.7242L33.9013 33ZM38.5313 26V26.5H39.5613V26V25.5H38.5313V26ZM39.5613 26L39.1457 25.7221L34.4657 32.7221L34.8813 33L35.297 33.2779L39.977 26.2779L39.5613 26ZM34.8813 33V32.5H33.9013V33V33.5H34.8813V33ZM34.5413 29.71V29.21C34.3358 29.21 34.169 29.157 34.0241 29.0576L33.7413 29.47L33.4586 29.8824C33.7803 30.103 34.1468 30.21 34.5413 30.21V29.71ZM33.7413 29.47L34.0375 29.0672C33.8839 28.9542 33.7543 28.7983 33.6528 28.585L33.2013 28.8L32.7499 29.015C32.915 29.3617 33.1454 29.6524 33.4451 29.8728L33.7413 29.47ZM33.2013 28.8L33.6587 28.5979C33.5645 28.3848 33.5113 28.1288 33.5113 27.82H33.0113H32.5113C32.5113 28.2446 32.5848 28.6419 32.744 29.0021L33.2013 28.8ZM33.0113 27.82H33.5113C33.5113 27.5112 33.5645 27.2552 33.6587 27.0421L33.2013 26.84L32.744 26.6379C32.5848 26.9981 32.5113 27.3954 32.5113 27.82H33.0113ZM33.2013 26.84L33.6565 27.0469C33.7575 26.8247 33.8859 26.674 34.0341 26.5724L33.7513 26.16L33.4686 25.7476C33.1501 25.966 32.9118 26.2686 32.7461 26.6331L33.2013 26.84ZM33.7513 26.16L34.0419 26.5669C34.1864 26.4637 34.3504 26.41 34.5513 26.41V25.91V25.41C34.1522 25.41 33.7829 25.523 33.4607 25.7531L33.7513 26.16ZM34.5513 25.91V26.41C34.7523 26.41 34.9102 26.4636 35.0451 26.5628L35.3413 26.16L35.6375 25.7572C35.3191 25.5231 34.9504 25.41 34.5513 25.41V25.91ZM35.3413 26.16L35.0586 26.5724C35.2044 26.6724 35.328 26.82 35.4223 27.0382L35.8813 26.84L36.3404 26.6418C36.1813 26.2734 35.9449 25.9676 35.6241 25.7476L35.3413 26.16ZM35.8813 26.84L35.428 27.0509C35.526 27.2617 35.5813 27.5146 35.5813 27.82H36.0813H36.5813C36.5813 27.3921 36.5033 26.9916 36.3347 26.6291L35.8813 26.84ZM36.0813 27.82H35.5813C35.5813 28.1091 35.5271 28.3559 35.428 28.5691L35.8813 28.78L36.3347 28.9909C36.5022 28.6308 36.5813 28.2376 36.5813 27.82H36.0813ZM35.8813 28.78L35.428 28.5691C35.3272 28.7857 35.1967 28.9417 35.0407 29.0531L35.3313 29.46L35.6219 29.8669C35.9326 29.645 36.1688 29.3476 36.3347 28.9909L35.8813 28.78ZM35.3313 29.46L35.0407 29.0531C34.8942 29.1578 34.733 29.21 34.5413 29.21V29.71V30.21C34.9363 30.21 35.3018 30.0956 35.6219 29.8669L35.3313 29.46ZM34.5513 28.96V29.46C34.8147 29.46 35.0575 29.3675 35.2525 29.1855L34.9113 28.82L34.5702 28.4545C34.5665 28.4579 34.5645 28.4592 34.5641 28.4594C34.5638 28.4596 34.5643 28.4593 34.5651 28.459C34.5659 28.4587 34.5658 28.4588 34.5642 28.4591C34.5626 28.4594 34.5585 28.46 34.5513 28.46V28.96ZM34.9113 28.82L35.2406 29.1963C35.4301 29.0305 35.553 28.8154 35.6275 28.5824L35.1513 28.43L34.6751 28.2776C34.643 28.3779 34.6059 28.4229 34.5821 28.4437L34.9113 28.82ZM35.1513 28.43L35.6238 28.5936C35.7062 28.3555 35.7413 28.0946 35.7413 27.82H35.2413H34.7413C34.7413 28.0121 34.7164 28.1578 34.6788 28.2664L35.1513 28.43ZM35.2413 27.82H35.7413C35.7413 27.5454 35.7062 27.2845 35.6238 27.0464L35.1513 27.21L34.6788 27.3736C34.7164 27.4822 34.7413 27.6279 34.7413 27.82H35.2413ZM35.1513 27.21L35.6292 27.063C35.5561 26.8254 35.4342 26.6031 35.2406 26.4337L34.9113 26.81L34.5821 27.1863C34.6018 27.2036 34.6399 27.248 34.6734 27.357L35.1513 27.21ZM34.9113 26.81L35.2525 26.4445C35.0528 26.2581 34.8046 26.17 34.5413 26.17V26.67V27.17C34.5514 27.17 34.5581 27.1708 34.5618 27.1714C34.5637 27.1718 34.565 27.1721 34.5657 27.1723C34.5665 27.1725 34.5668 27.1726 34.5669 27.1726C34.5669 27.1727 34.5668 27.1726 34.5666 27.1725C34.5665 27.1724 34.5664 27.1724 34.5664 27.1724C34.5664 27.1724 34.5667 27.1726 34.5673 27.173C34.5679 27.1735 34.5688 27.1743 34.5702 27.1755L34.9113 26.81ZM34.5413 26.67V26.17C34.2682 26.17 34.0242 26.2726 33.8294 26.4552L34.1713 26.82L34.5133 27.1848C34.52 27.1785 34.5248 27.175 34.5276 27.1732C34.5303 27.1714 34.5316 27.1709 34.5317 27.1709C34.5318 27.1708 34.5319 27.1707 34.5327 27.1706C34.5336 27.1704 34.5362 27.17 34.5413 27.17V26.67ZM34.1713 26.82L33.8421 26.4437C33.6535 26.6087 33.5291 26.8245 33.4488 27.0564L33.9213 27.22L34.3938 27.3836C34.4335 27.2688 34.4759 27.2179 34.5006 27.1963L34.1713 26.82ZM33.9213 27.22L33.4451 27.0676C33.3718 27.2968 33.3413 27.5511 33.3413 27.82H33.8413H34.3413C34.3413 27.6223 34.3642 27.4765 34.3975 27.3724L33.9213 27.22ZM33.8413 27.82H33.3413C33.3413 28.0897 33.3719 28.3447 33.4434 28.577L33.9213 28.43L34.3992 28.283C34.364 28.1686 34.3413 28.017 34.3413 27.82H33.8413ZM33.9213 28.43L33.4509 28.5994C33.5326 28.8262 33.6575 29.0348 33.8421 29.1963L34.1713 28.82L34.5006 28.4437C34.4718 28.4186 34.4301 28.3671 34.3918 28.2606L33.9213 28.43ZM34.1713 28.82L33.8421 29.1963C34.0433 29.3724 34.2882 29.46 34.5513 29.46V28.96V28.46C34.5212 28.46 34.5127 28.4543 34.5006 28.4437L34.1713 28.82ZM38.9713 33.09V32.59C38.7704 32.59 38.6064 32.5363 38.4619 32.4331L38.1713 32.84L37.8807 33.2469C38.2029 33.477 38.5722 33.59 38.9713 33.59V33.09ZM38.1713 32.84L38.4675 32.4372C38.3139 32.3242 38.1843 32.1683 38.0828 31.955L37.6313 32.17L37.1799 32.385C37.345 32.7317 37.5754 33.0224 37.8751 33.2428L38.1713 32.84ZM37.6313 32.17L38.0847 31.9591C37.9861 31.7471 37.9313 31.4973 37.9313 31.2H37.4313H36.9313C36.9313 31.6227 37.0099 32.0196 37.178 32.3809L37.6313 32.17ZM37.4313 31.2H37.9313C37.9313 30.8912 37.9845 30.6352 38.0787 30.4221L37.6213 30.22L37.164 30.0179C37.0048 30.3781 36.9313 30.7754 36.9313 31.2H37.4313ZM37.6213 30.22L38.0765 30.4269C38.1775 30.2047 38.3059 30.054 38.4541 29.9524L38.1713 29.54L37.8886 29.1276C37.5701 29.346 37.3318 29.6486 37.1661 30.0131L37.6213 30.22ZM38.1713 29.54L38.4619 29.9469C38.6064 29.8437 38.7704 29.79 38.9713 29.79V29.29V28.79C38.5722 28.79 38.2029 28.903 37.8807 29.1331L38.1713 29.54ZM38.9713 29.29V29.79C39.1723 29.79 39.3302 29.8436 39.4651 29.9428L39.7613 29.54L40.0575 29.1372C39.7391 28.9031 39.3704 28.79 38.9713 28.79V29.29ZM39.7613 29.54L39.4786 29.9524C39.6244 30.0524 39.748 30.2 39.8423 30.4182L40.3013 30.22L40.7604 30.0218C40.6013 29.6534 40.3649 29.3476 40.0441 29.1276L39.7613 29.54ZM40.3013 30.22L39.848 30.4309C39.946 30.6417 40.0013 30.8946 40.0013 31.2H40.5013H41.0013C41.0013 30.7721 40.9233 30.3716 40.7547 30.0091L40.3013 30.22ZM40.5013 31.2H40.0013C40.0013 31.4891 39.9471 31.7359 39.848 31.9491L40.3013 32.16L40.7547 32.3709C40.9222 32.0108 41.0013 31.6176 41.0013 31.2H40.5013ZM40.3013 32.16L39.848 31.9491C39.7472 32.1657 39.6167 32.3217 39.4607 32.4331L39.7513 32.84L40.0419 33.2469C40.3526 33.025 40.5888 32.7276 40.7547 32.3709L40.3013 32.16ZM39.7513 32.84L39.4551 32.4372C39.3181 32.5379 39.1629 32.59 38.9713 32.59V33.09V33.59C39.3664 33.59 39.7312 33.4754 40.0475 33.2428L39.7513 32.84ZM38.9713 32.35V32.85C39.2341 32.85 39.474 32.7583 39.6706 32.5863L39.3413 32.21L39.0121 31.8337C39.0003 31.844 38.9937 31.8467 38.9919 31.8474C38.9902 31.848 38.9846 31.85 38.9713 31.85V32.35ZM39.3413 32.21L39.6833 32.5748C39.8632 32.4061 39.9834 32.1942 40.0575 31.9624L39.5813 31.81L39.1051 31.6576C39.0726 31.7591 39.0328 31.8139 38.9994 31.8452L39.3413 32.21ZM39.5813 31.81L40.0538 31.9736C40.1362 31.7355 40.1713 31.4746 40.1713 31.2H39.6713H39.1713C39.1713 31.3921 39.1464 31.5378 39.1088 31.6464L39.5813 31.81ZM39.6713 31.2H40.1713C40.1713 30.9262 40.1364 30.6658 40.0518 30.4306L39.5813 30.6L39.1109 30.7694C39.1462 30.8675 39.1713 31.0071 39.1713 31.2H39.6713ZM39.5813 30.6L40.0592 30.453C39.9861 30.2154 39.8642 29.9931 39.6706 29.8237L39.3413 30.2L39.0121 30.5763C39.0318 30.5936 39.0699 30.638 39.1034 30.747L39.5813 30.6ZM39.3413 30.2L39.6833 29.8352C39.4885 29.6526 39.2444 29.55 38.9713 29.55V30.05V30.55C38.9764 30.55 38.9791 30.5504 38.9799 30.5506C38.9807 30.5507 38.9809 30.5508 38.981 30.5509C38.9811 30.5509 38.9824 30.5514 38.9851 30.5532C38.9878 30.555 38.9926 30.5585 38.9994 30.5648L39.3413 30.2ZM38.9713 30.05V29.55C38.7082 29.55 38.4633 29.6376 38.2621 29.8137L38.5913 30.19L38.9206 30.5663C38.9327 30.5557 38.9412 30.55 38.9713 30.55V30.05ZM38.5913 30.19L38.2621 29.8137C38.0735 29.9787 37.9491 30.1945 37.8688 30.4264L38.3413 30.59L38.8138 30.7536C38.8535 30.6388 38.8959 30.5879 38.9206 30.5663L38.5913 30.19ZM38.3413 30.59L37.8634 30.443C37.7919 30.6753 37.7613 30.9303 37.7613 31.2H38.2613H38.7613C38.7613 31.003 38.784 30.8514 38.8192 30.737L38.3413 30.59ZM38.2613 31.2H37.7613C37.7613 31.4697 37.7919 31.7247 37.8634 31.957L38.3413 31.81L38.8192 31.663C38.784 31.5486 38.7613 31.397 38.7613 31.2H38.2613ZM38.3413 31.81L37.8709 31.9794C37.9521 32.2049 38.0741 32.4104 38.2494 32.5748L38.5913 32.21L38.9333 31.8452C38.8953 31.8096 38.8506 31.7485 38.8118 31.6406L38.3413 31.81ZM38.5913 32.21L38.2621 32.5863C38.4633 32.7624 38.7082 32.85 38.9713 32.85V32.35V31.85C38.9412 31.85 38.9327 31.8443 38.9206 31.8337L38.5913 32.21Z" fill="white" mask="url(#path-1-outside-1_311_2774)"/>
</g>
<g filter="url(#filter1_dd_311_2774)">
<path d="M54 29C54 42.2548 43.2548 53 30 53C16.7452 53 6 42.2548 6 29C6 15.7452 16.7452 5 30 5C43.2548 5 54 15.7452 54 29ZM13.0437 29C13.0437 38.3647 20.6353 45.9563 30 45.9563C39.3647 45.9563 46.9563 38.3647 46.9563 29C46.9563 19.6353 39.3647 12.0437 30 12.0437C20.6353 12.0437 13.0437 19.6353 13.0437 29Z" fill="white"/>
<path d="M8 29C6.89543 29 5.99134 28.103 6.08328 27.0023C6.38181 23.4281 7.47857 19.9573 9.30291 16.8497C11.1272 13.7421 13.6234 11.0927 16.5988 9.09002C17.5151 8.47325 18.739 8.8255 19.2773 9.78999L20.7608 12.4477C21.2992 13.4122 20.9451 14.6213 20.0507 15.2694C18.16 16.6395 16.5665 18.3897 15.3772 20.4156C14.1879 22.4415 13.4362 24.686 13.1615 27.0046C13.0315 28.1015 12.1482 29 11.0437 29H8Z" fill="white"/>
<path d="M30 4C43.8071 4 55 15.1929 55 29C55 42.8071 43.8071 54 30 54C16.1929 54 5 42.8071 5 29C5 23.135 7.0196 17.7416 10.4014 13.4775C10.4458 13.4215 10.4923 13.3672 10.5371 13.3115C10.6268 13.2004 10.7161 13.089 10.8076 12.9795C10.8639 12.9121 10.9216 12.8461 10.9785 12.7793C11.0737 12.6678 11.1695 12.557 11.2666 12.4473C11.3075 12.401 11.3484 12.3546 11.3896 12.3086C11.4949 12.1913 11.6015 12.0752 11.709 11.96C11.7547 11.9109 11.7996 11.8612 11.8457 11.8125C12.1139 11.5293 12.3889 11.2528 12.6699 10.9824C12.7654 10.8906 12.8621 10.8002 12.959 10.71C13.056 10.6195 13.1525 10.5284 13.251 10.4395C13.3118 10.3846 13.3742 10.3316 13.4355 10.2773C13.5345 10.1897 13.6331 10.1017 13.7334 10.0156C13.8027 9.95624 13.8734 9.89848 13.9434 9.83984C14.0572 9.7443 14.1715 9.6492 14.2871 9.55566C14.3235 9.52627 14.3599 9.49697 14.3965 9.46777C18.6733 6.04673 24.0973 4 30 4ZM30 13.0439C26.5019 13.0439 23.2665 14.1692 20.6367 16.0781L20.6377 16.0791C20.4339 16.2268 20.2334 16.3792 20.0371 16.5361C20.0009 16.5651 19.9646 16.5938 19.9287 16.623C19.8563 16.682 19.7852 16.7426 19.7139 16.8027C19.6953 16.8184 19.6767 16.8339 19.6582 16.8496C19.5793 16.9168 19.5014 16.985 19.4238 17.0537C19.3924 17.0816 19.3603 17.1086 19.3291 17.1367C19.2777 17.1829 19.2275 17.2305 19.1768 17.2773C19.1231 17.3269 19.0686 17.3755 19.0156 17.4258C18.5486 17.869 18.1089 18.3408 17.6982 18.8379C17.6598 18.8844 17.622 18.9315 17.584 18.9785C17.0903 19.5901 16.64 20.2392 16.2393 20.9219C15.1202 22.8282 14.4129 24.9403 14.1543 27.1221C14.0821 27.7381 14.0439 28.3646 14.0439 29C14.0439 37.8124 21.1876 44.9561 30 44.9561C38.8124 44.9561 45.9561 37.8124 45.9561 29C45.9561 20.1876 38.8124 13.0439 30 13.0439Z" stroke="white" stroke-width="2"/>
</g>
<rect x="6" y="5" width="48" height="48" rx="24" fill="#FFCE99"/>
<path d="M22.0366 33L21.7066 32.18L23.8466 29.77C23.9599 29.65 24.0766 29.5133 24.1966 29.36C24.3233 29.2 24.4433 29.0367 24.5566 28.87C24.6699 28.7033 24.7599 28.54 24.8266 28.38C24.8999 28.2133 24.9366 28.0567 24.9366 27.91C24.9366 27.6967 24.8933 27.5167 24.8066 27.37C24.7266 27.2167 24.6066 27.1 24.4466 27.02C24.2933 26.94 24.1066 26.9 23.8866 26.9C23.6933 26.9 23.5033 26.9567 23.3166 27.07C23.1299 27.1833 22.9599 27.3433 22.8066 27.55C22.6533 27.7567 22.5333 27.9967 22.4466 28.27L21.6166 27.75C21.7299 27.3633 21.8999 27.0333 22.1266 26.76C22.3599 26.48 22.6366 26.2667 22.9566 26.12C23.2833 25.9733 23.6366 25.9 24.0166 25.9C24.4099 25.9 24.7599 25.9833 25.0666 26.15C25.3733 26.31 25.6133 26.5367 25.7866 26.83C25.9599 27.1167 26.0466 27.45 26.0466 27.83C26.0466 27.9833 26.0299 28.14 25.9966 28.3C25.9633 28.46 25.9099 28.6267 25.8366 28.8C25.7633 28.9667 25.6699 29.1433 25.5566 29.33C25.4433 29.51 25.3066 29.7 25.1466 29.9C24.9933 30.1 24.8166 30.31 24.6166 30.53L23.0266 32.26L22.8266 31.96H26.2666V33H22.0366ZM29.5911 33.1C29.0578 33.1 28.5978 32.9533 28.2111 32.66C27.8311 32.3667 27.5378 31.9533 27.3311 31.42C27.1244 30.88 27.0211 30.24 27.0211 29.5C27.0211 28.76 27.1244 28.1233 27.3311 27.59C27.5378 27.05 27.8311 26.6333 28.2111 26.34C28.5978 26.0467 29.0578 25.9 29.5911 25.9C30.1244 25.9 30.5844 26.0467 30.9711 26.34C31.3578 26.6333 31.6544 27.05 31.8611 27.59C32.0678 28.1233 32.1711 28.76 32.1711 29.5C32.1711 30.24 32.0678 30.88 31.8611 31.42C31.6544 31.9533 31.3578 32.3667 30.9711 32.66C30.5844 32.9533 30.1244 33.1 29.5911 33.1ZM29.5911 32.12C30.0778 32.12 30.4544 31.8933 30.7211 31.44C30.9878 30.98 31.1211 30.3333 31.1211 29.5C31.1211 28.6667 30.9878 28.0233 30.7211 27.57C30.4544 27.11 30.0778 26.88 29.5911 26.88C29.1044 26.88 28.7278 27.11 28.4611 27.57C28.1944 28.0233 28.0611 28.6667 28.0611 29.5C28.0611 30.3333 28.1944 30.98 28.4611 31.44C28.7278 31.8933 29.1044 32.12 29.5911 32.12ZM33.9013 33L38.5313 26H39.5613L34.8813 33H33.9013ZM34.5413 29.71C34.2413 29.71 33.9747 29.63 33.7413 29.47C33.5147 29.3033 33.3347 29.08 33.2013 28.8C33.0747 28.5133 33.0113 28.1867 33.0113 27.82C33.0113 27.4533 33.0747 27.1267 33.2013 26.84C33.3347 26.5467 33.518 26.32 33.7513 26.16C33.9847 25.9933 34.2513 25.91 34.5513 25.91C34.8513 25.91 35.1147 25.9933 35.3413 26.16C35.5747 26.32 35.7547 26.5467 35.8813 26.84C36.0147 27.1267 36.0813 27.4533 36.0813 27.82C36.0813 28.1733 36.0147 28.4933 35.8813 28.78C35.748 29.0667 35.5647 29.2933 35.3313 29.46C35.098 29.6267 34.8347 29.71 34.5413 29.71ZM34.5513 28.96C34.6913 28.96 34.8113 28.9133 34.9113 28.82C35.018 28.7267 35.098 28.5967 35.1513 28.43C35.2113 28.2567 35.2413 28.0533 35.2413 27.82C35.2413 27.5867 35.2113 27.3833 35.1513 27.21C35.098 27.0367 35.018 26.9033 34.9113 26.81C34.8113 26.7167 34.688 26.67 34.5413 26.67C34.4013 26.67 34.278 26.72 34.1713 26.82C34.0647 26.9133 33.9813 27.0467 33.9213 27.22C33.868 27.3867 33.8413 27.5867 33.8413 27.82C33.8413 28.0533 33.868 28.2567 33.9213 28.43C33.9813 28.5967 34.0647 28.7267 34.1713 28.82C34.278 28.9133 34.4047 28.96 34.5513 28.96ZM38.9713 33.09C38.6713 33.09 38.4047 33.0067 38.1713 32.84C37.9447 32.6733 37.7647 32.45 37.6313 32.17C37.498 31.8833 37.4313 31.56 37.4313 31.2C37.4313 30.8333 37.4947 30.5067 37.6213 30.22C37.7547 29.9267 37.938 29.7 38.1713 29.54C38.4047 29.3733 38.6713 29.29 38.9713 29.29C39.2713 29.29 39.5347 29.3733 39.7613 29.54C39.9947 29.7 40.1747 29.9267 40.3013 30.22C40.4347 30.5067 40.5013 30.8333 40.5013 31.2C40.5013 31.5533 40.4347 31.8733 40.3013 32.16C40.168 32.4467 39.9847 32.6733 39.7513 32.84C39.5247 33.0067 39.2647 33.09 38.9713 33.09ZM38.9713 32.35C39.1113 32.35 39.2347 32.3033 39.3413 32.21C39.448 32.11 39.528 31.9767 39.5813 31.81C39.6413 31.6367 39.6713 31.4333 39.6713 31.2C39.6713 30.9667 39.6413 30.7667 39.5813 30.6C39.528 30.4267 39.448 30.2933 39.3413 30.2C39.2347 30.1 39.1113 30.05 38.9713 30.05C38.8247 30.05 38.698 30.0967 38.5913 30.19C38.4847 30.2833 38.4013 30.4167 38.3413 30.59C38.288 30.7633 38.2613 30.9667 38.2613 31.2C38.2613 31.4333 38.288 31.6367 38.3413 31.81C38.4013 31.9767 38.4847 32.11 38.5913 32.21C38.698 32.3033 38.8247 32.35 38.9713 32.35Z" fill="#FE7500"/>
<path d="M54 29C54 42.2548 43.2548 53 30 53C16.7452 53 6 42.2548 6 29C6 15.7452 16.7452 5 30 5C43.2548 5 54 15.7452 54 29ZM13.0437 29C13.0437 38.3647 20.6353 45.9563 30 45.9563C39.3647 45.9563 46.9563 38.3647 46.9563 29C46.9563 19.6353 39.3647 12.0437 30 12.0437C20.6353 12.0437 13.0437 19.6353 13.0437 29Z" fill="#FECE99"/>
<path d="M8 29C6.89543 29 5.99134 28.103 6.08328 27.0023C6.38181 23.4281 7.47857 19.9573 9.30291 16.8497C11.1272 13.7421 13.6234 11.0927 16.5988 9.09002C17.5151 8.47325 18.739 8.8255 19.2773 9.78999L20.7608 12.4477C21.2992 13.4122 20.9451 14.6213 20.0507 15.2694C18.16 16.6395 16.5665 18.3897 15.3772 20.4156C14.1879 22.4415 13.4362 24.686 13.1615 27.0046C13.0315 28.1015 12.1482 29 11.0437 29H8Z" fill="#FE7500"/>
<path d="M30 5.5C42.9787 5.5 53.5 16.0213 53.5 29C53.5 41.9787 42.9787 52.5 30 52.5C17.0213 52.5 6.5 41.9787 6.5 29C6.5 28.9974 6.5 28.9948 6.5 28.9922C6.9176 29.3102 7.44073 29.5 8 29.5H11.0439C11.6122 29.4999 12.1243 29.3106 12.5439 29L12.5498 29.4502C12.7886 38.883 20.5097 46.4561 30 46.4561C39.6409 46.4561 47.4561 38.6409 47.4561 29C47.4561 19.3591 39.6409 11.5439 30 11.5439C26.9108 11.5439 24.0095 12.347 21.4922 13.7549C21.5582 13.2378 21.4738 12.6995 21.1973 12.2041L19.7139 9.5459C19.4406 9.05646 19.0188 8.69077 18.5361 8.48145C21.9273 6.58272 25.8371 5.5 30 5.5ZM16.8779 9.50488C17.5283 9.06713 18.431 9.2994 18.8408 10.0332L20.3242 12.6914C20.7217 13.4036 20.4762 14.343 19.7568 14.8643C19.7412 14.8756 19.7256 14.887 19.71 14.8984C19.613 14.9693 19.5163 15.0405 19.4209 15.1133C19.4032 15.1268 19.3858 15.1407 19.3682 15.1543C19.2834 15.2195 19.1997 15.2859 19.1162 15.3525C19.0657 15.3928 19.0149 15.4328 18.9648 15.4736C18.9136 15.5155 18.8632 15.5582 18.8125 15.6006C18.7508 15.6521 18.6889 15.7035 18.6279 15.7559C18.5669 15.8083 18.5066 15.8617 18.4463 15.915C18.4081 15.9488 18.3699 15.9825 18.332 16.0166C18.2726 16.0701 18.214 16.1244 18.1553 16.1787C18.0994 16.2303 18.0434 16.2817 17.9883 16.334C17.9482 16.372 17.9079 16.4098 17.8682 16.4482C17.8126 16.502 17.757 16.5559 17.7021 16.6104L17.6562 16.6562C17.3557 16.9568 17.0661 17.2682 16.7881 17.5898C16.7787 17.6007 16.7701 17.6122 16.7607 17.623C16.6772 17.7202 16.5942 17.818 16.5127 17.917C16.4901 17.9445 16.4678 17.9723 16.4453 18C14.4101 20.5048 13.0552 23.5845 12.6621 26.958C12.5525 27.834 11.8556 28.4998 11.0439 28.5H8C7.15932 28.5 6.51677 27.8253 6.58203 27.0439C6.87434 23.5443 7.94805 20.1454 9.73438 17.1025C10.31 16.1221 10.9543 15.1887 11.6602 14.3076C11.7706 14.1699 11.8826 14.0336 11.9961 13.8984C12.0132 13.8781 12.0297 13.8572 12.0469 13.8369C12.1561 13.7077 12.267 13.5799 12.3789 13.4531C12.4209 13.4056 12.4625 13.3578 12.5049 13.3105C12.6186 13.1838 12.7342 13.0588 12.8506 12.9346C13.3226 12.4307 13.8165 11.9477 14.3311 11.4873C14.4716 11.3614 14.6132 11.2367 14.7568 11.1143C14.7781 11.0961 14.7999 11.0786 14.8213 11.0605C14.9653 10.9386 15.1109 10.8187 15.2578 10.7002C15.2784 10.6836 15.2987 10.6669 15.3193 10.6504C15.4746 10.526 15.6316 10.4037 15.79 10.2832C16.1449 10.0138 16.5076 9.75418 16.8779 9.50488Z" stroke="#FE7500"/>
<defs>
<filter id="filter0_dd_311_2774" x="17.0312" y="22.4004" width="27.9688" height="16.1992" filterUnits="userSpaceOnUse" color-interpolation-filters="sRGB">
<feFlood flood-opacity="0" result="BackgroundImageFix"/>
<feColorMatrix in="SourceAlpha" type="matrix" values="0 0 0 0 0 0 0 0 0 0 0 0 0 0 0 0 0 0 127 0" result="hardAlpha"/>
<feMorphology radius="1" operator="dilate" in="SourceAlpha" result="effect1_dropShadow_311_2774"/>
<feOffset dy="1"/>
<feGaussianBlur stdDeviation="1.5"/>
<feColorMatrix type="matrix" values="0 0 0 0 0 0 0 0 0 0 0 0 0 0 0 0 0 0 0.15 0"/>
<feBlend mode="normal" in2="BackgroundImageFix" result="effect1_dropShadow_311_2774"/>
<feColorMatrix in="SourceAlpha" type="matrix" values="0 0 0 0 0 0 0 0 0 0 0 0 0 0 0 0 0 0 127 0" result="hardAlpha"/>
<feOffset dy="1"/>
<feGaussianBlur stdDeviation="1"/>
<feColorMatrix type="matrix" values="0 0 0 0 0 0 0 0 0 0 0 0 0 0 0 0 0 0 0.3 0"/>
<feBlend mode="normal" in2="effect1_dropShadow_311_2774" result="effect2_dropShadow_311_2774"/>
<feBlend mode="normal" in="SourceGraphic" in2="effect2_dropShadow_311_2774" result="shape"/>
</filter>
<filter id="filter1_dd_311_2774" x="0" y="0" width="60" height="60" filterUnits="userSpaceOnUse" color-interpolation-filters="sRGB">
<feFlood flood-opacity="0" result="BackgroundImageFix"/>
<feColorMatrix in="SourceAlpha" type="matrix" values="0 0 0 0 0 0 0 0 0 0 0 0 0 0 0 0 0 0 127 0" result="hardAlpha"/>
<feMorphology radius="1" operator="dilate" in="SourceAlpha" result="effect1_dropShadow_311_2774"/>
<feOffset dy="1"/>
<feGaussianBlur stdDeviation="1.5"/>
<feColorMatrix type="matrix" values="0 0 0 0 0 0 0 0 0 0 0 0 0 0 0 0 0 0 0.15 0"/>
<feBlend mode="normal" in2="BackgroundImageFix" result="effect1_dropShadow_311_2774"/>
<feColorMatrix in="SourceAlpha" type="matrix" values="0 0 0 0 0 0 0 0 0 0 0 0 0 0 0 0 0 0 127 0" result="hardAlpha"/>
<feOffset dy="1"/>
<feGaussianBlur stdDeviation="1"/>
<feColorMatrix type="matrix" values="0 0 0 0 0 0 0 0 0 0 0 0 0 0 0 0 0 0 0.3 0"/>
<feBlend mode="normal" in2="effect1_dropShadow_311_2774" result="effect2_dropShadow_311_2774"/>
<feBlend mode="normal" in="SourceGraphic" in2="effect2_dropShadow_311_2774" result="shape"/>
</filter>
</defs>
</svg>
