<svg width="56" height="56" viewBox="0 0 56 56" fill="none" xmlns="http://www.w3.org/2000/svg">
<g filter="url(#filter0_dd_309_2730)">
<rect x="4" y="3" width="48" height="48" rx="2" fill="white"/>
</g>
<rect x="6.5" y="5.5" width="43" height="43" rx="1.5" fill="#FFCE99"/>
<rect x="6.5" y="5.5" width="43" height="43" rx="1.5" stroke="#FF7501"/>
<path d="M19.7511 32.036C19.1751 32.036 18.6511 31.928 18.1791 31.712C17.7151 31.488 17.3431 31.188 17.0631 30.812C16.7831 30.436 16.6431 30.012 16.6431 29.54C16.6431 29.228 16.6831 28.948 16.7631 28.7C16.8431 28.444 16.9631 28.22 17.1231 28.028C17.2911 27.828 17.4911 27.66 17.7231 27.524C17.9631 27.38 18.2351 27.264 18.5391 27.176L18.3951 27.656C18.1711 27.568 17.9671 27.46 17.7831 27.332C17.5991 27.204 17.4431 27.06 17.3151 26.9C17.1871 26.732 17.0871 26.552 17.0151 26.36C16.9511 26.168 16.9191 25.968 16.9191 25.76C16.9191 25.312 17.0431 24.916 17.2911 24.572C17.5471 24.228 17.8871 23.96 18.3111 23.768C18.7431 23.568 19.2231 23.468 19.7511 23.468C20.2711 23.468 20.7431 23.568 21.1671 23.768C21.5991 23.96 21.9431 24.228 22.1991 24.572C22.4551 24.916 22.5831 25.312 22.5831 25.76C22.5831 25.968 22.5511 26.168 22.4871 26.36C22.4231 26.552 22.3271 26.728 22.1991 26.888C22.0711 27.04 21.9151 27.184 21.7311 27.32C21.5471 27.448 21.3351 27.56 21.0951 27.656L20.9871 27.224C21.2591 27.296 21.5111 27.4 21.7431 27.536C21.9751 27.664 22.1751 27.828 22.3431 28.028C22.5111 28.22 22.6391 28.444 22.7271 28.7C22.8231 28.948 22.8711 29.228 22.8711 29.54C22.8711 30.02 22.7311 30.448 22.4511 30.824C22.1711 31.2 21.7951 31.496 21.3231 31.712C20.8511 31.928 20.3271 32.036 19.7511 32.036ZM19.7511 30.428C19.9751 30.428 20.1751 30.384 20.3511 30.296C20.5271 30.208 20.6671 30.088 20.7711 29.936C20.8751 29.784 20.9271 29.608 20.9271 29.408C20.9271 29.2 20.8751 29.02 20.7711 28.868C20.6751 28.708 20.5351 28.584 20.3511 28.496C20.1751 28.4 19.9751 28.352 19.7511 28.352C19.5271 28.352 19.3271 28.4 19.1511 28.496C18.9751 28.584 18.8351 28.708 18.7311 28.868C18.6271 29.02 18.5751 29.2 18.5751 29.408C18.5751 29.6 18.6271 29.772 18.7311 29.924C18.8351 30.076 18.9751 30.2 19.1511 30.296C19.3271 30.384 19.5271 30.428 19.7511 30.428ZM19.7511 26.732C19.9431 26.732 20.1151 26.696 20.2671 26.624C20.4271 26.544 20.5511 26.44 20.6391 26.312C20.7271 26.176 20.7711 26.02 20.7711 25.844C20.7711 25.668 20.7271 25.512 20.6391 25.376C20.5511 25.24 20.4271 25.132 20.2671 25.052C20.1151 24.972 19.9431 24.932 19.7511 24.932C19.5511 24.932 19.3711 24.972 19.2111 25.052C19.0591 25.132 18.9391 25.24 18.8511 25.376C18.7631 25.512 18.7191 25.668 18.7191 25.844C18.7191 26.02 18.7631 26.176 18.8511 26.312C18.9391 26.44 19.0591 26.544 19.2111 26.624C19.3711 26.696 19.5511 26.732 19.7511 26.732ZM27.3619 32.12C26.6099 32.12 25.9659 31.948 25.4299 31.604C24.9019 31.26 24.4979 30.768 24.2179 30.128C23.9379 29.48 23.7979 28.704 23.7979 27.8C23.7979 26.896 23.9379 26.124 24.2179 25.484C24.4979 24.836 24.9019 24.34 25.4299 23.996C25.9659 23.652 26.6099 23.48 27.3619 23.48C28.1139 23.48 28.7579 23.652 29.2939 23.996C29.8299 24.34 30.2379 24.836 30.5179 25.484C30.7979 26.124 30.9379 26.896 30.9379 27.8C30.9379 28.704 30.7979 29.48 30.5179 30.128C30.2379 30.768 29.8299 31.26 29.2939 31.604C28.7579 31.948 28.1139 32.12 27.3619 32.12ZM27.3619 30.392C27.8819 30.392 28.2819 30.168 28.5619 29.72C28.8499 29.272 28.9939 28.632 28.9939 27.8C28.9939 26.944 28.8499 26.288 28.5619 25.832C28.2819 25.368 27.8819 25.136 27.3619 25.136C26.8419 25.136 26.4379 25.368 26.1499 25.832C25.8699 26.288 25.7299 26.944 25.7299 27.8C25.7299 28.632 25.8699 29.272 26.1499 29.72C26.4379 30.168 26.8419 30.392 27.3619 30.392ZM33.4387 32L38.9947 23.6H40.7827L35.1667 32H33.4387ZM33.9787 28.052C33.5707 28.052 33.2067 27.952 32.8867 27.752C32.5667 27.544 32.3147 27.264 32.1307 26.912C31.9547 26.56 31.8667 26.16 31.8667 25.712C31.8667 25.256 31.9547 24.852 32.1307 24.5C32.3147 24.14 32.5667 23.86 32.8867 23.66C33.2067 23.46 33.5707 23.36 33.9787 23.36C34.3947 23.36 34.7587 23.46 35.0707 23.66C35.3907 23.86 35.6387 24.14 35.8147 24.5C35.9907 24.852 36.0787 25.256 36.0787 25.712C36.0787 26.16 35.9867 26.56 35.8027 26.912C35.6187 27.264 35.3667 27.544 35.0467 27.752C34.7347 27.952 34.3787 28.052 33.9787 28.052ZM33.9787 26.816C34.1147 26.816 34.2267 26.772 34.3147 26.684C34.4107 26.596 34.4827 26.468 34.5307 26.3C34.5787 26.132 34.6027 25.936 34.6027 25.712C34.6027 25.488 34.5787 25.292 34.5307 25.124C34.4827 24.956 34.4107 24.828 34.3147 24.74C34.2267 24.644 34.1147 24.596 33.9787 24.596C33.8507 24.596 33.7387 24.644 33.6427 24.74C33.5467 24.828 33.4707 24.956 33.4147 25.124C33.3667 25.292 33.3427 25.488 33.3427 25.712C33.3427 25.936 33.3667 26.132 33.4147 26.3C33.4627 26.468 33.5347 26.596 33.6307 26.684C33.7347 26.772 33.8507 26.816 33.9787 26.816ZM40.3747 32.12C39.9667 32.12 39.6027 32.016 39.2827 31.808C38.9627 31.6 38.7107 31.324 38.5267 30.98C38.3507 30.628 38.2627 30.228 38.2627 29.78C38.2627 29.324 38.3507 28.92 38.5267 28.568C38.7027 28.208 38.9507 27.928 39.2707 27.728C39.5907 27.528 39.9587 27.428 40.3747 27.428C40.7907 27.428 41.1547 27.528 41.4667 27.728C41.7867 27.928 42.0347 28.208 42.2107 28.568C42.3867 28.92 42.4747 29.324 42.4747 29.78C42.4747 30.22 42.3827 30.616 42.1987 30.968C42.0147 31.32 41.7627 31.6 41.4427 31.808C41.1307 32.016 40.7747 32.12 40.3747 32.12ZM40.3747 30.884C40.5107 30.884 40.6227 30.84 40.7107 30.752C40.8067 30.656 40.8787 30.528 40.9267 30.368C40.9747 30.2 40.9987 30.004 40.9987 29.78C40.9987 29.556 40.9747 29.36 40.9267 29.192C40.8787 29.024 40.8067 28.896 40.7107 28.808C40.6227 28.712 40.5107 28.664 40.3747 28.664C40.2387 28.664 40.1227 28.708 40.0267 28.796C39.9307 28.884 39.8547 29.016 39.7987 29.192C39.7507 29.36 39.7267 29.556 39.7267 29.78C39.7267 30.004 39.7507 30.2 39.7987 30.368C39.8547 30.528 39.9307 30.656 40.0267 30.752C40.1227 30.84 40.2387 30.884 40.3747 30.884Z" fill="#FF7501"/>
<defs>
<filter id="filter0_dd_309_2730" x="0" y="0" width="56" height="56" filterUnits="userSpaceOnUse" color-interpolation-filters="sRGB">
<feFlood flood-opacity="0" result="BackgroundImageFix"/>
<feColorMatrix in="SourceAlpha" type="matrix" values="0 0 0 0 0 0 0 0 0 0 0 0 0 0 0 0 0 0 127 0" result="hardAlpha"/>
<feMorphology radius="1" operator="dilate" in="SourceAlpha" result="effect1_dropShadow_309_2730"/>
<feOffset dy="1"/>
<feGaussianBlur stdDeviation="1.5"/>
<feColorMatrix type="matrix" values="0 0 0 0 0 0 0 0 0 0 0 0 0 0 0 0 0 0 0.15 0"/>
<feBlend mode="normal" in2="BackgroundImageFix" result="effect1_dropShadow_309_2730"/>
<feColorMatrix in="SourceAlpha" type="matrix" values="0 0 0 0 0 0 0 0 0 0 0 0 0 0 0 0 0 0 127 0" result="hardAlpha"/>
<feOffset dy="1"/>
<feGaussianBlur stdDeviation="1"/>
<feColorMatrix type="matrix" values="0 0 0 0 0 0 0 0 0 0 0 0 0 0 0 0 0 0 0.3 0"/>
<feBlend mode="normal" in2="effect1_dropShadow_309_2730" result="effect2_dropShadow_309_2730"/>
<feBlend mode="normal" in="SourceGraphic" in2="effect2_dropShadow_309_2730" result="shape"/>
</filter>
</defs>
</svg>
