<svg width="56" height="56" viewBox="0 0 56 56" fill="none" xmlns="http://www.w3.org/2000/svg">
<rect x="0.5" y="0.5" width="55" height="55" rx="23.5" fill="#FEFDF0"/>
<rect x="0.5" y="0.5" width="55" height="55" rx="23.5" stroke="#F2E9DD"/>
<path d="M14 23.9556C14 20.4708 14 18.7284 14.6782 17.3974C15.2747 16.2266 16.2266 15.2747 17.3974 14.6782C18.7284 14 20.4708 14 23.9556 14H32.0444C35.5292 14 37.2716 14 38.6026 14.6782C39.7734 15.2747 40.7253 16.2266 41.3218 17.3974C42 18.7284 42 20.4708 42 23.9556V32.0444C42 35.5292 42 37.2716 41.3218 38.6026C40.7253 39.7734 39.7734 40.7253 38.6026 41.3218C37.2716 42 35.5292 42 32.0444 42H23.9556C20.4708 42 18.7284 42 17.3974 41.3218C16.2266 40.7253 15.2747 39.7734 14.6782 38.6026C14 37.2716 14 35.5292 14 32.0444V23.9556Z" fill="white"/>
<path d="M36.4935 18H33.2422V22.7112H37.9997V19.3285C38.001 19.3285 37.7646 18.1285 36.4935 18Z" fill="#1967D2"/>
<path d="M33.2422 37.9785V37.99V38.0003L37.9997 33.2891H37.957L33.2422 37.9785Z" fill="#1967D2"/>
<path d="M37.9993 33.2883V33.2461L37.957 33.2883H37.9993Z" fill="#FBBC05"/>
<path d="M37.9997 22.7109H33.2422V33.246H37.9997V22.7109Z" fill="#FBBC05"/>
<path d="M37.957 33.2891H33.2422V37.9785L37.957 33.2891Z" fill="#EA4335"/>
<path d="M33.2422 33.2883H37.957L37.9997 33.2461H33.2422V33.2883Z" fill="#EA4335"/>
<path d="M33.2305 37.99H33.242V37.9785L33.2305 37.99Z" fill="#34A853"/>
<path d="M22.6484 33.2461V37.9895H33.2291L33.2407 33.2461H22.6484Z" fill="#34A853"/>
<path d="M33.242 33.2885V33.2461L33.2305 37.9895L33.242 37.9779V33.2885Z" fill="#34A853"/>
<path d="M18 33.2461V36.5441C18.0426 37.6143 19.2 37.9895 19.2 37.9895H22.6503V33.2461H18Z" fill="#188038"/>
<path d="M22.6503 22.7112H33.2425V18H19.3344C19.3344 18 18.0853 18.1285 18 19.4556V33.2464H22.6503V22.7112Z" fill="#4285F4"/>
<path d="M26.1165 31.1145C25.8742 31.1145 25.6405 31.0829 25.4155 31.0198C25.1962 30.9567 24.9943 30.862 24.8096 30.7357C24.625 30.6037 24.4606 30.4402 24.3163 30.2451C24.1778 30.0499 24.0711 29.8233 23.9961 29.565L25.0606 29.1432C25.1356 29.4302 25.2626 29.6482 25.4414 29.7974C25.6203 29.9409 25.8453 30.0126 26.1165 30.0126C26.2376 30.0126 26.353 29.9954 26.4627 29.961C26.5723 29.9208 26.6675 29.8663 26.7483 29.7974C26.8291 29.7286 26.8925 29.6482 26.9387 29.5564C26.9906 29.4589 27.0166 29.3498 27.0166 29.2293C27.0166 28.9768 26.9214 28.7788 26.731 28.6354C26.5463 28.4919 26.2896 28.4202 25.9607 28.4202H25.4501V27.3958H25.9174C26.0328 27.3958 26.1453 27.3815 26.255 27.3528C26.3646 27.3241 26.4598 27.2811 26.5406 27.2237C26.6271 27.1605 26.6935 27.0831 26.7396 26.9913C26.7915 26.8937 26.8175 26.7818 26.8175 26.6555C26.8175 26.4604 26.7483 26.3026 26.6098 26.1821C26.4713 26.0559 26.2838 25.9927 26.0472 25.9927C25.7934 25.9927 25.5972 26.0616 25.4587 26.1993C25.326 26.3313 25.2337 26.4805 25.1818 26.6469L24.1432 26.2251C24.1952 26.0817 24.273 25.9353 24.3769 25.7861C24.4808 25.6312 24.6106 25.4935 24.7664 25.373C24.9279 25.2467 25.1154 25.1463 25.3289 25.0717C25.5424 24.9913 25.7876 24.9512 26.0646 24.9512C26.3473 24.9512 26.604 24.9913 26.8348 25.0717C27.0714 25.152 27.2733 25.2639 27.4406 25.4074C27.608 25.5451 27.7378 25.7115 27.8301 25.9067C27.9224 26.096 27.9686 26.3026 27.9686 26.5264C27.9686 26.6986 27.9455 26.8535 27.8993 26.9913C27.859 27.129 27.8041 27.2524 27.7349 27.3614C27.6657 27.4704 27.5849 27.5651 27.4926 27.6455C27.406 27.7201 27.3166 27.7803 27.2243 27.8262V27.8951C27.5012 28.0041 27.7291 28.1792 27.908 28.4202C28.0926 28.6612 28.1849 28.9653 28.1849 29.3326C28.1849 29.5909 28.1359 29.829 28.0378 30.0471C27.9397 30.2594 27.7984 30.4459 27.6137 30.6066C27.4349 30.7673 27.2185 30.8907 26.9646 30.9767C26.7108 31.0686 26.4281 31.1145 26.1165 31.1145Z" fill="#4285F4"/>
<path d="M30.2517 30.9767V26.4145L29.2045 26.8535L28.7891 25.898L30.5287 25.0889H31.3855V30.9767H30.2517Z" fill="#4285F4"/>
</svg>
