<svg width="361" height="193" viewBox="0 0 361 193" fill="none" xmlns="http://www.w3.org/2000/svg">
<rect x="0.5" y="0.5" width="360" height="192" rx="11.5" fill="white"/>
<rect x="0.5" y="0.5" width="360" height="192" rx="11.5" stroke="#8A7B6A"/>
<rect x="12" y="12" width="148" height="169" rx="4" fill="#F2E9DC"/>
<g filter="url(#filter0_dd_285_1429)">
<path d="M94.9004 47C100.202 47.0002 104.5 51.298 104.5 56.5996V136.4C104.5 141.702 100.202 146 94.9004 146H53.0996C47.798 146 43.5002 141.702 43.5 136.4V56.5996C43.5002 51.298 47.798 47.0002 53.0996 47H94.9004Z" fill="white" stroke="white" stroke-width="4" stroke-linecap="round"/>
<path d="M110.785 80C113.643 80.0002 115.959 82.3171 115.959 85.1748V88.1533L123.082 83.9277C125.473 82.5088 128.5 84.2322 128.5 87.0127V105.796C128.5 108.576 125.473 110.3 123.082 108.881L115.959 104.654V107.825C115.959 110.683 113.643 113 110.785 113H71.6748C68.817 113 66.5 110.683 66.5 107.825V85.1748C66.5 82.317 68.8169 80 71.6748 80H110.785Z" fill="white" stroke="white" stroke-width="4" stroke-linecap="round"/>
<path d="M45.5 56.6C45.5 52.4026 48.9026 49 53.1 49H94.9C99.0974 49 102.5 52.4026 102.5 56.6V136.4C102.5 140.597 99.0974 144 94.9 144H53.1C48.9026 144 45.5 140.597 45.5 136.4V56.6Z" fill="#FFCE99"/>
<path d="M66.4 130.7H81.6M53.1 144H94.9C99.0974 144 102.5 140.597 102.5 136.4V56.6C102.5 52.4026 99.0974 49 94.9 49H53.1C48.9026 49 45.5 52.4026 45.5 56.6V136.4C45.5 140.597 48.9026 144 53.1 144Z" stroke="#FE7500" stroke-width="3" stroke-linecap="round"/>
<path d="M68.5 107.825V85.1746C68.5 83.4213 69.9213 82 71.6746 82H110.785C112.538 82 113.959 83.4213 113.959 85.1746V91.6667L124.103 85.6478C125.161 85.0199 126.5 85.7825 126.5 87.0129V105.796C126.5 107.026 125.161 107.789 124.103 107.161L113.959 101.142V107.825C113.959 109.579 112.538 111 110.785 111H71.6746C69.9213 111 68.5 109.579 68.5 107.825Z" fill="#FECE99"/>
<path d="M113.959 91.6667V85.1746C113.959 83.4213 112.538 82 110.785 82H71.6746C69.9213 82 68.5 83.4213 68.5 85.1746V107.825C68.5 109.579 69.9213 111 71.6746 111H110.785C112.538 111 113.959 109.579 113.959 107.825V101.142M113.959 91.6667L124.103 85.6478C125.161 85.0199 126.5 85.7825 126.5 87.0129V105.796C126.5 107.026 125.161 107.789 124.103 107.161L113.959 101.142M113.959 91.6667V101.142M93.1892 91.6667H107.689M93.1892 102.139H107.689" stroke="#FE7500" stroke-width="3" stroke-linecap="round"/>
</g>
<path d="M342.488 27C342.301 27 342.208 26.86 342.208 26.58V26.412C342.208 26.132 342.301 25.992 342.488 25.992H344.924V17.956L345.4 18.362L342.516 18.852C342.432 18.8613 342.362 18.838 342.306 18.782C342.259 18.726 342.222 18.6513 342.194 18.558C342.175 18.4553 342.166 18.362 342.166 18.278C342.166 18.138 342.184 18.0447 342.222 17.998C342.268 17.942 342.334 17.9047 342.418 17.886L345.666 17.172C345.768 17.172 345.866 17.2 345.96 17.256C346.053 17.312 346.1 17.382 346.1 17.466V25.992H348.312C348.498 25.992 348.592 26.132 348.592 26.412V26.58C348.592 26.86 348.498 27 348.312 27H342.488Z" fill="#8A7B6A"/>
<path d="M261.844 151.238C258.059 151.238 255.26 150.252 253.446 148.28C251.633 146.308 250.726 143.237 250.726 139.066C250.726 135.009 251.667 131.983 253.548 129.988C255.452 127.971 258.263 126.962 261.98 126.962C262.706 126.962 263.454 127.019 264.224 127.132C264.995 127.223 265.709 127.37 266.366 127.574C267.024 127.755 267.568 127.971 267.998 128.22C268.27 128.379 268.474 128.549 268.61 128.73C268.769 128.889 268.848 129.059 268.848 129.24C268.848 129.444 268.803 129.693 268.712 129.988C268.644 130.283 268.542 130.577 268.406 130.872C268.27 131.144 268.112 131.382 267.93 131.586C267.749 131.767 267.568 131.858 267.386 131.858C267.137 131.858 266.774 131.767 266.298 131.586C265.822 131.405 265.222 131.223 264.496 131.042C263.794 130.861 262.932 130.77 261.912 130.77C260.416 130.77 259.181 131.076 258.206 131.688C257.232 132.277 256.506 133.184 256.03 134.408C255.554 135.632 255.316 137.196 255.316 139.1C255.316 140.959 255.554 142.511 256.03 143.758C256.506 144.982 257.22 145.9 258.172 146.512C259.147 147.124 260.371 147.43 261.844 147.43C262.683 147.43 263.431 147.362 264.088 147.226C264.768 147.09 265.358 146.931 265.856 146.75C266.355 146.546 266.763 146.376 267.08 146.24C267.42 146.104 267.67 146.036 267.828 146.036C268.055 146.036 268.248 146.138 268.406 146.342C268.588 146.546 268.735 146.795 268.848 147.09C268.984 147.362 269.075 147.645 269.12 147.94C269.188 148.212 269.222 148.405 269.222 148.518C269.222 148.835 269.132 149.096 268.95 149.3C268.769 149.481 268.452 149.697 267.998 149.946C267.5 150.218 266.899 150.456 266.196 150.66C265.516 150.841 264.791 150.977 264.02 151.068C263.272 151.181 262.547 151.238 261.844 151.238ZM274.623 151.068C273.988 151.068 273.524 150.989 273.229 150.83C272.957 150.649 272.821 150.399 272.821 150.082V138.862C272.821 137.887 272.787 137.105 272.719 136.516C272.674 135.904 272.617 135.428 272.549 135.088C272.504 134.748 272.481 134.476 272.481 134.272C272.481 134.068 272.606 133.898 272.855 133.762C273.127 133.626 273.444 133.524 273.807 133.456C274.192 133.388 274.555 133.343 274.895 133.32C275.258 133.275 275.53 133.252 275.711 133.252C275.96 133.252 276.153 133.32 276.289 133.456C276.425 133.592 276.538 133.841 276.629 134.204C276.742 134.567 276.856 135.099 276.969 135.802C277.218 135.213 277.547 134.714 277.955 134.306C278.363 133.875 278.816 133.547 279.315 133.32C279.814 133.093 280.324 132.98 280.845 132.98C281.412 132.98 281.786 133.093 281.967 133.32C282.171 133.547 282.273 133.887 282.273 134.34C282.273 134.544 282.25 134.816 282.205 135.156C282.182 135.496 282.126 135.847 282.035 136.21C281.944 136.55 281.831 136.845 281.695 137.094C281.582 137.343 281.423 137.468 281.219 137.468C281.038 137.468 280.834 137.411 280.607 137.298C280.38 137.185 280.052 137.128 279.621 137.128C279.077 137.128 278.578 137.264 278.125 137.536C277.694 137.808 277.366 138.182 277.139 138.658V150.082C277.139 150.399 276.992 150.649 276.697 150.83C276.425 150.989 275.96 151.068 275.303 151.068H274.623ZM292.35 151.238C289.426 151.238 287.261 150.467 285.856 148.926C284.451 147.385 283.748 145.152 283.748 142.228C283.748 140.075 284.077 138.318 284.734 136.958C285.414 135.598 286.366 134.601 287.59 133.966C288.814 133.309 290.242 132.98 291.874 132.98C293.597 132.98 294.979 133.365 296.022 134.136C297.087 134.884 297.858 135.915 298.334 137.23C298.833 138.522 299.082 139.995 299.082 141.65C299.082 141.899 298.991 142.183 298.81 142.5C298.629 142.795 298.413 143.044 298.164 143.248C297.915 143.452 297.677 143.554 297.45 143.554H288.134C288.179 145.095 288.587 146.195 289.358 146.852C290.129 147.487 291.183 147.804 292.52 147.804C293.404 147.804 294.175 147.691 294.832 147.464C295.489 147.237 296.022 147.011 296.43 146.784C296.861 146.557 297.167 146.444 297.348 146.444C297.552 146.444 297.745 146.591 297.926 146.886C298.13 147.181 298.3 147.509 298.436 147.872C298.572 148.235 298.64 148.518 298.64 148.722C298.64 149.017 298.436 149.311 298.028 149.606C297.643 149.901 297.121 150.184 296.464 150.456C295.829 150.705 295.149 150.898 294.424 151.034C293.699 151.17 293.007 151.238 292.35 151.238ZM288.1 140.528H294.934C294.934 139.168 294.651 138.148 294.084 137.468C293.54 136.765 292.724 136.414 291.636 136.414C291.024 136.414 290.446 136.55 289.902 136.822C289.381 137.071 288.95 137.491 288.61 138.08C288.293 138.669 288.123 139.485 288.1 140.528ZM307.404 151.238C305.636 151.238 304.31 150.785 303.426 149.878C302.542 148.949 302.1 147.736 302.1 146.24C302.1 145.379 302.236 144.574 302.508 143.826C302.803 143.055 303.313 142.387 304.038 141.82C304.763 141.231 305.795 140.777 307.132 140.46C308.492 140.12 310.237 139.95 312.368 139.95V138.726C312.368 138.25 312.266 137.842 312.062 137.502C311.881 137.162 311.563 136.901 311.11 136.72C310.679 136.516 310.101 136.414 309.376 136.414C308.492 136.414 307.699 136.516 306.996 136.72C306.316 136.901 305.738 137.094 305.262 137.298C304.809 137.479 304.48 137.57 304.276 137.57C304.14 137.57 304.004 137.479 303.868 137.298C303.732 137.117 303.607 136.901 303.494 136.652C303.381 136.38 303.29 136.119 303.222 135.87C303.154 135.598 303.12 135.383 303.12 135.224C303.12 134.952 303.313 134.691 303.698 134.442C304.083 134.17 304.593 133.921 305.228 133.694C305.863 133.467 306.565 133.297 307.336 133.184C308.129 133.048 308.911 132.98 309.682 132.98C310.906 132.98 311.96 133.116 312.844 133.388C313.728 133.637 314.453 134.011 315.02 134.51C315.587 135.009 316.006 135.598 316.278 136.278C316.55 136.958 316.686 137.706 316.686 138.522V145.322C316.686 146.41 316.709 147.26 316.754 147.872C316.822 148.484 316.89 148.949 316.958 149.266C317.026 149.583 317.06 149.844 317.06 150.048C317.06 150.229 316.935 150.388 316.686 150.524C316.437 150.637 316.131 150.739 315.768 150.83C315.428 150.898 315.077 150.955 314.714 151C314.374 151.023 314.102 151.034 313.898 151.034C313.581 151.034 313.343 150.921 313.184 150.694C313.048 150.467 312.935 150.173 312.844 149.81C312.776 149.447 312.708 149.073 312.64 148.688C312.436 148.937 312.107 149.266 311.654 149.674C311.223 150.082 310.645 150.445 309.92 150.762C309.217 151.079 308.379 151.238 307.404 151.238ZM308.56 147.804C309.127 147.804 309.648 147.702 310.124 147.498C310.6 147.294 311.031 147.022 311.416 146.682C311.801 146.342 312.119 145.968 312.368 145.56V142.976C311.257 142.976 310.328 143.033 309.58 143.146C308.832 143.259 308.22 143.429 307.744 143.656C307.291 143.883 306.962 144.189 306.758 144.574C306.554 144.937 306.452 145.356 306.452 145.832C306.452 146.444 306.622 146.931 306.962 147.294C307.325 147.634 307.857 147.804 308.56 147.804ZM326.907 151.238C325.887 151.238 325.026 151.057 324.323 150.694C323.643 150.331 323.133 149.787 322.793 149.062C322.453 148.314 322.283 147.419 322.283 146.376V136.652H320.991C320.379 136.652 320.073 136.165 320.073 135.19V134.68C320.073 133.705 320.379 133.218 320.991 133.218H322.283L322.793 129.886C322.838 129.546 322.986 129.297 323.235 129.138C323.484 128.979 323.836 128.9 324.289 128.9H325.105C325.649 128.9 326.034 128.979 326.261 129.138C326.51 129.297 326.635 129.546 326.635 129.886V133.218H328.981C329.593 133.218 329.899 133.705 329.899 134.68V135.19C329.899 136.165 329.593 136.652 328.981 136.652H326.635V146.138C326.635 146.705 326.726 147.113 326.907 147.362C327.111 147.611 327.451 147.736 327.927 147.736C328.358 147.736 328.686 147.691 328.913 147.6C329.14 147.487 329.332 147.43 329.491 147.43C329.604 147.43 329.706 147.532 329.797 147.736C329.91 147.917 330.001 148.155 330.069 148.45C330.137 148.722 330.182 148.994 330.205 149.266C330.25 149.538 330.273 149.731 330.273 149.844C330.273 150.093 330.092 150.331 329.729 150.558C329.366 150.785 328.924 150.955 328.403 151.068C327.904 151.181 327.406 151.238 326.907 151.238ZM340.872 151.238C337.948 151.238 335.783 150.467 334.378 148.926C332.973 147.385 332.27 145.152 332.27 142.228C332.27 140.075 332.599 138.318 333.256 136.958C333.936 135.598 334.888 134.601 336.112 133.966C337.336 133.309 338.764 132.98 340.396 132.98C342.119 132.98 343.501 133.365 344.544 134.136C345.609 134.884 346.38 135.915 346.856 137.23C347.355 138.522 347.604 139.995 347.604 141.65C347.604 141.899 347.513 142.183 347.332 142.5C347.151 142.795 346.935 143.044 346.686 143.248C346.437 143.452 346.199 143.554 345.972 143.554H336.656C336.701 145.095 337.109 146.195 337.88 146.852C338.651 147.487 339.705 147.804 341.042 147.804C341.926 147.804 342.697 147.691 343.354 147.464C344.011 147.237 344.544 147.011 344.952 146.784C345.383 146.557 345.689 146.444 345.87 146.444C346.074 146.444 346.267 146.591 346.448 146.886C346.652 147.181 346.822 147.509 346.958 147.872C347.094 148.235 347.162 148.518 347.162 148.722C347.162 149.017 346.958 149.311 346.55 149.606C346.165 149.901 345.643 150.184 344.986 150.456C344.351 150.705 343.671 150.898 342.946 151.034C342.221 151.17 341.529 151.238 340.872 151.238ZM336.622 140.528H343.456C343.456 139.168 343.173 138.148 342.606 137.468C342.062 136.765 341.246 136.414 340.158 136.414C339.546 136.414 338.968 136.55 338.424 136.822C337.903 137.071 337.472 137.491 337.132 138.08C336.815 138.669 336.645 139.485 336.622 140.528Z" fill="#562F00"/>
<path d="M173.731 176V166.2H177.903C178.463 166.2 178.976 166.34 179.443 166.62C179.919 166.891 180.297 167.264 180.577 167.74C180.857 168.207 180.997 168.734 180.997 169.322C180.997 169.854 180.857 170.349 180.577 170.806C180.297 171.263 179.924 171.632 179.457 171.912C178.99 172.183 178.472 172.318 177.903 172.318H175.243V176H173.731ZM179.555 176L177.063 171.576L178.617 171.226L181.389 176.014L179.555 176ZM175.243 170.862H178.043C178.314 170.862 178.556 170.797 178.771 170.666C178.986 170.526 179.154 170.339 179.275 170.106C179.396 169.863 179.457 169.597 179.457 169.308C179.457 168.981 179.378 168.697 179.219 168.454C179.07 168.202 178.855 168.006 178.575 167.866C178.304 167.726 177.996 167.656 177.651 167.656H175.243V170.862ZM186.224 176.14C185.468 176.14 184.796 175.981 184.208 175.664C183.63 175.337 183.172 174.894 182.836 174.334C182.51 173.774 182.346 173.13 182.346 172.402C182.346 171.823 182.44 171.296 182.626 170.82C182.813 170.344 183.07 169.933 183.396 169.588C183.732 169.233 184.129 168.963 184.586 168.776C185.053 168.58 185.557 168.482 186.098 168.482C186.574 168.482 187.018 168.575 187.428 168.762C187.839 168.939 188.194 169.187 188.492 169.504C188.8 169.821 189.034 170.199 189.192 170.638C189.36 171.067 189.44 171.539 189.43 172.052L189.416 172.668H183.41L183.088 171.52H188.17L187.96 171.758V171.422C187.932 171.114 187.83 170.839 187.652 170.596C187.475 170.353 187.251 170.162 186.98 170.022C186.71 169.882 186.416 169.812 186.098 169.812C185.594 169.812 185.17 169.91 184.824 170.106C184.479 170.293 184.218 170.573 184.04 170.946C183.863 171.31 183.774 171.763 183.774 172.304C183.774 172.817 183.882 173.265 184.096 173.648C184.311 174.021 184.614 174.311 185.006 174.516C185.398 174.721 185.851 174.824 186.364 174.824C186.728 174.824 187.064 174.763 187.372 174.642C187.69 174.521 188.03 174.301 188.394 173.984L189.122 175.006C188.898 175.23 188.623 175.426 188.296 175.594C187.979 175.762 187.638 175.897 187.274 176C186.92 176.093 186.57 176.14 186.224 176.14ZM194.086 176.14C193.405 176.14 192.793 175.972 192.252 175.636C191.72 175.3 191.295 174.843 190.978 174.264C190.67 173.685 190.516 173.037 190.516 172.318C190.516 171.599 190.67 170.951 190.978 170.372C191.295 169.793 191.72 169.336 192.252 169C192.793 168.664 193.405 168.496 194.086 168.496C194.739 168.496 195.332 168.631 195.864 168.902C196.405 169.163 196.816 169.523 197.096 169.98L196.298 170.96C196.149 170.745 195.957 170.549 195.724 170.372C195.491 170.195 195.243 170.055 194.982 169.952C194.721 169.849 194.469 169.798 194.226 169.798C193.778 169.798 193.377 169.91 193.022 170.134C192.677 170.349 192.401 170.647 192.196 171.03C191.991 171.413 191.888 171.842 191.888 172.318C191.888 172.794 191.995 173.223 192.21 173.606C192.425 173.979 192.709 174.278 193.064 174.502C193.419 174.726 193.811 174.838 194.24 174.838C194.492 174.838 194.735 174.796 194.968 174.712C195.211 174.628 195.444 174.502 195.668 174.334C195.892 174.166 196.102 173.961 196.298 173.718L197.096 174.698C196.797 175.118 196.368 175.463 195.808 175.734C195.257 176.005 194.683 176.14 194.086 176.14ZM201.727 176.14C201.008 176.14 200.364 175.977 199.795 175.65C199.235 175.314 198.791 174.861 198.465 174.292C198.138 173.713 197.975 173.055 197.975 172.318C197.975 171.581 198.138 170.927 198.465 170.358C198.791 169.779 199.235 169.327 199.795 169C200.364 168.664 201.008 168.496 201.727 168.496C202.436 168.496 203.071 168.664 203.631 169C204.2 169.327 204.648 169.779 204.975 170.358C205.301 170.927 205.465 171.581 205.465 172.318C205.465 173.055 205.301 173.713 204.975 174.292C204.648 174.861 204.2 175.314 203.631 175.65C203.071 175.977 202.436 176.14 201.727 176.14ZM201.727 174.824C202.165 174.824 202.557 174.717 202.903 174.502C203.248 174.278 203.519 173.979 203.715 173.606C203.911 173.223 204.004 172.794 203.995 172.318C204.004 171.833 203.911 171.403 203.715 171.03C203.519 170.647 203.248 170.349 202.903 170.134C202.557 169.919 202.165 169.812 201.727 169.812C201.288 169.812 200.891 169.924 200.537 170.148C200.191 170.363 199.921 170.661 199.725 171.044C199.529 171.417 199.435 171.842 199.445 172.318C199.435 172.794 199.529 173.223 199.725 173.606C199.921 173.979 200.191 174.278 200.537 174.502C200.891 174.717 201.288 174.824 201.727 174.824ZM207.002 176V168.65H208.458V170.96L208.318 170.4C208.421 170.045 208.594 169.723 208.836 169.434C209.088 169.145 209.373 168.916 209.69 168.748C210.017 168.58 210.353 168.496 210.698 168.496C210.857 168.496 211.006 168.51 211.146 168.538C211.296 168.566 211.412 168.599 211.496 168.636L211.118 170.204C211.006 170.157 210.88 170.12 210.74 170.092C210.61 170.055 210.479 170.036 210.348 170.036C210.096 170.036 209.854 170.087 209.62 170.19C209.396 170.283 209.196 170.419 209.018 170.596C208.85 170.764 208.715 170.965 208.612 171.198C208.51 171.422 208.458 171.669 208.458 171.94V176H207.002ZM215.367 176.14C214.695 176.14 214.093 175.977 213.561 175.65C213.038 175.314 212.623 174.861 212.315 174.292C212.007 173.713 211.853 173.055 211.853 172.318C211.853 171.581 212.002 170.927 212.301 170.358C212.609 169.779 213.024 169.327 213.547 169C214.069 168.664 214.662 168.496 215.325 168.496C215.689 168.496 216.039 168.557 216.375 168.678C216.72 168.79 217.028 168.949 217.299 169.154C217.569 169.35 217.779 169.569 217.929 169.812C218.087 170.045 218.167 170.283 218.167 170.526L217.747 170.554V165.64H219.189V176H217.747V174.25H218.027C218.027 174.474 217.952 174.698 217.803 174.922C217.653 175.137 217.453 175.337 217.201 175.524C216.958 175.711 216.673 175.86 216.347 175.972C216.029 176.084 215.703 176.14 215.367 176.14ZM215.563 174.894C216.001 174.894 216.389 174.782 216.725 174.558C217.061 174.334 217.322 174.031 217.509 173.648C217.705 173.256 217.803 172.813 217.803 172.318C217.803 171.823 217.705 171.385 217.509 171.002C217.322 170.61 217.061 170.302 216.725 170.078C216.389 169.854 216.001 169.742 215.563 169.742C215.124 169.742 214.737 169.854 214.401 170.078C214.065 170.302 213.799 170.61 213.603 171.002C213.416 171.385 213.323 171.823 213.323 172.318C213.323 172.813 213.416 173.256 213.603 173.648C213.799 174.031 214.065 174.334 214.401 174.558C214.737 174.782 215.124 174.894 215.563 174.894ZM228.334 176.14C227.616 176.14 226.972 175.977 226.402 175.65C225.842 175.314 225.399 174.861 225.072 174.292C224.746 173.713 224.582 173.055 224.582 172.318C224.582 171.581 224.746 170.927 225.072 170.358C225.399 169.779 225.842 169.327 226.402 169C226.972 168.664 227.616 168.496 228.334 168.496C229.044 168.496 229.678 168.664 230.238 169C230.808 169.327 231.256 169.779 231.582 170.358C231.909 170.927 232.072 171.581 232.072 172.318C232.072 173.055 231.909 173.713 231.582 174.292C231.256 174.861 230.808 175.314 230.238 175.65C229.678 175.977 229.044 176.14 228.334 176.14ZM228.334 174.824C228.773 174.824 229.165 174.717 229.51 174.502C229.856 174.278 230.126 173.979 230.322 173.606C230.518 173.223 230.612 172.794 230.602 172.318C230.612 171.833 230.518 171.403 230.322 171.03C230.126 170.647 229.856 170.349 229.51 170.134C229.165 169.919 228.773 169.812 228.334 169.812C227.896 169.812 227.499 169.924 227.144 170.148C226.799 170.363 226.528 170.661 226.332 171.044C226.136 171.417 226.043 171.842 226.052 172.318C226.043 172.794 226.136 173.223 226.332 173.606C226.528 173.979 226.799 174.278 227.144 174.502C227.499 174.717 227.896 174.824 228.334 174.824ZM233.61 176V168.65H235.066V170.96L234.926 170.4C235.029 170.045 235.201 169.723 235.444 169.434C235.696 169.145 235.981 168.916 236.298 168.748C236.625 168.58 236.961 168.496 237.306 168.496C237.465 168.496 237.614 168.51 237.754 168.538C237.903 168.566 238.02 168.599 238.104 168.636L237.726 170.204C237.614 170.157 237.488 170.12 237.348 170.092C237.217 170.055 237.087 170.036 236.956 170.036C236.704 170.036 236.461 170.087 236.228 170.19C236.004 170.283 235.803 170.419 235.626 170.596C235.458 170.764 235.323 170.965 235.22 171.198C235.117 171.422 235.066 171.669 235.066 171.94V176H233.61ZM246.403 179.22C245.88 179.22 245.358 179.136 244.835 178.968C244.322 178.809 243.906 178.599 243.589 178.338L244.121 177.218C244.308 177.358 244.527 177.479 244.779 177.582C245.031 177.694 245.297 177.778 245.577 177.834C245.857 177.899 246.132 177.932 246.403 177.932C246.916 177.932 247.346 177.848 247.691 177.68C248.036 177.512 248.298 177.265 248.475 176.938C248.652 176.611 248.741 176.205 248.741 175.72V174.306L248.895 174.404C248.848 174.693 248.694 174.973 248.433 175.244C248.181 175.505 247.864 175.72 247.481 175.888C247.098 176.056 246.706 176.14 246.305 176.14C245.605 176.14 244.98 175.977 244.429 175.65C243.888 175.314 243.458 174.861 243.141 174.292C242.824 173.713 242.665 173.055 242.665 172.318C242.665 171.581 242.819 170.927 243.127 170.358C243.444 169.779 243.874 169.327 244.415 169C244.966 168.664 245.582 168.496 246.263 168.496C246.543 168.496 246.814 168.533 247.075 168.608C247.336 168.673 247.579 168.771 247.803 168.902C248.027 169.023 248.228 169.159 248.405 169.308C248.582 169.457 248.727 169.616 248.839 169.784C248.951 169.952 249.021 170.111 249.049 170.26L248.741 170.372V168.65H250.183V175.552C250.183 176.14 250.094 176.658 249.917 177.106C249.749 177.563 249.502 177.946 249.175 178.254C248.848 178.571 248.452 178.809 247.985 178.968C247.518 179.136 246.991 179.22 246.403 179.22ZM246.459 174.81C246.916 174.81 247.322 174.703 247.677 174.488C248.032 174.273 248.307 173.979 248.503 173.606C248.699 173.233 248.797 172.803 248.797 172.318C248.797 171.833 248.694 171.403 248.489 171.03C248.293 170.647 248.018 170.349 247.663 170.134C247.318 169.919 246.916 169.812 246.459 169.812C246.011 169.812 245.61 169.924 245.255 170.148C244.91 170.363 244.634 170.661 244.429 171.044C244.233 171.417 244.135 171.842 244.135 172.318C244.135 172.794 244.233 173.223 244.429 173.606C244.634 173.979 244.91 174.273 245.255 174.488C245.61 174.703 246.011 174.81 246.459 174.81ZM255.601 176.14C254.845 176.14 254.173 175.981 253.585 175.664C253.007 175.337 252.549 174.894 252.213 174.334C251.887 173.774 251.723 173.13 251.723 172.402C251.723 171.823 251.817 171.296 252.003 170.82C252.19 170.344 252.447 169.933 252.773 169.588C253.109 169.233 253.506 168.963 253.963 168.776C254.43 168.58 254.934 168.482 255.475 168.482C255.951 168.482 256.395 168.575 256.805 168.762C257.216 168.939 257.571 169.187 257.869 169.504C258.177 169.821 258.411 170.199 258.569 170.638C258.737 171.067 258.817 171.539 258.807 172.052L258.793 172.668H252.787L252.465 171.52H257.547L257.337 171.758V171.422C257.309 171.114 257.207 170.839 257.029 170.596C256.852 170.353 256.628 170.162 256.357 170.022C256.087 169.882 255.793 169.812 255.475 169.812C254.971 169.812 254.547 169.91 254.201 170.106C253.856 170.293 253.595 170.573 253.417 170.946C253.24 171.31 253.151 171.763 253.151 172.304C253.151 172.817 253.259 173.265 253.473 173.648C253.688 174.021 253.991 174.311 254.383 174.516C254.775 174.721 255.228 174.824 255.741 174.824C256.105 174.824 256.441 174.763 256.749 174.642C257.067 174.521 257.407 174.301 257.771 173.984L258.499 175.006C258.275 175.23 258 175.426 257.673 175.594C257.356 175.762 257.015 175.897 256.651 176C256.297 176.093 255.947 176.14 255.601 176.14ZM260.341 176V168.65H261.783V170.162L261.531 170.33C261.624 170.003 261.806 169.705 262.077 169.434C262.348 169.154 262.67 168.93 263.043 168.762C263.416 168.585 263.799 168.496 264.191 168.496C264.751 168.496 265.218 168.608 265.591 168.832C265.964 169.047 266.244 169.378 266.431 169.826C266.618 170.274 266.711 170.839 266.711 171.52V176H265.269V171.618C265.269 171.198 265.213 170.853 265.101 170.582C264.989 170.302 264.816 170.101 264.583 169.98C264.35 169.849 264.06 169.793 263.715 169.812C263.435 169.812 263.178 169.859 262.945 169.952C262.712 170.036 262.506 170.157 262.329 170.316C262.161 170.475 262.026 170.661 261.923 170.876C261.83 171.081 261.783 171.305 261.783 171.548V176H261.069C260.948 176 260.826 176 260.705 176C260.584 176 260.462 176 260.341 176ZM272.063 176.14C271.307 176.14 270.635 175.981 270.047 175.664C269.469 175.337 269.011 174.894 268.675 174.334C268.349 173.774 268.185 173.13 268.185 172.402C268.185 171.823 268.279 171.296 268.465 170.82C268.652 170.344 268.909 169.933 269.235 169.588C269.571 169.233 269.968 168.963 270.425 168.776C270.892 168.58 271.396 168.482 271.937 168.482C272.413 168.482 272.857 168.575 273.267 168.762C273.678 168.939 274.033 169.187 274.331 169.504C274.639 169.821 274.873 170.199 275.031 170.638C275.199 171.067 275.279 171.539 275.269 172.052L275.255 172.668H269.249L268.927 171.52H274.009L273.799 171.758V171.422C273.771 171.114 273.669 170.839 273.491 170.596C273.314 170.353 273.09 170.162 272.819 170.022C272.549 169.882 272.255 169.812 271.937 169.812C271.433 169.812 271.009 169.91 270.663 170.106C270.318 170.293 270.057 170.573 269.879 170.946C269.702 171.31 269.613 171.763 269.613 172.304C269.613 172.817 269.721 173.265 269.935 173.648C270.15 174.021 270.453 174.311 270.845 174.516C271.237 174.721 271.69 174.824 272.203 174.824C272.567 174.824 272.903 174.763 273.211 174.642C273.529 174.521 273.869 174.301 274.233 173.984L274.961 175.006C274.737 175.23 274.462 175.426 274.135 175.594C273.818 175.762 273.477 175.897 273.113 176C272.759 176.093 272.409 176.14 272.063 176.14ZM276.803 176V168.65H278.259V170.96L278.119 170.4C278.222 170.045 278.394 169.723 278.637 169.434C278.889 169.145 279.174 168.916 279.491 168.748C279.818 168.58 280.154 168.496 280.499 168.496C280.658 168.496 280.807 168.51 280.947 168.538C281.096 168.566 281.213 168.599 281.297 168.636L280.919 170.204C280.807 170.157 280.681 170.12 280.541 170.092C280.41 170.055 280.28 170.036 280.149 170.036C279.897 170.036 279.654 170.087 279.421 170.19C279.197 170.283 278.996 170.419 278.819 170.596C278.651 170.764 278.516 170.965 278.413 171.198C278.31 171.422 278.259 171.669 278.259 171.94V176H276.803ZM284.929 176.14C284.323 176.14 283.767 175.972 283.263 175.636C282.769 175.3 282.372 174.843 282.073 174.264C281.775 173.685 281.625 173.032 281.625 172.304C281.625 171.567 281.775 170.913 282.073 170.344C282.381 169.765 282.792 169.313 283.305 168.986C283.828 168.659 284.411 168.496 285.055 168.496C285.438 168.496 285.788 168.552 286.105 168.664C286.423 168.776 286.698 168.935 286.931 169.14C287.174 169.336 287.37 169.565 287.519 169.826C287.678 170.087 287.776 170.367 287.813 170.666L287.491 170.554V168.65H288.947V176H287.491V174.25L287.827 174.152C287.771 174.404 287.655 174.651 287.477 174.894C287.309 175.127 287.09 175.337 286.819 175.524C286.558 175.711 286.264 175.86 285.937 175.972C285.62 176.084 285.284 176.14 284.929 176.14ZM285.307 174.81C285.746 174.81 286.133 174.703 286.469 174.488C286.805 174.273 287.067 173.979 287.253 173.606C287.449 173.223 287.547 172.789 287.547 172.304C287.547 171.828 287.449 171.403 287.253 171.03C287.067 170.657 286.805 170.363 286.469 170.148C286.133 169.933 285.746 169.826 285.307 169.826C284.878 169.826 284.495 169.933 284.159 170.148C283.833 170.363 283.571 170.657 283.375 171.03C283.189 171.403 283.095 171.828 283.095 172.304C283.095 172.789 283.189 173.223 283.375 173.606C283.571 173.979 283.833 174.273 284.159 174.488C284.495 174.703 284.878 174.81 285.307 174.81ZM291.837 176V166.774H293.279V176H291.837ZM290.311 170.05V168.65H294.987V170.05H290.311ZM299.628 176.14C298.872 176.14 298.2 175.981 297.612 175.664C297.034 175.337 296.576 174.894 296.24 174.334C295.914 173.774 295.75 173.13 295.75 172.402C295.75 171.823 295.844 171.296 296.03 170.82C296.217 170.344 296.474 169.933 296.8 169.588C297.136 169.233 297.533 168.963 297.99 168.776C298.457 168.58 298.961 168.482 299.502 168.482C299.978 168.482 300.422 168.575 300.832 168.762C301.243 168.939 301.598 169.187 301.896 169.504C302.204 169.821 302.438 170.199 302.596 170.638C302.764 171.067 302.844 171.539 302.834 172.052L302.82 172.668H296.814L296.492 171.52H301.574L301.364 171.758V171.422C301.336 171.114 301.234 170.839 301.056 170.596C300.879 170.353 300.655 170.162 300.384 170.022C300.114 169.882 299.82 169.812 299.502 169.812C298.998 169.812 298.574 169.91 298.228 170.106C297.883 170.293 297.622 170.573 297.444 170.946C297.267 171.31 297.178 171.763 297.178 172.304C297.178 172.817 297.286 173.265 297.5 173.648C297.715 174.021 298.018 174.311 298.41 174.516C298.802 174.721 299.255 174.824 299.768 174.824C300.132 174.824 300.468 174.763 300.776 174.642C301.094 174.521 301.434 174.301 301.798 173.984L302.526 175.006C302.302 175.23 302.027 175.426 301.7 175.594C301.383 175.762 301.042 175.897 300.678 176C300.324 176.093 299.974 176.14 299.628 176.14ZM308.286 176V165.64H309.728V176H308.286ZM315.031 176.14C314.275 176.14 313.603 175.981 313.015 175.664C312.437 175.337 311.979 174.894 311.643 174.334C311.317 173.774 311.153 173.13 311.153 172.402C311.153 171.823 311.247 171.296 311.433 170.82C311.62 170.344 311.877 169.933 312.203 169.588C312.539 169.233 312.936 168.963 313.393 168.776C313.86 168.58 314.364 168.482 314.905 168.482C315.381 168.482 315.825 168.575 316.235 168.762C316.646 168.939 317.001 169.187 317.299 169.504C317.607 169.821 317.841 170.199 317.999 170.638C318.167 171.067 318.247 171.539 318.237 172.052L318.223 172.668H312.217L311.895 171.52H316.977L316.767 171.758V171.422C316.739 171.114 316.637 170.839 316.459 170.596C316.282 170.353 316.058 170.162 315.787 170.022C315.517 169.882 315.223 169.812 314.905 169.812C314.401 169.812 313.977 169.91 313.631 170.106C313.286 170.293 313.025 170.573 312.847 170.946C312.67 171.31 312.581 171.763 312.581 172.304C312.581 172.817 312.689 173.265 312.903 173.648C313.118 174.021 313.421 174.311 313.813 174.516C314.205 174.721 314.658 174.824 315.171 174.824C315.535 174.824 315.871 174.763 316.179 174.642C316.497 174.521 316.837 174.301 317.201 173.984L317.929 175.006C317.705 175.23 317.43 175.426 317.103 175.594C316.786 175.762 316.445 175.897 316.081 176C315.727 176.093 315.377 176.14 315.031 176.14ZM322.221 176.14C321.605 176.14 321.05 176.033 320.555 175.818C320.06 175.603 319.65 175.286 319.323 174.866L320.303 174.026C320.583 174.353 320.886 174.591 321.213 174.74C321.549 174.88 321.927 174.95 322.347 174.95C322.515 174.95 322.669 174.931 322.809 174.894C322.958 174.847 323.084 174.782 323.187 174.698C323.299 174.614 323.383 174.516 323.439 174.404C323.495 174.283 323.523 174.152 323.523 174.012C323.523 173.769 323.434 173.573 323.257 173.424C323.164 173.359 323.014 173.289 322.809 173.214C322.613 173.13 322.356 173.046 322.039 172.962C321.498 172.822 321.054 172.663 320.709 172.486C320.364 172.309 320.098 172.108 319.911 171.884C319.771 171.707 319.668 171.515 319.603 171.31C319.538 171.095 319.505 170.862 319.505 170.61C319.505 170.302 319.57 170.022 319.701 169.77C319.841 169.509 320.028 169.285 320.261 169.098C320.504 168.902 320.784 168.753 321.101 168.65C321.428 168.547 321.773 168.496 322.137 168.496C322.482 168.496 322.823 168.543 323.159 168.636C323.504 168.729 323.822 168.865 324.111 169.042C324.4 169.219 324.643 169.429 324.839 169.672L324.013 170.582C323.836 170.405 323.64 170.251 323.425 170.12C323.22 169.98 323.01 169.873 322.795 169.798C322.58 169.723 322.384 169.686 322.207 169.686C322.011 169.686 321.834 169.705 321.675 169.742C321.516 169.779 321.381 169.835 321.269 169.91C321.166 169.985 321.087 170.078 321.031 170.19C320.975 170.302 320.947 170.428 320.947 170.568C320.956 170.689 320.984 170.806 321.031 170.918C321.087 171.021 321.162 171.109 321.255 171.184C321.358 171.259 321.512 171.338 321.717 171.422C321.922 171.506 322.184 171.585 322.501 171.66C322.968 171.781 323.35 171.917 323.649 172.066C323.957 172.206 324.2 172.369 324.377 172.556C324.564 172.733 324.694 172.939 324.769 173.172C324.844 173.405 324.881 173.667 324.881 173.956C324.881 174.376 324.76 174.754 324.517 175.09C324.284 175.417 323.966 175.673 323.565 175.86C323.164 176.047 322.716 176.14 322.221 176.14ZM328.887 176.14C328.271 176.14 327.715 176.033 327.221 175.818C326.726 175.603 326.315 175.286 325.989 174.866L326.969 174.026C327.249 174.353 327.552 174.591 327.879 174.74C328.215 174.88 328.593 174.95 329.013 174.95C329.181 174.95 329.335 174.931 329.475 174.894C329.624 174.847 329.75 174.782 329.853 174.698C329.965 174.614 330.049 174.516 330.105 174.404C330.161 174.283 330.189 174.152 330.189 174.012C330.189 173.769 330.1 173.573 329.923 173.424C329.829 173.359 329.68 173.289 329.475 173.214C329.279 173.13 329.022 173.046 328.705 172.962C328.163 172.822 327.72 172.663 327.375 172.486C327.029 172.309 326.763 172.108 326.577 171.884C326.437 171.707 326.334 171.515 326.269 171.31C326.203 171.095 326.171 170.862 326.171 170.61C326.171 170.302 326.236 170.022 326.367 169.77C326.507 169.509 326.693 169.285 326.927 169.098C327.169 168.902 327.449 168.753 327.767 168.65C328.093 168.547 328.439 168.496 328.803 168.496C329.148 168.496 329.489 168.543 329.825 168.636C330.17 168.729 330.487 168.865 330.777 169.042C331.066 169.219 331.309 169.429 331.505 169.672L330.679 170.582C330.501 170.405 330.305 170.251 330.091 170.12C329.885 169.98 329.675 169.873 329.461 169.798C329.246 169.723 329.05 169.686 328.873 169.686C328.677 169.686 328.499 169.705 328.341 169.742C328.182 169.779 328.047 169.835 327.935 169.91C327.832 169.985 327.753 170.078 327.697 170.19C327.641 170.302 327.613 170.428 327.613 170.568C327.622 170.689 327.65 170.806 327.697 170.918C327.753 171.021 327.827 171.109 327.921 171.184C328.023 171.259 328.177 171.338 328.383 171.422C328.588 171.506 328.849 171.585 329.167 171.66C329.633 171.781 330.016 171.917 330.315 172.066C330.623 172.206 330.865 172.369 331.043 172.556C331.229 172.733 331.36 172.939 331.435 173.172C331.509 173.405 331.547 173.667 331.547 173.956C331.547 174.376 331.425 174.754 331.183 175.09C330.949 175.417 330.632 175.673 330.231 175.86C329.829 176.047 329.381 176.14 328.887 176.14ZM336.406 176.14C335.687 176.14 335.043 175.977 334.474 175.65C333.914 175.314 333.471 174.861 333.144 174.292C332.817 173.713 332.654 173.055 332.654 172.318C332.654 171.581 332.817 170.927 333.144 170.358C333.471 169.779 333.914 169.327 334.474 169C335.043 168.664 335.687 168.496 336.406 168.496C337.115 168.496 337.75 168.664 338.31 169C338.879 169.327 339.327 169.779 339.654 170.358C339.981 170.927 340.144 171.581 340.144 172.318C340.144 173.055 339.981 173.713 339.654 174.292C339.327 174.861 338.879 175.314 338.31 175.65C337.75 175.977 337.115 176.14 336.406 176.14ZM336.406 174.824C336.845 174.824 337.237 174.717 337.582 174.502C337.927 174.278 338.198 173.979 338.394 173.606C338.59 173.223 338.683 172.794 338.674 172.318C338.683 171.833 338.59 171.403 338.394 171.03C338.198 170.647 337.927 170.349 337.582 170.134C337.237 169.919 336.845 169.812 336.406 169.812C335.967 169.812 335.571 169.924 335.216 170.148C334.871 170.363 334.6 170.661 334.404 171.044C334.208 171.417 334.115 171.842 334.124 172.318C334.115 172.794 334.208 173.223 334.404 173.606C334.6 173.979 334.871 174.278 335.216 174.502C335.571 174.717 335.967 174.824 336.406 174.824ZM341.682 176V168.65H343.124V170.162L342.872 170.33C342.965 170.003 343.147 169.705 343.418 169.434C343.688 169.154 344.01 168.93 344.384 168.762C344.757 168.585 345.14 168.496 345.532 168.496C346.092 168.496 346.558 168.608 346.932 168.832C347.305 169.047 347.585 169.378 347.772 169.826C347.958 170.274 348.052 170.839 348.052 171.52V176H346.61V171.618C346.61 171.198 346.554 170.853 346.442 170.582C346.33 170.302 346.157 170.101 345.924 169.98C345.69 169.849 345.401 169.793 345.056 169.812C344.776 169.812 344.519 169.859 344.286 169.952C344.052 170.036 343.847 170.157 343.67 170.316C343.502 170.475 343.366 170.661 343.264 170.876C343.17 171.081 343.124 171.305 343.124 171.548V176H342.41C342.288 176 342.167 176 342.046 176C341.924 176 341.803 176 341.682 176Z" fill="#8A7B6A"/>
<defs>
<filter id="filter0_dd_285_1429" x="37.5" y="42" width="97" height="111" filterUnits="userSpaceOnUse" color-interpolation-filters="sRGB">
<feFlood flood-opacity="0" result="BackgroundImageFix"/>
<feColorMatrix in="SourceAlpha" type="matrix" values="0 0 0 0 0 0 0 0 0 0 0 0 0 0 0 0 0 0 127 0" result="hardAlpha"/>
<feMorphology radius="1" operator="dilate" in="SourceAlpha" result="effect1_dropShadow_285_1429"/>
<feOffset dy="1"/>
<feGaussianBlur stdDeviation="1.5"/>
<feColorMatrix type="matrix" values="0 0 0 0 0 0 0 0 0 0 0 0 0 0 0 0 0 0 0.15 0"/>
<feBlend mode="normal" in2="BackgroundImageFix" result="effect1_dropShadow_285_1429"/>
<feColorMatrix in="SourceAlpha" type="matrix" values="0 0 0 0 0 0 0 0 0 0 0 0 0 0 0 0 0 0 127 0" result="hardAlpha"/>
<feOffset dy="1"/>
<feGaussianBlur stdDeviation="1"/>
<feColorMatrix type="matrix" values="0 0 0 0 0 0 0 0 0 0 0 0 0 0 0 0 0 0 0.3 0"/>
<feBlend mode="normal" in2="effect1_dropShadow_285_1429" result="effect2_dropShadow_285_1429"/>
<feBlend mode="normal" in="SourceGraphic" in2="effect2_dropShadow_285_1429" result="shape"/>
</filter>
</defs>
</svg>
