<svg width="393" height="547" viewBox="0 0 393 547" fill="none" xmlns="http://www.w3.org/2000/svg">
  <rect width="393" height="547" fill="#FDF7E2"/>

  <!-- Outermost ring -->
  <mask id="path-1-inside-1" fill="white">
    <path d="M-170 547C-170 498.805 -160.507 451.082 -142.064 406.555C-123.62 362.029 -96.5872 321.571 -62.508 287.492C-28.4288 253.413 12.029 226.38 56.5555 207.936C101.082 189.493 148.805 180 197 180C245.196 180 292.919 189.493 337.445 207.936C381.972 226.38 422.43 253.413 456.509 287.492C490.588 321.572 517.621 362.029 536.064 406.556C554.508 451.083 564 498.806 564 547.001L197 547L-170 547Z"/>
  </mask>
  <path d="M-170 547C-170 498.805 -160.507 451.082 -142.064 406.555C-123.62 362.029 -96.5872 321.571 -62.508 287.492C-28.4288 253.413 12.029 226.38 56.5555 207.936C101.082 189.493 148.805 180 197 180C245.196 180 292.919 189.493 337.445 207.936C381.972 226.38 422.43 253.413 456.509 287.492C490.588 321.572 517.621 362.029 536.064 406.556C554.508 451.083 564 498.806 564 547.001L197 547L-170 547Z" stroke="#F2E9DC" stroke-width="2" mask="url(#path-1-inside-1)"/>

  <!-- Second ring -->
  <mask id="path-2-inside-2" fill="white">
    <path d="M-108 547C-108 506.947 -100.111 467.286 -84.7832 430.281C-69.4555 393.277 -46.9893 359.654 -18.6674 331.332C9.6545 303.01 43.2775 280.544 80.2818 265.217C117.286 249.889 156.947 242 197 242C237.054 242 276.715 249.889 313.719 265.217C350.723 280.545 384.346 303.011 412.668 331.333C440.99 359.655 463.456 393.278 478.784 430.282C494.111 467.287 502 506.948 502 547.001L197 547L-108 547Z"/>
  </mask>
  <path d="M-108 547C-108 506.947 -100.111 467.286 -84.7832 430.281C-69.4555 393.277 -46.9893 359.654 -18.6674 331.332C9.6545 303.01 43.2775 280.544 80.2818 265.217C117.286 249.889 156.947 242 197 242C237.054 242 276.715 249.889 313.719 265.217C350.723 280.545 384.346 303.011 412.668 331.333C440.99 359.655 463.456 393.278 478.784 430.282C494.111 467.287 502 506.948 502 547.001L197 547L-108 547Z" stroke="#F2E9DC" stroke-width="2" mask="url(#path-2-inside-2)"/>

  <!-- Third ring -->
  <mask id="path-3-inside-3" fill="white">
    <path d="M-46 547C-46 515.089 -39.7146 483.49 -27.5027 454.008C-15.2908 424.526 2.6085 397.738 25.1732 375.173C47.7378 352.608 74.526 334.709 104.008 322.497C133.49 310.285 165.089 304 197 304C228.912 304 260.51 310.285 289.992 322.497C319.475 334.709 346.263 352.609 368.827 375.173C391.392 397.738 409.291 424.526 421.503 454.008C433.715 483.491 440 515.089 440 547.001L197 547L-46 547Z"/>
  </mask>
  <path d="M-46 547C-46 515.089 -39.7146 483.49 -27.5027 454.008C-15.2908 424.526 2.6085 397.738 25.1732 375.173C47.7378 352.608 74.526 334.709 104.008 322.497C133.49 310.285 165.089 304 197 304C228.912 304 260.51 310.285 289.992 322.497C319.475 334.709 346.263 352.609 368.827 375.173C391.392 397.738 409.291 424.526 421.503 454.008C433.715 483.491 440 515.089 440 547.001L197 547L-46 547Z" stroke="#F2E9DC" stroke-width="2" mask="url(#path-3-inside-3)"/>

  <!-- Fourth ring -->
  <mask id="path-4-inside-4" fill="white">
    <path d="M17 547C17 523.231 21.6817 499.694 30.7778 477.734C39.8739 455.774 53.2063 435.821 70.0138 419.014C86.8212 402.206 106.775 388.874 128.734 379.778C150.694 370.682 174.231 366 198 366C221.77 366 245.306 370.682 267.266 379.778C289.226 388.874 309.179 402.206 325.987 419.014C342.794 435.821 356.126 455.775 365.222 477.735C374.318 499.695 379 523.231 379 547L198 547L17 547Z"/>
  </mask>
  <path d="M17 547C17 523.231 21.6817 499.694 30.7778 477.734C39.8739 455.774 53.2063 435.821 70.0138 419.014C86.8212 402.206 106.775 388.874 128.734 379.778C150.694 370.682 174.231 366 198 366C221.77 366 245.306 370.682 267.266 379.778C289.226 388.874 309.179 402.206 325.987 419.014C342.794 435.821 356.126 455.775 365.222 477.735C374.318 499.695 379 523.231 379 547L198 547L17 547Z" stroke="#F2E9DC" stroke-width="2" mask="url(#path-4-inside-4)"/>

  <!-- Innermost filled ring -->
  <mask id="path-5-inside-5" fill="white">
    <path d="M78 547C78 531.373 81.078 515.898 87.0584 501.461C93.0387 487.023 101.804 473.904 112.854 462.854C123.905 451.804 137.023 443.039 151.461 437.058C165.899 431.078 181.373 428 197 428C212.627 428 228.102 431.078 242.54 437.058C256.977 443.039 270.096 451.804 281.146 462.854C292.196 473.905 300.961 487.023 306.942 501.461C312.922 515.899 316 531.373 316 547L197 547L78 547Z"/>
  </mask>
  <path d="M78 547C78 531.373 81.078 515.898 87.0584 501.461C93.0387 487.023 101.804 473.904 112.854 462.854C123.905 451.804 137.023 443.039 151.461 437.058C165.899 431.078 181.373 428 197 428C212.627 428 228.102 431.078 242.54 437.058C256.977 443.039 270.096 451.804 281.146 462.854C292.196 473.905 300.961 487.023 306.942 501.461C312.922 515.899 316 531.373 316 547L197 547L78 547Z" fill="#FFFCF1" stroke="#F2E9DC" stroke-width="2" mask="url(#path-5-inside-5)"/>
</svg>
