<svg width="56" height="56" viewBox="0 0 56 56" fill="none" xmlns="http://www.w3.org/2000/svg">
<rect x="0.5" y="0.5" width="55" height="55" rx="23.5" fill="#FEFDF0"/>
<rect x="0.5" y="0.5" width="55" height="55" rx="23.5" stroke="#F2E9DD"/>
<path d="M14 23.9556C14 20.4708 14 18.7284 14.6782 17.3974C15.2747 16.2266 16.2266 15.2747 17.3974 14.6782C18.7284 14 20.4708 14 23.9556 14H32.0444C35.5292 14 37.2716 14 38.6026 14.6782C39.7734 15.2747 40.7253 16.2266 41.3218 17.3974C42 18.7284 42 20.4708 42 23.9556V32.0444C42 35.5292 42 37.2716 41.3218 38.6026C40.7253 39.7734 39.7734 40.7253 38.6026 41.3218C37.2716 42 35.5292 42 32.0444 42H23.9556C20.4708 42 18.7284 42 17.3974 41.3218C16.2266 40.7253 15.2747 39.7734 14.6782 38.6026C14 37.2716 14 35.5292 14 32.0444V23.9556Z" fill="white"/>
<path d="M34.0525 20.5234L28.0654 25.1959L21.9414 20.5234V20.5247L21.9488 20.531V27.0737L27.9963 31.8471L34.0525 27.258V20.5234Z" fill="#EA4335"/>
<path d="M35.6231 19.3864L34.0508 20.5229V27.2575L38.9983 23.459V21.1707C38.9983 21.1707 38.3978 17.9026 35.6231 19.3864Z" fill="#FBBC05"/>
<path d="M34.0508 27.2575V35.9924H37.8428C37.8428 35.9924 38.9219 35.8813 38.9995 34.6513V23.459L34.0508 27.2575Z" fill="#34A853"/>
<path d="M21.9491 35.9996V27.0727L21.9414 27.0664L21.9491 35.9996Z" fill="#C5221F"/>
<path d="M21.9401 20.5245L20.3765 19.3943C17.6018 17.9105 17 21.1774 17 21.1774V23.4656L21.9401 27.0672V20.5245Z" fill="#C5221F"/>
<path d="M21.9414 20.5234V27.0661L21.9491 27.0724V20.5298L21.9414 20.5234Z" fill="#C5221F"/>
<path d="M17 23.4668V34.6591C17.0765 35.8904 18.1567 36.0003 18.1567 36.0003H21.9488L21.9401 27.0671L17 23.4668Z" fill="#4285F4"/>
</svg>
