<svg width="196" height="169" viewBox="0 0 196 169" fill="none" xmlns="http://www.w3.org/2000/svg">
<rect width="196" height="169" rx="4" fill="#F2E9DC"/>
<g filter="url(#filter0_dd_285_1443)">
<path d="M100.9 35.1094C106.202 35.1096 110.5 39.4074 110.5 44.709V124.51C110.5 129.811 106.202 134.109 100.9 134.109H59.0996C53.798 134.109 49.5002 129.811 49.5 124.51V44.709C49.5002 39.4074 53.798 35.1096 59.0996 35.1094H100.9Z" fill="white" stroke="white" stroke-width="4" stroke-linecap="round"/>
<path d="M130.789 68.9082C130.789 66.9087 133.116 65.858 134.611 67.0977L134.753 67.2246L145.404 77.5029C146.746 78.7974 146.776 80.9373 145.471 82.2686L134.799 93.1543C133.332 94.6501 130.789 93.6116 130.789 91.5166V86.2832C123.365 86.3871 117.856 87.0541 113.021 88.5918C108.069 90.167 103.701 92.6944 98.6494 96.6738C97.6168 97.4872 96.3581 97.2196 95.6416 96.584C94.9199 95.9435 94.5009 94.7049 95.2188 93.5781L95.9941 92.377C99.8647 86.464 103.685 81.9246 108.929 78.8721C114.413 75.6795 121.219 74.2463 130.789 74.1826V68.9082Z" fill="white" stroke="white" stroke-width="4" stroke-linecap="round"/>
<path d="M51.5 44.7094C51.5 40.512 54.9026 37.1094 59.1 37.1094H100.9C105.097 37.1094 108.5 40.512 108.5 44.7094V124.509C108.5 128.707 105.097 132.109 100.9 132.109H59.1C54.9026 132.109 51.5 128.707 51.5 124.509V44.7094Z" fill="#FFCE99"/>
<path d="M72.4 118.809H87.6M59.1 132.109H100.9C105.097 132.109 108.5 128.707 108.5 124.509V44.7094C108.5 40.512 105.097 37.1094 100.9 37.1094H59.1C54.9026 37.1094 51.5 40.512 51.5 44.7094V124.509C51.5 128.707 54.9026 132.109 59.1 132.109Z" stroke="#FE7500" stroke-width="3" stroke-linecap="round"/>
<path d="M96.4056 94.6526C96.1996 94.9759 96.6111 95.3402 96.9122 95.103C107.265 86.9465 115.228 84.4229 130.928 84.2747C131.678 84.2677 132.289 84.876 132.289 85.6258V91.5165C132.289 91.8203 132.658 91.9709 132.871 91.7539L143.543 80.8681C144.07 80.33 144.058 79.4652 143.516 78.942L132.864 68.6639C132.649 68.4561 132.289 68.6087 132.289 68.908V74.8149C132.289 75.5708 131.663 76.1798 130.907 76.1802C111.46 76.191 104.595 81.7992 96.4056 94.6526Z" fill="#FECE99"/>
<path d="M114.652 73.1589H89.2135C87.7149 73.1589 86.5 74.3737 86.5 75.8723V99.3959C86.5 100.895 87.7149 102.109 89.2135 102.109H115.787C117.285 102.109 118.5 100.895 118.5 99.3959L118.5 89.6094M132.289 74.8149V68.908C132.289 68.6087 132.649 68.4561 132.864 68.6639L143.516 78.942C144.058 79.4652 144.07 80.33 143.543 80.8681L132.871 91.7539C132.658 91.9709 132.289 91.8203 132.289 91.5165V85.6258C132.289 84.876 131.678 84.2677 130.928 84.2747C115.228 84.4229 107.265 86.9465 96.9122 95.103C96.6111 95.3402 96.1996 94.9759 96.4056 94.6526C104.595 81.7992 111.46 76.191 130.907 76.1802C131.663 76.1798 132.289 75.5708 132.289 74.8149Z" stroke="#FE7500" stroke-width="3" stroke-linecap="round"/>
</g>
<defs>
<filter id="filter0_dd_285_1443" x="43" y="29.5" width="110" height="112" filterUnits="userSpaceOnUse" color-interpolation-filters="sRGB">
<feFlood flood-opacity="0" result="BackgroundImageFix"/>
<feColorMatrix in="SourceAlpha" type="matrix" values="0 0 0 0 0 0 0 0 0 0 0 0 0 0 0 0 0 0 127 0" result="hardAlpha"/>
<feMorphology radius="1" operator="dilate" in="SourceAlpha" result="effect1_dropShadow_285_1443"/>
<feOffset dy="1"/>
<feGaussianBlur stdDeviation="1.5"/>
<feColorMatrix type="matrix" values="0 0 0 0 0 0 0 0 0 0 0 0 0 0 0 0 0 0 0.15 0"/>
<feBlend mode="normal" in2="BackgroundImageFix" result="effect1_dropShadow_285_1443"/>
<feColorMatrix in="SourceAlpha" type="matrix" values="0 0 0 0 0 0 0 0 0 0 0 0 0 0 0 0 0 0 127 0" result="hardAlpha"/>
<feOffset dy="1"/>
<feGaussianBlur stdDeviation="1"/>
<feColorMatrix type="matrix" values="0 0 0 0 0 0 0 0 0 0 0 0 0 0 0 0 0 0 0.3 0"/>
<feBlend mode="normal" in2="effect1_dropShadow_285_1443" result="effect2_dropShadow_285_1443"/>
<feBlend mode="normal" in="SourceGraphic" in2="effect2_dropShadow_285_1443" result="shape"/>
</filter>
</defs>
</svg>
