<svg width="361" height="127" viewBox="0 0 361 127" fill="none" xmlns="http://www.w3.org/2000/svg">
<path d="M22.2271 68.068C21.6151 68.068 21.1618 67.9887 20.8671 67.83C20.5951 67.6487 20.4591 67.3993 20.4591 67.082V48.008H14.6451C14.0558 48.008 13.7611 47.5207 13.7611 46.546V45.662C13.7611 44.6873 14.0558 44.2 14.6451 44.2H30.6931C31.3051 44.2 31.6111 44.6873 31.6111 45.662V46.546C31.6111 47.5207 31.3051 48.008 30.6931 48.008H24.9471V67.082C24.9471 67.3993 24.8111 67.6487 24.5391 67.83C24.2671 67.9887 23.8138 68.068 23.1791 68.068H22.2271ZM34.1344 68.068C33.4998 68.068 33.0351 67.9887 32.7404 67.83C32.4684 67.6487 32.3324 67.3993 32.3324 67.082V55.862C32.3324 54.8873 32.2984 54.1053 32.2304 53.516C32.1851 52.904 32.1284 52.428 32.0604 52.088C32.0151 51.748 31.9924 51.476 31.9924 51.272C31.9924 51.068 32.1171 50.898 32.3664 50.762C32.6384 50.626 32.9558 50.524 33.3184 50.456C33.7038 50.388 34.0664 50.3427 34.4064 50.32C34.7691 50.2747 35.0411 50.252 35.2224 50.252C35.4718 50.252 35.6644 50.32 35.8004 50.456C35.9364 50.592 36.0498 50.8413 36.1404 51.204C36.2538 51.5667 36.3671 52.0993 36.4804 52.802C36.7298 52.2127 37.0584 51.714 37.4664 51.306C37.8744 50.8753 38.3278 50.5467 38.8264 50.32C39.3251 50.0933 39.8351 49.98 40.3564 49.98C40.9231 49.98 41.2971 50.0933 41.4784 50.32C41.6824 50.5467 41.7844 50.8867 41.7844 51.34C41.7844 51.544 41.7618 51.816 41.7164 52.156C41.6938 52.496 41.6371 52.8473 41.5464 53.21C41.4558 53.55 41.3424 53.8447 41.2064 54.094C41.0931 54.3433 40.9344 54.468 40.7304 54.468C40.5491 54.468 40.3451 54.4113 40.1184 54.298C39.8918 54.1847 39.5631 54.128 39.1324 54.128C38.5884 54.128 38.0898 54.264 37.6364 54.536C37.2058 54.808 36.8771 55.182 36.6504 55.658V67.082C36.6504 67.3993 36.5031 67.6487 36.2084 67.83C35.9364 67.9887 35.4718 68.068 34.8144 68.068H34.1344ZM48.4613 68.238C46.6933 68.238 45.3673 67.7847 44.4833 66.878C43.5993 65.9487 43.1573 64.736 43.1573 63.24C43.1573 62.3787 43.2933 61.574 43.5653 60.826C43.86 60.0553 44.37 59.3867 45.0953 58.82C45.8207 58.2307 46.852 57.7773 48.1893 57.46C49.5493 57.12 51.2947 56.95 53.4253 56.95V55.726C53.4253 55.25 53.3233 54.842 53.1193 54.502C52.938 54.162 52.6207 53.9013 52.1673 53.72C51.7367 53.516 51.1587 53.414 50.4333 53.414C49.5493 53.414 48.756 53.516 48.0533 53.72C47.3733 53.9013 46.7953 54.094 46.3193 54.298C45.866 54.4793 45.5373 54.57 45.3333 54.57C45.1973 54.57 45.0613 54.4793 44.9253 54.298C44.7893 54.1167 44.6647 53.9013 44.5513 53.652C44.438 53.38 44.3473 53.1193 44.2793 52.87C44.2113 52.598 44.1773 52.3827 44.1773 52.224C44.1773 51.952 44.37 51.6913 44.7553 51.442C45.1407 51.17 45.6507 50.9207 46.2853 50.694C46.92 50.4673 47.6227 50.2973 48.3933 50.184C49.1867 50.048 49.9687 49.98 50.7393 49.98C51.9633 49.98 53.0173 50.116 53.9013 50.388C54.7853 50.6373 55.5107 51.0113 56.0773 51.51C56.644 52.0087 57.0633 52.598 57.3353 53.278C57.6073 53.958 57.7433 54.706 57.7433 55.522V62.322C57.7433 63.41 57.766 64.26 57.8113 64.872C57.8793 65.484 57.9473 65.9487 58.0153 66.266C58.0833 66.5833 58.1173 66.844 58.1173 67.048C58.1173 67.2293 57.9927 67.388 57.7433 67.524C57.494 67.6373 57.188 67.7393 56.8253 67.83C56.4853 67.898 56.134 67.9547 55.7713 68C55.4313 68.0227 55.1593 68.034 54.9553 68.034C54.638 68.034 54.4 67.9207 54.2413 67.694C54.1053 67.4673 53.992 67.1727 53.9013 66.81C53.8333 66.4473 53.7653 66.0733 53.6973 65.688C53.4933 65.9373 53.1647 66.266 52.7113 66.674C52.2807 67.082 51.7027 67.4447 50.9773 67.762C50.2747 68.0793 49.436 68.238 48.4613 68.238ZM49.6173 64.804C50.184 64.804 50.7053 64.702 51.1813 64.498C51.6573 64.294 52.088 64.022 52.4733 63.682C52.8587 63.342 53.176 62.968 53.4253 62.56V59.976C52.3147 59.976 51.3853 60.0327 50.6373 60.146C49.8893 60.2593 49.2773 60.4293 48.8013 60.656C48.348 60.8827 48.0193 61.1887 47.8153 61.574C47.6113 61.9367 47.5093 62.356 47.5093 62.832C47.5093 63.444 47.6793 63.9313 48.0193 64.294C48.382 64.634 48.9147 64.804 49.6173 64.804ZM64.4625 68.068C63.8278 68.068 63.3632 67.9887 63.0685 67.83C62.7965 67.6487 62.6605 67.3993 62.6605 67.082V51.136C62.6605 50.8187 62.7965 50.5807 63.0685 50.422C63.3632 50.2407 63.8278 50.15 64.4625 50.15H65.2105C65.8452 50.15 66.2985 50.2407 66.5705 50.422C66.8652 50.5807 67.0125 50.8187 67.0125 51.136V67.082C67.0125 67.3993 66.8652 67.6487 66.5705 67.83C66.2985 67.9887 65.8452 68.068 65.2105 68.068H64.4625ZM64.8365 48.246C64.0658 48.246 63.5105 48.1667 63.1705 48.008C62.8305 47.8267 62.6605 47.5773 62.6605 47.26V44.812C62.6605 44.5173 62.8305 44.2907 63.1705 44.132C63.5105 43.9507 64.0658 43.86 64.8365 43.86C65.5845 43.86 66.1285 43.9393 66.4685 44.098C66.8085 44.2567 66.9785 44.4947 66.9785 44.812V47.26C66.9785 47.5773 66.8085 47.8267 66.4685 48.008C66.1285 48.1667 65.5845 48.246 64.8365 48.246ZM73.5863 68.068C72.9517 68.068 72.487 67.9887 72.1923 67.83C71.9203 67.6487 71.7843 67.3993 71.7843 67.082V55.862C71.7843 54.8873 71.7503 54.1053 71.6823 53.516C71.637 52.904 71.5803 52.428 71.5123 52.088C71.467 51.748 71.4443 51.476 71.4443 51.272C71.4443 51.068 71.569 50.898 71.8183 50.762C72.0903 50.626 72.4077 50.524 72.7703 50.456C73.1557 50.388 73.5183 50.3427 73.8583 50.32C74.221 50.2747 74.493 50.252 74.6743 50.252C74.9237 50.252 75.1163 50.32 75.2523 50.456C75.3883 50.592 75.5017 50.8187 75.5923 51.136C75.683 51.4533 75.785 51.918 75.8983 52.53C76.2837 52.0767 76.737 51.6573 77.2583 51.272C77.8023 50.864 78.3917 50.5467 79.0263 50.32C79.661 50.0933 80.3297 49.98 81.0323 49.98C82.1883 49.98 83.1517 50.184 83.9223 50.592C84.7157 51 85.305 51.612 85.6903 52.428C86.0757 53.2213 86.2683 54.2413 86.2683 55.488V67.082C86.2683 67.3993 86.121 67.6487 85.8263 67.83C85.5543 67.9887 85.101 68.068 84.4663 68.068H83.7523C83.095 68.068 82.619 67.9887 82.3243 67.83C82.0523 67.6487 81.9163 67.3993 81.9163 67.082V56.066C81.9163 55.25 81.7237 54.6267 81.3383 54.196C80.953 53.7653 80.3183 53.55 79.4343 53.55C79.0263 53.55 78.607 53.6407 78.1763 53.822C77.7457 53.9807 77.349 54.2187 76.9863 54.536C76.6463 54.8533 76.363 55.2273 76.1363 55.658V67.082C76.1363 67.3993 75.989 67.6487 75.6943 67.83C75.4223 67.9887 74.969 68.068 74.3343 68.068H73.5863ZM92.6379 68.068C92.0032 68.068 91.5386 67.9887 91.2439 67.83C90.9719 67.6487 90.8359 67.3993 90.8359 67.082V51.136C90.8359 50.8187 90.9719 50.5807 91.2439 50.422C91.5386 50.2407 92.0032 50.15 92.6379 50.15H93.3859C94.0206 50.15 94.4739 50.2407 94.7459 50.422C95.0406 50.5807 95.1879 50.8187 95.1879 51.136V67.082C95.1879 67.3993 95.0406 67.6487 94.7459 67.83C94.4739 67.9887 94.0206 68.068 93.3859 68.068H92.6379ZM93.0119 48.246C92.2412 48.246 91.6859 48.1667 91.3459 48.008C91.0059 47.8267 90.8359 47.5773 90.8359 47.26V44.812C90.8359 44.5173 91.0059 44.2907 91.3459 44.132C91.6859 43.9507 92.2412 43.86 93.0119 43.86C93.7599 43.86 94.3039 43.9393 94.6439 44.098C94.9839 44.2567 95.1539 44.4947 95.1539 44.812V47.26C95.1539 47.5773 94.9839 47.8267 94.6439 48.008C94.3039 48.1667 93.7599 48.246 93.0119 48.246ZM101.762 68.068C101.127 68.068 100.662 67.9887 100.368 67.83C100.096 67.6487 99.9598 67.3993 99.9598 67.082V55.862C99.9598 54.8873 99.9258 54.1053 99.8578 53.516C99.8124 52.904 99.7558 52.428 99.6878 52.088C99.6424 51.748 99.6198 51.476 99.6198 51.272C99.6198 51.068 99.7444 50.898 99.9938 50.762C100.266 50.626 100.583 50.524 100.946 50.456C101.331 50.388 101.694 50.3427 102.034 50.32C102.396 50.2747 102.668 50.252 102.85 50.252C103.099 50.252 103.292 50.32 103.428 50.456C103.564 50.592 103.677 50.8187 103.768 51.136C103.858 51.4533 103.96 51.918 104.074 52.53C104.459 52.0767 104.912 51.6573 105.434 51.272C105.978 50.864 106.567 50.5467 107.202 50.32C107.836 50.0933 108.505 49.98 109.208 49.98C110.364 49.98 111.327 50.184 112.098 50.592C112.891 51 113.48 51.612 113.866 52.428C114.251 53.2213 114.444 54.2413 114.444 55.488V67.082C114.444 67.3993 114.296 67.6487 114.002 67.83C113.73 67.9887 113.276 68.068 112.642 68.068H111.928C111.27 68.068 110.794 67.9887 110.5 67.83C110.228 67.6487 110.092 67.3993 110.092 67.082V56.066C110.092 55.25 109.899 54.6267 109.514 54.196C109.128 53.7653 108.494 53.55 107.61 53.55C107.202 53.55 106.782 53.6407 106.352 53.822C105.921 53.9807 105.524 54.2187 105.162 54.536C104.822 54.8533 104.538 55.2273 104.312 55.658V67.082C104.312 67.3993 104.164 67.6487 103.87 67.83C103.598 67.9887 103.144 68.068 102.51 68.068H101.762ZM125.471 75.208C123.817 75.208 122.411 75.038 121.255 74.698C120.122 74.3807 119.261 73.8707 118.671 73.168C118.082 72.488 117.787 71.6267 117.787 70.584C117.787 69.972 117.912 69.4053 118.161 68.884C118.411 68.3853 118.762 67.932 119.215 67.524C119.669 67.116 120.213 66.7873 120.847 66.538L120.881 66.436C120.428 66.164 120.077 65.8013 119.827 65.348C119.578 64.8947 119.453 64.3733 119.453 63.784C119.453 63.1267 119.623 62.5373 119.963 62.016C120.326 61.472 120.813 61.0187 121.425 60.656C120.541 60.2027 119.85 59.5793 119.351 58.786C118.875 57.97 118.637 56.984 118.637 55.828C118.637 54.5133 118.932 53.4253 119.521 52.564C120.133 51.7027 120.972 51.0567 122.037 50.626C123.125 50.1953 124.349 49.98 125.709 49.98C126.14 49.98 126.559 50.0027 126.967 50.048C127.375 50.0707 127.761 50.1273 128.123 50.218H133.835C134.175 50.218 134.413 50.3427 134.549 50.592C134.685 50.8187 134.753 51.1813 134.753 51.68V52.19C134.753 53.1193 134.493 53.584 133.971 53.584C133.858 53.584 133.677 53.5727 133.427 53.55C133.178 53.5273 132.917 53.4933 132.645 53.448C132.373 53.4027 132.158 53.3573 131.999 53.312L131.965 53.414C132.147 53.618 132.305 53.856 132.441 54.128C132.577 54.4 132.668 54.6833 132.713 54.978C132.781 55.25 132.815 55.5333 132.815 55.828C132.815 57.0973 132.521 58.1513 131.931 58.99C131.365 59.8287 130.56 60.4633 129.517 60.894C128.497 61.3247 127.307 61.54 125.947 61.54C125.267 61.54 124.735 61.5967 124.349 61.71C123.964 61.8007 123.692 61.9593 123.533 62.186C123.397 62.39 123.329 62.6507 123.329 62.968C123.329 63.3533 123.477 63.648 123.771 63.852C124.066 64.056 124.463 64.2147 124.961 64.328C125.483 64.4413 126.061 64.5433 126.695 64.634C127.33 64.702 127.987 64.7813 128.667 64.872C129.597 65.0307 130.469 65.28 131.285 65.62C132.101 65.9373 132.759 66.4133 133.257 67.048C133.756 67.6827 134.005 68.5553 134.005 69.666C134.005 70.7993 133.665 71.774 132.985 72.59C132.305 73.4287 131.319 74.0747 130.027 74.528C128.758 74.9813 127.239 75.208 125.471 75.208ZM125.845 71.808C127.205 71.808 128.214 71.6267 128.871 71.264C129.529 70.924 129.857 70.4367 129.857 69.802C129.857 69.4847 129.755 69.2127 129.551 68.986C129.37 68.782 129.087 68.612 128.701 68.476C128.339 68.34 127.908 68.2267 127.409 68.136C126.911 68.068 126.355 68 125.743 67.932C125.131 67.864 124.485 67.7847 123.805 67.694C123.239 67.898 122.774 68.1927 122.411 68.578C122.071 68.9633 121.901 69.394 121.901 69.87C121.901 70.278 122.037 70.6293 122.309 70.924C122.581 71.2187 123.001 71.434 123.567 71.57C124.157 71.7287 124.916 71.808 125.845 71.808ZM125.709 58.344C126.276 58.344 126.786 58.2647 127.239 58.106C127.693 57.9247 128.055 57.6527 128.327 57.29C128.622 56.9047 128.769 56.3947 128.769 55.76C128.769 55.1253 128.622 54.6267 128.327 54.264C128.055 53.8787 127.693 53.6067 127.239 53.448C126.786 53.2667 126.276 53.176 125.709 53.176C125.165 53.176 124.655 53.2667 124.179 53.448C123.726 53.6067 123.363 53.8787 123.091 54.264C122.819 54.6267 122.683 55.1253 122.683 55.76C122.683 56.712 122.978 57.3807 123.567 57.766C124.157 58.1513 124.871 58.344 125.709 58.344ZM151.295 68.238C150.275 68.238 149.414 68.0567 148.711 67.694C148.031 67.3313 147.521 66.7873 147.181 66.062C146.841 65.314 146.671 64.4187 146.671 63.376V53.652H145.379C144.767 53.652 144.461 53.1647 144.461 52.19V51.68C144.461 50.7053 144.767 50.218 145.379 50.218H146.671L147.181 46.886C147.227 46.546 147.374 46.2967 147.623 46.138C147.873 45.9793 148.224 45.9 148.677 45.9H149.493C150.037 45.9 150.423 45.9793 150.649 46.138C150.899 46.2967 151.023 46.546 151.023 46.886V50.218H153.369C153.981 50.218 154.287 50.7053 154.287 51.68V52.19C154.287 53.1647 153.981 53.652 153.369 53.652H151.023V63.138C151.023 63.7047 151.114 64.1127 151.295 64.362C151.499 64.6113 151.839 64.736 152.315 64.736C152.746 64.736 153.075 64.6907 153.301 64.6C153.528 64.4867 153.721 64.43 153.879 64.43C153.993 64.43 154.095 64.532 154.185 64.736C154.299 64.9173 154.389 65.1553 154.457 65.45C154.525 65.722 154.571 65.994 154.593 66.266C154.639 66.538 154.661 66.7307 154.661 66.844C154.661 67.0933 154.48 67.3313 154.117 67.558C153.755 67.7847 153.313 67.9547 152.791 68.068C152.293 68.1813 151.794 68.238 151.295 68.238ZM159.54 68.068C158.906 68.068 158.441 67.9887 158.146 67.83C157.874 67.6487 157.738 67.3993 157.738 67.082V43.384C157.738 43.0667 157.874 42.8287 158.146 42.67C158.441 42.4887 158.906 42.398 159.54 42.398H160.22C160.878 42.398 161.342 42.4887 161.614 42.67C161.909 42.8287 162.056 43.0667 162.056 43.384V52.36C162.396 51.9293 162.816 51.5327 163.314 51.17C163.813 50.8073 164.368 50.524 164.98 50.32C165.615 50.0933 166.284 49.98 166.986 49.98C168.142 49.98 169.106 50.184 169.876 50.592C170.67 51 171.259 51.612 171.644 52.428C172.03 53.2213 172.222 54.2413 172.222 55.488V67.082C172.222 67.3993 172.075 67.6487 171.78 67.83C171.508 67.9887 171.055 68.068 170.42 68.068H169.706C169.049 68.068 168.573 67.9887 168.278 67.83C168.006 67.6487 167.87 67.3993 167.87 67.082V56.066C167.87 55.25 167.678 54.6267 167.292 54.196C166.907 53.7653 166.272 53.55 165.388 53.55C164.98 53.55 164.561 53.6407 164.13 53.822C163.7 53.9807 163.303 54.2187 162.94 54.536C162.6 54.8533 162.317 55.2273 162.09 55.658V67.082C162.09 67.3993 161.943 67.6487 161.648 67.83C161.376 67.9887 160.923 68.068 160.288 68.068H159.54ZM181.543 68.238C179.775 68.238 178.449 67.7847 177.565 66.878C176.681 65.9487 176.239 64.736 176.239 63.24C176.239 62.3787 176.375 61.574 176.647 60.826C176.941 60.0553 177.451 59.3867 178.177 58.82C178.902 58.2307 179.933 57.7773 181.271 57.46C182.631 57.12 184.376 56.95 186.507 56.95V55.726C186.507 55.25 186.405 54.842 186.201 54.502C186.019 54.162 185.702 53.9013 185.249 53.72C184.818 53.516 184.24 53.414 183.515 53.414C182.631 53.414 181.837 53.516 181.135 53.72C180.455 53.9013 179.877 54.094 179.401 54.298C178.947 54.4793 178.619 54.57 178.415 54.57C178.279 54.57 178.143 54.4793 178.007 54.298C177.871 54.1167 177.746 53.9013 177.633 53.652C177.519 53.38 177.429 53.1193 177.361 52.87C177.293 52.598 177.259 52.3827 177.259 52.224C177.259 51.952 177.451 51.6913 177.837 51.442C178.222 51.17 178.732 50.9207 179.367 50.694C180.001 50.4673 180.704 50.2973 181.475 50.184C182.268 50.048 183.05 49.98 183.821 49.98C185.045 49.98 186.099 50.116 186.983 50.388C187.867 50.6373 188.592 51.0113 189.159 51.51C189.725 52.0087 190.145 52.598 190.417 53.278C190.689 53.958 190.825 54.706 190.825 55.522V62.322C190.825 63.41 190.847 64.26 190.893 64.872C190.961 65.484 191.029 65.9487 191.097 66.266C191.165 66.5833 191.199 66.844 191.199 67.048C191.199 67.2293 191.074 67.388 190.825 67.524C190.575 67.6373 190.269 67.7393 189.907 67.83C189.567 67.898 189.215 67.9547 188.853 68C188.513 68.0227 188.241 68.034 188.037 68.034C187.719 68.034 187.481 67.9207 187.323 67.694C187.187 67.4673 187.073 67.1727 186.983 66.81C186.915 66.4473 186.847 66.0733 186.779 65.688C186.575 65.9373 186.246 66.266 185.793 66.674C185.362 67.082 184.784 67.4447 184.059 67.762C183.356 68.0793 182.517 68.238 181.543 68.238ZM182.699 64.804C183.265 64.804 183.787 64.702 184.263 64.498C184.739 64.294 185.169 64.022 185.555 63.682C185.94 63.342 186.257 62.968 186.507 62.56V59.976C185.396 59.976 184.467 60.0327 183.719 60.146C182.971 60.2593 182.359 60.4293 181.883 60.656C181.429 60.8827 181.101 61.1887 180.897 61.574C180.693 61.9367 180.591 62.356 180.591 62.832C180.591 63.444 180.761 63.9313 181.101 64.294C181.463 64.634 181.996 64.804 182.699 64.804ZM201.046 68.238C200.026 68.238 199.165 68.0567 198.462 67.694C197.782 67.3313 197.272 66.7873 196.932 66.062C196.592 65.314 196.422 64.4187 196.422 63.376V53.652H195.13C194.518 53.652 194.212 53.1647 194.212 52.19V51.68C194.212 50.7053 194.518 50.218 195.13 50.218H196.422L196.932 46.886C196.977 46.546 197.125 46.2967 197.374 46.138C197.623 45.9793 197.975 45.9 198.428 45.9H199.244C199.788 45.9 200.173 45.9793 200.4 46.138C200.649 46.2967 200.774 46.546 200.774 46.886V50.218H203.12C203.732 50.218 204.038 50.7053 204.038 51.68V52.19C204.038 53.1647 203.732 53.652 203.12 53.652H200.774V63.138C200.774 63.7047 200.865 64.1127 201.046 64.362C201.25 64.6113 201.59 64.736 202.066 64.736C202.497 64.736 202.825 64.6907 203.052 64.6C203.279 64.4867 203.471 64.43 203.63 64.43C203.743 64.43 203.845 64.532 203.936 64.736C204.049 64.9173 204.14 65.1553 204.208 65.45C204.276 65.722 204.321 65.994 204.344 66.266C204.389 66.538 204.412 66.7307 204.412 66.844C204.412 67.0933 204.231 67.3313 203.868 67.558C203.505 67.7847 203.063 67.9547 202.542 68.068C202.043 68.1813 201.545 68.238 201.046 68.238ZM234.41 68.068C233.775 68.068 233.311 67.9887 233.016 67.83C232.744 67.6487 232.608 67.3993 232.608 67.082V55.862C232.608 54.8873 232.574 54.1053 232.506 53.516C232.461 52.904 232.404 52.428 232.336 52.088C232.291 51.748 232.268 51.476 232.268 51.272C232.268 51.068 232.393 50.898 232.642 50.762C232.914 50.626 233.231 50.524 233.594 50.456C233.979 50.388 234.342 50.3427 234.682 50.32C235.045 50.2747 235.317 50.252 235.498 50.252C235.747 50.252 235.94 50.32 236.076 50.456C236.212 50.592 236.325 50.8413 236.416 51.204C236.529 51.5667 236.643 52.0993 236.756 52.802C237.005 52.2127 237.334 51.714 237.742 51.306C238.15 50.8753 238.603 50.5467 239.102 50.32C239.601 50.0933 240.111 49.98 240.632 49.98C241.199 49.98 241.573 50.0933 241.754 50.32C241.958 50.5467 242.06 50.8867 242.06 51.34C242.06 51.544 242.037 51.816 241.992 52.156C241.969 52.496 241.913 52.8473 241.822 53.21C241.731 53.55 241.618 53.8447 241.482 54.094C241.369 54.3433 241.21 54.468 241.006 54.468C240.825 54.468 240.621 54.4113 240.394 54.298C240.167 54.1847 239.839 54.128 239.408 54.128C238.864 54.128 238.365 54.264 237.912 54.536C237.481 54.808 237.153 55.182 236.926 55.658V67.082C236.926 67.3993 236.779 67.6487 236.484 67.83C236.212 67.9887 235.747 68.068 235.09 68.068H234.41ZM252.137 68.238C249.213 68.238 247.048 67.4673 245.643 65.926C244.238 64.3847 243.535 62.152 243.535 59.228C243.535 57.0747 243.864 55.318 244.521 53.958C245.201 52.598 246.153 51.6007 247.377 50.966C248.601 50.3087 250.029 49.98 251.661 49.98C253.384 49.98 254.766 50.3653 255.809 51.136C256.874 51.884 257.645 52.9153 258.121 54.23C258.62 55.522 258.869 56.9953 258.869 58.65C258.869 58.8993 258.778 59.1827 258.597 59.5C258.416 59.7947 258.2 60.044 257.951 60.248C257.702 60.452 257.464 60.554 257.237 60.554H247.921C247.966 62.0953 248.374 63.1947 249.145 63.852C249.916 64.4867 250.97 64.804 252.307 64.804C253.191 64.804 253.962 64.6907 254.619 64.464C255.276 64.2373 255.809 64.0107 256.217 63.784C256.648 63.5573 256.954 63.444 257.135 63.444C257.339 63.444 257.532 63.5913 257.713 63.886C257.917 64.1807 258.087 64.5093 258.223 64.872C258.359 65.2347 258.427 65.518 258.427 65.722C258.427 66.0167 258.223 66.3113 257.815 66.606C257.43 66.9007 256.908 67.184 256.251 67.456C255.616 67.7053 254.936 67.898 254.211 68.034C253.486 68.17 252.794 68.238 252.137 68.238ZM247.887 57.528H254.721C254.721 56.168 254.438 55.148 253.871 54.468C253.327 53.7653 252.511 53.414 251.423 53.414C250.811 53.414 250.233 53.55 249.689 53.822C249.168 54.0713 248.737 54.4907 248.397 55.08C248.08 55.6693 247.91 56.4853 247.887 57.528ZM267.191 68.238C265.423 68.238 264.097 67.7847 263.213 66.878C262.329 65.9487 261.887 64.736 261.887 63.24C261.887 62.3787 262.023 61.574 262.295 60.826C262.59 60.0553 263.1 59.3867 263.825 58.82C264.55 58.2307 265.582 57.7773 266.919 57.46C268.279 57.12 270.024 56.95 272.155 56.95V55.726C272.155 55.25 272.053 54.842 271.849 54.502C271.668 54.162 271.35 53.9013 270.897 53.72C270.466 53.516 269.888 53.414 269.163 53.414C268.279 53.414 267.486 53.516 266.783 53.72C266.103 53.9013 265.525 54.094 265.049 54.298C264.596 54.4793 264.267 54.57 264.063 54.57C263.927 54.57 263.791 54.4793 263.655 54.298C263.519 54.1167 263.394 53.9013 263.281 53.652C263.168 53.38 263.077 53.1193 263.009 52.87C262.941 52.598 262.907 52.3827 262.907 52.224C262.907 51.952 263.1 51.6913 263.485 51.442C263.87 51.17 264.38 50.9207 265.015 50.694C265.65 50.4673 266.352 50.2973 267.123 50.184C267.916 50.048 268.698 49.98 269.469 49.98C270.693 49.98 271.747 50.116 272.631 50.388C273.515 50.6373 274.24 51.0113 274.807 51.51C275.374 52.0087 275.793 52.598 276.065 53.278C276.337 53.958 276.473 54.706 276.473 55.522V62.322C276.473 63.41 276.496 64.26 276.541 64.872C276.609 65.484 276.677 65.9487 276.745 66.266C276.813 66.5833 276.847 66.844 276.847 67.048C276.847 67.2293 276.722 67.388 276.473 67.524C276.224 67.6373 275.918 67.7393 275.555 67.83C275.215 67.898 274.864 67.9547 274.501 68C274.161 68.0227 273.889 68.034 273.685 68.034C273.368 68.034 273.13 67.9207 272.971 67.694C272.835 67.4673 272.722 67.1727 272.631 66.81C272.563 66.4473 272.495 66.0733 272.427 65.688C272.223 65.9373 271.894 66.266 271.441 66.674C271.01 67.082 270.432 67.4447 269.707 67.762C269.004 68.0793 268.166 68.238 267.191 68.238ZM268.347 64.804C268.914 64.804 269.435 64.702 269.911 64.498C270.387 64.294 270.818 64.022 271.203 63.682C271.588 63.342 271.906 62.968 272.155 62.56V59.976C271.044 59.976 270.115 60.0327 269.367 60.146C268.619 60.2593 268.007 60.4293 267.531 60.656C267.078 60.8827 266.749 61.1887 266.545 61.574C266.341 61.9367 266.239 62.356 266.239 62.832C266.239 63.444 266.409 63.9313 266.749 64.294C267.112 64.634 267.644 64.804 268.347 64.804ZM288.904 68.238C286.048 68.238 283.951 67.5127 282.614 66.062C281.299 64.6113 280.642 62.3333 280.642 59.228C280.642 56.2133 281.333 53.924 282.716 52.36C284.099 50.7733 286.241 49.98 289.142 49.98C289.777 49.98 290.411 50.0367 291.046 50.15C291.681 50.2633 292.259 50.4333 292.78 50.66C293.324 50.864 293.755 51.0907 294.072 51.34C294.412 51.5893 294.582 51.85 294.582 52.122C294.582 52.3033 294.514 52.5867 294.378 52.972C294.242 53.3347 294.072 53.6633 293.868 53.958C293.687 54.2527 293.494 54.4 293.29 54.4C293.086 54.4 292.803 54.3207 292.44 54.162C292.077 53.9807 291.613 53.8107 291.046 53.652C290.502 53.4933 289.833 53.414 289.04 53.414C287.657 53.414 286.637 53.8787 285.98 54.808C285.345 55.7147 285.028 57.1427 285.028 59.092C285.028 61.0867 285.345 62.5373 285.98 63.444C286.637 64.3507 287.68 64.804 289.108 64.804C289.901 64.804 290.593 64.7133 291.182 64.532C291.794 64.328 292.304 64.124 292.712 63.92C293.12 63.716 293.415 63.614 293.596 63.614C293.8 63.614 293.981 63.7613 294.14 64.056C294.321 64.3507 294.469 64.6793 294.582 65.042C294.695 65.4047 294.752 65.688 294.752 65.892C294.752 66.1867 294.559 66.47 294.174 66.742C293.811 67.014 293.335 67.2633 292.746 67.49C292.157 67.7167 291.522 67.898 290.842 68.034C290.162 68.17 289.516 68.238 288.904 68.238ZM299.82 68.068C299.185 68.068 298.72 67.9887 298.426 67.83C298.154 67.6487 298.018 67.3993 298.018 67.082V43.384C298.018 43.0667 298.154 42.8287 298.426 42.67C298.72 42.4887 299.185 42.398 299.82 42.398H300.5C301.157 42.398 301.622 42.4887 301.894 42.67C302.188 42.8287 302.336 43.0667 302.336 43.384V52.36C302.676 51.9293 303.095 51.5327 303.594 51.17C304.092 50.8073 304.648 50.524 305.26 50.32C305.894 50.0933 306.563 49.98 307.266 49.98C308.422 49.98 309.385 50.184 310.156 50.592C310.949 51 311.538 51.612 311.924 52.428C312.309 53.2213 312.502 54.2413 312.502 55.488V67.082C312.502 67.3993 312.354 67.6487 312.06 67.83C311.788 67.9887 311.334 68.068 310.7 68.068H309.986C309.328 68.068 308.852 67.9887 308.558 67.83C308.286 67.6487 308.15 67.3993 308.15 67.082V56.066C308.15 55.25 307.957 54.6267 307.572 54.196C307.186 53.7653 306.552 53.55 305.668 53.55C305.26 53.55 304.84 53.6407 304.41 53.822C303.979 53.9807 303.582 54.2187 303.22 54.536C302.88 54.8533 302.596 55.2273 302.37 55.658V67.082C302.37 67.3993 302.222 67.6487 301.928 67.83C301.656 67.9887 301.202 68.068 300.568 68.068H299.82ZM325.222 68.238C322.298 68.238 320.134 67.4673 318.728 65.926C317.323 64.3847 316.62 62.152 316.62 59.228C316.62 57.0747 316.949 55.318 317.606 53.958C318.286 52.598 319.238 51.6007 320.462 50.966C321.686 50.3087 323.114 49.98 324.746 49.98C326.469 49.98 327.852 50.3653 328.894 51.136C329.96 51.884 330.73 52.9153 331.206 54.23C331.705 55.522 331.954 56.9953 331.954 58.65C331.954 58.8993 331.864 59.1827 331.682 59.5C331.501 59.7947 331.286 60.044 331.036 60.248C330.787 60.452 330.549 60.554 330.322 60.554H321.006C321.052 62.0953 321.46 63.1947 322.23 63.852C323.001 64.4867 324.055 64.804 325.392 64.804C326.276 64.804 327.047 64.6907 327.704 64.464C328.362 64.2373 328.894 64.0107 329.302 63.784C329.733 63.5573 330.039 63.444 330.22 63.444C330.424 63.444 330.617 63.5913 330.798 63.886C331.002 64.1807 331.172 64.5093 331.308 64.872C331.444 65.2347 331.512 65.518 331.512 65.722C331.512 66.0167 331.308 66.3113 330.9 66.606C330.515 66.9007 329.994 67.184 329.336 67.456C328.702 67.7053 328.022 67.898 327.296 68.034C326.571 68.17 325.88 68.238 325.222 68.238ZM320.972 57.528H327.806C327.806 56.168 327.523 55.148 326.956 54.468C326.412 53.7653 325.596 53.414 324.508 53.414C323.896 53.414 323.318 53.55 322.774 53.822C322.253 54.0713 321.822 54.4907 321.482 55.08C321.165 55.6693 320.995 56.4853 320.972 57.528ZM340.106 68.272C339.426 68.272 338.758 68.2153 338.1 68.102C337.443 67.9887 336.842 67.83 336.298 67.626C335.777 67.3993 335.358 67.1613 335.04 66.912C334.723 66.64 334.564 66.3453 334.564 66.028C334.564 65.8013 334.655 65.5067 334.836 65.144C335.018 64.7813 335.233 64.4527 335.482 64.158C335.732 63.8633 335.958 63.716 336.162 63.716C336.298 63.716 336.525 63.818 336.842 64.022C337.16 64.2033 337.556 64.3847 338.032 64.566C338.531 64.7473 339.109 64.838 339.766 64.838C340.605 64.838 341.228 64.6793 341.636 64.362C342.067 64.0447 342.282 63.6027 342.282 63.036C342.282 62.5827 342.158 62.22 341.908 61.948C341.659 61.676 341.308 61.438 340.854 61.234C340.401 61.0073 339.891 60.7807 339.324 60.554C338.848 60.3727 338.35 60.1573 337.828 59.908C337.33 59.6587 336.854 59.3413 336.4 58.956C335.97 58.5707 335.618 58.0833 335.346 57.494C335.097 56.9047 334.972 56.1793 334.972 55.318C334.972 54.2073 335.222 53.2553 335.72 52.462C336.219 51.6687 336.922 51.0567 337.828 50.626C338.735 50.1727 339.778 49.946 340.956 49.946C341.5 49.946 342.044 49.9913 342.588 50.082C343.155 50.15 343.688 50.2633 344.186 50.422C344.685 50.558 345.082 50.7393 345.376 50.966C345.694 51.1927 345.852 51.4533 345.852 51.748C345.852 51.9747 345.773 52.2807 345.614 52.666C345.478 53.0513 345.308 53.3913 345.104 53.686C344.923 53.9807 344.73 54.128 344.526 54.128C344.368 54.128 344.039 54.0033 343.54 53.754C343.042 53.5047 342.35 53.38 341.466 53.38C340.809 53.38 340.276 53.516 339.868 53.788C339.46 54.0373 339.256 54.434 339.256 54.978C339.256 55.3633 339.358 55.692 339.562 55.964C339.766 56.2133 340.072 56.44 340.48 56.644C340.911 56.848 341.421 57.052 342.01 57.256C342.532 57.4373 343.064 57.664 343.608 57.936C344.152 58.208 344.64 58.548 345.07 58.956C345.524 59.364 345.886 59.874 346.158 60.486C346.43 61.0753 346.566 61.8007 346.566 62.662C346.566 63.75 346.294 64.7247 345.75 65.586C345.229 66.4247 344.492 67.082 343.54 67.558C342.588 68.034 341.444 68.272 340.106 68.272ZM69.6774 119.038C69.1108 119.038 68.6801 118.97 68.3854 118.834C68.1134 118.721 67.9774 118.562 67.9774 118.358C67.9774 118.29 67.9774 118.211 67.9774 118.12C68.0001 118.052 68.0454 117.939 68.1134 117.78L71.0714 110.096L71.0034 113.292L64.6794 95.408C64.6568 95.3173 64.6341 95.2267 64.6114 95.136C64.5888 95.0227 64.5774 94.9207 64.5774 94.83C64.5774 94.6033 64.7248 94.4333 65.0194 94.32C65.3141 94.2067 65.7788 94.15 66.4134 94.15H67.2294C67.6601 94.15 68.0228 94.1953 68.3174 94.286C68.6348 94.3767 68.8388 94.5467 68.9294 94.796L72.4654 106.424H72.6014L76.1034 94.796C76.1941 94.5467 76.3868 94.3767 76.6814 94.286C76.9988 94.1953 77.3841 94.15 77.8374 94.15H78.4154C79.0501 94.15 79.5034 94.2067 79.7754 94.32C80.0474 94.4333 80.1834 94.6033 80.1834 94.83C80.1834 94.9207 80.1721 95.0113 80.1494 95.102C80.1494 95.1927 80.1268 95.2947 80.0814 95.408L71.9554 118.324C71.8648 118.573 71.6608 118.755 71.3434 118.868C71.0261 118.981 70.6294 119.038 70.1534 119.038H69.6774ZM90.0223 112.238C87.3703 112.238 85.353 111.456 83.9703 109.892C82.5877 108.328 81.8963 106.073 81.8963 103.126C81.8963 100.157 82.5877 97.89 83.9703 96.326C85.353 94.762 87.3703 93.98 90.0223 93.98C92.6517 93.98 94.6463 94.762 96.0063 96.326C97.3663 97.89 98.0463 100.157 98.0463 103.126C98.0463 106.073 97.3663 108.328 96.0063 109.892C94.669 111.456 92.6743 112.238 90.0223 112.238ZM89.9883 108.804C91.2577 108.804 92.187 108.328 92.7763 107.376C93.3657 106.424 93.6603 104.996 93.6603 103.092C93.6603 101.211 93.3657 99.794 92.7763 98.842C92.187 97.89 91.2577 97.414 89.9883 97.414C88.719 97.414 87.7783 97.89 87.1663 98.842C86.577 99.7713 86.2823 101.199 86.2823 103.126C86.2823 105.007 86.577 106.424 87.1663 107.376C87.7783 108.328 88.719 108.804 89.9883 108.804ZM106.99 112.238C105.312 112.238 104.043 111.796 103.182 110.912C102.32 110.005 101.89 108.657 101.89 106.866V95.136C101.89 94.8187 102.026 94.5807 102.298 94.422C102.592 94.2407 103.057 94.15 103.692 94.15H104.406C105.063 94.15 105.528 94.2407 105.8 94.422C106.094 94.5807 106.242 94.8187 106.242 95.136V106.288C106.242 107.036 106.423 107.625 106.786 108.056C107.171 108.464 107.772 108.668 108.588 108.668C109.018 108.668 109.449 108.589 109.88 108.43C110.333 108.249 110.741 107.999 111.104 107.682C111.489 107.365 111.795 106.991 112.022 106.56V95.136C112.022 94.8187 112.158 94.5807 112.43 94.422C112.724 94.2407 113.189 94.15 113.824 94.15H114.572C115.206 94.15 115.66 94.2407 115.932 94.422C116.226 94.5807 116.374 94.8187 116.374 95.136V106.356C116.374 107.331 116.396 108.113 116.442 108.702C116.51 109.291 116.566 109.767 116.612 110.13C116.68 110.47 116.714 110.742 116.714 110.946C116.714 111.173 116.578 111.354 116.306 111.49C116.056 111.626 115.739 111.739 115.354 111.83C114.991 111.898 114.628 111.955 114.266 112C113.926 112.023 113.665 112.034 113.484 112.034C113.234 112.034 113.042 111.966 112.906 111.83C112.77 111.694 112.656 111.456 112.566 111.116C112.475 110.776 112.373 110.3 112.26 109.688C111.897 110.141 111.432 110.572 110.866 110.98C110.322 111.365 109.721 111.671 109.064 111.898C108.406 112.125 107.715 112.238 106.99 112.238ZM123.219 112.068C122.584 112.068 122.12 111.989 121.825 111.83C121.553 111.649 121.417 111.399 121.417 111.082V99.862C121.417 98.8873 121.383 98.1053 121.315 97.516C121.27 96.904 121.213 96.428 121.145 96.088C121.1 95.748 121.077 95.476 121.077 95.272C121.077 95.068 121.202 94.898 121.451 94.762C121.723 94.626 122.04 94.524 122.403 94.456C122.788 94.388 123.151 94.3427 123.491 94.32C123.854 94.2747 124.126 94.252 124.307 94.252C124.556 94.252 124.749 94.32 124.885 94.456C125.021 94.592 125.134 94.8413 125.225 95.204C125.338 95.5667 125.452 96.0993 125.565 96.802C125.814 96.2127 126.143 95.714 126.551 95.306C126.959 94.8753 127.412 94.5467 127.911 94.32C128.41 94.0933 128.92 93.98 129.441 93.98C130.008 93.98 130.382 94.0933 130.563 94.32C130.767 94.5467 130.869 94.8867 130.869 95.34C130.869 95.544 130.846 95.816 130.801 96.156C130.778 96.496 130.722 96.8473 130.631 97.21C130.54 97.55 130.427 97.8447 130.291 98.094C130.178 98.3433 130.019 98.468 129.815 98.468C129.634 98.468 129.43 98.4113 129.203 98.298C128.976 98.1847 128.648 98.128 128.217 98.128C127.673 98.128 127.174 98.264 126.721 98.536C126.29 98.808 125.962 99.182 125.735 99.658V111.082C125.735 111.399 125.588 111.649 125.293 111.83C125.021 111.989 124.556 112.068 123.899 112.068H123.219ZM147.694 112.068C147.195 112.068 146.799 112.011 146.504 111.898C146.209 111.762 146.028 111.569 145.96 111.32L140.01 89.39C139.987 89.2993 139.965 89.2087 139.942 89.118C139.919 89.0047 139.908 88.9027 139.908 88.812C139.908 88.5853 140.033 88.4153 140.282 88.302C140.554 88.1887 140.962 88.132 141.506 88.132H142.594C143.047 88.132 143.433 88.166 143.75 88.234C144.067 88.302 144.26 88.5287 144.328 88.914L148.442 107.512H148.578L152.828 89.05C152.919 88.6873 153.134 88.4493 153.474 88.336C153.814 88.2 154.211 88.132 154.664 88.132H155.684C156.16 88.132 156.568 88.2 156.908 88.336C157.271 88.4493 157.497 88.6987 157.588 89.084L161.77 107.512H161.906L166.088 88.914C166.133 88.6193 166.292 88.4153 166.564 88.302C166.859 88.1887 167.199 88.132 167.584 88.132H168.604C169.239 88.132 169.703 88.1887 169.998 88.302C170.293 88.4153 170.44 88.5853 170.44 88.812C170.44 88.9027 170.429 89.0047 170.406 89.118C170.383 89.2087 170.349 89.2993 170.304 89.39L164.354 111.32C164.286 111.569 164.105 111.762 163.81 111.898C163.515 112.011 163.119 112.068 162.62 112.068H161.022C160.523 112.068 160.115 112.011 159.798 111.898C159.503 111.762 159.322 111.569 159.254 111.32L155.242 93.98H155.106L151.094 111.32C151.026 111.569 150.833 111.762 150.516 111.898C150.199 112.011 149.791 112.068 149.292 112.068H147.694ZM179.138 112.238C176.486 112.238 174.468 111.456 173.086 109.892C171.703 108.328 171.012 106.073 171.012 103.126C171.012 100.157 171.703 97.89 173.086 96.326C174.468 94.762 176.486 93.98 179.138 93.98C181.767 93.98 183.762 94.762 185.122 96.326C186.482 97.89 187.162 100.157 187.162 103.126C187.162 106.073 186.482 108.328 185.122 109.892C183.784 111.456 181.79 112.238 179.138 112.238ZM179.104 108.804C180.373 108.804 181.302 108.328 181.892 107.376C182.481 106.424 182.776 104.996 182.776 103.092C182.776 101.211 182.481 99.794 181.892 98.842C181.302 97.89 180.373 97.414 179.104 97.414C177.834 97.414 176.894 97.89 176.282 98.842C175.692 99.7713 175.398 101.199 175.398 103.126C175.398 105.007 175.692 106.424 176.282 107.376C176.894 108.328 177.834 108.804 179.104 108.804ZM193.283 112.068C192.648 112.068 192.184 111.989 191.889 111.83C191.617 111.649 191.481 111.399 191.481 111.082V99.862C191.481 98.8873 191.447 98.1053 191.379 97.516C191.334 96.904 191.277 96.428 191.209 96.088C191.164 95.748 191.141 95.476 191.141 95.272C191.141 95.068 191.266 94.898 191.515 94.762C191.787 94.626 192.104 94.524 192.467 94.456C192.852 94.388 193.215 94.3427 193.555 94.32C193.918 94.2747 194.19 94.252 194.371 94.252C194.62 94.252 194.813 94.32 194.949 94.456C195.085 94.592 195.198 94.8413 195.289 95.204C195.402 95.5667 195.516 96.0993 195.629 96.802C195.878 96.2127 196.207 95.714 196.615 95.306C197.023 94.8753 197.476 94.5467 197.975 94.32C198.474 94.0933 198.984 93.98 199.505 93.98C200.072 93.98 200.446 94.0933 200.627 94.32C200.831 94.5467 200.933 94.8867 200.933 95.34C200.933 95.544 200.91 95.816 200.865 96.156C200.842 96.496 200.786 96.8473 200.695 97.21C200.604 97.55 200.491 97.8447 200.355 98.094C200.242 98.3433 200.083 98.468 199.879 98.468C199.698 98.468 199.494 98.4113 199.267 98.298C199.04 98.1847 198.712 98.128 198.281 98.128C197.737 98.128 197.238 98.264 196.785 98.536C196.354 98.808 196.026 99.182 195.799 99.658V111.082C195.799 111.399 195.652 111.649 195.357 111.83C195.085 111.989 194.62 112.068 193.963 112.068H193.283ZM205.622 112.068C204.987 112.068 204.523 111.989 204.228 111.83C203.956 111.649 203.82 111.399 203.82 111.082V87.384C203.82 87.0667 203.956 86.8287 204.228 86.67C204.523 86.4887 204.987 86.398 205.622 86.398H206.37C207.005 86.398 207.458 86.4887 207.73 86.67C208.025 86.8287 208.172 87.0667 208.172 87.384V101.358H208.342L213.17 94.83C213.283 94.626 213.419 94.4787 213.578 94.388C213.737 94.2973 213.941 94.2407 214.19 94.218C214.462 94.1727 214.825 94.15 215.278 94.15H216.162C216.683 94.15 217.08 94.184 217.352 94.252C217.624 94.2973 217.76 94.4333 217.76 94.66C217.76 94.7733 217.715 94.9093 217.624 95.068C217.556 95.2267 217.443 95.408 217.284 95.612L211.606 103.024V101.494L218.032 110.776C218.145 110.935 218.236 111.082 218.304 111.218C218.372 111.331 218.406 111.433 218.406 111.524C218.406 111.751 218.247 111.898 217.93 111.966C217.635 112.034 217.205 112.068 216.638 112.068H215.822C215.119 112.068 214.598 112 214.258 111.864C213.918 111.728 213.623 111.467 213.374 111.082L208.342 103.67H208.172V111.082C208.172 111.399 208.025 111.649 207.73 111.83C207.458 111.989 207.005 112.068 206.37 112.068H205.622ZM224.158 112.068C223.523 112.068 223.059 111.989 222.764 111.83C222.492 111.649 222.356 111.399 222.356 111.082V97.652H221.03C220.441 97.652 220.146 97.1647 220.146 96.19V95.68C220.146 94.7053 220.441 94.218 221.03 94.218H222.356V91.09C222.356 90.002 222.526 89.1067 222.866 88.404C223.206 87.6787 223.716 87.1347 224.396 86.772C225.099 86.3867 225.96 86.194 226.98 86.194C227.479 86.194 227.977 86.2507 228.476 86.364C228.997 86.4773 229.439 86.6247 229.802 86.806C230.165 86.9647 230.346 87.1573 230.346 87.384C230.346 87.52 230.323 87.7353 230.278 88.03C230.255 88.302 230.21 88.5967 230.142 88.914C230.074 89.2313 229.983 89.5033 229.87 89.73C229.779 89.934 229.677 90.036 229.564 90.036C229.405 90.036 229.213 89.9907 228.986 89.9C228.759 89.7867 228.431 89.73 228 89.73C227.524 89.73 227.184 89.8433 226.98 90.07C226.799 90.2967 226.708 90.716 226.708 91.328V94.218H229.054C229.666 94.218 229.972 94.7053 229.972 95.68V96.19C229.972 97.1647 229.666 97.652 229.054 97.652H226.708V111.082C226.708 111.399 226.561 111.649 226.266 111.83C225.994 111.989 225.529 112.068 224.872 112.068H224.158ZM240.237 112.238C237.585 112.238 235.567 111.456 234.185 109.892C232.802 108.328 232.111 106.073 232.111 103.126C232.111 100.157 232.802 97.89 234.185 96.326C235.567 94.762 237.585 93.98 240.237 93.98C242.866 93.98 244.861 94.762 246.221 96.326C247.581 97.89 248.261 100.157 248.261 103.126C248.261 106.073 247.581 108.328 246.221 109.892C244.883 111.456 242.889 112.238 240.237 112.238ZM240.203 108.804C241.472 108.804 242.401 108.328 242.991 107.376C243.58 106.424 243.875 104.996 243.875 103.092C243.875 101.211 243.58 99.794 242.991 98.842C242.401 97.89 241.472 97.414 240.203 97.414C238.933 97.414 237.993 97.89 237.381 98.842C236.791 99.7713 236.497 101.199 236.497 103.126C236.497 105.007 236.791 106.424 237.381 107.376C237.993 108.328 238.933 108.804 240.203 108.804ZM254.382 112.068C253.747 112.068 253.282 111.989 252.988 111.83C252.716 111.649 252.58 111.399 252.58 111.082V99.862C252.58 98.8873 252.546 98.1053 252.478 97.516C252.432 96.904 252.376 96.428 252.308 96.088C252.262 95.748 252.24 95.476 252.24 95.272C252.24 95.068 252.364 94.898 252.614 94.762C252.886 94.626 253.203 94.524 253.566 94.456C253.951 94.388 254.314 94.3427 254.654 94.32C255.016 94.2747 255.288 94.252 255.47 94.252C255.719 94.252 255.912 94.32 256.048 94.456C256.184 94.592 256.297 94.8413 256.388 95.204C256.501 95.5667 256.614 96.0993 256.728 96.802C256.977 96.2127 257.306 95.714 257.714 95.306C258.122 94.8753 258.575 94.5467 259.074 94.32C259.572 94.0933 260.082 93.98 260.604 93.98C261.17 93.98 261.544 94.0933 261.726 94.32C261.93 94.5467 262.032 94.8867 262.032 95.34C262.032 95.544 262.009 95.816 261.964 96.156C261.941 96.496 261.884 96.8473 261.794 97.21C261.703 97.55 261.59 97.8447 261.454 98.094C261.34 98.3433 261.182 98.468 260.978 98.468C260.796 98.468 260.592 98.4113 260.366 98.298C260.139 98.1847 259.81 98.128 259.38 98.128C258.836 98.128 258.337 98.264 257.884 98.536C257.453 98.808 257.124 99.182 256.898 99.658V111.082C256.898 111.399 256.75 111.649 256.456 111.83C256.184 111.989 255.719 112.068 255.062 112.068H254.382ZM271.769 112.238C268.913 112.238 266.816 111.513 265.479 110.062C264.164 108.611 263.507 106.333 263.507 103.228C263.507 100.213 264.198 97.924 265.581 96.36C266.963 94.7733 269.105 93.98 272.007 93.98C272.641 93.98 273.276 94.0367 273.911 94.15C274.545 94.2633 275.123 94.4333 275.645 94.66C276.189 94.864 276.619 95.0907 276.937 95.34C277.277 95.5893 277.447 95.85 277.447 96.122C277.447 96.3033 277.379 96.5867 277.243 96.972C277.107 97.3347 276.937 97.6633 276.733 97.958C276.551 98.2527 276.359 98.4 276.155 98.4C275.951 98.4 275.667 98.3207 275.305 98.162C274.942 97.9807 274.477 97.8107 273.911 97.652C273.367 97.4933 272.698 97.414 271.905 97.414C270.522 97.414 269.502 97.8787 268.845 98.808C268.21 99.7147 267.893 101.143 267.893 103.092C267.893 105.087 268.21 106.537 268.845 107.444C269.502 108.351 270.545 108.804 271.973 108.804C272.766 108.804 273.457 108.713 274.047 108.532C274.659 108.328 275.169 108.124 275.577 107.92C275.985 107.716 276.279 107.614 276.461 107.614C276.665 107.614 276.846 107.761 277.005 108.056C277.186 108.351 277.333 108.679 277.447 109.042C277.56 109.405 277.617 109.688 277.617 109.892C277.617 110.187 277.424 110.47 277.039 110.742C276.676 111.014 276.2 111.263 275.611 111.49C275.021 111.717 274.387 111.898 273.707 112.034C273.027 112.17 272.381 112.238 271.769 112.238ZM288.736 112.238C285.812 112.238 283.648 111.467 282.242 109.926C280.837 108.385 280.134 106.152 280.134 103.228C280.134 101.075 280.463 99.318 281.12 97.958C281.8 96.598 282.752 95.6007 283.976 94.966C285.2 94.3087 286.628 93.98 288.26 93.98C289.983 93.98 291.366 94.3653 292.408 95.136C293.474 95.884 294.244 96.9153 294.72 98.23C295.219 99.522 295.468 100.995 295.468 102.65C295.468 102.899 295.378 103.183 295.196 103.5C295.015 103.795 294.8 104.044 294.55 104.248C294.301 104.452 294.063 104.554 293.836 104.554H284.52C284.566 106.095 284.974 107.195 285.744 107.852C286.515 108.487 287.569 108.804 288.906 108.804C289.79 108.804 290.561 108.691 291.218 108.464C291.876 108.237 292.408 108.011 292.816 107.784C293.247 107.557 293.553 107.444 293.734 107.444C293.938 107.444 294.131 107.591 294.312 107.886C294.516 108.181 294.686 108.509 294.822 108.872C294.958 109.235 295.026 109.518 295.026 109.722C295.026 110.017 294.822 110.311 294.414 110.606C294.029 110.901 293.508 111.184 292.85 111.456C292.216 111.705 291.536 111.898 290.81 112.034C290.085 112.17 289.394 112.238 288.736 112.238ZM284.486 101.528H291.32C291.32 100.168 291.037 99.148 290.47 98.468C289.926 97.7653 289.11 97.414 288.022 97.414C287.41 97.414 286.832 97.55 286.288 97.822C285.767 98.0713 285.336 98.4907 284.996 99.08C284.679 99.6693 284.509 100.485 284.486 101.528Z" fill="#171717"/>
<path d="M195.18 7.82C195.513 7.82 195.793 7.96667 196.02 8.26C196.247 8.55333 196.54 9.16 196.9 10.08C197.74 12.2533 198.56 15.66 199.36 20.3C199.373 20.3533 199.38 20.4333 199.38 20.54C199.38 20.6333 199.313 20.74 199.18 20.86C199.06 20.9667 198.88 21.02 198.64 21.02C198.413 21.02 198.22 20.9667 198.06 20.86C197.9 20.74 197.793 20.5533 197.74 20.3C197.687 20.0333 197.587 19.52 197.44 18.76C197.12 17.0667 196.907 16.1867 196.8 16.12C196.64 16.0267 196.107 15.9267 195.2 15.82C194.307 15.7133 193.713 15.66 193.42 15.66C193.127 15.66 192.953 15.6867 192.9 15.74C192.66 15.9533 192.333 17.5733 191.92 20.6C191.867 20.8533 191.613 20.98 191.16 20.98C190.707 20.98 190.48 20.7867 190.48 20.4C190.48 19.44 190.833 17.6067 191.54 14.9C192.247 12.1933 192.833 10.4 193.3 9.52C193.887 8.38667 194.513 7.82 195.18 7.82ZM195.1 10.04C194.9 10.04 194.553 10.6333 194.06 11.82C193.567 12.9933 193.32 13.72 193.32 14C193.32 14.0667 193.333 14.1133 193.36 14.14C193.467 14.2467 193.887 14.34 194.62 14.42C195.353 14.5 195.84 14.54 196.08 14.54C196.32 14.54 196.453 14.5267 196.48 14.5C196.507 14.46 196.52 14.3533 196.52 14.18C196.52 13.9933 196.34 13.26 195.98 11.98C195.62 10.6867 195.327 10.04 195.1 10.04ZM200.246 16.32C200.246 15.4267 200.479 14.6133 200.946 13.88C201.426 13.1467 202.032 12.6 202.766 12.24C203.499 11.8667 204.212 11.68 204.906 11.68C205.599 11.68 206.152 11.7667 206.566 11.94C206.992 12.1 207.206 12.32 207.206 12.6C207.206 12.8667 207.126 13.14 206.966 13.42C206.819 13.6867 206.619 13.82 206.366 13.82C206.272 13.82 206.012 13.7467 205.586 13.6C205.172 13.44 204.906 13.36 204.786 13.36C204.012 13.36 203.352 13.6467 202.806 14.22C202.259 14.78 201.986 15.5267 201.986 16.46C201.986 17.3933 202.132 18.0933 202.426 18.56C202.732 19.0133 203.252 19.24 203.986 19.24C204.279 19.24 204.779 19.0733 205.486 18.74C206.206 18.3933 206.652 18.22 206.826 18.22C206.999 18.22 207.139 18.2733 207.246 18.38C207.352 18.4867 207.406 18.62 207.406 18.78C207.406 19.1 207.199 19.44 206.786 19.8C206.386 20.1467 205.886 20.44 205.286 20.68C204.686 20.9067 204.146 21.02 203.666 21.02C202.599 21.02 201.759 20.6 201.146 19.76C200.546 18.92 200.246 17.7733 200.246 16.32ZM208.78 11.66L209.78 11.68C210.006 11.68 210.133 11.6733 210.16 11.66V7.56C210.173 7.33333 210.286 7.14 210.5 6.98C210.713 6.82 210.913 6.74 211.1 6.74C211.286 6.74 211.433 6.8 211.54 6.92C211.66 7.04 211.713 7.22667 211.7 7.48C211.686 7.73333 211.68 9.12 211.68 11.64L214.02 11.56C214.42 11.56 214.62 11.7933 214.62 12.26C214.62 12.6067 214.513 12.8667 214.3 13.04C214.1 13.2133 213.88 13.3067 213.64 13.32C213.413 13.3333 213.186 13.34 212.96 13.34L211.74 13.32C211.74 13.8667 211.793 14.9467 211.9 16.56C212.02 18.1733 212.113 19.22 212.18 19.7C212.246 20.1667 212.26 20.4733 212.22 20.62C212.18 20.7533 212.106 20.8467 212 20.9C211.826 20.98 211.593 21.02 211.3 21.02C211.006 21.02 210.833 20.86 210.78 20.54C210.513 18.7933 210.333 16.3933 210.24 13.34C210.12 13.3533 209.66 13.36 208.86 13.36C208.06 13.36 207.66 13.1267 207.66 12.66C207.66 11.9933 208.033 11.66 208.78 11.66ZM215.115 12.44C215.168 12.2133 215.281 12.0267 215.455 11.88C215.628 11.72 215.801 11.64 215.975 11.64C216.161 11.64 216.301 11.6733 216.395 11.74C216.501 11.8067 216.561 11.8667 216.575 11.92C216.601 11.9733 216.628 12.0667 216.655 12.2C216.575 13.24 216.535 14.18 216.535 15.02C216.535 15.8467 216.635 16.8 216.835 17.88C217.035 18.9467 217.255 19.48 217.495 19.48C217.855 19.48 218.308 19.28 218.855 18.88C219.415 18.48 219.815 18.06 220.055 17.62C219.895 15.7 219.815 14.0533 219.815 12.68C219.815 12.4 219.901 12.16 220.075 11.96C220.261 11.76 220.481 11.66 220.735 11.66C221.148 11.66 221.355 11.94 221.355 12.5C221.355 13.4467 221.421 14.8533 221.555 16.72C221.701 18.5867 221.848 19.7733 221.995 20.28C222.021 20.3867 222.035 20.5133 222.035 20.66C222.035 20.7933 221.941 20.92 221.755 21.04C221.581 21.1733 221.348 21.24 221.055 21.24C220.775 21.24 220.588 21.08 220.495 20.76C220.468 20.4933 220.401 20.0933 220.295 19.56C219.361 20.5333 218.421 21.02 217.475 21.02C217.035 21.02 216.641 20.8533 216.295 20.52C215.948 20.1867 215.675 19.7333 215.475 19.16C215.128 18.0533 214.955 17.0133 214.955 16.04C214.955 15.0667 215.008 13.8667 215.115 12.44ZM228.742 11.66C229.329 11.66 229.622 12.16 229.622 13.16C229.622 13.2667 229.622 13.38 229.622 13.5L229.582 14.9C229.569 15.34 229.562 15.7733 229.562 16.2L229.862 20.72C229.862 21.0533 229.522 21.22 228.842 21.22C228.802 21.22 228.702 21.22 228.542 21.22C228.396 21.22 228.289 21.16 228.222 21.04C228.169 20.92 228.162 20.7733 228.202 20.6C228.256 20.4267 228.242 20.2333 228.162 20.02C227.549 20.6733 226.736 21 225.722 21C223.842 21 222.902 19.5467 222.902 16.64C222.902 15.0267 223.202 13.8067 223.802 12.98C224.416 12.1533 225.289 11.74 226.422 11.74C226.956 11.74 227.489 11.8333 228.022 12.02C228.196 11.78 228.436 11.66 228.742 11.66ZM226.662 13.48C225.902 13.48 225.336 13.7 224.962 14.14C224.589 14.58 224.402 15.3867 224.402 16.56C224.402 18.5333 224.936 19.52 226.002 19.52C226.282 19.52 226.589 19.3933 226.922 19.14C227.269 18.8867 227.509 18.6 227.642 18.28C227.896 17.56 228.022 16.7733 228.022 15.92C228.022 15.0667 227.916 14.4467 227.702 14.06C227.502 13.6733 227.156 13.48 226.662 13.48ZM238.254 18.02C238.721 18.02 238.954 18.4133 238.954 19.2C238.954 19.6267 238.721 20.0533 238.254 20.48C237.801 20.8933 237.301 21.1 236.754 21.1C235.941 21.1 235.341 20.6867 234.954 19.86C234.781 20.1933 234.501 20.4867 234.114 20.74C233.741 20.98 233.361 21.1 232.974 21.1C232.601 21.1 232.274 21.0267 231.994 20.88C231.728 20.72 231.508 20.4867 231.334 20.18C231.174 19.8733 231.041 19.58 230.934 19.3C230.841 19.0067 230.768 18.6533 230.714 18.24C230.648 17.5733 230.594 16.5067 230.554 15.04C230.528 13.56 230.514 12.1533 230.514 10.82C230.514 9.47333 230.528 8.55333 230.554 8.06C230.594 7.55333 230.674 7.22667 230.794 7.08C230.928 6.92 231.128 6.84 231.394 6.84C231.981 6.84 232.274 7.07333 232.274 7.54C232.274 7.9 232.241 8.84 232.174 10.36C232.121 11.88 232.094 13.24 232.094 14.44C232.094 15.64 232.141 16.6067 232.234 17.34C232.394 18.62 232.621 19.26 232.914 19.26C233.208 19.26 233.434 19.0533 233.594 18.64C233.648 18.48 233.748 18.34 233.894 18.22C234.041 18.0867 234.228 18.02 234.454 18.02H234.494C234.374 16.8467 234.314 15.02 234.314 12.54C234.314 10.0467 234.328 8.55333 234.354 8.06C234.394 7.55333 234.474 7.22667 234.594 7.08C234.728 6.92 234.928 6.84 235.194 6.84C235.781 6.84 236.074 7.07333 236.074 7.54C236.074 7.9 236.041 8.84 235.974 10.36C235.921 11.88 235.894 13.24 235.894 14.44C235.894 15.64 235.941 16.6067 236.034 17.34C236.194 18.62 236.421 19.26 236.714 19.26C237.008 19.26 237.234 19.0533 237.394 18.64C237.448 18.48 237.548 18.34 237.694 18.22C237.841 18.0867 238.028 18.02 238.254 18.02ZM245.988 11.76C246.161 11.76 246.328 11.82 246.488 11.94C246.661 12.06 246.748 12.1933 246.748 12.34C246.748 12.7267 246.181 14.82 245.048 18.62C243.914 22.42 243.074 25.0867 242.528 26.62C242.408 26.98 242.221 27.16 241.968 27.16C241.714 27.16 241.514 27.0667 241.368 26.88C241.221 26.7067 241.148 26.4467 241.148 26.1C241.148 25.7533 241.368 24.92 241.808 23.6C242.261 22.2933 242.534 21.46 242.628 21.1C242.294 20.54 241.168 17.74 239.248 12.7C239.221 12.6333 239.208 12.5467 239.208 12.44C239.208 12.3333 239.288 12.1933 239.448 12.02C239.608 11.8467 239.828 11.76 240.108 11.76C240.388 11.76 240.614 11.9 240.788 12.18C240.974 12.66 241.281 13.5 241.708 14.7C242.134 15.8867 242.461 16.7467 242.688 17.28C242.928 17.8133 243.154 18.3667 243.368 18.94C243.554 18.3133 243.874 17.1 244.328 15.3C244.781 13.4867 245.041 12.4533 245.108 12.2C245.161 11.9067 245.454 11.76 245.988 11.76Z" fill="#CE510B"/>
<path d="M224 38.1429L219.481 31.6877C219.264 31.3773 218.794 31.412 218.625 31.7508L214 41" stroke="#CE510B" stroke-width="1.5" stroke-linecap="round"/>
</svg>
