<svg width="42" height="32" viewBox="0 0 42 32" fill="none" xmlns="http://www.w3.org/2000/svg">
<g filter="url(#filter0_dd_226_696)">
<path d="M15.5117 12.0161L6.29796 20.7939C6.09114 20.991 6.09114 21.3209 6.29796 21.5179L8.83397 23.934C9.02946 24.1202 9.33751 24.1176 9.52982 23.9281L15.5252 18.0195C15.7119 17.8355 16.0092 17.827 16.2062 18.0001L21.4365 22.5966C21.636 22.772 21.9378 22.7607 22.1237 22.571L32.4027 12.0819C32.6096 11.8707 32.9537 11.8843 33.1433 12.1111L34.1931 13.3666C34.4766 13.7056 35.0283 13.5371 35.074 13.0976L35.8438 5.69607C35.8797 5.34994 35.5599 5.07381 35.2228 5.15989L28.557 6.86146C28.1762 6.95866 28.0513 7.43689 28.3358 7.70794L29.7404 9.04612C29.9472 9.24316 29.9472 9.57312 29.7404 9.77015L22.1371 17.0137C21.944 17.1977 21.6404 17.1977 21.4473 17.0137L16.2015 12.0161C16.0084 11.8321 15.7049 11.8321 15.5117 12.0161Z" fill="white"/>
<path d="M35.1553 4.08398C36.1385 3.96024 37.0151 4.78681 36.9092 5.80664L36.1396 13.208C35.996 14.5895 34.2621 15.1192 33.3711 14.0537L32.7256 13.2822L22.8887 23.3213C22.3044 23.9172 21.3564 23.9522 20.7295 23.4014L15.8975 19.1553L10.2822 24.6914C9.67783 25.2871 8.70914 25.2953 8.09473 24.71L5.55859 22.2939C4.90876 21.6748 4.90897 20.6378 5.55859 20.0186L14.7725 11.2402C15.3794 10.6621 16.3335 10.6621 16.9404 11.2402L21.792 15.8623L28.5664 9.40723L27.5967 8.4834C26.7027 7.63149 27.0954 6.12869 28.292 5.82324L34.958 4.12207L35.1553 4.08398Z" stroke="white" stroke-width="2.14286"/>
</g>
<path d="M15.5117 12.0161L6.29796 20.7939C6.09114 20.991 6.09114 21.3209 6.29796 21.5179L8.83397 23.934C9.02946 24.1202 9.33751 24.1176 9.52982 23.9281L15.5252 18.0195C15.7119 17.8355 16.0092 17.827 16.2062 18.0001L21.4365 22.5966C21.636 22.772 21.9378 22.7607 22.1237 22.571L32.4027 12.0819C32.6096 11.8707 32.9537 11.8843 33.1433 12.1111L34.1931 13.3666C34.4766 13.7056 35.0283 13.5371 35.074 13.0976L35.8438 5.69607C35.8797 5.34994 35.5599 5.07381 35.2228 5.15989L28.557 6.86146C28.1762 6.95866 28.0513 7.43689 28.3358 7.70794L29.7404 9.04612C29.9472 9.24316 29.9472 9.57312 29.7404 9.77015L22.1371 17.0137C21.944 17.1977 21.6404 17.1977 21.4473 17.0137L16.2015 12.0161C16.0084 11.8321 15.7049 11.8321 15.5117 12.0161Z" fill="#FFCE99" stroke="#FE7500" stroke-width="1.07143"/>
<defs>
<filter id="filter0_dd_226_696" x="0" y="0" width="41.9883" height="31.2148" filterUnits="userSpaceOnUse" color-interpolation-filters="sRGB">
<feFlood flood-opacity="0" result="BackgroundImageFix"/>
<feColorMatrix in="SourceAlpha" type="matrix" values="0 0 0 0 0 0 0 0 0 0 0 0 0 0 0 0 0 0 127 0" result="hardAlpha"/>
<feMorphology radius="1" operator="dilate" in="SourceAlpha" result="effect1_dropShadow_226_696"/>
<feOffset dy="1"/>
<feGaussianBlur stdDeviation="1.5"/>
<feColorMatrix type="matrix" values="0 0 0 0 0 0 0 0 0 0 0 0 0 0 0 0 0 0 0.15 0"/>
<feBlend mode="normal" in2="BackgroundImageFix" result="effect1_dropShadow_226_696"/>
<feColorMatrix in="SourceAlpha" type="matrix" values="0 0 0 0 0 0 0 0 0 0 0 0 0 0 0 0 0 0 127 0" result="hardAlpha"/>
<feOffset dy="1"/>
<feGaussianBlur stdDeviation="1"/>
<feColorMatrix type="matrix" values="0 0 0 0 0 0 0 0 0 0 0 0 0 0 0 0 0 0 0.3 0"/>
<feBlend mode="normal" in2="effect1_dropShadow_226_696" result="effect2_dropShadow_226_696"/>
<feBlend mode="normal" in="SourceGraphic" in2="effect2_dropShadow_226_696" result="shape"/>
</filter>
</defs>
</svg>
