<svg width="115" height="45" viewBox="0 0 115 45" fill="none" xmlns="http://www.w3.org/2000/svg">
<rect x="0.5" y="0.5" width="114" height="44" rx="11.5" fill="white"/>
<rect x="0.5" y="0.5" width="114" height="44" rx="11.5" stroke="#8A7B6A"/>
<rect x="6.5" y="6.5" width="102" height="32" rx="9.5" fill="#F2E9DC"/>
<rect x="6.5" y="6.5" width="102" height="32" rx="9.5" stroke="#8A7B6A"/>
<path d="M14.144 28.032C13.888 28.032 13.7013 28 13.584 27.936C13.4667 27.8613 13.408 27.76 13.408 27.632V17.168C13.408 17.04 13.4667 16.944 13.584 16.88C13.7013 16.8053 13.888 16.768 14.144 16.768H14.4C14.6773 16.768 14.8693 16.8053 14.976 16.88C15.0933 16.944 15.152 17.04 15.152 17.168V21.536H20.576V17.168C20.576 17.04 20.6347 16.944 20.752 16.88C20.8693 16.8053 21.0613 16.768 21.328 16.768H21.584C21.8507 16.768 22.0373 16.8053 22.144 16.88C22.2613 16.944 22.32 17.04 22.32 17.168V27.632C22.32 27.76 22.2613 27.8613 22.144 27.936C22.0373 28 21.8507 28.032 21.584 28.032H21.328C21.0613 28.032 20.8693 28 20.752 27.936C20.6347 27.8613 20.576 27.76 20.576 27.632V22.992H15.152V27.632C15.152 27.76 15.0933 27.8613 14.976 27.936C14.8693 28 14.6773 28.032 14.4 28.032H14.144ZM27.9904 28.112C26.7744 28.112 25.841 27.744 25.1904 27.008C24.5504 26.272 24.2304 25.216 24.2304 23.84C24.2304 22.4533 24.5504 21.3867 25.1904 20.64C25.841 19.8933 26.7744 19.52 27.9904 19.52C29.1957 19.52 30.113 19.8933 30.7424 20.64C31.3824 21.376 31.7024 22.4427 31.7024 23.84C31.7024 25.2267 31.3877 26.288 30.7584 27.024C30.1397 27.7493 29.217 28.112 27.9904 28.112ZM27.9584 26.752C28.6624 26.752 29.1744 26.512 29.4944 26.032C29.825 25.552 29.9904 24.816 29.9904 23.824C29.9904 22.832 29.825 22.096 29.4944 21.616C29.1744 21.1253 28.6624 20.88 27.9584 20.88C27.265 20.88 26.753 21.12 26.4224 21.6C26.1024 22.08 25.9424 22.8213 25.9424 23.824C25.9424 24.816 26.1024 25.552 26.4224 26.032C26.753 26.512 27.265 26.752 27.9584 26.752ZM35.3275 28.032C35.1462 28.032 34.9862 28.0107 34.8475 27.968C34.7195 27.9147 34.6342 27.8187 34.5915 27.68L32.5275 20.144C32.5168 20.1013 32.5062 20.0587 32.4955 20.016C32.4848 19.9733 32.4795 19.9307 32.4795 19.888C32.4795 19.8027 32.5382 19.7333 32.6555 19.68C32.7835 19.6267 32.9808 19.6 33.2475 19.6H33.4715C33.6528 19.6 33.8075 19.6213 33.9355 19.664C34.0742 19.7067 34.1542 19.776 34.1755 19.872L35.6475 26.48H35.7115L37.2315 19.872C37.2528 19.776 37.3328 19.7067 37.4715 19.664C37.6102 19.6213 37.7702 19.6 37.9515 19.6H38.1915C38.4048 19.6 38.5755 19.6213 38.7035 19.664C38.8315 19.7067 38.9062 19.7813 38.9275 19.888L40.4315 26.432H40.4955L42.0475 19.872C42.0688 19.776 42.1488 19.7067 42.2875 19.664C42.4262 19.6213 42.5862 19.6 42.7675 19.6H42.8315C43.0875 19.6 43.2688 19.6267 43.3755 19.68C43.4822 19.7333 43.5355 19.8027 43.5355 19.888C43.5355 19.92 43.5302 19.9573 43.5195 20C43.5195 20.0427 43.5088 20.0907 43.4875 20.144L41.4715 27.68C41.4288 27.8187 41.3382 27.9147 41.1995 27.968C41.0715 28.0107 40.9168 28.032 40.7355 28.032H40.1595C39.9782 28.032 39.8182 28.0107 39.6795 27.968C39.5408 27.9147 39.4502 27.8187 39.4075 27.68L38.0795 21.936H38.0155L36.6715 27.68C36.6395 27.8187 36.5488 27.9147 36.3995 27.968C36.2608 28.0107 36.0955 28.032 35.9035 28.032H35.3275ZM49.3484 28.032C49.0924 28.032 48.9057 28 48.7884 27.936C48.671 27.8613 48.6124 27.76 48.6124 27.632V17.168C48.6124 17.04 48.671 16.944 48.7884 16.88C48.9057 16.8053 49.0924 16.768 49.3484 16.768H49.6044C49.8817 16.768 50.0737 16.8053 50.1804 16.88C50.2977 16.944 50.3564 17.04 50.3564 17.168V27.632C50.3564 27.76 50.2977 27.8613 50.1804 27.936C50.0737 28 49.8817 28.032 49.6044 28.032H49.3484ZM55.0476 28.112C54.5996 28.112 54.221 28.0267 53.9116 27.856C53.613 27.6853 53.389 27.44 53.2396 27.12C53.0903 26.7893 53.0156 26.384 53.0156 25.904V20.992H52.2956C52.0503 20.992 51.9276 20.8 51.9276 20.416V20.208C51.9276 19.824 52.0503 19.632 52.2956 19.632H53.0156L53.2236 18C53.245 17.8613 53.3036 17.76 53.3996 17.696C53.4956 17.632 53.6343 17.6 53.8156 17.6H54.0556C54.2796 17.6 54.4396 17.632 54.5356 17.696C54.6316 17.76 54.6796 17.8613 54.6796 18V19.632H55.9276C56.173 19.632 56.2956 19.824 56.2956 20.208V20.416C56.2956 20.8 56.173 20.992 55.9276 20.992H54.6796V25.872C54.6796 26.1813 54.7276 26.4 54.8236 26.528C54.9303 26.656 55.1116 26.72 55.3676 26.72C55.6023 26.72 55.7676 26.6933 55.8636 26.64C55.9703 26.5867 56.061 26.56 56.1356 26.56C56.1996 26.56 56.2476 26.6027 56.2796 26.688C56.3223 26.7627 56.3543 26.8587 56.3756 26.976C56.4076 27.0827 56.4236 27.1893 56.4236 27.296C56.4343 27.392 56.4396 27.4613 56.4396 27.504C56.4396 27.6213 56.3596 27.728 56.1996 27.824C56.0503 27.9093 55.869 27.9787 55.6556 28.032C55.4423 28.0853 55.2396 28.112 55.0476 28.112ZM63.8961 28.032C63.6935 28.032 63.5335 28.0053 63.4161 27.952C63.2988 27.8987 63.2241 27.808 63.1921 27.68L60.3121 17.312C60.3015 17.2693 60.2908 17.2267 60.2801 17.184C60.2695 17.1413 60.2641 17.0987 60.2641 17.056C60.2641 16.9707 60.3175 16.9013 60.4241 16.848C60.5415 16.7947 60.7175 16.768 60.9521 16.768H61.2721C61.4535 16.768 61.6081 16.7893 61.7361 16.832C61.8748 16.864 61.9601 16.944 61.9921 17.072L64.2161 26.256H64.2801L66.3601 17.152C66.3921 17.0027 66.4721 16.9013 66.6001 16.848C66.7281 16.7947 66.8935 16.768 67.0961 16.768H67.5921C67.7948 16.768 67.9655 16.8 68.1041 16.864C68.2535 16.9173 68.3441 17.0133 68.3761 17.152L70.4721 26.256H70.5361L72.7601 17.072C72.7815 16.9547 72.8561 16.8747 72.9841 16.832C73.1121 16.7893 73.2615 16.768 73.4321 16.768H73.7361C73.9921 16.768 74.1788 16.7947 74.2961 16.848C74.4135 16.9013 74.4721 16.9707 74.4721 17.056C74.4721 17.0987 74.4668 17.1413 74.4561 17.184C74.4455 17.2267 74.4348 17.2693 74.4241 17.312L71.5441 27.68C71.5121 27.808 71.4375 27.8987 71.3201 27.952C71.2028 28.0053 71.0375 28.032 70.8241 28.032H70.1681C69.9655 28.032 69.7948 28.0053 69.6561 27.952C69.5281 27.8987 69.4481 27.808 69.4161 27.68L67.3841 18.976H67.3201L65.3201 27.68C65.2988 27.808 65.2188 27.8987 65.0801 27.952C64.9415 28.0053 64.7708 28.032 64.5681 28.032H63.8961ZM78.266 28.112C77.05 28.112 76.1167 27.744 75.466 27.008C74.826 26.272 74.506 25.216 74.506 23.84C74.506 22.4533 74.826 21.3867 75.466 20.64C76.1167 19.8933 77.05 19.52 78.266 19.52C79.4713 19.52 80.3887 19.8933 81.018 20.64C81.658 21.376 81.978 22.4427 81.978 23.84C81.978 25.2267 81.6633 26.288 81.034 27.024C80.4153 27.7493 79.4927 28.112 78.266 28.112ZM78.234 26.752C78.938 26.752 79.45 26.512 79.77 26.032C80.1007 25.552 80.266 24.816 80.266 23.824C80.266 22.832 80.1007 22.096 79.77 21.616C79.45 21.1253 78.938 20.88 78.234 20.88C77.5407 20.88 77.0287 21.12 76.698 21.6C76.378 22.08 76.218 22.8213 76.218 23.824C76.218 24.816 76.378 25.552 76.698 26.032C77.0287 26.512 77.5407 26.752 78.234 26.752ZM84.5594 28.032C84.3034 28.032 84.1167 28 83.9994 27.936C83.882 27.8613 83.8234 27.76 83.8234 27.632V22.144C83.8234 21.696 83.8074 21.3333 83.7754 21.056C83.754 20.7787 83.7274 20.56 83.6954 20.4C83.674 20.24 83.6634 20.1173 83.6634 20.032C83.6634 19.968 83.706 19.9093 83.7914 19.856C83.8874 19.8027 83.9994 19.76 84.1274 19.728C84.2554 19.696 84.3834 19.6747 84.5114 19.664C84.65 19.6533 84.762 19.648 84.8474 19.648C84.954 19.648 85.0394 19.6853 85.1034 19.76C85.1674 19.824 85.2207 19.9413 85.2634 20.112C85.3167 20.272 85.3647 20.496 85.4074 20.784C85.5567 20.5067 85.738 20.2773 85.9514 20.096C86.1647 19.904 86.3994 19.76 86.6554 19.664C86.9114 19.568 87.178 19.52 87.4554 19.52C87.6687 19.52 87.8234 19.568 87.9194 19.664C88.0154 19.76 88.0634 19.904 88.0634 20.096C88.0634 20.2027 88.0527 20.3253 88.0314 20.464C88.01 20.592 87.9834 20.72 87.9514 20.848C87.9194 20.9653 87.8767 21.0667 87.8234 21.152C87.7807 21.2267 87.722 21.264 87.6474 21.264C87.562 21.264 87.466 21.2427 87.3594 21.2C87.2527 21.1467 87.0874 21.12 86.8634 21.12C86.5434 21.12 86.2554 21.2053 85.9994 21.376C85.754 21.5467 85.5834 21.7813 85.4874 22.08V27.632C85.4874 27.76 85.4287 27.8613 85.3114 27.936C85.194 28 85.002 28.032 84.7354 28.032H84.5594ZM90.0348 28.032C89.7681 28.032 89.5814 28 89.4748 27.936C89.3681 27.8613 89.3148 27.76 89.3148 27.632V16.368C89.3148 16.2293 89.3681 16.128 89.4748 16.064C89.5814 15.9893 89.7681 15.952 90.0348 15.952H90.2588C90.5254 15.952 90.7121 15.9893 90.8188 16.064C90.9254 16.128 90.9788 16.2293 90.9788 16.368V23.216H91.0588L93.7628 19.872C93.8161 19.7867 93.8748 19.728 93.9388 19.696C94.0134 19.664 94.0988 19.6427 94.1948 19.632C94.2908 19.6107 94.4241 19.6 94.5948 19.6H94.8988C95.1014 19.6 95.2561 19.616 95.3628 19.648C95.4801 19.68 95.5388 19.744 95.5388 19.84C95.5388 19.8827 95.5228 19.936 95.4908 20C95.4588 20.064 95.4108 20.1333 95.3468 20.208L92.2748 23.936V23.2L95.6828 27.488C95.7361 27.5627 95.7734 27.6267 95.7948 27.68C95.8268 27.7227 95.8428 27.76 95.8428 27.792C95.8428 27.888 95.7788 27.952 95.6508 27.984C95.5334 28.016 95.3468 28.032 95.0908 28.032H94.8348C94.5574 28.032 94.3494 28.0053 94.2108 27.952C94.0828 27.8987 93.9548 27.792 93.8268 27.632L91.0588 24.096H90.9788V27.632C90.9788 27.76 90.9254 27.8613 90.8188 27.936C90.7121 28 90.5254 28.032 90.2588 28.032H90.0348ZM99.1945 28.144C98.8532 28.144 98.5278 28.112 98.2185 28.048C97.9092 27.984 97.6318 27.8987 97.3865 27.792C97.1518 27.6853 96.9652 27.5733 96.8265 27.456C96.6878 27.3387 96.6185 27.2213 96.6185 27.104C96.6185 27.0187 96.6558 26.9067 96.7305 26.768C96.8052 26.6187 96.8905 26.4853 96.9865 26.368C97.0825 26.24 97.1732 26.176 97.2585 26.176C97.3118 26.176 97.4132 26.2293 97.5625 26.336C97.7118 26.432 97.9145 26.528 98.1705 26.624C98.4265 26.72 98.7252 26.768 99.0665 26.768C99.5252 26.768 99.8718 26.6827 100.107 26.512C100.341 26.3307 100.459 26.0693 100.459 25.728C100.459 25.4827 100.395 25.28 100.267 25.12C100.139 24.96 99.9572 24.8267 99.7225 24.72C99.4985 24.6133 99.2425 24.512 98.9545 24.416C98.6985 24.32 98.4425 24.2133 98.1865 24.096C97.9305 23.9787 97.6958 23.8293 97.4825 23.648C97.2798 23.4667 97.1145 23.2373 96.9865 22.96C96.8692 22.6827 96.8105 22.336 96.8105 21.92C96.8105 21.44 96.9225 21.0187 97.1465 20.656C97.3812 20.2933 97.7012 20.016 98.1065 19.824C98.5225 19.6213 98.9972 19.52 99.5305 19.52C99.7972 19.52 100.059 19.536 100.315 19.568C100.571 19.6 100.805 19.6533 101.019 19.728C101.232 19.792 101.403 19.872 101.531 19.968C101.669 20.064 101.739 20.1653 101.739 20.272C101.739 20.368 101.707 20.496 101.643 20.656C101.579 20.8053 101.504 20.944 101.419 21.072C101.333 21.1893 101.248 21.248 101.163 21.248C101.109 21.248 100.96 21.184 100.715 21.056C100.48 20.928 100.149 20.864 99.7225 20.864C99.3598 20.864 99.0558 20.944 98.8105 21.104C98.5758 21.2533 98.4585 21.4827 98.4585 21.792C98.4585 21.984 98.5012 22.1493 98.5865 22.288C98.6718 22.416 98.8105 22.5333 99.0025 22.64C99.1945 22.736 99.4398 22.8373 99.7385 22.944C100.048 23.0507 100.347 23.1733 100.635 23.312C100.923 23.4507 101.179 23.6213 101.403 23.824C101.627 24.016 101.797 24.256 101.915 24.544C102.043 24.832 102.107 25.1733 102.107 25.568C102.107 26.0693 101.984 26.512 101.739 26.896C101.493 27.28 101.152 27.584 100.715 27.808C100.277 28.032 99.7705 28.144 99.1945 28.144Z" fill="#8A7B6A"/>
</svg>
