<svg width="734" height="374" viewBox="0 0 734 374" fill="none" xmlns="http://www.w3.org/2000/svg">
<mask id="path-1-inside-1_762_9890" fill="white">
<path d="M0 376C4.21336e-06 327.805 9.49276 280.082 27.9363 235.555C46.3798 191.029 73.4128 150.571 107.492 116.492C141.571 82.4125 182.029 55.3795 226.556 36.9361C271.082 18.4926 318.805 8.99994 367 9C415.196 9.00006 462.919 18.4929 507.445 36.9364C551.972 55.38 592.43 82.4131 626.509 116.492C660.588 150.572 687.621 191.029 706.064 235.556C724.508 280.083 734 327.806 734 376.001L367 376L0 376Z"/>
</mask>
<path d="M0 376C4.21336e-06 327.805 9.49276 280.082 27.9363 235.555C46.3798 191.029 73.4128 150.571 107.492 116.492C141.571 82.4125 182.029 55.3795 226.556 36.9361C271.082 18.4926 318.805 8.99994 367 9C415.196 9.00006 462.919 18.4929 507.445 36.9364C551.972 55.38 592.43 82.4131 626.509 116.492C660.588 150.572 687.621 191.029 706.064 235.556C724.508 280.083 734 327.806 734 376.001L367 376L0 376Z" fill="#FFFDF0" stroke="#FFCE99" stroke-width="2" mask="url(#path-1-inside-1_762_9890)"/>
<mask id="path-2-inside-2_762_9890" fill="white">
<path d="M62 376C62 335.947 69.8891 296.286 85.2168 259.281C100.545 222.277 123.011 188.654 151.333 160.332C179.654 132.01 213.277 109.544 250.282 94.2166C287.286 78.889 326.947 70.9999 367 71C407.054 71.0001 446.715 78.8892 483.719 94.2169C520.723 109.545 554.346 132.011 582.668 160.333C610.99 188.655 633.456 222.278 648.784 259.282C664.111 296.287 672 335.948 672 376.001L367 376L62 376Z"/>
</mask>
<path d="M62 376C62 335.947 69.8891 296.286 85.2168 259.281C100.545 222.277 123.011 188.654 151.333 160.332C179.654 132.01 213.277 109.544 250.282 94.2166C287.286 78.889 326.947 70.9999 367 71C407.054 71.0001 446.715 78.8892 483.719 94.2169C520.723 109.545 554.346 132.011 582.668 160.333C610.99 188.655 633.456 222.278 648.784 259.282C664.111 296.287 672 335.948 672 376.001L367 376L62 376Z" fill="#FDF7E2" stroke="#FFCE99" stroke-width="2" mask="url(#path-2-inside-2_762_9890)"/>
<mask id="path-3-inside-3_762_9890" fill="white">
<path d="M124 376C124 344.089 130.285 312.49 142.497 283.008C154.709 253.526 172.609 226.738 195.173 204.173C217.738 181.608 244.526 163.709 274.008 151.497C303.49 139.285 335.089 133 367 133C398.912 133 430.51 139.285 459.992 151.497C489.475 163.709 516.263 181.609 538.827 204.173C561.392 226.738 579.291 253.526 591.503 283.008C603.715 312.491 610 344.089 610 376.001L367 376L124 376Z"/>
</mask>
<path d="M124 376C124 344.089 130.285 312.49 142.497 283.008C154.709 253.526 172.609 226.738 195.173 204.173C217.738 181.608 244.526 163.709 274.008 151.497C303.49 139.285 335.089 133 367 133C398.912 133 430.51 139.285 459.992 151.497C489.475 163.709 516.263 181.609 538.827 204.173C561.392 226.738 579.291 253.526 591.503 283.008C603.715 312.491 610 344.089 610 376.001L367 376L124 376Z" fill="#FFFDF0" stroke="#FFCE99" stroke-width="2" mask="url(#path-3-inside-3_762_9890)"/>
<mask id="path-4-inside-4_762_9890" fill="white">
<path d="M187 376C187 352.231 191.682 328.694 200.778 306.734C209.874 284.774 223.206 264.821 240.014 248.014C256.821 231.206 276.775 217.874 298.734 208.778C320.694 199.682 344.231 195 368 195C391.77 195 415.306 199.682 437.266 208.778C459.226 217.874 479.179 231.206 495.987 248.014C512.794 264.821 526.126 284.775 535.222 306.735C544.318 328.695 549 352.231 549 376L368 376L187 376Z"/>
</mask>
<path d="M187 376C187 352.231 191.682 328.694 200.778 306.734C209.874 284.774 223.206 264.821 240.014 248.014C256.821 231.206 276.775 217.874 298.734 208.778C320.694 199.682 344.231 195 368 195C391.77 195 415.306 199.682 437.266 208.778C459.226 217.874 479.179 231.206 495.987 248.014C512.794 264.821 526.126 284.775 535.222 306.735C544.318 328.695 549 352.231 549 376L368 376L187 376Z" fill="#FDF7E2" stroke="#FFCE99" stroke-width="2" mask="url(#path-4-inside-4_762_9890)"/>
<mask id="path-5-inside-5_762_9890" fill="white">
<path d="M248 376C248 360.373 251.078 344.898 257.058 330.461C263.039 316.023 271.804 302.904 282.854 291.854C293.905 280.804 307.023 272.039 321.461 266.058C335.899 260.078 351.373 257 367 257C382.627 257 398.102 260.078 412.54 266.058C426.977 272.039 440.096 280.804 451.146 291.854C462.196 302.905 470.961 316.023 476.942 330.461C482.922 344.899 486 360.373 486 376L367 376L248 376Z"/>
</mask>
<path d="M248 376C248 360.373 251.078 344.898 257.058 330.461C263.039 316.023 271.804 302.904 282.854 291.854C293.905 280.804 307.023 272.039 321.461 266.058C335.899 260.078 351.373 257 367 257C382.627 257 398.102 260.078 412.54 266.058C426.977 272.039 440.096 280.804 451.146 291.854C462.196 302.905 470.961 316.023 476.942 330.461C482.922 344.899 486 360.373 486 376L367 376L248 376Z" fill="#FFFCF1" stroke="#FFCE99" stroke-width="2" mask="url(#path-5-inside-5_762_9890)"/>
<path d="M410.433 299.852C411.336 297.366 411.835 294.546 413.156 292.239C413.969 290.82 416.112 289.92 417.751 290.145C419.435 290.376 421.138 291.076 422.761 291.592C425.918 292.571 429.063 293.586 432.195 294.637C433.315 295.016 434.125 295.3 435.049 296.079C437.127 297.832 437.357 300.151 436.47 302.552C436.45 302.605 436.429 302.657 436.406 302.709C436.298 303.328 433.341 312.44 433.124 312.798C432.452 315.085 431.397 317.294 428.812 317.988C428.084 318.133 427.198 318.318 426.462 318.15C426.317 318.307 426.481 326.095 426.31 327.044C426.235 327.457 426.171 329.631 426.052 330.305C424.571 338.682 419.463 341.574 411.077 341.904C400.944 342.303 390.894 342.33 380.753 342.278C379.829 342.274 374.501 342.445 374.046 342.266L373.681 342.309C375.468 343.637 378.432 345.099 379.078 347.343C379.541 348.978 379.318 350.713 378.378 352.119C377.631 353.238 376.353 355.058 375.479 356.074C375.296 356.306 374.262 357.697 374.166 357.749C373.114 359.27 371.824 360.823 370.711 362.325C369.278 363.974 368.117 365.238 365.69 365.456C364.986 365.52 363.917 365.396 363.251 365.15C361.385 364.635 357.486 361.776 355.701 360.681C354.041 359.638 352.403 358.571 350.807 357.439C349.096 356.226 347.863 354.806 347.593 352.692C347.471 351.769 347.584 350.83 347.921 349.958C348.483 348.514 351.972 343.925 353.074 342.571C352.699 342.486 349.863 342.506 349.267 342.504C347.133 342.49 345 342.464 342.867 342.426L327.437 342.045C322.791 341.904 317.873 341.746 313.261 341.201C308.983 340.696 305.733 338.749 303.132 335.483C302.918 335.416 301.797 335.416 301.36 335.353C299.721 335.446 298.103 335.119 296.875 334.006C295.385 332.686 295.15 330.632 295.104 328.778C295.021 325.379 295.007 321.996 294.914 318.596C294.86 316.654 294.992 314.753 296.452 313.237C298.378 311.238 301.407 311.623 303.99 311.556C303.993 311.447 303.999 311.338 304.007 311.229C304.443 305.933 307.918 300.796 313.779 300.274C322.506 299.495 331.369 299.517 340.13 299.316C355.322 299.041 370.519 299.066 385.709 299.391L401.363 299.675L407.143 299.784C408.203 299.802 409.388 299.773 410.433 299.852Z" fill="url(#paint0_linear_762_9890)"/>
<path d="M354.092 341.24C355.885 338.999 357.555 336.31 360.641 335.942C361.835 335.802 363.046 335.942 364.171 336.351C365.47 336.823 366.883 337.839 368.046 338.611C369.474 339.568 370.908 340.519 372.346 341.462C372.735 341.788 373.226 342.074 373.68 342.311C375.467 343.639 378.431 345.101 379.077 347.346C379.54 348.981 379.317 350.715 378.378 352.122C377.63 353.241 376.352 355.061 375.478 356.077C375.296 356.308 374.261 357.699 374.165 357.752C373.113 359.272 371.823 360.826 370.711 362.328C369.278 363.976 368.117 365.24 365.689 365.459C364.985 365.522 363.916 365.399 363.25 365.152C361.384 364.637 357.485 361.779 355.701 360.683C354.04 359.64 352.403 358.574 350.806 357.442C349.095 356.229 347.862 354.808 347.592 352.694C347.47 351.771 347.583 350.833 347.92 349.96C348.482 348.517 351.971 343.928 353.073 342.574C353.472 342.101 353.737 341.745 354.092 341.24Z" fill="#E3C3A1"/>
<path d="M357.555 355.897C355.402 354.068 354.435 351.264 355.022 348.555C355.609 345.846 357.66 343.65 360.392 342.806C363.124 341.962 366.116 342.599 368.226 344.475C368.688 344.886 369.099 345.349 369.449 345.853C371.675 349.063 371.087 353.368 368.074 355.912C365.062 358.457 360.56 358.45 357.555 355.897Z" fill="url(#paint1_linear_762_9890)"/>
<path d="M358.883 346.85C359.374 346.779 360.738 345.148 362.086 345.154C362.643 345.157 363.809 345.023 364.385 345.471C364.924 345.332 366.417 346.464 366.472 346.812C365.992 346.631 365.969 346.431 365.639 346.23L365.676 346.282C365.964 346.675 366.313 347.008 366.589 347.408C367.901 349.303 367.491 352.311 365.525 353.561C363.502 354.848 360.445 354.722 359.019 352.752C358.92 352.616 358.669 352.329 358.527 352.24C358.386 352.058 358.189 351.41 358.142 351.167C357.901 349.925 358.104 348.69 358.616 347.537C358.616 347.537 358.545 347.281 358.538 347.256C358.624 347.12 358.771 346.972 358.883 346.85Z" fill="url(#paint2_linear_762_9890)"/>
<path d="M360.948 346.857C362.716 346.656 362.898 348.941 360.588 349.697C360.234 349.799 359.807 349.891 359.442 349.979C359.142 348.594 359.715 347.587 360.948 346.857Z" fill="#FFAAAA"/>
<path d="M358.543 347.257C358.315 347.563 358.038 348.212 357.822 348.35C357.537 348.128 357.525 347.275 357.542 346.939C357.615 345.49 360.221 343.857 361.399 345.146C360.478 345.536 359.511 346.067 358.888 346.851C358.776 346.973 358.628 347.121 358.543 347.257Z" fill="#FFAAAA"/>
<path d="M368.226 344.478C368.533 344.605 368.661 344.693 368.986 344.74C369.311 344.787 369.525 345.059 369.668 345.344C370.112 345.603 370.633 345.898 371.001 346.254C371.943 347.163 372.702 348.27 373.588 349.237C373.821 349.491 374.013 349.914 374.215 350.198C374.906 351.376 375.666 352.605 375.812 353.978C375.848 354.312 375.649 354.368 375.824 354.774C375.689 354.976 375.432 355.389 375.257 355.542L375.165 355.548C374.825 356.011 374.514 356.518 374.203 357.002C374.282 357.003 374.36 357.005 374.438 357.007C374.46 357.312 374.157 357.393 374.162 357.752C373.11 359.272 371.82 360.825 370.708 362.328L370.595 362.121C370.428 362.259 370.245 362.666 369.956 362.931C369.746 362.968 369.844 362.985 369.655 362.862C369.707 362.807 369.758 362.752 369.809 362.697C369.938 362.556 370.294 362.183 370.284 362.024L370.064 362.169C369.748 362.134 369.28 362.348 368.791 362.292C365.273 361.888 362.18 360.236 359.358 358.255C358.141 357.4 358.004 357.248 357.556 355.9C360.56 358.453 365.062 358.459 368.075 355.915C371.087 353.371 371.675 349.066 369.449 345.856C369.099 345.351 368.689 344.889 368.226 344.478Z" fill="#B88A65"/>
<path d="M368.229 344.478C368.535 344.605 368.664 344.693 368.989 344.74C369.313 344.787 369.527 345.059 369.67 345.344L369.699 345.39C369.811 345.564 370.405 346.294 370.568 346.484C370.226 346.488 369.966 345.951 369.451 345.856C369.101 345.351 368.691 344.889 368.229 344.478Z" fill="#B08C67"/>
<path d="M379.076 347.344C379.539 348.979 379.316 350.713 378.376 352.12C377.629 353.239 376.351 355.059 375.477 356.075C375.294 356.307 374.26 357.697 374.164 357.75C374.159 357.391 374.462 357.31 374.44 357.005C374.362 357.003 374.284 357.001 374.205 357C374.516 356.516 374.827 356.009 375.167 355.546L375.259 355.54C375.434 355.387 375.691 354.974 375.826 354.772C377.785 351.681 378.898 351.468 379.076 347.344Z" fill="#B08C67"/>
<path d="M370.061 362.168L370.281 362.023C370.291 362.182 369.936 362.555 369.807 362.696C369.756 362.751 369.704 362.806 369.652 362.861C369.841 362.984 369.743 362.967 369.953 362.93C370.243 362.665 370.426 362.258 370.593 362.12L370.705 362.327C369.272 363.975 368.111 365.239 365.683 365.457C364.979 365.521 363.911 365.397 363.245 365.151C363.746 364.921 365.684 365.607 366.07 365.104C365.774 364.902 364.201 365.053 363.862 364.818C364.411 364.789 364.974 365.014 365.678 364.919C367.82 364.63 368.798 363.645 370.061 362.168Z" fill="#B08C67"/>
<path d="M410.432 299.852C411.334 297.366 411.833 294.546 413.154 292.239C413.967 290.82 416.111 289.92 417.749 290.145C419.433 290.376 421.137 291.076 422.759 291.592C425.916 292.571 429.061 293.586 432.193 294.637C433.314 295.016 434.123 295.3 435.047 296.079C437.125 297.832 437.356 300.151 436.468 302.552C436.448 302.605 436.427 302.657 436.405 302.709C436.296 303.328 433.339 312.44 433.122 312.798C432.451 315.085 431.395 317.294 428.811 317.988C428.083 318.133 427.197 318.318 426.461 318.15C426.256 318.03 426.243 317.958 426.126 317.743L426.044 317.755C425.601 317.801 425.185 317.793 424.742 317.793L416.903 315.146C415.011 314.5 411.725 313.635 410.278 312.506C406.498 309.263 408.997 305.481 409.949 301.539L410.092 301.193C410.235 300.817 410.342 300.256 410.432 299.852Z" fill="#AE3134"/>
<path d="M410.432 299.852C411.334 297.366 411.833 294.546 413.154 292.239C413.967 290.82 416.111 289.92 417.749 290.145C419.433 290.376 421.137 291.076 422.759 291.592C425.916 292.571 429.061 293.586 432.193 294.637C433.314 295.016 434.123 295.3 435.047 296.079C437.125 297.832 437.356 300.151 436.468 302.552C436.448 302.605 436.427 302.657 436.405 302.709L436.281 302.655C436.273 302.578 436.246 302.357 436.243 302.289C436.129 300.309 433.895 300.291 433.275 299.634C433.333 299.498 433.329 299.432 433.339 299.287C433.137 299.042 419.056 294.423 417.693 293.96C417.594 294.686 417.015 296.262 416.753 297.031L415.336 301.232C414.515 303.606 413.742 305.993 412.911 308.362C412.77 308.764 412.657 308.83 412.309 309.049C412.522 309.144 412.824 309.294 413.043 309.345C413.263 310.168 414.754 311.58 415.535 311.956C417.899 313.094 420.791 314.239 423.193 315.266C425.309 316.17 428.868 316.721 430.945 315.826C431.031 315.79 431.566 315.778 431.572 315.772C432.249 315.096 432.644 313.504 433.043 312.686L433.122 312.798C432.451 315.085 431.395 317.294 428.811 317.988C428.083 318.133 427.197 318.318 426.461 318.15C426.256 318.03 426.243 317.958 426.126 317.743L426.044 317.755C425.601 317.801 425.185 317.793 424.742 317.793L416.903 315.146C415.011 314.5 411.725 313.635 410.278 312.506C406.498 309.263 408.997 305.481 409.949 301.539L410.092 301.193C410.235 300.817 410.342 300.256 410.432 299.852Z" fill="url(#paint3_linear_762_9890)"/>
<path d="M412.309 309.052C412.204 308.989 412.139 308.977 412.117 308.849C412.083 308.64 416.835 294.365 417.197 293.93C417.438 293.851 417.397 293.889 417.693 293.962C417.594 294.688 417.014 296.264 416.753 297.033L415.336 301.235C414.515 303.608 413.741 305.995 412.911 308.365C412.77 308.766 412.656 308.832 412.309 309.052Z" fill="#EA4344"/>
<path d="M410.277 312.507C410.49 312.435 410.584 312.349 410.803 312.453C413.447 313.693 416.457 314.527 419.232 315.481C420.761 316.012 422.295 316.533 423.832 317.042C424.441 317.243 425.448 317.606 426.044 317.755C425.601 317.802 425.185 317.794 424.741 317.793L416.903 315.146C415.01 314.501 411.725 313.635 410.277 312.507Z" fill="#B08C67"/>
<path d="M426.123 317.744C426.866 317.771 428.125 317.803 428.808 317.99C428.079 318.134 427.194 318.32 426.458 318.151C426.253 318.031 426.24 317.959 426.123 317.744Z" fill="#B08C67"/>
<path d="M433.275 299.636C433.895 300.293 436.129 300.311 436.243 302.291C436.247 302.359 436.273 302.58 436.281 302.657L436.405 302.711C436.297 303.33 433.34 312.442 433.123 312.8L433.043 312.687C432.645 313.505 432.249 315.098 431.572 315.774C431.567 315.779 431.031 315.792 430.945 315.828C428.868 316.722 425.31 316.172 423.194 315.267C420.792 314.241 417.9 313.096 415.535 311.958C414.754 311.582 413.264 310.17 413.043 309.347C413.454 309.485 414.15 309.739 414.551 309.844L415.244 310.056C416.408 310.378 417.714 310.862 418.876 311.257C420.793 311.91 422.719 312.537 424.654 313.138C425.375 313.359 427.719 314.267 428.292 313.893C428.515 313.022 429.434 310.713 429.774 309.741L433.088 300.114L433.275 299.636Z" fill="#B08C67"/>
<path d="M433.087 300.114C433.181 300.462 433.582 300.614 433.626 300.863L433.318 300.758C433.146 301.014 433.533 301.499 433.482 301.87C433.257 303.5 432.388 304.822 431.736 306.303C431.393 307.08 431.183 307.968 430.867 308.761C430.227 310.246 429.605 311.769 428.753 313.151C428.632 313.346 428.545 313.675 428.422 313.902L428.291 313.893C428.514 313.021 429.433 310.712 429.773 309.741L433.087 300.114Z" fill="#B08D67"/>
<path d="M414.549 309.843L415.243 310.055C416.406 310.378 417.713 310.861 418.875 311.256C420.792 311.909 422.718 312.536 424.653 313.138C425.373 313.358 427.718 314.266 428.29 313.892L428.421 313.902C428.352 314.015 428.321 314.024 428.216 314.111C427.34 314.409 423.604 313.365 422.622 312.946C422.298 312.808 420.847 312.296 420.583 312.276C420.368 312.377 420.341 312.384 420.108 312.334C420.323 312.495 420.383 312.494 420.42 312.692C419.71 312.778 415.751 311.007 415.014 310.393C414.882 310.283 414.656 309.992 414.549 309.843Z" fill="#B08D67"/>
<path d="M419.288 297.011C422.689 297.988 426.059 299.299 429.463 300.287C429.702 300.357 430.045 300.534 430.252 300.677C429.999 300.774 422.32 298.223 421.429 297.915C421.144 298.003 421.228 297.934 421.074 298.224L421.015 298.335C421.519 298.893 427.606 305.161 427.939 305.332C428.121 305.276 428.444 305.37 428.561 305.52C428.459 306.219 426.974 310.468 426.646 311.256C424.906 310.623 423.111 309.941 421.353 309.382L418.087 308.338C417.559 308.174 416.3 307.822 415.86 307.585C415.805 307.555 415.717 307.502 415.729 307.465C416.426 305.288 418.702 298.738 419.288 297.011Z" fill="url(#paint4_linear_762_9890)"/>
<path d="M417.233 307.631L419.365 301.269C419.618 300.515 420.222 298.572 420.543 297.938C420.764 298 420.833 298.143 421.011 298.335C421.515 298.892 427.602 305.161 427.934 305.331C427.712 305.536 427.241 305.616 426.937 305.67C423.726 306.239 420.446 307.136 417.233 307.631Z" fill="#F2F0EB"/>
<path d="M419.288 297.011C422.689 297.988 426.059 299.299 429.463 300.287C429.702 300.357 430.045 300.534 430.252 300.677C429.999 300.774 422.32 298.223 421.429 297.915C420.859 297.753 419.913 297.414 419.42 297.302C418.576 300.105 416.871 304.536 415.975 307.489C415.937 307.521 415.899 307.553 415.86 307.585C415.805 307.555 415.717 307.502 415.729 307.465C416.426 305.288 418.702 298.738 419.288 297.011Z" fill="#420305"/>
<path d="M305.472 311.558C306.441 311.422 307.528 311.613 308.245 311.527C309.285 311.548 310.941 311.608 311.949 311.55C312.766 311.619 313.473 311.663 314.265 311.888C317.112 312.695 318.292 315.209 318.288 317.884C318.505 320.673 318.093 323.988 318.255 326.694C318.84 336.44 313.218 335.042 305.914 335.413C304.995 335.438 304.048 335.477 303.132 335.485C302.918 335.418 301.797 335.418 301.36 335.355C299.721 335.449 298.103 335.121 296.875 334.009C295.385 332.688 295.15 330.635 295.104 328.78C295.021 325.381 295.007 321.998 294.914 318.598C294.86 316.656 294.992 314.756 296.452 313.239C298.378 311.24 301.407 311.626 303.99 311.558C304.255 311.504 305.194 311.523 305.472 311.558Z" fill="url(#paint5_linear_762_9890)"/>
<path d="M301.356 335.353C301.685 335.309 302.762 335.289 302.855 335.233L302.827 335.155L302.594 335.182L302.562 335.095C302.823 334.889 307.433 334.53 308.053 334.52C312.126 334.455 316.443 334.907 317.482 329.972C317.693 328.97 317.594 327.509 317.602 326.444C317.614 324.362 317.641 322.279 317.684 320.197C317.691 319.823 317.669 318.287 317.747 318.058C317.984 319.394 317.48 324.428 317.76 325.186C318.525 324.422 317.746 318.782 318.284 317.881C318.501 320.67 318.089 323.986 318.251 326.692C318.836 336.437 313.214 335.039 305.909 335.411C304.991 335.435 304.044 335.475 303.128 335.482C302.914 335.416 301.793 335.416 301.356 335.353Z" fill="url(#paint6_linear_762_9890)"/>
<path d="M304.054 317.495C304.813 317.669 305.388 317.988 306.07 318.346C306.537 318.31 310.194 320.516 310.846 320.886L310.848 320.954L310.55 320.948C311.151 321.223 311.383 321.638 311.873 322.031C312.156 322.258 312.732 322.37 313.012 322.639C313.446 323.112 313.635 323.324 313.506 323.937C315.055 325.759 315.282 328.945 313.174 330.47C311.955 331.351 310.445 332.056 308.879 331.9C307.552 331.757 306.249 330.742 305.188 330.005C304.823 329.775 303.263 328.955 303.118 328.776L303.154 328.69C302.756 328.364 301.925 328.034 301.766 327.39C301.407 325.859 301.499 324.285 301.552 322.733C301.644 320.065 300.827 318.36 304.054 317.495Z" fill="#F2F0EB"/>
<path d="M311.636 322.416L311.799 322.359C311.871 322.45 311.944 322.54 312.018 322.629C312.319 322.987 313.09 323.523 313.508 323.935C315.058 325.756 315.284 328.943 313.176 330.468C311.958 331.349 310.448 332.054 308.882 331.898C307.554 331.755 306.251 330.739 305.19 330.002C304.826 329.773 303.266 328.953 303.12 328.774L303.156 328.688L303.636 328.835C304.064 328.541 304.282 328.449 304.806 328.37C305.863 327.876 307.442 326.656 308.542 325.957C308.673 325.782 310.09 324.835 310.374 324.631C310.603 324.423 310.8 324.216 311.014 323.994L311.04 324.25C311.084 324.268 311.198 324.318 311.246 324.329C311.354 324.194 311.513 323.862 311.599 323.697C311.744 323.213 311.698 322.907 311.636 322.416Z" fill="url(#paint7_linear_762_9890)"/>
<path d="M311.599 323.698L311.82 324.077L311.907 324.046L311.814 324.081L311.959 323.952C312.16 324.394 312.03 325.034 311.843 325.46C311.303 326.688 309.893 326.9 308.85 327.53C308.13 327.964 307.549 328.737 306.741 329.08C306.275 329.288 305.727 329.016 305.418 329.263C305.372 329.492 305.376 329.524 305.39 329.759L305.19 330.004C304.826 329.774 303.266 328.955 303.12 328.776L303.156 328.69L303.636 328.837C304.064 328.543 304.282 328.45 304.806 328.372C305.863 327.877 307.442 326.657 308.542 325.959C308.673 325.783 310.09 324.837 310.374 324.633C310.603 324.424 310.8 324.217 311.014 323.996L311.04 324.252C311.084 324.269 311.198 324.319 311.246 324.33C311.354 324.195 311.513 323.864 311.599 323.698Z" fill="#B48D4B"/>
<path d="M304.802 328.372C305.859 327.877 307.438 326.657 308.538 325.958C308.446 326.515 308.262 326.063 307.998 326.838C307.554 327.239 305.955 328.355 305.402 328.609C305.13 328.529 305.051 328.503 304.802 328.372Z" fill="#DFD8D3"/>
<path d="M310.375 324.632L310.474 324.74C310.379 324.882 310.246 325.053 310.249 325.223C309.914 325.55 308.449 326.564 308.003 326.837C308.267 326.063 308.451 326.515 308.542 325.958C308.674 325.783 310.091 324.837 310.375 324.632Z" fill="#DFD8D3"/>
<path d="M303.637 328.837C304.065 328.543 304.282 328.45 304.807 328.371C305.056 328.503 305.134 328.528 305.407 328.608C304.729 328.912 304.378 329.002 303.637 328.837Z" fill="#DFD8D3"/>
<path d="M311.012 323.997L311.038 324.253C311.082 324.27 311.196 324.32 311.244 324.331C310.997 324.694 310.613 324.98 310.246 325.225C310.243 325.055 310.376 324.884 310.471 324.741L310.372 324.634C310.6 324.425 310.798 324.218 311.012 323.997Z" fill="#DFD8D3"/>
<path d="M306.069 318.344C306.535 318.308 310.193 320.514 310.845 320.884L310.847 320.952L310.549 320.946C311.149 321.221 311.382 321.636 311.872 322.029C312.155 322.256 312.731 322.368 313.011 322.637C313.445 323.11 313.633 323.322 313.504 323.935C313.086 323.524 312.315 322.987 312.014 322.629C311.94 322.541 311.867 322.451 311.795 322.36L311.632 322.416L311.547 322.455C311.025 321.11 307.473 319.233 306.069 318.344Z" fill="#E6CFA0"/>
<path d="M311.545 322.456L311.63 322.417C311.692 322.908 311.738 323.215 311.593 323.698C311.507 323.864 311.349 324.195 311.241 324.33C311.193 324.319 311.078 324.269 311.035 324.252L311.008 323.996C311.237 323.502 311.596 322.951 311.545 322.456Z" fill="#DFD9D2"/>
<path d="M303.99 311.557C303.992 311.448 303.998 311.339 304.007 311.23C304.442 305.934 307.917 300.797 313.778 300.275C322.505 299.496 331.368 299.518 340.13 299.317C355.322 299.042 370.518 299.067 385.709 299.392L401.362 299.676L407.142 299.785C408.202 299.803 409.388 299.774 410.433 299.853C410.343 300.257 410.236 300.818 410.093 301.194C409.851 301.015 407.104 301.054 406.634 301.074C405.823 300.995 404.595 301.007 403.755 300.992L398.406 300.894C395.001 300.823 391.654 300.827 388.256 300.782C385.479 300.721 382.7 300.677 379.922 300.651C378.826 300.53 376.26 300.582 375.06 300.565C371.074 300.516 367.088 300.501 363.102 300.519L351.651 300.529C349.862 300.533 346.504 300.486 344.856 300.654C337.431 300.707 330.006 300.843 322.585 301.063C320.76 301.124 318.935 301.206 317.111 301.307C315.791 301.38 314.32 301.425 313.043 301.728C311.314 302.13 309.735 302.99 308.486 304.211C306.935 305.707 306.006 307.689 305.627 309.756C305.542 310.216 305.374 311.035 305.463 311.489L305.472 311.557C305.193 311.522 304.255 311.503 303.99 311.557Z" fill="#E3C3A1"/>
<path d="M424.742 317.794C425.186 317.794 425.602 317.803 426.044 317.756L426.127 317.744C426.243 317.959 426.257 318.031 426.461 318.151C426.316 318.308 426.48 326.096 426.308 327.045C426.234 327.458 426.17 329.633 426.051 330.306C424.57 338.683 419.461 341.575 411.076 341.905C400.943 342.304 390.893 342.331 380.752 342.28C379.828 342.275 374.5 342.446 374.045 342.267C373.852 342.013 373.809 342.183 373.76 341.907C374.328 340.943 379.238 341.469 379.726 341.16L388.418 341.039C389.874 341.017 391.754 341.04 393.179 340.94C394.2 340.947 395.222 340.939 396.244 340.914C396.598 340.96 398.618 340.907 399.123 340.9C400.733 340.878 402.343 340.837 403.953 340.775C404.778 340.748 405.936 340.742 406.736 340.65C407.089 340.672 408.376 340.597 408.767 340.576C411.176 340.448 414.013 340.321 416.343 339.736C416.545 339.7 416.668 339.66 416.865 339.599C417.101 339.54 417.168 339.53 417.411 339.518C421.355 338.076 423.449 334.967 424.314 331.091C424.517 329.998 424.655 329.157 424.669 328.051C424.614 326.887 424.701 325.169 424.716 323.96C424.742 321.912 424.697 319.832 424.742 317.794Z" fill="url(#paint8_linear_762_9890)"/>
<path d="M424.668 328.051C424.751 327.937 424.75 327.911 424.752 327.772C425.025 328.188 424.772 330.298 424.631 331.056C424.043 334.229 422.088 337.517 419.056 339.074C418.58 339.319 417.937 339.703 417.459 339.692L417.41 339.519C421.354 338.076 423.448 334.967 424.312 331.091C424.516 329.998 424.654 329.158 424.668 328.051Z" fill="#AF8C74"/>
<path d="M303.126 335.483C304.042 335.475 304.989 335.436 305.908 335.411L305.785 335.536C305.854 335.726 306.163 336.007 306.32 336.165C307.355 337.221 308.586 338.081 309.949 338.7C312.606 339.923 315.741 339.999 318.64 340.2C321.759 340.432 324.885 340.589 328.013 340.668L346.229 341.145C348.602 341.186 350.982 341.108 353.354 341.197C353.596 341.206 353.848 341.201 354.087 341.238C353.733 341.743 353.467 342.099 353.068 342.572C352.693 342.486 349.857 342.506 349.261 342.505C347.128 342.491 344.994 342.464 342.861 342.426L327.431 342.045C322.785 341.904 317.867 341.746 313.255 341.201C308.977 340.696 305.727 338.75 303.126 335.483Z" fill="url(#paint9_linear_762_9890)"/>
<path d="M305.458 311.491C305.368 311.036 305.537 310.217 305.621 309.758C306 307.691 306.93 305.708 308.481 304.213C309.73 302.991 311.308 302.131 313.038 301.729C314.315 301.427 315.786 301.382 317.106 301.308C318.93 301.207 320.754 301.126 322.58 301.064C330.001 300.844 337.425 300.708 344.85 300.655C345.239 300.673 345.531 300.694 345.916 300.744L345.928 300.777C345.548 300.784 342.977 300.794 342.865 300.859C343.498 301.092 345.292 300.819 345.964 300.929C344.02 301.078 341.719 301.01 339.735 301.054C334.478 301.172 329.262 301.165 324.001 301.354L320.213 301.495C319.672 301.516 318.466 301.549 317.985 301.643C316.473 301.686 315.367 301.806 313.879 301.998C309.149 303.077 306.6 305.986 305.909 310.639C305.843 311.085 305.942 311.446 305.458 311.491Z" fill="#463A39"/>
<path d="M305.464 311.49C305.948 311.445 305.848 311.084 305.915 310.637C306.605 305.985 309.154 303.075 313.885 301.997C313.864 302.342 313.829 302.567 313.508 302.789C312.674 303.364 312.387 303.424 311.618 304.095C311.813 303.837 311.988 303.617 312.198 303.37L312.163 303.331C311.693 303.563 311.566 304.146 310.857 304.416C310.58 304.522 309.653 305.679 309.431 306.009C308.012 307.259 307.421 309.64 307.311 311.437C307.515 311.443 308.101 311.438 308.245 311.526C307.527 311.613 306.44 311.421 305.472 311.557L305.464 311.49Z" fill="#473A39"/>
<path d="M379.922 300.652C382.7 300.678 385.478 300.722 388.256 300.784C391.654 300.829 395.001 300.825 398.405 300.896L403.755 300.994C404.595 301.009 405.823 300.997 406.634 301.076C407.104 301.056 409.851 301.017 410.093 301.196L409.95 301.543C409.39 301.305 405.472 301.385 404.464 301.308C398.313 301.261 392.162 301.175 386.013 301.052C386.189 300.957 388.727 301.073 389.173 300.996L389.175 300.896C388.131 300.774 386.813 300.939 385.734 300.892C382.731 300.761 379.748 300.822 376.74 300.72C377.773 300.642 378.864 300.729 379.922 300.652Z" fill="#433734"/>
<path d="M313.88 301.997C315.368 301.805 316.474 301.685 317.986 301.641C318.16 301.647 318.466 301.619 318.557 301.71C317.965 301.878 317.217 301.617 316.49 301.988C315.798 302.34 314.453 303.468 313.703 303.532C312.573 303.215 310.36 305.464 309.427 306.009C309.648 305.679 310.575 304.521 310.853 304.416C311.561 304.146 311.688 303.563 312.158 303.331L312.193 303.37C311.983 303.616 311.809 303.836 311.613 304.094C312.382 303.424 312.67 303.363 313.503 302.788C313.825 302.567 313.859 302.342 313.88 301.997Z" fill="#473A39"/>
<path d="M309.431 306.01C310.364 305.466 312.577 303.217 313.707 303.533C312.542 304.192 312.058 304.566 311.107 305.488C310.396 306.177 309.294 306.709 308.635 307.472C308.071 307.99 307.312 310.767 307.6 311.277C308.265 311.64 311.129 311.189 311.948 311.55C310.94 311.608 309.284 311.548 308.245 311.527C308.1 311.439 307.515 311.444 307.31 311.438C307.42 309.641 308.011 307.26 309.431 306.01Z" fill="#473A39"/>
<path d="M416.861 339.6C418.434 338.697 419.779 338.147 421.066 336.806C422.594 335.214 423.221 333.38 423.988 331.394C424.023 331.303 424.232 331.147 424.31 331.091C423.445 334.968 421.352 338.076 417.407 339.519C417.164 339.531 417.097 339.541 416.861 339.6Z" fill="#312622"/>
<path d="M406.733 340.653C406.377 340.614 405.746 340.618 405.37 340.61C405.723 340.604 405.873 340.595 406.221 340.538L406.241 340.468C406.007 340.43 405.887 340.434 405.653 340.433C405.946 340.268 413.939 340.089 414.869 339.643C414.685 339.731 417.321 339.016 417.2 339.035C416.994 339.317 415.393 339.642 414.992 339.766L414.988 339.81C415.691 339.736 416.231 339.504 416.923 339.397C416.725 339.504 416.53 339.617 416.339 339.737C414.01 340.323 411.173 340.45 408.764 340.578C408.373 340.599 407.086 340.674 406.733 340.653Z" fill="#302723"/>
<path d="M393.178 340.939C391.903 340.853 390.569 340.97 389.297 340.891C389.607 340.753 390.841 340.932 390.973 340.737C390.779 340.723 389.48 340.738 389.454 340.721L389.626 340.562C389.968 340.58 390.343 340.647 390.669 340.65C392.883 340.674 395.152 340.442 397.349 340.751C397.635 340.792 397.967 340.708 398.236 340.816C397.776 340.884 396.474 340.77 396.242 340.914C395.221 340.939 394.199 340.947 393.178 340.939Z" fill="#332623"/>
<path d="M372.343 341.46C372.907 341.044 376.958 341.265 377.846 341.167C378.168 341.131 379.345 341.15 379.723 341.16C379.235 341.468 374.325 340.942 373.757 341.907C373.806 342.184 373.849 342.013 374.042 342.268L373.677 342.31C373.222 342.073 372.732 341.787 372.343 341.46Z" fill="#936C4C"/>
<path d="M360.997 318.054C361.148 317.699 361.297 317.331 361.646 317.112C362.025 316.874 362.633 316.837 363.065 316.954C363.363 317.035 363.615 317.218 363.746 317.492C363.939 317.892 363.948 325.369 363.77 325.789C363.681 325.998 363.458 326.167 363.249 326.254C362.863 326.414 362.145 326.467 361.761 326.289C361.369 326.106 361.2 325.539 361.064 325.173C359.817 326.448 358.448 326.753 356.719 326.291C352.465 324.597 353.006 317.649 357.656 316.966C359 316.768 359.983 317.279 360.997 318.054Z" fill="#F2F0EB"/>
<path d="M356.718 326.293C357.572 325.882 358.008 326.23 358.949 325.926C359.686 325.688 360.297 325.175 361.063 325.174C359.816 326.451 358.447 326.756 356.718 326.293Z" fill="#F2F1EA"/>
<path d="M358.437 319.183C361.529 318.911 362.001 323.438 359.134 324.186C356.355 324.42 355.898 321.093 357.604 319.608C357.815 319.424 358.174 319.29 358.437 319.183Z" fill="url(#paint10_linear_762_9890)"/>
<path d="M382.009 325.828C377.867 322.842 380.657 315.324 386.033 317.262C386.386 317.389 386.7 317.763 387.152 317.883C387.425 317.722 387.317 317.625 387.476 317.388C387.982 316.634 389.684 316.719 389.94 317.654C390.128 318.716 390.003 320.595 390.019 321.75C390.038 323.088 390.16 324.71 389.866 325.987C389.729 326.424 388.553 326.41 388.055 326.315C387.353 326.031 387.503 325.532 387.202 325.26L387.062 325.36C385.77 326.734 383.561 326.84 382.009 325.828Z" fill="#F2F0EB"/>
<path d="M389.941 317.653C390.129 318.715 390.004 320.595 390.02 321.749C390.039 323.087 390.161 324.709 389.866 325.986C389.73 326.423 388.554 326.41 388.056 326.314C388.291 326.293 388.589 326.287 388.829 326.275C389.042 326.051 389.28 325.873 389.522 325.679C389.777 324.447 389.602 322.657 389.685 321.366C389.765 320.121 389.874 318.901 389.941 317.653Z" fill="#F2F1EA"/>
<path d="M382.007 325.829C382.084 325.776 382.247 325.67 382.344 325.694C383.355 325.946 384.348 326.172 385.391 325.939C385.83 325.841 386.106 325.557 386.491 325.351C386.723 325.226 386.83 325.291 387.061 325.36C385.769 326.736 383.559 326.841 382.007 325.829Z" fill="#F2F1EA"/>
<path d="M382.944 320.988C382.874 320.81 382.742 320.846 382.719 320.642C382.577 319.381 385.08 318.307 385.985 319.012C386.009 319.227 386.031 319.296 386.147 319.482C387.305 320.475 387.55 322.392 386.524 323.514C386.142 323.927 385.603 324.172 385.03 324.193C384.498 324.219 383.977 324.036 383.587 323.686C382.792 322.97 382.742 321.95 382.944 320.988Z" fill="url(#paint11_linear_762_9890)"/>
<path d="M382.944 320.988C382.874 320.81 382.742 320.846 382.719 320.642C382.577 319.381 385.08 318.307 385.985 319.012C386.009 319.227 386.031 319.296 386.147 319.482C384.65 318.79 383.428 319.536 382.944 320.988Z" fill="#F2F1EA"/>
<path d="M372.347 326.012C371.361 325.5 370.592 324.67 370.174 323.668C369.195 321.319 370.148 317.973 372.753 317.152C375.409 316.315 378.052 317.142 379.051 319.722C379.24 320.591 379.622 322.295 378.261 322.51C377.159 322.683 373.413 322.279 372.572 322.642C374.303 326.282 377.721 322.246 378.84 324.262C379.468 326.79 373.976 326.828 372.347 326.012Z" fill="#F2F0EB"/>
<path d="M379.054 319.722C379.243 320.59 379.625 322.295 378.264 322.509C377.162 322.683 373.416 322.278 372.575 322.642C372.457 322.444 372.443 322.322 372.535 322.126C373.388 321.78 377.648 322.189 378.648 321.941C378.705 321.429 378.667 320.81 378.807 320.31C378.834 320.215 378.992 319.897 379.054 319.722Z" fill="#F2F1EA"/>
<path d="M378.842 324.261C379.47 326.789 373.978 326.827 372.349 326.011C372.421 325.984 372.494 325.96 372.565 325.933C373.322 325.642 375.833 326.597 377.688 325.56C378.121 325.319 378.715 324.725 378.842 324.261Z" fill="#F2F1EA"/>
<path d="M374.808 318.496C375.151 318.639 375.607 318.755 375.844 318.963C375.924 319.159 375.921 319.177 375.931 319.391C376.205 319.681 376.496 319.976 376.555 320.378L376.489 320.541C375.994 320.64 373.375 320.692 372.809 320.63L372.726 320.514L372.789 320.234C372.715 319.968 372.545 320.05 372.705 319.655C372.895 319.184 373.435 318.953 373.876 318.758C374.261 318.601 374.393 318.574 374.808 318.496Z" fill="#3F332E"/>
<path d="M374.808 318.496C375.151 318.639 375.607 318.755 375.844 318.963C375.924 319.159 375.921 319.177 375.931 319.391C375.562 319.165 375.364 319.115 374.943 318.982C374.002 319.103 373.574 319.237 372.971 319.997C372.909 320.075 372.849 320.154 372.789 320.234C372.715 319.968 372.545 320.05 372.705 319.655C372.895 319.184 373.435 318.953 373.876 318.758C374.261 318.601 374.393 318.574 374.808 318.496Z" fill="#F2F1EA"/>
<path d="M374.812 318.496C375.156 318.639 375.611 318.756 375.849 318.964C375.928 319.16 375.925 319.177 375.936 319.391C375.566 319.166 375.368 319.116 374.948 318.982C374.426 318.884 374.408 318.968 373.88 318.758C374.265 318.601 374.397 318.574 374.812 318.496Z" fill="#F2F1EA"/>
<path d="M401.631 318.1C403.063 316.537 405.578 316.476 406.947 317.919C407.983 319.011 407.843 324.029 407.703 325.542C407.27 326.539 406.253 326.54 405.359 326.133C405.206 326.003 404.965 325.779 404.912 325.591C404.495 324.122 405.204 321.135 404.46 319.853C404.431 319.823 404.402 319.793 404.372 319.764C403.966 319.371 403.674 319.33 403.143 319.328C400.602 320.021 402.009 323.324 401.575 325.28L401.567 325.539C401.084 326.533 400.075 326.589 399.178 326.093C399.073 325.965 398.952 325.829 398.872 325.684C398.67 325.319 398.686 318.205 398.843 317.702C398.932 317.418 399.179 317.206 399.453 317.089C399.864 316.915 400.468 316.882 400.882 317.06C401.331 317.252 401.48 317.688 401.631 318.1Z" fill="#F2F0EB"/>
<path d="M402.592 319.049C402.754 319.145 402.974 319.31 403.144 319.33C400.604 320.022 402.011 323.326 401.577 325.281C401.548 325.01 401.517 323.901 401.552 323.618C401.679 322.589 401.286 320.49 401.585 319.654C401.943 319.311 402.133 319.22 402.592 319.049Z" fill="#F2F1EA"/>
<path d="M399.183 326.093C399.573 325.788 400.138 325.997 400.719 325.796C401.059 325.679 401.224 325.566 401.571 325.539C401.088 326.534 400.08 326.59 399.183 326.093Z" fill="#F2F1EA"/>
<path d="M405.363 326.133C405.728 325.727 406.382 326.06 406.909 325.803C407.215 325.654 407.36 325.582 407.707 325.542C407.274 326.539 406.257 326.541 405.363 326.133Z" fill="#F2F1EA"/>
<path d="M402.591 319.048C403.254 318.597 404.656 318.768 404.46 319.854C404.432 319.824 404.403 319.794 404.373 319.765C403.966 319.371 403.674 319.33 403.143 319.329C402.973 319.309 402.753 319.144 402.591 319.048Z" fill="#F2F1EA"/>
<path d="M328.593 326.077C327.997 325.521 328.082 324.579 328.109 323.825C328.179 321.889 328.017 319.942 328.131 318.012C328.168 317.38 328.83 316.673 329.529 316.876C330.116 317.041 330.408 317.417 330.707 317.912C330.877 317.912 331.191 317.534 331.39 317.43C333.467 316.214 336.637 317.263 336.838 319.777C336.947 321.139 337.13 324.272 336.831 325.583C336.469 326.295 335.661 326.377 334.949 326.157C332.864 325.129 335.73 320.222 332.938 319.282C331.931 319.352 331.586 319.591 331.084 320.434C330.998 320.742 330.947 320.887 330.937 321.208C330.927 322.335 331.209 325.156 330.617 325.994C329.959 326.348 329.266 326.475 328.593 326.077Z" fill="#F2F0EB"/>
<path d="M330.458 325.419C330.487 324.177 330.356 320.94 330.775 320.029C331.064 320.242 330.992 320.133 331.086 320.433C331.001 320.741 330.95 320.886 330.939 321.207C330.93 322.334 331.211 325.155 330.619 325.993L330.3 325.722C330.388 325.621 330.409 325.541 330.458 325.419Z" fill="#F2F1EA"/>
<path d="M330.458 325.419C330.867 324.632 330.486 322.173 330.939 321.207C330.93 322.334 331.211 325.155 330.619 325.993L330.3 325.722C330.388 325.621 330.409 325.541 330.458 325.419Z" fill="#F2F1EA"/>
<path d="M330.779 320.03C331.333 319.299 331.964 318.852 332.944 319.281C331.937 319.351 331.592 319.59 331.089 320.434C330.995 320.134 331.067 320.243 330.779 320.03Z" fill="#F2F1EA"/>
<path d="M330.304 325.721L330.623 325.992C329.965 326.347 329.272 326.474 328.599 326.075C329.197 325.729 329.538 326.004 330.304 325.721Z" fill="#F2F1EA"/>
<path d="M334.95 326.157C334.98 326.126 335.111 325.999 335.137 325.992C335.683 325.859 336.301 325.463 336.832 325.582C336.47 326.295 335.662 326.377 334.95 326.157Z" fill="#F2F1EA"/>
<path d="M340.48 326.304C339.482 325.949 338.517 325.418 338.488 324.246C338.483 324.049 338.575 323.735 338.748 323.606C340.023 322.654 340.754 324.269 341.976 324.288C342.548 324.302 343.332 324.223 343.345 323.494C343.08 322.969 341.894 322.697 341.323 322.583C339.364 322.194 337.804 320.757 338.749 318.728C339.631 316.834 342.53 316.488 344.326 317.292C345.196 317.68 346.377 318.938 345.011 319.569C343.744 320.155 342.259 317.985 341.375 319.504C341.352 321.114 346.623 319.835 346.12 324.188C345.357 326.656 342.651 326.683 340.48 326.304Z" fill="#F2F0EB"/>
<path d="M340.475 326.303C340.541 326.245 340.736 326.08 340.807 326.074C341.89 325.974 343.12 326.226 344.141 325.734C344.795 325.42 345.301 324.724 345.821 324.236C345.936 324.217 346.035 324.201 346.116 324.188C345.352 326.656 342.647 326.682 340.475 326.303Z" fill="#F2F1EA"/>
<path d="M348.261 316.857C348.284 315.472 347.722 312.736 349.916 312.98C350.336 313.027 350.604 313.228 350.872 313.511C351.09 314.16 351.076 316.242 350.988 316.938C351.874 316.852 352.469 316.797 353.14 317.442C353.576 319.271 352.46 319.205 351 319.158C350.986 320.48 350.941 322.031 351.051 323.34C351.514 324.838 352.707 323.338 353.449 324.612C353.561 325.265 353.563 325.637 352.97 326.086C352.202 326.477 351.263 326.613 350.429 326.376C350.136 326.323 350 326.251 349.736 326.132C348.029 325.163 348.231 323.712 348.238 322.035C348.242 321.095 348.248 320.148 348.25 319.207C347.939 319.184 347.473 319.218 347.199 319.092C346.556 318.786 346.293 318.108 346.741 317.528C347.17 316.972 347.603 316.941 348.261 316.857Z" fill="#F2F0EB"/>
<path d="M353.143 317.443C353.578 319.272 352.463 319.206 351.003 319.159C350.989 320.482 350.944 322.033 351.054 323.341C350.77 323.31 350.863 323.357 350.658 323.192C350.491 322.88 350.391 319.383 350.567 319.091C351.061 318.27 352.369 319.645 353.143 317.443Z" fill="#F2F1EA"/>
<path d="M350.872 313.512C351.091 314.161 351.077 316.243 350.989 316.939C350.85 316.888 350.656 316.845 350.618 316.689C350.411 315.826 350.54 314.286 350.872 313.512Z" fill="#F2F1EA"/>
<path d="M352.577 325.843L352.972 326.086C352.204 326.478 351.265 326.614 350.43 326.376C351.141 326.334 351.219 326.172 351.861 326.032C352.108 325.978 352.334 325.912 352.577 325.843Z" fill="#F2F1EA"/>
<path d="M353.452 324.614C353.564 325.267 353.566 325.639 352.973 326.089L352.579 325.846C353.047 325.411 353.157 325.161 353.452 324.614Z" fill="#F2F1EA"/>
<path d="M349.737 326.132C349.816 326.069 349.895 326.006 349.974 325.943C350.609 325.982 351.223 326.02 351.86 326.031C351.218 326.171 351.14 326.334 350.429 326.376C350.137 326.322 350.001 326.25 349.737 326.132Z" fill="#F2F1EA"/>
<path d="M365.87 325.955C365.528 325.288 365.64 322.119 365.638 321.151L365.599 314.011C365.596 312.964 365.472 311.599 367.037 311.596C368.816 311.592 368.511 313.742 368.473 314.921C368.621 316.964 368.479 319.536 368.54 321.623C368.566 322.491 368.622 325.113 368.47 325.808C367.664 326.507 366.758 326.612 365.87 325.955Z" fill="#F2F0EB"/>
<path d="M368.475 314.921C368.623 316.964 368.481 319.536 368.542 321.623C368.568 322.491 368.624 325.113 368.472 325.808C367.666 326.507 366.76 326.612 365.872 325.955C366.686 325.594 367.487 326.228 368.123 325.468C368.193 325.628 368.163 325.64 368.288 325.705C368.504 324.89 368.255 323.858 368.287 323.017C368.369 320.918 368.469 318.833 368.431 316.731C368.421 316.198 368.406 315.517 368.466 314.995L368.475 314.921Z" fill="#F2F1EA"/>
<path d="M391.919 326.093C391.21 325.164 391.629 319.808 391.534 318.377C391.487 317.668 391.767 317.206 392.473 316.992C394.097 316.501 394.354 317.978 394.46 318.037C395.381 317.158 396.647 316.169 397.741 317.473C397.961 318.077 398.1 319.169 397.283 319.417C396.394 319.688 395.306 319.25 394.746 320.217C393.916 321.551 395.376 325.702 393.736 326.285C393.687 326.302 393.393 326.365 393.327 326.378C392.689 326.381 392.486 326.368 391.919 326.093Z" fill="#F2F0EB"/>
<path d="M397.743 317.474C397.963 318.077 398.103 319.169 397.285 319.418C396.397 319.688 395.308 319.25 394.748 320.217C393.918 321.551 395.378 325.702 393.738 326.285C393.69 326.302 393.395 326.365 393.33 326.378C393.445 326.198 393.314 326.16 393.453 325.932C395.253 325.144 392.689 319.241 395.824 319.066C396.327 319.038 396.751 319.03 397.255 319.04C397.461 318.531 397.487 318.085 397.743 317.474Z" fill="#F2F1EA"/>
<path d="M391.918 326.094C392.483 325.793 392.803 325.888 393.45 325.933C393.311 326.161 393.441 326.199 393.326 326.38C392.687 326.383 392.485 326.37 391.918 326.094Z" fill="#F2F1EA"/>
<path d="M323.85 326.128C323.598 325.944 323.323 325.695 323.305 325.369C323.187 323.178 323.277 320.959 323.264 318.763C323.262 318.412 323.323 317.429 323.651 317.215C324.53 316.642 326.084 316.892 326.107 318.146C326.149 319.827 326.103 321.519 326.133 323.202C326.146 324.044 326.17 324.856 326 325.668C325.494 326.368 324.616 326.502 323.85 326.128Z" fill="#F2F0EB"/>
<path d="M323.855 326.127L324.073 325.951C324.621 325.865 325.642 325.553 326.005 325.666C325.499 326.367 324.621 326.501 323.855 326.127Z" fill="#F2F1EA"/>
<path d="M323.701 315.023C323.099 314.653 322.824 313.943 323.025 313.282C323.227 312.621 323.857 312.168 324.571 312.171C325.286 312.174 325.912 312.631 326.108 313.294C326.291 313.913 326.058 314.576 325.523 314.96C324.989 315.345 324.263 315.37 323.701 315.023Z" fill="#F2F0EB"/>
<path d="M326.111 313.293C326.293 313.912 326.061 314.575 325.526 314.959C324.991 315.344 324.266 315.369 323.704 315.023C323.998 314.794 324.091 314.852 324.432 314.796C325.397 314.635 325.729 314.078 326.111 313.293Z" fill="#E3C3A1"/>
<path d="M391.081 337.702L391.224 337.83C391.236 338.378 390.914 339.703 390.647 340.191L390.52 340.044C390.651 339.491 390.933 338.193 391.081 337.702Z" fill="#332623"/>
<g filter="url(#filter0_d_762_9890)">
<rect x="107" y="275" width="64" height="64" rx="18" fill="white" shape-rendering="crispEdges"/>
<rect x="107.5" y="275.5" width="63" height="63" rx="17.5" stroke="#FECE99" shape-rendering="crispEdges"/>
<circle cx="139" cy="307" r="16" fill="url(#paint12_linear_762_9890)"/>
<path d="M146.985 300.381C147.127 299.461 146.252 298.734 145.433 299.094L129.131 306.251C128.544 306.509 128.587 307.398 129.196 307.592L132.558 308.662C133.2 308.867 133.894 308.761 134.455 308.374L142.034 303.137C142.263 302.98 142.512 303.305 142.317 303.506L136.861 309.131C136.332 309.677 136.437 310.601 137.073 311.001L143.182 314.831C143.867 315.261 144.748 314.829 144.876 314.001L146.985 300.381Z" fill="white"/>
</g>
<g filter="url(#filter1_d_762_9890)">
<rect x="114" y="135" width="64" height="64" rx="18" fill="white" shape-rendering="crispEdges"/>
<rect x="114.5" y="135.5" width="63" height="63" rx="17.5" stroke="#FECE99" shape-rendering="crispEdges"/>
<path d="M130 162.378C130 158.395 130 156.404 130.775 154.883C131.457 153.545 132.545 152.457 133.883 151.775C135.404 151 137.395 151 141.378 151H150.622C154.605 151 156.596 151 158.117 151.775C159.455 152.457 160.543 153.545 161.225 154.883C162 156.404 162 158.395 162 162.378V171.622C162 175.605 162 177.596 161.225 179.117C160.543 180.455 159.455 181.543 158.117 182.225C156.596 183 154.605 183 150.622 183H141.378C137.395 183 135.404 183 133.883 182.225C132.545 181.543 131.457 180.455 130.775 179.117C130 177.596 130 175.605 130 171.622V162.378Z" fill="white"/>
<path d="M152.916 158.455L146.074 163.795L139.075 158.455V158.457L139.083 158.464V165.941L145.995 171.396L152.916 166.152V158.455Z" fill="#EA4335"/>
<path d="M154.712 157.156L152.916 158.455V166.152L158.57 161.81V159.195C158.57 159.195 157.883 155.46 154.712 157.156Z" fill="#FBBC05"/>
<path d="M152.916 166.152V176.134H157.249C157.249 176.134 158.482 176.007 158.571 174.602V161.811L152.916 166.152Z" fill="#34A853"/>
<path d="M139.083 176.143V165.941L139.075 165.934L139.083 176.143Z" fill="#C5221F"/>
<path d="M139.075 158.457L137.288 157.165C134.116 155.469 133.429 159.203 133.429 159.203V161.818L139.075 165.934V158.457Z" fill="#C5221F"/>
<path d="M139.075 158.456V165.933L139.083 165.941V158.463L139.075 158.456Z" fill="#C5221F"/>
<path d="M133.429 161.819V174.61C133.516 176.017 134.751 176.143 134.751 176.143H139.084L139.075 165.933L133.429 161.819Z" fill="#4285F4"/>
</g>
<g filter="url(#filter2_d_762_9890)">
<rect x="337" y="44" width="64" height="64" rx="18" fill="white" shape-rendering="crispEdges"/>
<rect x="337.5" y="44.5" width="63" height="63" rx="17.5" stroke="#FECE99" shape-rendering="crispEdges"/>
<path d="M353 71.3778C353 67.3952 353 65.4039 353.775 63.8827C354.457 62.5447 355.545 61.4568 356.883 60.7751C358.404 60 360.395 60 364.378 60H373.622C377.605 60 379.596 60 381.117 60.7751C382.455 61.4568 383.543 62.5447 384.225 63.8827C385 65.4039 385 67.3952 385 71.3778V80.6222C385 84.6048 385 86.5961 384.225 88.1173C383.543 89.4553 382.455 90.5432 381.117 91.2249C379.596 92 377.605 92 373.622 92H364.378C360.395 92 358.404 92 356.883 91.2249C355.545 90.5432 354.457 89.4553 353.775 88.1173C353 86.5961 353 84.6048 353 80.6222V71.3778Z" fill="white"/>
<path d="M378.706 64.5713H374.99V69.9556H380.427V66.0895C380.428 66.0895 380.158 64.7181 378.706 64.5713Z" fill="#1967D2"/>
<path d="M374.991 87.4033V87.4165V87.4282L380.428 82.0439H380.38L374.991 87.4033Z" fill="#1967D2"/>
<path d="M380.428 82.0439V81.9956L380.38 82.0439H380.428Z" fill="#FBBC05"/>
<path d="M380.428 69.9556H374.991V81.9957H380.428V69.9556Z" fill="#FBBC05"/>
<path d="M380.38 82.0439H374.991V87.4033L380.38 82.0439Z" fill="#EA4335"/>
<path d="M374.991 82.0439H380.38L380.428 81.9956H374.991V82.0439Z" fill="#EA4335"/>
<path d="M374.978 87.4165H374.991V87.4033L374.978 87.4165Z" fill="#34A853"/>
<path d="M362.886 81.9956V87.4166H374.978L374.991 81.9956H362.886Z" fill="#34A853"/>
<path d="M374.991 82.0441V81.9956L374.978 87.4166L374.991 87.4034V82.0441Z" fill="#34A853"/>
<path d="M357.571 81.9956V85.7647C357.62 86.9878 358.943 87.4166 358.943 87.4166H362.886V81.9956H357.571Z" fill="#188038"/>
<path d="M362.886 69.9556H374.991V64.5713H359.096C359.096 64.5713 357.669 64.7181 357.571 66.2349V81.9957H362.886V69.9556Z" fill="#4285F4"/>
<path d="M366.846 79.5584C366.569 79.5584 366.302 79.5223 366.045 79.4502C365.794 79.3781 365.564 79.2698 365.353 79.1256C365.142 78.9747 364.954 78.7878 364.789 78.5648C364.631 78.3418 364.509 78.0828 364.423 77.7876L365.639 77.3056C365.725 77.6335 365.87 77.8827 366.075 78.0533C366.279 78.2172 366.536 78.2992 366.846 78.2992C366.985 78.2992 367.117 78.2795 367.242 78.2402C367.367 78.1943 367.476 78.132 367.568 78.0533C367.661 77.9745 367.733 77.8827 367.786 77.7778C367.845 77.6663 367.875 77.5417 367.875 77.404C367.875 77.1154 367.766 76.8891 367.548 76.7252C367.337 76.5612 367.044 76.4792 366.668 76.4792H366.085V75.3085H366.619C366.751 75.3085 366.879 75.2921 367.004 75.2594C367.13 75.2266 367.238 75.1774 367.331 75.1118C367.43 75.0396 367.506 74.9511 367.558 74.8462C367.618 74.7347 367.647 74.6068 367.647 74.4625C367.647 74.2395 367.568 74.0592 367.41 73.9214C367.252 73.7771 367.037 73.705 366.767 73.705C366.477 73.705 366.253 73.7837 366.094 73.9411C365.943 74.092 365.837 74.2625 365.778 74.4527L364.591 73.9706C364.65 73.8067 364.739 73.6394 364.858 73.4689C364.977 73.2918 365.125 73.1344 365.303 72.9967C365.488 72.8524 365.702 72.7376 365.946 72.6524C366.19 72.5606 366.47 72.5146 366.787 72.5146C367.11 72.5146 367.403 72.5606 367.667 72.6524C367.937 72.7442 368.168 72.8721 368.359 73.036C368.551 73.1934 368.699 73.3836 368.805 73.6066C368.91 73.8231 368.963 74.0592 368.963 74.3149C368.963 74.5117 368.936 74.6888 368.884 74.8462C368.838 75.0036 368.775 75.1446 368.696 75.2692C368.617 75.3938 368.524 75.502 368.419 75.5938C368.32 75.6791 368.218 75.748 368.112 75.8004V75.8791C368.429 76.0037 368.689 76.2038 368.894 76.4792C369.105 76.7547 369.21 77.1023 369.21 77.522C369.21 77.8171 369.154 78.0893 369.042 78.3385C368.93 78.5812 368.768 78.7944 368.557 78.978C368.353 79.1616 368.106 79.3026 367.815 79.401C367.525 79.5059 367.202 79.5584 366.846 79.5584Z" fill="#4285F4"/>
<path d="M371.572 79.401V74.1871L370.375 74.6888L369.901 73.5968L371.889 72.6721H372.868V79.401H371.572Z" fill="#4285F4"/>
</g>
<g filter="url(#filter3_d_762_9890)">
<rect x="192" y="3" width="64" height="64" rx="18" fill="white" shape-rendering="crispEdges"/>
<rect x="192.5" y="3.5" width="63" height="63" rx="17.5" stroke="#FECE99" shape-rendering="crispEdges"/>
<path fill-rule="evenodd" clip-rule="evenodd" d="M224 52.1431C232.837 52.1431 240 44.9796 240 36.1431C240 27.3065 232.837 20.1431 224 20.1431C215.163 20.1431 208 27.3065 208 36.1431C208 39.0126 208.755 41.7058 210.078 44.0345L208 52.1431L216.36 50.2045C218.63 51.4407 221.233 52.1431 224 52.1431ZM224 49.6815C231.477 49.6815 237.538 43.6202 237.538 36.1431C237.538 28.666 231.477 22.6046 224 22.6046C216.523 22.6046 210.462 28.666 210.462 36.1431C210.462 39.03 211.365 41.7059 212.905 43.9033L211.692 48.4508L216.32 47.2939C218.502 48.7997 221.148 49.6815 224 49.6815Z" fill="#BFC8D0"/>
<path d="M237.714 34.9999C237.714 42.5741 231.574 48.7142 224 48.7142C221.111 48.7142 218.431 47.8209 216.22 46.2955L211.532 47.4675L212.761 42.861C211.201 40.635 210.286 37.9244 210.286 34.9999C210.286 27.4257 216.426 21.2856 224 21.2856C231.574 21.2856 237.714 27.4257 237.714 34.9999Z" fill="url(#paint13_linear_762_9890)"/>
<path fill-rule="evenodd" clip-rule="evenodd" d="M224 51C232.837 51 240 43.8366 240 35C240 26.1634 232.837 19 224 19C215.163 19 208 26.1634 208 35C208 37.8696 208.755 40.5627 210.078 42.8914L208 51L216.36 49.0615C218.63 50.2976 221.233 51 224 51ZM224 48.5385C231.477 48.5385 237.538 42.4771 237.538 35C237.538 27.5229 231.477 21.4615 224 21.4615C216.523 21.4615 210.462 27.5229 210.462 35C210.462 37.8869 211.365 40.5628 212.905 42.7602L211.692 47.3077L216.32 46.1508C218.502 47.6566 221.148 48.5385 224 48.5385Z" fill="white"/>
<path d="M220 27.5715C219.62 26.8074 219.036 26.8751 218.446 26.8751C217.393 26.8751 215.75 28.1371 215.75 30.4859C215.75 32.4108 216.598 34.518 219.456 37.6701C222.215 40.7121 225.839 42.2857 228.848 42.2321C231.857 42.1786 232.476 39.5893 232.476 38.7149C232.476 38.3273 232.236 38.1339 232.07 38.0814C231.045 37.5893 229.154 36.6724 228.723 36.5001C228.293 36.3278 228.068 36.5608 227.929 36.6876C227.538 37.0595 226.765 38.1554 226.5 38.4019C226.235 38.6484 225.84 38.5236 225.676 38.4304C225.071 38.1878 223.432 37.4586 222.125 36.1918C220.509 34.6251 220.414 34.0861 220.11 33.6063C219.866 33.2224 220.045 32.9869 220.134 32.884C220.482 32.4822 220.963 31.8619 221.179 31.5537C221.394 31.2454 221.223 30.7774 221.12 30.4859C220.679 29.2322 220.304 28.1828 220 27.5715Z" fill="white"/>
</g>
<g filter="url(#filter4_d_762_9890)">
<rect x="504" y="16" width="64" height="64" rx="18" fill="white" shape-rendering="crispEdges"/>
<rect x="504.5" y="16.5" width="63" height="63" rx="17.5" stroke="#FECE99" shape-rendering="crispEdges"/>
<path d="M539.375 45.6411C539.375 45.0799 539.83 44.625 540.391 44.625H552.984C553.545 44.625 554 45.0799 554 45.6411V53.0625C554 57.1011 550.726 60.375 546.688 60.375C542.649 60.375 539.375 57.1011 539.375 53.0625V45.6411Z" fill="url(#paint14_linear_762_9890)"/>
<path d="M528.125 43.754C528.125 42.9924 528.742 42.375 529.504 42.375H544.746C545.508 42.375 546.125 42.9924 546.125 43.754V54.75C546.125 59.7206 542.096 63.75 537.125 63.75C532.154 63.75 528.125 59.7206 528.125 54.75V43.754Z" fill="url(#paint15_linear_762_9890)"/>
<circle cx="548.375" cy="39" r="3.375" fill="#34439E"/>
<circle cx="548.375" cy="39" r="3.375" fill="url(#paint16_linear_762_9890)"/>
<circle cx="538.25" cy="36.75" r="4.5" fill="url(#paint17_linear_762_9890)"/>
<mask id="mask0_762_9890" style="mask-type:alpha" maskUnits="userSpaceOnUse" x="528" y="30" width="19" height="34">
<path d="M537.125 41.25C540.232 41.25 542.75 38.7317 542.75 35.625C542.75 32.5183 540.232 30 537.125 30C534.018 30 531.5 32.5183 531.5 35.625C531.5 38.7317 534.018 41.25 537.125 41.25Z" fill="url(#paint18_linear_762_9890)"/>
<path d="M529.504 42.375C528.742 42.375 528.125 42.9924 528.125 43.7541V54.75C528.125 59.7206 532.154 63.75 537.125 63.75C542.096 63.75 546.125 59.7206 546.125 54.75V43.7541C546.125 42.9924 545.508 42.375 544.746 42.375H529.504Z" fill="url(#paint19_linear_762_9890)"/>
</mask>
<g mask="url(#mask0_762_9890)">
<path d="M525.875 43.5C525.875 41.636 527.386 40.125 529.25 40.125H537.125C538.989 40.125 540.5 41.636 540.5 43.5V57C540.5 58.864 538.989 60.375 537.125 60.375H525.875V43.5Z" fill="black" fill-opacity="0.3"/>
</g>
<rect x="518" y="37.875" width="20.25" height="20.25" rx="2.25" fill="url(#paint20_linear_762_9890)"/>
<path d="M532.625 42.375H523.625V44.4391H526.994V53.625H529.256V44.4391H532.625V42.375Z" fill="white"/>
</g>
<g filter="url(#filter5_d_762_9890)">
<rect x="518" y="187" width="64" height="64" rx="18" fill="white" shape-rendering="crispEdges"/>
<rect x="518.5" y="187.5" width="63" height="63" rx="17.5" stroke="#FECE99" shape-rendering="crispEdges"/>
<path d="M562 217.857C563.578 217.857 564.857 216.578 564.857 215C564.857 213.422 563.578 212.143 562 212.143C560.422 212.143 559.143 213.422 559.143 215V217.857H562ZM554 217.857C555.578 217.857 556.857 216.578 556.857 215V207C556.857 205.422 555.578 204.143 554 204.143C552.422 204.143 551.143 205.422 551.143 207V215C551.143 216.578 552.422 217.857 554 217.857Z" fill="#2EB67D"/>
<path d="M538 220.143C536.422 220.143 535.143 221.422 535.143 223C535.143 224.578 536.422 225.857 538 225.857C539.578 225.857 540.857 224.578 540.857 223V220.143H538ZM546 220.143C544.422 220.143 543.143 221.422 543.143 223V231C543.143 232.578 544.422 233.857 546 233.857C547.578 233.857 548.857 232.578 548.857 231V223C548.857 221.422 547.578 220.143 546 220.143Z" fill="#E01E5A"/>
<path d="M551.143 231C551.143 232.578 552.422 233.857 554 233.857C555.578 233.857 556.857 232.578 556.857 231C556.857 229.422 555.578 228.143 554 228.143L551.143 228.143L551.143 231ZM551.143 223C551.143 224.578 552.422 225.857 554 225.857L562 225.857C563.578 225.857 564.857 224.578 564.857 223C564.857 221.422 563.578 220.143 562 220.143L554 220.143C552.422 220.143 551.143 221.422 551.143 223Z" fill="#ECB22E"/>
<path d="M548.857 207C548.857 205.422 547.578 204.143 546 204.143C544.422 204.143 543.143 205.422 543.143 207C543.143 208.578 544.422 209.857 546 209.857L548.857 209.857L548.857 207ZM548.857 215C548.857 213.422 547.578 212.143 546 212.143L538 212.143C536.422 212.143 535.143 213.422 535.143 215C535.143 216.578 536.422 217.857 538 217.857L546 217.857C547.578 217.857 548.857 216.578 548.857 215Z" fill="#36C5F0"/>
</g>
<defs>
<filter id="filter0_d_762_9890" x="103" y="272" width="72" height="72" filterUnits="userSpaceOnUse" color-interpolation-filters="sRGB">
<feFlood flood-opacity="0" result="BackgroundImageFix"/>
<feColorMatrix in="SourceAlpha" type="matrix" values="0 0 0 0 0 0 0 0 0 0 0 0 0 0 0 0 0 0 127 0" result="hardAlpha"/>
<feOffset dy="1"/>
<feGaussianBlur stdDeviation="2"/>
<feComposite in2="hardAlpha" operator="out"/>
<feColorMatrix type="matrix" values="0 0 0 0 0.0470588 0 0 0 0 0.0470588 0 0 0 0 0.0509804 0 0 0 0.05 0"/>
<feBlend mode="normal" in2="BackgroundImageFix" result="effect1_dropShadow_762_9890"/>
<feBlend mode="normal" in="SourceGraphic" in2="effect1_dropShadow_762_9890" result="shape"/>
</filter>
<filter id="filter1_d_762_9890" x="110" y="132" width="72" height="72" filterUnits="userSpaceOnUse" color-interpolation-filters="sRGB">
<feFlood flood-opacity="0" result="BackgroundImageFix"/>
<feColorMatrix in="SourceAlpha" type="matrix" values="0 0 0 0 0 0 0 0 0 0 0 0 0 0 0 0 0 0 127 0" result="hardAlpha"/>
<feOffset dy="1"/>
<feGaussianBlur stdDeviation="2"/>
<feComposite in2="hardAlpha" operator="out"/>
<feColorMatrix type="matrix" values="0 0 0 0 0.0470588 0 0 0 0 0.0470588 0 0 0 0 0.0509804 0 0 0 0.05 0"/>
<feBlend mode="normal" in2="BackgroundImageFix" result="effect1_dropShadow_762_9890"/>
<feBlend mode="normal" in="SourceGraphic" in2="effect1_dropShadow_762_9890" result="shape"/>
</filter>
<filter id="filter2_d_762_9890" x="333" y="41" width="72" height="72" filterUnits="userSpaceOnUse" color-interpolation-filters="sRGB">
<feFlood flood-opacity="0" result="BackgroundImageFix"/>
<feColorMatrix in="SourceAlpha" type="matrix" values="0 0 0 0 0 0 0 0 0 0 0 0 0 0 0 0 0 0 127 0" result="hardAlpha"/>
<feOffset dy="1"/>
<feGaussianBlur stdDeviation="2"/>
<feComposite in2="hardAlpha" operator="out"/>
<feColorMatrix type="matrix" values="0 0 0 0 0.0470588 0 0 0 0 0.0470588 0 0 0 0 0.0509804 0 0 0 0.05 0"/>
<feBlend mode="normal" in2="BackgroundImageFix" result="effect1_dropShadow_762_9890"/>
<feBlend mode="normal" in="SourceGraphic" in2="effect1_dropShadow_762_9890" result="shape"/>
</filter>
<filter id="filter3_d_762_9890" x="188" y="0" width="72" height="72" filterUnits="userSpaceOnUse" color-interpolation-filters="sRGB">
<feFlood flood-opacity="0" result="BackgroundImageFix"/>
<feColorMatrix in="SourceAlpha" type="matrix" values="0 0 0 0 0 0 0 0 0 0 0 0 0 0 0 0 0 0 127 0" result="hardAlpha"/>
<feOffset dy="1"/>
<feGaussianBlur stdDeviation="2"/>
<feComposite in2="hardAlpha" operator="out"/>
<feColorMatrix type="matrix" values="0 0 0 0 0.0470588 0 0 0 0 0.0470588 0 0 0 0 0.0509804 0 0 0 0.05 0"/>
<feBlend mode="normal" in2="BackgroundImageFix" result="effect1_dropShadow_762_9890"/>
<feBlend mode="normal" in="SourceGraphic" in2="effect1_dropShadow_762_9890" result="shape"/>
</filter>
<filter id="filter4_d_762_9890" x="500" y="13" width="72" height="72" filterUnits="userSpaceOnUse" color-interpolation-filters="sRGB">
<feFlood flood-opacity="0" result="BackgroundImageFix"/>
<feColorMatrix in="SourceAlpha" type="matrix" values="0 0 0 0 0 0 0 0 0 0 0 0 0 0 0 0 0 0 127 0" result="hardAlpha"/>
<feOffset dy="1"/>
<feGaussianBlur stdDeviation="2"/>
<feComposite in2="hardAlpha" operator="out"/>
<feColorMatrix type="matrix" values="0 0 0 0 0.0470588 0 0 0 0 0.0470588 0 0 0 0 0.0509804 0 0 0 0.05 0"/>
<feBlend mode="normal" in2="BackgroundImageFix" result="effect1_dropShadow_762_9890"/>
<feBlend mode="normal" in="SourceGraphic" in2="effect1_dropShadow_762_9890" result="shape"/>
</filter>
<filter id="filter5_d_762_9890" x="514" y="184" width="72" height="72" filterUnits="userSpaceOnUse" color-interpolation-filters="sRGB">
<feFlood flood-opacity="0" result="BackgroundImageFix"/>
<feColorMatrix in="SourceAlpha" type="matrix" values="0 0 0 0 0 0 0 0 0 0 0 0 0 0 0 0 0 0 127 0" result="hardAlpha"/>
<feOffset dy="1"/>
<feGaussianBlur stdDeviation="2"/>
<feComposite in2="hardAlpha" operator="out"/>
<feColorMatrix type="matrix" values="0 0 0 0 0.0470588 0 0 0 0 0.0470588 0 0 0 0 0.0509804 0 0 0 0.05 0"/>
<feBlend mode="normal" in2="BackgroundImageFix" result="effect1_dropShadow_762_9890"/>
<feBlend mode="normal" in="SourceGraphic" in2="effect1_dropShadow_762_9890" result="shape"/>
</filter>
<linearGradient id="paint0_linear_762_9890" x1="368.037" y1="346.102" x2="361.292" y2="295.827" gradientUnits="userSpaceOnUse">
<stop stop-color="#2D231E"/>
<stop offset="1" stop-color="#483C3A"/>
</linearGradient>
<linearGradient id="paint1_linear_762_9890" x1="368.073" y1="355.651" x2="357.878" y2="344.17" gradientUnits="userSpaceOnUse">
<stop stop-color="#A01D1C"/>
<stop offset="1" stop-color="#FF4648"/>
</linearGradient>
<linearGradient id="paint2_linear_762_9890" x1="365.996" y1="353.131" x2="359.494" y2="346.335" gradientUnits="userSpaceOnUse">
<stop stop-color="#C92225"/>
<stop offset="1" stop-color="#FF484B"/>
</linearGradient>
<linearGradient id="paint3_linear_762_9890" x1="431.889" y1="315.894" x2="413.82" y2="291.581" gradientUnits="userSpaceOnUse">
<stop stop-color="#C6A382"/>
<stop offset="1" stop-color="#F9DDC3"/>
</linearGradient>
<linearGradient id="paint4_linear_762_9890" x1="416.645" y1="299.606" x2="425.618" y2="311.734" gradientUnits="userSpaceOnUse">
<stop stop-color="#6F1918"/>
<stop offset="1" stop-color="#A22B30"/>
</linearGradient>
<linearGradient id="paint5_linear_762_9890" x1="316.315" y1="332.298" x2="296.727" y2="313.172" gradientUnits="userSpaceOnUse">
<stop stop-color="#DFC592"/>
<stop offset="1" stop-color="#FFF2CF"/>
</linearGradient>
<linearGradient id="paint6_linear_762_9890" x1="314.604" y1="334.763" x2="310.751" y2="329.05" gradientUnits="userSpaceOnUse">
<stop stop-color="#BA9862"/>
<stop offset="1" stop-color="#DABA83"/>
</linearGradient>
<linearGradient id="paint7_linear_762_9890" x1="308.601" y1="326.059" x2="312.965" y2="330.598" gradientUnits="userSpaceOnUse">
<stop stop-color="#AC823C"/>
<stop offset="1" stop-color="#D1B581"/>
</linearGradient>
<linearGradient id="paint8_linear_762_9890" x1="395.421" y1="324.77" x2="412.128" y2="345.983" gradientUnits="userSpaceOnUse">
<stop stop-color="#8D6B52"/>
<stop offset="1" stop-color="#B08E75"/>
</linearGradient>
<linearGradient id="paint9_linear_762_9890" x1="327.18" y1="331.285" x2="329.953" y2="346.501" gradientUnits="userSpaceOnUse">
<stop stop-color="#7C5B44"/>
<stop offset="1" stop-color="#A9866D"/>
</linearGradient>
<linearGradient id="paint10_linear_762_9890" x1="356.998" y1="320.497" x2="360.517" y2="322.977" gradientUnits="userSpaceOnUse">
<stop stop-color="#1F1815"/>
<stop offset="1" stop-color="#463C38"/>
</linearGradient>
<linearGradient id="paint11_linear_762_9890" x1="383.28" y1="320.411" x2="386.599" y2="323.075" gradientUnits="userSpaceOnUse">
<stop stop-color="#1F1815"/>
<stop offset="1" stop-color="#433935"/>
</linearGradient>
<linearGradient id="paint12_linear_762_9890" x1="139" y1="291" x2="139" y2="323" gradientUnits="userSpaceOnUse">
<stop stop-color="#37BBFE"/>
<stop offset="1" stop-color="#007DBB"/>
</linearGradient>
<linearGradient id="paint13_linear_762_9890" x1="236" y1="24.7142" x2="210.286" y2="48.7142" gradientUnits="userSpaceOnUse">
<stop stop-color="#5BD066"/>
<stop offset="1" stop-color="#27B43E"/>
</linearGradient>
<linearGradient id="paint14_linear_762_9890" x1="539.375" y1="45.4539" x2="554.179" y2="55.1274" gradientUnits="userSpaceOnUse">
<stop stop-color="#364088"/>
<stop offset="1" stop-color="#6E7EE1"/>
</linearGradient>
<linearGradient id="paint15_linear_762_9890" x1="528.125" y1="51.8293" x2="546.125" y2="51.8293" gradientUnits="userSpaceOnUse">
<stop stop-color="#515FC4"/>
<stop offset="1" stop-color="#7084EA"/>
</linearGradient>
<linearGradient id="paint16_linear_762_9890" x1="545" y1="35.9803" x2="551.521" y2="40.569" gradientUnits="userSpaceOnUse">
<stop stop-color="#364088"/>
<stop offset="1" stop-color="#6E7EE1"/>
</linearGradient>
<linearGradient id="paint17_linear_762_9890" x1="535.036" y1="33.5357" x2="540.821" y2="40.2857" gradientUnits="userSpaceOnUse">
<stop stop-color="#4858AE"/>
<stop offset="1" stop-color="#4E60CE"/>
</linearGradient>
<linearGradient id="paint18_linear_762_9890" x1="533.107" y1="31.6071" x2="540.339" y2="40.0446" gradientUnits="userSpaceOnUse">
<stop stop-color="#4858AE"/>
<stop offset="1" stop-color="#4E60CE"/>
</linearGradient>
<linearGradient id="paint19_linear_762_9890" x1="533.107" y1="31.6071" x2="540.339" y2="40.0446" gradientUnits="userSpaceOnUse">
<stop stop-color="#4858AE"/>
<stop offset="1" stop-color="#4E60CE"/>
</linearGradient>
<linearGradient id="paint20_linear_762_9890" x1="518" y1="48" x2="538.25" y2="48" gradientUnits="userSpaceOnUse">
<stop stop-color="#2A3887"/>
<stop offset="1" stop-color="#4C56B9"/>
</linearGradient>
</defs>
</svg>
