<svg width="393" height="370" viewBox="0 0 393 370" fill="none" xmlns="http://www.w3.org/2000/svg">
<mask id="path-1-inside-1_762_10318" fill="white">
<path d="M-170 383C-170 334.805 -160.507 287.082 -142.064 242.555C-123.62 198.029 -96.5872 157.571 -62.508 123.492C-28.4288 89.4125 12.029 62.3795 56.5555 43.9361C101.082 25.4926 148.805 15.9999 197 16C245.196 16.0001 292.919 25.4929 337.445 43.9364C381.972 62.38 422.43 89.4131 456.509 123.492C490.588 157.572 517.621 198.029 536.064 242.556C554.508 287.083 564 334.806 564 383.001L197 383L-170 383Z"/>
</mask>
<path d="M-170 383C-170 334.805 -160.507 287.082 -142.064 242.555C-123.62 198.029 -96.5872 157.571 -62.508 123.492C-28.4288 89.4125 12.029 62.3795 56.5555 43.9361C101.082 25.4926 148.805 15.9999 197 16C245.196 16.0001 292.919 25.4929 337.445 43.9364C381.972 62.38 422.43 89.4131 456.509 123.492C490.588 157.572 517.621 198.029 536.064 242.556C554.508 287.083 564 334.806 564 383.001L197 383L-170 383Z" fill="#FFFDF0" stroke="#FFCE99" stroke-width="2" mask="url(#path-1-inside-1_762_10318)"/>
<mask id="path-2-inside-2_762_10318" fill="white">
<path d="M-108 383C-108 342.947 -100.111 303.286 -84.7832 266.281C-69.4555 229.277 -46.9893 195.654 -18.6674 167.332C9.6545 139.01 43.2775 116.544 80.2818 101.217C117.286 85.889 156.947 77.9999 197 78C237.054 78.0001 276.715 85.8892 313.719 101.217C350.723 116.545 384.346 139.011 412.668 167.333C440.99 195.655 463.456 229.278 478.784 266.282C494.111 303.287 502 342.948 502 383.001L197 383L-108 383Z"/>
</mask>
<path d="M-108 383C-108 342.947 -100.111 303.286 -84.7832 266.281C-69.4555 229.277 -46.9893 195.654 -18.6674 167.332C9.6545 139.01 43.2775 116.544 80.2818 101.217C117.286 85.889 156.947 77.9999 197 78C237.054 78.0001 276.715 85.8892 313.719 101.217C350.723 116.545 384.346 139.011 412.668 167.333C440.99 195.655 463.456 229.278 478.784 266.282C494.111 303.287 502 342.948 502 383.001L197 383L-108 383Z" fill="#FDF7E2" stroke="#FFCE99" stroke-width="2" mask="url(#path-2-inside-2_762_10318)"/>
<mask id="path-3-inside-3_762_10318" fill="white">
<path d="M-46 383C-46 351.089 -39.7146 319.49 -27.5027 290.008C-15.2908 260.526 2.6085 233.738 25.1732 211.173C47.7378 188.608 74.526 170.709 104.008 158.497C133.49 146.285 165.089 140 197 140C228.912 140 260.51 146.285 289.992 158.497C319.475 170.709 346.263 188.609 368.827 211.173C391.392 233.738 409.291 260.526 421.503 290.008C433.715 319.491 440 351.089 440 383.001L197 383L-46 383Z"/>
</mask>
<path d="M-46 383C-46 351.089 -39.7146 319.49 -27.5027 290.008C-15.2908 260.526 2.6085 233.738 25.1732 211.173C47.7378 188.608 74.526 170.709 104.008 158.497C133.49 146.285 165.089 140 197 140C228.912 140 260.51 146.285 289.992 158.497C319.475 170.709 346.263 188.609 368.827 211.173C391.392 233.738 409.291 260.526 421.503 290.008C433.715 319.491 440 351.089 440 383.001L197 383L-46 383Z" fill="#FFFDF0" stroke="#FFCE99" stroke-width="2" mask="url(#path-3-inside-3_762_10318)"/>
<mask id="path-4-inside-4_762_10318" fill="white">
<path d="M17 383C17 359.231 21.6817 335.694 30.7778 313.734C39.8739 291.774 53.2063 271.821 70.0138 255.014C86.8212 238.206 106.775 224.874 128.734 215.778C150.694 206.682 174.231 202 198 202C221.77 202 245.306 206.682 267.266 215.778C289.226 224.874 309.179 238.206 325.987 255.014C342.794 271.821 356.126 291.775 365.222 313.735C374.318 335.695 379 359.231 379 383L198 383L17 383Z"/>
</mask>
<path d="M17 383C17 359.231 21.6817 335.694 30.7778 313.734C39.8739 291.774 53.2063 271.821 70.0138 255.014C86.8212 238.206 106.775 224.874 128.734 215.778C150.694 206.682 174.231 202 198 202C221.77 202 245.306 206.682 267.266 215.778C289.226 224.874 309.179 238.206 325.987 255.014C342.794 271.821 356.126 291.775 365.222 313.735C374.318 335.695 379 359.231 379 383L198 383L17 383Z" fill="#FDF7E2" stroke="#FFCE99" stroke-width="2" mask="url(#path-4-inside-4_762_10318)"/>
<mask id="path-5-inside-5_762_10318" fill="white">
<path d="M78 383C78 367.373 81.078 351.898 87.0584 337.461C93.0387 323.023 101.804 309.904 112.854 298.854C123.905 287.804 137.023 279.039 151.461 273.058C165.899 267.078 181.373 264 197 264C212.627 264 228.102 267.078 242.54 273.058C256.977 279.039 270.096 287.804 281.146 298.854C292.196 309.905 300.961 323.023 306.942 337.461C312.922 351.899 316 367.373 316 383L197 383L78 383Z"/>
</mask>
<path d="M78 383C78 367.373 81.078 351.898 87.0584 337.461C93.0387 323.023 101.804 309.904 112.854 298.854C123.905 287.804 137.023 279.039 151.461 273.058C165.899 267.078 181.373 264 197 264C212.627 264 228.102 267.078 242.54 273.058C256.977 279.039 270.096 287.804 281.146 298.854C292.196 309.905 300.961 323.023 306.942 337.461C312.922 351.899 316 367.373 316 383L197 383L78 383Z" fill="#FFFCF1" stroke="#FFCE99" stroke-width="2" mask="url(#path-5-inside-5_762_10318)"/>
<path d="M240.433 306.852C241.336 304.366 241.835 301.546 243.156 299.239C243.969 297.82 246.112 296.92 247.751 297.145C249.435 297.376 251.138 298.076 252.761 298.592C255.918 299.571 259.063 300.586 262.195 301.637C263.315 302.016 264.125 302.3 265.049 303.079C267.127 304.832 267.357 307.151 266.47 309.552C266.45 309.605 266.429 309.657 266.406 309.709C266.298 310.328 263.341 319.44 263.124 319.798C262.452 322.085 261.397 324.294 258.812 324.988C258.084 325.133 257.198 325.318 256.462 325.15C256.317 325.307 256.481 333.095 256.31 334.044C256.235 334.457 256.171 336.631 256.052 337.305C254.571 345.682 249.463 348.574 241.077 348.904C230.944 349.303 220.894 349.33 210.753 349.278C209.829 349.274 204.501 349.445 204.046 349.266L203.681 349.309C205.468 350.637 208.432 352.099 209.078 354.343C209.541 355.978 209.318 357.713 208.378 359.119C207.631 360.238 206.353 362.058 205.479 363.074C205.296 363.306 204.262 364.697 204.166 364.749C203.114 366.27 201.824 367.823 200.711 369.325C199.278 370.974 198.117 372.238 195.69 372.456C194.986 372.52 193.917 372.396 193.251 372.15C191.385 371.635 187.486 368.776 185.701 367.681C184.041 366.638 182.403 365.571 180.807 364.439C179.096 363.226 177.863 361.806 177.593 359.692C177.471 358.769 177.584 357.83 177.921 356.958C178.483 355.514 181.972 350.925 183.074 349.571C182.699 349.486 179.863 349.506 179.267 349.504C177.133 349.49 175 349.464 172.867 349.426L157.437 349.045C152.791 348.904 147.873 348.746 143.261 348.201C138.983 347.696 135.733 345.749 133.132 342.483C132.918 342.416 131.797 342.416 131.36 342.353C129.721 342.446 128.103 342.119 126.875 341.006C125.385 339.686 125.15 337.632 125.104 335.778C125.021 332.379 125.007 328.996 124.914 325.596C124.86 323.654 124.992 321.753 126.452 320.237C128.378 318.238 131.407 318.623 133.99 318.556C133.993 318.447 133.999 318.338 134.007 318.229C134.443 312.933 137.918 307.796 143.779 307.274C152.506 306.495 161.369 306.517 170.13 306.316C185.322 306.041 200.519 306.066 215.709 306.391L231.363 306.675L237.143 306.784C238.203 306.802 239.388 306.773 240.433 306.852Z" fill="url(#paint0_linear_762_10318)"/>
<path d="M184.092 348.24C185.885 345.999 187.555 343.31 190.641 342.942C191.835 342.802 193.046 342.942 194.171 343.351C195.47 343.823 196.883 344.839 198.046 345.611C199.474 346.568 200.908 347.519 202.346 348.462C202.735 348.788 203.226 349.074 203.68 349.311C205.467 350.639 208.431 352.101 209.077 354.346C209.54 355.981 209.317 357.715 208.378 359.122C207.63 360.241 206.352 362.061 205.478 363.077C205.296 363.308 204.261 364.699 204.165 364.752C203.113 366.272 201.823 367.826 200.711 369.328C199.278 370.976 198.117 372.24 195.689 372.459C194.985 372.522 193.916 372.399 193.25 372.152C191.384 371.637 187.485 368.779 185.701 367.683C184.04 366.64 182.403 365.574 180.806 364.442C179.095 363.229 177.862 361.808 177.592 359.694C177.47 358.771 177.583 357.833 177.92 356.96C178.482 355.517 181.971 350.928 183.073 349.574C183.472 349.101 183.737 348.745 184.092 348.24Z" fill="#E3C3A1"/>
<path d="M187.555 362.897C185.402 361.068 184.435 358.264 185.022 355.555C185.609 352.846 187.66 350.65 190.392 349.806C193.124 348.962 196.116 349.599 198.226 351.475C198.688 351.886 199.099 352.349 199.449 352.853C201.675 356.063 201.087 360.368 198.074 362.912C195.062 365.457 190.56 365.45 187.555 362.897Z" fill="url(#paint1_linear_762_10318)"/>
<path d="M188.883 353.85C189.374 353.779 190.738 352.148 192.086 352.154C192.643 352.157 193.809 352.023 194.385 352.471C194.924 352.332 196.417 353.464 196.472 353.812C195.992 353.631 195.969 353.431 195.639 353.23L195.676 353.282C195.964 353.675 196.313 354.008 196.589 354.408C197.901 356.303 197.491 359.311 195.525 360.561C193.502 361.848 190.445 361.722 189.019 359.752C188.92 359.616 188.669 359.329 188.527 359.24C188.386 359.058 188.189 358.41 188.142 358.167C187.901 356.925 188.104 355.69 188.616 354.537C188.616 354.537 188.545 354.281 188.538 354.256C188.624 354.12 188.771 353.972 188.883 353.85Z" fill="url(#paint2_linear_762_10318)"/>
<path d="M190.948 353.857C192.716 353.656 192.898 355.941 190.588 356.697C190.234 356.799 189.807 356.891 189.442 356.979C189.142 355.594 189.715 354.587 190.948 353.857Z" fill="#FFAAAA"/>
<path d="M188.543 354.257C188.315 354.563 188.038 355.212 187.822 355.35C187.537 355.128 187.525 354.275 187.542 353.939C187.615 352.49 190.221 350.857 191.399 352.146C190.478 352.536 189.511 353.067 188.888 353.851C188.776 353.973 188.628 354.121 188.543 354.257Z" fill="#FFAAAA"/>
<path d="M198.226 351.478C198.533 351.605 198.661 351.693 198.986 351.74C199.311 351.787 199.525 352.059 199.668 352.344C200.112 352.603 200.633 352.898 201.001 353.254C201.943 354.163 202.702 355.27 203.588 356.237C203.821 356.491 204.013 356.914 204.215 357.198C204.906 358.376 205.666 359.605 205.812 360.978C205.848 361.312 205.649 361.368 205.824 361.774C205.689 361.976 205.432 362.389 205.257 362.542L205.165 362.548C204.825 363.011 204.514 363.518 204.203 364.002C204.282 364.003 204.36 364.005 204.438 364.007C204.46 364.312 204.157 364.393 204.162 364.752C203.11 366.272 201.82 367.825 200.708 369.328L200.595 369.121C200.428 369.259 200.245 369.666 199.956 369.931C199.746 369.968 199.844 369.985 199.655 369.862C199.707 369.807 199.758 369.752 199.809 369.697C199.938 369.556 200.294 369.183 200.284 369.024L200.064 369.169C199.748 369.134 199.28 369.348 198.791 369.292C195.273 368.888 192.18 367.236 189.358 365.255C188.141 364.4 188.004 364.248 187.556 362.9C190.56 365.453 195.062 365.459 198.075 362.915C201.087 360.371 201.675 356.066 199.449 352.856C199.099 352.351 198.689 351.889 198.226 351.478Z" fill="#B88A65"/>
<path d="M198.229 351.478C198.535 351.605 198.664 351.693 198.989 351.74C199.313 351.787 199.527 352.059 199.67 352.344L199.699 352.39C199.811 352.564 200.405 353.294 200.568 353.484C200.226 353.488 199.966 352.951 199.451 352.856C199.101 352.351 198.691 351.889 198.229 351.478Z" fill="#B08C67"/>
<path d="M209.076 354.344C209.539 355.979 209.316 357.713 208.376 359.12C207.629 360.239 206.351 362.059 205.477 363.075C205.294 363.307 204.26 364.697 204.164 364.75C204.159 364.391 204.462 364.31 204.44 364.005C204.362 364.003 204.284 364.001 204.205 364C204.516 363.516 204.827 363.009 205.167 362.546L205.259 362.54C205.434 362.387 205.691 361.974 205.826 361.772C207.785 358.681 208.898 358.468 209.076 354.344Z" fill="#B08C67"/>
<path d="M200.061 369.168L200.281 369.023C200.291 369.182 199.936 369.555 199.807 369.696C199.756 369.751 199.704 369.806 199.652 369.861C199.841 369.984 199.743 369.967 199.953 369.93C200.243 369.665 200.426 369.258 200.593 369.12L200.705 369.327C199.272 370.975 198.111 372.239 195.683 372.457C194.979 372.521 193.911 372.397 193.245 372.151C193.746 371.921 195.684 372.607 196.07 372.104C195.774 371.902 194.201 372.053 193.862 371.818C194.411 371.789 194.974 372.014 195.678 371.919C197.82 371.63 198.798 370.645 200.061 369.168Z" fill="#B08C67"/>
<path d="M240.432 306.852C241.334 304.366 241.833 301.546 243.154 299.239C243.967 297.82 246.111 296.92 247.749 297.145C249.433 297.376 251.137 298.076 252.759 298.592C255.916 299.571 259.061 300.586 262.193 301.637C263.314 302.016 264.123 302.3 265.047 303.079C267.125 304.832 267.356 307.151 266.468 309.552C266.448 309.605 266.427 309.657 266.405 309.709C266.296 310.328 263.339 319.44 263.122 319.798C262.451 322.085 261.395 324.294 258.811 324.988C258.083 325.133 257.197 325.318 256.461 325.15C256.256 325.03 256.243 324.958 256.126 324.743L256.044 324.755C255.601 324.801 255.185 324.793 254.742 324.793L246.903 322.146C245.011 321.5 241.725 320.635 240.278 319.506C236.498 316.263 238.997 312.481 239.949 308.539L240.092 308.193C240.235 307.817 240.342 307.256 240.432 306.852Z" fill="#AE3134"/>
<path d="M240.432 306.852C241.334 304.366 241.833 301.546 243.154 299.239C243.967 297.82 246.111 296.92 247.749 297.145C249.433 297.376 251.137 298.076 252.759 298.592C255.916 299.571 259.061 300.586 262.193 301.637C263.314 302.016 264.123 302.3 265.047 303.079C267.125 304.832 267.356 307.151 266.468 309.552C266.448 309.605 266.427 309.657 266.405 309.709L266.281 309.655C266.273 309.578 266.246 309.357 266.243 309.289C266.129 307.309 263.895 307.291 263.275 306.634C263.333 306.498 263.329 306.432 263.339 306.287C263.137 306.042 249.056 301.423 247.693 300.96C247.594 301.686 247.015 303.262 246.753 304.031L245.336 308.232C244.515 310.606 243.742 312.993 242.911 315.362C242.77 315.764 242.657 315.83 242.309 316.049C242.522 316.144 242.824 316.294 243.043 316.345C243.263 317.168 244.754 318.58 245.535 318.956C247.899 320.094 250.791 321.239 253.193 322.266C255.309 323.17 258.868 323.721 260.945 322.826C261.031 322.79 261.566 322.778 261.572 322.772C262.249 322.096 262.644 320.504 263.043 319.686L263.122 319.798C262.451 322.085 261.395 324.294 258.811 324.988C258.083 325.133 257.197 325.318 256.461 325.15C256.256 325.03 256.243 324.958 256.126 324.743L256.044 324.755C255.601 324.801 255.185 324.793 254.742 324.793L246.903 322.146C245.011 321.5 241.725 320.635 240.278 319.506C236.498 316.263 238.997 312.481 239.949 308.539L240.092 308.193C240.235 307.817 240.342 307.256 240.432 306.852Z" fill="url(#paint3_linear_762_10318)"/>
<path d="M242.309 316.052C242.204 315.989 242.139 315.977 242.117 315.849C242.083 315.64 246.835 301.365 247.197 300.93C247.438 300.851 247.397 300.889 247.693 300.962C247.594 301.688 247.014 303.264 246.753 304.033L245.336 308.235C244.515 310.608 243.741 312.995 242.911 315.365C242.77 315.766 242.656 315.832 242.309 316.052Z" fill="#EA4344"/>
<path d="M240.277 319.507C240.49 319.435 240.584 319.349 240.803 319.453C243.447 320.693 246.457 321.527 249.232 322.481C250.761 323.012 252.295 323.533 253.832 324.042C254.441 324.243 255.448 324.606 256.044 324.755C255.601 324.802 255.185 324.794 254.741 324.793L246.903 322.146C245.01 321.501 241.725 320.635 240.277 319.507Z" fill="#B08C67"/>
<path d="M256.123 324.744C256.866 324.771 258.125 324.803 258.808 324.99C258.079 325.134 257.194 325.32 256.458 325.151C256.253 325.031 256.24 324.959 256.123 324.744Z" fill="#B08C67"/>
<path d="M263.275 306.636C263.895 307.293 266.129 307.311 266.243 309.291C266.247 309.359 266.273 309.58 266.281 309.657L266.405 309.711C266.297 310.33 263.34 319.442 263.123 319.8L263.043 319.687C262.645 320.505 262.249 322.098 261.572 322.774C261.567 322.779 261.031 322.792 260.945 322.828C258.868 323.722 255.31 323.172 253.194 322.267C250.792 321.241 247.9 320.096 245.535 318.958C244.754 318.582 243.264 317.17 243.043 316.347C243.454 316.485 244.15 316.739 244.551 316.844L245.244 317.056C246.408 317.378 247.714 317.862 248.876 318.257C250.793 318.91 252.719 319.537 254.654 320.138C255.375 320.359 257.719 321.267 258.292 320.893C258.515 320.022 259.434 317.713 259.774 316.741L263.088 307.114L263.275 306.636Z" fill="#B08C67"/>
<path d="M263.087 307.114C263.181 307.462 263.582 307.614 263.626 307.863L263.318 307.758C263.146 308.014 263.533 308.499 263.482 308.87C263.257 310.5 262.388 311.822 261.736 313.303C261.393 314.08 261.183 314.968 260.867 315.761C260.227 317.246 259.605 318.769 258.753 320.151C258.632 320.346 258.545 320.675 258.422 320.902L258.291 320.893C258.514 320.021 259.433 317.712 259.773 316.741L263.087 307.114Z" fill="#B08D67"/>
<path d="M244.549 316.843L245.243 317.055C246.406 317.378 247.713 317.861 248.875 318.256C250.792 318.909 252.718 319.536 254.653 320.138C255.373 320.358 257.718 321.266 258.29 320.892L258.421 320.902C258.352 321.015 258.321 321.024 258.216 321.111C257.34 321.409 253.604 320.365 252.622 319.946C252.298 319.808 250.847 319.296 250.583 319.276C250.368 319.377 250.341 319.384 250.108 319.334C250.323 319.495 250.383 319.494 250.42 319.692C249.71 319.778 245.751 318.007 245.014 317.393C244.882 317.283 244.656 316.992 244.549 316.843Z" fill="#B08D67"/>
<path d="M249.288 304.011C252.689 304.988 256.059 306.299 259.463 307.287C259.702 307.357 260.045 307.534 260.252 307.677C259.999 307.774 252.32 305.223 251.429 304.915C251.144 305.003 251.228 304.934 251.074 305.224L251.015 305.335C251.519 305.893 257.606 312.161 257.939 312.332C258.121 312.276 258.444 312.37 258.561 312.52C258.459 313.219 256.974 317.468 256.646 318.256C254.906 317.623 253.111 316.941 251.353 316.382L248.087 315.338C247.559 315.174 246.3 314.822 245.86 314.585C245.805 314.555 245.717 314.502 245.729 314.465C246.426 312.288 248.702 305.738 249.288 304.011Z" fill="url(#paint4_linear_762_10318)"/>
<path d="M247.233 314.631L249.365 308.269C249.618 307.515 250.222 305.572 250.543 304.938C250.764 305 250.833 305.143 251.011 305.335C251.515 305.892 257.602 312.161 257.934 312.331C257.712 312.536 257.241 312.616 256.937 312.67C253.726 313.239 250.446 314.136 247.233 314.631Z" fill="#F2F0EB"/>
<path d="M249.288 304.011C252.689 304.988 256.059 306.299 259.463 307.287C259.702 307.357 260.045 307.534 260.252 307.677C259.999 307.774 252.32 305.223 251.429 304.915C250.859 304.753 249.913 304.414 249.42 304.302C248.576 307.105 246.871 311.536 245.975 314.489C245.937 314.521 245.899 314.553 245.86 314.585C245.805 314.555 245.717 314.502 245.729 314.465C246.426 312.288 248.702 305.738 249.288 304.011Z" fill="#420305"/>
<path d="M135.472 318.558C136.441 318.422 137.528 318.613 138.245 318.527C139.285 318.548 140.941 318.608 141.949 318.55C142.766 318.619 143.473 318.663 144.265 318.888C147.112 319.695 148.292 322.209 148.288 324.884C148.505 327.673 148.093 330.988 148.255 333.694C148.84 343.44 143.218 342.042 135.914 342.413C134.995 342.438 134.048 342.477 133.132 342.485C132.918 342.418 131.797 342.418 131.36 342.355C129.721 342.449 128.103 342.121 126.875 341.009C125.385 339.688 125.15 337.635 125.104 335.78C125.021 332.381 125.007 328.998 124.914 325.598C124.86 323.656 124.992 321.756 126.452 320.239C128.378 318.24 131.407 318.626 133.99 318.558C134.255 318.504 135.194 318.523 135.472 318.558Z" fill="url(#paint5_linear_762_10318)"/>
<path d="M131.356 342.353C131.685 342.309 132.762 342.289 132.855 342.233L132.827 342.155L132.594 342.182L132.562 342.095C132.823 341.889 137.433 341.53 138.053 341.52C142.126 341.455 146.443 341.907 147.482 336.972C147.693 335.97 147.594 334.509 147.602 333.444C147.614 331.362 147.641 329.279 147.684 327.197C147.691 326.823 147.669 325.287 147.747 325.058C147.984 326.394 147.48 331.428 147.76 332.186C148.525 331.422 147.746 325.782 148.284 324.881C148.501 327.67 148.089 330.986 148.251 333.692C148.836 343.437 143.214 342.039 135.909 342.411C134.991 342.435 134.044 342.475 133.128 342.482C132.914 342.416 131.793 342.416 131.356 342.353Z" fill="url(#paint6_linear_762_10318)"/>
<path d="M134.054 324.495C134.813 324.669 135.388 324.988 136.07 325.346C136.537 325.31 140.194 327.516 140.846 327.886L140.848 327.954L140.55 327.948C141.151 328.223 141.383 328.638 141.873 329.031C142.156 329.258 142.732 329.37 143.012 329.639C143.446 330.112 143.635 330.324 143.506 330.937C145.055 332.759 145.282 335.945 143.174 337.47C141.955 338.351 140.445 339.056 138.879 338.9C137.552 338.757 136.249 337.742 135.188 337.005C134.823 336.775 133.263 335.955 133.118 335.776L133.154 335.69C132.756 335.364 131.925 335.034 131.766 334.39C131.407 332.859 131.499 331.285 131.552 329.733C131.644 327.065 130.827 325.36 134.054 324.495Z" fill="#F2F0EB"/>
<path d="M141.636 329.416L141.799 329.359C141.871 329.45 141.944 329.54 142.018 329.629C142.319 329.987 143.09 330.523 143.508 330.935C145.058 332.756 145.284 335.943 143.176 337.468C141.958 338.349 140.448 339.054 138.882 338.898C137.554 338.755 136.251 337.739 135.19 337.002C134.826 336.773 133.266 335.953 133.12 335.774L133.156 335.688L133.636 335.835C134.064 335.541 134.282 335.449 134.806 335.37C135.863 334.876 137.442 333.656 138.542 332.957C138.673 332.782 140.09 331.835 140.374 331.631C140.603 331.423 140.8 331.216 141.014 330.994L141.04 331.25C141.084 331.268 141.198 331.318 141.246 331.329C141.354 331.194 141.513 330.862 141.599 330.697C141.744 330.213 141.698 329.907 141.636 329.416Z" fill="url(#paint7_linear_762_10318)"/>
<path d="M141.599 330.698L141.82 331.077L141.907 331.046L141.814 331.081L141.959 330.952C142.16 331.394 142.03 332.034 141.843 332.46C141.303 333.688 139.893 333.9 138.85 334.53C138.13 334.964 137.549 335.737 136.741 336.08C136.275 336.288 135.727 336.016 135.418 336.263C135.372 336.492 135.376 336.524 135.39 336.759L135.19 337.004C134.826 336.774 133.266 335.955 133.12 335.776L133.156 335.69L133.636 335.837C134.064 335.543 134.282 335.45 134.806 335.372C135.863 334.877 137.442 333.657 138.542 332.959C138.673 332.783 140.09 331.837 140.374 331.633C140.603 331.424 140.8 331.217 141.014 330.996L141.04 331.252C141.084 331.269 141.198 331.319 141.246 331.33C141.354 331.195 141.513 330.864 141.599 330.698Z" fill="#B48D4B"/>
<path d="M134.802 335.372C135.859 334.877 137.438 333.657 138.538 332.958C138.446 333.515 138.262 333.063 137.998 333.838C137.554 334.239 135.955 335.355 135.402 335.609C135.13 335.529 135.051 335.503 134.802 335.372Z" fill="#DFD8D3"/>
<path d="M140.375 331.632L140.474 331.74C140.379 331.882 140.246 332.053 140.249 332.223C139.914 332.55 138.449 333.564 138.003 333.837C138.267 333.063 138.451 333.515 138.542 332.958C138.674 332.783 140.091 331.837 140.375 331.632Z" fill="#DFD8D3"/>
<path d="M133.637 335.837C134.065 335.543 134.282 335.45 134.807 335.371C135.056 335.503 135.134 335.528 135.407 335.608C134.729 335.912 134.378 336.002 133.637 335.837Z" fill="#DFD8D3"/>
<path d="M141.012 330.997L141.038 331.253C141.082 331.27 141.196 331.32 141.244 331.331C140.997 331.694 140.613 331.98 140.246 332.225C140.243 332.055 140.376 331.884 140.471 331.741L140.372 331.634C140.6 331.425 140.798 331.218 141.012 330.997Z" fill="#DFD8D3"/>
<path d="M136.069 325.344C136.535 325.308 140.193 327.514 140.845 327.884L140.847 327.952L140.549 327.946C141.149 328.221 141.382 328.636 141.872 329.029C142.155 329.256 142.731 329.368 143.011 329.637C143.445 330.11 143.633 330.322 143.504 330.935C143.086 330.524 142.315 329.987 142.014 329.629C141.94 329.541 141.867 329.451 141.795 329.36L141.632 329.416L141.547 329.455C141.025 328.11 137.473 326.233 136.069 325.344Z" fill="#E6CFA0"/>
<path d="M141.545 329.456L141.63 329.417C141.692 329.908 141.738 330.215 141.593 330.698C141.507 330.864 141.349 331.195 141.241 331.33C141.193 331.319 141.078 331.269 141.035 331.252L141.008 330.996C141.237 330.502 141.596 329.951 141.545 329.456Z" fill="#DFD9D2"/>
<path d="M133.99 318.557C133.992 318.448 133.998 318.339 134.007 318.23C134.442 312.934 137.917 307.797 143.778 307.275C152.505 306.496 161.368 306.518 170.13 306.317C185.322 306.042 200.518 306.067 215.709 306.392L231.362 306.676L237.142 306.785C238.202 306.803 239.388 306.774 240.433 306.853C240.343 307.257 240.236 307.818 240.093 308.194C239.851 308.015 237.104 308.054 236.634 308.074C235.823 307.995 234.595 308.007 233.755 307.992L228.406 307.894C225.001 307.823 221.654 307.827 218.256 307.782C215.479 307.721 212.7 307.677 209.922 307.651C208.826 307.53 206.26 307.582 205.06 307.565C201.074 307.516 197.088 307.501 193.102 307.519L181.651 307.529C179.862 307.533 176.504 307.486 174.856 307.654C167.431 307.707 160.006 307.843 152.585 308.063C150.76 308.124 148.935 308.206 147.111 308.307C145.791 308.38 144.32 308.425 143.043 308.728C141.314 309.13 139.735 309.99 138.486 311.211C136.935 312.707 136.006 314.689 135.627 316.756C135.542 317.216 135.374 318.035 135.463 318.489L135.472 318.557C135.193 318.522 134.255 318.503 133.99 318.557Z" fill="#E3C3A1"/>
<path d="M254.742 324.794C255.186 324.794 255.602 324.803 256.044 324.756L256.127 324.744C256.243 324.959 256.257 325.031 256.461 325.151C256.316 325.308 256.48 333.096 256.308 334.045C256.234 334.458 256.17 336.633 256.051 337.306C254.57 345.683 249.461 348.575 241.076 348.905C230.943 349.304 220.893 349.331 210.752 349.28C209.828 349.275 204.5 349.446 204.045 349.267C203.852 349.013 203.809 349.183 203.76 348.907C204.328 347.943 209.238 348.469 209.726 348.16L218.418 348.039C219.874 348.017 221.754 348.04 223.179 347.94C224.2 347.947 225.222 347.939 226.244 347.914C226.598 347.96 228.618 347.907 229.123 347.9C230.733 347.878 232.343 347.837 233.953 347.775C234.778 347.748 235.936 347.742 236.736 347.65C237.089 347.672 238.376 347.597 238.767 347.576C241.176 347.448 244.013 347.321 246.343 346.736C246.545 346.7 246.668 346.66 246.865 346.599C247.101 346.54 247.168 346.53 247.411 346.518C251.355 345.076 253.449 341.967 254.314 338.091C254.517 336.998 254.655 336.157 254.669 335.051C254.614 333.887 254.701 332.169 254.716 330.96C254.742 328.912 254.697 326.832 254.742 324.794Z" fill="url(#paint8_linear_762_10318)"/>
<path d="M254.668 335.051C254.751 334.937 254.75 334.911 254.752 334.772C255.025 335.188 254.772 337.298 254.631 338.056C254.043 341.229 252.088 344.517 249.056 346.074C248.58 346.319 247.937 346.703 247.459 346.692L247.41 346.519C251.354 345.076 253.448 341.967 254.312 338.091C254.516 336.998 254.654 336.158 254.668 335.051Z" fill="#AF8C74"/>
<path d="M133.126 342.483C134.042 342.475 134.989 342.436 135.908 342.411L135.785 342.536C135.854 342.726 136.163 343.007 136.32 343.165C137.355 344.221 138.586 345.081 139.949 345.7C142.606 346.923 145.741 346.999 148.64 347.2C151.759 347.432 154.885 347.589 158.013 347.668L176.229 348.145C178.602 348.186 180.982 348.108 183.354 348.197C183.596 348.206 183.848 348.201 184.087 348.238C183.733 348.743 183.467 349.099 183.068 349.572C182.693 349.486 179.857 349.506 179.261 349.505C177.128 349.491 174.994 349.464 172.861 349.426L157.431 349.045C152.785 348.904 147.867 348.746 143.255 348.201C138.977 347.696 135.727 345.75 133.126 342.483Z" fill="url(#paint9_linear_762_10318)"/>
<path d="M135.458 318.491C135.368 318.036 135.537 317.217 135.621 316.758C136 314.691 136.93 312.708 138.481 311.213C139.73 309.991 141.308 309.131 143.038 308.729C144.315 308.427 145.786 308.382 147.106 308.308C148.93 308.207 150.754 308.126 152.58 308.064C160.001 307.844 167.425 307.708 174.85 307.655C175.239 307.673 175.531 307.694 175.916 307.744L175.928 307.777C175.548 307.784 172.977 307.794 172.865 307.859C173.498 308.092 175.292 307.819 175.964 307.929C174.02 308.078 171.719 308.01 169.735 308.054C164.478 308.172 159.262 308.165 154.001 308.354L150.213 308.495C149.672 308.516 148.466 308.549 147.985 308.643C146.473 308.686 145.367 308.806 143.879 308.998C139.149 310.077 136.6 312.986 135.909 317.639C135.843 318.085 135.942 318.446 135.458 318.491Z" fill="#463A39"/>
<path d="M135.464 318.49C135.948 318.445 135.848 318.084 135.915 317.637C136.605 312.985 139.154 310.075 143.885 308.997C143.864 309.342 143.829 309.567 143.508 309.789C142.674 310.364 142.387 310.424 141.618 311.095C141.813 310.837 141.988 310.617 142.198 310.37L142.163 310.331C141.693 310.563 141.566 311.146 140.857 311.416C140.58 311.522 139.653 312.679 139.431 313.009C138.012 314.259 137.421 316.64 137.311 318.437C137.515 318.443 138.101 318.438 138.245 318.526C137.527 318.613 136.44 318.421 135.472 318.557L135.464 318.49Z" fill="#473A39"/>
<path d="M209.922 307.652C212.7 307.678 215.478 307.722 218.256 307.784C221.654 307.829 225.001 307.825 228.405 307.896L233.755 307.994C234.595 308.009 235.823 307.997 236.634 308.076C237.104 308.056 239.851 308.017 240.093 308.196L239.95 308.543C239.39 308.305 235.472 308.385 234.464 308.308C228.313 308.261 222.162 308.175 216.013 308.052C216.189 307.957 218.727 308.073 219.173 307.996L219.175 307.896C218.131 307.774 216.813 307.939 215.734 307.892C212.731 307.761 209.748 307.822 206.74 307.72C207.773 307.642 208.864 307.729 209.922 307.652Z" fill="#433734"/>
<path d="M143.88 308.997C145.368 308.805 146.474 308.685 147.986 308.641C148.16 308.647 148.466 308.619 148.557 308.71C147.965 308.878 147.217 308.617 146.49 308.988C145.798 309.34 144.453 310.468 143.703 310.532C142.573 310.215 140.36 312.464 139.427 313.009C139.648 312.679 140.575 311.521 140.853 311.416C141.561 311.146 141.688 310.563 142.158 310.331L142.193 310.37C141.983 310.616 141.809 310.836 141.613 311.094C142.382 310.424 142.67 310.363 143.503 309.788C143.825 309.567 143.859 309.342 143.88 308.997Z" fill="#473A39"/>
<path d="M139.431 313.01C140.364 312.466 142.577 310.217 143.707 310.533C142.542 311.192 142.058 311.566 141.107 312.488C140.396 313.177 139.294 313.709 138.635 314.472C138.071 314.99 137.312 317.767 137.6 318.277C138.265 318.64 141.129 318.189 141.948 318.55C140.94 318.608 139.284 318.548 138.245 318.527C138.1 318.439 137.515 318.444 137.31 318.438C137.42 316.641 138.011 314.26 139.431 313.01Z" fill="#473A39"/>
<path d="M246.861 346.6C248.434 345.697 249.779 345.147 251.066 343.806C252.594 342.214 253.221 340.38 253.988 338.394C254.023 338.303 254.232 338.147 254.31 338.091C253.445 341.968 251.352 345.076 247.407 346.519C247.164 346.531 247.097 346.541 246.861 346.6Z" fill="#312622"/>
<path d="M236.733 347.653C236.377 347.614 235.746 347.618 235.37 347.61C235.723 347.604 235.873 347.595 236.221 347.538L236.241 347.468C236.007 347.43 235.887 347.434 235.653 347.433C235.946 347.268 243.939 347.089 244.869 346.643C244.685 346.731 247.321 346.016 247.2 346.035C246.994 346.317 245.393 346.642 244.992 346.766L244.988 346.81C245.691 346.736 246.231 346.504 246.923 346.397C246.725 346.504 246.53 346.617 246.339 346.737C244.01 347.323 241.173 347.45 238.764 347.578C238.373 347.599 237.086 347.674 236.733 347.653Z" fill="#302723"/>
<path d="M223.178 347.939C221.903 347.853 220.569 347.97 219.297 347.891C219.607 347.753 220.841 347.932 220.973 347.737C220.779 347.723 219.48 347.738 219.454 347.721L219.626 347.562C219.968 347.58 220.343 347.647 220.669 347.65C222.883 347.674 225.152 347.442 227.349 347.751C227.635 347.792 227.967 347.708 228.236 347.816C227.776 347.884 226.474 347.77 226.242 347.914C225.221 347.939 224.199 347.947 223.178 347.939Z" fill="#332623"/>
<path d="M202.343 348.46C202.907 348.044 206.958 348.265 207.846 348.167C208.168 348.131 209.345 348.15 209.723 348.16C209.235 348.468 204.325 347.942 203.757 348.907C203.806 349.184 203.849 349.013 204.042 349.268L203.677 349.31C203.222 349.073 202.732 348.787 202.343 348.46Z" fill="#936C4C"/>
<path d="M190.997 325.054C191.148 324.699 191.297 324.331 191.646 324.112C192.025 323.874 192.633 323.837 193.065 323.954C193.363 324.035 193.615 324.218 193.746 324.492C193.939 324.892 193.948 332.369 193.77 332.789C193.681 332.998 193.458 333.167 193.249 333.254C192.863 333.414 192.145 333.467 191.761 333.289C191.369 333.106 191.2 332.539 191.064 332.173C189.817 333.448 188.448 333.753 186.719 333.291C182.465 331.597 183.006 324.649 187.656 323.966C189 323.768 189.983 324.279 190.997 325.054Z" fill="#F2F0EB"/>
<path d="M186.718 333.293C187.572 332.882 188.008 333.23 188.949 332.926C189.686 332.688 190.297 332.175 191.063 332.174C189.816 333.451 188.447 333.756 186.718 333.293Z" fill="#F2F1EA"/>
<path d="M188.437 326.183C191.529 325.911 192.001 330.438 189.134 331.186C186.355 331.42 185.898 328.093 187.604 326.608C187.815 326.424 188.174 326.29 188.437 326.183Z" fill="url(#paint10_linear_762_10318)"/>
<path d="M212.009 332.828C207.867 329.842 210.657 322.324 216.033 324.262C216.386 324.389 216.7 324.763 217.152 324.883C217.425 324.722 217.317 324.625 217.476 324.388C217.982 323.634 219.684 323.719 219.94 324.654C220.128 325.716 220.003 327.595 220.019 328.75C220.038 330.088 220.16 331.71 219.866 332.987C219.729 333.424 218.553 333.41 218.055 333.315C217.353 333.031 217.503 332.532 217.202 332.26L217.062 332.36C215.77 333.734 213.561 333.84 212.009 332.828Z" fill="#F2F0EB"/>
<path d="M219.941 324.653C220.129 325.715 220.004 327.595 220.02 328.749C220.039 330.087 220.161 331.709 219.866 332.986C219.73 333.423 218.554 333.41 218.056 333.314C218.291 333.293 218.589 333.287 218.829 333.275C219.042 333.051 219.28 332.873 219.522 332.679C219.777 331.447 219.602 329.657 219.685 328.366C219.765 327.121 219.874 325.901 219.941 324.653Z" fill="#F2F1EA"/>
<path d="M212.007 332.829C212.084 332.776 212.247 332.67 212.344 332.694C213.355 332.946 214.348 333.172 215.391 332.939C215.83 332.841 216.106 332.557 216.491 332.351C216.723 332.226 216.83 332.291 217.061 332.36C215.769 333.736 213.559 333.841 212.007 332.829Z" fill="#F2F1EA"/>
<path d="M212.944 327.988C212.874 327.81 212.742 327.846 212.719 327.642C212.577 326.381 215.08 325.307 215.985 326.012C216.009 326.227 216.031 326.296 216.147 326.482C217.305 327.475 217.55 329.392 216.524 330.514C216.142 330.927 215.603 331.172 215.03 331.193C214.498 331.219 213.977 331.036 213.587 330.686C212.792 329.97 212.742 328.95 212.944 327.988Z" fill="url(#paint11_linear_762_10318)"/>
<path d="M212.944 327.988C212.874 327.81 212.742 327.846 212.719 327.642C212.577 326.381 215.08 325.307 215.985 326.012C216.009 326.227 216.031 326.296 216.147 326.482C214.65 325.79 213.428 326.536 212.944 327.988Z" fill="#F2F1EA"/>
<path d="M202.347 333.012C201.361 332.5 200.592 331.67 200.174 330.668C199.195 328.319 200.148 324.973 202.753 324.152C205.409 323.315 208.052 324.142 209.051 326.722C209.24 327.591 209.622 329.295 208.261 329.51C207.159 329.683 203.413 329.279 202.572 329.642C204.303 333.282 207.721 329.246 208.84 331.262C209.468 333.79 203.976 333.828 202.347 333.012Z" fill="#F2F0EB"/>
<path d="M209.054 326.722C209.243 327.59 209.625 329.295 208.264 329.509C207.162 329.683 203.416 329.278 202.575 329.642C202.457 329.444 202.443 329.322 202.535 329.126C203.388 328.78 207.648 329.189 208.648 328.941C208.705 328.429 208.667 327.81 208.807 327.31C208.834 327.215 208.992 326.897 209.054 326.722Z" fill="#F2F1EA"/>
<path d="M208.842 331.261C209.47 333.789 203.978 333.827 202.349 333.011C202.421 332.984 202.494 332.96 202.565 332.933C203.322 332.642 205.833 333.597 207.688 332.56C208.121 332.319 208.715 331.725 208.842 331.261Z" fill="#F2F1EA"/>
<path d="M204.808 325.496C205.151 325.639 205.607 325.755 205.844 325.963C205.924 326.159 205.921 326.177 205.931 326.391C206.205 326.681 206.496 326.976 206.555 327.378L206.489 327.541C205.994 327.64 203.375 327.692 202.809 327.63L202.726 327.514L202.789 327.234C202.715 326.968 202.545 327.05 202.705 326.655C202.895 326.184 203.435 325.953 203.876 325.758C204.261 325.601 204.393 325.574 204.808 325.496Z" fill="#3F332E"/>
<path d="M204.808 325.496C205.151 325.639 205.607 325.755 205.844 325.963C205.924 326.159 205.921 326.177 205.931 326.391C205.562 326.165 205.364 326.115 204.943 325.982C204.002 326.103 203.574 326.237 202.971 326.997C202.909 327.075 202.849 327.154 202.789 327.234C202.715 326.968 202.545 327.05 202.705 326.655C202.895 326.184 203.435 325.953 203.876 325.758C204.261 325.601 204.393 325.574 204.808 325.496Z" fill="#F2F1EA"/>
<path d="M204.812 325.496C205.156 325.639 205.611 325.756 205.849 325.964C205.928 326.16 205.925 326.177 205.936 326.391C205.566 326.166 205.368 326.116 204.948 325.982C204.426 325.884 204.408 325.968 203.88 325.758C204.265 325.601 204.397 325.574 204.812 325.496Z" fill="#F2F1EA"/>
<path d="M231.631 325.1C233.063 323.537 235.578 323.476 236.947 324.919C237.983 326.011 237.843 331.029 237.703 332.542C237.27 333.539 236.253 333.54 235.359 333.133C235.206 333.003 234.965 332.779 234.912 332.591C234.495 331.122 235.204 328.135 234.46 326.853C234.431 326.823 234.402 326.793 234.372 326.764C233.966 326.371 233.674 326.33 233.143 326.328C230.602 327.021 232.009 330.324 231.575 332.28L231.567 332.539C231.084 333.533 230.075 333.589 229.178 333.093C229.073 332.965 228.952 332.829 228.872 332.684C228.67 332.319 228.686 325.205 228.843 324.702C228.932 324.418 229.179 324.206 229.453 324.089C229.864 323.915 230.468 323.882 230.882 324.06C231.331 324.252 231.48 324.688 231.631 325.1Z" fill="#F2F0EB"/>
<path d="M232.592 326.049C232.754 326.145 232.974 326.31 233.144 326.33C230.604 327.022 232.011 330.326 231.577 332.281C231.548 332.01 231.517 330.901 231.552 330.618C231.679 329.589 231.286 327.49 231.585 326.654C231.943 326.311 232.133 326.22 232.592 326.049Z" fill="#F2F1EA"/>
<path d="M229.183 333.093C229.573 332.788 230.138 332.997 230.719 332.796C231.059 332.679 231.224 332.566 231.571 332.539C231.088 333.534 230.08 333.59 229.183 333.093Z" fill="#F2F1EA"/>
<path d="M235.363 333.133C235.728 332.727 236.382 333.06 236.909 332.803C237.215 332.654 237.36 332.582 237.707 332.542C237.274 333.539 236.257 333.541 235.363 333.133Z" fill="#F2F1EA"/>
<path d="M232.591 326.048C233.254 325.597 234.656 325.768 234.46 326.854C234.432 326.824 234.403 326.794 234.373 326.765C233.966 326.371 233.674 326.33 233.143 326.329C232.973 326.309 232.753 326.144 232.591 326.048Z" fill="#F2F1EA"/>
<path d="M158.593 333.077C157.997 332.521 158.082 331.579 158.109 330.825C158.179 328.889 158.017 326.942 158.131 325.012C158.168 324.38 158.83 323.673 159.529 323.876C160.116 324.041 160.408 324.417 160.707 324.912C160.877 324.912 161.191 324.534 161.39 324.43C163.467 323.214 166.637 324.263 166.838 326.777C166.947 328.139 167.13 331.272 166.831 332.583C166.469 333.295 165.661 333.377 164.949 333.157C162.864 332.129 165.73 327.222 162.938 326.282C161.931 326.352 161.586 326.591 161.084 327.434C160.998 327.742 160.947 327.887 160.937 328.208C160.927 329.335 161.209 332.156 160.617 332.994C159.959 333.348 159.266 333.475 158.593 333.077Z" fill="#F2F0EB"/>
<path d="M160.458 332.419C160.487 331.177 160.356 327.94 160.775 327.029C161.064 327.242 160.992 327.133 161.086 327.433C161.001 327.741 160.95 327.886 160.939 328.207C160.93 329.334 161.211 332.155 160.619 332.993L160.3 332.722C160.388 332.621 160.409 332.541 160.458 332.419Z" fill="#F2F1EA"/>
<path d="M160.458 332.419C160.867 331.632 160.486 329.173 160.939 328.207C160.93 329.334 161.211 332.155 160.619 332.993L160.3 332.722C160.388 332.621 160.409 332.541 160.458 332.419Z" fill="#F2F1EA"/>
<path d="M160.779 327.03C161.333 326.299 161.964 325.852 162.944 326.281C161.937 326.351 161.592 326.59 161.089 327.434C160.995 327.134 161.067 327.243 160.779 327.03Z" fill="#F2F1EA"/>
<path d="M160.304 332.721L160.623 332.992C159.965 333.347 159.272 333.474 158.599 333.075C159.197 332.729 159.538 333.004 160.304 332.721Z" fill="#F2F1EA"/>
<path d="M164.95 333.157C164.98 333.126 165.111 332.999 165.137 332.992C165.683 332.859 166.301 332.463 166.832 332.582C166.47 333.295 165.662 333.377 164.95 333.157Z" fill="#F2F1EA"/>
<path d="M170.48 333.304C169.482 332.949 168.517 332.418 168.488 331.246C168.483 331.049 168.575 330.735 168.748 330.606C170.023 329.654 170.754 331.269 171.976 331.288C172.548 331.302 173.332 331.223 173.345 330.494C173.08 329.969 171.894 329.697 171.323 329.583C169.364 329.194 167.804 327.757 168.749 325.728C169.631 323.834 172.53 323.488 174.326 324.292C175.196 324.68 176.377 325.938 175.011 326.569C173.744 327.155 172.259 324.985 171.375 326.504C171.352 328.114 176.623 326.835 176.12 331.188C175.357 333.656 172.651 333.683 170.48 333.304Z" fill="#F2F0EB"/>
<path d="M170.475 333.303C170.541 333.245 170.736 333.08 170.807 333.074C171.89 332.974 173.12 333.226 174.141 332.734C174.795 332.42 175.301 331.724 175.821 331.236C175.936 331.217 176.035 331.201 176.116 331.188C175.352 333.656 172.647 333.682 170.475 333.303Z" fill="#F2F1EA"/>
<path d="M178.261 323.857C178.284 322.472 177.722 319.736 179.916 319.98C180.336 320.027 180.604 320.228 180.872 320.511C181.09 321.16 181.076 323.242 180.988 323.938C181.874 323.852 182.469 323.797 183.14 324.442C183.576 326.271 182.46 326.205 181 326.158C180.986 327.48 180.941 329.031 181.051 330.34C181.514 331.838 182.707 330.338 183.449 331.612C183.561 332.265 183.563 332.637 182.97 333.086C182.202 333.477 181.263 333.613 180.429 333.376C180.136 333.323 180 333.251 179.736 333.132C178.029 332.163 178.231 330.712 178.238 329.035C178.242 328.095 178.248 327.148 178.25 326.207C177.939 326.184 177.473 326.218 177.199 326.092C176.556 325.786 176.293 325.108 176.741 324.528C177.17 323.972 177.603 323.941 178.261 323.857Z" fill="#F2F0EB"/>
<path d="M183.143 324.443C183.578 326.272 182.463 326.206 181.003 326.159C180.989 327.482 180.944 329.033 181.054 330.341C180.77 330.31 180.863 330.357 180.658 330.192C180.491 329.88 180.391 326.383 180.567 326.091C181.061 325.27 182.369 326.645 183.143 324.443Z" fill="#F2F1EA"/>
<path d="M180.872 320.512C181.091 321.161 181.077 323.243 180.989 323.939C180.85 323.888 180.656 323.845 180.618 323.689C180.411 322.826 180.54 321.286 180.872 320.512Z" fill="#F2F1EA"/>
<path d="M182.577 332.843L182.972 333.086C182.204 333.478 181.265 333.614 180.43 333.376C181.141 333.334 181.219 333.172 181.861 333.032C182.108 332.978 182.334 332.912 182.577 332.843Z" fill="#F2F1EA"/>
<path d="M183.452 331.614C183.564 332.267 183.566 332.639 182.973 333.089L182.579 332.846C183.047 332.411 183.157 332.161 183.452 331.614Z" fill="#F2F1EA"/>
<path d="M179.737 333.132C179.816 333.069 179.895 333.006 179.974 332.943C180.609 332.982 181.223 333.02 181.86 333.031C181.218 333.171 181.14 333.334 180.429 333.376C180.137 333.322 180.001 333.25 179.737 333.132Z" fill="#F2F1EA"/>
<path d="M195.87 332.955C195.528 332.288 195.64 329.119 195.638 328.151L195.599 321.011C195.596 319.964 195.472 318.599 197.037 318.596C198.816 318.592 198.511 320.742 198.473 321.921C198.621 323.964 198.479 326.536 198.54 328.623C198.566 329.491 198.622 332.113 198.47 332.808C197.664 333.507 196.758 333.612 195.87 332.955Z" fill="#F2F0EB"/>
<path d="M198.475 321.921C198.623 323.964 198.481 326.536 198.542 328.623C198.568 329.491 198.624 332.113 198.472 332.808C197.666 333.507 196.76 333.612 195.872 332.955C196.686 332.594 197.487 333.228 198.123 332.468C198.193 332.628 198.163 332.64 198.288 332.705C198.504 331.89 198.255 330.858 198.287 330.017C198.369 327.918 198.469 325.833 198.431 323.731C198.421 323.198 198.406 322.517 198.466 321.995L198.475 321.921Z" fill="#F2F1EA"/>
<path d="M221.919 333.093C221.21 332.164 221.629 326.808 221.534 325.377C221.487 324.668 221.767 324.206 222.473 323.992C224.097 323.501 224.354 324.978 224.46 325.037C225.381 324.158 226.647 323.169 227.741 324.473C227.961 325.077 228.1 326.169 227.283 326.417C226.394 326.688 225.306 326.25 224.746 327.217C223.916 328.551 225.376 332.702 223.736 333.285C223.687 333.302 223.393 333.365 223.327 333.378C222.689 333.381 222.486 333.368 221.919 333.093Z" fill="#F2F0EB"/>
<path d="M227.743 324.474C227.963 325.077 228.103 326.169 227.285 326.418C226.397 326.688 225.308 326.25 224.748 327.217C223.918 328.551 225.378 332.702 223.738 333.285C223.69 333.302 223.395 333.365 223.33 333.378C223.445 333.198 223.314 333.16 223.453 332.932C225.253 332.144 222.689 326.241 225.824 326.066C226.327 326.038 226.751 326.03 227.255 326.04C227.461 325.531 227.487 325.085 227.743 324.474Z" fill="#F2F1EA"/>
<path d="M221.918 333.094C222.483 332.793 222.803 332.888 223.45 332.933C223.311 333.161 223.441 333.199 223.326 333.38C222.687 333.383 222.485 333.37 221.918 333.094Z" fill="#F2F1EA"/>
<path d="M153.85 333.128C153.598 332.944 153.323 332.695 153.305 332.369C153.187 330.178 153.277 327.959 153.264 325.763C153.262 325.412 153.323 324.429 153.651 324.215C154.53 323.642 156.084 323.892 156.107 325.146C156.149 326.827 156.103 328.519 156.133 330.202C156.146 331.044 156.17 331.856 156 332.668C155.494 333.368 154.616 333.502 153.85 333.128Z" fill="#F2F0EB"/>
<path d="M153.855 333.127L154.073 332.951C154.621 332.865 155.642 332.553 156.005 332.666C155.499 333.367 154.621 333.501 153.855 333.127Z" fill="#F2F1EA"/>
<path d="M153.701 322.023C153.099 321.653 152.824 320.943 153.025 320.282C153.227 319.621 153.857 319.168 154.571 319.171C155.286 319.174 155.912 319.631 156.108 320.294C156.291 320.913 156.058 321.576 155.523 321.96C154.989 322.345 154.263 322.37 153.701 322.023Z" fill="#F2F0EB"/>
<path d="M156.111 320.293C156.293 320.912 156.061 321.575 155.526 321.959C154.991 322.344 154.266 322.369 153.704 322.023C153.998 321.794 154.091 321.852 154.432 321.796C155.397 321.635 155.729 321.078 156.111 320.293Z" fill="#E3C3A1"/>
<path d="M221.081 344.702L221.224 344.83C221.236 345.378 220.914 346.703 220.647 347.191L220.52 347.044C220.651 346.491 220.933 345.193 221.081 344.702Z" fill="#332623"/>
<g filter="url(#filter0_d_762_10318)">
<rect x="166" y="185" width="56" height="56" rx="18" fill="white" shape-rendering="crispEdges"/>
<rect x="166.5" y="185.5" width="55" height="55" rx="17.5" stroke="#FECE99" shape-rendering="crispEdges"/>
<circle cx="194" cy="213" r="14" fill="url(#paint12_linear_762_10318)"/>
<path d="M200.987 207.209C201.111 206.403 200.345 205.768 199.629 206.082L185.365 212.345C184.851 212.57 184.889 213.348 185.421 213.518L188.363 214.455C188.925 214.633 189.533 214.541 190.023 214.202L196.655 209.62C196.855 209.482 197.073 209.766 196.902 209.943L192.128 214.865C191.665 215.342 191.757 216.151 192.314 216.5L197.659 219.852C198.258 220.228 199.03 219.851 199.142 219.126L200.987 207.209Z" fill="white"/>
</g>
<g filter="url(#filter1_d_762_10318)">
<rect x="18" y="174" width="56" height="56" rx="18" fill="white" shape-rendering="crispEdges"/>
<rect x="18.5" y="174.5" width="55" height="55" rx="17.5" stroke="#FECE99" shape-rendering="crispEdges"/>
<path d="M32 197.956C32 194.471 32 192.728 32.6782 191.397C33.2747 190.227 34.2266 189.275 35.3974 188.678C36.7284 188 38.4708 188 41.9556 188H50.0444C53.5292 188 55.2716 188 56.6026 188.678C57.7734 189.275 58.7253 190.227 59.3218 191.397C60 192.728 60 194.471 60 197.956V206.044C60 209.529 60 211.272 59.3218 212.603C58.7253 213.773 57.7734 214.725 56.6026 215.322C55.2716 216 53.5292 216 50.0444 216H41.9556C38.4708 216 36.7284 216 35.3974 215.322C34.2266 214.725 33.2747 213.773 32.6782 212.603C32 211.272 32 209.529 32 206.044V197.956Z" fill="white"/>
<path d="M52.0515 194.523L46.0644 199.195L39.9404 194.523V194.524L39.9478 194.531V201.073L45.9954 205.847L52.0515 201.258V194.523Z" fill="#EA4335"/>
<path d="M53.6236 193.386L52.0513 194.523V201.258L56.9988 197.459V195.171C56.9988 195.171 56.3982 191.903 53.6236 193.386Z" fill="#FBBC05"/>
<path d="M52.0513 201.258V209.992H55.8433C55.8433 209.992 56.9223 209.881 57 208.651V197.459L52.0513 201.258Z" fill="#34A853"/>
<path d="M39.9481 210V201.073L39.9404 201.067L39.9481 210Z" fill="#C5221F"/>
<path d="M39.9401 194.524L38.3765 193.394C35.6018 191.91 35 195.177 35 195.177V197.465L39.9401 201.067V194.524Z" fill="#C5221F"/>
<path d="M39.9404 194.524V201.067L39.9481 201.073V194.531L39.9404 194.524Z" fill="#C5221F"/>
<path d="M35 197.467V208.659C35.0765 209.89 36.1567 210 36.1567 210H39.9488L39.9401 201.067L35 197.467Z" fill="#4285F4"/>
</g>
<g filter="url(#filter2_d_762_10318)">
<rect x="172" y="53" width="56" height="56" rx="18" fill="white" shape-rendering="crispEdges"/>
<rect x="172.5" y="53.5" width="55" height="55" rx="17.5" stroke="#FECE99" shape-rendering="crispEdges"/>
<path d="M186 76.9556C186 73.4708 186 71.7284 186.678 70.3974C187.275 69.2266 188.227 68.2747 189.397 67.6782C190.728 67 192.471 67 195.956 67H204.044C207.529 67 209.272 67 210.603 67.6782C211.773 68.2747 212.725 69.2266 213.322 70.3974C214 71.7284 214 73.4708 214 76.9556V85.0444C214 88.5292 214 90.2716 213.322 91.6026C212.725 92.7734 211.773 93.7253 210.603 94.3218C209.272 95 207.529 95 204.044 95H195.956C192.471 95 190.728 95 189.397 94.3218C188.227 93.7253 187.275 92.7734 186.678 91.6026C186 90.2716 186 88.5292 186 85.0444V76.9556Z" fill="white"/>
<path d="M208.493 71H205.241V75.7112H209.999V72.3285C210 72.3285 209.764 71.1285 208.493 71Z" fill="#1967D2"/>
<path d="M205.243 90.978V90.9895V90.9998L210 86.2886H209.958L205.243 90.978Z" fill="#1967D2"/>
<path d="M210 86.2883V86.2461L209.958 86.2883H210Z" fill="#FBBC05"/>
<path d="M210 75.7114H205.243V86.2465H210V75.7114Z" fill="#FBBC05"/>
<path d="M209.958 86.2886H205.243V90.978L209.958 86.2886Z" fill="#EA4335"/>
<path d="M205.243 86.2883H209.958L210 86.2461H205.243V86.2883Z" fill="#EA4335"/>
<path d="M205.231 90.9895H205.242V90.978L205.231 90.9895Z" fill="#34A853"/>
<path d="M194.65 86.2461V90.9895H205.231L205.243 86.2461H194.65Z" fill="#34A853"/>
<path d="M205.242 86.2885V86.2461L205.231 90.9895L205.242 90.9779V86.2885Z" fill="#34A853"/>
<path d="M190 86.2461V89.5441C190.043 90.6143 191.2 90.9895 191.2 90.9895H194.65V86.2461H190Z" fill="#188038"/>
<path d="M194.65 75.7112H205.243V71H191.334C191.334 71 190.085 71.1285 190 72.4556V86.2464H194.65V75.7112Z" fill="#4285F4"/>
<path d="M198.116 84.114C197.873 84.114 197.64 84.0824 197.414 84.0193C197.195 83.9562 196.993 83.8615 196.809 83.7352C196.624 83.6032 196.46 83.4397 196.315 83.2446C196.177 83.0495 196.07 82.8228 195.995 82.5645L197.06 82.1428C197.135 82.4297 197.262 82.6478 197.44 82.797C197.619 82.9404 197.844 83.0122 198.116 83.0122C198.237 83.0122 198.352 82.9949 198.462 82.9605C198.571 82.9203 198.667 82.8658 198.747 82.797C198.828 82.7281 198.892 82.6478 198.938 82.5559C198.99 82.4584 199.016 82.3493 199.016 82.2288C199.016 81.9763 198.92 81.7784 198.73 81.6349C198.545 81.4914 198.289 81.4197 197.96 81.4197H197.449V80.3953H197.916C198.032 80.3953 198.144 80.381 198.254 80.3523C198.364 80.3236 198.459 80.2806 198.54 80.2232C198.626 80.1601 198.692 80.0826 198.739 79.9908C198.791 79.8932 198.817 79.7813 198.817 79.6551C198.817 79.4599 198.747 79.3021 198.609 79.1816C198.47 79.0554 198.283 78.9922 198.046 78.9922C197.792 78.9922 197.596 79.0611 197.458 79.1988C197.325 79.3308 197.233 79.48 197.181 79.6465L196.142 79.2247C196.194 79.0812 196.272 78.9349 196.376 78.7857C196.48 78.6307 196.61 78.493 196.765 78.3725C196.927 78.2462 197.114 78.1458 197.328 78.0712C197.541 77.9909 197.787 77.9507 198.064 77.9507C198.346 77.9507 198.603 77.9909 198.834 78.0712C199.07 78.1515 199.272 78.2634 199.44 78.4069C199.607 78.5446 199.737 78.7111 199.829 78.9062C199.921 79.0955 199.968 79.3021 199.968 79.5259C199.968 79.6981 199.945 79.853 199.898 79.9908C199.858 80.1285 199.803 80.2519 199.734 80.3609C199.665 80.4699 199.584 80.5646 199.492 80.645C199.405 80.7196 199.316 80.7798 199.223 80.8257V80.8946C199.5 81.0036 199.728 81.1787 199.907 81.4197C200.092 81.6607 200.184 81.9649 200.184 82.3321C200.184 82.5904 200.135 82.8285 200.037 83.0466C199.939 83.2589 199.797 83.4454 199.613 83.6061C199.434 83.7668 199.218 83.8902 198.964 83.9763C198.71 84.0681 198.427 84.114 198.116 84.114Z" fill="#4285F4"/>
<path d="M202.251 83.9763V79.414L201.204 79.853L200.788 78.8976L202.528 78.0884H203.385V83.9763H202.251Z" fill="#4285F4"/>
</g>
<g filter="url(#filter3_d_762_10318)">
<rect x="58" y="10" width="56" height="56" rx="18" fill="white" shape-rendering="crispEdges"/>
<rect x="58.5" y="10.5" width="55" height="55" rx="17.5" stroke="#FECE99" shape-rendering="crispEdges"/>
<path fill-rule="evenodd" clip-rule="evenodd" d="M86 53C93.732 53 100 46.732 100 39C100 31.268 93.732 25 86 25C78.268 25 72 31.268 72 39C72 41.5109 72.661 43.8674 73.8185 45.905L72 53L79.3149 51.3038C81.3014 52.3854 83.5789 53 86 53ZM86 50.8462C92.5425 50.8462 97.8462 45.5425 97.8462 39C97.8462 32.4576 92.5425 27.1538 86 27.1538C79.4576 27.1538 74.1538 32.4576 74.1538 39C74.1538 41.5261 74.9445 43.8675 76.2918 45.7902L75.2308 49.7692L79.2799 48.7569C81.1894 50.0746 83.5046 50.8462 86 50.8462Z" fill="#BFC8D0"/>
<path d="M98 38C98 44.6274 92.6274 50 86 50C83.4722 50 81.1269 49.2184 79.1927 47.8837L75.0909 48.9091L76.1658 44.8784C74.8009 42.9307 74 40.5589 74 38C74 31.3726 79.3726 26 86 26C92.6274 26 98 31.3726 98 38Z" fill="url(#paint13_linear_762_10318)"/>
<path fill-rule="evenodd" clip-rule="evenodd" d="M86 52C93.732 52 100 45.732 100 38C100 30.268 93.732 24 86 24C78.268 24 72 30.268 72 38C72 40.5109 72.661 42.8674 73.8185 44.905L72 52L79.3149 50.3038C81.3014 51.3854 83.5789 52 86 52ZM86 49.8462C92.5425 49.8462 97.8462 44.5425 97.8462 38C97.8462 31.4576 92.5425 26.1538 86 26.1538C79.4576 26.1538 74.1538 31.4576 74.1538 38C74.1538 40.5261 74.9445 42.8675 76.2918 44.7902L75.2308 48.7692L79.2799 47.7569C81.1894 49.0746 83.5046 49.8462 86 49.8462Z" fill="white"/>
<path d="M82.5 31.4999C82.1672 30.8313 81.6565 30.8905 81.1407 30.8905C80.2188 30.8905 78.7812 31.9948 78.7812 34.05C78.7813 35.7343 79.5234 37.578 82.0244 40.3361C84.438 42.9979 87.6094 44.3748 90.2422 44.3279C92.875 44.2811 93.4167 42.0154 93.4167 41.2503C93.4167 40.9112 93.2062 40.742 93.0613 40.696C92.1641 40.2654 90.5093 39.4631 90.1328 39.3124C89.7563 39.1617 89.5597 39.3656 89.4375 39.4765C89.0961 39.8018 88.4193 40.7608 88.1875 40.9765C87.9558 41.1922 87.6103 41.083 87.4665 41.0015C86.9374 40.7892 85.5029 40.1511 84.3595 39.0426C82.9453 37.6718 82.8623 37.2001 82.5959 36.7803C82.3828 36.4444 82.5392 36.2384 82.6172 36.1483C82.9219 35.7968 83.3426 35.254 83.5313 34.9843C83.7199 34.7145 83.5702 34.305 83.4803 34.05C83.0938 32.953 82.7663 32.0347 82.5 31.4999Z" fill="white"/>
</g>
<g filter="url(#filter4_d_762_10318)">
<rect x="284" y="3" width="56" height="56" rx="18" fill="white" shape-rendering="crispEdges"/>
<rect x="284.5" y="3.5" width="55" height="55" rx="17.5" stroke="#FECE99" shape-rendering="crispEdges"/>
<path d="M315 28.9032C315 28.4044 315.404 28 315.903 28H327.097C327.596 28 328 28.4044 328 28.9032V35.5C328 39.0899 325.09 42 321.5 42C317.91 42 315 39.0899 315 35.5V28.9032Z" fill="url(#paint14_linear_762_10318)"/>
<path d="M305 27.2258C305 26.5488 305.549 26 306.226 26H319.774C320.451 26 321 26.5488 321 27.2258V37C321 41.4183 317.418 45 313 45C308.582 45 305 41.4183 305 37V27.2258Z" fill="url(#paint15_linear_762_10318)"/>
<circle cx="323" cy="23" r="3" fill="#34439E"/>
<circle cx="323" cy="23" r="3" fill="url(#paint16_linear_762_10318)"/>
<circle cx="314" cy="21" r="4" fill="url(#paint17_linear_762_10318)"/>
<mask id="mask0_762_10318" style="mask-type:alpha" maskUnits="userSpaceOnUse" x="305" y="15" width="16" height="30">
<path d="M313 25C315.761 25 318 22.7615 318 20C318 17.2385 315.761 15 313 15C310.239 15 308 17.2385 308 20C308 22.7615 310.239 25 313 25Z" fill="url(#paint18_linear_762_10318)"/>
<path d="M306.226 26C305.549 26 305 26.5488 305 27.2258V37C305 41.4183 308.582 45 313 45C317.418 45 321 41.4183 321 37V27.2258C321 26.5488 320.451 26 319.774 26H306.226Z" fill="url(#paint19_linear_762_10318)"/>
</mask>
<g mask="url(#mask0_762_10318)">
<path d="M303 27C303 25.3431 304.343 24 306 24H313C314.657 24 316 25.3431 316 27V39C316 40.6569 314.657 42 313 42H303V27Z" fill="black" fill-opacity="0.3"/>
</g>
<rect x="296" y="22" width="18" height="18" rx="2" fill="url(#paint20_linear_762_10318)"/>
<path d="M309 26H301V27.8347H303.995V36H306.005V27.8347H309V26Z" fill="white"/>
</g>
<g filter="url(#filter5_d_762_10318)">
<rect x="314" y="158" width="56" height="56" rx="18" fill="white" shape-rendering="crispEdges"/>
<rect x="314.5" y="158.5" width="55" height="55" rx="17.5" stroke="#FECE99" shape-rendering="crispEdges"/>
<path d="M352.5 185C353.881 185 355 183.88 355 182.5C355 181.119 353.881 180 352.5 180C351.119 180 350 181.119 350 182.5V185H352.5ZM345.5 185C346.881 185 348 183.88 348 182.5V175.5C348 174.119 346.881 173 345.5 173C344.119 173 343 174.119 343 175.5V182.5C343 183.88 344.119 185 345.5 185Z" fill="#2EB67D"/>
<path d="M331.5 187C330.119 187 329 188.12 329 189.5C329 190.881 330.119 192 331.5 192C332.881 192 334 190.881 334 189.5V187H331.5ZM338.5 187C337.119 187 336 188.12 336 189.5V196.5C336 197.881 337.119 199 338.5 199C339.881 199 341 197.881 341 196.5V189.5C341 188.12 339.881 187 338.5 187Z" fill="#E01E5A"/>
<path d="M343 196.5C343 197.881 344.12 199 345.5 199C346.881 199 348 197.881 348 196.5C348 195.119 346.881 194 345.5 194L343 194L343 196.5ZM343 189.5C343 190.881 344.12 192 345.5 192L352.5 192C353.881 192 355 190.881 355 189.5C355 188.119 353.881 187 352.5 187L345.5 187C344.12 187 343 188.119 343 189.5Z" fill="#ECB22E"/>
<path d="M341 175.5C341 174.119 339.88 173 338.5 173C337.119 173 336 174.119 336 175.5C336 176.881 337.119 178 338.5 178L341 178L341 175.5ZM341 182.5C341 181.119 339.88 180 338.5 180L331.5 180C330.119 180 329 181.119 329 182.5C329 183.881 330.119 185 331.5 185L338.5 185C339.88 185 341 183.881 341 182.5Z" fill="#36C5F0"/>
</g>
<defs>
<filter id="filter0_d_762_10318" x="162" y="182" width="64" height="64" filterUnits="userSpaceOnUse" color-interpolation-filters="sRGB">
<feFlood flood-opacity="0" result="BackgroundImageFix"/>
<feColorMatrix in="SourceAlpha" type="matrix" values="0 0 0 0 0 0 0 0 0 0 0 0 0 0 0 0 0 0 127 0" result="hardAlpha"/>
<feOffset dy="1"/>
<feGaussianBlur stdDeviation="2"/>
<feComposite in2="hardAlpha" operator="out"/>
<feColorMatrix type="matrix" values="0 0 0 0 0.0470588 0 0 0 0 0.0470588 0 0 0 0 0.0509804 0 0 0 0.05 0"/>
<feBlend mode="normal" in2="BackgroundImageFix" result="effect1_dropShadow_762_10318"/>
<feBlend mode="normal" in="SourceGraphic" in2="effect1_dropShadow_762_10318" result="shape"/>
</filter>
<filter id="filter1_d_762_10318" x="14" y="171" width="64" height="64" filterUnits="userSpaceOnUse" color-interpolation-filters="sRGB">
<feFlood flood-opacity="0" result="BackgroundImageFix"/>
<feColorMatrix in="SourceAlpha" type="matrix" values="0 0 0 0 0 0 0 0 0 0 0 0 0 0 0 0 0 0 127 0" result="hardAlpha"/>
<feOffset dy="1"/>
<feGaussianBlur stdDeviation="2"/>
<feComposite in2="hardAlpha" operator="out"/>
<feColorMatrix type="matrix" values="0 0 0 0 0.0470588 0 0 0 0 0.0470588 0 0 0 0 0.0509804 0 0 0 0.05 0"/>
<feBlend mode="normal" in2="BackgroundImageFix" result="effect1_dropShadow_762_10318"/>
<feBlend mode="normal" in="SourceGraphic" in2="effect1_dropShadow_762_10318" result="shape"/>
</filter>
<filter id="filter2_d_762_10318" x="168" y="50" width="64" height="64" filterUnits="userSpaceOnUse" color-interpolation-filters="sRGB">
<feFlood flood-opacity="0" result="BackgroundImageFix"/>
<feColorMatrix in="SourceAlpha" type="matrix" values="0 0 0 0 0 0 0 0 0 0 0 0 0 0 0 0 0 0 127 0" result="hardAlpha"/>
<feOffset dy="1"/>
<feGaussianBlur stdDeviation="2"/>
<feComposite in2="hardAlpha" operator="out"/>
<feColorMatrix type="matrix" values="0 0 0 0 0.0470588 0 0 0 0 0.0470588 0 0 0 0 0.0509804 0 0 0 0.05 0"/>
<feBlend mode="normal" in2="BackgroundImageFix" result="effect1_dropShadow_762_10318"/>
<feBlend mode="normal" in="SourceGraphic" in2="effect1_dropShadow_762_10318" result="shape"/>
</filter>
<filter id="filter3_d_762_10318" x="54" y="7" width="64" height="64" filterUnits="userSpaceOnUse" color-interpolation-filters="sRGB">
<feFlood flood-opacity="0" result="BackgroundImageFix"/>
<feColorMatrix in="SourceAlpha" type="matrix" values="0 0 0 0 0 0 0 0 0 0 0 0 0 0 0 0 0 0 127 0" result="hardAlpha"/>
<feOffset dy="1"/>
<feGaussianBlur stdDeviation="2"/>
<feComposite in2="hardAlpha" operator="out"/>
<feColorMatrix type="matrix" values="0 0 0 0 0.0470588 0 0 0 0 0.0470588 0 0 0 0 0.0509804 0 0 0 0.05 0"/>
<feBlend mode="normal" in2="BackgroundImageFix" result="effect1_dropShadow_762_10318"/>
<feBlend mode="normal" in="SourceGraphic" in2="effect1_dropShadow_762_10318" result="shape"/>
</filter>
<filter id="filter4_d_762_10318" x="280" y="0" width="64" height="64" filterUnits="userSpaceOnUse" color-interpolation-filters="sRGB">
<feFlood flood-opacity="0" result="BackgroundImageFix"/>
<feColorMatrix in="SourceAlpha" type="matrix" values="0 0 0 0 0 0 0 0 0 0 0 0 0 0 0 0 0 0 127 0" result="hardAlpha"/>
<feOffset dy="1"/>
<feGaussianBlur stdDeviation="2"/>
<feComposite in2="hardAlpha" operator="out"/>
<feColorMatrix type="matrix" values="0 0 0 0 0.0470588 0 0 0 0 0.0470588 0 0 0 0 0.0509804 0 0 0 0.05 0"/>
<feBlend mode="normal" in2="BackgroundImageFix" result="effect1_dropShadow_762_10318"/>
<feBlend mode="normal" in="SourceGraphic" in2="effect1_dropShadow_762_10318" result="shape"/>
</filter>
<filter id="filter5_d_762_10318" x="310" y="155" width="64" height="64" filterUnits="userSpaceOnUse" color-interpolation-filters="sRGB">
<feFlood flood-opacity="0" result="BackgroundImageFix"/>
<feColorMatrix in="SourceAlpha" type="matrix" values="0 0 0 0 0 0 0 0 0 0 0 0 0 0 0 0 0 0 127 0" result="hardAlpha"/>
<feOffset dy="1"/>
<feGaussianBlur stdDeviation="2"/>
<feComposite in2="hardAlpha" operator="out"/>
<feColorMatrix type="matrix" values="0 0 0 0 0.0470588 0 0 0 0 0.0470588 0 0 0 0 0.0509804 0 0 0 0.05 0"/>
<feBlend mode="normal" in2="BackgroundImageFix" result="effect1_dropShadow_762_10318"/>
<feBlend mode="normal" in="SourceGraphic" in2="effect1_dropShadow_762_10318" result="shape"/>
</filter>
<linearGradient id="paint0_linear_762_10318" x1="198.037" y1="353.102" x2="191.292" y2="302.827" gradientUnits="userSpaceOnUse">
<stop stop-color="#2D231E"/>
<stop offset="1" stop-color="#483C3A"/>
</linearGradient>
<linearGradient id="paint1_linear_762_10318" x1="198.073" y1="362.651" x2="187.878" y2="351.17" gradientUnits="userSpaceOnUse">
<stop stop-color="#A01D1C"/>
<stop offset="1" stop-color="#FF4648"/>
</linearGradient>
<linearGradient id="paint2_linear_762_10318" x1="195.996" y1="360.131" x2="189.494" y2="353.335" gradientUnits="userSpaceOnUse">
<stop stop-color="#C92225"/>
<stop offset="1" stop-color="#FF484B"/>
</linearGradient>
<linearGradient id="paint3_linear_762_10318" x1="261.889" y1="322.894" x2="243.82" y2="298.581" gradientUnits="userSpaceOnUse">
<stop stop-color="#C6A382"/>
<stop offset="1" stop-color="#F9DDC3"/>
</linearGradient>
<linearGradient id="paint4_linear_762_10318" x1="246.645" y1="306.606" x2="255.618" y2="318.734" gradientUnits="userSpaceOnUse">
<stop stop-color="#6F1918"/>
<stop offset="1" stop-color="#A22B30"/>
</linearGradient>
<linearGradient id="paint5_linear_762_10318" x1="146.315" y1="339.298" x2="126.727" y2="320.172" gradientUnits="userSpaceOnUse">
<stop stop-color="#DFC592"/>
<stop offset="1" stop-color="#FFF2CF"/>
</linearGradient>
<linearGradient id="paint6_linear_762_10318" x1="144.604" y1="341.763" x2="140.751" y2="336.05" gradientUnits="userSpaceOnUse">
<stop stop-color="#BA9862"/>
<stop offset="1" stop-color="#DABA83"/>
</linearGradient>
<linearGradient id="paint7_linear_762_10318" x1="138.601" y1="333.059" x2="142.965" y2="337.598" gradientUnits="userSpaceOnUse">
<stop stop-color="#AC823C"/>
<stop offset="1" stop-color="#D1B581"/>
</linearGradient>
<linearGradient id="paint8_linear_762_10318" x1="225.421" y1="331.77" x2="242.128" y2="352.983" gradientUnits="userSpaceOnUse">
<stop stop-color="#8D6B52"/>
<stop offset="1" stop-color="#B08E75"/>
</linearGradient>
<linearGradient id="paint9_linear_762_10318" x1="157.18" y1="338.285" x2="159.953" y2="353.501" gradientUnits="userSpaceOnUse">
<stop stop-color="#7C5B44"/>
<stop offset="1" stop-color="#A9866D"/>
</linearGradient>
<linearGradient id="paint10_linear_762_10318" x1="186.998" y1="327.497" x2="190.517" y2="329.977" gradientUnits="userSpaceOnUse">
<stop stop-color="#1F1815"/>
<stop offset="1" stop-color="#463C38"/>
</linearGradient>
<linearGradient id="paint11_linear_762_10318" x1="213.28" y1="327.411" x2="216.599" y2="330.075" gradientUnits="userSpaceOnUse">
<stop stop-color="#1F1815"/>
<stop offset="1" stop-color="#433935"/>
</linearGradient>
<linearGradient id="paint12_linear_762_10318" x1="194" y1="199" x2="194" y2="227" gradientUnits="userSpaceOnUse">
<stop stop-color="#37BBFE"/>
<stop offset="1" stop-color="#007DBB"/>
</linearGradient>
<linearGradient id="paint13_linear_762_10318" x1="96.5" y1="29" x2="74" y2="50" gradientUnits="userSpaceOnUse">
<stop stop-color="#5BD066"/>
<stop offset="1" stop-color="#27B43E"/>
</linearGradient>
<linearGradient id="paint14_linear_762_10318" x1="315" y1="28.7368" x2="328.159" y2="37.3355" gradientUnits="userSpaceOnUse">
<stop stop-color="#364088"/>
<stop offset="1" stop-color="#6E7EE1"/>
</linearGradient>
<linearGradient id="paint15_linear_762_10318" x1="305" y1="34.4038" x2="321" y2="34.4038" gradientUnits="userSpaceOnUse">
<stop stop-color="#515FC4"/>
<stop offset="1" stop-color="#7084EA"/>
</linearGradient>
<linearGradient id="paint16_linear_762_10318" x1="320" y1="20.3158" x2="325.796" y2="24.3947" gradientUnits="userSpaceOnUse">
<stop stop-color="#364088"/>
<stop offset="1" stop-color="#6E7EE1"/>
</linearGradient>
<linearGradient id="paint17_linear_762_10318" x1="311.143" y1="18.1429" x2="316.286" y2="24.1429" gradientUnits="userSpaceOnUse">
<stop stop-color="#4858AE"/>
<stop offset="1" stop-color="#4E60CE"/>
</linearGradient>
<linearGradient id="paint18_linear_762_10318" x1="309.429" y1="16.4286" x2="315.857" y2="23.9286" gradientUnits="userSpaceOnUse">
<stop stop-color="#4858AE"/>
<stop offset="1" stop-color="#4E60CE"/>
</linearGradient>
<linearGradient id="paint19_linear_762_10318" x1="309.429" y1="16.4286" x2="315.857" y2="23.9286" gradientUnits="userSpaceOnUse">
<stop stop-color="#4858AE"/>
<stop offset="1" stop-color="#4E60CE"/>
</linearGradient>
<linearGradient id="paint20_linear_762_10318" x1="296" y1="31" x2="314" y2="31" gradientUnits="userSpaceOnUse">
<stop stop-color="#2A3887"/>
<stop offset="1" stop-color="#4C56B9"/>
</linearGradient>
</defs>
</svg>
