<svg width="42" height="39" viewBox="0 0 42 39" fill="none" xmlns="http://www.w3.org/2000/svg">
<g filter="url(#filter0_dd_349_2399)">
<path d="M6.67547 30.6594L7.95437 26.2756C8.31211 25.0493 8.09538 23.7404 7.53373 22.593C3.98713 15.348 6.50076 7.68218 16.0703 5.49555C20.3296 4.52262 24.9768 4.84088 29.4142 7.73996C32.3927 9.68595 34.5351 12.7897 35.2934 16.2659C36.1212 20.0605 35.3916 23.1875 33.2739 25.9559C31.9589 27.6749 30.1547 29.0029 28.1078 29.7063C23.6593 31.235 19.0456 30.3607 14.2371 28.5565C12.7518 27.9992 11.0773 28.188 9.80877 29.1407L7.25377 31.0595C6.9689 31.2735 6.5757 31.0014 6.67547 30.6594Z" fill="#F2E9DC"/>
<path d="M15.8478 4.52106C20.3193 3.49967 25.2553 3.82807 29.9612 6.90254C33.1589 8.99175 35.4564 12.3201 36.2707 16.0532C37.1585 20.1234 36.3715 23.5531 34.0684 26.5639C32.6382 28.4334 30.6729 29.8825 28.433 30.6523C23.6544 32.2944 18.7693 31.3247 13.886 29.4924C12.6966 29.0461 11.3852 29.208 10.4097 29.9405L7.85418 31.8589C6.80059 32.6501 5.34637 31.644 5.71538 30.379L6.99406 25.9954C7.26634 25.0621 7.11526 24.0121 6.63589 23.0327C4.76368 19.2082 4.44215 15.165 5.97057 11.7398C7.50695 8.29699 10.8272 5.66825 15.8478 4.52106Z" stroke="#F2E9DC" stroke-width="2" stroke-linecap="round"/>
</g>
<path d="M6.67547 30.6594L7.95437 26.2756C8.31211 25.0493 8.09538 23.7404 7.53373 22.593C3.98713 15.348 6.50076 7.68218 16.0703 5.49555C20.3296 4.52262 24.9768 4.84088 29.4142 7.73996C32.3927 9.68595 34.5351 12.7897 35.2934 16.2659C36.1212 20.0605 35.3916 23.1875 33.2739 25.9559C31.9589 27.6749 30.1547 29.0029 28.1078 29.7063C23.6593 31.235 19.0456 30.3607 14.2371 28.5565C12.7518 27.9992 11.0773 28.188 9.80877 29.1407L7.25377 31.0595C6.9689 31.2735 6.5757 31.0014 6.67547 30.6594Z" fill="#FECE99" stroke="#FE7500" stroke-width="1.22" stroke-linecap="round"/>
<defs>
<filter id="filter0_dd_349_2399" x="0" y="0" width="41.625" height="38.1445" filterUnits="userSpaceOnUse" color-interpolation-filters="sRGB">
<feFlood flood-opacity="0" result="BackgroundImageFix"/>
<feColorMatrix in="SourceAlpha" type="matrix" values="0 0 0 0 0 0 0 0 0 0 0 0 0 0 0 0 0 0 127 0" result="hardAlpha"/>
<feMorphology radius="1" operator="dilate" in="SourceAlpha" result="effect1_dropShadow_349_2399"/>
<feOffset dy="1"/>
<feGaussianBlur stdDeviation="1.5"/>
<feColorMatrix type="matrix" values="0 0 0 0 0 0 0 0 0 0 0 0 0 0 0 0 0 0 0.15 0"/>
<feBlend mode="normal" in2="BackgroundImageFix" result="effect1_dropShadow_349_2399"/>
<feColorMatrix in="SourceAlpha" type="matrix" values="0 0 0 0 0 0 0 0 0 0 0 0 0 0 0 0 0 0 127 0" result="hardAlpha"/>
<feOffset dy="1"/>
<feGaussianBlur stdDeviation="1"/>
<feColorMatrix type="matrix" values="0 0 0 0 0 0 0 0 0 0 0 0 0 0 0 0 0 0 0.3 0"/>
<feBlend mode="normal" in2="effect1_dropShadow_349_2399" result="effect2_dropShadow_349_2399"/>
<feBlend mode="normal" in="SourceGraphic" in2="effect2_dropShadow_349_2399" result="shape"/>
</filter>
</defs>
</svg>
