<svg width="39" height="38" viewBox="0 0 39 38" fill="none" xmlns="http://www.w3.org/2000/svg">
<g filter="url(#filter0_dd_349_2405)">
<path d="M6.13217 17.3069L4.79453 19.7091C4.52108 20.2001 4.41544 20.767 4.49367 21.3236C4.79118 23.4405 6.74844 24.9154 8.86534 24.6179L18.0445 23.3278C20.1556 23.0312 21.6264 21.0793 21.3297 18.9682C21.2506 18.4052 20.9872 17.8843 20.5808 17.4868L18.5657 15.5157C17.2357 14.2148 15.3775 13.6044 13.5351 13.8633L10.5392 14.2844C8.67783 14.546 7.04663 15.6647 6.13217 17.3069Z" fill="#F2E9DC"/>
<path d="M13.416 13.0123C15.522 12.7164 17.6461 13.4142 19.1665 14.9012L21.1821 16.8723C21.7241 17.4025 22.0751 18.0974 22.1807 18.8483C22.5434 21.4293 20.7448 23.8162 18.1637 24.1789L8.98538 25.4688C6.39848 25.8324 4.00616 24.0297 3.64259 21.4428C3.53844 20.701 3.67889 19.9453 4.04329 19.2909L5.38121 16.8889C6.42665 15.0115 8.29207 13.7324 10.42 13.4333L13.416 13.0123Z" stroke="#F2E9DC" stroke-width="1.71875" stroke-linecap="round"/>
</g>
<g filter="url(#filter1_dd_349_2405)">
<rect x="6.21094" y="4.79492" width="9" height="9" rx="4.5" transform="rotate(-8 6.21094 4.79492)" fill="#F2E9DC"/>
<rect x="5.0462" y="3.91723" width="11.0625" height="11.0625" rx="5.53125" transform="rotate(-8 5.0462 3.91723)" stroke="#F2E9DC" stroke-width="2.0625"/>
</g>
<path d="M6.13217 17.3069L4.79453 19.7091C4.52108 20.2001 4.41544 20.767 4.49367 21.3236C4.79118 23.4405 6.74844 24.9154 8.86534 24.6179L18.0445 23.3278C20.1556 23.0312 21.6264 21.0793 21.3297 18.9682C21.2506 18.4052 20.9872 17.8843 20.5808 17.4868L18.5657 15.5157C17.2357 14.2148 15.3775 13.6044 13.5351 13.8633L10.5392 14.2844C8.67783 14.546 7.04663 15.6647 6.13217 17.3069Z" fill="#FFCE99" stroke="#FE7500" stroke-width="0.845625" stroke-linecap="round"/>
<rect x="5.7334" y="4.43507" width="9.84563" height="9.84563" rx="4.92281" transform="rotate(-8 5.7334 4.43507)" fill="#FECE99" stroke="#FE7500" stroke-width="0.845625"/>
<g filter="url(#filter2_dd_349_2405)">
<path d="M19.0072 15.4983L17.6695 17.9005C17.3961 18.3915 17.2904 18.9584 17.3687 19.515C17.6662 21.6319 19.6234 23.1068 21.7403 22.8093L30.9195 21.5193C33.0306 21.2226 34.5014 19.2707 34.2047 17.1596C34.1256 16.5966 33.8622 16.0757 33.4558 15.6782L31.4407 13.7071C30.1107 12.4062 28.2525 11.7958 26.4101 12.0547L23.4142 12.4758C21.5528 12.7374 19.9216 13.8561 19.0072 15.4983Z" fill="#F2E9DC"/>
<path d="M26.291 11.2037C28.397 10.9078 30.5211 11.6056 32.0415 13.0926L34.0571 15.0637C34.5991 15.5939 34.9501 16.2889 35.0557 17.0397C35.4184 19.6207 33.6198 22.0076 31.0387 22.3703L21.8604 23.6603C19.2735 24.0238 16.8812 22.2211 16.5176 19.6342C16.4134 18.8924 16.5539 18.1367 16.9183 17.4823L18.2562 15.0803C19.3016 13.2029 21.1671 11.9238 23.295 11.6247L26.291 11.2037Z" stroke="#F2E9DC" stroke-width="1.71875" stroke-linecap="round"/>
</g>
<rect x="17.9212" y="2.10864" width="11.0625" height="11.0625" rx="5.53125" transform="rotate(-8 17.9212 2.10864)" fill="#F2E9DC" stroke="#F2E9DC" stroke-width="2.0625"/>
<path d="M19.0072 15.4983L17.6695 17.9005C17.3961 18.3915 17.2904 18.9584 17.3687 19.515C17.6662 21.6319 19.6234 23.1068 21.7403 22.8093L30.9195 21.5193C33.0306 21.2226 34.5014 19.2707 34.2047 17.1596C34.1256 16.5966 33.8622 16.0757 33.4558 15.6782L31.4407 13.7071C30.1107 12.4062 28.2525 11.7958 26.4101 12.0547L23.4142 12.4758C21.5528 12.7374 19.9216 13.8561 19.0072 15.4983Z" fill="#FFCE99" stroke="#FE7500" stroke-width="0.845625" stroke-linecap="round"/>
<rect x="18.6084" y="2.62647" width="9.84563" height="9.84563" rx="4.92281" transform="rotate(-8 18.6084 2.62647)" fill="#FECE99" stroke="#FE7500" stroke-width="0.845625"/>
<g filter="url(#filter3_dd_349_2405)">
<path d="M14.3158 25.2444L12.9781 27.6466C12.7047 28.1376 12.599 28.7045 12.6773 29.2611C12.9748 31.378 14.932 32.8529 17.0489 32.5554L26.2281 31.2653C28.3392 30.9687 29.81 29.0168 29.5133 26.9057C29.4342 26.3427 29.1708 25.8218 28.7644 25.4243L26.7493 23.4532C25.4193 22.1523 23.5611 21.5419 21.7187 21.8008L18.7228 22.2219C16.8614 22.4835 15.2302 23.6022 14.3158 25.2444Z" fill="#F2E9DC"/>
<path d="M21.5996 20.9498C23.7056 20.6539 25.8297 21.3517 27.3501 22.8387L29.3657 24.8098C29.9077 25.34 30.2587 26.0349 30.3643 26.7858C30.727 29.3668 28.9284 31.7537 26.3473 32.1164L17.169 33.4063C14.5821 33.7699 12.1898 31.9672 11.8262 29.3803C11.722 28.6385 11.8625 27.8828 12.2269 27.2284L13.5648 24.8264C14.6102 22.949 16.4757 21.6699 18.6036 21.3708L21.5996 20.9498Z" stroke="#F2E9DC" stroke-width="1.71875" stroke-linecap="round"/>
</g>
<g filter="url(#filter4_dd_349_2405)">
<rect x="14.3945" y="12.7324" width="9" height="9" rx="4.5" transform="rotate(-8 14.3945 12.7324)" fill="#F2E9DC"/>
<rect x="13.2298" y="11.8547" width="11.0625" height="11.0625" rx="5.53125" transform="rotate(-8 13.2298 11.8547)" stroke="#F2E9DC" stroke-width="2.0625"/>
</g>
<path d="M14.3158 25.2444L12.9781 27.6466C12.7047 28.1376 12.599 28.7045 12.6773 29.2611C12.9748 31.378 14.932 32.8529 17.0489 32.5554L26.2281 31.2653C28.3392 30.9687 29.81 29.0168 29.5133 26.9057C29.4342 26.3427 29.1708 25.8218 28.7644 25.4243L26.7493 23.4532C25.4193 22.1523 23.5611 21.5419 21.7187 21.8008L18.7228 22.2219C16.8614 22.4835 15.2302 23.6022 14.3158 25.2444Z" fill="#FFCE99" stroke="#FE7500" stroke-width="0.845625" stroke-linecap="round"/>
<rect x="13.917" y="12.3726" width="9.84563" height="9.84563" rx="4.92281" transform="rotate(-8 13.917 12.3726)" fill="#FECE99" stroke="#FE7500" stroke-width="0.845625"/>
<defs>
<filter id="filter0_dd_349_2405" x="-5.96046e-08" y="10.0234" width="25.8359" height="19.7891" filterUnits="userSpaceOnUse" color-interpolation-filters="sRGB">
<feFlood flood-opacity="0" result="BackgroundImageFix"/>
<feColorMatrix in="SourceAlpha" type="matrix" values="0 0 0 0 0 0 0 0 0 0 0 0 0 0 0 0 0 0 127 0" result="hardAlpha"/>
<feMorphology radius="0.6875" operator="dilate" in="SourceAlpha" result="effect1_dropShadow_349_2405"/>
<feOffset dy="0.6875"/>
<feGaussianBlur stdDeviation="1.03125"/>
<feColorMatrix type="matrix" values="0 0 0 0 0 0 0 0 0 0 0 0 0 0 0 0 0 0 0.15 0"/>
<feBlend mode="normal" in2="BackgroundImageFix" result="effect1_dropShadow_349_2405"/>
<feColorMatrix in="SourceAlpha" type="matrix" values="0 0 0 0 0 0 0 0 0 0 0 0 0 0 0 0 0 0 127 0" result="hardAlpha"/>
<feOffset dy="0.6875"/>
<feGaussianBlur stdDeviation="0.6875"/>
<feColorMatrix type="matrix" values="0 0 0 0 0 0 0 0 0 0 0 0 0 0 0 0 0 0 0.3 0"/>
<feBlend mode="normal" in2="effect1_dropShadow_349_2405" result="effect2_dropShadow_349_2405"/>
<feBlend mode="normal" in="SourceGraphic" in2="effect2_dropShadow_349_2405" result="shape"/>
</filter>
<filter id="filter1_dd_349_2405" x="1.98047" y="0" width="18.625" height="18.625" filterUnits="userSpaceOnUse" color-interpolation-filters="sRGB">
<feFlood flood-opacity="0" result="BackgroundImageFix"/>
<feColorMatrix in="SourceAlpha" type="matrix" values="0 0 0 0 0 0 0 0 0 0 0 0 0 0 0 0 0 0 127 0" result="hardAlpha"/>
<feMorphology radius="0.6875" operator="dilate" in="SourceAlpha" result="effect1_dropShadow_349_2405"/>
<feOffset dy="0.6875"/>
<feGaussianBlur stdDeviation="1.03125"/>
<feColorMatrix type="matrix" values="0 0 0 0 0 0 0 0 0 0 0 0 0 0 0 0 0 0 0.15 0"/>
<feBlend mode="normal" in2="BackgroundImageFix" result="effect1_dropShadow_349_2405"/>
<feColorMatrix in="SourceAlpha" type="matrix" values="0 0 0 0 0 0 0 0 0 0 0 0 0 0 0 0 0 0 127 0" result="hardAlpha"/>
<feOffset dy="0.6875"/>
<feGaussianBlur stdDeviation="0.6875"/>
<feColorMatrix type="matrix" values="0 0 0 0 0 0 0 0 0 0 0 0 0 0 0 0 0 0 0.3 0"/>
<feBlend mode="normal" in2="effect1_dropShadow_349_2405" result="effect2_dropShadow_349_2405"/>
<feBlend mode="normal" in="SourceGraphic" in2="effect2_dropShadow_349_2405" result="shape"/>
</filter>
<filter id="filter2_dd_349_2405" x="12.875" y="8.21484" width="25.8359" height="19.7891" filterUnits="userSpaceOnUse" color-interpolation-filters="sRGB">
<feFlood flood-opacity="0" result="BackgroundImageFix"/>
<feColorMatrix in="SourceAlpha" type="matrix" values="0 0 0 0 0 0 0 0 0 0 0 0 0 0 0 0 0 0 127 0" result="hardAlpha"/>
<feMorphology radius="0.6875" operator="dilate" in="SourceAlpha" result="effect1_dropShadow_349_2405"/>
<feOffset dy="0.6875"/>
<feGaussianBlur stdDeviation="1.03125"/>
<feColorMatrix type="matrix" values="0 0 0 0 0 0 0 0 0 0 0 0 0 0 0 0 0 0 0.15 0"/>
<feBlend mode="normal" in2="BackgroundImageFix" result="effect1_dropShadow_349_2405"/>
<feColorMatrix in="SourceAlpha" type="matrix" values="0 0 0 0 0 0 0 0 0 0 0 0 0 0 0 0 0 0 127 0" result="hardAlpha"/>
<feOffset dy="0.6875"/>
<feGaussianBlur stdDeviation="0.6875"/>
<feColorMatrix type="matrix" values="0 0 0 0 0 0 0 0 0 0 0 0 0 0 0 0 0 0 0.3 0"/>
<feBlend mode="normal" in2="effect1_dropShadow_349_2405" result="effect2_dropShadow_349_2405"/>
<feBlend mode="normal" in="SourceGraphic" in2="effect2_dropShadow_349_2405" result="shape"/>
</filter>
<filter id="filter3_dd_349_2405" x="8.18359" y="17.9609" width="25.8359" height="19.7891" filterUnits="userSpaceOnUse" color-interpolation-filters="sRGB">
<feFlood flood-opacity="0" result="BackgroundImageFix"/>
<feColorMatrix in="SourceAlpha" type="matrix" values="0 0 0 0 0 0 0 0 0 0 0 0 0 0 0 0 0 0 127 0" result="hardAlpha"/>
<feMorphology radius="0.6875" operator="dilate" in="SourceAlpha" result="effect1_dropShadow_349_2405"/>
<feOffset dy="0.6875"/>
<feGaussianBlur stdDeviation="1.03125"/>
<feColorMatrix type="matrix" values="0 0 0 0 0 0 0 0 0 0 0 0 0 0 0 0 0 0 0.15 0"/>
<feBlend mode="normal" in2="BackgroundImageFix" result="effect1_dropShadow_349_2405"/>
<feColorMatrix in="SourceAlpha" type="matrix" values="0 0 0 0 0 0 0 0 0 0 0 0 0 0 0 0 0 0 127 0" result="hardAlpha"/>
<feOffset dy="0.6875"/>
<feGaussianBlur stdDeviation="0.6875"/>
<feColorMatrix type="matrix" values="0 0 0 0 0 0 0 0 0 0 0 0 0 0 0 0 0 0 0.3 0"/>
<feBlend mode="normal" in2="effect1_dropShadow_349_2405" result="effect2_dropShadow_349_2405"/>
<feBlend mode="normal" in="SourceGraphic" in2="effect2_dropShadow_349_2405" result="shape"/>
</filter>
<filter id="filter4_dd_349_2405" x="10.1641" y="7.9375" width="18.625" height="18.625" filterUnits="userSpaceOnUse" color-interpolation-filters="sRGB">
<feFlood flood-opacity="0" result="BackgroundImageFix"/>
<feColorMatrix in="SourceAlpha" type="matrix" values="0 0 0 0 0 0 0 0 0 0 0 0 0 0 0 0 0 0 127 0" result="hardAlpha"/>
<feMorphology radius="0.6875" operator="dilate" in="SourceAlpha" result="effect1_dropShadow_349_2405"/>
<feOffset dy="0.6875"/>
<feGaussianBlur stdDeviation="1.03125"/>
<feColorMatrix type="matrix" values="0 0 0 0 0 0 0 0 0 0 0 0 0 0 0 0 0 0 0.15 0"/>
<feBlend mode="normal" in2="BackgroundImageFix" result="effect1_dropShadow_349_2405"/>
<feColorMatrix in="SourceAlpha" type="matrix" values="0 0 0 0 0 0 0 0 0 0 0 0 0 0 0 0 0 0 127 0" result="hardAlpha"/>
<feOffset dy="0.6875"/>
<feGaussianBlur stdDeviation="0.6875"/>
<feColorMatrix type="matrix" values="0 0 0 0 0 0 0 0 0 0 0 0 0 0 0 0 0 0 0.3 0"/>
<feBlend mode="normal" in2="effect1_dropShadow_349_2405" result="effect2_dropShadow_349_2405"/>
<feBlend mode="normal" in="SourceGraphic" in2="effect2_dropShadow_349_2405" result="shape"/>
</filter>
</defs>
</svg>
