<svg width="41" height="39" viewBox="0 0 41 39" fill="none" xmlns="http://www.w3.org/2000/svg">
<g filter="url(#filter0_dd_349_2426)">
<path d="M20.5227 6.63078C3.31963 3.59742 -0.45482 27.6314 16.2988 30.5856M20.3744 31.3042C37.5775 34.3376 41.3519 10.3035 24.5983 7.34942M14.089 26.9026L16.8616 30.1436C17.033 30.344 16.9725 30.6252 16.733 30.7407L13.1034 32.4921M28.2741 4.70429L24.5602 6.80153C24.3306 6.93119 24.2913 7.21616 24.4768 7.4066L27.2885 10.2937" stroke="#F2E9DC" stroke-width="3" stroke-linecap="round"/>
</g>
<path d="M20.5227 6.63078C3.31963 3.59742 -0.45482 27.6314 16.2988 30.5856M20.3744 31.3042C37.5775 34.3376 41.3519 10.3035 24.5983 7.34942M14.089 26.9026L16.8616 30.1436C17.033 30.344 16.9725 30.6252 16.733 30.7407L13.1034 32.4921M28.2741 4.70429L24.5602 6.80153C24.3306 6.93119 24.2913 7.21616 24.4768 7.4066L27.2885 10.2937" stroke="#FF7501" stroke-width="1.22" stroke-linecap="round"/>
<defs>
<filter id="filter0_dd_349_2426" x="0" y="0.203125" width="40.8945" height="38.7891" filterUnits="userSpaceOnUse" color-interpolation-filters="sRGB">
<feFlood flood-opacity="0" result="BackgroundImageFix"/>
<feColorMatrix in="SourceAlpha" type="matrix" values="0 0 0 0 0 0 0 0 0 0 0 0 0 0 0 0 0 0 127 0" result="hardAlpha"/>
<feMorphology radius="1" operator="dilate" in="SourceAlpha" result="effect1_dropShadow_349_2426"/>
<feOffset dy="1"/>
<feGaussianBlur stdDeviation="1.5"/>
<feColorMatrix type="matrix" values="0 0 0 0 0 0 0 0 0 0 0 0 0 0 0 0 0 0 0.15 0"/>
<feBlend mode="normal" in2="BackgroundImageFix" result="effect1_dropShadow_349_2426"/>
<feColorMatrix in="SourceAlpha" type="matrix" values="0 0 0 0 0 0 0 0 0 0 0 0 0 0 0 0 0 0 127 0" result="hardAlpha"/>
<feOffset dy="1"/>
<feGaussianBlur stdDeviation="1"/>
<feColorMatrix type="matrix" values="0 0 0 0 0 0 0 0 0 0 0 0 0 0 0 0 0 0 0.3 0"/>
<feBlend mode="normal" in2="effect1_dropShadow_349_2426" result="effect2_dropShadow_349_2426"/>
<feBlend mode="normal" in="SourceGraphic" in2="effect2_dropShadow_349_2426" result="shape"/>
</filter>
</defs>
</svg>
