<svg width="42" height="41" viewBox="0 0 42 41" fill="none" xmlns="http://www.w3.org/2000/svg">
<g filter="url(#filter0_dd_349_2432)">
<path d="M7.65525 18.4201L10.2976 17.9542C11.0703 17.8179 11.8072 18.3339 11.9434 19.1066L16.0117 7.02833C16.6407 4.39262 20.2691 4.29368 20.7317 6.91739L21.9922 12.514C22.2268 13.5559 23.2388 14.2296 24.2906 14.0442L32.5431 12.589C32.856 12.5339 33.1795 12.5488 33.4771 12.6601C34.7985 13.1541 35.34 13.8398 35.5793 15.5788C35.6026 15.7481 35.5994 15.9206 35.5753 16.0898L34.0237 26.978C33.9016 27.8344 33.2429 28.5153 32.391 28.6655L14.1947 31.874C14.3139 32.5501 13.8624 33.1949 13.1863 33.3141L10.3691 33.8109C9.28126 34.0027 8.24395 33.2763 8.05214 32.1886L6.03293 20.737C5.84112 19.6492 6.56746 18.6119 7.65525 18.4201Z" fill="#F2E9DC"/>
<path d="M15.0642 6.70882C15.5185 4.97439 16.9698 4.03738 18.4085 4.00102C19.8788 3.96406 21.364 4.87655 21.7072 6.6977L22.9677 12.2943C23.085 12.8153 23.5911 13.1522 24.1171 13.0595L32.3696 11.6043C32.8252 11.524 33.3338 11.5385 33.8274 11.7231C34.5878 12.0074 35.2516 12.3948 35.7401 13.0607C36.2145 13.7074 36.4408 14.5068 36.5696 15.4421C36.607 15.7142 36.6005 15.9815 36.5649 16.2313L35.0141 27.1191C34.831 28.4036 33.8426 29.4249 32.5648 29.6502L15.1191 32.7264C14.8847 33.5154 14.2253 34.1463 13.3596 34.299L10.5427 34.7957C8.91102 35.0834 7.35504 33.9939 7.06733 32.3622L5.04817 20.9109C4.76046 19.2792 5.84996 17.7233 7.48164 17.4356L10.1235 16.9697C10.624 16.8815 11.1156 16.9544 11.5456 17.1503L15.0642 6.70882Z" stroke="#F2E9DC" stroke-width="2"/>
</g>
<path d="M7.65525 18.4201L10.2976 17.9542C11.0703 17.818 11.8072 18.3339 11.9434 19.1067L16.0117 7.02838C16.6407 4.39267 20.2691 4.29373 20.7318 6.91743L21.9922 12.514C22.2268 13.556 23.2388 14.2297 24.2906 14.0442L32.5431 12.5891C32.856 12.5339 33.1795 12.5489 33.4771 12.6601C34.7985 13.1541 35.34 13.8399 35.5793 15.5788C35.6026 15.7481 35.5994 15.9206 35.5753 16.0898L34.0237 26.978C33.9016 27.8344 33.2429 28.5153 32.391 28.6655L14.1947 31.874C14.3139 32.5501 13.8624 33.1949 13.1863 33.3141L10.3691 33.8109C9.28126 34.0027 8.24395 33.2763 8.05214 32.1886L6.03293 20.737C5.84112 19.6493 6.56746 18.6119 7.65525 18.4201Z" fill="#FFCE99"/>
<path d="M11.9434 19.1067L16.0117 7.02838C16.6407 4.39267 20.2691 4.29373 20.7318 6.91743L21.9922 12.514C22.2268 13.556 23.2388 14.2297 24.2906 14.0442L32.5431 12.5891C32.856 12.5339 33.1795 12.5489 33.4771 12.6601C34.7985 13.1541 35.34 13.8399 35.5793 15.5788C35.6026 15.7481 35.5994 15.9206 35.5753 16.0898L34.0237 26.978C33.9016 27.8344 33.2429 28.5153 32.391 28.6655L14.1947 31.874M11.9434 19.1067L14.1947 31.874M11.9434 19.1067C11.8072 18.3339 11.0703 17.818 10.2976 17.9542L7.65525 18.4201C6.56746 18.6119 5.84113 19.6493 6.03293 20.737L8.05214 32.1886C8.24395 33.2763 9.28126 34.0027 10.3691 33.8109L13.1863 33.3141C13.8624 33.1949 14.3139 32.5501 14.1947 31.874" stroke="#FE7500" stroke-width="1.22"/>
<defs>
<filter id="filter0_dd_349_2432" x="0" y="0" width="41.5938" height="40.8418" filterUnits="userSpaceOnUse" color-interpolation-filters="sRGB">
<feFlood flood-opacity="0" result="BackgroundImageFix"/>
<feColorMatrix in="SourceAlpha" type="matrix" values="0 0 0 0 0 0 0 0 0 0 0 0 0 0 0 0 0 0 127 0" result="hardAlpha"/>
<feMorphology radius="1" operator="dilate" in="SourceAlpha" result="effect1_dropShadow_349_2432"/>
<feOffset dy="1"/>
<feGaussianBlur stdDeviation="1.5"/>
<feColorMatrix type="matrix" values="0 0 0 0 0 0 0 0 0 0 0 0 0 0 0 0 0 0 0.15 0"/>
<feBlend mode="normal" in2="BackgroundImageFix" result="effect1_dropShadow_349_2432"/>
<feColorMatrix in="SourceAlpha" type="matrix" values="0 0 0 0 0 0 0 0 0 0 0 0 0 0 0 0 0 0 127 0" result="hardAlpha"/>
<feOffset dy="1"/>
<feGaussianBlur stdDeviation="1"/>
<feColorMatrix type="matrix" values="0 0 0 0 0 0 0 0 0 0 0 0 0 0 0 0 0 0 0.3 0"/>
<feBlend mode="normal" in2="effect1_dropShadow_349_2432" result="effect2_dropShadow_349_2432"/>
<feBlend mode="normal" in="SourceGraphic" in2="effect2_dropShadow_349_2432" result="shape"/>
</filter>
</defs>
</svg>
