<svg width="93" height="52" viewBox="0 0 93 52" fill="none" xmlns="http://www.w3.org/2000/svg">
<path d="M73.4288 8.00022C73.9885 6.40385 74.2977 4.59342 75.1166 3.11284C75.6207 2.20165 76.9498 1.6237 77.9657 1.76817C79.0098 1.91664 80.066 2.36629 81.0717 2.69716C83.029 3.32573 84.9789 3.97746 86.9208 4.65224C87.6156 4.89554 88.1174 5.07748 88.6904 5.57809C89.9786 6.70335 90.1216 8.19164 89.5713 9.73341C89.5591 9.76731 89.5459 9.80091 89.5321 9.83421C89.4647 10.2315 87.6315 16.0811 87.497 16.3108C87.0806 17.7793 86.4263 19.1975 84.8239 19.6431C84.3723 19.7359 83.8232 19.8548 83.3668 19.7466C83.2767 19.8478 83.3782 24.8475 83.2721 25.4564C83.2257 25.7217 83.186 27.1177 83.1122 27.5498C82.1939 32.9277 79.0269 34.7844 73.8277 34.9963C67.5452 35.2524 61.3146 35.2697 55.0272 35.2367C54.4542 35.2338 51.1508 35.3436 50.8688 35.2288L50.6424 35.2561C51.7504 36.1087 53.5878 37.0475 53.9883 38.4882C54.2754 39.5379 54.1375 40.6514 53.5548 41.5543C53.0911 42.2728 52.2991 43.4411 51.7568 44.0932C51.6439 44.2421 51.0024 45.1348 50.9428 45.1686C50.2909 46.1449 49.4909 47.1419 48.8012 48.1063C47.9127 49.1648 47.1929 49.976 45.6876 50.1162C45.2511 50.157 44.5886 50.0777 44.1759 49.9195C43.0188 49.5889 40.6015 47.7538 39.495 47.0506C38.4654 46.381 37.4502 45.6964 36.4604 44.9697C35.3997 44.1908 34.6351 43.2791 34.4676 41.922C34.3923 41.3291 34.4621 40.7269 34.6711 40.1668C35.0198 39.2399 37.1826 36.294 37.8661 35.4248C37.6336 35.37 35.8751 35.3826 35.5055 35.3818C34.1828 35.3728 32.8602 35.3561 31.5376 35.3312L21.9711 35.087C19.0905 34.9961 16.0415 34.8949 13.182 34.5452C10.5296 34.2209 8.51459 32.9712 6.90206 30.8739C6.76933 30.8311 6.07434 30.8313 5.80333 30.791C4.78705 30.8508 3.78381 30.6404 3.02261 29.9263C2.09895 29.0785 1.95321 27.7603 1.92436 26.5695C1.8729 24.3878 1.86476 22.216 1.80663 20.0331C1.77342 18.7862 1.85516 17.5664 2.76065 16.593C3.95449 15.3095 5.83226 15.557 7.4342 15.5136C7.43574 15.4435 7.43926 15.3734 7.44474 15.3036C7.71489 11.9036 9.86921 8.6063 13.5032 8.27064C18.9138 7.77087 24.4088 7.78488 29.841 7.6557C39.2599 7.47932 48.6816 7.49545 58.1 7.70407L67.8052 7.88641L71.3886 7.95628C72.0459 7.9681 72.7809 7.94939 73.4288 8.00022Z" fill="url(#paint0_linear_159_465)"/>
<path d="M38.4967 34.5699C39.6084 33.1313 40.644 31.4051 42.5574 31.1685C43.2975 31.0787 44.0482 31.1687 44.7457 31.4312C45.5511 31.7339 46.4276 32.3862 47.1485 32.8821C48.0341 33.4967 48.9229 34.1067 49.8147 34.7122C50.0559 34.9219 50.3599 35.1051 50.6417 35.2574C51.7497 36.11 53.5871 37.0489 53.9876 38.4895C54.2747 39.5392 54.1368 40.6528 53.5541 41.5557C53.0905 42.2741 52.2984 43.4425 51.7561 44.0946C51.6432 44.2434 51.0018 45.1361 50.9421 45.17C50.2903 46.1463 49.4902 47.1433 48.8005 48.1077C47.912 49.1661 47.1922 49.9773 45.6869 50.1176C45.2505 50.1583 44.5879 50.079 44.1752 49.9208C43.0181 49.5903 40.6008 47.7552 39.4943 47.0519C38.4647 46.3824 37.4495 45.6978 36.4597 44.971C35.399 44.1921 34.6344 43.2805 34.4669 41.9234C34.3916 41.3305 34.4614 40.7283 34.6704 40.1682C35.0191 39.2413 37.1819 36.2954 37.8654 35.4261C38.1124 35.1227 38.2772 34.894 38.4967 34.5699Z" fill="#E3C3A1"/>
<path d="M40.6443 43.9795C39.3094 42.8053 38.7094 41.005 39.0735 39.2659C39.4373 37.5268 40.7089 36.1172 42.403 35.5753C44.097 35.0332 45.952 35.4423 47.2599 36.6466C47.5466 36.9106 47.8011 37.2075 48.018 37.5313C49.3984 39.5922 49.0336 42.3559 47.166 43.9892C45.2982 45.6226 42.5072 45.6184 40.6443 43.9795Z" fill="url(#paint1_linear_159_465)"/>
<path d="M41.4676 38.1717C41.7717 38.1258 42.6177 37.0787 43.453 37.083C43.7985 37.0847 44.5216 36.9989 44.8787 37.2861C45.2131 37.197 46.1386 37.9237 46.1726 38.1473C45.8749 38.0311 45.8609 37.9023 45.6559 37.7736L45.6787 37.8066C45.8573 38.0589 46.0737 38.2732 46.2452 38.5297C47.0587 39.7466 46.8046 41.6774 45.5852 42.4801C44.3309 43.3058 42.4357 43.2255 41.5515 41.9606C41.4901 41.873 41.3347 41.6886 41.2469 41.6316C41.1591 41.5149 41.037 41.0986 41.0078 40.9427C40.8585 40.1457 40.9847 39.3528 41.3017 38.6123C41.3017 38.6123 41.2578 38.448 41.2536 38.4325C41.3067 38.3449 41.3982 38.2499 41.4676 38.1717Z" fill="url(#paint2_linear_159_465)"/>
<path d="M42.7479 38.176C43.844 38.0468 43.9566 39.5139 42.5249 39.9989C42.3049 40.0645 42.0402 40.1235 41.8143 40.1798C41.6283 39.2908 41.9832 38.6447 42.7479 38.176Z" fill="#FFAAAA"/>
<path d="M41.2566 38.4329C41.1157 38.6293 40.9437 39.046 40.8097 39.1348C40.6333 38.9923 40.6253 38.4441 40.6358 38.2288C40.6811 37.2984 42.2972 36.2501 43.0276 37.0774C42.4563 37.3283 41.8571 37.669 41.4706 38.1721C41.4011 38.2504 41.3097 38.3453 41.2566 38.4329Z" fill="#FFAAAA"/>
<path d="M47.2601 36.6484C47.4505 36.73 47.53 36.7868 47.7315 36.8168C47.9328 36.8469 48.0655 37.0216 48.154 37.2044C48.4292 37.3712 48.7525 37.5606 48.9806 37.7888C49.5649 38.3722 50.0351 39.0828 50.5843 39.7037C50.7292 39.8673 50.8483 40.1382 50.9734 40.3208C51.4016 41.0769 51.873 41.8661 51.9636 42.7478C51.9857 42.9621 51.8623 42.9982 51.971 43.2584C51.8875 43.3881 51.7278 43.6532 51.6194 43.7517L51.5622 43.7551C51.3515 44.0525 51.1587 44.3779 50.9661 44.6889C51.0147 44.6896 51.0633 44.6908 51.1119 44.692C51.1255 44.8877 50.9375 44.9399 50.9404 45.1701C50.2885 46.1464 49.4885 47.1434 48.7988 48.1077L48.729 47.9751C48.6254 48.0635 48.512 48.3248 48.3326 48.4951C48.2023 48.5191 48.2633 48.5298 48.1461 48.4507C48.1782 48.4157 48.2102 48.3803 48.2418 48.3447C48.3219 48.2542 48.5421 48.0148 48.536 47.9128L48.3995 48.0058C48.204 47.9834 47.9136 48.1207 47.6102 48.0848C45.4294 47.8255 43.5118 46.765 41.7621 45.493C41.0077 44.9445 40.9223 44.8468 40.6445 43.9814C42.5075 45.6203 45.2985 45.6244 47.1663 43.991C49.0339 42.3578 49.3986 39.594 48.0183 37.5332C47.8014 37.2094 47.5469 36.9125 47.2601 36.6484Z" fill="#B88A65"/>
<path d="M47.2617 36.6484C47.452 36.73 47.5316 36.7868 47.7331 36.8168C47.9343 36.8469 48.0671 37.0216 48.1556 37.2044L48.1736 37.2342C48.2427 37.3458 48.6113 37.8143 48.7122 37.9364C48.5001 37.9392 48.3388 37.5942 48.0199 37.5332C47.803 37.2094 47.5485 36.9125 47.2617 36.6484Z" fill="#B08C67"/>
<path d="M53.9869 38.4883C54.2741 39.538 54.1361 40.6515 53.5534 41.5544C53.0898 42.2729 52.2977 43.4412 51.7554 44.0933C51.6426 44.2422 51.0011 45.1349 50.9414 45.1687C50.9385 44.9385 51.1266 44.8864 51.1129 44.6907C51.0643 44.6895 51.0158 44.6883 50.9672 44.6876C51.1598 44.3766 51.3525 44.0512 51.5632 43.7538L51.6204 43.7503C51.7288 43.6519 51.8886 43.3868 51.972 43.2571C53.1869 41.2726 53.8765 41.136 53.9869 38.4883Z" fill="#B08C67"/>
<path d="M48.3978 48.0052L48.5344 47.9121C48.5405 48.0142 48.3202 48.2535 48.2402 48.344C48.2086 48.3796 48.1766 48.415 48.1444 48.4501C48.2616 48.5292 48.2006 48.5185 48.3309 48.4945C48.5104 48.3242 48.6238 48.0629 48.7273 47.9745L48.7972 48.1071C47.9086 49.1656 47.1888 49.9768 45.6836 50.117C45.2471 50.1578 44.5845 50.0785 44.1719 49.9203C44.4823 49.7725 45.6837 50.2132 45.9233 49.8901C45.7401 49.7607 44.7644 49.8572 44.5546 49.7065C44.8946 49.688 45.2438 49.8326 45.6803 49.7714C47.008 49.5858 47.6146 48.9537 48.3978 48.0052Z" fill="#B08C67"/>
<path d="M73.4277 8.00022C73.9875 6.40385 74.2967 4.59342 75.1156 3.11284C75.6196 2.20165 76.9488 1.6237 77.9647 1.76817C79.0088 1.91664 80.065 2.36629 81.0707 2.69716C83.028 3.32573 84.9779 3.97746 86.9198 4.65224C87.6146 4.89554 88.1164 5.07748 88.6894 5.57809C89.9776 6.70335 90.1205 8.19164 89.5703 9.73341C89.5581 9.76731 89.5449 9.80091 89.5311 9.83421C89.4637 10.2315 87.6305 16.0811 87.496 16.3108C87.0795 17.7793 86.4253 19.1975 84.8228 19.6431C84.3713 19.7359 83.8221 19.8548 83.3658 19.7466C83.2391 19.6695 83.2306 19.6236 83.1583 19.4856L83.1073 19.493C82.833 19.5231 82.5749 19.5179 82.2999 19.5176L77.44 17.8182C76.2667 17.4039 74.2296 16.8483 73.3323 16.1236C70.9886 14.0415 72.5384 11.6137 73.1283 9.0833L73.2174 8.86095C73.306 8.61941 73.3719 8.25962 73.4277 8.00022Z" fill="#AE3134"/>
<path d="M73.4277 8.00022C73.9875 6.40385 74.2967 4.59342 75.1156 3.11284C75.6196 2.20165 76.9488 1.6237 77.9647 1.76817C79.0088 1.91664 80.065 2.36629 81.0707 2.69716C83.028 3.32573 84.9779 3.97746 86.9198 4.65224C87.6146 4.89554 88.1164 5.07748 88.6894 5.57809C89.9776 6.70335 90.1205 8.19164 89.5703 9.73341C89.5581 9.76731 89.5449 9.80091 89.5311 9.83421L89.4542 9.79941C89.4493 9.74998 89.4329 9.6084 89.4305 9.56433C89.3599 8.29345 87.975 8.28172 87.5905 7.86031C87.6268 7.77298 87.6241 7.73018 87.6303 7.63758C87.5048 7.47989 78.7745 4.5149 77.9299 4.2173C77.8686 4.68341 77.5092 5.69506 77.3469 6.18885L76.4686 8.88591C75.9595 10.4097 75.48 11.9422 74.965 13.4635C74.8777 13.7212 74.8072 13.7635 74.5918 13.9044C74.7237 13.9654 74.9109 14.0614 75.0468 14.0944C75.1833 14.6228 76.1075 15.5292 76.5916 15.7706C78.0577 16.5013 79.8508 17.2362 81.34 17.8952C82.6518 18.4756 84.8583 18.8292 86.1459 18.2548C86.1992 18.2316 86.5311 18.2238 86.5345 18.2202C86.9542 17.7862 87.1995 16.764 87.4465 16.2388L87.496 16.3108C87.0795 17.7793 86.4253 19.1975 84.8228 19.6431C84.3713 19.7359 83.8221 19.8548 83.3658 19.7466C83.2391 19.6695 83.2306 19.6236 83.1583 19.4856L83.1073 19.493C82.833 19.5231 82.5749 19.5179 82.2999 19.5176L77.44 17.8182C76.2667 17.4039 74.2296 16.8483 73.3323 16.1236C70.9886 14.0415 72.5384 11.6137 73.1283 9.0833L73.2174 8.86095C73.306 8.61941 73.3719 8.25962 73.4277 8.00022Z" fill="url(#paint3_linear_159_465)"/>
<path d="M74.5915 13.9059C74.5262 13.8653 74.4861 13.858 74.4728 13.7756C74.4513 13.6416 77.3976 4.47748 77.6223 4.19782C77.7719 4.14758 77.7463 4.17171 77.9297 4.21877C77.8683 4.68487 77.5089 5.69653 77.3466 6.19032L76.4683 8.88737C75.9592 10.4111 75.4797 11.9436 74.9647 13.465C74.8774 13.7226 74.8069 13.7649 74.5915 13.9059Z" fill="#EA4344"/>
<path d="M73.332 16.124C73.4639 16.0778 73.522 16.0231 73.6582 16.0892C75.2975 16.8854 77.1637 17.4211 78.8837 18.0337C79.832 18.3746 80.7828 18.7086 81.7359 19.0354C82.1134 19.1645 82.7376 19.3973 83.1071 19.4934C82.8327 19.5234 82.5746 19.5182 82.2996 19.5179L77.4398 17.8185C76.2664 17.4042 74.2294 16.8486 73.332 16.124Z" fill="#B08C67"/>
<path d="M83.1562 19.4863C83.6168 19.5033 84.3976 19.5244 84.8207 19.644C84.3692 19.7368 83.82 19.8559 83.3637 19.7475C83.237 19.6704 83.2285 19.6244 83.1562 19.4863Z" fill="#B08C67"/>
<path d="M87.5906 7.86133C87.9751 8.28274 89.3601 8.29447 89.4306 9.56534C89.433 9.60942 89.4494 9.751 89.4543 9.80043L89.5312 9.83523C89.4638 10.2325 87.6306 16.0821 87.4961 16.3118L87.4466 16.2398C87.1996 16.765 86.9543 17.7872 86.5346 18.2212C86.5312 18.2249 86.1993 18.2326 86.146 18.2558C84.8584 18.8302 82.652 18.4767 81.3401 17.8962C79.8509 17.2372 78.0578 16.5023 76.5917 15.7716C76.1076 15.5302 75.1834 14.6239 75.0469 14.0954C75.3015 14.184 75.7328 14.347 75.9814 14.4145L76.4113 14.5506C77.1328 14.7575 77.9428 15.0682 78.6632 15.3214C79.8516 15.7409 81.0459 16.1435 82.2456 16.5294C82.6922 16.6712 84.1458 17.2539 84.5007 17.0139C84.6395 16.4547 85.2091 14.972 85.4197 14.3486L87.4747 8.16824L87.5906 7.86133Z" fill="#B08C67"/>
<path d="M87.4739 8.16797C87.5324 8.39169 87.7808 8.4889 87.8077 8.64872L87.6172 8.58124C87.5104 8.74562 87.7505 9.05743 87.7189 9.29533C87.579 10.3419 87.0404 11.1903 86.6359 12.1411C86.4236 12.6399 86.2931 13.2099 86.0974 13.7191C85.7007 14.6725 85.315 15.6503 84.7866 16.5373C84.7118 16.6628 84.6577 16.8741 84.5812 17.0197L84.5 17.0136C84.6388 16.4544 85.2084 14.9718 85.4189 14.3483L87.4739 8.16797Z" fill="#B08D67"/>
<path d="M75.9805 14.4141L76.4104 14.5502C77.1319 14.757 77.9419 15.0677 78.6623 15.3209C79.8507 15.7404 81.045 16.143 82.2447 16.529C82.6913 16.6708 84.1449 17.2535 84.4998 17.0134L84.5811 17.0194C84.5382 17.0922 84.5188 17.0977 84.4537 17.1538C83.9107 17.345 81.5944 16.6749 80.9854 16.4058C80.7847 16.3171 79.8853 15.9886 79.7212 15.9758C79.5879 16.0409 79.5712 16.0449 79.4267 16.0131C79.5601 16.1162 79.5973 16.116 79.6204 16.2431C79.1798 16.2984 76.7257 15.1613 76.2685 14.7667C76.187 14.6966 76.0463 14.5096 75.9805 14.4141Z" fill="#B08D67"/>
<path d="M78.9182 6.17578C81.0269 6.80338 83.1161 7.6449 85.2266 8.27926C85.3753 8.32392 85.5879 8.43785 85.7162 8.52914C85.5592 8.59186 80.7984 6.95398 80.2461 6.75599C80.0691 6.81272 80.1215 6.76851 80.0257 6.95453L79.9892 7.02606C80.3016 7.38392 84.0757 11.4082 84.2818 11.5175C84.395 11.4821 84.595 11.5424 84.6679 11.6382C84.6041 12.0874 83.6838 14.8149 83.4804 15.3211C82.4019 14.9145 81.2888 14.4769 80.1988 14.1177L78.1735 13.4478C77.8464 13.3424 77.0661 13.116 76.7934 12.9642C76.7588 12.9449 76.7043 12.9106 76.7116 12.8869C77.1441 11.4898 78.5553 7.28453 78.9182 6.17578Z" fill="url(#paint4_linear_159_465)"/>
<path d="M77.6445 12.9938L78.9666 8.90945C79.1234 8.42545 79.498 7.17828 79.6969 6.77148C79.8338 6.81091 79.8769 6.90303 79.9868 7.02584C80.2992 7.3837 84.0733 11.408 84.2793 11.5173C84.1414 11.6488 83.8493 11.7005 83.6608 11.7351C81.6705 12.1004 79.6369 12.6759 77.6445 12.9938Z" fill="#F2F0EB"/>
<path d="M78.9182 6.17578C81.0269 6.80338 83.1161 7.6449 85.2266 8.27926C85.3753 8.32392 85.5879 8.43785 85.7162 8.52914C85.5592 8.59186 80.7984 6.95398 80.2461 6.75599C79.8926 6.65261 79.3061 6.43451 79.0003 6.36247C78.4769 8.16223 77.4196 11.0066 76.8644 12.9027C76.8407 12.9232 76.817 12.9437 76.7934 12.9642C76.7588 12.9449 76.7043 12.9106 76.7116 12.8869C77.1441 11.4898 78.5553 7.28453 78.9182 6.17578Z" fill="#420305"/>
<path d="M8.35305 15.5148C8.95338 15.4276 9.62727 15.5505 10.0723 15.4948C10.7167 15.5084 11.7436 15.5471 12.3685 15.5096C12.8748 15.554 13.3136 15.5827 13.8045 15.7269C15.5693 16.2448 16.3009 17.859 16.2987 19.5759C16.4332 21.3663 16.1776 23.4948 16.2783 25.232C16.6408 31.4883 13.1553 30.591 8.62652 30.8293C8.05686 30.845 7.4697 30.8704 6.90206 30.8752C6.76933 30.8324 6.07434 30.8326 5.80333 30.7923C4.78705 30.8521 3.78381 30.6417 3.02261 29.9276C2.09895 29.0798 1.95321 27.7616 1.92436 26.5708C1.8729 24.3891 1.86476 22.2173 1.80663 20.0344C1.77342 18.7875 1.85516 17.5677 2.76065 16.5943C3.95449 15.3108 5.83226 15.5583 7.4342 15.515C7.59838 15.4802 8.18039 15.4923 8.35305 15.5148Z" fill="url(#paint5_linear_159_465)"/>
<path d="M5.80078 30.7907C6.00497 30.7622 6.67268 30.7492 6.73005 30.7135L6.7131 30.6636L6.56836 30.681L6.54867 30.6247C6.7104 30.493 9.56839 30.2621 9.95268 30.2557C12.4782 30.2142 15.155 30.5045 15.7991 27.3363C15.9299 26.6926 15.8684 25.755 15.8736 25.0711C15.8805 23.7344 15.8973 22.3975 15.9241 21.061C15.9287 20.821 15.9148 19.8347 15.963 19.6879C16.1101 20.5455 15.7974 23.7769 15.9714 24.2639C16.4457 23.7729 15.9625 20.1524 16.2962 19.5742C16.4306 21.3646 16.1751 23.4932 16.2758 25.2304C16.6383 31.4867 13.1528 30.5893 8.62397 30.8277C8.05432 30.8434 7.46716 30.8688 6.89951 30.8736C6.76679 30.8308 6.0718 30.8309 5.80078 30.7907Z" fill="url(#paint6_linear_159_465)"/>
<path d="M7.47345 19.3262C7.9443 19.4381 8.3005 19.6429 8.7236 19.8728C9.01276 19.8498 11.2803 21.2658 11.6847 21.5033L11.6858 21.5469L11.5012 21.5431C11.8734 21.7198 12.0178 21.986 12.3212 22.2381C12.497 22.3842 12.8541 22.456 13.0275 22.6289C13.2968 22.9322 13.4136 23.0684 13.3334 23.4622C14.2941 24.6314 14.4346 26.6772 13.1277 27.6559C12.3721 28.2219 11.436 28.6742 10.4653 28.574C9.64205 28.4825 8.83421 27.8304 8.17647 27.3573C7.95049 27.2098 6.98327 26.6836 6.8929 26.5688L6.91523 26.5135C6.66849 26.3042 6.15379 26.0919 6.05474 25.679C5.83251 24.6956 5.88941 23.6857 5.92238 22.6894C5.97908 20.976 5.47287 19.8819 7.47345 19.3262Z" fill="#F2F0EB"/>
<path d="M12.1742 22.4855L12.2757 22.4492C12.32 22.5076 12.3652 22.5653 12.4115 22.6221C12.5981 22.852 13.0761 23.1965 13.3351 23.4607C14.2958 24.6299 14.4362 26.6758 13.1294 27.6545C12.3737 28.2204 11.4376 28.6727 10.4669 28.5725C9.64368 28.481 8.83585 27.8289 8.1781 27.3559C7.95212 27.2084 6.9849 26.6821 6.89453 26.5673L6.91687 26.512L7.2146 26.6065C7.48003 26.4179 7.6148 26.3583 7.9399 26.3079C8.59484 25.9906 9.57404 25.2074 10.2558 24.7588C10.3376 24.6463 11.2161 24.0388 11.3921 23.9075C11.5336 23.7738 11.6561 23.641 11.7886 23.4989L11.8051 23.6631C11.832 23.6744 11.9029 23.7063 11.9328 23.7134C11.9998 23.6269 12.098 23.4141 12.1513 23.3077C12.2413 22.9974 12.2127 22.8005 12.1742 22.4855Z" fill="url(#paint7_linear_159_465)"/>
<path d="M12.1513 23.3086L12.2883 23.5519L12.3424 23.5319L12.2849 23.5542L12.3747 23.4718C12.4992 23.755 12.4185 24.1662 12.3025 24.4396C11.9679 25.228 11.0939 25.3639 10.447 25.7684C10.0008 26.0473 9.64057 26.5436 9.1396 26.7635C8.85075 26.8973 8.51083 26.7222 8.31923 26.8811C8.29064 27.0279 8.29313 27.0486 8.30167 27.1997L8.1781 27.3567C7.95212 27.2092 6.9849 26.683 6.89453 26.5682L6.91687 26.5129L7.2146 26.6074C7.48003 26.4188 7.6148 26.3592 7.9399 26.3088C8.59484 25.9915 9.57404 25.2083 10.2558 24.7596C10.3376 24.6472 11.2161 24.0396 11.3921 23.9084C11.5336 23.7747 11.6561 23.6419 11.7886 23.4998L11.8051 23.664C11.832 23.6752 11.9029 23.7072 11.9328 23.7143C11.9998 23.6277 12.098 23.415 12.1513 23.3086Z" fill="#B48D4B"/>
<path d="M7.9375 26.3089C8.59244 25.9916 9.57164 25.2084 10.2534 24.7598C10.1969 25.1173 10.0824 24.8268 9.91899 25.3242C9.64331 25.582 8.65244 26.2985 8.30966 26.4611C8.14053 26.4098 8.09188 26.3934 7.9375 26.3089Z" fill="#DFD8D3"/>
<path d="M11.3926 23.9082L11.4538 23.9773C11.395 24.0685 11.3124 24.1781 11.3145 24.2876C11.1068 24.4973 10.1983 25.1485 9.92188 25.3238C10.0853 24.8265 10.1998 25.1169 10.2563 24.7595C10.3381 24.647 11.2165 24.0395 11.3926 23.9082Z" fill="#DFD8D3"/>
<path d="M7.21484 26.6075C7.48027 26.4187 7.61504 26.3591 7.94014 26.3086C8.09452 26.3931 8.14317 26.4095 8.3123 26.4609C7.89231 26.6559 7.6744 26.7138 7.21484 26.6075Z" fill="#DFD8D3"/>
<path d="M11.7871 23.5L11.8036 23.6644C11.8305 23.6756 11.9015 23.7076 11.9313 23.7147C11.7778 23.9477 11.54 24.1316 11.3125 24.2888C11.3105 24.1792 11.393 24.0694 11.4518 23.9781L11.3907 23.909C11.5322 23.7752 11.6547 23.6423 11.7871 23.5Z" fill="#DFD8D3"/>
<path d="M8.72266 19.8714C9.01182 19.8484 11.2794 21.2644 11.6838 21.5018L11.6849 21.5455L11.5002 21.5417C11.8725 21.7184 12.0168 21.9846 12.3203 22.2367C12.4961 22.3828 12.8532 22.4546 13.0266 22.6275C13.2958 22.9308 13.4127 23.067 13.3325 23.4608C13.0736 23.1966 12.5955 22.852 12.4089 22.6222C12.3627 22.5653 12.3174 22.5077 12.2731 22.4493L12.1716 22.4856L12.1188 22.5106C11.7955 21.6469 9.59309 20.4422 8.72266 19.8714Z" fill="#E6CFA0"/>
<path d="M12.118 22.5114L12.1708 22.4863C12.2093 22.8013 12.2378 22.9982 12.1478 23.3086C12.0946 23.4149 11.9963 23.6277 11.9293 23.7142C11.8995 23.7072 11.8286 23.6752 11.8016 23.664L11.7852 23.4997C11.9266 23.1827 12.1493 22.8288 12.118 22.5114Z" fill="#DFD9D2"/>
<path d="M7.43359 15.5143C7.43513 15.4442 7.43866 15.3741 7.44414 15.3043C7.71429 11.9043 9.8686 8.60696 13.5026 8.2713C18.9132 7.77153 24.4082 7.78554 29.8404 7.65636C39.2593 7.47998 48.681 7.49611 58.0994 7.70473L67.8046 7.88707L71.388 7.95695C72.0453 7.96876 72.7803 7.95006 73.4282 8.00088C73.3723 8.26028 73.3065 8.62007 73.2178 8.86161C73.0676 8.7464 71.3645 8.77189 71.0729 8.78438C70.57 8.73367 69.8089 8.74174 69.2883 8.73198L65.9714 8.66882C63.8604 8.62327 61.7852 8.62622 59.6788 8.59734C57.9566 8.55757 56.2342 8.52938 54.5116 8.51277C53.832 8.4355 52.2409 8.4688 51.4969 8.45752C49.0259 8.42616 46.5544 8.41635 44.083 8.42808L36.9837 8.4345C35.8743 8.43689 33.7927 8.40723 32.7704 8.51477C28.1669 8.54861 23.5639 8.63618 18.9627 8.77745C17.8309 8.81685 16.6996 8.86897 15.569 8.93384C14.7506 8.98114 13.8385 9.00989 13.0464 9.20434C11.9743 9.46217 10.9958 10.0143 10.2214 10.7984C9.25971 11.7585 8.68337 13.0314 8.44843 14.3584C8.39625 14.6532 8.29158 15.1793 8.34728 15.4709L8.35244 15.5141C8.17979 15.4917 7.59778 15.4796 7.43359 15.5143Z" fill="#E3C3A1"/>
<path d="M82.3002 19.5183C82.5752 19.5186 82.8333 19.5238 83.1076 19.4938L83.1586 19.4863C83.2309 19.6243 83.2393 19.6703 83.366 19.7473C83.276 19.8485 83.3775 24.8482 83.2713 25.4572C83.225 25.7224 83.1852 27.1184 83.1114 27.5505C82.1932 32.9284 79.0262 34.7851 73.827 34.997C67.5445 35.2532 61.3138 35.2704 55.0265 35.2374C54.4534 35.2345 51.15 35.3443 50.8681 35.2295C50.7485 35.0665 50.7217 35.1758 50.6914 34.9981C51.0437 34.3796 54.0878 34.7169 54.3903 34.5188L59.7793 34.4409C60.6822 34.4268 61.8474 34.4418 62.7309 34.3772C63.3643 34.3822 63.9978 34.3769 64.631 34.361C64.8507 34.3902 66.1031 34.3561 66.416 34.3518C67.4146 34.3378 68.4129 34.3111 69.4107 34.2717C69.9225 34.2542 70.6404 34.2501 71.1364 34.1914C71.3552 34.2054 72.1531 34.1572 72.3958 34.1439C73.8892 34.0615 75.6481 33.9798 77.0925 33.6044C77.2182 33.5812 77.2939 33.5558 77.4163 33.5168C77.5624 33.479 77.6042 33.4724 77.7548 33.4648C80.2002 32.5388 81.4983 30.5431 82.0345 28.0546C82.1605 27.3531 82.2464 26.8134 82.2551 26.1029C82.2208 25.3556 82.2744 24.2527 82.2838 23.477C82.2998 22.162 82.272 20.8265 82.3002 19.5183Z" fill="url(#paint8_linear_159_465)"/>
<path d="M82.2542 26.1029C82.3054 26.0295 82.3047 26.0129 82.3059 25.9238C82.4755 26.1912 82.3183 27.5457 82.2312 28.032C81.8663 30.069 80.6547 32.1798 78.7748 33.1794C78.4794 33.3365 78.0806 33.5832 77.7847 33.5761L77.7539 33.4649C80.1994 32.5388 81.4974 30.5431 82.0336 28.0546C82.1597 27.3531 82.2456 26.8134 82.2542 26.1029Z" fill="#AF8C74"/>
<path d="M6.89844 30.8741C7.46608 30.8692 8.05325 30.8438 8.6229 30.8281L8.54644 30.9083C8.58959 31.0304 8.78094 31.2105 8.87828 31.312C9.52033 31.9899 10.2835 32.5418 11.1285 32.9398C12.7758 33.7249 14.7196 33.7732 16.5167 33.9022C18.4509 34.0516 20.3887 34.1519 22.328 34.2031L33.6222 34.5093C35.0931 34.5352 36.5688 34.4856 38.0395 34.5424C38.1894 34.5483 38.346 34.545 38.4938 34.5687C38.2743 34.8928 38.1095 35.1215 37.8625 35.4249C37.63 35.3702 35.8715 35.3828 35.5019 35.3819C34.1791 35.3729 32.8566 35.3562 31.534 35.3313L21.9674 35.0871C19.0869 34.9963 16.0378 34.8951 13.1784 34.5454C10.526 34.221 8.51097 32.9714 6.89844 30.8741Z" fill="url(#paint9_linear_159_465)"/>
<path d="M8.344 15.4718C8.28831 15.1801 8.39297 14.6541 8.44516 14.3593C8.6801 13.0322 9.25644 11.7593 10.2181 10.7993C10.9925 10.0152 11.9711 9.46302 13.0432 9.20519C13.8353 9.01074 14.7473 8.98199 15.5657 8.93469C16.6963 8.86982 17.8277 8.8177 18.9594 8.7783C23.5606 8.63703 28.1636 8.54946 32.7671 8.51562C33.0081 8.52718 33.1891 8.5408 33.428 8.57234L33.4351 8.59408C33.1994 8.59835 31.6057 8.60467 31.5363 8.6467C31.9284 8.79611 33.0409 8.62071 33.4574 8.6915C32.2523 8.7869 30.8259 8.74312 29.5954 8.77169C26.3363 8.84733 23.1024 8.84314 19.8403 8.96436L17.4921 9.0548C17.1563 9.06824 16.409 9.08917 16.1108 9.14954C15.1731 9.17751 14.4873 9.25467 13.5651 9.37782C10.6321 10.07 9.05165 11.9378 8.62355 14.9247C8.58245 15.2115 8.64425 15.443 8.344 15.4718Z" fill="#463A39"/>
<path d="M8.34766 15.4709C8.6479 15.4421 8.5861 15.2107 8.62721 14.9238C9.0553 11.937 10.6358 10.0692 13.5688 9.37695C13.5556 9.59855 13.5343 9.74275 13.3348 9.8852C12.818 10.2543 12.6397 10.2932 12.1632 10.7236C12.2844 10.558 12.3924 10.4167 12.5228 10.2584L12.501 10.2335C12.2095 10.3823 12.1308 10.7567 11.6916 10.9299C11.5195 10.9978 10.9448 11.7409 10.8075 11.9525C9.92729 12.7548 9.56094 14.2834 9.49265 15.4369C9.61956 15.4407 9.98255 15.4376 10.0721 15.4941C9.62705 15.5499 8.95316 15.4269 8.35282 15.5141L8.34766 15.4709Z" fill="#473A39"/>
<path d="M54.5118 8.51367C56.2343 8.5303 57.9567 8.55851 59.679 8.59832C61.7853 8.62723 63.8605 8.62427 65.9715 8.66987L69.2884 8.73309C69.8091 8.74285 70.5702 8.73478 71.073 8.78553C71.3646 8.77303 73.0677 8.74752 73.2179 8.86284L73.1289 9.0854C72.7818 8.93286 70.3529 8.98391 69.7276 8.93456C65.9141 8.90419 62.1008 8.8493 58.2879 8.76996C58.3972 8.70935 59.9711 8.7838 60.2472 8.73412L60.2489 8.67029C59.6014 8.59205 58.7842 8.69741 58.1151 8.6673C56.2535 8.58351 54.4041 8.62254 52.5391 8.55715C53.1795 8.50733 53.8559 8.56259 54.5118 8.51367Z" fill="#433734"/>
<path d="M13.566 9.37671C14.4882 9.25356 15.1739 9.1764 16.1116 9.14844C16.2196 9.1521 16.4089 9.13426 16.4652 9.19298C16.0981 9.30035 15.6346 9.13322 15.1837 9.3711C14.7548 9.59739 13.9212 10.3213 13.4562 10.3623C12.7551 10.1589 11.3833 11.6027 10.8047 11.9523C10.942 11.7407 11.5167 10.9976 11.6889 10.9297C12.128 10.7564 12.2067 10.3821 12.4982 10.2333L12.52 10.2581C12.3896 10.4165 12.2816 10.5578 12.1604 10.7233C12.6369 10.293 12.8152 10.2541 13.332 9.88496C13.5315 9.74251 13.5529 9.59831 13.566 9.37671Z" fill="#473A39"/>
<path d="M10.807 11.9533C11.3856 11.6037 12.7574 10.1599 13.4585 10.3633C12.7362 10.7862 12.436 11.0259 11.8462 11.618C11.4056 12.0602 10.7225 12.4019 10.3139 12.8915C9.96422 13.2243 9.4936 15.0073 9.67193 15.3346C10.0842 15.5675 11.8601 15.2779 12.3678 15.5097C11.7429 15.5472 10.716 15.5085 10.0716 15.4948C9.9821 15.4384 9.6191 15.4415 9.49219 15.4377C9.56049 14.2842 9.92683 12.7556 10.807 11.9533Z" fill="#473A39"/>
<path d="M77.4141 33.5169C78.3894 32.9371 79.2231 32.5841 80.021 31.7232C80.9681 30.7013 81.3569 29.5239 81.8326 28.2488C81.8542 28.1906 81.9839 28.0906 82.0323 28.0547C81.496 30.5431 80.198 32.5389 77.7525 33.4649C77.602 33.4725 77.5601 33.4791 77.4141 33.5169Z" fill="#312622"/>
<path d="M71.1342 34.1929C70.9138 34.1682 70.5226 34.171 70.2891 34.1656C70.5081 34.1616 70.6014 34.1559 70.8166 34.1191L70.8291 34.0747C70.6844 34.0498 70.6097 34.0524 70.4647 34.0522C70.6464 33.9459 75.6018 33.8311 76.1788 33.5447C76.0644 33.6016 77.6992 33.1424 77.6236 33.1545C77.4959 33.3357 76.5035 33.5442 76.2552 33.6237L76.2525 33.6522C76.6884 33.6043 77.0229 33.4557 77.4523 33.3869C77.3292 33.4555 77.2084 33.5284 77.0903 33.6054C75.6459 33.9812 73.887 34.0629 72.3937 34.1454C72.151 34.1587 71.353 34.2069 71.1342 34.1929Z" fill="#302723"/>
<path d="M62.7299 34.3769C61.9396 34.3216 61.1128 34.3967 60.3242 34.3462C60.5163 34.2573 61.2815 34.3725 61.3633 34.2473C61.2426 34.2383 60.4373 34.248 60.4214 34.2366L60.528 34.1348C60.7403 34.146 60.9725 34.189 61.1744 34.1913C62.5472 34.2065 63.9543 34.0577 65.3165 34.2563C65.4935 34.2822 65.6994 34.2286 65.8662 34.2976C65.5811 34.3412 64.7737 34.2682 64.63 34.3607C63.9969 34.3766 63.3633 34.382 62.7299 34.3769Z" fill="#332623"/>
<path d="M49.8125 34.7114C50.1624 34.4445 52.6737 34.5864 53.2245 34.5231C53.4243 34.5001 54.1539 34.5126 54.3882 34.5184C54.0857 34.7167 51.0416 34.3791 50.6893 34.9981C50.7195 35.176 50.7463 35.0666 50.8659 35.2298L50.6395 35.2571C50.3577 35.1046 50.0536 34.9212 49.8125 34.7114Z" fill="#936C4C"/>
<path d="M42.7785 19.6848C42.8722 19.4568 42.9641 19.2209 43.1807 19.0802C43.4158 18.9275 43.7927 18.9035 44.0606 18.979C44.245 19.0311 44.4013 19.1484 44.4829 19.3242C44.602 19.5808 44.6081 24.3807 44.4976 24.6505C44.4426 24.7847 44.3043 24.8933 44.1747 24.9491C43.9349 25.0522 43.4902 25.0862 43.2519 24.9714C43.0089 24.8543 42.9043 24.4902 42.82 24.255C42.0467 25.074 41.1982 25.2696 40.1261 24.9729C37.4884 23.8854 37.8241 19.4251 40.7067 18.9862C41.5401 18.8595 42.1496 19.1878 42.7785 19.6848Z" fill="#F2F0EB"/>
<path d="M40.125 24.9744C40.6547 24.7105 40.925 24.9342 41.5082 24.7388C41.9655 24.5857 42.3444 24.2567 42.8189 24.2559C42.0457 25.0756 41.1971 25.2714 40.125 24.9744Z" fill="#F2F1EA"/>
<path d="M41.1909 20.4099C43.1081 20.2351 43.4004 23.1412 41.623 23.6216C39.9001 23.7717 39.6168 21.6359 40.6743 20.6826C40.8054 20.5643 41.0279 20.4786 41.1909 20.4099Z" fill="url(#paint10_linear_159_465)"/>
<path d="M55.8054 24.6759C53.2375 22.7588 54.9674 17.9325 58.3003 19.1766C58.5192 19.2583 58.7142 19.4982 58.9944 19.5755C59.1638 19.4723 59.0967 19.4096 59.1952 19.2574C59.509 18.7732 60.564 18.8277 60.7228 19.4281C60.8397 20.1102 60.7617 21.3165 60.7718 22.0576C60.7835 22.9168 60.8594 23.9582 60.6767 24.7778C60.5918 25.0585 59.8627 25.0497 59.5543 24.9882C59.1187 24.8062 59.2118 24.4855 59.0255 24.3109L58.9385 24.3751C58.1375 25.2576 56.7676 25.3253 55.8054 24.6759Z" fill="#F2F0EB"/>
<path d="M60.7232 19.4277C60.8401 20.1099 60.7621 21.3162 60.7722 22.0573C60.7839 22.9165 60.8598 23.9579 60.6771 24.7775C60.5922 25.0582 59.8631 25.0494 59.5547 24.9879C59.7001 24.9746 59.8852 24.9704 60.034 24.9632C60.1658 24.8193 60.3134 24.7046 60.4638 24.5805C60.6214 23.7893 60.5134 22.6402 60.5646 21.8114C60.614 21.0121 60.6816 20.2292 60.7232 19.4277Z" fill="#F2F1EA"/>
<path d="M55.8047 24.6764C55.8521 24.6425 55.9532 24.5744 56.0135 24.5899C56.6401 24.7516 57.256 24.8964 57.9027 24.7471C58.1748 24.6841 58.3461 24.5019 58.5843 24.3695C58.7287 24.2893 58.7947 24.3313 58.9378 24.3752C58.1368 25.2586 56.7668 25.3263 55.8047 24.6764Z" fill="#F2F1EA"/>
<path d="M56.3853 21.5687C56.3419 21.454 56.26 21.4773 56.2458 21.3464C56.1576 20.5368 57.7092 19.8475 58.2709 20.3C58.2856 20.4383 58.2994 20.482 58.371 20.6015C59.0887 21.2395 59.2412 22.4696 58.6047 23.1903C58.368 23.4554 58.0337 23.6128 57.6787 23.626C57.3485 23.643 57.0256 23.5254 56.7836 23.3003C56.2911 22.8408 56.2596 22.1862 56.3853 21.5687Z" fill="url(#paint11_linear_159_465)"/>
<path d="M56.3853 21.5687C56.3419 21.454 56.26 21.4773 56.2458 21.3464C56.1576 20.5368 57.7092 19.8475 58.2709 20.3C58.2856 20.4383 58.2994 20.482 58.371 20.6015C57.4429 20.1577 56.685 20.6366 56.3853 21.5687Z" fill="#F2F1EA"/>
<path d="M49.8152 24.794C49.2038 24.465 48.7272 23.9324 48.4681 23.2889C47.861 21.7811 48.4515 19.6332 50.0667 19.1061C51.7136 18.5688 53.3523 19.0997 53.9713 20.7557C54.0891 21.3134 54.3257 22.4076 53.482 22.5454C52.7988 22.657 50.4761 22.3971 49.9544 22.6304C51.0282 24.9671 53.1471 22.376 53.8408 23.6704C54.2299 25.2935 50.8249 25.3178 49.8152 24.794Z" fill="#F2F0EB"/>
<path d="M53.9732 20.7559C54.0909 21.3135 54.3275 22.4078 53.4838 22.5456C52.8006 22.6571 50.4779 22.3972 49.9562 22.6305C49.8834 22.5033 49.8748 22.4252 49.9318 22.2991C50.4608 22.0775 53.1014 22.3401 53.7215 22.1808C53.7573 21.8522 53.7332 21.4544 53.8205 21.1336C53.8371 21.0728 53.9351 20.8683 53.9732 20.7559Z" fill="#F2F1EA"/>
<path d="M53.842 23.6699C54.2311 25.293 50.8261 25.3173 49.8164 24.7935C49.8608 24.7759 49.906 24.7607 49.95 24.7431C50.4199 24.5562 51.9765 25.1693 53.1267 24.5039C53.3948 24.349 53.763 23.9678 53.842 23.6699Z" fill="#F2F1EA"/>
<path d="M51.3408 19.9688C51.554 20.0608 51.8364 20.1356 51.9835 20.2689C52.033 20.3948 52.0309 20.406 52.0376 20.5433C52.2074 20.7298 52.3878 20.919 52.424 21.1775L52.3835 21.2818C52.0765 21.3457 50.4528 21.3785 50.1019 21.3388L50.0502 21.2642L50.0895 21.0848C50.0431 20.9141 49.9382 20.9668 50.0373 20.7131C50.155 20.4109 50.4898 20.2622 50.7629 20.1373C51.0018 20.0364 51.0838 20.019 51.3408 19.9688Z" fill="#3F332E"/>
<path d="M51.3408 19.9688C51.554 20.0608 51.8364 20.1356 51.9835 20.2689C52.033 20.3948 52.0309 20.406 52.0376 20.5433C51.8084 20.3986 51.6855 20.3665 51.425 20.2808C50.8414 20.3584 50.5762 20.4445 50.202 20.9326C50.1638 20.9827 50.1263 21.0335 50.0895 21.0848C50.0431 20.9141 49.9382 20.9668 50.0373 20.7131C50.155 20.4109 50.4898 20.2622 50.7629 20.1373C51.0018 20.0364 51.0838 20.019 51.3408 19.9688Z" fill="#F2F1EA"/>
<path d="M51.3435 19.9688C51.5566 20.0609 51.8391 20.1357 51.9862 20.2692C52.0356 20.3952 52.0336 20.4064 52.0403 20.5439C51.8111 20.399 51.6882 20.3669 51.4277 20.2811C51.1041 20.2182 51.0932 20.2723 50.7656 20.1375C51.0045 20.0365 51.0865 20.0191 51.3435 19.9688Z" fill="#F2F1EA"/>
<path d="M67.9713 19.7147C68.8589 18.711 70.4185 18.6723 71.2669 19.5981C71.9094 20.2993 71.8223 23.5207 71.7357 24.4923C71.4674 25.132 70.837 25.133 70.2828 24.8716C70.1874 24.7883 70.0382 24.6445 70.0052 24.5236C69.7466 23.5808 70.1863 21.6631 69.725 20.84C69.7073 20.8207 69.6894 20.8015 69.6709 20.783C69.4187 20.5304 69.2375 20.5043 68.9084 20.5033C67.3331 20.948 68.2057 23.0686 67.9365 24.3241L67.9315 24.4904C67.6318 25.1284 67.0065 25.1643 66.4504 24.8457C66.3849 24.7636 66.3102 24.6763 66.2605 24.5835C66.1353 24.3493 66.145 19.7821 66.2427 19.4593C66.2978 19.2769 66.4508 19.1406 66.621 19.0657C66.8753 18.9539 67.2501 18.9329 67.5066 19.0467C67.7851 19.1702 67.8776 19.4501 67.9713 19.7147Z" fill="#F2F0EB"/>
<path d="M68.5669 20.3242C68.6674 20.3857 68.8039 20.4917 68.9094 20.5042C67.3341 20.9489 68.2067 23.0695 67.9376 24.325C67.9199 24.1509 67.9004 23.4391 67.9222 23.2572C68.0008 22.5966 67.7571 21.249 67.9424 20.7121C68.1645 20.4919 68.2821 20.4339 68.5669 20.3242Z" fill="#F2F1EA"/>
<path d="M66.4531 24.8458C66.695 24.6503 67.0455 24.7843 67.4056 24.6551C67.6163 24.5798 67.719 24.5075 67.9342 24.4902C67.6345 25.1288 67.0092 25.1647 66.4531 24.8458Z" fill="#F2F1EA"/>
<path d="M70.2852 24.8718C70.5114 24.6108 70.9166 24.8249 71.2437 24.66C71.4333 24.5643 71.5234 24.5178 71.7381 24.4922C71.4698 25.1325 70.8394 25.1335 70.2852 24.8718Z" fill="#F2F1EA"/>
<path d="M68.5664 20.3233C68.9778 20.0338 69.8466 20.1435 69.7255 20.8405C69.7078 20.8212 69.6898 20.802 69.6713 20.7835C69.4191 20.5306 69.238 20.5045 68.9088 20.5034C68.8034 20.491 68.6668 20.3849 68.5664 20.3233Z" fill="#F2F1EA"/>
<path d="M22.6877 24.8355C22.3179 24.4785 22.371 23.8737 22.3878 23.3898C22.431 22.1472 22.3304 20.8968 22.4009 19.658C22.4241 19.2524 22.8344 18.7987 23.2678 18.9291C23.6319 19.0346 23.8128 19.2764 23.9985 19.594C24.1038 19.594 24.2982 19.3511 24.4218 19.2843C25.7092 18.504 27.6751 19.1772 27.7996 20.791C27.867 21.6653 27.9802 23.6768 27.7954 24.5182C27.5705 24.9755 27.0696 25.0282 26.6283 24.8868C25.3354 24.227 27.1126 21.0766 25.3817 20.4734C24.7572 20.5183 24.5432 20.6718 24.2317 21.2127C24.1788 21.4106 24.1472 21.5039 24.1406 21.7096C24.1347 22.4332 24.3095 24.2446 23.9423 24.7824C23.5344 25.0097 23.1048 25.0912 22.6877 24.8355Z" fill="#F2F0EB"/>
<path d="M23.8436 24.4132C23.8617 23.6158 23.7808 21.5377 24.0407 20.9531C24.2194 21.0897 24.1748 21.0194 24.2332 21.212C24.1803 21.4099 24.1487 21.5032 24.1421 21.7089C24.1362 22.4325 24.311 24.244 23.9438 24.7818L23.7461 24.6078C23.8007 24.5427 23.8137 24.4916 23.8436 24.4132Z" fill="#F2F1EA"/>
<path d="M23.8436 24.4133C24.0977 23.9078 23.8612 22.3293 24.1421 21.709C24.1362 22.4326 24.311 24.2441 23.9438 24.7819L23.7461 24.608C23.8007 24.5429 23.8137 24.4917 23.8436 24.4133Z" fill="#F2F1EA"/>
<path d="M24.043 20.9539C24.3866 20.4844 24.778 20.1972 25.3856 20.473C24.761 20.5179 24.547 20.6716 24.2355 21.213C24.1771 21.0202 24.2217 21.0906 24.043 20.9539Z" fill="#F2F1EA"/>
<path d="M23.7483 24.6074L23.946 24.7815C23.5381 25.009 23.1085 25.0906 22.6914 24.8346C23.0619 24.6126 23.2733 24.7888 23.7483 24.6074Z" fill="#F2F1EA"/>
<path d="M26.6289 24.887C26.6474 24.8673 26.7286 24.7855 26.7452 24.7812C27.0834 24.6958 27.4669 24.4415 27.7961 24.5181C27.5712 24.9758 27.0702 25.0286 26.6289 24.887Z" fill="#F2F1EA"/>
<path d="M30.0574 24.9813C29.4392 24.7533 28.8404 24.4128 28.8225 23.6601C28.8195 23.5337 28.8766 23.3322 28.9837 23.2494C29.7744 22.6382 30.2277 23.6751 30.985 23.6874C31.3397 23.6964 31.8259 23.6458 31.8341 23.1776C31.6698 22.8405 30.9345 22.6657 30.5806 22.593C29.3656 22.3433 28.3984 21.4203 28.9844 20.1178C29.5315 18.9022 31.329 18.6799 32.4422 19.1963C32.9814 19.445 33.7138 20.2527 32.8667 20.658C32.0813 21.034 31.1609 19.6412 30.6124 20.6159C30.5981 21.6495 33.8664 20.8283 33.5547 23.6233C33.0813 25.2075 31.4038 25.2246 30.0574 24.9813Z" fill="#F2F0EB"/>
<path d="M30.0547 24.981C30.0958 24.9439 30.2167 24.8377 30.2602 24.8335C30.9321 24.7694 31.6943 24.9311 32.3273 24.6157C32.7328 24.4137 33.0466 23.9671 33.3693 23.6536C33.4407 23.6417 33.5016 23.6315 33.552 23.623C33.0786 25.2072 31.4011 25.2243 30.0547 24.981Z" fill="#F2F1EA"/>
<path d="M34.8815 18.9164C34.8962 18.0274 34.5475 16.271 35.9081 16.4278C36.1684 16.4579 36.3342 16.5872 36.5003 16.7689C36.6358 17.1853 36.6272 18.522 36.5726 18.9686C37.1219 18.9133 37.4908 18.8781 37.9069 19.2922C38.1767 20.4664 37.4849 20.424 36.5802 20.3936C36.5714 21.2427 36.5432 22.2384 36.6116 23.0786C36.8986 24.0403 37.6381 23.077 38.0983 23.8954C38.1679 24.3146 38.169 24.5529 37.8013 24.8413C37.3254 25.0926 36.7432 25.1798 36.2256 25.0277C36.0445 24.9933 35.9601 24.9472 35.7964 24.8712C34.738 24.2486 34.8633 23.3172 34.8675 22.241C34.8697 21.6375 34.8739 21.0291 34.8747 20.4255C34.682 20.4103 34.3931 20.4326 34.2234 20.3513C33.8244 20.1552 33.6616 19.72 33.9394 19.3472C34.2054 18.9902 34.4737 18.9703 34.8815 18.9164Z" fill="#F2F0EB"/>
<path d="M37.9087 19.293C38.1786 20.4672 37.4868 20.4247 36.582 20.3943C36.5732 21.2435 36.545 22.2391 36.6135 23.0793C36.4371 23.0593 36.4952 23.0893 36.368 22.9833C36.2641 22.7833 36.2022 20.5383 36.3113 20.3508C36.6176 19.8235 37.4289 20.7064 37.9087 19.293Z" fill="#F2F1EA"/>
<path d="M36.501 16.7695C36.6365 17.1859 36.6278 18.5226 36.5732 18.9692C36.4868 18.9369 36.3665 18.9093 36.3431 18.8088C36.215 18.2548 36.2946 17.2666 36.501 16.7695Z" fill="#F2F1EA"/>
<path d="M37.5576 24.6855L37.8022 24.8413C37.3263 25.0928 36.7441 25.1801 36.2266 25.0278C36.6674 25.0008 36.7159 24.8968 37.1135 24.8066C37.2667 24.7722 37.4072 24.7296 37.5576 24.6855Z" fill="#F2F1EA"/>
<path d="M38.1002 23.8965C38.1698 24.316 38.1709 24.5546 37.8032 24.8433L37.5586 24.6875C37.8492 24.408 37.9173 24.2479 38.1002 23.8965Z" fill="#F2F1EA"/>
<path d="M35.7969 24.8708C35.846 24.8306 35.8951 24.7903 35.9442 24.75C36.3374 24.7749 36.7182 24.7989 37.113 24.8062C36.7155 24.8964 36.6669 25.0005 36.2261 25.0274C36.0449 24.993 35.9606 24.9469 35.7969 24.8708Z" fill="#F2F1EA"/>
<path d="M45.7994 24.7572C45.5869 24.3289 45.657 22.2946 45.6554 21.6731L45.631 17.0894C45.6291 16.4173 45.5525 15.5411 46.523 15.5391C47.6259 15.5366 47.4364 16.9169 47.4134 17.6737C47.5052 18.9852 47.4167 20.6364 47.4549 21.9765C47.4706 22.5333 47.5057 24.217 47.4112 24.6631C46.9114 25.1116 46.35 25.1791 45.7994 24.7572Z" fill="#F2F0EB"/>
<path d="M47.4148 17.6738C47.5066 18.9853 47.4181 20.6365 47.4563 21.9767C47.472 22.5335 47.5071 24.2172 47.4126 24.6632C46.9128 25.1118 46.3513 25.1793 45.8008 24.7574C46.3057 24.526 46.8022 24.9328 47.1965 24.4446C47.2399 24.5475 47.2214 24.5553 47.2985 24.5969C47.4324 24.0736 47.2781 23.4112 47.2983 22.8713C47.3489 21.5237 47.4108 20.1856 47.3873 18.8359C47.3813 18.4935 47.3716 18.0564 47.4091 17.7217L47.4148 17.6738Z" fill="#F2F1EA"/>
<path d="M61.9498 24.8459C61.5104 24.2499 61.7696 20.811 61.711 19.8922C61.682 19.4372 61.8557 19.1405 62.2932 19.0035C63.3002 18.6882 63.4594 19.6365 63.5251 19.6745C64.096 19.1102 64.881 18.4752 65.5593 19.3123C65.6955 19.6997 65.7821 20.4007 65.2755 20.5603C64.7244 20.734 64.0495 20.4527 63.7024 21.0735C63.188 21.93 64.0929 24.5947 63.0763 24.969C63.0461 24.9802 62.8635 25.0206 62.8229 25.0289C62.4269 25.031 62.3014 25.0225 61.9498 24.8459Z" fill="#F2F0EB"/>
<path d="M65.5606 19.3125C65.6969 19.6999 65.7835 20.4009 65.2768 20.5604C64.7257 20.7342 64.0509 20.4529 63.7037 21.0737C63.1893 21.9301 64.0942 24.5949 63.0776 24.9692C63.0474 24.9804 62.8648 25.0208 62.8242 25.0291C62.8956 24.9132 62.8145 24.8887 62.901 24.7428C64.0166 24.2364 62.427 20.4468 64.371 20.3349C64.6828 20.3169 64.9458 20.3118 65.258 20.3178C65.3859 19.9916 65.4016 19.7049 65.5606 19.3125Z" fill="#F2F1EA"/>
<path d="M61.9492 24.8468C62.2994 24.6533 62.4981 24.7145 62.8991 24.7434C62.8127 24.8895 62.8937 24.914 62.8223 25.03C62.4263 25.0321 62.3008 25.0236 61.9492 24.8468Z" fill="#F2F1EA"/>
<path d="M19.747 24.8688C19.5909 24.7506 19.4201 24.5902 19.4092 24.3812C19.3363 22.9747 19.3919 21.5499 19.384 20.1405C19.3826 19.9151 19.4204 19.2839 19.6237 19.1464C20.1684 18.7784 21.1321 18.9394 21.1461 19.744C21.1722 20.8232 21.1441 21.9093 21.1626 22.9899C21.1705 23.5307 21.1857 24.052 21.0803 24.5731C20.7665 25.0226 20.2222 25.1086 19.747 24.8688Z" fill="#F2F0EB"/>
<path d="M19.75 24.8682L19.8854 24.755C20.2249 24.7 20.8577 24.4997 21.0833 24.5723C20.7695 25.0223 20.2252 25.1083 19.75 24.8682Z" fill="#F2F1EA"/>
<path d="M19.6548 17.7394C19.2816 17.5014 19.1108 17.0456 19.2359 16.6213C19.3609 16.197 19.7516 15.9063 20.1945 15.9082C20.6373 15.9101 21.0256 16.2039 21.1471 16.6292C21.2605 17.0265 21.1162 17.4522 20.7846 17.6988C20.4531 17.9456 20.0033 17.9616 19.6548 17.7394Z" fill="#F2F0EB"/>
<path d="M21.1486 16.6289C21.262 17.0261 21.1176 17.4518 20.7861 17.6984C20.4545 17.9452 20.0047 17.9613 19.6562 17.739C19.8386 17.5924 19.8967 17.6295 20.1078 17.5933C20.7064 17.49 20.9121 17.1327 21.1486 16.6289Z" fill="#E3C3A1"/>
<path d="M61.4303 32.2988L61.519 32.381C61.5265 32.733 61.3268 33.583 61.161 33.8963L61.082 33.8024C61.1636 33.4471 61.3382 32.6137 61.4303 32.2988Z" fill="#332623"/>
<defs>
<linearGradient id="paint0_linear_159_465" x1="47.1432" y1="37.6914" x2="42.6651" y2="5.45731" gradientUnits="userSpaceOnUse">
<stop stop-color="#2D231E"/>
<stop offset="1" stop-color="#483C3A"/>
</linearGradient>
<linearGradient id="paint1_linear_159_465" x1="47.1649" y1="43.8213" x2="40.5974" y2="36.6777" gradientUnits="userSpaceOnUse">
<stop stop-color="#A01D1C"/>
<stop offset="1" stop-color="#FF4648"/>
</linearGradient>
<linearGradient id="paint2_linear_159_465" x1="45.8771" y1="42.2037" x2="41.6991" y2="37.9864" gradientUnits="userSpaceOnUse">
<stop stop-color="#C92225"/>
<stop offset="1" stop-color="#FF484B"/>
</linearGradient>
<linearGradient id="paint3_linear_159_465" x1="86.7316" y1="18.2984" x2="75.0211" y2="3.08098" gradientUnits="userSpaceOnUse">
<stop stop-color="#C6A382"/>
<stop offset="1" stop-color="#F9DDC3"/>
</linearGradient>
<linearGradient id="paint4_linear_159_465" x1="77.2795" y1="7.84162" x2="83.0959" y2="15.4343" gradientUnits="userSpaceOnUse">
<stop stop-color="#6F1918"/>
<stop offset="1" stop-color="#A22B30"/>
</linearGradient>
<linearGradient id="paint5_linear_159_465" x1="15.0756" y1="28.8297" x2="2.51872" y2="16.9884" gradientUnits="userSpaceOnUse">
<stop stop-color="#DFC592"/>
<stop offset="1" stop-color="#FFF2CF"/>
</linearGradient>
<linearGradient id="paint6_linear_159_465" x1="14.0148" y1="30.4119" x2="11.5097" y2="26.8254" gradientUnits="userSpaceOnUse">
<stop stop-color="#BA9862"/>
<stop offset="1" stop-color="#DABA83"/>
</linearGradient>
<linearGradient id="paint7_linear_159_465" x1="10.2929" y1="24.8243" x2="13.0964" y2="27.6404" gradientUnits="userSpaceOnUse">
<stop stop-color="#AC823C"/>
<stop offset="1" stop-color="#D1B581"/>
</linearGradient>
<linearGradient id="paint8_linear_159_465" x1="64.121" y1="23.9965" x2="74.9285" y2="37.2492" gradientUnits="userSpaceOnUse">
<stop stop-color="#8D6B52"/>
<stop offset="1" stop-color="#B08E75"/>
</linearGradient>
<linearGradient id="paint9_linear_159_465" x1="21.8117" y1="28.1796" x2="23.6507" y2="37.9248" gradientUnits="userSpaceOnUse">
<stop stop-color="#7C5B44"/>
<stop offset="1" stop-color="#A9866D"/>
</linearGradient>
<linearGradient id="paint10_linear_159_465" x1="40.2985" y1="21.2534" x2="42.5303" y2="22.7723" gradientUnits="userSpaceOnUse">
<stop stop-color="#1F1815"/>
<stop offset="1" stop-color="#463C38"/>
</linearGradient>
<linearGradient id="paint11_linear_159_465" x1="56.5932" y1="21.1983" x2="58.7073" y2="22.8365" gradientUnits="userSpaceOnUse">
<stop stop-color="#1F1815"/>
<stop offset="1" stop-color="#433935"/>
</linearGradient>
</defs>
</svg>
