<svg width="211" height="52" viewBox="0 0 211 52" fill="none" xmlns="http://www.w3.org/2000/svg">
<rect x="13.5" y="13.5" width="197" height="38" rx="19" fill="#FCF8EB"/>
<rect x="13.5" y="13.5" width="197" height="38" rx="19" stroke="#FECE99"/>
<path d="M40.208 38.032C39.9733 38.032 39.8027 38 39.696 37.936C39.6 37.872 39.552 37.7867 39.552 37.68V27.12C39.552 27.0027 39.6 26.9173 39.696 26.864C39.8027 26.8 39.9733 26.768 40.208 26.768H40.768C41.0133 26.768 41.2 26.7947 41.328 26.848C41.4667 26.8907 41.5573 26.96 41.6 27.056L44.352 32.416C44.4267 32.5547 44.5013 32.7147 44.576 32.896C44.6613 33.0773 44.7253 33.2533 44.768 33.424C44.8213 33.2427 44.896 33.056 44.992 32.864C45.0987 32.6613 45.1893 32.496 45.264 32.368L47.952 27.056C48.0053 26.96 48.096 26.8907 48.224 26.848C48.352 26.7947 48.5333 26.768 48.768 26.768H49.28C49.5253 26.768 49.696 26.8 49.792 26.864C49.888 26.9173 49.936 27.0027 49.936 27.12V37.68C49.936 37.7867 49.888 37.872 49.792 37.936C49.696 38 49.5253 38.032 49.28 38.032H49.152C48.9173 38.032 48.7467 38 48.64 37.936C48.544 37.872 48.496 37.7867 48.496 37.68V29.984C48.496 29.8347 48.496 29.6853 48.496 29.536C48.496 29.3867 48.5013 29.2427 48.512 29.104L48.448 29.088C48.384 29.216 48.32 29.3387 48.256 29.456C48.2027 29.5733 48.144 29.6907 48.08 29.808L45.664 34.544C45.5893 34.6827 45.4987 34.7733 45.392 34.816C45.296 34.8587 45.1413 34.88 44.928 34.88H44.608C44.4053 34.88 44.2507 34.8587 44.144 34.816C44.048 34.7733 43.9573 34.6827 43.872 34.544L41.408 29.712C41.344 29.5947 41.28 29.4773 41.216 29.36C41.1627 29.2427 41.104 29.12 41.04 28.992L40.976 29.008C40.9867 29.1467 40.992 29.2907 40.992 29.44C40.992 29.5893 40.992 29.7387 40.992 29.888V37.68C40.992 37.7867 40.944 37.872 40.848 37.936C40.752 38 40.5813 38.032 40.336 38.032H40.208ZM56.0252 38.096C54.8198 38.096 53.8972 37.7333 53.2572 37.008C52.6278 36.2827 52.3132 35.232 52.3132 33.856C52.3132 32.4693 52.6332 31.4027 53.2732 30.656C53.9132 29.9093 54.8305 29.536 56.0252 29.536C57.1985 29.536 58.0945 29.9093 58.7132 30.656C59.3425 31.392 59.6572 32.4587 59.6572 33.856C59.6572 35.2427 59.3478 36.2987 58.7292 37.024C58.1212 37.7387 57.2198 38.096 56.0252 38.096ZM55.9772 36.944C56.7558 36.944 57.3265 36.6933 57.6892 36.192C58.0625 35.68 58.2492 34.8907 58.2492 33.824C58.2492 32.7573 58.0625 31.968 57.6892 31.456C57.3265 30.944 56.7558 30.688 55.9772 30.688C55.1985 30.688 54.6278 30.944 54.2652 31.456C53.9025 31.9573 53.7212 32.7467 53.7212 33.824C53.7212 34.8907 53.9025 35.68 54.2652 36.192C54.6278 36.6933 55.1985 36.944 55.9772 36.944ZM65.6754 38.096C65.238 38.096 64.806 38 64.3794 37.808C63.9527 37.6053 63.5634 37.3013 63.2114 36.896C63.2007 37.024 63.1794 37.1573 63.1474 37.296C63.126 37.424 63.0994 37.552 63.0674 37.68C63.0247 37.8293 62.9554 37.9253 62.8594 37.968C62.7634 38.0107 62.6567 38.032 62.5394 38.032H62.4594C62.2674 38.032 62.1287 38 62.0434 37.936C61.9687 37.872 61.9314 37.7867 61.9314 37.68V26.32C61.9314 26.2027 61.974 26.1173 62.0594 26.064C62.1554 26 62.3207 25.968 62.5554 25.968H62.6834C62.918 25.968 63.078 26 63.1634 26.064C63.2594 26.1173 63.3074 26.2027 63.3074 26.32V30.352C63.51 30.192 63.718 30.0533 63.9314 29.936C64.1554 29.808 64.3954 29.712 64.6514 29.648C64.918 29.5733 65.2114 29.536 65.5314 29.536C66.47 29.536 67.2327 29.904 67.8194 30.64C68.4167 31.3653 68.7154 32.4213 68.7154 33.808C68.7154 34.64 68.5927 35.3813 68.3474 36.032C68.102 36.672 67.75 37.1787 67.2914 37.552C66.8434 37.9147 66.3047 38.096 65.6754 38.096ZM65.4034 36.928C66.0114 36.928 66.4807 36.6507 66.8114 36.096C67.142 35.5307 67.3074 34.7307 67.3074 33.696C67.3074 32.736 67.1314 31.9947 66.7794 31.472C66.438 30.9493 65.9207 30.688 65.2274 30.688C64.8967 30.688 64.5607 30.752 64.2194 30.88C63.8887 31.008 63.5847 31.1947 63.3074 31.44V35.824C63.6274 36.1867 63.9687 36.464 64.3314 36.656C64.7047 36.8373 65.062 36.928 65.4034 36.928ZM71.6135 38.032C71.3789 38.032 71.2135 38 71.1175 37.936C71.0322 37.872 70.9895 37.7867 70.9895 37.68V29.952C70.9895 29.8347 71.0322 29.7493 71.1175 29.696C71.2135 29.632 71.3789 29.6 71.6135 29.6H71.7415C71.9762 29.6 72.1362 29.632 72.2215 29.696C72.3175 29.7493 72.3655 29.8347 72.3655 29.952V37.68C72.3655 37.7867 72.3175 37.872 72.2215 37.936C72.1362 38 71.9762 38.032 71.7415 38.032H71.6135ZM71.6775 28.48C71.4215 28.48 71.2402 28.448 71.1335 28.384C71.0269 28.32 70.9735 28.2347 70.9735 28.128V27.168C70.9735 27.0613 71.0269 26.976 71.1335 26.912C71.2402 26.848 71.4215 26.816 71.6775 26.816C71.9335 26.816 72.1149 26.848 72.2215 26.912C72.3282 26.9653 72.3815 27.0507 72.3815 27.168V28.128C72.3815 28.2347 72.3282 28.32 72.2215 28.384C72.1149 28.448 71.9335 28.48 71.6775 28.48ZM76.9647 38.096C76.538 38.096 76.1807 38.016 75.8927 37.856C75.6154 37.696 75.402 37.4613 75.2527 37.152C75.114 36.832 75.0447 36.4427 75.0447 35.984V26.32C75.0447 26.2027 75.0874 26.1173 75.1727 26.064C75.2687 26 75.434 25.968 75.6687 25.968H75.7967C76.0314 25.968 76.1914 26 76.2767 26.064C76.3727 26.1173 76.4207 26.2027 76.4207 26.32V35.984C76.4207 36.3467 76.474 36.592 76.5807 36.72C76.698 36.848 76.8954 36.912 77.1727 36.912C77.418 36.912 77.594 36.8853 77.7007 36.832C77.8074 36.7787 77.898 36.752 77.9727 36.752C78.026 36.752 78.0687 36.7893 78.1007 36.864C78.1434 36.928 78.17 37.008 78.1807 37.104C78.202 37.2 78.2127 37.2907 78.2127 37.376C78.2234 37.4613 78.2287 37.52 78.2287 37.552C78.2287 37.6587 78.154 37.7547 78.0047 37.84C77.866 37.9253 77.6954 37.9893 77.4927 38.032C77.3007 38.0747 77.1247 38.096 76.9647 38.096ZM82.9632 38.096C81.7366 38.096 80.7926 37.776 80.1312 37.136C79.4806 36.496 79.1552 35.4027 79.1552 33.856C79.1552 32.928 79.2992 32.144 79.5872 31.504C79.8752 30.864 80.2966 30.3787 80.8512 30.048C81.4166 29.7067 82.0992 29.536 82.8992 29.536C83.6246 29.536 84.2272 29.696 84.7072 30.016C85.1979 30.3253 85.5606 30.7893 85.7952 31.408C86.0406 32.0267 86.1632 32.784 86.1632 33.68C86.1632 33.776 86.1366 33.8773 86.0833 33.984C86.0299 34.0907 85.9606 34.1813 85.8752 34.256C85.7899 34.3307 85.6992 34.368 85.6033 34.368H80.5632C80.5846 35.2533 80.7926 35.904 81.1872 36.32C81.5819 36.736 82.1846 36.944 82.9952 36.944C83.5072 36.944 83.9392 36.8853 84.2912 36.768C84.6539 36.6507 84.9366 36.5333 85.1392 36.416C85.3526 36.2987 85.4859 36.24 85.5392 36.24C85.6139 36.24 85.6779 36.288 85.7312 36.384C85.7952 36.4693 85.8486 36.5707 85.8912 36.688C85.9339 36.8053 85.9552 36.9067 85.9552 36.992C85.9552 37.088 85.8752 37.2 85.7153 37.328C85.5659 37.4453 85.3526 37.568 85.0752 37.696C84.8086 37.8133 84.4939 37.9093 84.1312 37.984C83.7686 38.0587 83.3792 38.096 82.9632 38.096ZM80.5632 33.216H84.7872C84.7872 32.3733 84.6112 31.744 84.2592 31.328C83.9072 30.9013 83.4059 30.688 82.7552 30.688C82.2859 30.688 81.8912 30.7947 81.5712 31.008C81.2512 31.2107 81.0059 31.4987 80.8352 31.872C80.6646 32.2453 80.5739 32.6933 80.5632 33.216ZM92.8496 38.032C92.6149 38.032 92.4443 38 92.3376 37.936C92.2416 37.872 92.1936 37.7867 92.1936 37.68V27.28C92.1936 26.96 92.3589 26.8 92.6896 26.8H97.6016C97.8043 26.8 97.9056 26.96 97.9056 27.28V27.536C97.9056 27.856 97.8043 28.016 97.6016 28.016H93.6336V32.064H97.3456C97.5589 32.064 97.6656 32.224 97.6656 32.544V32.8C97.6656 33.12 97.5589 33.28 97.3456 33.28H93.6336V37.68C93.6336 37.7867 93.5856 37.872 93.4896 37.936C93.3936 38 93.2229 38.032 92.9776 38.032H92.8496ZM100.701 38.032C100.467 38.032 100.301 38 100.205 37.936C100.12 37.872 100.077 37.7867 100.077 37.68V29.952C100.077 29.8347 100.12 29.7493 100.205 29.696C100.301 29.632 100.467 29.6 100.701 29.6H100.829C101.064 29.6 101.224 29.632 101.309 29.696C101.405 29.7493 101.453 29.8347 101.453 29.952V37.68C101.453 37.7867 101.405 37.872 101.309 37.936C101.224 38 101.064 38.032 100.829 38.032H100.701ZM100.765 28.48C100.509 28.48 100.328 28.448 100.221 28.384C100.115 28.32 100.061 28.2347 100.061 28.128V27.168C100.061 27.0613 100.115 26.976 100.221 26.912C100.328 26.848 100.509 26.816 100.765 26.816C101.021 26.816 101.203 26.848 101.309 26.912C101.416 26.9653 101.469 27.0507 101.469 27.168V28.128C101.469 28.2347 101.416 28.32 101.309 28.384C101.203 28.448 101.021 28.48 100.765 28.48ZM104.9 38.032C104.676 38.032 104.511 38 104.404 37.936C104.308 37.872 104.26 37.7867 104.26 37.68V32.032C104.26 31.5947 104.244 31.2373 104.212 30.96C104.191 30.6827 104.164 30.464 104.132 30.304C104.111 30.144 104.1 30.032 104.1 29.968C104.1 29.9147 104.132 29.8667 104.196 29.824C104.26 29.7813 104.34 29.7493 104.436 29.728C104.532 29.696 104.634 29.6747 104.74 29.664C104.847 29.6533 104.943 29.648 105.028 29.648C105.124 29.648 105.199 29.6853 105.252 29.76C105.316 29.824 105.37 29.936 105.412 30.096C105.466 30.256 105.514 30.4693 105.556 30.736C105.738 30.4587 105.94 30.2347 106.164 30.064C106.399 29.8827 106.65 29.7493 106.916 29.664C107.183 29.5787 107.471 29.536 107.78 29.536C107.962 29.536 108.095 29.5787 108.18 29.664C108.276 29.7493 108.324 29.8773 108.324 30.048C108.324 30.1653 108.314 30.2827 108.292 30.4C108.282 30.5067 108.26 30.6027 108.228 30.688C108.196 30.7733 108.159 30.8427 108.116 30.896C108.084 30.9493 108.042 30.976 107.988 30.976C107.914 30.976 107.818 30.9547 107.7 30.912C107.594 30.8693 107.418 30.848 107.172 30.848C106.81 30.848 106.484 30.9493 106.196 31.152C105.919 31.3547 105.732 31.632 105.636 31.984V37.68C105.636 37.7867 105.583 37.872 105.476 37.936C105.37 38 105.199 38.032 104.964 38.032H104.9ZM111.797 38.144C111.434 38.144 111.098 38.1067 110.789 38.032C110.479 37.968 110.207 37.8827 109.973 37.776C109.749 37.6693 109.573 37.5627 109.445 37.456C109.317 37.3387 109.253 37.232 109.253 37.136C109.253 37.072 109.285 36.976 109.349 36.848C109.413 36.72 109.487 36.6027 109.573 36.496C109.658 36.3893 109.738 36.336 109.813 36.336C109.855 36.336 109.951 36.3893 110.101 36.496C110.25 36.6027 110.458 36.7093 110.725 36.816C111.002 36.9227 111.327 36.976 111.701 36.976C112.213 36.976 112.602 36.8747 112.869 36.672C113.135 36.4693 113.269 36.176 113.269 35.792C113.269 35.504 113.199 35.2747 113.061 35.104C112.922 34.9227 112.73 34.7733 112.485 34.656C112.25 34.5387 111.978 34.432 111.669 34.336C111.391 34.24 111.119 34.1333 110.853 34.016C110.586 33.8987 110.346 33.7493 110.133 33.568C109.919 33.3867 109.749 33.1573 109.621 32.88C109.503 32.6027 109.445 32.256 109.445 31.84C109.445 31.392 109.557 30.992 109.781 30.64C110.015 30.288 110.33 30.016 110.725 29.824C111.13 29.6213 111.589 29.52 112.101 29.52C112.378 29.52 112.639 29.5413 112.885 29.584C113.141 29.616 113.365 29.664 113.557 29.728C113.759 29.792 113.919 29.8667 114.037 29.952C114.154 30.0373 114.213 30.1227 114.213 30.208C114.213 30.2933 114.181 30.4053 114.117 30.544C114.063 30.6827 113.999 30.8053 113.925 30.912C113.85 31.0187 113.775 31.072 113.701 31.072C113.658 31.072 113.514 31.0027 113.269 30.864C113.023 30.7253 112.682 30.656 112.245 30.656C111.85 30.656 111.514 30.752 111.237 30.944C110.959 31.1253 110.821 31.3867 110.821 31.728C110.821 31.9307 110.858 32.1013 110.933 32.24C111.007 32.3787 111.135 32.5067 111.317 32.624C111.498 32.7307 111.749 32.8373 112.069 32.944C112.431 33.0613 112.767 33.1947 113.077 33.344C113.386 33.4933 113.658 33.6747 113.893 33.888C114.127 34.0907 114.309 34.336 114.437 34.624C114.565 34.912 114.629 35.2533 114.629 35.648C114.629 36.128 114.501 36.5547 114.245 36.928C113.999 37.3013 113.663 37.6 113.237 37.824C112.81 38.0373 112.33 38.144 111.797 38.144ZM118.835 38.096C118.408 38.096 118.051 38.016 117.763 37.856C117.485 37.696 117.272 37.4613 117.123 37.152C116.984 36.832 116.915 36.4427 116.915 35.984V30.784H116.115C115.901 30.784 115.795 30.624 115.795 30.304V30.112C115.795 29.792 115.901 29.632 116.115 29.632H116.915L117.107 27.952C117.128 27.8347 117.176 27.7493 117.251 27.696C117.336 27.632 117.453 27.6 117.603 27.6H117.731C117.944 27.6 118.088 27.632 118.163 27.696C118.248 27.7493 118.291 27.8347 118.291 27.952V29.632H119.651C119.864 29.632 119.971 29.792 119.971 30.112V30.304C119.971 30.624 119.864 30.784 119.651 30.784H118.291V35.984C118.291 36.3253 118.344 36.5653 118.451 36.704C118.568 36.8427 118.765 36.912 119.043 36.912C119.288 36.912 119.464 36.8853 119.571 36.832C119.677 36.7787 119.768 36.752 119.843 36.752C119.896 36.752 119.939 36.7893 119.971 36.864C120.013 36.928 120.04 37.008 120.051 37.104C120.072 37.2 120.083 37.2907 120.083 37.376C120.093 37.4613 120.099 37.52 120.099 37.552C120.099 37.6587 120.024 37.7547 119.875 37.84C119.736 37.9253 119.565 37.9893 119.363 38.032C119.171 38.0747 118.995 38.096 118.835 38.096ZM126.445 38C126.114 38 125.949 37.84 125.949 37.52V27.12C125.949 27.0027 125.997 26.9173 126.093 26.864C126.2 26.8 126.37 26.768 126.605 26.768H126.733C126.978 26.768 127.149 26.8 127.245 26.864C127.341 26.9173 127.389 27.0027 127.389 27.12V36.784H131.773C131.986 36.784 132.093 36.944 132.093 37.264V37.52C132.093 37.84 131.986 38 131.773 38H126.445ZM136.784 38.096C135.557 38.096 134.613 37.776 133.952 37.136C133.301 36.496 132.976 35.4027 132.976 33.856C132.976 32.928 133.12 32.144 133.408 31.504C133.696 30.864 134.117 30.3787 134.672 30.048C135.237 29.7067 135.92 29.536 136.72 29.536C137.445 29.536 138.048 29.696 138.528 30.016C139.018 30.3253 139.381 30.7893 139.616 31.408C139.861 32.0267 139.984 32.784 139.984 33.68C139.984 33.776 139.957 33.8773 139.904 33.984C139.85 34.0907 139.781 34.1813 139.696 34.256C139.61 34.3307 139.52 34.368 139.424 34.368H134.384C134.405 35.2533 134.613 35.904 135.008 36.32C135.402 36.736 136.005 36.944 136.816 36.944C137.328 36.944 137.76 36.8853 138.112 36.768C138.474 36.6507 138.757 36.5333 138.96 36.416C139.173 36.2987 139.306 36.24 139.36 36.24C139.434 36.24 139.498 36.288 139.552 36.384C139.616 36.4693 139.669 36.5707 139.712 36.688C139.754 36.8053 139.776 36.9067 139.776 36.992C139.776 37.088 139.696 37.2 139.536 37.328C139.386 37.4453 139.173 37.568 138.896 37.696C138.629 37.8133 138.314 37.9093 137.952 37.984C137.589 38.0587 137.2 38.096 136.784 38.096ZM134.384 33.216H138.608C138.608 32.3733 138.432 31.744 138.08 31.328C137.728 30.9013 137.226 30.688 136.576 30.688C136.106 30.688 135.712 30.7947 135.392 31.008C135.072 31.2107 134.826 31.4987 134.656 31.872C134.485 32.2453 134.394 32.6933 134.384 33.216ZM144.19 38.096C143.411 38.096 142.76 37.904 142.238 37.52C141.715 37.1253 141.454 36.5173 141.454 35.696C141.454 35.152 141.544 34.6933 141.726 34.32C141.907 33.9467 142.2 33.648 142.606 33.424C143.022 33.2 143.566 33.04 144.238 32.944C144.92 32.8373 145.752 32.784 146.734 32.784V32.032C146.734 31.7867 146.68 31.5627 146.574 31.36C146.467 31.1573 146.286 30.9973 146.03 30.88C145.784 30.752 145.443 30.688 145.006 30.688C144.526 30.688 144.099 30.7413 143.726 30.848C143.363 30.9547 143.064 31.0613 142.83 31.168C142.606 31.2747 142.456 31.328 142.382 31.328C142.328 31.328 142.275 31.3013 142.222 31.248C142.179 31.1947 142.136 31.1253 142.094 31.04C142.051 30.944 142.014 30.848 141.982 30.752C141.96 30.656 141.95 30.5707 141.95 30.496C141.95 30.4107 142.04 30.3147 142.222 30.208C142.403 30.1013 142.643 30 142.942 29.904C143.251 29.7973 143.587 29.712 143.95 29.648C144.323 29.5733 144.696 29.536 145.07 29.536C145.55 29.536 145.976 29.5947 146.35 29.712C146.734 29.8187 147.054 29.984 147.31 30.208C147.566 30.4213 147.763 30.6827 147.902 30.992C148.04 31.3013 148.11 31.6533 148.11 32.048V35.6C148.11 36.0373 148.12 36.3947 148.142 36.672C148.174 36.9493 148.2 37.168 148.222 37.328C148.254 37.4773 148.27 37.5893 148.27 37.664C148.27 37.7173 148.238 37.7653 148.174 37.808C148.11 37.8507 148.03 37.888 147.934 37.92C147.838 37.9413 147.736 37.9627 147.63 37.984C147.523 37.9947 147.427 38 147.342 38C147.246 38 147.171 37.968 147.118 37.904C147.064 37.8293 147.016 37.712 146.974 37.552C146.931 37.3813 146.883 37.1627 146.83 36.896C146.638 37.12 146.408 37.3227 146.142 37.504C145.886 37.6853 145.592 37.8293 145.262 37.936C144.942 38.0427 144.584 38.096 144.19 38.096ZM144.254 36.928C144.638 36.928 144.974 36.8747 145.262 36.768C145.56 36.6613 145.827 36.528 146.062 36.368C146.307 36.1973 146.531 36.016 146.734 35.824V33.936C145.944 33.936 145.299 33.968 144.798 34.032C144.296 34.0853 143.907 34.176 143.63 34.304C143.352 34.432 143.16 34.608 143.054 34.832C142.947 35.0453 142.894 35.3067 142.894 35.616C142.894 36.0427 143.006 36.368 143.23 36.592C143.464 36.816 143.806 36.928 144.254 36.928ZM151.417 38.032C151.193 38.032 151.028 38 150.921 37.936C150.825 37.872 150.777 37.7867 150.777 37.68V32.032C150.777 31.5947 150.761 31.2373 150.729 30.96C150.708 30.6827 150.681 30.464 150.649 30.304C150.628 30.144 150.617 30.032 150.617 29.968C150.617 29.9147 150.649 29.8667 150.713 29.824C150.777 29.7813 150.857 29.7493 150.953 29.728C151.049 29.696 151.15 29.6747 151.257 29.664C151.364 29.6533 151.46 29.648 151.545 29.648C151.641 29.648 151.716 29.6853 151.769 29.76C151.833 29.824 151.886 29.936 151.929 30.096C151.982 30.256 152.03 30.4693 152.073 30.736C152.254 30.4587 152.457 30.2347 152.681 30.064C152.916 29.8827 153.166 29.7493 153.433 29.664C153.7 29.5787 153.988 29.536 154.297 29.536C154.478 29.536 154.612 29.5787 154.697 29.664C154.793 29.7493 154.841 29.8773 154.841 30.048C154.841 30.1653 154.83 30.2827 154.809 30.4C154.798 30.5067 154.777 30.6027 154.745 30.688C154.713 30.7733 154.676 30.8427 154.633 30.896C154.601 30.9493 154.558 30.976 154.505 30.976C154.43 30.976 154.334 30.9547 154.217 30.912C154.11 30.8693 153.934 30.848 153.689 30.848C153.326 30.848 153.001 30.9493 152.713 31.152C152.436 31.3547 152.249 31.632 152.153 31.984V37.68C152.153 37.7867 152.1 37.872 151.993 37.936C151.886 38 151.716 38.032 151.481 38.032H151.417ZM157.209 38.032C156.975 38.032 156.809 38 156.713 37.936C156.628 37.872 156.585 37.7867 156.585 37.68V32.032C156.585 31.5947 156.569 31.2373 156.537 30.96C156.516 30.6827 156.489 30.464 156.457 30.304C156.436 30.144 156.425 30.032 156.425 29.968C156.425 29.9147 156.457 29.8667 156.521 29.824C156.585 29.7813 156.665 29.7493 156.761 29.728C156.857 29.696 156.959 29.6747 157.065 29.664C157.172 29.6533 157.268 29.648 157.353 29.648C157.449 29.648 157.524 29.6853 157.577 29.76C157.631 29.824 157.679 29.936 157.721 30.096C157.764 30.2453 157.812 30.4587 157.865 30.736C158.079 30.48 158.319 30.2667 158.585 30.096C158.852 29.9147 159.129 29.776 159.417 29.68C159.716 29.584 160.015 29.536 160.313 29.536C160.857 29.536 161.321 29.6427 161.705 29.856C162.1 30.0587 162.399 30.352 162.601 30.736C162.815 31.12 162.921 31.584 162.921 32.128V37.68C162.921 37.7867 162.873 37.872 162.777 37.936C162.692 38 162.532 38.032 162.297 38.032H162.169C161.935 38.032 161.769 38 161.673 37.936C161.588 37.872 161.545 37.7867 161.545 37.68V32.256C161.545 31.744 161.407 31.36 161.129 31.104C160.863 30.8373 160.463 30.704 159.929 30.704C159.673 30.704 159.423 30.752 159.177 30.848C158.932 30.9333 158.703 31.0613 158.489 31.232C158.287 31.392 158.111 31.5893 157.961 31.824V37.68C157.961 37.7867 157.913 37.872 157.817 37.936C157.732 38 157.572 38.032 157.337 38.032H157.209ZM166.064 38.032C165.83 38.032 165.664 38 165.568 37.936C165.483 37.872 165.44 37.7867 165.44 37.68V29.952C165.44 29.8347 165.483 29.7493 165.568 29.696C165.664 29.632 165.83 29.6 166.064 29.6H166.192C166.427 29.6 166.587 29.632 166.672 29.696C166.768 29.7493 166.816 29.8347 166.816 29.952V37.68C166.816 37.7867 166.768 37.872 166.672 37.936C166.587 38 166.427 38.032 166.192 38.032H166.064ZM166.128 28.48C165.872 28.48 165.691 28.448 165.584 28.384C165.478 28.32 165.424 28.2347 165.424 28.128V27.168C165.424 27.0613 165.478 26.976 165.584 26.912C165.691 26.848 165.872 26.816 166.128 26.816C166.384 26.816 166.566 26.848 166.672 26.912C166.779 26.9653 166.832 27.0507 166.832 27.168V28.128C166.832 28.2347 166.779 28.32 166.672 28.384C166.566 28.448 166.384 28.48 166.128 28.48ZM170.247 38.032C170.013 38.032 169.847 38 169.751 37.936C169.666 37.872 169.623 37.7867 169.623 37.68V32.032C169.623 31.5947 169.607 31.2373 169.575 30.96C169.554 30.6827 169.527 30.464 169.495 30.304C169.474 30.144 169.463 30.032 169.463 29.968C169.463 29.9147 169.495 29.8667 169.559 29.824C169.623 29.7813 169.703 29.7493 169.799 29.728C169.895 29.696 169.997 29.6747 170.103 29.664C170.21 29.6533 170.306 29.648 170.391 29.648C170.487 29.648 170.562 29.6853 170.615 29.76C170.669 29.824 170.717 29.936 170.759 30.096C170.802 30.2453 170.85 30.4587 170.903 30.736C171.117 30.48 171.357 30.2667 171.623 30.096C171.89 29.9147 172.167 29.776 172.455 29.68C172.754 29.584 173.053 29.536 173.351 29.536C173.895 29.536 174.359 29.6427 174.743 29.856C175.138 30.0587 175.437 30.352 175.639 30.736C175.853 31.12 175.959 31.584 175.959 32.128V37.68C175.959 37.7867 175.911 37.872 175.815 37.936C175.73 38 175.57 38.032 175.335 38.032H175.207C174.973 38.032 174.807 38 174.711 37.936C174.626 37.872 174.583 37.7867 174.583 37.68V32.256C174.583 31.744 174.445 31.36 174.167 31.104C173.901 30.8373 173.501 30.704 172.967 30.704C172.711 30.704 172.461 30.752 172.215 30.848C171.97 30.9333 171.741 31.0613 171.527 31.232C171.325 31.392 171.149 31.5893 170.999 31.824V37.68C170.999 37.7867 170.951 37.872 170.855 37.936C170.77 38 170.61 38.032 170.375 38.032H170.247ZM181.086 41.392C180.457 41.392 179.897 41.3227 179.406 41.184C178.916 41.056 178.532 40.8373 178.254 40.528C177.977 40.2187 177.838 39.808 177.838 39.296C177.838 38.9867 177.897 38.6987 178.014 38.432C178.142 38.176 178.313 37.9467 178.526 37.744C178.74 37.5413 178.974 37.3867 179.23 37.28L179.246 37.248C179.065 37.0987 178.916 36.9173 178.798 36.704C178.692 36.4907 178.638 36.2347 178.638 35.936C178.638 35.5947 178.713 35.3013 178.862 35.056C179.012 34.8 179.225 34.5813 179.502 34.4C179.044 34.176 178.697 33.8667 178.462 33.472C178.238 33.0667 178.126 32.624 178.126 32.144C178.126 31.6533 178.244 31.216 178.478 30.832C178.724 30.4373 179.081 30.1227 179.55 29.888C180.02 29.6533 180.596 29.536 181.278 29.536C181.449 29.536 181.614 29.5467 181.774 29.568C181.934 29.5787 182.084 29.6 182.222 29.632H185.134C185.252 29.632 185.332 29.6693 185.374 29.744C185.428 29.8187 185.454 29.9413 185.454 30.112V30.304C185.454 30.624 185.348 30.784 185.134 30.784C185.049 30.784 184.932 30.7787 184.782 30.768C184.633 30.7573 184.478 30.7467 184.318 30.736C184.158 30.7147 184.02 30.6933 183.902 30.672L183.886 30.704C184.036 30.8533 184.148 31.008 184.222 31.168C184.297 31.3173 184.345 31.472 184.366 31.632C184.398 31.7813 184.414 31.952 184.414 32.144C184.414 32.6347 184.292 33.0773 184.046 33.472C183.812 33.8667 183.46 34.1813 182.99 34.416C182.532 34.6507 181.956 34.768 181.262 34.768C180.964 34.768 180.702 34.8 180.478 34.864C180.265 34.928 180.1 35.0347 179.982 35.184C179.876 35.3227 179.822 35.5093 179.822 35.744C179.822 35.9893 179.892 36.1813 180.03 36.32C180.169 36.448 180.356 36.5493 180.59 36.624C180.836 36.688 181.108 36.736 181.406 36.768C181.705 36.8 182.009 36.8373 182.318 36.88C182.798 36.9333 183.23 37.0347 183.614 37.184C184.009 37.3227 184.318 37.536 184.542 37.824C184.777 38.1013 184.894 38.4853 184.894 38.976C184.894 39.488 184.75 39.92 184.462 40.272C184.185 40.6347 183.764 40.912 183.198 41.104C182.633 41.296 181.929 41.392 181.086 41.392ZM181.262 40.288C182.062 40.288 182.654 40.1867 183.038 39.984C183.422 39.792 183.614 39.4827 183.614 39.056C183.614 38.8 183.529 38.5973 183.358 38.448C183.198 38.3093 182.98 38.2027 182.702 38.128C182.436 38.0533 182.142 38 181.822 37.968C181.502 37.936 181.182 37.904 180.862 37.872C180.553 37.8293 180.276 37.7707 180.03 37.696C179.774 37.8133 179.55 37.9787 179.358 38.192C179.177 38.4053 179.086 38.688 179.086 39.04C179.086 39.3387 179.156 39.5787 179.294 39.76C179.444 39.9413 179.678 40.0747 179.998 40.16C180.318 40.2453 180.74 40.288 181.262 40.288ZM181.262 33.648C181.604 33.648 181.913 33.6053 182.19 33.52C182.478 33.424 182.708 33.2693 182.878 33.056C183.049 32.832 183.134 32.5333 183.134 32.16C183.134 31.776 183.049 31.4773 182.878 31.264C182.708 31.04 182.478 30.8853 182.19 30.8C181.913 30.704 181.604 30.656 181.262 30.656C180.921 30.656 180.606 30.704 180.318 30.8C180.041 30.8853 179.817 31.04 179.646 31.264C179.486 31.4773 179.406 31.776 179.406 32.16C179.406 32.7253 179.588 33.1147 179.95 33.328C180.313 33.5413 180.75 33.648 181.262 33.648Z" fill="#252524"/>
<g filter="url(#filter0_dd_226_645)">
<path d="M8.91286 13.9576C8.4087 12.8765 8.91974 11.5711 10.0543 11.0421L21.3529 5.77342C22.4875 5.24437 23.8159 5.69195 24.3201 6.77311L33.9051 27.3282C34.4092 28.4093 33.8982 29.7147 32.7636 30.2437L21.465 35.5124C20.3304 36.0414 19.002 35.5939 18.4978 34.5127L8.91286 13.9576Z" fill="#FFFDF1"/>
<path d="M23.4625 30.4101L27.5711 28.4943M21.465 35.5124L32.7636 30.2437C33.8982 29.7147 34.4092 28.4093 33.9051 27.3282L24.3201 6.77311C23.8159 5.69195 22.4875 5.24437 21.3529 5.77342L10.0543 11.0421C8.91974 11.5711 8.4087 12.8765 8.91286 13.9576L18.4978 34.5127C19.002 35.5938 20.3304 36.0414 21.465 35.5124Z" stroke="#FFFDF1" stroke-linecap="round"/>
<path d="M10.1734 14.297C9.70655 13.2959 10.1397 12.1059 11.1407 11.6391L21.1101 6.99034C22.1112 6.52353 23.3012 6.95664 23.768 7.95772L32.643 26.9902C33.1098 27.9913 32.6767 29.1812 31.6756 29.648L21.7062 34.2968C20.7051 34.7636 19.5152 34.3305 19.0483 33.3295L10.1734 14.297Z" fill="#FFCE99"/>
<path d="M23.3991 29.6456L27.0243 27.9551M21.7062 34.2968L31.6756 29.648C32.6767 29.1812 33.1098 27.9913 32.643 26.9902L23.768 7.95772C23.3012 6.95664 22.1112 6.52353 21.1101 6.99034L11.1407 11.6391C10.1397 12.1059 9.70655 13.2959 10.1734 14.297L19.0483 33.3295C19.5152 34.3305 20.7051 34.7636 21.7062 34.2968Z" stroke="#FE7500" stroke-linecap="round"/>
</g>
<defs>
<filter id="filter0_dd_226_645" x="4" y="1.81641" width="34.8164" height="39.6543" filterUnits="userSpaceOnUse" color-interpolation-filters="sRGB">
<feFlood flood-opacity="0" result="BackgroundImageFix"/>
<feColorMatrix in="SourceAlpha" type="matrix" values="0 0 0 0 0 0 0 0 0 0 0 0 0 0 0 0 0 0 127 0" result="hardAlpha"/>
<feMorphology radius="1" operator="dilate" in="SourceAlpha" result="effect1_dropShadow_226_645"/>
<feOffset dy="1"/>
<feGaussianBlur stdDeviation="1.5"/>
<feColorMatrix type="matrix" values="0 0 0 0 0 0 0 0 0 0 0 0 0 0 0 0 0 0 0.15 0"/>
<feBlend mode="normal" in2="BackgroundImageFix" result="effect1_dropShadow_226_645"/>
<feColorMatrix in="SourceAlpha" type="matrix" values="0 0 0 0 0 0 0 0 0 0 0 0 0 0 0 0 0 0 127 0" result="hardAlpha"/>
<feOffset dy="1"/>
<feGaussianBlur stdDeviation="1"/>
<feColorMatrix type="matrix" values="0 0 0 0 0 0 0 0 0 0 0 0 0 0 0 0 0 0 0.3 0"/>
<feBlend mode="normal" in2="effect1_dropShadow_226_645" result="effect2_dropShadow_226_645"/>
<feBlend mode="normal" in="SourceGraphic" in2="effect2_dropShadow_226_645" result="shape"/>
</filter>
</defs>
</svg>
