<svg width="35" height="40" viewBox="0 0 35 40" fill="none" xmlns="http://www.w3.org/2000/svg">
<g filter="url(#filter0_dd_226_649)">
<path d="M4.69411 11.9049C4.18995 10.8237 4.70099 9.51838 5.83555 8.98933L17.1342 3.72069C18.2687 3.19164 19.5972 3.63921 20.1013 4.72038L29.6863 25.2754C30.1905 26.3566 29.6794 27.6619 28.5449 28.191L17.2462 33.4596C16.1117 33.9887 14.7832 33.5411 14.2791 32.4599L4.69411 11.9049Z" fill="#FFFDF1"/>
<path d="M19.2438 28.3574L23.3524 26.4415M17.2462 33.4596L28.5449 28.191C29.6794 27.6619 30.1905 26.3566 29.6863 25.2754L20.1013 4.72038C19.5972 3.63921 18.2687 3.19164 17.1342 3.72069L5.83555 8.98933C4.70099 9.51838 4.18995 10.8237 4.69411 11.9049L14.2791 32.4599C14.7832 33.5411 16.1117 33.9887 17.2462 33.4596Z" stroke="#FFFDF1" stroke-linecap="round"/>
<path d="M5.95461 12.2443C5.4878 11.2432 5.92091 10.0532 6.92199 9.5864L16.8914 4.9376C17.8925 4.47079 19.0824 4.9039 19.5492 5.90498L28.4242 24.9374C28.891 25.9385 28.4579 27.1285 27.4568 27.5953L17.4874 32.2441C16.4864 32.7109 15.2964 32.2778 14.8296 31.2767L5.95461 12.2443Z" fill="#FFCE99"/>
<path d="M19.1804 27.5929L22.8056 25.9024M17.4874 32.2441L27.4568 27.5953C28.4579 27.1285 28.891 25.9385 28.4242 24.9374L19.5492 5.90498C19.0824 4.9039 17.8925 4.47079 16.8914 4.9376L6.92199 9.5864C5.92091 10.0532 5.4878 11.2432 5.95461 12.2443L14.8296 31.2767C15.2964 32.2778 16.4864 32.7109 17.4874 32.2441Z" stroke="#FE7500" stroke-linecap="round"/>
</g>
<defs>
<filter id="filter0_dd_226_649" x="-0.21875" y="-0.236328" width="34.8164" height="39.6543" filterUnits="userSpaceOnUse" color-interpolation-filters="sRGB">
<feFlood flood-opacity="0" result="BackgroundImageFix"/>
<feColorMatrix in="SourceAlpha" type="matrix" values="0 0 0 0 0 0 0 0 0 0 0 0 0 0 0 0 0 0 127 0" result="hardAlpha"/>
<feMorphology radius="1" operator="dilate" in="SourceAlpha" result="effect1_dropShadow_226_649"/>
<feOffset dy="1"/>
<feGaussianBlur stdDeviation="1.5"/>
<feColorMatrix type="matrix" values="0 0 0 0 0 0 0 0 0 0 0 0 0 0 0 0 0 0 0.15 0"/>
<feBlend mode="normal" in2="BackgroundImageFix" result="effect1_dropShadow_226_649"/>
<feColorMatrix in="SourceAlpha" type="matrix" values="0 0 0 0 0 0 0 0 0 0 0 0 0 0 0 0 0 0 127 0" result="hardAlpha"/>
<feOffset dy="1"/>
<feGaussianBlur stdDeviation="1"/>
<feColorMatrix type="matrix" values="0 0 0 0 0 0 0 0 0 0 0 0 0 0 0 0 0 0 0.3 0"/>
<feBlend mode="normal" in2="effect1_dropShadow_226_649" result="effect2_dropShadow_226_649"/>
<feBlend mode="normal" in="SourceGraphic" in2="effect2_dropShadow_226_649" result="shape"/>
</filter>
</defs>
</svg>
