<svg width="106" height="113" viewBox="0 0 106 113" fill="none" xmlns="http://www.w3.org/2000/svg">
<path d="M26.0456 94.7978H43.1243M11.1018 109.742H58.0681C62.7843 109.742 66.6074 105.918 66.6074 101.202V80V11.5393C66.6074 6.82319 62.7843 3 58.0681 3H11.1018C6.38569 3 2.5625 6.82319 2.5625 11.5393V101.202C2.5625 105.918 6.38569 109.742 11.1018 109.742Z" stroke="#FECE99" stroke-width="3" stroke-linecap="round"/>
<path d="M43.9454 75.2022V55.9266C43.9454 55.306 44.4485 54.803 45.069 54.803H54.366C54.9865 54.803 55.4896 55.306 55.4896 55.9266V75.2022H61.4478V51.8467C61.4478 51.2262 61.9509 50.7231 62.5714 50.7231H72.2408C72.8613 50.7231 73.3644 51.2262 73.3644 51.8467V75.2022H79.3226V45.9124C79.3226 45.2919 79.8257 44.7888 80.4462 44.7888H89.7432C90.3637 44.7888 90.8668 45.2919 90.8668 45.9124V75.2022H79.3226H73.3644H61.4478H55.4896H43.9454Z" fill="#FECE99"/>
<path d="M38 37V74.0786C38 74.6992 38.5031 75.2022 39.1236 75.2022H43.9454M95.3034 75.2022H90.8668M43.9454 75.2022V55.9266C43.9454 55.306 44.4485 54.803 45.069 54.803H54.366C54.9865 54.803 55.4896 55.306 55.4896 55.9266V75.2022M43.9454 75.2022H55.4896M55.4896 75.2022H61.4478M61.4478 75.2022V51.8467C61.4478 51.2262 61.9509 50.7231 62.5714 50.7231H72.2408C72.8613 50.7231 73.3644 51.2262 73.3644 51.8467V75.2022M61.4478 75.2022H73.3644M73.3644 75.2022H79.3226M79.3226 75.2022V45.9124C79.3226 45.2919 79.8257 44.7888 80.4462 44.7888H89.7432C90.3637 44.7888 90.8668 45.2919 90.8668 45.9124V75.2022M79.3226 75.2022H90.8668" stroke="#FECE99" stroke-width="3" stroke-linecap="round"/>
</svg>
