<svg width="106" height="113" viewBox="0 0 106 113" fill="none" xmlns="http://www.w3.org/2000/svg">
<path d="M26.0456 94.7978H43.1243M66.6074 44.5V11.5393C66.6074 6.82319 62.7843 3 58.0681 3H11.1018C6.38569 3 2.5625 6.82319 2.5625 11.5393V101.202C2.5625 105.918 6.38569 109.742 11.1018 109.742H58.0681C62.7843 109.742 66.6074 105.918 66.6074 101.202V80" stroke="#FECE99" stroke-width="3" stroke-linecap="round"/>
<path d="M49.071 67.666C48.8408 68.0273 49.3006 68.4345 49.6371 68.1693C61.2084 59.0532 70.108 56.2327 87.6548 56.0672C88.4928 56.0593 89.1765 56.7392 89.1765 57.5772V64.1609C89.1765 64.5005 89.5886 64.6688 89.8263 64.4263L101.754 52.2597C102.343 51.6584 102.33 50.6918 101.724 50.107L89.8188 38.6198C89.5781 38.3875 89.1765 38.5581 89.1765 38.8926V45.4944C89.1765 46.3392 88.4761 47.0199 87.6312 47.0203C65.8961 47.0324 58.2241 53.3004 49.071 67.666Z" fill="#FECE99"/>
<path d="M69.4641 43.6436H41.0327C39.3578 43.6436 38 45.0013 38 46.6762V72.9673C38 74.6422 39.3578 76 41.0327 76H70.732C72.4069 76 73.7647 74.6422 73.7647 72.9673L73.7647 62.0294M89.1765 45.4944V38.8926C89.1765 38.5581 89.5781 38.3875 89.8188 38.6198L101.724 50.107C102.33 50.6918 102.343 51.6584 101.754 52.2597L89.8263 64.4263C89.5886 64.6688 89.1765 64.5005 89.1765 64.1609V57.5772C89.1765 56.7392 88.4928 56.0593 87.6548 56.0672C70.108 56.2327 61.2084 59.0532 49.6371 68.1693C49.3006 68.4345 48.8408 68.0273 49.071 67.666C58.2241 53.3004 65.8961 47.0324 87.6312 47.0203C88.4761 47.0199 89.1765 46.3392 89.1765 45.4944Z" stroke="#FECE99" stroke-width="3" stroke-linecap="round"/>
</svg>
