<svg width="106" height="113" viewBox="0 0 106 113" fill="none" xmlns="http://www.w3.org/2000/svg">
<path d="M26.0456 94.7978H43.1243M11.1018 109.742H58.0681C62.7843 109.742 66.6074 105.918 66.6074 101.202V11.5393C66.6074 6.82319 62.7843 3 58.0681 3H11.1018C6.38569 3 2.5625 6.82318 2.5625 11.5393V101.202C2.5625 105.918 6.38569 109.742 11.1018 109.742Z" stroke="#FECE99" stroke-width="3" stroke-linecap="round"/>
<path d="M38 69.0173V43.567C38 41.597 39.597 40 41.567 40H85.5111C87.4811 40 89.078 41.597 89.078 43.567V50.8614L100.475 44.0987C101.664 43.3932 103.169 44.25 103.169 45.6324V66.7368C103.169 68.1192 101.664 68.976 100.475 68.2706L89.078 61.5078V69.0173C89.078 70.9873 87.4811 72.5843 85.5111 72.5843H41.567C39.597 72.5843 38 70.9873 38 69.0173Z" fill="#FECE99"/>
<path d="M89.078 50.8614V43.567C89.078 41.597 87.4811 40 85.5111 40H41.567C39.597 40 38 41.597 38 43.567V69.0173C38 70.9873 39.597 72.5843 41.567 72.5843H85.5111C87.4811 72.5843 89.078 70.9873 89.078 69.0173V61.5078M89.078 50.8614L100.475 44.0987C101.664 43.3932 103.169 44.25 103.169 45.6324V66.7368C103.169 68.1192 101.664 68.976 100.475 68.2706L89.078 61.5078M89.078 50.8614V61.5078M65.7407 50.8614H82.0328M65.7407 62.628H82.0328" stroke="#FECE99" stroke-width="3" stroke-linecap="round"/>
<path d="M61 51L77 51" stroke="#FFFCF1" stroke-width="2" stroke-linecap="round"/>
<path d="M61 62L77 62" stroke="#FFFCF1" stroke-width="2" stroke-linecap="round"/>
</svg>
