<svg width="189" height="58" viewBox="0 0 189 58" fill="none" xmlns="http://www.w3.org/2000/svg">
<rect x="0.5" y="13.4824" width="173" height="44" rx="11.5" fill="white"/>
<rect x="0.5" y="13.4824" width="173" height="44" rx="11.5" stroke="#8A7B6A"/>
<rect x="6.5" y="19.4824" width="161" height="32" rx="9.5" fill="#F2E9DC"/>
<rect x="6.5" y="19.4824" width="161" height="32" rx="9.5" stroke="#8A7B6A"/>
<path d="M14.144 41.0144C13.888 41.0144 13.7013 40.9824 13.584 40.9184C13.4667 40.8438 13.408 40.7424 13.408 40.6144V30.3104C13.408 29.9584 13.584 29.7824 13.936 29.7824H17.088C18.3467 29.7824 19.2853 30.0491 19.904 30.5824C20.5227 31.1158 20.832 31.8998 20.832 32.9344C20.832 33.4038 20.752 33.8198 20.592 34.1824C20.4427 34.5451 20.2187 34.8491 19.92 35.0944C19.632 35.3291 19.2747 35.4944 18.848 35.5904V35.6544C19.136 35.7398 19.3813 35.9211 19.584 36.1984C19.7973 36.4758 19.984 36.8224 20.144 37.2384L21.408 40.4064C21.44 40.4704 21.4613 40.5344 21.472 40.5984C21.4827 40.6518 21.488 40.6944 21.488 40.7264C21.488 40.8224 21.4293 40.8971 21.312 40.9504C21.1947 40.9931 21.0027 41.0144 20.736 41.0144H20.432C20.2507 41.0144 20.096 40.9878 19.968 40.9344C19.84 40.8811 19.7493 40.8011 19.696 40.6944L18.416 37.4144C18.2987 37.1264 18.1653 36.8971 18.016 36.7264C17.8667 36.5451 17.6747 36.4171 17.44 36.3424C17.2053 36.2678 16.9067 36.2304 16.544 36.2304H15.152V40.6144C15.152 40.7424 15.0933 40.8438 14.976 40.9184C14.8693 40.9824 14.6773 41.0144 14.4 41.0144H14.144ZM15.152 34.8064H17.12C17.8133 34.8064 18.3093 34.6731 18.608 34.4064C18.9173 34.1291 19.072 33.6864 19.072 33.0784C19.072 32.4384 18.9173 31.9744 18.608 31.6864C18.3093 31.3984 17.8133 31.2544 17.12 31.2544H15.152V34.8064ZM26.1816 41.0944C24.891 41.0944 23.915 40.7531 23.2536 40.0704C22.5923 39.3878 22.2616 38.3104 22.2616 36.8384C22.2616 35.8784 22.411 35.0784 22.7096 34.4384C23.019 33.7984 23.4563 33.3184 24.0216 32.9984C24.587 32.6678 25.2643 32.5024 26.0536 32.5024C26.811 32.5024 27.435 32.6731 27.9256 33.0144C28.4163 33.3451 28.779 33.8198 29.0136 34.4384C29.2483 35.0571 29.3656 35.7878 29.3656 36.6304C29.3656 36.7371 29.3336 36.8544 29.2696 36.9824C29.2056 37.0998 29.1203 37.2011 29.0136 37.2864C28.9176 37.3718 28.8163 37.4144 28.7096 37.4144H23.9736C23.995 38.2251 24.1923 38.8171 24.5656 39.1904C24.9496 39.5531 25.5043 39.7344 26.2296 39.7344C26.699 39.7344 27.099 39.6758 27.4296 39.5584C27.771 39.4411 28.043 39.3291 28.2456 39.2224C28.459 39.1158 28.5976 39.0624 28.6616 39.0624C28.747 39.0624 28.827 39.1158 28.9016 39.2224C28.9763 39.3291 29.035 39.4571 29.0776 39.6064C29.131 39.7451 29.1576 39.8571 29.1576 39.9424C29.1576 40.0598 29.0723 40.1824 28.9016 40.3104C28.731 40.4384 28.5016 40.5664 28.2136 40.6944C27.9363 40.8118 27.6216 40.9078 27.2696 40.9824C26.9176 41.0571 26.555 41.0944 26.1816 41.0944ZM23.9576 36.1344H27.7336C27.7336 35.3771 27.579 34.8118 27.2696 34.4384C26.9603 34.0544 26.5123 33.8624 25.9256 33.8624C25.531 33.8624 25.1896 33.9478 24.9016 34.1184C24.6136 34.2891 24.3843 34.5398 24.2136 34.8704C24.0536 35.2011 23.9683 35.6224 23.9576 36.1344ZM32.9026 41.1264C32.5613 41.1264 32.236 41.0944 31.9266 41.0304C31.6173 40.9664 31.34 40.8811 31.0946 40.7744C30.86 40.6678 30.6733 40.5558 30.5346 40.4384C30.396 40.3211 30.3266 40.2038 30.3266 40.0864C30.3266 40.0011 30.364 39.8891 30.4386 39.7504C30.5133 39.6011 30.5986 39.4678 30.6946 39.3504C30.7906 39.2224 30.8813 39.1584 30.9666 39.1584C31.02 39.1584 31.1213 39.2118 31.2706 39.3184C31.42 39.4144 31.6226 39.5104 31.8786 39.6064C32.1346 39.7024 32.4333 39.7504 32.7746 39.7504C33.2333 39.7504 33.58 39.6651 33.8146 39.4944C34.0493 39.3131 34.1666 39.0518 34.1666 38.7104C34.1666 38.4651 34.1026 38.2624 33.9746 38.1024C33.8466 37.9424 33.6653 37.8091 33.4306 37.7024C33.2066 37.5958 32.9506 37.4944 32.6626 37.3984C32.4066 37.3024 32.1506 37.1958 31.8946 37.0784C31.6386 36.9611 31.404 36.8118 31.1906 36.6304C30.988 36.4491 30.8226 36.2198 30.6946 35.9424C30.5773 35.6651 30.5186 35.3184 30.5186 34.9024C30.5186 34.4224 30.6306 34.0011 30.8546 33.6384C31.0893 33.2758 31.4093 32.9984 31.8146 32.8064C32.2306 32.6038 32.7053 32.5024 33.2386 32.5024C33.5053 32.5024 33.7666 32.5184 34.0226 32.5504C34.2786 32.5824 34.5133 32.6358 34.7266 32.7104C34.94 32.7744 35.1106 32.8544 35.2386 32.9504C35.3773 33.0464 35.4466 33.1478 35.4466 33.2544C35.4466 33.3504 35.4146 33.4784 35.3506 33.6384C35.2866 33.7878 35.212 33.9264 35.1266 34.0544C35.0413 34.1718 34.956 34.2304 34.8706 34.2304C34.8173 34.2304 34.668 34.1664 34.4226 34.0384C34.188 33.9104 33.8573 33.8464 33.4306 33.8464C33.068 33.8464 32.764 33.9264 32.5186 34.0864C32.284 34.2358 32.1666 34.4651 32.1666 34.7744C32.1666 34.9664 32.2093 35.1318 32.2946 35.2704C32.38 35.3984 32.5186 35.5158 32.7106 35.6224C32.9026 35.7184 33.148 35.8198 33.4466 35.9264C33.756 36.0331 34.0546 36.1558 34.3426 36.2944C34.6306 36.4331 34.8866 36.6038 35.1106 36.8064C35.3346 36.9984 35.5053 37.2384 35.6226 37.5264C35.7506 37.8144 35.8146 38.1558 35.8146 38.5504C35.8146 39.0518 35.692 39.4944 35.4466 39.8784C35.2013 40.2624 34.86 40.5664 34.4226 40.7904C33.9853 41.0144 33.4786 41.1264 32.9026 41.1264ZM39.592 41.0944C38.8027 41.0944 38.1893 40.8758 37.752 40.4384C37.3253 39.9904 37.112 39.3611 37.112 38.5504V32.9824C37.112 32.8544 37.1653 32.7584 37.272 32.6944C37.3787 32.6198 37.5653 32.5824 37.832 32.5824H38.056C38.3227 32.5824 38.5093 32.6198 38.616 32.6944C38.7227 32.7584 38.776 32.8544 38.776 32.9824V38.3584C38.776 38.7851 38.888 39.1158 39.112 39.3504C39.336 39.5744 39.6773 39.6864 40.136 39.6864C40.3813 39.6864 40.616 39.6438 40.84 39.5584C41.0747 39.4731 41.2933 39.3504 41.496 39.1904C41.6987 39.0304 41.864 38.8438 41.992 38.6304V32.9824C41.992 32.8544 42.0453 32.7584 42.152 32.6944C42.2587 32.6198 42.4453 32.5824 42.712 32.5824H42.936C43.2027 32.5824 43.3893 32.6198 43.496 32.6944C43.6027 32.7584 43.656 32.8544 43.656 32.9824V38.4704C43.656 38.9184 43.6667 39.2811 43.688 39.5584C43.72 39.8358 43.7467 40.0544 43.768 40.2144C43.8 40.3744 43.816 40.4971 43.816 40.5824C43.816 40.6571 43.768 40.7211 43.672 40.7744C43.5867 40.8278 43.48 40.8704 43.352 40.9024C43.224 40.9238 43.0907 40.9451 42.952 40.9664C42.824 40.9771 42.7173 40.9824 42.632 40.9824C42.5253 40.9824 42.44 40.9504 42.376 40.8864C42.3227 40.8224 42.2747 40.7104 42.232 40.5504C42.1893 40.3798 42.1413 40.1558 42.088 39.8784C41.896 40.1131 41.6613 40.3211 41.384 40.5024C41.1173 40.6838 40.8293 40.8278 40.52 40.9344C40.2213 41.0411 39.912 41.0944 39.592 41.0944ZM47.8903 41.0944C47.4316 41.0944 47.0529 41.0091 46.7543 40.8384C46.4556 40.6678 46.2316 40.4224 46.0823 40.1024C45.9329 39.7718 45.8583 39.3664 45.8583 38.8864V29.3504C45.8583 29.2118 45.9116 29.1104 46.0183 29.0464C46.1249 28.9718 46.3116 28.9344 46.5783 28.9344H46.8023C47.0689 28.9344 47.2556 28.9718 47.3623 29.0464C47.4689 29.1104 47.5223 29.2118 47.5223 29.3504V38.8544C47.5223 39.1744 47.5703 39.3984 47.6663 39.5264C47.7729 39.6438 47.9543 39.7024 48.2103 39.7024C48.4343 39.7024 48.5996 39.6758 48.7063 39.6224C48.8129 39.5691 48.9036 39.5424 48.9783 39.5424C49.0316 39.5424 49.0796 39.5851 49.1223 39.6704C49.1649 39.7451 49.1969 39.8411 49.2183 39.9584C49.2503 40.0651 49.2663 40.1718 49.2663 40.2784C49.2769 40.3744 49.2823 40.4438 49.2823 40.4864C49.2823 40.6038 49.2023 40.7104 49.0423 40.8064C48.8929 40.8918 48.7116 40.9611 48.4983 41.0144C48.2849 41.0678 48.0823 41.0944 47.8903 41.0944ZM52.6883 41.0944C52.2403 41.0944 51.8616 41.0091 51.5523 40.8384C51.2536 40.6678 51.0296 40.4224 50.8803 40.1024C50.7309 39.7718 50.6563 39.3664 50.6563 38.8864V33.9744H49.9363C49.6909 33.9744 49.5683 33.7824 49.5683 33.3984V33.1904C49.5683 32.8064 49.6909 32.6144 49.9363 32.6144H50.6563L50.8643 30.9824C50.8856 30.8438 50.9443 30.7424 51.0403 30.6784C51.1363 30.6144 51.2749 30.5824 51.4563 30.5824H51.6963C51.9203 30.5824 52.0803 30.6144 52.1763 30.6784C52.2723 30.7424 52.3203 30.8438 52.3203 30.9824V32.6144H53.5683C53.8136 32.6144 53.9363 32.8064 53.9363 33.1904V33.3984C53.9363 33.7824 53.8136 33.9744 53.5683 33.9744H52.3203V38.8544C52.3203 39.1638 52.3683 39.3824 52.4643 39.5104C52.5709 39.6384 52.7523 39.7024 53.0083 39.7024C53.2429 39.7024 53.4083 39.6758 53.5043 39.6224C53.6109 39.5691 53.7016 39.5424 53.7763 39.5424C53.8403 39.5424 53.8883 39.5851 53.9203 39.6704C53.9629 39.7451 53.9949 39.8411 54.0163 39.9584C54.0483 40.0651 54.0643 40.1718 54.0643 40.2784C54.0749 40.3744 54.0803 40.4438 54.0803 40.4864C54.0803 40.6038 54.0003 40.7104 53.8403 40.8064C53.6909 40.8918 53.5096 40.9611 53.2963 41.0144C53.0829 41.0678 52.8803 41.0944 52.6883 41.0944ZM60.0487 41.0144C59.7821 41.0144 59.5954 40.9824 59.4887 40.9184C59.3821 40.8438 59.3287 40.7424 59.3287 40.6144V33.9744H58.5927C58.3581 33.9744 58.2407 33.7824 58.2407 33.3984V33.1904C58.2407 32.8064 58.3581 32.6144 58.5927 32.6144H59.3287V31.0624C59.3287 30.5718 59.4034 30.1664 59.5527 29.8464C59.7021 29.5264 59.9261 29.2864 60.2247 29.1264C60.5341 28.9558 60.9127 28.8704 61.3607 28.8704C61.5527 28.8704 61.7554 28.8918 61.9687 28.9344C62.1821 28.9771 62.3634 29.0411 62.5127 29.1264C62.6727 29.2011 62.7527 29.2971 62.7527 29.4144C62.7527 29.4678 62.7474 29.5478 62.7367 29.6544C62.7367 29.7611 62.7207 29.8731 62.6887 29.9904C62.6674 30.1078 62.6354 30.2091 62.5927 30.2944C62.5607 30.3798 62.5127 30.4224 62.4487 30.4224C62.3741 30.4224 62.2834 30.3958 62.1767 30.3424C62.0807 30.2891 61.9154 30.2624 61.6807 30.2624C61.4247 30.2624 61.2434 30.3211 61.1367 30.4384C61.0407 30.5558 60.9927 30.7798 60.9927 31.1104V32.6144H62.2407C62.4861 32.6144 62.6087 32.8064 62.6087 33.1904V33.3984C62.6087 33.7824 62.4861 33.9744 62.2407 33.9744H60.9927V40.6144C60.9927 40.7424 60.9394 40.8438 60.8327 40.9184C60.7261 40.9824 60.5394 41.0144 60.2727 41.0144H60.0487ZM64.6919 41.0144C64.4359 41.0144 64.2492 40.9824 64.1319 40.9184C64.0145 40.8438 63.9559 40.7424 63.9559 40.6144V35.1264C63.9559 34.6784 63.9399 34.3158 63.9079 34.0384C63.8865 33.7611 63.8599 33.5424 63.8279 33.3824C63.8065 33.2224 63.7959 33.0998 63.7959 33.0144C63.7959 32.9504 63.8385 32.8918 63.9239 32.8384C64.0199 32.7851 64.1319 32.7424 64.2599 32.7104C64.3879 32.6784 64.5159 32.6571 64.6439 32.6464C64.7825 32.6358 64.8945 32.6304 64.9799 32.6304C65.0865 32.6304 65.1719 32.6678 65.2359 32.7424C65.2999 32.8064 65.3532 32.9238 65.3959 33.0944C65.4492 33.2544 65.4972 33.4784 65.5399 33.7664C65.6892 33.4891 65.8705 33.2598 66.0839 33.0784C66.2972 32.8864 66.5319 32.7424 66.7879 32.6464C67.0439 32.5504 67.3105 32.5024 67.5879 32.5024C67.8012 32.5024 67.9559 32.5504 68.0519 32.6464C68.1479 32.7424 68.1959 32.8864 68.1959 33.0784C68.1959 33.1851 68.1852 33.3078 68.1639 33.4464C68.1425 33.5744 68.1159 33.7024 68.0839 33.8304C68.0519 33.9478 68.0092 34.0491 67.9559 34.1344C67.9132 34.2091 67.8545 34.2464 67.7799 34.2464C67.6945 34.2464 67.5985 34.2251 67.4919 34.1824C67.3852 34.1291 67.2199 34.1024 66.9959 34.1024C66.6759 34.1024 66.3879 34.1878 66.1319 34.3584C65.8865 34.5291 65.7159 34.7638 65.6199 35.0624V40.6144C65.6199 40.7424 65.5612 40.8438 65.4439 40.9184C65.3265 40.9824 65.1345 41.0144 64.8679 41.0144H64.6919ZM72.4147 41.0944C71.1987 41.0944 70.2654 40.7264 69.6147 39.9904C68.9747 39.2544 68.6547 38.1984 68.6547 36.8224C68.6547 35.4358 68.9747 34.3691 69.6147 33.6224C70.2654 32.8758 71.1987 32.5024 72.4147 32.5024C73.6201 32.5024 74.5374 32.8758 75.1667 33.6224C75.8067 34.3584 76.1267 35.4251 76.1267 36.8224C76.1267 38.2091 75.8121 39.2704 75.1827 40.0064C74.5641 40.7318 73.6414 41.0944 72.4147 41.0944ZM72.3827 39.7344C73.0867 39.7344 73.5987 39.4944 73.9187 39.0144C74.2494 38.5344 74.4147 37.7984 74.4147 36.8064C74.4147 35.8144 74.2494 35.0784 73.9187 34.5984C73.5987 34.1078 73.0867 33.8624 72.3827 33.8624C71.6894 33.8624 71.1774 34.1024 70.8467 34.5824C70.5267 35.0624 70.3667 35.8038 70.3667 36.8064C70.3667 37.7984 70.5267 38.5344 70.8467 39.0144C71.1774 39.4944 71.6894 39.7344 72.3827 39.7344ZM78.6441 41.0144C78.3775 41.0144 78.1908 40.9824 78.0841 40.9184C77.9775 40.8438 77.9241 40.7424 77.9241 40.6144V35.1264C77.9241 34.6784 77.9081 34.3158 77.8761 34.0384C77.8548 33.7611 77.8281 33.5424 77.7961 33.3824C77.7748 33.2224 77.7641 33.0998 77.7641 33.0144C77.7641 32.9504 77.8068 32.8918 77.8921 32.8384C77.9881 32.7851 78.1001 32.7424 78.2281 32.7104C78.3561 32.6784 78.4841 32.6571 78.6121 32.6464C78.7508 32.6358 78.8628 32.6304 78.9481 32.6304C79.0548 32.6304 79.1348 32.6624 79.1881 32.7264C79.2521 32.7904 79.3055 32.9024 79.3481 33.0624C79.3908 33.2118 79.4388 33.4304 79.4921 33.7184C79.6841 33.4731 79.9028 33.2651 80.1481 33.0944C80.4041 32.9131 80.6761 32.7691 80.9641 32.6624C81.2628 32.5558 81.5668 32.5024 81.8761 32.5024C82.2495 32.5024 82.5801 32.5558 82.8681 32.6624C83.1668 32.7584 83.4228 32.9078 83.6361 33.1104C83.8601 33.3024 84.0308 33.5478 84.1481 33.8464C84.3401 33.5798 84.5641 33.3504 84.8201 33.1584C85.0868 32.9558 85.3748 32.7958 85.6841 32.6784C85.9935 32.5611 86.3081 32.5024 86.6281 32.5024C87.1615 32.5024 87.6148 32.6038 87.9881 32.8064C88.3615 33.0091 88.6441 33.3024 88.8361 33.6864C89.0281 34.0704 89.1241 34.5398 89.1241 35.0944V40.6144C89.1241 40.7424 89.0708 40.8438 88.9641 40.9184C88.8575 40.9824 88.6708 41.0144 88.4041 41.0144H88.1801C87.9135 41.0144 87.7268 40.9824 87.6201 40.9184C87.5135 40.8438 87.4601 40.7424 87.4601 40.6144V35.2864C87.4601 34.8384 87.3481 34.4971 87.1241 34.2624C86.9001 34.0278 86.5535 33.9104 86.0841 33.9104C85.9241 33.9104 85.7588 33.9371 85.5881 33.9904C85.4175 34.0331 85.2521 34.1078 85.0921 34.2144C84.9428 34.3211 84.7935 34.4491 84.6441 34.5984C84.4948 34.7371 84.3561 34.9078 84.2281 35.1104V34.3584C84.2921 34.4758 84.3295 34.5984 84.3401 34.7264C84.3615 34.8544 84.3721 34.9824 84.3721 35.1104V40.6144C84.3721 40.7424 84.3135 40.8438 84.1961 40.9184C84.0895 40.9824 83.9028 41.0144 83.6361 41.0144H83.4281C83.1615 41.0144 82.9695 40.9824 82.8521 40.9184C82.7455 40.8438 82.6921 40.7424 82.6921 40.6144V35.2864C82.6921 34.8384 82.5801 34.4971 82.3561 34.2624C82.1321 34.0278 81.7908 33.9104 81.3321 33.9104C81.1081 33.9104 80.8841 33.9531 80.6601 34.0384C80.4468 34.1238 80.2441 34.2464 80.0521 34.4064C79.8708 34.5664 79.7161 34.7478 79.5881 34.9504V40.6144C79.5881 40.7424 79.5348 40.8438 79.4281 40.9184C79.3215 40.9824 79.1348 41.0144 78.8681 41.0144H78.6441ZM95.4104 41.0144C95.1437 41.0144 94.957 40.9824 94.8504 40.9184C94.7437 40.8438 94.6904 40.7424 94.6904 40.6144V32.9824C94.6904 32.8544 94.7437 32.7584 94.8504 32.6944C94.957 32.6198 95.1437 32.5824 95.4104 32.5824H95.6344C95.901 32.5824 96.0877 32.6198 96.1944 32.6944C96.301 32.7584 96.3544 32.8544 96.3544 32.9824V40.6144C96.3544 40.7424 96.301 40.8438 96.1944 40.9184C96.0877 40.9824 95.901 41.0144 95.6344 41.0144H95.4104ZM95.5224 31.5584C95.213 31.5584 94.9944 31.5264 94.8664 31.4624C94.7384 31.3878 94.6744 31.2864 94.6744 31.1584V30.1184C94.6744 29.9904 94.7384 29.8944 94.8664 29.8304C94.9944 29.7558 95.213 29.7184 95.5224 29.7184C95.821 29.7184 96.0344 29.7558 96.1624 29.8304C96.2904 29.8944 96.3544 29.9904 96.3544 30.1184V31.1584C96.3544 31.2864 96.2904 31.3878 96.1624 31.4624C96.0344 31.5264 95.821 31.5584 95.5224 31.5584ZM99.3247 41.0144C99.0581 41.0144 98.8714 40.9824 98.7647 40.9184C98.6581 40.8438 98.6047 40.7424 98.6047 40.6144V35.1264C98.6047 34.6784 98.5887 34.3158 98.5567 34.0384C98.5354 33.7611 98.5087 33.5424 98.4767 33.3824C98.4554 33.2224 98.4447 33.0998 98.4447 33.0144C98.4447 32.9504 98.4874 32.8918 98.5727 32.8384C98.6687 32.7851 98.7807 32.7424 98.9087 32.7104C99.0367 32.6784 99.1647 32.6571 99.2927 32.6464C99.4314 32.6358 99.5434 32.6304 99.6287 32.6304C99.7354 32.6304 99.8154 32.6624 99.8687 32.7264C99.9327 32.7904 99.9861 32.9024 100.029 33.0624C100.071 33.2118 100.119 33.4304 100.173 33.7184C100.365 33.4731 100.589 33.2651 100.845 33.0944C101.111 32.9131 101.394 32.7691 101.693 32.6624C101.991 32.5558 102.295 32.5024 102.605 32.5024C103.149 32.5024 103.607 32.6038 103.981 32.8064C104.365 33.0091 104.653 33.3024 104.845 33.6864C105.047 34.0704 105.149 34.5398 105.149 35.0944V40.6144C105.149 40.7424 105.095 40.8438 104.989 40.9184C104.882 40.9824 104.695 41.0144 104.429 41.0144H104.205C103.938 41.0144 103.751 40.9824 103.645 40.9184C103.538 40.8438 103.485 40.7424 103.485 40.6144V35.2864C103.485 34.8384 103.367 34.4971 103.133 34.2624C102.898 34.0278 102.541 33.9104 102.061 33.9104C101.826 33.9104 101.597 33.9531 101.373 34.0384C101.149 34.1238 100.941 34.2464 100.749 34.4064C100.557 34.5664 100.397 34.7531 100.269 34.9664V40.6144C100.269 40.7424 100.215 40.8438 100.109 40.9184C100.002 40.9824 99.8154 41.0144 99.5487 41.0144H99.3247ZM109.047 41.1264C108.706 41.1264 108.38 41.0944 108.071 41.0304C107.762 40.9664 107.484 40.8811 107.239 40.7744C107.004 40.6678 106.818 40.5558 106.679 40.4384C106.54 40.3211 106.471 40.2038 106.471 40.0864C106.471 40.0011 106.508 39.8891 106.583 39.7504C106.658 39.6011 106.743 39.4678 106.839 39.3504C106.935 39.2224 107.026 39.1584 107.111 39.1584C107.164 39.1584 107.266 39.2118 107.415 39.3184C107.564 39.4144 107.767 39.5104 108.023 39.6064C108.279 39.7024 108.578 39.7504 108.919 39.7504C109.378 39.7504 109.724 39.6651 109.959 39.4944C110.194 39.3131 110.311 39.0518 110.311 38.7104C110.311 38.4651 110.247 38.2624 110.119 38.1024C109.991 37.9424 109.81 37.8091 109.575 37.7024C109.351 37.5958 109.095 37.4944 108.807 37.3984C108.551 37.3024 108.295 37.1958 108.039 37.0784C107.783 36.9611 107.548 36.8118 107.335 36.6304C107.132 36.4491 106.967 36.2198 106.839 35.9424C106.722 35.6651 106.663 35.3184 106.663 34.9024C106.663 34.4224 106.775 34.0011 106.999 33.6384C107.234 33.2758 107.554 32.9984 107.959 32.8064C108.375 32.6038 108.85 32.5024 109.383 32.5024C109.65 32.5024 109.911 32.5184 110.167 32.5504C110.423 32.5824 110.658 32.6358 110.871 32.7104C111.084 32.7744 111.255 32.8544 111.383 32.9504C111.522 33.0464 111.591 33.1478 111.591 33.2544C111.591 33.3504 111.559 33.4784 111.495 33.6384C111.431 33.7878 111.356 33.9264 111.271 34.0544C111.186 34.1718 111.1 34.2304 111.015 34.2304C110.962 34.2304 110.812 34.1664 110.567 34.0384C110.332 33.9104 110.002 33.8464 109.575 33.8464C109.212 33.8464 108.908 33.9264 108.663 34.0864C108.428 34.2358 108.311 34.4651 108.311 34.7744C108.311 34.9664 108.354 35.1318 108.439 35.2704C108.524 35.3984 108.663 35.5158 108.855 35.6224C109.047 35.7184 109.292 35.8198 109.591 35.9264C109.9 36.0331 110.199 36.1558 110.487 36.2944C110.775 36.4331 111.031 36.6038 111.255 36.8064C111.479 36.9984 111.65 37.2384 111.767 37.5264C111.895 37.8144 111.959 38.1558 111.959 38.5504C111.959 39.0518 111.836 39.4944 111.591 39.8784C111.346 40.2624 111.004 40.5664 110.567 40.7904C110.13 41.0144 109.623 41.1264 109.047 41.1264ZM115.816 41.0944C115.368 41.0944 114.99 41.0091 114.68 40.8384C114.382 40.6678 114.158 40.4224 114.008 40.1024C113.859 39.7718 113.784 39.3664 113.784 38.8864V33.9744H113.064C112.819 33.9744 112.696 33.7824 112.696 33.3984V33.1904C112.696 32.8064 112.819 32.6144 113.064 32.6144H113.784L113.992 30.9824C114.014 30.8438 114.072 30.7424 114.168 30.6784C114.264 30.6144 114.403 30.5824 114.584 30.5824H114.824C115.048 30.5824 115.208 30.6144 115.304 30.6784C115.4 30.7424 115.448 30.8438 115.448 30.9824V32.6144H116.696C116.942 32.6144 117.064 32.8064 117.064 33.1904V33.3984C117.064 33.7824 116.942 33.9744 116.696 33.9744H115.448V38.8544C115.448 39.1638 115.496 39.3824 115.592 39.5104C115.699 39.6384 115.88 39.7024 116.136 39.7024C116.371 39.7024 116.536 39.6758 116.632 39.6224C116.739 39.5691 116.83 39.5424 116.904 39.5424C116.968 39.5424 117.016 39.5851 117.048 39.6704C117.091 39.7451 117.123 39.8411 117.144 39.9584C117.176 40.0651 117.192 40.1718 117.192 40.2784C117.203 40.3744 117.208 40.4438 117.208 40.4864C117.208 40.6038 117.128 40.7104 116.968 40.8064C116.819 40.8918 116.638 40.9611 116.424 41.0144C116.211 41.0678 116.008 41.0944 115.816 41.0944ZM120.709 41.0944C119.909 41.0944 119.269 40.8918 118.789 40.4864C118.32 40.0704 118.085 39.4784 118.085 38.7104C118.085 38.2198 118.165 37.7931 118.325 37.4304C118.485 37.0678 118.752 36.7638 119.125 36.5184C119.509 36.2731 120.032 36.0918 120.693 35.9744C121.354 35.8464 122.181 35.7824 123.173 35.7824V35.0944C123.173 34.8598 123.12 34.6518 123.013 34.4704C122.917 34.2891 122.752 34.1451 122.517 34.0384C122.282 33.9211 121.968 33.8624 121.573 33.8624C121.125 33.8624 120.725 33.9158 120.373 34.0224C120.021 34.1184 119.733 34.2198 119.509 34.3264C119.285 34.4224 119.136 34.4704 119.061 34.4704C118.997 34.4704 118.938 34.4384 118.885 34.3744C118.832 34.2998 118.778 34.2091 118.725 34.1024C118.682 33.9958 118.645 33.8891 118.613 33.7824C118.581 33.6758 118.565 33.5851 118.565 33.5104C118.565 33.4038 118.656 33.2971 118.837 33.1904C119.018 33.0731 119.258 32.9664 119.557 32.8704C119.866 32.7638 120.202 32.6784 120.565 32.6144C120.938 32.5398 121.306 32.5024 121.669 32.5024C122.192 32.5024 122.65 32.5664 123.045 32.6944C123.44 32.8118 123.765 32.9824 124.021 33.2064C124.288 33.4304 124.485 33.7024 124.613 34.0224C124.752 34.3318 124.821 34.6784 124.821 35.0624V38.4704C124.821 38.9398 124.837 39.3184 124.869 39.6064C124.901 39.8838 124.928 40.0971 124.949 40.2464C124.981 40.3958 124.997 40.5131 124.997 40.5984C124.997 40.6624 124.954 40.7211 124.869 40.7744C124.784 40.8171 124.677 40.8544 124.549 40.8864C124.421 40.9184 124.288 40.9451 124.149 40.9664C124.021 40.9771 123.909 40.9824 123.813 40.9824C123.696 40.9824 123.605 40.9398 123.541 40.8544C123.488 40.7691 123.44 40.6464 123.397 40.4864C123.365 40.3158 123.322 40.1131 123.269 39.8784C123.12 40.0598 122.928 40.2464 122.693 40.4384C122.458 40.6198 122.176 40.7744 121.845 40.9024C121.514 41.0304 121.136 41.0944 120.709 41.0944ZM120.981 39.7184C121.312 39.7184 121.61 39.6704 121.877 39.5744C122.144 39.4678 122.384 39.3344 122.597 39.1744C122.81 39.0144 123.002 38.8384 123.173 38.6464V37.0464C122.501 37.0464 121.946 37.0731 121.509 37.1264C121.072 37.1798 120.725 37.2704 120.469 37.3984C120.224 37.5158 120.048 37.6758 119.941 37.8784C119.834 38.0704 119.781 38.3051 119.781 38.5824C119.781 38.9451 119.882 39.2278 120.085 39.4304C120.288 39.6224 120.586 39.7184 120.981 39.7184ZM128.996 41.0944C128.537 41.0944 128.159 41.0091 127.86 40.8384C127.561 40.6678 127.337 40.4224 127.188 40.1024C127.039 39.7718 126.964 39.3664 126.964 38.8864V29.3504C126.964 29.2118 127.017 29.1104 127.124 29.0464C127.231 28.9718 127.417 28.9344 127.684 28.9344H127.908C128.175 28.9344 128.361 28.9718 128.468 29.0464C128.575 29.1104 128.628 29.2118 128.628 29.3504V38.8544C128.628 39.1744 128.676 39.3984 128.772 39.5264C128.879 39.6438 129.06 39.7024 129.316 39.7024C129.54 39.7024 129.705 39.6758 129.812 39.6224C129.919 39.5691 130.009 39.5424 130.084 39.5424C130.137 39.5424 130.185 39.5851 130.228 39.6704C130.271 39.7451 130.303 39.8411 130.324 39.9584C130.356 40.0651 130.372 40.1718 130.372 40.2784C130.383 40.3744 130.388 40.4438 130.388 40.4864C130.388 40.6038 130.308 40.7104 130.148 40.8064C129.999 40.8918 129.817 40.9611 129.604 41.0144C129.391 41.0678 129.188 41.0944 128.996 41.0944ZM134.742 41.0944C133.451 41.0944 132.475 40.7531 131.814 40.0704C131.152 39.3878 130.822 38.3104 130.822 36.8384C130.822 35.8784 130.971 35.0784 131.27 34.4384C131.579 33.7984 132.016 33.3184 132.582 32.9984C133.147 32.6678 133.824 32.5024 134.614 32.5024C135.371 32.5024 135.995 32.6731 136.486 33.0144C136.976 33.3451 137.339 33.8198 137.574 34.4384C137.808 35.0571 137.926 35.7878 137.926 36.6304C137.926 36.7371 137.894 36.8544 137.83 36.9824C137.766 37.0998 137.68 37.2011 137.574 37.2864C137.478 37.3718 137.376 37.4144 137.27 37.4144H132.534C132.555 38.2251 132.752 38.8171 133.126 39.1904C133.51 39.5531 134.064 39.7344 134.79 39.7344C135.259 39.7344 135.659 39.6758 135.99 39.5584C136.331 39.4411 136.603 39.3291 136.806 39.2224C137.019 39.1158 137.158 39.0624 137.222 39.0624C137.307 39.0624 137.387 39.1158 137.462 39.2224C137.536 39.3291 137.595 39.4571 137.638 39.6064C137.691 39.7451 137.718 39.8571 137.718 39.9424C137.718 40.0598 137.632 40.1824 137.462 40.3104C137.291 40.4384 137.062 40.5664 136.774 40.6944C136.496 40.8118 136.182 40.9078 135.83 40.9824C135.478 41.0571 135.115 41.0944 134.742 41.0944ZM132.518 36.1344H136.294C136.294 35.3771 136.139 34.8118 135.83 34.4384C135.52 34.0544 135.072 33.8624 134.486 33.8624C134.091 33.8624 133.75 33.9478 133.462 34.1184C133.174 34.2891 132.944 34.5398 132.774 34.8704C132.614 35.2011 132.528 35.6224 132.518 36.1344ZM141.687 41.0944C140.887 41.0944 140.247 40.8918 139.767 40.4864C139.297 40.0704 139.063 39.4784 139.063 38.7104C139.063 38.2198 139.143 37.7931 139.303 37.4304C139.463 37.0678 139.729 36.7638 140.103 36.5184C140.487 36.2731 141.009 36.0918 141.671 35.9744C142.332 35.8464 143.159 35.7824 144.151 35.7824V35.0944C144.151 34.8598 144.097 34.6518 143.991 34.4704C143.895 34.2891 143.729 34.1451 143.495 34.0384C143.26 33.9211 142.945 33.8624 142.551 33.8624C142.103 33.8624 141.703 33.9158 141.351 34.0224C140.999 34.1184 140.711 34.2198 140.487 34.3264C140.263 34.4224 140.113 34.4704 140.039 34.4704C139.975 34.4704 139.916 34.4384 139.863 34.3744C139.809 34.2998 139.756 34.2091 139.703 34.1024C139.66 33.9958 139.623 33.8891 139.591 33.7824C139.559 33.6758 139.543 33.5851 139.543 33.5104C139.543 33.4038 139.633 33.2971 139.815 33.1904C139.996 33.0731 140.236 32.9664 140.535 32.8704C140.844 32.7638 141.18 32.6784 141.543 32.6144C141.916 32.5398 142.284 32.5024 142.647 32.5024C143.169 32.5024 143.628 32.5664 144.023 32.6944C144.417 32.8118 144.743 32.9824 144.999 33.2064C145.265 33.4304 145.463 33.7024 145.591 34.0224C145.729 34.3318 145.799 34.6784 145.799 35.0624V38.4704C145.799 38.9398 145.815 39.3184 145.847 39.6064C145.879 39.8838 145.905 40.0971 145.927 40.2464C145.959 40.3958 145.975 40.5131 145.975 40.5984C145.975 40.6624 145.932 40.7211 145.847 40.7744C145.761 40.8171 145.655 40.8544 145.527 40.8864C145.399 40.9184 145.265 40.9451 145.127 40.9664C144.999 40.9771 144.887 40.9824 144.791 40.9824C144.673 40.9824 144.583 40.9398 144.519 40.8544C144.465 40.7691 144.417 40.6464 144.375 40.4864C144.343 40.3158 144.3 40.1131 144.247 39.8784C144.097 40.0598 143.905 40.2464 143.671 40.4384C143.436 40.6198 143.153 40.7744 142.823 40.9024C142.492 41.0304 142.113 41.0944 141.687 41.0944ZM141.959 39.7184C142.289 39.7184 142.588 39.6704 142.855 39.5744C143.121 39.4678 143.361 39.3344 143.575 39.1744C143.788 39.0144 143.98 38.8384 144.151 38.6464V37.0464C143.479 37.0464 142.924 37.0731 142.487 37.1264C142.049 37.1798 141.703 37.2704 141.447 37.3984C141.201 37.5158 141.025 37.6758 140.919 37.8784C140.812 38.0704 140.759 38.3051 140.759 38.5824C140.759 38.9451 140.86 39.2278 141.063 39.4304C141.265 39.6224 141.564 39.7184 141.959 39.7184ZM148.789 41.0144C148.533 41.0144 148.347 40.9824 148.229 40.9184C148.112 40.8438 148.053 40.7424 148.053 40.6144V35.1264C148.053 34.6784 148.037 34.3158 148.005 34.0384C147.984 33.7611 147.957 33.5424 147.925 33.3824C147.904 33.2224 147.893 33.0998 147.893 33.0144C147.893 32.9504 147.936 32.8918 148.021 32.8384C148.117 32.7851 148.229 32.7424 148.357 32.7104C148.485 32.6784 148.613 32.6571 148.741 32.6464C148.88 32.6358 148.992 32.6304 149.077 32.6304C149.184 32.6304 149.269 32.6678 149.333 32.7424C149.397 32.8064 149.451 32.9238 149.493 33.0944C149.547 33.2544 149.595 33.4784 149.637 33.7664C149.787 33.4891 149.968 33.2598 150.181 33.0784C150.395 32.8864 150.629 32.7424 150.885 32.6464C151.141 32.5504 151.408 32.5024 151.685 32.5024C151.899 32.5024 152.053 32.5504 152.149 32.6464C152.245 32.7424 152.293 32.8864 152.293 33.0784C152.293 33.1851 152.283 33.3078 152.261 33.4464C152.24 33.5744 152.213 33.7024 152.181 33.8304C152.149 33.9478 152.107 34.0491 152.053 34.1344C152.011 34.2091 151.952 34.2464 151.877 34.2464C151.792 34.2464 151.696 34.2251 151.589 34.1824C151.483 34.1291 151.317 34.1024 151.093 34.1024C150.773 34.1024 150.485 34.1878 150.229 34.3584C149.984 34.5291 149.813 34.7638 149.717 35.0624V40.6144C149.717 40.7424 149.659 40.8438 149.541 40.9184C149.424 40.9824 149.232 41.0144 148.965 41.0144H148.789ZM154.265 41.0144C153.998 41.0144 153.811 40.9824 153.705 40.9184C153.598 40.8438 153.545 40.7424 153.545 40.6144V35.1264C153.545 34.6784 153.529 34.3158 153.497 34.0384C153.475 33.7611 153.449 33.5424 153.417 33.3824C153.395 33.2224 153.385 33.0998 153.385 33.0144C153.385 32.9504 153.427 32.8918 153.513 32.8384C153.609 32.7851 153.721 32.7424 153.849 32.7104C153.977 32.6784 154.105 32.6571 154.233 32.6464C154.371 32.6358 154.483 32.6304 154.569 32.6304C154.675 32.6304 154.755 32.6624 154.809 32.7264C154.873 32.7904 154.926 32.9024 154.969 33.0624C155.011 33.2118 155.059 33.4304 155.113 33.7184C155.305 33.4731 155.529 33.2651 155.785 33.0944C156.051 32.9131 156.334 32.7691 156.633 32.6624C156.931 32.5558 157.235 32.5024 157.545 32.5024C158.089 32.5024 158.547 32.6038 158.921 32.8064C159.305 33.0091 159.593 33.3024 159.785 33.6864C159.987 34.0704 160.089 34.5398 160.089 35.0944V40.6144C160.089 40.7424 160.035 40.8438 159.929 40.9184C159.822 40.9824 159.635 41.0144 159.369 41.0144H159.145C158.878 41.0144 158.691 40.9824 158.585 40.9184C158.478 40.8438 158.425 40.7424 158.425 40.6144V35.2864C158.425 34.8384 158.307 34.4971 158.073 34.2624C157.838 34.0278 157.481 33.9104 157.001 33.9104C156.766 33.9104 156.537 33.9531 156.313 34.0384C156.089 34.1238 155.881 34.2464 155.689 34.4064C155.497 34.5664 155.337 34.7531 155.209 34.9664V40.6144C155.209 40.7424 155.155 40.8438 155.049 40.9184C154.942 40.9824 154.755 41.0144 154.489 41.0144H154.265Z" fill="#8A7B6A"/>
<g filter="url(#filter0_dd_226_693)">
<path d="M161.594 12.0161L152.38 20.7939C152.173 20.991 152.173 21.3209 152.38 21.5179L154.916 23.934C155.111 24.1202 155.42 24.1176 155.612 23.9281L161.607 18.0195C161.794 17.8355 162.091 17.827 162.288 18.0001L167.519 22.5966C167.718 22.772 168.02 22.7607 168.206 22.571L178.485 12.0819C178.692 11.8707 179.036 11.8843 179.225 12.1111L180.275 13.3666C180.559 13.7056 181.11 13.5371 181.156 13.0976L181.926 5.69607C181.962 5.34994 181.642 5.07381 181.305 5.15989L174.639 6.86146C174.258 6.95866 174.133 7.43689 174.418 7.70794L175.822 9.04612C176.029 9.24316 176.029 9.57312 175.822 9.77015L168.219 17.0137C168.026 17.1977 167.722 17.1977 167.529 17.0137L162.284 12.0161C162.09 11.8321 161.787 11.8321 161.594 12.0161Z" fill="white"/>
<path d="M181.237 4.08398C182.221 3.96024 183.097 4.78681 182.991 5.80664L182.222 13.208C182.078 14.5895 180.344 15.1192 179.453 14.0537L178.808 13.2822L168.971 23.3213C168.386 23.9172 167.438 23.9522 166.812 23.4014L161.979 19.1553L156.364 24.6914C155.76 25.2871 154.791 25.2953 154.177 24.71L151.641 22.2939C150.991 21.6748 150.991 20.6378 151.641 20.0186L160.854 11.2402C161.461 10.6621 162.416 10.6621 163.022 11.2402L167.874 15.8623L174.648 9.40723L173.679 8.4834C172.785 7.63149 173.177 6.12869 174.374 5.82324L181.04 4.12207L181.237 4.08398Z" stroke="white" stroke-width="2.14286"/>
</g>
<path d="M161.594 12.0161L152.38 20.7939C152.173 20.991 152.173 21.3209 152.38 21.5179L154.916 23.934C155.111 24.1202 155.42 24.1176 155.612 23.9281L161.607 18.0195C161.794 17.8355 162.091 17.827 162.288 18.0001L167.519 22.5966C167.718 22.772 168.02 22.7607 168.206 22.571L178.485 12.0819C178.692 11.8707 179.036 11.8843 179.225 12.1111L180.275 13.3666C180.559 13.7056 181.11 13.5371 181.156 13.0976L181.926 5.69607C181.962 5.34994 181.642 5.07381 181.305 5.15989L174.639 6.86146C174.258 6.95866 174.133 7.43689 174.418 7.70794L175.822 9.04612C176.029 9.24316 176.029 9.57312 175.822 9.77015L168.219 17.0137C168.026 17.1977 167.722 17.1977 167.529 17.0137L162.284 12.0161C162.09 11.8321 161.787 11.8321 161.594 12.0161Z" fill="#FFCE99" stroke="#FE7500" stroke-width="1.07143"/>
<defs>
<filter id="filter0_dd_226_693" x="146.082" y="0" width="41.9883" height="31.2148" filterUnits="userSpaceOnUse" color-interpolation-filters="sRGB">
<feFlood flood-opacity="0" result="BackgroundImageFix"/>
<feColorMatrix in="SourceAlpha" type="matrix" values="0 0 0 0 0 0 0 0 0 0 0 0 0 0 0 0 0 0 127 0" result="hardAlpha"/>
<feMorphology radius="1" operator="dilate" in="SourceAlpha" result="effect1_dropShadow_226_693"/>
<feOffset dy="1"/>
<feGaussianBlur stdDeviation="1.5"/>
<feColorMatrix type="matrix" values="0 0 0 0 0 0 0 0 0 0 0 0 0 0 0 0 0 0 0.15 0"/>
<feBlend mode="normal" in2="BackgroundImageFix" result="effect1_dropShadow_226_693"/>
<feColorMatrix in="SourceAlpha" type="matrix" values="0 0 0 0 0 0 0 0 0 0 0 0 0 0 0 0 0 0 127 0" result="hardAlpha"/>
<feOffset dy="1"/>
<feGaussianBlur stdDeviation="1"/>
<feColorMatrix type="matrix" values="0 0 0 0 0 0 0 0 0 0 0 0 0 0 0 0 0 0 0.3 0"/>
<feBlend mode="normal" in2="effect1_dropShadow_226_693" result="effect2_dropShadow_226_693"/>
<feBlend mode="normal" in="SourceGraphic" in2="effect2_dropShadow_226_693" result="shape"/>
</filter>
</defs>
</svg>
