<svg width="361" height="193" viewBox="0 0 361 193" fill="none" xmlns="http://www.w3.org/2000/svg">
<rect x="0.5" y="0.5" width="360" height="192" rx="11.5" fill="white"/>
<rect x="0.5" y="0.5" width="360" height="192" rx="11.5" stroke="#8A7B6A"/>
<rect x="12" y="12" width="196" height="169" rx="4" fill="#F2E9DC"/>
<g filter="url(#filter0_dd_285_1442)">
<path d="M112.9 47.1094C118.202 47.1096 122.5 51.4074 122.5 56.709V136.51C122.5 141.811 118.202 146.109 112.9 146.109H71.0996C65.798 146.109 61.5002 141.811 61.5 136.51V56.709C61.5002 51.4074 65.798 47.1096 71.0996 47.1094H112.9Z" fill="white" stroke="white" stroke-width="4" stroke-linecap="round"/>
<path d="M142.789 80.9082C142.789 78.9087 145.116 77.858 146.611 79.0977L146.753 79.2246L157.404 89.5029C158.746 90.7974 158.776 92.9373 157.471 94.2686L146.799 105.154C145.332 106.65 142.789 105.612 142.789 103.517V98.2832C135.365 98.3871 129.856 99.0541 125.021 100.592C120.069 102.167 115.701 104.694 110.649 108.674C109.617 109.487 108.358 109.22 107.642 108.584C106.92 107.944 106.501 106.705 107.219 105.578L107.994 104.377C111.865 98.464 115.685 93.9246 120.929 90.8721C126.413 87.6795 133.219 86.2463 142.789 86.1826V80.9082Z" fill="white" stroke="white" stroke-width="4" stroke-linecap="round"/>
<path d="M63.5 56.7094C63.5 52.512 66.9026 49.1094 71.1 49.1094H112.9C117.097 49.1094 120.5 52.512 120.5 56.7094V136.509C120.5 140.707 117.097 144.109 112.9 144.109H71.1C66.9026 144.109 63.5 140.707 63.5 136.509V56.7094Z" fill="#FFCE99"/>
<path d="M84.4 130.809H99.6M71.1 144.109H112.9C117.097 144.109 120.5 140.707 120.5 136.509V56.7094C120.5 52.512 117.097 49.1094 112.9 49.1094H71.1C66.9026 49.1094 63.5 52.512 63.5 56.7094V136.509C63.5 140.707 66.9026 144.109 71.1 144.109Z" stroke="#FE7500" stroke-width="3" stroke-linecap="round"/>
<path d="M108.406 106.653C108.2 106.976 108.611 107.34 108.912 107.103C119.265 98.9465 127.228 96.4229 142.928 96.2747C143.678 96.2677 144.289 96.876 144.289 97.6258V103.517C144.289 103.82 144.658 103.971 144.871 103.754L155.543 92.8681C156.07 92.33 156.058 91.4652 155.516 90.942L144.864 80.6639C144.649 80.4561 144.289 80.6087 144.289 80.908V86.8149C144.289 87.5708 143.663 88.1798 142.907 88.1802C123.46 88.191 116.595 93.7992 108.406 106.653Z" fill="#FECE99"/>
<path d="M126.652 85.1589H101.213C99.7149 85.1589 98.5 86.3737 98.5 87.8723V111.396C98.5 112.895 99.7149 114.109 101.213 114.109H127.787C129.285 114.109 130.5 112.895 130.5 111.396L130.5 101.609M144.289 86.8149V80.908C144.289 80.6087 144.649 80.4561 144.864 80.6639L155.516 90.942C156.058 91.4652 156.07 92.33 155.543 92.8681L144.871 103.754C144.658 103.971 144.289 103.82 144.289 103.517V97.6258C144.289 96.876 143.678 96.2677 142.928 96.2747C127.228 96.4229 119.265 98.9465 108.912 107.103C108.611 107.34 108.2 106.976 108.406 106.653C116.595 93.7992 123.46 88.191 142.907 88.1802C143.663 88.1798 144.289 87.5708 144.289 86.8149Z" stroke="#FE7500" stroke-width="3" stroke-linecap="round"/>
</g>
<path d="M342.446 27C342.39 27 342.343 26.9673 342.306 26.902C342.278 26.8367 342.254 26.7573 342.236 26.664C342.226 26.5613 342.222 26.468 342.222 26.384C342.222 26.3373 342.226 26.2907 342.236 26.244C342.245 26.1973 342.259 26.1647 342.278 26.146L346.282 21.12C346.403 20.9707 346.501 20.8213 346.576 20.672C346.66 20.5133 346.725 20.3547 346.772 20.196C346.818 20.0373 346.842 19.8787 346.842 19.72C346.842 19.2253 346.688 18.838 346.38 18.558C346.072 18.2687 345.661 18.124 345.148 18.124C344.709 18.124 344.34 18.18 344.042 18.292C343.743 18.3947 343.505 18.4973 343.328 18.6C343.16 18.7027 343.034 18.754 342.95 18.754C342.903 18.754 342.847 18.7167 342.782 18.642C342.716 18.5673 342.66 18.4833 342.614 18.39C342.567 18.2873 342.544 18.2033 342.544 18.138C342.544 18.054 342.618 17.956 342.768 17.844C342.926 17.7227 343.136 17.6107 343.398 17.508C343.659 17.396 343.948 17.3027 344.266 17.228C344.583 17.1533 344.91 17.116 345.246 17.116C346.067 17.116 346.734 17.3447 347.248 17.802C347.761 18.25 348.018 18.8613 348.018 19.636C348.018 19.9067 347.98 20.1727 347.906 20.434C347.84 20.6953 347.742 20.952 347.612 21.204C347.481 21.4467 347.322 21.6847 347.136 21.918L343.86 25.992H347.85C348.036 25.992 348.13 26.132 348.13 26.412V26.58C348.13 26.86 348.036 27 347.85 27H342.446Z" fill="#8A7B6A"/>
<path d="M272.164 151.238C271.098 151.238 270.124 151.159 269.24 151C268.378 150.819 267.63 150.592 266.996 150.32C266.361 150.048 265.851 149.787 265.466 149.538C265.194 149.357 264.967 149.187 264.786 149.028C264.604 148.847 264.514 148.631 264.514 148.382C264.514 148.178 264.548 147.929 264.616 147.634C264.684 147.339 264.774 147.045 264.888 146.75C265.001 146.455 265.126 146.217 265.262 146.036C265.42 145.832 265.59 145.73 265.772 145.73C265.976 145.73 266.372 145.877 266.962 146.172C267.551 146.444 268.254 146.727 269.07 147.022C269.908 147.294 270.815 147.43 271.79 147.43C272.56 147.43 273.195 147.328 273.694 147.124C274.192 146.92 274.566 146.603 274.816 146.172C275.088 145.741 275.224 145.209 275.224 144.574C275.224 143.985 275.065 143.486 274.748 143.078C274.453 142.67 274.056 142.319 273.558 142.024C273.082 141.707 272.526 141.435 271.892 141.208C271.28 140.959 270.656 140.687 270.022 140.392C269.387 140.12 268.764 139.814 268.152 139.474C267.562 139.111 267.018 138.681 266.52 138.182C266.044 137.683 265.658 137.06 265.364 136.312C265.092 135.564 264.956 134.669 264.956 133.626C264.956 132.515 265.171 131.541 265.602 130.702C266.032 129.863 266.61 129.172 267.336 128.628C268.084 128.061 268.922 127.642 269.852 127.37C270.804 127.098 271.79 126.962 272.81 126.962C273.49 126.962 274.158 127.019 274.816 127.132C275.473 127.245 276.074 127.393 276.618 127.574C277.184 127.755 277.649 127.971 278.012 128.22C278.238 128.379 278.42 128.549 278.556 128.73C278.714 128.889 278.794 129.047 278.794 129.206C278.794 129.387 278.76 129.637 278.692 129.954C278.624 130.249 278.533 130.543 278.42 130.838C278.306 131.133 278.17 131.382 278.012 131.586C277.876 131.767 277.717 131.858 277.536 131.858C277.286 131.858 276.935 131.767 276.482 131.586C276.051 131.382 275.53 131.189 274.918 131.008C274.306 130.827 273.614 130.736 272.844 130.736C272.118 130.736 271.506 130.838 271.008 131.042C270.509 131.246 270.124 131.552 269.852 131.96C269.602 132.345 269.478 132.833 269.478 133.422C269.478 134.079 269.659 134.623 270.022 135.054C270.407 135.462 270.906 135.802 271.518 136.074C272.152 136.346 272.821 136.629 273.524 136.924C274.249 137.219 274.974 137.547 275.7 137.91C276.448 138.273 277.128 138.726 277.74 139.27C278.352 139.791 278.839 140.449 279.202 141.242C279.587 142.035 279.78 143.021 279.78 144.2C279.78 145.424 279.576 146.489 279.168 147.396C278.782 148.28 278.227 149.005 277.502 149.572C276.776 150.139 275.96 150.558 275.054 150.83C274.147 151.102 273.184 151.238 272.164 151.238ZM284.903 151.068C284.269 151.068 283.804 150.989 283.509 150.83C283.237 150.649 283.101 150.399 283.101 150.082V126.384C283.101 126.067 283.237 125.829 283.509 125.67C283.804 125.489 284.269 125.398 284.903 125.398H285.583C286.241 125.398 286.705 125.489 286.977 125.67C287.272 125.829 287.419 126.067 287.419 126.384V135.36C287.759 134.929 288.179 134.533 288.677 134.17C289.176 133.807 289.731 133.524 290.343 133.32C290.978 133.093 291.647 132.98 292.349 132.98C293.505 132.98 294.469 133.184 295.239 133.592C296.033 134 296.622 134.612 297.007 135.428C297.393 136.221 297.585 137.241 297.585 138.488V150.082C297.585 150.399 297.438 150.649 297.143 150.83C296.871 150.989 296.418 151.068 295.783 151.068H295.069C294.412 151.068 293.936 150.989 293.641 150.83C293.369 150.649 293.233 150.399 293.233 150.082V139.066C293.233 138.25 293.041 137.627 292.655 137.196C292.27 136.765 291.635 136.55 290.751 136.55C290.343 136.55 289.924 136.641 289.493 136.822C289.063 136.981 288.666 137.219 288.303 137.536C287.963 137.853 287.68 138.227 287.453 138.658V150.082C287.453 150.399 287.306 150.649 287.011 150.83C286.739 150.989 286.286 151.068 285.651 151.068H284.903ZM306.906 151.238C305.138 151.238 303.812 150.785 302.928 149.878C302.044 148.949 301.602 147.736 301.602 146.24C301.602 145.379 301.738 144.574 302.01 143.826C302.304 143.055 302.814 142.387 303.54 141.82C304.265 141.231 305.296 140.777 306.634 140.46C307.994 140.12 309.739 139.95 311.87 139.95V138.726C311.87 138.25 311.768 137.842 311.564 137.502C311.382 137.162 311.065 136.901 310.612 136.72C310.181 136.516 309.603 136.414 308.878 136.414C307.994 136.414 307.2 136.516 306.498 136.72C305.818 136.901 305.24 137.094 304.764 137.298C304.31 137.479 303.982 137.57 303.778 137.57C303.642 137.57 303.506 137.479 303.37 137.298C303.234 137.117 303.109 136.901 302.996 136.652C302.882 136.38 302.792 136.119 302.724 135.87C302.656 135.598 302.622 135.383 302.622 135.224C302.622 134.952 302.814 134.691 303.2 134.442C303.585 134.17 304.095 133.921 304.73 133.694C305.364 133.467 306.067 133.297 306.838 133.184C307.631 133.048 308.413 132.98 309.184 132.98C310.408 132.98 311.462 133.116 312.346 133.388C313.23 133.637 313.955 134.011 314.522 134.51C315.088 135.009 315.508 135.598 315.78 136.278C316.052 136.958 316.188 137.706 316.188 138.522V145.322C316.188 146.41 316.21 147.26 316.256 147.872C316.324 148.484 316.392 148.949 316.46 149.266C316.528 149.583 316.562 149.844 316.562 150.048C316.562 150.229 316.437 150.388 316.188 150.524C315.938 150.637 315.632 150.739 315.27 150.83C314.93 150.898 314.578 150.955 314.216 151C313.876 151.023 313.604 151.034 313.4 151.034C313.082 151.034 312.844 150.921 312.686 150.694C312.55 150.467 312.436 150.173 312.346 149.81C312.278 149.447 312.21 149.073 312.142 148.688C311.938 148.937 311.609 149.266 311.156 149.674C310.725 150.082 310.147 150.445 309.422 150.762C308.719 151.079 307.88 151.238 306.906 151.238ZM308.062 147.804C308.628 147.804 309.15 147.702 309.626 147.498C310.102 147.294 310.532 147.022 310.918 146.682C311.303 146.342 311.62 145.968 311.87 145.56V142.976C310.759 142.976 309.83 143.033 309.082 143.146C308.334 143.259 307.722 143.429 307.246 143.656C306.792 143.883 306.464 144.189 306.26 144.574C306.056 144.937 305.954 145.356 305.954 145.832C305.954 146.444 306.124 146.931 306.464 147.294C306.826 147.634 307.359 147.804 308.062 147.804ZM323.145 151.068C322.51 151.068 322.046 150.989 321.751 150.83C321.479 150.649 321.343 150.399 321.343 150.082V138.862C321.343 137.887 321.309 137.105 321.241 136.516C321.196 135.904 321.139 135.428 321.071 135.088C321.026 134.748 321.003 134.476 321.003 134.272C321.003 134.068 321.128 133.898 321.377 133.762C321.649 133.626 321.966 133.524 322.329 133.456C322.714 133.388 323.077 133.343 323.417 133.32C323.78 133.275 324.052 133.252 324.233 133.252C324.482 133.252 324.675 133.32 324.811 133.456C324.947 133.592 325.06 133.841 325.151 134.204C325.264 134.567 325.378 135.099 325.491 135.802C325.74 135.213 326.069 134.714 326.477 134.306C326.885 133.875 327.338 133.547 327.837 133.32C328.336 133.093 328.846 132.98 329.367 132.98C329.934 132.98 330.308 133.093 330.489 133.32C330.693 133.547 330.795 133.887 330.795 134.34C330.795 134.544 330.772 134.816 330.727 135.156C330.704 135.496 330.648 135.847 330.557 136.21C330.466 136.55 330.353 136.845 330.217 137.094C330.104 137.343 329.945 137.468 329.741 137.468C329.56 137.468 329.356 137.411 329.129 137.298C328.902 137.185 328.574 137.128 328.143 137.128C327.599 137.128 327.1 137.264 326.647 137.536C326.216 137.808 325.888 138.182 325.661 138.658V150.082C325.661 150.399 325.514 150.649 325.219 150.83C324.947 150.989 324.482 151.068 323.825 151.068H323.145ZM340.872 151.238C337.948 151.238 335.783 150.467 334.378 148.926C332.973 147.385 332.27 145.152 332.27 142.228C332.27 140.075 332.599 138.318 333.256 136.958C333.936 135.598 334.888 134.601 336.112 133.966C337.336 133.309 338.764 132.98 340.396 132.98C342.119 132.98 343.501 133.365 344.544 134.136C345.609 134.884 346.38 135.915 346.856 137.23C347.355 138.522 347.604 139.995 347.604 141.65C347.604 141.899 347.513 142.183 347.332 142.5C347.151 142.795 346.935 143.044 346.686 143.248C346.437 143.452 346.199 143.554 345.972 143.554H336.656C336.701 145.095 337.109 146.195 337.88 146.852C338.651 147.487 339.705 147.804 341.042 147.804C341.926 147.804 342.697 147.691 343.354 147.464C344.011 147.237 344.544 147.011 344.952 146.784C345.383 146.557 345.689 146.444 345.87 146.444C346.074 146.444 346.267 146.591 346.448 146.886C346.652 147.181 346.822 147.509 346.958 147.872C347.094 148.235 347.162 148.518 347.162 148.722C347.162 149.017 346.958 149.311 346.55 149.606C346.165 149.901 345.643 150.184 344.986 150.456C344.351 150.705 343.671 150.898 342.946 151.034C342.221 151.17 341.529 151.238 340.872 151.238ZM336.622 140.528H343.456C343.456 139.168 343.173 138.148 342.606 137.468C342.062 136.765 341.246 136.414 340.158 136.414C339.546 136.414 338.968 136.55 338.424 136.822C337.903 137.071 337.472 137.491 337.132 138.08C336.815 138.669 336.645 139.485 336.622 140.528Z" fill="#562F00"/>
<path d="M222.071 176V166.2H225.907C226.607 166.2 227.237 166.317 227.797 166.55C228.366 166.783 228.852 167.119 229.253 167.558C229.654 167.997 229.962 168.515 230.177 169.112C230.392 169.709 230.499 170.372 230.499 171.1C230.499 171.828 230.392 172.495 230.177 173.102C229.962 173.699 229.654 174.217 229.253 174.656C228.861 175.085 228.38 175.417 227.811 175.65C227.242 175.883 226.607 176 225.907 176H222.071ZM223.583 174.698L223.541 174.544H225.837C226.332 174.544 226.77 174.465 227.153 174.306C227.545 174.147 227.872 173.923 228.133 173.634C228.404 173.335 228.609 172.971 228.749 172.542C228.889 172.113 228.959 171.632 228.959 171.1C228.959 170.568 228.889 170.092 228.749 169.672C228.609 169.243 228.404 168.879 228.133 168.58C227.862 168.281 227.536 168.053 227.153 167.894C226.77 167.735 226.332 167.656 225.837 167.656H223.499L223.583 167.53V174.698ZM232.384 176V168.65H233.826V176H232.384ZM233.084 167.026C232.776 167.026 232.538 166.947 232.37 166.788C232.202 166.629 232.118 166.405 232.118 166.116C232.118 165.845 232.202 165.626 232.37 165.458C232.547 165.29 232.785 165.206 233.084 165.206C233.392 165.206 233.63 165.285 233.798 165.444C233.966 165.603 234.05 165.827 234.05 166.116C234.05 166.387 233.961 166.606 233.784 166.774C233.616 166.942 233.383 167.026 233.084 167.026ZM238.459 176.14C237.843 176.14 237.288 176.033 236.793 175.818C236.298 175.603 235.888 175.286 235.561 174.866L236.541 174.026C236.821 174.353 237.124 174.591 237.451 174.74C237.787 174.88 238.165 174.95 238.585 174.95C238.753 174.95 238.907 174.931 239.047 174.894C239.196 174.847 239.322 174.782 239.425 174.698C239.537 174.614 239.621 174.516 239.677 174.404C239.733 174.283 239.761 174.152 239.761 174.012C239.761 173.769 239.672 173.573 239.495 173.424C239.402 173.359 239.252 173.289 239.047 173.214C238.851 173.13 238.594 173.046 238.277 172.962C237.736 172.822 237.292 172.663 236.947 172.486C236.602 172.309 236.336 172.108 236.149 171.884C236.009 171.707 235.906 171.515 235.841 171.31C235.776 171.095 235.743 170.862 235.743 170.61C235.743 170.302 235.808 170.022 235.939 169.77C236.079 169.509 236.266 169.285 236.499 169.098C236.742 168.902 237.022 168.753 237.339 168.65C237.666 168.547 238.011 168.496 238.375 168.496C238.72 168.496 239.061 168.543 239.397 168.636C239.742 168.729 240.06 168.865 240.349 169.042C240.638 169.219 240.881 169.429 241.077 169.672L240.251 170.582C240.074 170.405 239.878 170.251 239.663 170.12C239.458 169.98 239.248 169.873 239.033 169.798C238.818 169.723 238.622 169.686 238.445 169.686C238.249 169.686 238.072 169.705 237.913 169.742C237.754 169.779 237.619 169.835 237.507 169.91C237.404 169.985 237.325 170.078 237.269 170.19C237.213 170.302 237.185 170.428 237.185 170.568C237.194 170.689 237.222 170.806 237.269 170.918C237.325 171.021 237.4 171.109 237.493 171.184C237.596 171.259 237.75 171.338 237.955 171.422C238.16 171.506 238.422 171.585 238.739 171.66C239.206 171.781 239.588 171.917 239.887 172.066C240.195 172.206 240.438 172.369 240.615 172.556C240.802 172.733 240.932 172.939 241.007 173.172C241.082 173.405 241.119 173.667 241.119 173.956C241.119 174.376 240.998 174.754 240.755 175.09C240.522 175.417 240.204 175.673 239.803 175.86C239.402 176.047 238.954 176.14 238.459 176.14ZM243.585 176V166.774H245.027V176H243.585ZM242.059 170.05V168.65H246.735V170.05H242.059ZM248.014 176V168.65H249.47V170.96L249.33 170.4C249.433 170.045 249.605 169.723 249.848 169.434C250.1 169.145 250.385 168.916 250.702 168.748C251.029 168.58 251.365 168.496 251.71 168.496C251.869 168.496 252.018 168.51 252.158 168.538C252.307 168.566 252.424 168.599 252.508 168.636L252.13 170.204C252.018 170.157 251.892 170.12 251.752 170.092C251.621 170.055 251.491 170.036 251.36 170.036C251.108 170.036 250.865 170.087 250.632 170.19C250.408 170.283 250.207 170.419 250.03 170.596C249.862 170.764 249.727 170.965 249.624 171.198C249.521 171.422 249.47 171.669 249.47 171.94V176H248.014ZM253.865 176V168.65H255.307V176H253.865ZM254.565 167.026C254.257 167.026 254.019 166.947 253.851 166.788C253.683 166.629 253.599 166.405 253.599 166.116C253.599 165.845 253.683 165.626 253.851 165.458C254.028 165.29 254.266 165.206 254.565 165.206C254.873 165.206 255.111 165.285 255.279 165.444C255.447 165.603 255.531 165.827 255.531 166.116C255.531 166.387 255.442 166.606 255.265 166.774C255.097 166.942 254.864 167.026 254.565 167.026ZM261.354 176.14C261.036 176.14 260.719 176.089 260.402 175.986C260.094 175.883 259.809 175.748 259.548 175.58C259.296 175.403 259.081 175.211 258.904 175.006C258.736 174.791 258.624 174.577 258.568 174.362L258.932 174.166V175.958H257.49V165.64H258.932V170.33L258.708 170.204C258.754 169.989 258.857 169.784 259.016 169.588C259.174 169.383 259.375 169.201 259.618 169.042C259.87 168.874 260.14 168.743 260.43 168.65C260.719 168.547 261.013 168.496 261.312 168.496C261.974 168.496 262.562 168.659 263.076 168.986C263.589 169.313 263.995 169.765 264.294 170.344C264.592 170.913 264.742 171.567 264.742 172.304C264.742 173.041 264.592 173.699 264.294 174.278C264.004 174.857 263.603 175.314 263.09 175.65C262.576 175.977 261.998 176.14 261.354 176.14ZM261.116 174.824C261.545 174.824 261.928 174.717 262.264 174.502C262.6 174.278 262.866 173.979 263.062 173.606C263.258 173.223 263.356 172.789 263.356 172.304C263.356 171.828 263.258 171.403 263.062 171.03C262.875 170.647 262.614 170.349 262.278 170.134C261.942 169.919 261.554 169.812 261.116 169.812C260.677 169.812 260.29 169.919 259.954 170.134C259.618 170.349 259.352 170.647 259.156 171.03C258.96 171.403 258.862 171.828 258.862 172.304C258.862 172.789 258.96 173.223 259.156 173.606C259.352 173.979 259.618 174.278 259.954 174.502C260.29 174.717 260.677 174.824 261.116 174.824ZM268.85 176.14C268.328 176.14 267.87 176.019 267.478 175.776C267.096 175.533 266.797 175.193 266.582 174.754C266.377 174.315 266.274 173.793 266.274 173.186V168.65H267.716V172.794C267.716 173.223 267.782 173.597 267.912 173.914C268.052 174.222 268.248 174.46 268.5 174.628C268.762 174.796 269.074 174.88 269.438 174.88C269.709 174.88 269.956 174.838 270.18 174.754C270.404 174.661 270.596 174.535 270.754 174.376C270.922 174.217 271.053 174.026 271.146 173.802C271.24 173.578 271.286 173.335 271.286 173.074V168.65H272.728V176H271.286V174.46L271.538 174.292C271.426 174.637 271.235 174.95 270.964 175.23C270.703 175.51 270.39 175.734 270.026 175.902C269.662 176.061 269.27 176.14 268.85 176.14ZM275.627 176V166.774H277.069V176H275.627ZM274.101 170.05V168.65H278.777V170.05H274.101ZM283.419 176.14C282.663 176.14 281.991 175.981 281.403 175.664C280.824 175.337 280.367 174.894 280.031 174.334C279.704 173.774 279.541 173.13 279.541 172.402C279.541 171.823 279.634 171.296 279.821 170.82C280.007 170.344 280.264 169.933 280.591 169.588C280.927 169.233 281.323 168.963 281.781 168.776C282.247 168.58 282.751 168.482 283.293 168.482C283.769 168.482 284.212 168.575 284.623 168.762C285.033 168.939 285.388 169.187 285.687 169.504C285.995 169.821 286.228 170.199 286.387 170.638C286.555 171.067 286.634 171.539 286.625 172.052L286.611 172.668H280.605L280.283 171.52H285.365L285.155 171.758V171.422C285.127 171.114 285.024 170.839 284.847 170.596C284.669 170.353 284.445 170.162 284.175 170.022C283.904 169.882 283.61 169.812 283.293 169.812C282.789 169.812 282.364 169.91 282.019 170.106C281.673 170.293 281.412 170.573 281.235 170.946C281.057 171.31 280.969 171.763 280.969 172.304C280.969 172.817 281.076 173.265 281.291 173.648C281.505 174.021 281.809 174.311 282.201 174.516C282.593 174.721 283.045 174.824 283.559 174.824C283.923 174.824 284.259 174.763 284.567 174.642C284.884 174.521 285.225 174.301 285.589 173.984L286.317 175.006C286.093 175.23 285.817 175.426 285.491 175.594C285.173 175.762 284.833 175.897 284.469 176C284.114 176.093 283.764 176.14 283.419 176.14ZM292.286 176V168.65H293.728V176H292.286ZM292.986 167.026C292.678 167.026 292.44 166.947 292.272 166.788C292.104 166.629 292.02 166.405 292.02 166.116C292.02 165.845 292.104 165.626 292.272 165.458C292.45 165.29 292.688 165.206 292.986 165.206C293.294 165.206 293.532 165.285 293.7 165.444C293.868 165.603 293.952 165.827 293.952 166.116C293.952 166.387 293.864 166.606 293.686 166.774C293.518 166.942 293.285 167.026 292.986 167.026ZM295.911 176V168.65H297.353V170.162L297.101 170.33C297.195 170.003 297.377 169.705 297.647 169.434C297.918 169.154 298.24 168.93 298.613 168.762C298.987 168.585 299.369 168.496 299.761 168.496C300.321 168.496 300.788 168.608 301.161 168.832C301.535 169.047 301.815 169.378 302.001 169.826C302.188 170.274 302.281 170.839 302.281 171.52V176H300.839V171.618C300.839 171.198 300.783 170.853 300.671 170.582C300.559 170.302 300.387 170.101 300.153 169.98C299.92 169.849 299.631 169.793 299.285 169.812C299.005 169.812 298.749 169.859 298.515 169.952C298.282 170.036 298.077 170.157 297.899 170.316C297.731 170.475 297.596 170.661 297.493 170.876C297.4 171.081 297.353 171.305 297.353 171.548V176H296.639C296.518 176 296.397 176 296.275 176C296.154 176 296.033 176 295.911 176ZM306.654 176.14C306.038 176.14 305.482 176.033 304.988 175.818C304.493 175.603 304.082 175.286 303.756 174.866L304.736 174.026C305.016 174.353 305.319 174.591 305.646 174.74C305.982 174.88 306.36 174.95 306.78 174.95C306.948 174.95 307.102 174.931 307.242 174.894C307.391 174.847 307.517 174.782 307.62 174.698C307.732 174.614 307.816 174.516 307.872 174.404C307.928 174.283 307.956 174.152 307.956 174.012C307.956 173.769 307.867 173.573 307.69 173.424C307.596 173.359 307.447 173.289 307.242 173.214C307.046 173.13 306.789 173.046 306.472 172.962C305.93 172.822 305.487 172.663 305.142 172.486C304.796 172.309 304.53 172.108 304.344 171.884C304.204 171.707 304.101 171.515 304.036 171.31C303.97 171.095 303.938 170.862 303.938 170.61C303.938 170.302 304.003 170.022 304.134 169.77C304.274 169.509 304.46 169.285 304.694 169.098C304.936 168.902 305.216 168.753 305.534 168.65C305.86 168.547 306.206 168.496 306.57 168.496C306.915 168.496 307.256 168.543 307.592 168.636C307.937 168.729 308.254 168.865 308.544 169.042C308.833 169.219 309.076 169.429 309.272 169.672L308.446 170.582C308.268 170.405 308.072 170.251 307.858 170.12C307.652 169.98 307.442 169.873 307.228 169.798C307.013 169.723 306.817 169.686 306.64 169.686C306.444 169.686 306.266 169.705 306.108 169.742C305.949 169.779 305.814 169.835 305.702 169.91C305.599 169.985 305.52 170.078 305.464 170.19C305.408 170.302 305.38 170.428 305.38 170.568C305.389 170.689 305.417 170.806 305.464 170.918C305.52 171.021 305.594 171.109 305.688 171.184C305.79 171.259 305.944 171.338 306.15 171.422C306.355 171.506 306.616 171.585 306.934 171.66C307.4 171.781 307.783 171.917 308.082 172.066C308.39 172.206 308.632 172.369 308.81 172.556C308.996 172.733 309.127 172.939 309.202 173.172C309.276 173.405 309.314 173.667 309.314 173.956C309.314 174.376 309.192 174.754 308.95 175.09C308.716 175.417 308.399 175.673 307.998 175.86C307.596 176.047 307.148 176.14 306.654 176.14ZM311.779 176V166.774H313.221V176H311.779ZM310.253 170.05V168.65H314.929V170.05H310.253ZM318.968 176.14C318.362 176.14 317.806 175.972 317.302 175.636C316.808 175.3 316.411 174.843 316.112 174.264C315.814 173.685 315.664 173.032 315.664 172.304C315.664 171.567 315.814 170.913 316.112 170.344C316.42 169.765 316.831 169.313 317.344 168.986C317.867 168.659 318.45 168.496 319.094 168.496C319.477 168.496 319.827 168.552 320.144 168.664C320.462 168.776 320.737 168.935 320.97 169.14C321.213 169.336 321.409 169.565 321.558 169.826C321.717 170.087 321.815 170.367 321.852 170.666L321.53 170.554V168.65H322.986V176H321.53V174.25L321.866 174.152C321.81 174.404 321.694 174.651 321.516 174.894C321.348 175.127 321.129 175.337 320.858 175.524C320.597 175.711 320.303 175.86 319.976 175.972C319.659 176.084 319.323 176.14 318.968 176.14ZM319.346 174.81C319.785 174.81 320.172 174.703 320.508 174.488C320.844 174.273 321.106 173.979 321.292 173.606C321.488 173.223 321.586 172.789 321.586 172.304C321.586 171.828 321.488 171.403 321.292 171.03C321.106 170.657 320.844 170.363 320.508 170.148C320.172 169.933 319.785 169.826 319.346 169.826C318.917 169.826 318.534 169.933 318.198 170.148C317.872 170.363 317.61 170.657 317.414 171.03C317.228 171.403 317.134 171.828 317.134 172.304C317.134 172.789 317.228 173.223 317.414 173.606C317.61 173.979 317.872 174.273 318.198 174.488C318.534 174.703 318.917 174.81 319.346 174.81ZM324.966 176V168.65H326.408V170.162L326.156 170.33C326.25 170.003 326.432 169.705 326.702 169.434C326.973 169.154 327.295 168.93 327.668 168.762C328.042 168.585 328.424 168.496 328.816 168.496C329.376 168.496 329.843 168.608 330.216 168.832C330.59 169.047 330.87 169.378 331.056 169.826C331.243 170.274 331.336 170.839 331.336 171.52V176H329.894V171.618C329.894 171.198 329.838 170.853 329.726 170.582C329.614 170.302 329.442 170.101 329.208 169.98C328.975 169.849 328.686 169.793 328.34 169.812C328.06 169.812 327.804 169.859 327.57 169.952C327.337 170.036 327.132 170.157 326.954 170.316C326.786 170.475 326.651 170.661 326.548 170.876C326.455 171.081 326.408 171.305 326.408 171.548V176H325.694C325.573 176 325.452 176 325.33 176C325.209 176 325.088 176 324.966 176ZM334.169 176V166.774H335.611V176H334.169ZM332.643 170.05V168.65H337.319V170.05H332.643ZM338.626 176V165.64H340.068V176H338.626ZM343.105 179.22L344.589 175.79L344.603 176.938L340.935 168.65H342.615L344.911 174.054C344.958 174.147 345.014 174.292 345.079 174.488C345.145 174.675 345.201 174.861 345.247 175.048L344.883 175.132C344.958 174.936 345.028 174.74 345.093 174.544C345.168 174.348 345.238 174.152 345.303 173.956L347.221 168.65H348.929L345.905 176L344.659 179.22H343.105Z" fill="#8A7B6A"/>
<defs>
<filter id="filter0_dd_285_1442" x="55" y="41.5" width="110" height="112" filterUnits="userSpaceOnUse" color-interpolation-filters="sRGB">
<feFlood flood-opacity="0" result="BackgroundImageFix"/>
<feColorMatrix in="SourceAlpha" type="matrix" values="0 0 0 0 0 0 0 0 0 0 0 0 0 0 0 0 0 0 127 0" result="hardAlpha"/>
<feMorphology radius="1" operator="dilate" in="SourceAlpha" result="effect1_dropShadow_285_1442"/>
<feOffset dy="1"/>
<feGaussianBlur stdDeviation="1.5"/>
<feColorMatrix type="matrix" values="0 0 0 0 0 0 0 0 0 0 0 0 0 0 0 0 0 0 0.15 0"/>
<feBlend mode="normal" in2="BackgroundImageFix" result="effect1_dropShadow_285_1442"/>
<feColorMatrix in="SourceAlpha" type="matrix" values="0 0 0 0 0 0 0 0 0 0 0 0 0 0 0 0 0 0 127 0" result="hardAlpha"/>
<feOffset dy="1"/>
<feGaussianBlur stdDeviation="1"/>
<feColorMatrix type="matrix" values="0 0 0 0 0 0 0 0 0 0 0 0 0 0 0 0 0 0 0.3 0"/>
<feBlend mode="normal" in2="effect1_dropShadow_285_1442" result="effect2_dropShadow_285_1442"/>
<feBlend mode="normal" in="SourceGraphic" in2="effect2_dropShadow_285_1442" result="shape"/>
</filter>
</defs>
</svg>
