<svg width="641" height="470" viewBox="0 0 641 470" fill="none" xmlns="http://www.w3.org/2000/svg">
<g clip-path="url(#clip0_762_9728)">
<line x1="607" y1="42" x2="607" y2="420" stroke="#F2E9DC" stroke-width="4" stroke-linecap="round"/>
<line x1="225" y1="38" x2="603" y2="38" stroke="#F2E9DC" stroke-width="4" stroke-linecap="round"/>
<line x1="337.18" y1="311.172" x2="612.351" y2="36" stroke="#F2E9DC" stroke-width="4" stroke-linecap="round"/>
<line x1="312.861" y1="181.306" x2="596.306" y2="35.1391" stroke="#F2E9DC" stroke-width="4" stroke-linecap="round"/>
<rect x="284" y="406" width="357" height="56" rx="8" fill="#FECE99"/>
<g clip-path="url(#clip1_762_9728)">
<path d="M305 442L306.3 438.1C303.976 434.663 304.874 430.228 308.4 427.726C311.926 425.225 316.99 425.43 320.245 428.206C323.5 430.983 323.94 435.472 321.274 438.707C318.608 441.942 313.659 442.922 309.7 441L305 442Z" stroke="#FE7500" stroke-width="2" stroke-linecap="round" stroke-linejoin="round"/>
</g>
<path d="M342.78 428.8C342.513 428.453 342.133 428.167 341.64 427.94C341.16 427.7 340.673 427.58 340.18 427.58C339.887 427.58 339.593 427.62 339.3 427.7C339.007 427.767 338.74 427.88 338.5 428.04C338.26 428.187 338.06 428.387 337.9 428.64C337.753 428.88 337.68 429.173 337.68 429.52C337.68 429.84 337.747 430.113 337.88 430.34C338.013 430.567 338.193 430.76 338.42 430.92C338.66 431.08 338.947 431.22 339.28 431.34C339.613 431.46 339.98 431.58 340.38 431.7C340.833 431.847 341.3 432.013 341.78 432.2C342.273 432.387 342.72 432.633 343.12 432.94C343.533 433.247 343.867 433.633 344.12 434.1C344.387 434.567 344.52 435.147 344.52 435.84C344.52 436.6 344.38 437.267 344.1 437.84C343.82 438.4 343.447 438.867 342.98 439.24C342.513 439.613 341.967 439.893 341.34 440.08C340.713 440.267 340.053 440.36 339.36 440.36C338.44 440.36 337.54 440.193 336.66 439.86C335.78 439.513 335.06 439.007 334.5 438.34L336.3 436.66C336.647 437.14 337.107 437.52 337.68 437.8C338.267 438.08 338.84 438.22 339.4 438.22C339.693 438.22 339.993 438.187 340.3 438.12C340.607 438.04 340.88 437.913 341.12 437.74C341.373 437.567 341.573 437.353 341.72 437.1C341.88 436.833 341.96 436.507 341.96 436.12C341.96 435.747 341.873 435.44 341.7 435.2C341.527 434.947 341.293 434.733 341 434.56C340.707 434.373 340.36 434.213 339.96 434.08C339.56 433.947 339.14 433.807 338.7 433.66C338.273 433.527 337.847 433.367 337.42 433.18C336.993 432.993 336.607 432.747 336.26 432.44C335.927 432.133 335.653 431.76 335.44 431.32C335.227 430.867 335.12 430.307 335.12 429.64C335.12 428.92 335.267 428.3 335.56 427.78C335.867 427.26 336.26 426.833 336.74 426.5C337.233 426.153 337.787 425.9 338.4 425.74C339.027 425.567 339.66 425.48 340.3 425.48C341.02 425.48 341.747 425.607 342.48 425.86C343.227 426.113 343.873 426.493 344.42 427L342.78 428.8ZM352.182 430.12C352.809 430.12 353.342 430.233 353.782 430.46C354.236 430.673 354.602 430.96 354.882 431.32C355.176 431.68 355.389 432.093 355.522 432.56C355.656 433.027 355.722 433.507 355.722 434L355.722 440L353.322 440L353.322 434.72C353.322 434.44 353.302 434.153 353.262 433.86C353.222 433.553 353.136 433.28 353.002 433.04C352.882 432.787 352.702 432.58 352.462 432.42C352.236 432.26 351.929 432.18 351.542 432.18C351.156 432.18 350.822 432.253 350.542 432.4C350.262 432.547 350.029 432.747 349.842 433C349.656 433.24 349.516 433.513 349.422 433.82C349.329 434.127 349.282 434.44 349.282 434.76L349.282 440L346.882 440L346.882 424.88L349.282 424.88L349.282 431.74L349.322 431.74C349.416 431.54 349.549 431.347 349.722 431.16C349.909 430.96 350.122 430.787 350.362 430.64C350.602 430.48 350.876 430.353 351.182 430.26C351.489 430.167 351.822 430.12 352.182 430.12ZM364.4 438.78L364.34 438.78C364.1 439.207 363.713 439.56 363.18 439.84C362.647 440.107 362.04 440.24 361.36 440.24C360.973 440.24 360.567 440.187 360.14 440.08C359.727 439.987 359.34 439.827 358.98 439.6C358.633 439.36 358.34 439.053 358.1 438.68C357.873 438.293 357.76 437.82 357.76 437.26C357.76 436.54 357.96 435.967 358.36 435.54C358.773 435.113 359.3 434.787 359.94 434.56C360.58 434.333 361.287 434.187 362.06 434.12C362.847 434.04 363.613 434 364.36 434L364.36 433.76C364.36 433.16 364.14 432.72 363.7 432.44C363.273 432.147 362.76 432 362.16 432C361.653 432 361.167 432.107 360.7 432.32C360.233 432.533 359.847 432.793 359.54 433.1L358.3 431.64C358.847 431.133 359.473 430.753 360.18 430.5C360.9 430.247 361.627 430.12 362.36 430.12C363.213 430.12 363.913 430.24 364.46 430.48C365.02 430.72 365.46 431.033 365.78 431.42C366.1 431.807 366.32 432.24 366.44 432.72C366.573 433.2 366.64 433.68 366.64 434.16L366.64 440L364.4 440L364.4 438.78ZM364.36 435.62L363.82 435.62C363.433 435.62 363.027 435.64 362.6 435.68C362.173 435.707 361.78 435.78 361.42 435.9C361.06 436.007 360.76 436.167 360.52 436.38C360.28 436.58 360.16 436.86 360.16 437.22C360.16 437.447 360.207 437.64 360.3 437.8C360.407 437.947 360.54 438.067 360.7 438.16C360.86 438.253 361.04 438.32 361.24 438.36C361.44 438.4 361.64 438.42 361.84 438.42C362.667 438.42 363.293 438.2 363.72 437.76C364.147 437.32 364.36 436.72 364.36 435.96L364.36 435.62ZM369.354 430.4L371.654 430.4L371.654 432L371.694 432C371.961 431.44 372.334 430.987 372.814 430.64C373.294 430.293 373.854 430.12 374.494 430.12C374.587 430.12 374.687 430.127 374.794 430.14C374.901 430.14 374.994 430.153 375.074 430.18L375.074 432.38C374.914 432.34 374.774 432.313 374.654 432.3C374.547 432.287 374.441 432.28 374.334 432.28C373.787 432.28 373.347 432.38 373.014 432.58C372.681 432.78 372.421 433.02 372.234 433.3C372.047 433.58 371.921 433.867 371.854 434.16C371.787 434.453 371.754 434.687 371.754 434.86L371.754 440L369.354 440L369.354 430.4ZM382.966 434.24C382.966 433.933 382.919 433.64 382.826 433.36C382.746 433.08 382.612 432.833 382.426 432.62C382.239 432.407 381.999 432.24 381.706 432.12C381.426 431.987 381.092 431.92 380.706 431.92C379.986 431.92 379.372 432.14 378.866 432.58C378.372 433.007 378.099 433.56 378.046 434.24L382.966 434.24ZM385.366 435.32C385.366 435.427 385.366 435.533 385.366 435.64C385.366 435.747 385.359 435.853 385.346 435.96L378.046 435.96C378.072 436.307 378.159 436.627 378.306 436.92C378.466 437.2 378.672 437.447 378.926 437.66C379.179 437.86 379.466 438.02 379.786 438.14C380.106 438.26 380.439 438.32 380.786 438.32C381.386 438.32 381.892 438.213 382.306 438C382.719 437.773 383.059 437.467 383.326 437.08L384.926 438.36C383.979 439.64 382.606 440.28 380.806 440.28C380.059 440.28 379.372 440.167 378.746 439.94C378.119 439.7 377.572 439.367 377.106 438.94C376.652 438.513 376.292 437.993 376.026 437.38C375.772 436.753 375.646 436.047 375.646 435.26C375.646 434.487 375.772 433.787 376.026 433.16C376.292 432.52 376.652 431.98 377.106 431.54C377.559 431.087 378.092 430.74 378.706 430.5C379.332 430.247 380.006 430.12 380.726 430.12C381.392 430.12 382.006 430.233 382.566 430.46C383.139 430.673 383.632 431 384.046 431.44C384.459 431.867 384.779 432.407 385.006 433.06C385.246 433.7 385.366 434.453 385.366 435.32ZM392.566 430.4L394.966 430.4L394.966 440L392.566 440L392.566 430.4ZM392.226 427.14C392.226 426.753 392.366 426.42 392.646 426.14C392.939 425.847 393.306 425.7 393.746 425.7C394.186 425.7 394.553 425.84 394.846 426.12C395.153 426.387 395.306 426.727 395.306 427.14C395.306 427.553 395.153 427.9 394.846 428.18C394.553 428.447 394.186 428.58 393.746 428.58C393.306 428.58 392.939 428.44 392.646 428.16C392.366 427.867 392.226 427.527 392.226 427.14ZM397.796 430.4L400.076 430.4L400.076 431.94L400.116 431.94C400.329 431.46 400.696 431.04 401.216 430.68C401.749 430.307 402.376 430.12 403.096 430.12C403.722 430.12 404.256 430.233 404.696 430.46C405.149 430.673 405.516 430.96 405.796 431.32C406.089 431.68 406.302 432.093 406.436 432.56C406.569 433.027 406.636 433.507 406.636 434L406.636 440L404.236 440L404.236 434.68C404.236 434.4 404.216 434.107 404.176 433.8C404.136 433.493 404.049 433.22 403.916 432.98C403.782 432.727 403.596 432.52 403.356 432.36C403.129 432.2 402.822 432.12 402.436 432.12C402.049 432.12 401.716 432.2 401.436 432.36C401.156 432.507 400.922 432.7 400.736 432.94C400.562 433.18 400.429 433.46 400.336 433.78C400.242 434.087 400.196 434.4 400.196 434.72L400.196 440L397.796 440L397.796 430.4ZM421.032 434.24C421.032 433.933 420.986 433.64 420.892 433.36C420.812 433.08 420.679 432.833 420.492 432.62C420.306 432.407 420.066 432.24 419.772 432.12C419.492 431.987 419.159 431.92 418.772 431.92C418.052 431.92 417.439 432.14 416.932 432.58C416.439 433.007 416.166 433.56 416.112 434.24L421.032 434.24ZM423.432 435.32C423.432 435.427 423.432 435.533 423.432 435.64C423.432 435.747 423.426 435.853 423.412 435.96L416.112 435.96C416.139 436.307 416.226 436.627 416.372 436.92C416.532 437.2 416.739 437.447 416.992 437.66C417.246 437.86 417.532 438.02 417.852 438.14C418.172 438.26 418.506 438.32 418.852 438.32C419.452 438.32 419.959 438.213 420.372 438C420.786 437.773 421.126 437.467 421.392 437.08L422.992 438.36C422.046 439.64 420.672 440.28 418.872 440.28C418.126 440.28 417.439 440.167 416.812 439.94C416.186 439.7 415.639 439.367 415.172 438.94C414.719 438.513 414.359 437.993 414.092 437.38C413.839 436.753 413.712 436.047 413.712 435.26C413.712 434.487 413.839 433.787 414.092 433.16C414.359 432.52 414.719 431.98 415.172 431.54C415.626 431.087 416.159 430.74 416.772 430.5C417.399 430.247 418.072 430.12 418.792 430.12C419.459 430.12 420.072 430.233 420.632 430.46C421.206 430.673 421.699 431 422.112 431.44C422.526 431.867 422.846 432.407 423.072 433.06C423.312 433.7 423.432 434.453 423.432 435.32ZM427.919 434.9L424.459 430.4L427.339 430.4L429.419 433.38L431.559 430.4L434.319 430.4L430.879 434.9L434.799 440L431.879 440L429.379 436.5L426.859 440L424.019 440L427.919 434.9ZM436.18 430.4L438.58 430.4L438.58 440L436.18 440L436.18 430.4ZM435.84 427.14C435.84 426.753 435.98 426.42 436.26 426.14C436.553 425.847 436.92 425.7 437.36 425.7C437.8 425.7 438.166 425.84 438.46 426.12C438.766 426.387 438.92 426.727 438.92 427.14C438.92 427.553 438.766 427.9 438.46 428.18C438.166 428.447 437.8 428.58 437.36 428.58C436.92 428.58 436.553 428.44 436.26 428.16C435.98 427.867 435.84 427.527 435.84 427.14ZM446.669 432.96C446.456 432.68 446.162 432.44 445.789 432.24C445.416 432.027 445.009 431.92 444.569 431.92C444.182 431.92 443.829 432 443.509 432.16C443.189 432.32 443.029 432.587 443.029 432.96C443.029 433.333 443.202 433.6 443.549 433.76C443.909 433.907 444.429 434.06 445.109 434.22C445.469 434.3 445.829 434.407 446.189 434.54C446.562 434.673 446.896 434.853 447.189 435.08C447.496 435.293 447.742 435.567 447.929 435.9C448.116 436.22 448.209 436.613 448.209 437.08C448.209 437.667 448.096 438.167 447.869 438.58C447.656 438.98 447.362 439.307 446.989 439.56C446.629 439.813 446.202 439.993 445.709 440.1C445.229 440.22 444.729 440.28 444.209 440.28C443.462 440.28 442.736 440.147 442.029 439.88C441.322 439.6 440.736 439.207 440.269 438.7L441.849 437.22C442.116 437.567 442.462 437.853 442.889 438.08C443.316 438.307 443.789 438.42 444.309 438.42C444.482 438.42 444.656 438.4 444.829 438.36C445.016 438.32 445.182 438.26 445.329 438.18C445.489 438.087 445.616 437.967 445.709 437.82C445.802 437.673 445.849 437.493 445.849 437.28C445.849 436.88 445.662 436.593 445.289 436.42C444.929 436.247 444.382 436.073 443.649 435.9C443.289 435.82 442.936 435.72 442.589 435.6C442.256 435.467 441.956 435.3 441.689 435.1C441.422 434.887 441.209 434.627 441.049 434.32C440.889 434.013 440.809 433.633 440.809 433.18C440.809 432.647 440.916 432.187 441.129 431.8C441.356 431.413 441.649 431.1 442.009 430.86C442.369 430.607 442.776 430.42 443.229 430.3C443.682 430.18 444.149 430.12 444.629 430.12C445.322 430.12 445.996 430.24 446.649 430.48C447.316 430.72 447.842 431.087 448.229 431.58L446.669 432.96ZM448.834 432.32L448.834 430.4L450.514 430.4L450.514 427.62L452.874 427.62L452.874 430.4L455.274 430.4L455.274 432.32L452.874 432.32L452.874 436.78C452.874 437.207 452.947 437.56 453.094 437.84C453.254 438.12 453.601 438.26 454.134 438.26C454.294 438.26 454.467 438.247 454.654 438.22C454.841 438.18 455.007 438.127 455.154 438.06L455.234 439.94C455.021 440.02 454.767 440.08 454.474 440.12C454.181 440.173 453.901 440.2 453.634 440.2C452.994 440.2 452.474 440.113 452.074 439.94C451.674 439.753 451.354 439.507 451.114 439.2C450.887 438.88 450.727 438.52 450.634 438.12C450.554 437.707 450.514 437.267 450.514 436.8L450.514 432.32L448.834 432.32ZM456.969 430.4L459.369 430.4L459.369 440L456.969 440L456.969 430.4ZM456.629 427.14C456.629 426.753 456.769 426.42 457.049 426.14C457.342 425.847 457.709 425.7 458.149 425.7C458.589 425.7 458.955 425.84 459.249 426.12C459.555 426.387 459.709 426.727 459.709 427.14C459.709 427.553 459.555 427.9 459.249 428.18C458.955 428.447 458.589 428.58 458.149 428.58C457.709 428.58 457.342 428.44 457.049 428.16C456.769 427.867 456.629 427.527 456.629 427.14ZM462.198 430.4L464.478 430.4L464.478 431.94L464.518 431.94C464.732 431.46 465.098 431.04 465.618 430.68C466.152 430.307 466.778 430.12 467.498 430.12C468.125 430.12 468.658 430.233 469.098 430.46C469.552 430.673 469.918 430.96 470.198 431.32C470.492 431.68 470.705 432.093 470.838 432.56C470.972 433.027 471.038 433.507 471.038 434L471.038 440L468.638 440L468.638 434.68C468.638 434.4 468.618 434.107 468.578 433.8C468.538 433.493 468.452 433.22 468.318 432.98C468.185 432.727 467.998 432.52 467.758 432.36C467.532 432.2 467.225 432.12 466.838 432.12C466.452 432.12 466.118 432.2 465.838 432.36C465.558 432.507 465.325 432.7 465.138 432.94C464.965 433.18 464.832 433.46 464.738 433.78C464.645 434.087 464.598 434.4 464.598 434.72L464.598 440L462.198 440L462.198 430.4ZM483.517 430.4L483.517 439.14C483.517 440.007 483.41 440.787 483.197 441.48C482.984 442.187 482.65 442.78 482.197 443.26C481.757 443.753 481.197 444.133 480.517 444.4C479.837 444.667 479.03 444.8 478.097 444.8C477.71 444.8 477.297 444.767 476.857 444.7C476.43 444.633 476.004 444.533 475.577 444.4C475.164 444.267 474.764 444.1 474.377 443.9C473.99 443.7 473.644 443.473 473.337 443.22L474.717 441.36C475.184 441.8 475.71 442.133 476.297 442.36C476.884 442.6 477.477 442.72 478.077 442.72C478.65 442.72 479.13 442.633 479.517 442.46C479.917 442.3 480.23 442.073 480.457 441.78C480.697 441.487 480.864 441.14 480.957 440.74C481.064 440.34 481.117 439.9 481.117 439.42L481.117 438.72L481.077 438.72C480.73 439.187 480.284 439.547 479.737 439.8C479.204 440.04 478.604 440.16 477.937 440.16C477.217 440.16 476.564 440.027 475.977 439.76C475.39 439.493 474.89 439.133 474.477 438.68C474.077 438.227 473.764 437.7 473.537 437.1C473.31 436.487 473.197 435.84 473.197 435.16C473.197 434.467 473.304 433.813 473.517 433.2C473.744 432.587 474.057 432.053 474.457 431.6C474.87 431.147 475.364 430.787 475.937 430.52C476.524 430.253 477.177 430.12 477.897 430.12C478.577 430.12 479.21 430.26 479.797 430.54C480.384 430.82 480.85 431.253 481.197 431.84L481.237 431.84L481.237 430.4L483.517 430.4ZM478.397 432.08C477.957 432.08 477.564 432.16 477.217 432.32C476.884 432.48 476.597 432.7 476.357 432.98C476.13 433.247 475.95 433.567 475.817 433.94C475.697 434.313 475.637 434.713 475.637 435.14C475.637 435.527 475.697 435.9 475.817 436.26C475.95 436.62 476.13 436.947 476.357 437.24C476.597 437.52 476.884 437.747 477.217 437.92C477.564 438.093 477.95 438.18 478.377 438.18C478.817 438.18 479.21 438.1 479.557 437.94C479.917 437.767 480.217 437.54 480.457 437.26C480.71 436.98 480.904 436.66 481.037 436.3C481.17 435.927 481.237 435.54 481.237 435.14C481.237 434.727 481.17 434.333 481.037 433.96C480.904 433.587 480.71 433.26 480.457 432.98C480.217 432.7 479.924 432.48 479.577 432.32C479.23 432.16 478.837 432.08 478.397 432.08ZM489.85 432.32L489.85 430.4L491.53 430.4L491.53 427.62L493.89 427.62L493.89 430.4L496.29 430.4L496.29 432.32L493.89 432.32L493.89 436.78C493.89 437.207 493.963 437.56 494.11 437.84C494.27 438.12 494.616 438.26 495.15 438.26C495.31 438.26 495.483 438.247 495.67 438.22C495.856 438.18 496.023 438.127 496.17 438.06L496.25 439.94C496.036 440.02 495.783 440.08 495.49 440.12C495.196 440.173 494.916 440.2 494.65 440.2C494.01 440.2 493.49 440.113 493.09 439.94C492.69 439.753 492.37 439.507 492.13 439.2C491.903 438.88 491.743 438.52 491.65 438.12C491.57 437.707 491.53 437.267 491.53 436.8L491.53 432.32L489.85 432.32ZM504.705 434.24C504.705 433.933 504.658 433.64 504.565 433.36C504.485 433.08 504.351 432.833 504.165 432.62C503.978 432.407 503.738 432.24 503.445 432.12C503.165 431.987 502.831 431.92 502.445 431.92C501.725 431.92 501.111 432.14 500.605 432.58C500.111 433.007 499.838 433.56 499.785 434.24L504.705 434.24ZM507.105 435.32C507.105 435.427 507.105 435.533 507.105 435.64C507.105 435.747 507.098 435.853 507.085 435.96L499.785 435.96C499.811 436.307 499.898 436.627 500.045 436.92C500.205 437.2 500.411 437.447 500.665 437.66C500.918 437.86 501.205 438.02 501.525 438.14C501.845 438.26 502.178 438.32 502.525 438.32C503.125 438.32 503.631 438.213 504.045 438C504.458 437.773 504.798 437.467 505.065 437.08L506.665 438.36C505.718 439.64 504.345 440.28 502.545 440.28C501.798 440.28 501.111 440.167 500.485 439.94C499.858 439.7 499.311 439.367 498.845 438.94C498.391 438.513 498.031 437.993 497.765 437.38C497.511 436.753 497.385 436.047 497.385 435.26C497.385 434.487 497.511 433.787 497.765 433.16C498.031 432.52 498.391 431.98 498.845 431.54C499.298 431.087 499.831 430.74 500.445 430.5C501.071 430.247 501.745 430.12 502.465 430.12C503.131 430.12 503.745 430.233 504.305 430.46C504.878 430.673 505.371 431 505.785 431.44C506.198 431.867 506.518 432.407 506.745 433.06C506.985 433.7 507.105 434.453 507.105 435.32ZM515.19 438.78L515.13 438.78C514.89 439.207 514.503 439.56 513.97 439.84C513.436 440.107 512.83 440.24 512.15 440.24C511.763 440.24 511.356 440.187 510.93 440.08C510.516 439.987 510.13 439.827 509.77 439.6C509.423 439.36 509.13 439.053 508.89 438.68C508.663 438.293 508.55 437.82 508.55 437.26C508.55 436.54 508.75 435.967 509.15 435.54C509.563 435.113 510.09 434.787 510.73 434.56C511.37 434.333 512.076 434.187 512.85 434.12C513.636 434.04 514.403 434 515.15 434L515.15 433.76C515.15 433.16 514.93 432.72 514.49 432.44C514.063 432.147 513.55 432 512.95 432C512.443 432 511.956 432.107 511.49 432.32C511.023 432.533 510.636 432.793 510.33 433.1L509.09 431.64C509.636 431.133 510.263 430.753 510.97 430.5C511.69 430.247 512.416 430.12 513.15 430.12C514.003 430.12 514.703 430.24 515.25 430.48C515.81 430.72 516.25 431.033 516.57 431.42C516.89 431.807 517.11 432.24 517.23 432.72C517.363 433.2 517.43 433.68 517.43 434.16L517.43 440L515.19 440L515.19 438.78ZM515.15 435.62L514.61 435.62C514.223 435.62 513.816 435.64 513.39 435.68C512.963 435.707 512.57 435.78 512.21 435.9C511.85 436.007 511.55 436.167 511.31 436.38C511.07 436.58 510.95 436.86 510.95 437.22C510.95 437.447 510.996 437.64 511.09 437.8C511.196 437.947 511.33 438.067 511.49 438.16C511.65 438.253 511.83 438.32 512.03 438.36C512.23 438.4 512.43 438.42 512.63 438.42C513.456 438.42 514.083 438.2 514.51 437.76C514.936 437.32 515.15 436.72 515.15 435.96L515.15 435.62ZM531.604 430.12C532.23 430.12 532.764 430.233 533.204 430.46C533.657 430.673 534.024 430.96 534.304 431.32C534.597 431.68 534.81 432.093 534.944 432.56C535.077 433.027 535.144 433.507 535.144 434L535.144 440L532.744 440L532.744 434.68C532.744 434.4 532.724 434.107 532.684 433.8C532.644 433.493 532.557 433.22 532.424 432.98C532.29 432.727 532.104 432.52 531.864 432.36C531.637 432.2 531.33 432.12 530.944 432.12C530.57 432.12 530.25 432.2 529.984 432.36C529.717 432.52 529.497 432.727 529.324 432.98C529.15 433.233 529.024 433.52 528.944 433.84C528.864 434.147 528.824 434.453 528.824 434.76L528.824 440L526.424 440L526.424 434.2C526.424 433.6 526.277 433.107 525.984 432.72C525.704 432.32 525.257 432.12 524.644 432.12C524.284 432.12 523.97 432.2 523.704 432.36C523.437 432.507 523.217 432.7 523.044 432.94C522.884 433.18 522.757 433.46 522.664 433.78C522.584 434.087 522.544 434.4 522.544 434.72L522.544 440L520.144 440L520.144 430.4L522.424 430.4L522.424 431.94L522.464 431.94C522.57 431.7 522.71 431.473 522.884 431.26C523.07 431.047 523.284 430.853 523.524 430.68C523.777 430.507 524.064 430.373 524.384 430.28C524.704 430.173 525.057 430.12 525.444 430.12C526.19 430.12 526.81 430.287 527.304 430.62C527.797 430.953 528.177 431.393 528.444 431.94C528.764 431.353 529.19 430.907 529.724 430.6C530.257 430.28 530.884 430.12 531.604 430.12ZM549.333 433.06C549.146 432.793 548.866 432.573 548.493 432.4C548.119 432.213 547.739 432.12 547.353 432.12C546.913 432.12 546.526 432.213 546.193 432.4C545.859 432.573 545.579 432.807 545.353 433.1C545.139 433.393 544.979 433.727 544.873 434.1C544.766 434.46 544.713 434.827 544.713 435.2C544.713 435.573 544.766 435.947 544.873 436.32C544.993 436.68 545.166 437.007 545.393 437.3C545.619 437.593 545.899 437.833 546.233 438.02C546.579 438.193 546.979 438.28 547.433 438.28C547.806 438.28 548.179 438.207 548.553 438.06C548.926 437.913 549.226 437.7 549.453 437.42L550.953 438.94C550.553 439.367 550.039 439.7 549.413 439.94C548.799 440.167 548.133 440.28 547.413 440.28C546.706 440.28 546.033 440.167 545.393 439.94C544.766 439.713 544.213 439.38 543.733 438.94C543.266 438.5 542.893 437.967 542.613 437.34C542.346 436.713 542.213 436 542.213 435.2C542.213 434.427 542.346 433.727 542.613 433.1C542.893 432.473 543.266 431.94 543.733 431.5C544.199 431.06 544.739 430.72 545.353 430.48C545.979 430.24 546.646 430.12 547.353 430.12C548.059 430.12 548.739 430.253 549.393 430.52C550.059 430.787 550.586 431.153 550.973 431.62L549.333 433.06ZM557.796 430.12C558.423 430.12 558.956 430.233 559.396 430.46C559.85 430.673 560.216 430.96 560.496 431.32C560.79 431.68 561.003 432.093 561.136 432.56C561.27 433.027 561.336 433.507 561.336 434L561.336 440L558.936 440L558.936 434.72C558.936 434.44 558.916 434.153 558.876 433.86C558.836 433.553 558.75 433.28 558.616 433.04C558.496 432.787 558.316 432.58 558.076 432.42C557.85 432.26 557.543 432.18 557.156 432.18C556.77 432.18 556.436 432.253 556.156 432.4C555.876 432.547 555.643 432.747 555.456 433C555.27 433.24 555.13 433.513 555.036 433.82C554.943 434.127 554.896 434.44 554.896 434.76L554.896 440L552.496 440L552.496 424.88L554.896 424.88L554.896 431.74L554.936 431.74C555.03 431.54 555.163 431.347 555.336 431.16C555.523 430.96 555.736 430.787 555.976 430.64C556.216 430.48 556.49 430.353 556.796 430.26C557.103 430.167 557.436 430.12 557.796 430.12ZM570.014 438.78L569.954 438.78C569.714 439.207 569.327 439.56 568.794 439.84C568.261 440.107 567.654 440.24 566.974 440.24C566.587 440.24 566.181 440.187 565.754 440.08C565.341 439.987 564.954 439.827 564.594 439.6C564.247 439.36 563.954 439.053 563.714 438.68C563.487 438.293 563.374 437.82 563.374 437.26C563.374 436.54 563.574 435.967 563.974 435.54C564.387 435.113 564.914 434.787 565.554 434.56C566.194 434.333 566.901 434.187 567.674 434.12C568.461 434.04 569.227 434 569.974 434L569.974 433.76C569.974 433.16 569.754 432.72 569.314 432.44C568.887 432.147 568.374 432 567.774 432C567.267 432 566.781 432.107 566.314 432.32C565.847 432.533 565.461 432.793 565.154 433.1L563.914 431.64C564.461 431.133 565.087 430.753 565.794 430.5C566.514 430.247 567.241 430.12 567.974 430.12C568.827 430.12 569.527 430.24 570.074 430.48C570.634 430.72 571.074 431.033 571.394 431.42C571.714 431.807 571.934 432.24 572.054 432.72C572.187 433.2 572.254 433.68 572.254 434.16L572.254 440L570.014 440L570.014 438.78ZM569.974 435.62L569.434 435.62C569.047 435.62 568.641 435.64 568.214 435.68C567.787 435.707 567.394 435.78 567.034 435.9C566.674 436.007 566.374 436.167 566.134 436.38C565.894 436.58 565.774 436.86 565.774 437.22C565.774 437.447 565.821 437.64 565.914 437.8C566.021 437.947 566.154 438.067 566.314 438.16C566.474 438.253 566.654 438.32 566.854 438.36C567.054 438.4 567.254 438.42 567.454 438.42C568.281 438.42 568.907 438.2 569.334 437.76C569.761 437.32 569.974 436.72 569.974 435.96L569.974 435.62ZM574.968 430.4L577.248 430.4L577.248 431.94L577.288 431.94C577.501 431.46 577.868 431.04 578.388 430.68C578.921 430.307 579.548 430.12 580.268 430.12C580.895 430.12 581.428 430.233 581.868 430.46C582.321 430.673 582.688 430.96 582.968 431.32C583.261 431.68 583.475 432.093 583.608 432.56C583.741 433.027 583.808 433.507 583.808 434L583.808 440L581.408 440L581.408 434.68C581.408 434.4 581.388 434.107 581.348 433.8C581.308 433.493 581.221 433.22 581.088 432.98C580.955 432.727 580.768 432.52 580.528 432.36C580.301 432.2 579.995 432.12 579.608 432.12C579.221 432.12 578.888 432.2 578.608 432.36C578.328 432.507 578.095 432.7 577.908 432.94C577.735 433.18 577.601 433.46 577.508 433.78C577.415 434.087 577.368 434.4 577.368 434.72L577.368 440L574.968 440L574.968 430.4ZM586.527 430.4L588.807 430.4L588.807 431.94L588.847 431.94C589.06 431.46 589.427 431.04 589.947 430.68C590.48 430.307 591.107 430.12 591.827 430.12C592.453 430.12 592.987 430.233 593.427 430.46C593.88 430.673 594.247 430.96 594.527 431.32C594.82 431.68 595.033 432.093 595.167 432.56C595.3 433.027 595.367 433.507 595.367 434L595.367 440L592.967 440L592.967 434.68C592.967 434.4 592.947 434.107 592.907 433.8C592.867 433.493 592.78 433.22 592.647 432.98C592.513 432.727 592.327 432.52 592.087 432.36C591.86 432.2 591.553 432.12 591.167 432.12C590.78 432.12 590.447 432.2 590.167 432.36C589.887 432.507 589.653 432.7 589.467 432.94C589.293 433.18 589.16 433.46 589.067 433.78C588.973 434.087 588.927 434.4 588.927 434.72L588.927 440L586.527 440L586.527 430.4ZM604.845 434.24C604.845 433.933 604.799 433.64 604.705 433.36C604.625 433.08 604.492 432.833 604.305 432.62C604.119 432.407 603.879 432.24 603.585 432.12C603.305 431.987 602.972 431.92 602.585 431.92C601.865 431.92 601.252 432.14 600.745 432.58C600.252 433.007 599.979 433.56 599.925 434.24L604.845 434.24ZM607.245 435.32C607.245 435.427 607.245 435.533 607.245 435.64C607.245 435.747 607.239 435.853 607.225 435.96L599.925 435.96C599.952 436.307 600.039 436.627 600.185 436.92C600.345 437.2 600.552 437.447 600.805 437.66C601.059 437.86 601.345 438.02 601.665 438.14C601.985 438.26 602.319 438.32 602.665 438.32C603.265 438.32 603.772 438.213 604.185 438C604.599 437.773 604.939 437.467 605.205 437.08L606.805 438.36C605.859 439.64 604.485 440.28 602.685 440.28C601.939 440.28 601.252 440.167 600.625 439.94C599.999 439.7 599.452 439.367 598.985 438.94C598.532 438.513 598.172 437.993 597.905 437.38C597.652 436.753 597.525 436.047 597.525 435.26C597.525 434.487 597.652 433.787 597.905 433.16C598.172 432.52 598.532 431.98 598.985 431.54C599.439 431.087 599.972 430.74 600.585 430.5C601.212 430.247 601.885 430.12 602.605 430.12C603.272 430.12 603.885 430.233 604.445 430.46C605.019 430.673 605.512 431 605.925 431.44C606.339 431.867 606.659 432.407 606.885 433.06C607.125 433.7 607.245 434.453 607.245 435.32ZM609.528 424.88L611.928 424.88L611.928 440L609.528 440L609.528 424.88ZM620.017 432.96C619.804 432.68 619.511 432.44 619.137 432.24C618.764 432.027 618.357 431.92 617.917 431.92C617.531 431.92 617.177 432 616.857 432.16C616.537 432.32 616.377 432.587 616.377 432.96C616.377 433.333 616.551 433.6 616.897 433.76C617.257 433.907 617.777 434.06 618.457 434.22C618.817 434.3 619.177 434.407 619.537 434.54C619.911 434.673 620.244 434.853 620.537 435.08C620.844 435.293 621.091 435.567 621.277 435.9C621.464 436.22 621.557 436.613 621.557 437.08C621.557 437.667 621.444 438.167 621.217 438.58C621.004 438.98 620.711 439.307 620.337 439.56C619.977 439.813 619.551 439.993 619.057 440.1C618.577 440.22 618.077 440.28 617.557 440.28C616.811 440.28 616.084 440.147 615.377 439.88C614.671 439.6 614.084 439.207 613.617 438.7L615.197 437.22C615.464 437.567 615.811 437.853 616.237 438.08C616.664 438.307 617.137 438.42 617.657 438.42C617.831 438.42 618.004 438.4 618.177 438.36C618.364 438.32 618.531 438.26 618.677 438.18C618.837 438.087 618.964 437.967 619.057 437.82C619.151 437.673 619.197 437.493 619.197 437.28C619.197 436.88 619.011 436.593 618.637 436.42C618.277 436.247 617.731 436.073 616.997 435.9C616.637 435.82 616.284 435.72 615.937 435.6C615.604 435.467 615.304 435.3 615.037 435.1C614.771 434.887 614.557 434.627 614.397 434.32C614.237 434.013 614.157 433.633 614.157 433.18C614.157 432.647 614.264 432.187 614.477 431.8C614.704 431.413 614.997 431.1 615.357 430.86C615.717 430.607 616.124 430.42 616.577 430.3C617.031 430.18 617.497 430.12 617.977 430.12C618.671 430.12 619.344 430.24 619.997 430.48C620.664 430.72 621.191 431.087 621.577 431.58L620.017 432.96Z" fill="#562F00"/>
<rect x="17" y="8" width="352" height="56" rx="8" fill="#FECE99"/>
<g clip-path="url(#clip2_762_9728)">
<path d="M39 36V33C39 32.2044 39.3161 31.4413 39.8787 30.8787C40.4413 30.3161 41.2044 30 42 30H55M55 30L52 27M55 30L52 33" stroke="#FE7500" stroke-width="2" stroke-linecap="round" stroke-linejoin="round"/>
<path d="M55 36V39C55 39.7956 54.6839 40.5587 54.1213 41.1213C53.5587 41.6839 52.7956 42 52 42H39M39 42L42 45M39 42L42 39" stroke="#FE7500" stroke-width="2" stroke-linecap="round" stroke-linejoin="round"/>
</g>
<path d="M78.78 31.16C78.4067 30.6533 77.92 30.2867 77.32 30.06C76.72 29.82 76.1333 29.7 75.56 29.7C74.8267 29.7 74.16 29.8333 73.56 30.1C72.96 30.3667 72.44 30.7333 72 31.2C71.5733 31.6667 71.24 32.2133 71 32.84C70.7733 33.4667 70.66 34.1467 70.66 34.88C70.66 35.6533 70.7733 36.36 71 37C71.2267 37.64 71.5467 38.1933 71.96 38.66C72.3867 39.1133 72.8933 39.4667 73.48 39.72C74.0667 39.9733 74.7267 40.1 75.46 40.1C76.22 40.1 76.8933 39.9533 77.48 39.66C78.0667 39.3533 78.54 38.9533 78.9 38.46L80.92 39.88C80.2933 40.6667 79.5267 41.28 78.62 41.72C77.7133 42.1467 76.6533 42.36 75.44 42.36C74.3333 42.36 73.3133 42.18 72.38 41.82C71.46 41.4467 70.6667 40.9333 70 40.28C69.3333 39.6133 68.8133 38.8267 68.44 37.92C68.0667 37 67.88 35.9867 67.88 34.88C67.88 33.7467 68.0733 32.7267 68.46 31.82C68.86 30.9 69.4 30.12 70.08 29.48C70.7733 28.84 71.5867 28.3467 72.52 28C73.4533 27.6533 74.4667 27.48 75.56 27.48C76.0133 27.48 76.4867 27.5267 76.98 27.62C77.4733 27.7 77.9467 27.8333 78.4 28.02C78.8533 28.1933 79.28 28.4133 79.68 28.68C80.08 28.9467 80.42 29.2667 80.7 29.64L78.78 31.16ZM81.4894 37.16C81.4894 36.4 81.6227 35.7133 81.8894 35.1C82.1694 34.4733 82.5427 33.94 83.0094 33.5C83.4761 33.06 84.0294 32.72 84.6694 32.48C85.3094 32.24 85.9894 32.12 86.7094 32.12C87.4294 32.12 88.1094 32.24 88.7494 32.48C89.3894 32.72 89.9427 33.06 90.4094 33.5C90.8761 33.94 91.2427 34.4733 91.5094 35.1C91.7894 35.7133 91.9294 36.4 91.9294 37.16C91.9294 37.92 91.7894 38.6133 91.5094 39.24C91.2427 39.8667 90.8761 40.4067 90.4094 40.86C89.9427 41.3 89.3894 41.6467 88.7494 41.9C88.1094 42.1533 87.4294 42.28 86.7094 42.28C85.9894 42.28 85.3094 42.1533 84.6694 41.9C84.0294 41.6467 83.4761 41.3 83.0094 40.86C82.5427 40.4067 82.1694 39.8667 81.8894 39.24C81.6227 38.6133 81.4894 37.92 81.4894 37.16ZM83.9294 37.16C83.9294 37.5333 83.9827 37.9067 84.0894 38.28C84.2094 38.6533 84.3827 38.9867 84.6094 39.28C84.8361 39.5733 85.1227 39.8133 85.4694 40C85.8161 40.1867 86.2294 40.28 86.7094 40.28C87.1894 40.28 87.6027 40.1867 87.9494 40C88.2961 39.8133 88.5827 39.5733 88.8094 39.28C89.0361 38.9867 89.2027 38.6533 89.3094 38.28C89.4294 37.9067 89.4894 37.5333 89.4894 37.16C89.4894 36.7867 89.4294 36.42 89.3094 36.06C89.2027 35.6867 89.0361 35.3533 88.8094 35.06C88.5827 34.7667 88.2961 34.5333 87.9494 34.36C87.6027 34.1733 87.1894 34.08 86.7094 34.08C86.2294 34.08 85.8161 34.1733 85.4694 34.36C85.1227 34.5333 84.8361 34.7667 84.6094 35.06C84.3827 35.3533 84.2094 35.6867 84.0894 36.06C83.9827 36.42 83.9294 36.7867 83.9294 37.16ZM94.1744 32.4L96.4544 32.4L96.4544 33.94L96.4944 33.94C96.7078 33.46 97.0744 33.04 97.5944 32.68C98.1278 32.3067 98.7544 32.12 99.4744 32.12C100.101 32.12 100.634 32.2333 101.074 32.46C101.528 32.6733 101.894 32.96 102.174 33.32C102.468 33.68 102.681 34.0933 102.814 34.56C102.948 35.0267 103.014 35.5067 103.014 36L103.014 42L100.614 42L100.614 36.68C100.614 36.4 100.594 36.1067 100.554 35.8C100.514 35.4933 100.428 35.22 100.294 34.98C100.161 34.7267 99.9744 34.52 99.7344 34.36C99.5078 34.2 99.2011 34.12 98.8144 34.12C98.4278 34.12 98.0944 34.2 97.8144 34.36C97.5344 34.5067 97.3011 34.7 97.1144 34.94C96.9411 35.18 96.8078 35.46 96.7144 35.78C96.6211 36.0867 96.5744 36.4 96.5744 36.72L96.5744 42L94.1744 42L94.1744 32.4ZM104.353 34.32L104.353 32.4L106.033 32.4L106.033 29.62L108.393 29.62L108.393 32.4L110.793 32.4L110.793 34.32L108.393 34.32L108.393 38.78C108.393 39.2067 108.466 39.56 108.613 39.84C108.773 40.12 109.12 40.26 109.653 40.26C109.813 40.26 109.986 40.2467 110.173 40.22C110.36 40.18 110.526 40.1267 110.673 40.06L110.753 41.94C110.54 42.02 110.286 42.08 109.993 42.12C109.7 42.1733 109.42 42.2 109.153 42.2C108.513 42.2 107.993 42.1133 107.593 41.94C107.193 41.7533 106.873 41.5067 106.633 41.2C106.406 40.88 106.246 40.52 106.153 40.12C106.073 39.7067 106.033 39.2667 106.033 38.8L106.033 34.32L104.353 34.32ZM112.488 32.4L114.888 32.4L114.888 42L112.488 42L112.488 32.4ZM112.148 29.14C112.148 28.7533 112.288 28.42 112.568 28.14C112.861 27.8467 113.228 27.7 113.668 27.7C114.108 27.7 114.475 27.84 114.768 28.12C115.075 28.3867 115.228 28.7267 115.228 29.14C115.228 29.5533 115.075 29.9 114.768 30.18C114.475 30.4467 114.108 30.58 113.668 30.58C113.228 30.58 112.861 30.44 112.568 30.16C112.288 29.8667 112.148 29.5267 112.148 29.14ZM117.718 32.4L119.998 32.4L119.998 33.94L120.038 33.94C120.251 33.46 120.618 33.04 121.138 32.68C121.671 32.3067 122.298 32.12 123.018 32.12C123.644 32.12 124.178 32.2333 124.618 32.46C125.071 32.6733 125.438 32.96 125.718 33.32C126.011 33.68 126.224 34.0933 126.358 34.56C126.491 35.0267 126.558 35.5067 126.558 36L126.558 42L124.158 42L124.158 36.68C124.158 36.4 124.138 36.1067 124.098 35.8C124.058 35.4933 123.971 35.22 123.838 34.98C123.704 34.7267 123.518 34.52 123.278 34.36C123.051 34.2 122.744 34.12 122.358 34.12C121.971 34.12 121.638 34.2 121.358 34.36C121.078 34.5067 120.844 34.7 120.658 34.94C120.484 35.18 120.351 35.46 120.258 35.78C120.164 36.0867 120.118 36.4 120.118 36.72L120.118 42L117.718 42L117.718 32.4ZM138.036 42L135.756 42L135.756 40.46L135.716 40.46C135.503 40.94 135.129 41.3667 134.596 41.74C134.076 42.1 133.456 42.28 132.736 42.28C132.109 42.28 131.569 42.1733 131.116 41.96C130.676 41.7333 130.309 41.44 130.016 41.08C129.736 40.72 129.529 40.3067 129.396 39.84C129.263 39.3733 129.196 38.8933 129.196 38.4L129.196 32.4L131.596 32.4L131.596 37.72C131.596 38 131.616 38.2933 131.656 38.6C131.696 38.9067 131.783 39.1867 131.916 39.44C132.049 39.68 132.229 39.88 132.456 40.04C132.696 40.2 133.009 40.28 133.396 40.28C133.769 40.28 134.096 40.2067 134.376 40.06C134.669 39.9 134.903 39.7 135.076 39.46C135.263 39.22 135.403 38.9467 135.496 38.64C135.589 38.32 135.636 38 135.636 37.68L135.636 32.4L138.036 32.4L138.036 42ZM140.275 37.16C140.275 36.4 140.408 35.7133 140.675 35.1C140.955 34.4733 141.328 33.94 141.795 33.5C142.261 33.06 142.815 32.72 143.455 32.48C144.095 32.24 144.775 32.12 145.495 32.12C146.215 32.12 146.895 32.24 147.535 32.48C148.175 32.72 148.728 33.06 149.195 33.5C149.661 33.94 150.028 34.4733 150.295 35.1C150.575 35.7133 150.715 36.4 150.715 37.16C150.715 37.92 150.575 38.6133 150.295 39.24C150.028 39.8667 149.661 40.4067 149.195 40.86C148.728 41.3 148.175 41.6467 147.535 41.9C146.895 42.1533 146.215 42.28 145.495 42.28C144.775 42.28 144.095 42.1533 143.455 41.9C142.815 41.6467 142.261 41.3 141.795 40.86C141.328 40.4067 140.955 39.8667 140.675 39.24C140.408 38.6133 140.275 37.92 140.275 37.16ZM142.715 37.16C142.715 37.5333 142.768 37.9067 142.875 38.28C142.995 38.6533 143.168 38.9867 143.395 39.28C143.621 39.5733 143.908 39.8133 144.255 40C144.601 40.1867 145.015 40.28 145.495 40.28C145.975 40.28 146.388 40.1867 146.735 40C147.081 39.8133 147.368 39.5733 147.595 39.28C147.821 38.9867 147.988 38.6533 148.095 38.28C148.215 37.9067 148.275 37.5333 148.275 37.16C148.275 36.7867 148.215 36.42 148.095 36.06C147.988 35.6867 147.821 35.3533 147.595 35.06C147.368 34.7667 147.081 34.5333 146.735 34.36C146.388 34.1733 145.975 34.08 145.495 34.08C145.015 34.08 144.601 34.1733 144.255 34.36C143.908 34.5333 143.621 34.7667 143.395 35.06C143.168 35.3533 142.995 35.6867 142.875 36.06C142.768 36.42 142.715 36.7867 142.715 37.16ZM161.72 42L159.44 42L159.44 40.46L159.4 40.46C159.186 40.94 158.813 41.3667 158.28 41.74C157.76 42.1 157.14 42.28 156.42 42.28C155.793 42.28 155.253 42.1733 154.8 41.96C154.36 41.7333 153.993 41.44 153.7 41.08C153.42 40.72 153.213 40.3067 153.08 39.84C152.946 39.3733 152.88 38.8933 152.88 38.4L152.88 32.4L155.28 32.4L155.28 37.72C155.28 38 155.3 38.2933 155.34 38.6C155.38 38.9067 155.466 39.1867 155.6 39.44C155.733 39.68 155.913 39.88 156.14 40.04C156.38 40.2 156.693 40.28 157.08 40.28C157.453 40.28 157.78 40.2067 158.06 40.06C158.353 39.9 158.586 39.7 158.76 39.46C158.946 39.22 159.086 38.9467 159.18 38.64C159.273 38.32 159.32 38 159.32 37.68L159.32 32.4L161.72 32.4L161.72 42ZM169.778 34.96C169.565 34.68 169.272 34.44 168.898 34.24C168.525 34.0267 168.118 33.92 167.678 33.92C167.292 33.92 166.938 34 166.618 34.16C166.298 34.32 166.138 34.5867 166.138 34.96C166.138 35.3333 166.312 35.6 166.658 35.76C167.018 35.9067 167.538 36.06 168.218 36.22C168.578 36.3 168.938 36.4067 169.298 36.54C169.672 36.6733 170.005 36.8533 170.298 37.08C170.605 37.2933 170.852 37.5667 171.038 37.9C171.225 38.22 171.318 38.6133 171.318 39.08C171.318 39.6667 171.205 40.1667 170.978 40.58C170.765 40.98 170.472 41.3067 170.098 41.56C169.738 41.8133 169.312 41.9933 168.818 42.1C168.338 42.22 167.838 42.28 167.318 42.28C166.572 42.28 165.845 42.1467 165.138 41.88C164.432 41.6 163.845 41.2067 163.378 40.7L164.958 39.22C165.225 39.5667 165.572 39.8533 165.998 40.08C166.425 40.3067 166.898 40.42 167.418 40.42C167.592 40.42 167.765 40.4 167.938 40.36C168.125 40.32 168.292 40.26 168.438 40.18C168.598 40.0867 168.725 39.9667 168.818 39.82C168.912 39.6733 168.958 39.4933 168.958 39.28C168.958 38.88 168.772 38.5933 168.398 38.42C168.038 38.2467 167.492 38.0733 166.758 37.9C166.398 37.82 166.045 37.72 165.698 37.6C165.365 37.4667 165.065 37.3 164.798 37.1C164.532 36.8867 164.318 36.6267 164.158 36.32C163.998 36.0133 163.918 35.6333 163.918 35.18C163.918 34.6467 164.025 34.1867 164.238 33.8C164.465 33.4133 164.758 33.1 165.118 32.86C165.478 32.6067 165.885 32.42 166.338 32.3C166.792 32.18 167.258 32.12 167.738 32.12C168.432 32.12 169.105 32.24 169.758 32.48C170.425 32.72 170.952 33.0867 171.338 33.58L169.778 34.96ZM185.001 36.24C185.001 35.9333 184.954 35.64 184.861 35.36C184.781 35.08 184.648 34.8333 184.461 34.62C184.274 34.4067 184.034 34.24 183.741 34.12C183.461 33.9867 183.128 33.92 182.741 33.92C182.021 33.92 181.408 34.14 180.901 34.58C180.408 35.0067 180.134 35.56 180.081 36.24L185.001 36.24ZM187.401 37.32C187.401 37.4267 187.401 37.5333 187.401 37.64C187.401 37.7467 187.394 37.8533 187.381 37.96L180.081 37.96C180.108 38.3067 180.194 38.6267 180.341 38.92C180.501 39.2 180.708 39.4467 180.961 39.66C181.214 39.86 181.501 40.02 181.821 40.14C182.141 40.26 182.474 40.32 182.821 40.32C183.421 40.32 183.928 40.2133 184.341 40C184.754 39.7733 185.094 39.4667 185.361 39.08L186.961 40.36C186.014 41.64 184.641 42.28 182.841 42.28C182.094 42.28 181.408 42.1667 180.781 41.94C180.154 41.7 179.608 41.3667 179.141 40.94C178.688 40.5133 178.328 39.9933 178.061 39.38C177.808 38.7533 177.681 38.0467 177.681 37.26C177.681 36.4867 177.808 35.7867 178.061 35.16C178.328 34.52 178.688 33.98 179.141 33.54C179.594 33.0867 180.128 32.74 180.741 32.5C181.368 32.2467 182.041 32.12 182.761 32.12C183.428 32.12 184.041 32.2333 184.601 32.46C185.174 32.6733 185.668 33 186.081 33.44C186.494 33.8667 186.814 34.4067 187.041 35.06C187.281 35.7 187.401 36.4533 187.401 37.32ZM189.643 32.4L191.923 32.4L191.923 33.94L191.963 33.94C192.177 33.46 192.543 33.04 193.063 32.68C193.597 32.3067 194.223 32.12 194.943 32.12C195.57 32.12 196.103 32.2333 196.543 32.46C196.997 32.6733 197.363 32.96 197.643 33.32C197.937 33.68 198.15 34.0933 198.283 34.56C198.417 35.0267 198.483 35.5067 198.483 36L198.483 42L196.083 42L196.083 36.68C196.083 36.4 196.063 36.1067 196.023 35.8C195.983 35.4933 195.897 35.22 195.763 34.98C195.63 34.7267 195.443 34.52 195.203 34.36C194.977 34.2 194.67 34.12 194.283 34.12C193.897 34.12 193.563 34.2 193.283 34.36C193.003 34.5067 192.77 34.7 192.583 34.94C192.41 35.18 192.277 35.46 192.183 35.78C192.09 36.0867 192.043 36.4 192.043 36.72L192.043 42L189.643 42L189.643 32.4ZM210.962 32.4L210.962 41.14C210.962 42.0067 210.855 42.7867 210.642 43.48C210.429 44.1867 210.095 44.78 209.642 45.26C209.202 45.7533 208.642 46.1333 207.962 46.4C207.282 46.6667 206.475 46.8 205.542 46.8C205.155 46.8 204.742 46.7667 204.302 46.7C203.875 46.6333 203.449 46.5333 203.022 46.4C202.609 46.2667 202.209 46.1 201.822 45.9C201.435 45.7 201.089 45.4733 200.782 45.22L202.162 43.36C202.629 43.8 203.155 44.1333 203.742 44.36C204.329 44.6 204.922 44.72 205.522 44.72C206.095 44.72 206.575 44.6333 206.962 44.46C207.362 44.3 207.675 44.0733 207.902 43.78C208.142 43.4867 208.309 43.14 208.402 42.74C208.509 42.34 208.562 41.9 208.562 41.42L208.562 40.72L208.522 40.72C208.175 41.1867 207.729 41.5467 207.182 41.8C206.649 42.04 206.049 42.16 205.382 42.16C204.662 42.16 204.009 42.0267 203.422 41.76C202.835 41.4933 202.335 41.1333 201.922 40.68C201.522 40.2267 201.209 39.7 200.982 39.1C200.755 38.4867 200.642 37.84 200.642 37.16C200.642 36.4667 200.749 35.8133 200.962 35.2C201.189 34.5867 201.502 34.0533 201.902 33.6C202.315 33.1467 202.809 32.7867 203.382 32.52C203.969 32.2533 204.622 32.12 205.342 32.12C206.022 32.12 206.655 32.26 207.242 32.54C207.829 32.82 208.295 33.2533 208.642 33.84L208.682 33.84L208.682 32.4L210.962 32.4ZM205.842 34.08C205.402 34.08 205.009 34.16 204.662 34.32C204.329 34.48 204.042 34.7 203.802 34.98C203.575 35.2467 203.395 35.5667 203.262 35.94C203.142 36.3133 203.082 36.7133 203.082 37.14C203.082 37.5267 203.142 37.9 203.262 38.26C203.395 38.62 203.575 38.9467 203.802 39.24C204.042 39.52 204.329 39.7467 204.662 39.92C205.009 40.0933 205.395 40.18 205.822 40.18C206.262 40.18 206.655 40.1 207.002 39.94C207.362 39.7667 207.662 39.54 207.902 39.26C208.155 38.98 208.349 38.66 208.482 38.3C208.615 37.9267 208.682 37.54 208.682 37.14C208.682 36.7267 208.615 36.3333 208.482 35.96C208.349 35.5867 208.155 35.26 207.902 34.98C207.662 34.7 207.369 34.48 207.022 34.32C206.675 34.16 206.282 34.08 205.842 34.08ZM219.717 40.78L219.657 40.78C219.417 41.2067 219.03 41.56 218.497 41.84C217.964 42.1067 217.357 42.24 216.677 42.24C216.29 42.24 215.884 42.1867 215.457 42.08C215.044 41.9867 214.657 41.8267 214.297 41.6C213.95 41.36 213.657 41.0533 213.417 40.68C213.19 40.2933 213.077 39.82 213.077 39.26C213.077 38.54 213.277 37.9667 213.677 37.54C214.09 37.1133 214.617 36.7867 215.257 36.56C215.897 36.3333 216.604 36.1867 217.377 36.12C218.164 36.04 218.93 36 219.677 36L219.677 35.76C219.677 35.16 219.457 34.72 219.017 34.44C218.59 34.1467 218.077 34 217.477 34C216.97 34 216.484 34.1067 216.017 34.32C215.55 34.5333 215.164 34.7933 214.857 35.1L213.617 33.64C214.164 33.1333 214.79 32.7533 215.497 32.5C216.217 32.2467 216.944 32.12 217.677 32.12C218.53 32.12 219.23 32.24 219.777 32.48C220.337 32.72 220.777 33.0333 221.097 33.42C221.417 33.8067 221.637 34.24 221.757 34.72C221.89 35.2 221.957 35.68 221.957 36.16L221.957 42L219.717 42L219.717 40.78ZM219.677 37.62L219.137 37.62C218.75 37.62 218.344 37.64 217.917 37.68C217.49 37.7067 217.097 37.78 216.737 37.9C216.377 38.0067 216.077 38.1667 215.837 38.38C215.597 38.58 215.477 38.86 215.477 39.22C215.477 39.4467 215.524 39.64 215.617 39.8C215.724 39.9467 215.857 40.0667 216.017 40.16C216.177 40.2533 216.357 40.32 216.557 40.36C216.757 40.4 216.957 40.42 217.157 40.42C217.984 40.42 218.61 40.2 219.037 39.76C219.464 39.32 219.677 38.72 219.677 37.96L219.677 37.62ZM234.431 32.4L234.431 41.14C234.431 42.0067 234.324 42.7867 234.111 43.48C233.898 44.1867 233.564 44.78 233.111 45.26C232.671 45.7533 232.111 46.1333 231.431 46.4C230.751 46.6667 229.944 46.8 229.011 46.8C228.624 46.8 228.211 46.7667 227.771 46.7C227.344 46.6333 226.918 46.5333 226.491 46.4C226.078 46.2667 225.678 46.1 225.291 45.9C224.904 45.7 224.558 45.4733 224.251 45.22L225.631 43.36C226.098 43.8 226.624 44.1333 227.211 44.36C227.798 44.6 228.391 44.72 228.991 44.72C229.564 44.72 230.044 44.6333 230.431 44.46C230.831 44.3 231.144 44.0733 231.371 43.78C231.611 43.4867 231.778 43.14 231.871 42.74C231.978 42.34 232.031 41.9 232.031 41.42L232.031 40.72L231.991 40.72C231.644 41.1867 231.198 41.5467 230.651 41.8C230.118 42.04 229.518 42.16 228.851 42.16C228.131 42.16 227.478 42.0267 226.891 41.76C226.304 41.4933 225.804 41.1333 225.391 40.68C224.991 40.2267 224.678 39.7 224.451 39.1C224.224 38.4867 224.111 37.84 224.111 37.16C224.111 36.4667 224.218 35.8133 224.431 35.2C224.658 34.5867 224.971 34.0533 225.371 33.6C225.784 33.1467 226.278 32.7867 226.851 32.52C227.438 32.2533 228.091 32.12 228.811 32.12C229.491 32.12 230.124 32.26 230.711 32.54C231.298 32.82 231.764 33.2533 232.111 33.84L232.151 33.84L232.151 32.4L234.431 32.4ZM229.311 34.08C228.871 34.08 228.478 34.16 228.131 34.32C227.798 34.48 227.511 34.7 227.271 34.98C227.044 35.2467 226.864 35.5667 226.731 35.94C226.611 36.3133 226.551 36.7133 226.551 37.14C226.551 37.5267 226.611 37.9 226.731 38.26C226.864 38.62 227.044 38.9467 227.271 39.24C227.511 39.52 227.798 39.7467 228.131 39.92C228.478 40.0933 228.864 40.18 229.291 40.18C229.731 40.18 230.124 40.1 230.471 39.94C230.831 39.7667 231.131 39.54 231.371 39.26C231.624 38.98 231.818 38.66 231.951 38.3C232.084 37.9267 232.151 37.54 232.151 37.14C232.151 36.7267 232.084 36.3333 231.951 35.96C231.818 35.5867 231.624 35.26 231.371 34.98C231.131 34.7 230.838 34.48 230.491 34.32C230.144 34.16 229.751 34.08 229.311 34.08ZM243.986 36.24C243.986 35.9333 243.939 35.64 243.846 35.36C243.766 35.08 243.632 34.8333 243.446 34.62C243.259 34.4067 243.019 34.24 242.726 34.12C242.446 33.9867 242.112 33.92 241.726 33.92C241.006 33.92 240.392 34.14 239.886 34.58C239.392 35.0067 239.119 35.56 239.066 36.24L243.986 36.24ZM246.386 37.32C246.386 37.4267 246.386 37.5333 246.386 37.64C246.386 37.7467 246.379 37.8533 246.366 37.96L239.066 37.96C239.092 38.3067 239.179 38.6267 239.326 38.92C239.486 39.2 239.692 39.4467 239.946 39.66C240.199 39.86 240.486 40.02 240.806 40.14C241.126 40.26 241.459 40.32 241.806 40.32C242.406 40.32 242.912 40.2133 243.326 40C243.739 39.7733 244.079 39.4667 244.346 39.08L245.946 40.36C244.999 41.64 243.626 42.28 241.826 42.28C241.079 42.28 240.392 42.1667 239.766 41.94C239.139 41.7 238.592 41.3667 238.126 40.94C237.672 40.5133 237.312 39.9933 237.046 39.38C236.792 38.7533 236.666 38.0467 236.666 37.26C236.666 36.4867 236.792 35.7867 237.046 35.16C237.312 34.52 237.672 33.98 238.126 33.54C238.579 33.0867 239.112 32.74 239.726 32.5C240.352 32.2467 241.026 32.12 241.746 32.12C242.412 32.12 243.026 32.2333 243.586 32.46C244.159 32.6733 244.652 33 245.066 33.44C245.479 33.8667 245.799 34.4067 246.026 35.06C246.266 35.7 246.386 36.4533 246.386 37.32ZM260.088 32.12C260.715 32.12 261.248 32.2333 261.688 32.46C262.141 32.6733 262.508 32.96 262.788 33.32C263.081 33.68 263.295 34.0933 263.428 34.56C263.561 35.0267 263.628 35.5067 263.628 36L263.628 42L261.228 42L261.228 36.68C261.228 36.4 261.208 36.1067 261.168 35.8C261.128 35.4933 261.041 35.22 260.908 34.98C260.775 34.7267 260.588 34.52 260.348 34.36C260.121 34.2 259.815 34.12 259.428 34.12C259.055 34.12 258.735 34.2 258.468 34.36C258.201 34.52 257.981 34.7267 257.808 34.98C257.635 35.2333 257.508 35.52 257.428 35.84C257.348 36.1467 257.308 36.4533 257.308 36.76L257.308 42L254.908 42L254.908 36.2C254.908 35.6 254.761 35.1067 254.468 34.72C254.188 34.32 253.741 34.12 253.128 34.12C252.768 34.12 252.455 34.2 252.188 34.36C251.921 34.5067 251.701 34.7 251.528 34.94C251.368 35.18 251.241 35.46 251.148 35.78C251.068 36.0867 251.028 36.4 251.028 36.72L251.028 42L248.628 42L248.628 32.4L250.908 32.4L250.908 33.94L250.948 33.94C251.055 33.7 251.195 33.4733 251.368 33.26C251.555 33.0467 251.768 32.8533 252.008 32.68C252.261 32.5067 252.548 32.3733 252.868 32.28C253.188 32.1733 253.541 32.12 253.928 32.12C254.675 32.12 255.295 32.2867 255.788 32.62C256.281 32.9533 256.661 33.3933 256.928 33.94C257.248 33.3533 257.675 32.9067 258.208 32.6C258.741 32.28 259.368 32.12 260.088 32.12ZM273.099 36.24C273.099 35.9333 273.052 35.64 272.959 35.36C272.879 35.08 272.746 34.8333 272.559 34.62C272.372 34.4067 272.132 34.24 271.839 34.12C271.559 33.9867 271.226 33.92 270.839 33.92C270.119 33.92 269.506 34.14 268.999 34.58C268.506 35.0067 268.232 35.56 268.179 36.24L273.099 36.24ZM275.499 37.32C275.499 37.4267 275.499 37.5333 275.499 37.64C275.499 37.7467 275.492 37.8533 275.479 37.96L268.179 37.96C268.206 38.3067 268.292 38.6267 268.439 38.92C268.599 39.2 268.806 39.4467 269.059 39.66C269.312 39.86 269.599 40.02 269.919 40.14C270.239 40.26 270.572 40.32 270.919 40.32C271.519 40.32 272.026 40.2133 272.439 40C272.852 39.7733 273.192 39.4667 273.459 39.08L275.059 40.36C274.112 41.64 272.739 42.28 270.939 42.28C270.192 42.28 269.506 42.1667 268.879 41.94C268.252 41.7 267.706 41.3667 267.239 40.94C266.786 40.5133 266.426 39.9933 266.159 39.38C265.906 38.7533 265.779 38.0467 265.779 37.26C265.779 36.4867 265.906 35.7867 266.159 35.16C266.426 34.52 266.786 33.98 267.239 33.54C267.692 33.0867 268.226 32.74 268.839 32.5C269.466 32.2467 270.139 32.12 270.859 32.12C271.526 32.12 272.139 32.2333 272.699 32.46C273.272 32.6733 273.766 33 274.179 33.44C274.592 33.8667 274.912 34.4067 275.139 35.06C275.379 35.7 275.499 36.4533 275.499 37.32ZM277.741 32.4L280.021 32.4L280.021 33.94L280.061 33.94C280.275 33.46 280.641 33.04 281.161 32.68C281.695 32.3067 282.321 32.12 283.041 32.12C283.668 32.12 284.201 32.2333 284.641 32.46C285.095 32.6733 285.461 32.96 285.741 33.32C286.035 33.68 286.248 34.0933 286.381 34.56C286.515 35.0267 286.581 35.5067 286.581 36L286.581 42L284.181 42L284.181 36.68C284.181 36.4 284.161 36.1067 284.121 35.8C284.081 35.4933 283.995 35.22 283.861 34.98C283.728 34.7267 283.541 34.52 283.301 34.36C283.075 34.2 282.768 34.12 282.381 34.12C281.995 34.12 281.661 34.2 281.381 34.36C281.101 34.5067 280.868 34.7 280.681 34.94C280.508 35.18 280.375 35.46 280.281 35.78C280.188 36.0867 280.141 36.4 280.141 36.72L280.141 42L277.741 42L277.741 32.4ZM287.92 34.32L287.92 32.4L289.6 32.4L289.6 29.62L291.96 29.62L291.96 32.4L294.36 32.4L294.36 34.32L291.96 34.32L291.96 38.78C291.96 39.2067 292.033 39.56 292.18 39.84C292.34 40.12 292.687 40.26 293.22 40.26C293.38 40.26 293.553 40.2467 293.74 40.22C293.927 40.18 294.093 40.1267 294.24 40.06L294.32 41.94C294.107 42.02 293.853 42.08 293.56 42.12C293.267 42.1733 292.987 42.2 292.72 42.2C292.08 42.2 291.56 42.1133 291.16 41.94C290.76 41.7533 290.44 41.5067 290.2 41.2C289.973 40.88 289.813 40.52 289.72 40.12C289.64 39.7067 289.6 39.2667 289.6 38.8L289.6 34.32L287.92 34.32ZM300.973 26.88L303.373 26.88L303.373 42L300.973 42L300.973 26.88ZM305.642 37.16C305.642 36.4 305.776 35.7133 306.042 35.1C306.322 34.4733 306.696 33.94 307.162 33.5C307.629 33.06 308.182 32.72 308.822 32.48C309.462 32.24 310.142 32.12 310.862 32.12C311.582 32.12 312.262 32.24 312.902 32.48C313.542 32.72 314.096 33.06 314.562 33.5C315.029 33.94 315.396 34.4733 315.662 35.1C315.942 35.7133 316.082 36.4 316.082 37.16C316.082 37.92 315.942 38.6133 315.662 39.24C315.396 39.8667 315.029 40.4067 314.562 40.86C314.096 41.3 313.542 41.6467 312.902 41.9C312.262 42.1533 311.582 42.28 310.862 42.28C310.142 42.28 309.462 42.1533 308.822 41.9C308.182 41.6467 307.629 41.3 307.162 40.86C306.696 40.4067 306.322 39.8667 306.042 39.24C305.776 38.6133 305.642 37.92 305.642 37.16ZM308.082 37.16C308.082 37.5333 308.136 37.9067 308.242 38.28C308.362 38.6533 308.536 38.9867 308.762 39.28C308.989 39.5733 309.276 39.8133 309.622 40C309.969 40.1867 310.382 40.28 310.862 40.28C311.342 40.28 311.756 40.1867 312.102 40C312.449 39.8133 312.736 39.5733 312.962 39.28C313.189 38.9867 313.356 38.6533 313.462 38.28C313.582 37.9067 313.642 37.5333 313.642 37.16C313.642 36.7867 313.582 36.42 313.462 36.06C313.356 35.6867 313.189 35.3533 312.962 35.06C312.736 34.7667 312.449 34.5333 312.102 34.36C311.756 34.1733 311.342 34.08 310.862 34.08C310.382 34.08 309.969 34.1733 309.622 34.36C309.276 34.5333 308.989 34.7667 308.762 35.06C308.536 35.3533 308.362 35.6867 308.242 36.06C308.136 36.42 308.082 36.7867 308.082 37.16ZM317.767 37.16C317.767 36.4 317.901 35.7133 318.167 35.1C318.447 34.4733 318.821 33.94 319.287 33.5C319.754 33.06 320.307 32.72 320.947 32.48C321.587 32.24 322.267 32.12 322.987 32.12C323.707 32.12 324.387 32.24 325.027 32.48C325.667 32.72 326.221 33.06 326.687 33.5C327.154 33.94 327.521 34.4733 327.787 35.1C328.067 35.7133 328.207 36.4 328.207 37.16C328.207 37.92 328.067 38.6133 327.787 39.24C327.521 39.8667 327.154 40.4067 326.687 40.86C326.221 41.3 325.667 41.6467 325.027 41.9C324.387 42.1533 323.707 42.28 322.987 42.28C322.267 42.28 321.587 42.1533 320.947 41.9C320.307 41.6467 319.754 41.3 319.287 40.86C318.821 40.4067 318.447 39.8667 318.167 39.24C317.901 38.6133 317.767 37.92 317.767 37.16ZM320.207 37.16C320.207 37.5333 320.261 37.9067 320.367 38.28C320.487 38.6533 320.661 38.9867 320.887 39.28C321.114 39.5733 321.401 39.8133 321.747 40C322.094 40.1867 322.507 40.28 322.987 40.28C323.467 40.28 323.881 40.1867 324.227 40C324.574 39.8133 324.861 39.5733 325.087 39.28C325.314 38.9867 325.481 38.6533 325.587 38.28C325.707 37.9067 325.767 37.5333 325.767 37.16C325.767 36.7867 325.707 36.42 325.587 36.06C325.481 35.6867 325.314 35.3533 325.087 35.06C324.861 34.7667 324.574 34.5333 324.227 34.36C323.881 34.1733 323.467 34.08 322.987 34.08C322.507 34.08 322.094 34.1733 321.747 34.36C321.401 34.5333 321.114 34.7667 320.887 35.06C320.661 35.3533 320.487 35.6867 320.367 36.06C320.261 36.42 320.207 36.7867 320.207 37.16ZM332.753 32.4L332.753 33.74L332.813 33.74C332.933 33.5533 333.086 33.3667 333.273 33.18C333.473 32.98 333.713 32.8067 333.993 32.66C334.273 32.5 334.586 32.3733 334.933 32.28C335.293 32.1733 335.693 32.12 336.133 32.12C336.813 32.12 337.439 32.2533 338.013 32.52C338.586 32.7733 339.079 33.1267 339.493 33.58C339.906 34.0333 340.226 34.5667 340.453 35.18C340.679 35.7933 340.793 36.4533 340.793 37.16C340.793 37.8667 340.679 38.5333 340.453 39.16C340.239 39.7733 339.926 40.3133 339.513 40.78C339.113 41.2333 338.619 41.6 338.033 41.88C337.459 42.1467 336.806 42.28 336.073 42.28C335.393 42.28 334.766 42.14 334.193 41.86C333.633 41.58 333.199 41.2 332.893 40.72L332.853 40.72L332.853 46.8L330.453 46.8L330.453 32.4L332.753 32.4ZM338.353 37.16C338.353 36.7867 338.293 36.42 338.173 36.06C338.066 35.6867 337.899 35.3533 337.673 35.06C337.446 34.7667 337.159 34.5333 336.813 34.36C336.466 34.1733 336.059 34.08 335.593 34.08C335.153 34.08 334.759 34.1733 334.413 34.36C334.066 34.5467 333.766 34.7867 333.513 35.08C333.273 35.3733 333.086 35.7067 332.953 36.08C332.833 36.4533 332.773 36.8267 332.773 37.2C332.773 37.5733 332.833 37.9467 332.953 38.32C333.086 38.68 333.273 39.0067 333.513 39.3C333.766 39.5933 334.066 39.8333 334.413 40.02C334.759 40.1933 335.153 40.28 335.593 40.28C336.059 40.28 336.466 40.1867 336.813 40C337.159 39.8133 337.446 39.5733 337.673 39.28C337.899 38.9867 338.066 38.6533 338.173 38.28C338.293 37.9067 338.353 37.5333 338.353 37.16ZM348.287 34.96C348.073 34.68 347.78 34.44 347.407 34.24C347.033 34.0267 346.627 33.92 346.187 33.92C345.8 33.92 345.447 34 345.127 34.16C344.807 34.32 344.647 34.5867 344.647 34.96C344.647 35.3333 344.82 35.6 345.167 35.76C345.527 35.9067 346.047 36.06 346.727 36.22C347.087 36.3 347.447 36.4067 347.807 36.54C348.18 36.6733 348.513 36.8533 348.807 37.08C349.113 37.2933 349.36 37.5667 349.547 37.9C349.733 38.22 349.827 38.6133 349.827 39.08C349.827 39.6667 349.713 40.1667 349.487 40.58C349.273 40.98 348.98 41.3067 348.607 41.56C348.247 41.8133 347.82 41.9933 347.327 42.1C346.847 42.22 346.347 42.28 345.827 42.28C345.08 42.28 344.353 42.1467 343.647 41.88C342.94 41.6 342.353 41.2067 341.887 40.7L343.467 39.22C343.733 39.5667 344.08 39.8533 344.507 40.08C344.933 40.3067 345.407 40.42 345.927 40.42C346.1 40.42 346.273 40.4 346.447 40.36C346.633 40.32 346.8 40.26 346.947 40.18C347.107 40.0867 347.233 39.9667 347.327 39.82C347.42 39.6733 347.467 39.4933 347.467 39.28C347.467 38.88 347.28 38.5933 346.907 38.42C346.547 38.2467 346 38.0733 345.267 37.9C344.907 37.82 344.553 37.72 344.207 37.6C343.873 37.4667 343.573 37.3 343.307 37.1C343.04 36.8867 342.827 36.6267 342.667 36.32C342.507 36.0133 342.427 35.6333 342.427 35.18C342.427 34.6467 342.533 34.1867 342.747 33.8C342.973 33.4133 343.267 33.1 343.627 32.86C343.987 32.6067 344.393 32.42 344.847 32.3C345.3 32.18 345.767 32.12 346.247 32.12C346.94 32.12 347.613 32.24 348.267 32.48C348.933 32.72 349.46 33.0867 349.847 33.58L348.287 34.96Z" fill="#562F00"/>
<rect x="113" y="144" width="242" height="56" rx="8" fill="#FECE99"/>
<g clip-path="url(#clip3_762_9728)">
<path d="M138 171V179C138 179.266 137.895 179.52 137.707 179.708C137.52 179.895 137.265 180 137 180H135C134.735 180 134.48 179.895 134.293 179.708C134.105 179.52 134 179.266 134 179V172C134 171.735 134.105 171.481 134.293 171.293C134.48 171.106 134.735 171 135 171H138ZM138 171C139.061 171 140.078 170.579 140.828 169.829C141.579 169.079 142 168.061 142 167V166C142 165.47 142.211 164.961 142.586 164.586C142.961 164.211 143.47 164 144 164C144.53 164 145.039 164.211 145.414 164.586C145.789 164.961 146 165.47 146 166V171H149C149.53 171 150.039 171.211 150.414 171.586C150.789 171.961 151 172.47 151 173L150 178C149.856 178.614 149.583 179.141 149.223 179.501C148.862 179.862 148.433 180.037 148 180H141C140.204 180 139.441 179.684 138.879 179.122C138.316 178.559 138 177.796 138 177" stroke="#FE7500" stroke-width="2" stroke-linecap="round" stroke-linejoin="round"/>
</g>
<path d="M164.56 163.84L169.48 163.84C170.147 163.84 170.793 163.913 171.42 164.06C172.047 164.193 172.6 164.42 173.08 164.74C173.573 165.06 173.967 165.48 174.26 166C174.553 166.52 174.7 167.153 174.7 167.9C174.7 168.927 174.407 169.767 173.82 170.42C173.247 171.06 172.46 171.493 171.46 171.72L175.24 178L172.2 178L168.92 172L167.08 172L167.08 178L164.56 178L164.56 163.84ZM169.14 169.94C169.5 169.94 169.86 169.913 170.22 169.86C170.58 169.807 170.9 169.707 171.18 169.56C171.473 169.413 171.713 169.207 171.9 168.94C172.087 168.66 172.18 168.307 172.18 167.88C172.18 167.493 172.093 167.18 171.92 166.94C171.747 166.687 171.527 166.487 171.26 166.34C170.993 166.193 170.687 166.093 170.34 166.04C170.007 165.987 169.68 165.96 169.36 165.96L167.08 165.96L167.08 169.94L169.14 169.94ZM183.462 172.24C183.462 171.933 183.415 171.64 183.322 171.36C183.242 171.08 183.108 170.833 182.922 170.62C182.735 170.407 182.495 170.24 182.202 170.12C181.922 169.987 181.588 169.92 181.202 169.92C180.482 169.92 179.868 170.14 179.362 170.58C178.868 171.007 178.595 171.56 178.542 172.24L183.462 172.24ZM185.862 173.32C185.862 173.427 185.862 173.533 185.862 173.64C185.862 173.747 185.855 173.853 185.842 173.96L178.542 173.96C178.568 174.307 178.655 174.627 178.802 174.92C178.962 175.2 179.168 175.447 179.422 175.66C179.675 175.86 179.962 176.02 180.282 176.14C180.602 176.26 180.935 176.32 181.282 176.32C181.882 176.32 182.388 176.213 182.802 176C183.215 175.773 183.555 175.467 183.822 175.08L185.422 176.36C184.475 177.64 183.102 178.28 181.302 178.28C180.555 178.28 179.868 178.167 179.242 177.94C178.615 177.7 178.068 177.367 177.602 176.94C177.148 176.513 176.788 175.993 176.522 175.38C176.268 174.753 176.142 174.047 176.142 173.26C176.142 172.487 176.268 171.787 176.522 171.16C176.788 170.52 177.148 169.98 177.602 169.54C178.055 169.087 178.588 168.74 179.202 168.5C179.828 168.247 180.502 168.12 181.222 168.12C181.888 168.12 182.502 168.233 183.062 168.46C183.635 168.673 184.128 169 184.542 169.44C184.955 169.867 185.275 170.407 185.502 171.06C185.742 171.7 185.862 172.453 185.862 173.32ZM193.947 176.78L193.887 176.78C193.647 177.207 193.26 177.56 192.727 177.84C192.194 178.107 191.587 178.24 190.907 178.24C190.52 178.24 190.114 178.187 189.687 178.08C189.274 177.987 188.887 177.827 188.527 177.6C188.18 177.36 187.887 177.053 187.647 176.68C187.42 176.293 187.307 175.82 187.307 175.26C187.307 174.54 187.507 173.967 187.907 173.54C188.32 173.113 188.847 172.787 189.487 172.56C190.127 172.333 190.834 172.187 191.607 172.12C192.394 172.04 193.16 172 193.907 172L193.907 171.76C193.907 171.16 193.687 170.72 193.247 170.44C192.82 170.147 192.307 170 191.707 170C191.2 170 190.714 170.107 190.247 170.32C189.78 170.533 189.394 170.793 189.087 171.1L187.847 169.64C188.394 169.133 189.02 168.753 189.727 168.5C190.447 168.247 191.174 168.12 191.907 168.12C192.76 168.12 193.46 168.24 194.007 168.48C194.567 168.72 195.007 169.033 195.327 169.42C195.647 169.807 195.867 170.24 195.987 170.72C196.12 171.2 196.187 171.68 196.187 172.16L196.187 178L193.947 178L193.947 176.78ZM193.907 173.62L193.367 173.62C192.98 173.62 192.574 173.64 192.147 173.68C191.72 173.707 191.327 173.78 190.967 173.9C190.607 174.007 190.307 174.167 190.067 174.38C189.827 174.58 189.707 174.86 189.707 175.22C189.707 175.447 189.754 175.64 189.847 175.8C189.954 175.947 190.087 176.067 190.247 176.16C190.407 176.253 190.587 176.32 190.787 176.36C190.987 176.4 191.187 176.42 191.387 176.42C192.214 176.42 192.84 176.2 193.267 175.76C193.694 175.32 193.907 174.72 193.907 173.96L193.907 173.62ZM198.941 162.88L201.341 162.88L201.341 178L198.941 178L198.941 162.88ZM207.709 170.32L207.709 168.4L209.389 168.4L209.389 165.62L211.749 165.62L211.749 168.4L214.149 168.4L214.149 170.32L211.749 170.32L211.749 174.78C211.749 175.207 211.822 175.56 211.969 175.84C212.129 176.12 212.475 176.26 213.009 176.26C213.169 176.26 213.342 176.247 213.529 176.22C213.715 176.18 213.882 176.127 214.029 176.06L214.109 177.94C213.895 178.02 213.642 178.08 213.349 178.12C213.055 178.173 212.775 178.2 212.509 178.2C211.869 178.2 211.349 178.113 210.949 177.94C210.549 177.753 210.229 177.507 209.989 177.2C209.762 176.88 209.602 176.52 209.509 176.12C209.429 175.707 209.389 175.267 209.389 174.8L209.389 170.32L207.709 170.32ZM215.843 168.4L218.243 168.4L218.243 178L215.843 178L215.843 168.4ZM215.503 165.14C215.503 164.753 215.643 164.42 215.923 164.14C216.217 163.847 216.583 163.7 217.023 163.7C217.463 163.7 217.83 163.84 218.123 164.12C218.43 164.387 218.583 164.727 218.583 165.14C218.583 165.553 218.43 165.9 218.123 166.18C217.83 166.447 217.463 166.58 217.023 166.58C216.583 166.58 216.217 166.44 215.923 166.16C215.643 165.867 215.503 165.527 215.503 165.14ZM232.533 168.12C233.16 168.12 233.693 168.233 234.133 168.46C234.586 168.673 234.953 168.96 235.233 169.32C235.526 169.68 235.74 170.093 235.873 170.56C236.006 171.027 236.073 171.507 236.073 172L236.073 178L233.673 178L233.673 172.68C233.673 172.4 233.653 172.107 233.613 171.8C233.573 171.493 233.486 171.22 233.353 170.98C233.22 170.727 233.033 170.52 232.793 170.36C232.566 170.2 232.26 170.12 231.873 170.12C231.5 170.12 231.18 170.2 230.913 170.36C230.646 170.52 230.426 170.727 230.253 170.98C230.08 171.233 229.953 171.52 229.873 171.84C229.793 172.147 229.753 172.453 229.753 172.76L229.753 178L227.353 178L227.353 172.2C227.353 171.6 227.206 171.107 226.913 170.72C226.633 170.32 226.186 170.12 225.573 170.12C225.213 170.12 224.9 170.2 224.633 170.36C224.366 170.507 224.146 170.7 223.973 170.94C223.813 171.18 223.686 171.46 223.593 171.78C223.513 172.087 223.473 172.4 223.473 172.72L223.473 178L221.073 178L221.073 168.4L223.353 168.4L223.353 169.94L223.393 169.94C223.5 169.7 223.64 169.473 223.813 169.26C224 169.047 224.213 168.853 224.453 168.68C224.706 168.507 224.993 168.373 225.313 168.28C225.633 168.173 225.986 168.12 226.373 168.12C227.12 168.12 227.74 168.287 228.233 168.62C228.726 168.953 229.106 169.393 229.373 169.94C229.693 169.353 230.12 168.907 230.653 168.6C231.186 168.28 231.813 168.12 232.533 168.12ZM245.544 172.24C245.544 171.933 245.497 171.64 245.404 171.36C245.324 171.08 245.191 170.833 245.004 170.62C244.817 170.407 244.577 170.24 244.284 170.12C244.004 169.987 243.671 169.92 243.284 169.92C242.564 169.92 241.951 170.14 241.444 170.58C240.951 171.007 240.677 171.56 240.624 172.24L245.544 172.24ZM247.944 173.32C247.944 173.427 247.944 173.533 247.944 173.64C247.944 173.747 247.937 173.853 247.924 173.96L240.624 173.96C240.651 174.307 240.737 174.627 240.884 174.92C241.044 175.2 241.251 175.447 241.504 175.66C241.757 175.86 242.044 176.02 242.364 176.14C242.684 176.26 243.017 176.32 243.364 176.32C243.964 176.32 244.471 176.213 244.884 176C245.297 175.773 245.637 175.467 245.904 175.08L247.504 176.36C246.557 177.64 245.184 178.28 243.384 178.28C242.637 178.28 241.951 178.167 241.324 177.94C240.697 177.7 240.151 177.367 239.684 176.94C239.231 176.513 238.871 175.993 238.604 175.38C238.351 174.753 238.224 174.047 238.224 173.26C238.224 172.487 238.351 171.787 238.604 171.16C238.871 170.52 239.231 169.98 239.684 169.54C240.137 169.087 240.671 168.74 241.284 168.5C241.911 168.247 242.584 168.12 243.304 168.12C243.971 168.12 244.584 168.233 245.144 168.46C245.717 168.673 246.211 169 246.624 169.44C247.037 169.867 247.357 170.407 247.584 171.06C247.824 171.7 247.944 172.453 247.944 173.32ZM255.104 168.4L257.404 168.4L257.404 170L257.444 170C257.711 169.44 258.084 168.987 258.564 168.64C259.044 168.293 259.604 168.12 260.244 168.12C260.338 168.12 260.438 168.127 260.544 168.14C260.651 168.14 260.744 168.153 260.824 168.18L260.824 170.38C260.664 170.34 260.524 170.313 260.404 170.3C260.298 170.287 260.191 170.28 260.084 170.28C259.538 170.28 259.098 170.38 258.764 170.58C258.431 170.78 258.171 171.02 257.984 171.3C257.798 171.58 257.671 171.867 257.604 172.16C257.538 172.453 257.504 172.687 257.504 172.86L257.504 178L255.104 178L255.104 168.4ZM268.716 172.24C268.716 171.933 268.669 171.64 268.576 171.36C268.496 171.08 268.363 170.833 268.176 170.62C267.989 170.407 267.749 170.24 267.456 170.12C267.176 169.987 266.843 169.92 266.456 169.92C265.736 169.92 265.123 170.14 264.616 170.58C264.123 171.007 263.849 171.56 263.796 172.24L268.716 172.24ZM271.116 173.32C271.116 173.427 271.116 173.533 271.116 173.64C271.116 173.747 271.109 173.853 271.096 173.96L263.796 173.96C263.823 174.307 263.909 174.627 264.056 174.92C264.216 175.2 264.423 175.447 264.676 175.66C264.929 175.86 265.216 176.02 265.536 176.14C265.856 176.26 266.189 176.32 266.536 176.32C267.136 176.32 267.643 176.213 268.056 176C268.469 175.773 268.809 175.467 269.076 175.08L270.676 176.36C269.729 177.64 268.356 178.28 266.556 178.28C265.809 178.28 265.123 178.167 264.496 177.94C263.869 177.7 263.323 177.367 262.856 176.94C262.403 176.513 262.043 175.993 261.776 175.38C261.523 174.753 261.396 174.047 261.396 173.26C261.396 172.487 261.523 171.787 261.776 171.16C262.043 170.52 262.403 169.98 262.856 169.54C263.309 169.087 263.843 168.74 264.456 168.5C265.083 168.247 265.756 168.12 266.476 168.12C267.143 168.12 267.756 168.233 268.316 168.46C268.889 168.673 269.383 169 269.796 169.44C270.209 169.867 270.529 170.407 270.756 171.06C270.996 171.7 271.116 172.453 271.116 173.32ZM279.201 176.78L279.141 176.78C278.901 177.207 278.514 177.56 277.981 177.84C277.448 178.107 276.841 178.24 276.161 178.24C275.774 178.24 275.368 178.187 274.941 178.08C274.528 177.987 274.141 177.827 273.781 177.6C273.434 177.36 273.141 177.053 272.901 176.68C272.674 176.293 272.561 175.82 272.561 175.26C272.561 174.54 272.761 173.967 273.161 173.54C273.574 173.113 274.101 172.787 274.741 172.56C275.381 172.333 276.088 172.187 276.861 172.12C277.648 172.04 278.414 172 279.161 172L279.161 171.76C279.161 171.16 278.941 170.72 278.501 170.44C278.074 170.147 277.561 170 276.961 170C276.454 170 275.968 170.107 275.501 170.32C275.034 170.533 274.648 170.793 274.341 171.1L273.101 169.64C273.648 169.133 274.274 168.753 274.981 168.5C275.701 168.247 276.428 168.12 277.161 168.12C278.014 168.12 278.714 168.24 279.261 168.48C279.821 168.72 280.261 169.033 280.581 169.42C280.901 169.807 281.121 170.24 281.241 170.72C281.374 171.2 281.441 171.68 281.441 172.16L281.441 178L279.201 178L279.201 176.78ZM279.161 173.62L278.621 173.62C278.234 173.62 277.828 173.64 277.401 173.68C276.974 173.707 276.581 173.78 276.221 173.9C275.861 174.007 275.561 174.167 275.321 174.38C275.081 174.58 274.961 174.86 274.961 175.22C274.961 175.447 275.008 175.64 275.101 175.8C275.208 175.947 275.341 176.067 275.501 176.16C275.661 176.253 275.841 176.32 276.041 176.36C276.241 176.4 276.441 176.42 276.641 176.42C277.468 176.42 278.094 176.2 278.521 175.76C278.948 175.32 279.161 174.72 279.161 173.96L279.161 173.62ZM290.715 171.06C290.529 170.793 290.249 170.573 289.875 170.4C289.502 170.213 289.122 170.12 288.735 170.12C288.295 170.12 287.909 170.213 287.575 170.4C287.242 170.573 286.962 170.807 286.735 171.1C286.522 171.393 286.362 171.727 286.255 172.1C286.149 172.46 286.095 172.827 286.095 173.2C286.095 173.573 286.149 173.947 286.255 174.32C286.375 174.68 286.549 175.007 286.775 175.3C287.002 175.593 287.282 175.833 287.615 176.02C287.962 176.193 288.362 176.28 288.815 176.28C289.189 176.28 289.562 176.207 289.935 176.06C290.309 175.913 290.609 175.7 290.835 175.42L292.335 176.94C291.935 177.367 291.422 177.7 290.795 177.94C290.182 178.167 289.515 178.28 288.795 178.28C288.089 178.28 287.415 178.167 286.775 177.94C286.149 177.713 285.595 177.38 285.115 176.94C284.649 176.5 284.275 175.967 283.995 175.34C283.729 174.713 283.595 174 283.595 173.2C283.595 172.427 283.729 171.727 283.995 171.1C284.275 170.473 284.649 169.94 285.115 169.5C285.582 169.06 286.122 168.72 286.735 168.48C287.362 168.24 288.029 168.12 288.735 168.12C289.442 168.12 290.122 168.253 290.775 168.52C291.442 168.787 291.969 169.153 292.355 169.62L290.715 171.06ZM292.459 170.32L292.459 168.4L294.139 168.4L294.139 165.62L296.499 165.62L296.499 168.4L298.899 168.4L298.899 170.32L296.499 170.32L296.499 174.78C296.499 175.207 296.572 175.56 296.719 175.84C296.879 176.12 297.226 176.26 297.759 176.26C297.919 176.26 298.092 176.247 298.279 176.22C298.466 176.18 298.632 176.127 298.779 176.06L298.859 177.94C298.646 178.02 298.392 178.08 298.099 178.12C297.806 178.173 297.526 178.2 297.259 178.2C296.619 178.2 296.099 178.113 295.699 177.94C295.299 177.753 294.979 177.507 294.739 177.2C294.512 176.88 294.352 176.52 294.259 176.12C294.179 175.707 294.139 175.267 294.139 174.8L294.139 170.32L292.459 170.32ZM300.594 168.4L302.994 168.4L302.994 178L300.594 178L300.594 168.4ZM300.254 165.14C300.254 164.753 300.394 164.42 300.674 164.14C300.967 163.847 301.334 163.7 301.774 163.7C302.214 163.7 302.58 163.84 302.874 164.12C303.18 164.387 303.334 164.727 303.334 165.14C303.334 165.553 303.18 165.9 302.874 166.18C302.58 166.447 302.214 166.58 301.774 166.58C301.334 166.58 300.967 166.44 300.674 166.16C300.394 165.867 300.254 165.527 300.254 165.14ZM305.263 173.16C305.263 172.4 305.397 171.713 305.663 171.1C305.943 170.473 306.317 169.94 306.783 169.5C307.25 169.06 307.803 168.72 308.443 168.48C309.083 168.24 309.763 168.12 310.483 168.12C311.203 168.12 311.883 168.24 312.523 168.48C313.163 168.72 313.717 169.06 314.183 169.5C314.65 169.94 315.017 170.473 315.283 171.1C315.563 171.713 315.703 172.4 315.703 173.16C315.703 173.92 315.563 174.613 315.283 175.24C315.017 175.867 314.65 176.407 314.183 176.86C313.717 177.3 313.163 177.647 312.523 177.9C311.883 178.153 311.203 178.28 310.483 178.28C309.763 178.28 309.083 178.153 308.443 177.9C307.803 177.647 307.25 177.3 306.783 176.86C306.317 176.407 305.943 175.867 305.663 175.24C305.397 174.613 305.263 173.92 305.263 173.16ZM307.703 173.16C307.703 173.533 307.757 173.907 307.863 174.28C307.983 174.653 308.157 174.987 308.383 175.28C308.61 175.573 308.897 175.813 309.243 176C309.59 176.187 310.003 176.28 310.483 176.28C310.963 176.28 311.377 176.187 311.723 176C312.07 175.813 312.357 175.573 312.583 175.28C312.81 174.987 312.977 174.653 313.083 174.28C313.203 173.907 313.263 173.533 313.263 173.16C313.263 172.787 313.203 172.42 313.083 172.06C312.977 171.687 312.81 171.353 312.583 171.06C312.357 170.767 312.07 170.533 311.723 170.36C311.377 170.173 310.963 170.08 310.483 170.08C310.003 170.08 309.59 170.173 309.243 170.36C308.897 170.533 308.61 170.767 308.383 171.06C308.157 171.353 307.983 171.687 307.863 172.06C307.757 172.42 307.703 172.787 307.703 173.16ZM317.948 168.4L320.228 168.4L320.228 169.94L320.268 169.94C320.482 169.46 320.848 169.04 321.368 168.68C321.902 168.307 322.528 168.12 323.248 168.12C323.875 168.12 324.408 168.233 324.848 168.46C325.302 168.673 325.668 168.96 325.948 169.32C326.242 169.68 326.455 170.093 326.588 170.56C326.722 171.027 326.788 171.507 326.788 172L326.788 178L324.388 178L324.388 172.68C324.388 172.4 324.368 172.107 324.328 171.8C324.288 171.493 324.202 171.22 324.068 170.98C323.935 170.727 323.748 170.52 323.508 170.36C323.282 170.2 322.975 170.12 322.588 170.12C322.202 170.12 321.868 170.2 321.588 170.36C321.308 170.507 321.075 170.7 320.888 170.94C320.715 171.18 320.582 171.46 320.488 171.78C320.395 172.087 320.348 172.4 320.348 172.72L320.348 178L317.948 178L317.948 168.4ZM334.767 170.96C334.554 170.68 334.26 170.44 333.887 170.24C333.514 170.027 333.107 169.92 332.667 169.92C332.28 169.92 331.927 170 331.607 170.16C331.287 170.32 331.127 170.587 331.127 170.96C331.127 171.333 331.3 171.6 331.647 171.76C332.007 171.907 332.527 172.06 333.207 172.22C333.567 172.3 333.927 172.407 334.287 172.54C334.66 172.673 334.994 172.853 335.287 173.08C335.594 173.293 335.84 173.567 336.027 173.9C336.214 174.22 336.307 174.613 336.307 175.08C336.307 175.667 336.194 176.167 335.967 176.58C335.754 176.98 335.46 177.307 335.087 177.56C334.727 177.813 334.3 177.993 333.807 178.1C333.327 178.22 332.827 178.28 332.307 178.28C331.56 178.28 330.834 178.147 330.127 177.88C329.42 177.6 328.834 177.207 328.367 176.7L329.947 175.22C330.214 175.567 330.56 175.853 330.987 176.08C331.414 176.307 331.887 176.42 332.407 176.42C332.58 176.42 332.754 176.4 332.927 176.36C333.114 176.32 333.28 176.26 333.427 176.18C333.587 176.087 333.714 175.967 333.807 175.82C333.9 175.673 333.947 175.493 333.947 175.28C333.947 174.88 333.76 174.593 333.387 174.42C333.027 174.247 332.48 174.073 331.747 173.9C331.387 173.82 331.034 173.72 330.687 173.6C330.354 173.467 330.054 173.3 329.787 173.1C329.52 172.887 329.307 172.627 329.147 172.32C328.987 172.013 328.907 171.633 328.907 171.18C328.907 170.647 329.014 170.187 329.227 169.8C329.454 169.413 329.747 169.1 330.107 168.86C330.467 168.607 330.874 168.42 331.327 168.3C331.78 168.18 332.247 168.12 332.727 168.12C333.42 168.12 334.094 168.24 334.747 168.48C335.414 168.72 335.94 169.087 336.327 169.58L334.767 170.96Z" fill="#562F00"/>
<rect x="172" y="280" width="253" height="56" rx="8" fill="#FECE99"/>
<g clip-path="url(#clip4_762_9728)">
<path d="M195 303C195 304.061 195.421 305.078 196.172 305.828C196.922 306.579 197.939 307 199 307C200.061 307 201.078 306.579 201.828 305.828C202.579 305.078 203 304.061 203 303C203 301.939 202.579 300.922 201.828 300.172C201.078 299.421 200.061 299 199 299C197.939 299 196.922 299.421 196.172 300.172C195.421 300.922 195 301.939 195 303Z" stroke="#FE7500" stroke-width="2" stroke-linecap="round" stroke-linejoin="round"/>
<path d="M193 317V315C193 313.939 193.421 312.922 194.172 312.172C194.922 311.421 195.939 311 197 311H201C202.061 311 203.078 311.421 203.828 312.172C204.579 312.922 205 313.939 205 315V317" stroke="#FE7500" stroke-width="2" stroke-linecap="round" stroke-linejoin="round"/>
<path d="M206 299.13C206.86 299.35 207.623 299.851 208.168 300.552C208.712 301.254 209.008 302.117 209.008 303.005C209.008 303.893 208.712 304.756 208.168 305.458C207.623 306.159 206.86 306.66 206 306.88" stroke="#FE7500" stroke-width="2" stroke-linecap="round" stroke-linejoin="round"/>
<path d="M211 317V315C210.995 314.117 210.698 313.261 210.155 312.564C209.613 311.868 208.855 311.371 208 311.15" stroke="#FE7500" stroke-width="2" stroke-linecap="round" stroke-linejoin="round"/>
</g>
<path d="M223.56 299.84L228.18 299.84C228.993 299.84 229.727 299.913 230.38 300.06C231.033 300.207 231.593 300.447 232.06 300.78C232.527 301.113 232.887 301.54 233.14 302.06C233.393 302.58 233.52 303.207 233.52 303.94C233.52 304.727 233.373 305.387 233.08 305.92C232.787 306.453 232.387 306.887 231.88 307.22C231.387 307.54 230.807 307.773 230.14 307.92C229.473 308.067 228.767 308.14 228.02 308.14L226.08 308.14L226.08 314L223.56 314L223.56 299.84ZM227.84 306.02C228.253 306.02 228.647 305.993 229.02 305.94C229.393 305.873 229.727 305.767 230.02 305.62C230.313 305.46 230.547 305.247 230.72 304.98C230.893 304.713 230.98 304.367 230.98 303.94C230.98 303.527 230.893 303.193 230.72 302.94C230.547 302.673 230.313 302.467 230.02 302.32C229.74 302.173 229.413 302.08 229.04 302.04C228.68 301.987 228.307 301.96 227.92 301.96L226.08 301.96L226.08 306.02L227.84 306.02ZM241.016 308.24C241.016 307.933 240.97 307.64 240.876 307.36C240.796 307.08 240.663 306.833 240.476 306.62C240.29 306.407 240.05 306.24 239.756 306.12C239.476 305.987 239.143 305.92 238.756 305.92C238.036 305.92 237.423 306.14 236.916 306.58C236.423 307.007 236.15 307.56 236.096 308.24L241.016 308.24ZM243.416 309.32C243.416 309.427 243.416 309.533 243.416 309.64C243.416 309.747 243.41 309.853 243.396 309.96L236.096 309.96C236.123 310.307 236.21 310.627 236.356 310.92C236.516 311.2 236.723 311.447 236.976 311.66C237.23 311.86 237.516 312.02 237.836 312.14C238.156 312.26 238.49 312.32 238.836 312.32C239.436 312.32 239.943 312.213 240.356 312C240.77 311.773 241.11 311.467 241.376 311.08L242.976 312.36C242.03 313.64 240.656 314.28 238.856 314.28C238.11 314.28 237.423 314.167 236.796 313.94C236.17 313.7 235.623 313.367 235.156 312.94C234.703 312.513 234.343 311.993 234.076 311.38C233.823 310.753 233.696 310.047 233.696 309.26C233.696 308.487 233.823 307.787 234.076 307.16C234.343 306.52 234.703 305.98 235.156 305.54C235.61 305.087 236.143 304.74 236.756 304.5C237.383 304.247 238.056 304.12 238.776 304.12C239.443 304.12 240.056 304.233 240.616 304.46C241.19 304.673 241.683 305 242.096 305.44C242.51 305.867 242.83 306.407 243.056 307.06C243.296 307.7 243.416 308.453 243.416 309.32ZM252.419 308.24C252.419 307.933 252.372 307.64 252.279 307.36C252.199 307.08 252.065 306.833 251.879 306.62C251.692 306.407 251.452 306.24 251.159 306.12C250.879 305.987 250.545 305.92 250.159 305.92C249.439 305.92 248.825 306.14 248.319 306.58C247.825 307.007 247.552 307.56 247.499 308.24L252.419 308.24ZM254.819 309.32C254.819 309.427 254.819 309.533 254.819 309.64C254.819 309.747 254.812 309.853 254.799 309.96L247.499 309.96C247.525 310.307 247.612 310.627 247.759 310.92C247.919 311.2 248.125 311.447 248.379 311.66C248.632 311.86 248.919 312.02 249.239 312.14C249.559 312.26 249.892 312.32 250.239 312.32C250.839 312.32 251.345 312.213 251.759 312C252.172 311.773 252.512 311.467 252.779 311.08L254.379 312.36C253.432 313.64 252.059 314.28 250.259 314.28C249.512 314.28 248.825 314.167 248.199 313.94C247.572 313.7 247.025 313.367 246.559 312.94C246.105 312.513 245.745 311.993 245.479 311.38C245.225 310.753 245.099 310.047 245.099 309.26C245.099 308.487 245.225 307.787 245.479 307.16C245.745 306.52 246.105 305.98 246.559 305.54C247.012 305.087 247.545 304.74 248.159 304.5C248.785 304.247 249.459 304.12 250.179 304.12C250.845 304.12 251.459 304.233 252.019 304.46C252.592 304.673 253.085 305 253.499 305.44C253.912 305.867 254.232 306.407 254.459 307.06C254.699 307.7 254.819 308.453 254.819 309.32ZM257.061 304.4L259.361 304.4L259.361 306L259.401 306C259.668 305.44 260.041 304.987 260.521 304.64C261.001 304.293 261.561 304.12 262.201 304.12C262.295 304.12 262.395 304.127 262.501 304.14C262.608 304.14 262.701 304.153 262.781 304.18L262.781 306.38C262.621 306.34 262.481 306.313 262.361 306.3C262.255 306.287 262.148 306.28 262.041 306.28C261.495 306.28 261.055 306.38 260.721 306.58C260.388 306.78 260.128 307.02 259.941 307.3C259.755 307.58 259.628 307.867 259.561 308.16C259.495 308.453 259.461 308.687 259.461 308.86L259.461 314L257.061 314L257.061 304.4ZM278.942 314L276.662 314L276.662 312.56L276.622 312.56C276.289 313.12 275.822 313.547 275.222 313.84C274.636 314.133 274.002 314.28 273.322 314.28C272.589 314.28 271.929 314.147 271.342 313.88C270.769 313.6 270.276 313.233 269.862 312.78C269.462 312.313 269.149 311.773 268.922 311.16C268.709 310.533 268.602 309.867 268.602 309.16C268.602 308.453 268.716 307.793 268.942 307.18C269.169 306.567 269.489 306.033 269.902 305.58C270.316 305.127 270.809 304.773 271.382 304.52C271.956 304.253 272.582 304.12 273.262 304.12C273.702 304.12 274.096 304.173 274.442 304.28C274.789 304.373 275.089 304.493 275.342 304.64C275.609 304.787 275.836 304.947 276.022 305.12C276.209 305.293 276.362 305.46 276.482 305.62L276.542 305.62L276.542 298.88L278.942 298.88L278.942 314ZM271.042 309.16C271.042 309.533 271.096 309.907 271.202 310.28C271.322 310.653 271.496 310.987 271.722 311.28C271.949 311.573 272.236 311.813 272.582 312C272.929 312.187 273.336 312.28 273.802 312.28C274.242 312.28 274.636 312.193 274.982 312.02C275.329 311.833 275.622 311.593 275.862 311.3C276.116 311.007 276.302 310.68 276.422 310.32C276.556 309.947 276.622 309.573 276.622 309.2C276.622 308.827 276.556 308.453 276.422 308.08C276.302 307.707 276.116 307.373 275.862 307.08C275.622 306.787 275.329 306.547 274.982 306.36C274.636 306.173 274.242 306.08 273.802 306.08C273.336 306.08 272.929 306.173 272.582 306.36C272.236 306.533 271.949 306.767 271.722 307.06C271.496 307.353 271.322 307.687 271.202 308.06C271.096 308.42 271.042 308.787 271.042 309.16ZM281.776 304.4L284.076 304.4L284.076 306L284.116 306C284.383 305.44 284.756 304.987 285.236 304.64C285.716 304.293 286.276 304.12 286.916 304.12C287.009 304.12 287.109 304.127 287.216 304.14C287.323 304.14 287.416 304.153 287.496 304.18L287.496 306.38C287.336 306.34 287.196 306.313 287.076 306.3C286.969 306.287 286.863 306.28 286.756 306.28C286.209 306.28 285.769 306.38 285.436 306.58C285.103 306.78 284.843 307.02 284.656 307.3C284.469 307.58 284.343 307.867 284.276 308.16C284.209 308.453 284.176 308.687 284.176 308.86L284.176 314L281.776 314L281.776 304.4ZM289.019 304.4L291.419 304.4L291.419 314L289.019 314L289.019 304.4ZM288.679 301.14C288.679 300.753 288.819 300.42 289.099 300.14C289.393 299.847 289.759 299.7 290.199 299.7C290.639 299.7 291.006 299.84 291.299 300.12C291.606 300.387 291.759 300.727 291.759 301.14C291.759 301.553 291.606 301.9 291.299 302.18C291.006 302.447 290.639 302.58 290.199 302.58C289.759 302.58 289.393 302.44 289.099 302.16C288.819 301.867 288.679 301.527 288.679 301.14ZM292.809 304.4L295.429 304.4L297.949 311.4L297.989 311.4L300.529 304.4L303.069 304.4L299.249 314L296.689 314L292.809 304.4ZM311.181 308.24C311.181 307.933 311.134 307.64 311.041 307.36C310.961 307.08 310.827 306.833 310.641 306.62C310.454 306.407 310.214 306.24 309.921 306.12C309.641 305.987 309.307 305.92 308.921 305.92C308.201 305.92 307.587 306.14 307.081 306.58C306.587 307.007 306.314 307.56 306.261 308.24L311.181 308.24ZM313.581 309.32C313.581 309.427 313.581 309.533 313.581 309.64C313.581 309.747 313.574 309.853 313.561 309.96L306.261 309.96C306.287 310.307 306.374 310.627 306.521 310.92C306.681 311.2 306.887 311.447 307.141 311.66C307.394 311.86 307.681 312.02 308.001 312.14C308.321 312.26 308.654 312.32 309.001 312.32C309.601 312.32 310.107 312.213 310.521 312C310.934 311.773 311.274 311.467 311.541 311.08L313.141 312.36C312.194 313.64 310.821 314.28 309.021 314.28C308.274 314.28 307.587 314.167 306.961 313.94C306.334 313.7 305.787 313.367 305.321 312.94C304.867 312.513 304.507 311.993 304.241 311.38C303.987 310.753 303.861 310.047 303.861 309.26C303.861 308.487 303.987 307.787 304.241 307.16C304.507 306.52 304.867 305.98 305.321 305.54C305.774 305.087 306.307 304.74 306.921 304.5C307.547 304.247 308.221 304.12 308.941 304.12C309.607 304.12 310.221 304.233 310.781 304.46C311.354 304.673 311.847 305 312.261 305.44C312.674 305.867 312.994 306.407 313.221 307.06C313.461 307.7 313.581 308.453 313.581 309.32ZM315.823 304.4L318.103 304.4L318.103 305.94L318.143 305.94C318.356 305.46 318.723 305.04 319.243 304.68C319.776 304.307 320.403 304.12 321.123 304.12C321.75 304.12 322.283 304.233 322.723 304.46C323.176 304.673 323.543 304.96 323.823 305.32C324.116 305.68 324.33 306.093 324.463 306.56C324.596 307.027 324.663 307.507 324.663 308L324.663 314L322.263 314L322.263 308.68C322.263 308.4 322.243 308.107 322.203 307.8C322.163 307.493 322.076 307.22 321.943 306.98C321.81 306.727 321.623 306.52 321.383 306.36C321.156 306.2 320.85 306.12 320.463 306.12C320.076 306.12 319.743 306.2 319.463 306.36C319.183 306.507 318.95 306.7 318.763 306.94C318.59 307.18 318.456 307.46 318.363 307.78C318.27 308.087 318.223 308.4 318.223 308.72L318.223 314L315.823 314L315.823 304.4ZM332.34 298.88L334.74 298.88L334.74 314L332.34 314L332.34 298.88ZM344.329 308.24C344.329 307.933 344.283 307.64 344.189 307.36C344.109 307.08 343.976 306.833 343.789 306.62C343.603 306.407 343.363 306.24 343.069 306.12C342.789 305.987 342.456 305.92 342.069 305.92C341.349 305.92 340.736 306.14 340.229 306.58C339.736 307.007 339.463 307.56 339.409 308.24L344.329 308.24ZM346.729 309.32C346.729 309.427 346.729 309.533 346.729 309.64C346.729 309.747 346.723 309.853 346.709 309.96L339.409 309.96C339.436 310.307 339.523 310.627 339.669 310.92C339.829 311.2 340.036 311.447 340.289 311.66C340.543 311.86 340.829 312.02 341.149 312.14C341.469 312.26 341.803 312.32 342.149 312.32C342.749 312.32 343.256 312.213 343.669 312C344.083 311.773 344.423 311.467 344.689 311.08L346.289 312.36C345.343 313.64 343.969 314.28 342.169 314.28C341.423 314.28 340.736 314.167 340.109 313.94C339.483 313.7 338.936 313.367 338.469 312.94C338.016 312.513 337.656 311.993 337.389 311.38C337.136 310.753 337.009 310.047 337.009 309.26C337.009 308.487 337.136 307.787 337.389 307.16C337.656 306.52 338.016 305.98 338.469 305.54C338.923 305.087 339.456 304.74 340.069 304.5C340.696 304.247 341.369 304.12 342.089 304.12C342.756 304.12 343.369 304.233 343.929 304.46C344.503 304.673 344.996 305 345.409 305.44C345.823 305.867 346.143 306.407 346.369 307.06C346.609 307.7 346.729 308.453 346.729 309.32ZM354.814 312.78L354.754 312.78C354.514 313.207 354.128 313.56 353.594 313.84C353.061 314.107 352.454 314.24 351.774 314.24C351.388 314.24 350.981 314.187 350.554 314.08C350.141 313.987 349.754 313.827 349.394 313.6C349.048 313.36 348.754 313.053 348.514 312.68C348.288 312.293 348.174 311.82 348.174 311.26C348.174 310.54 348.374 309.967 348.774 309.54C349.188 309.113 349.714 308.787 350.354 308.56C350.994 308.333 351.701 308.187 352.474 308.12C353.261 308.04 354.028 308 354.774 308L354.774 307.76C354.774 307.16 354.554 306.72 354.114 306.44C353.688 306.147 353.174 306 352.574 306C352.068 306 351.581 306.107 351.114 306.32C350.648 306.533 350.261 306.793 349.954 307.1L348.714 305.64C349.261 305.133 349.888 304.753 350.594 304.5C351.314 304.247 352.041 304.12 352.774 304.12C353.628 304.12 354.328 304.24 354.874 304.48C355.434 304.72 355.874 305.033 356.194 305.42C356.514 305.807 356.734 306.24 356.854 306.72C356.988 307.2 357.054 307.68 357.054 308.16L357.054 314L354.814 314L354.814 312.78ZM354.774 309.62L354.234 309.62C353.848 309.62 353.441 309.64 353.014 309.68C352.588 309.707 352.194 309.78 351.834 309.9C351.474 310.007 351.174 310.167 350.934 310.38C350.694 310.58 350.574 310.86 350.574 311.22C350.574 311.447 350.621 311.64 350.714 311.8C350.821 311.947 350.954 312.067 351.114 312.16C351.274 312.253 351.454 312.32 351.654 312.36C351.854 312.4 352.054 312.42 352.254 312.42C353.081 312.42 353.708 312.2 354.134 311.76C354.561 311.32 354.774 310.72 354.774 309.96L354.774 309.62ZM359.769 304.4L362.069 304.4L362.069 306L362.109 306C362.375 305.44 362.749 304.987 363.229 304.64C363.709 304.293 364.269 304.12 364.909 304.12C365.002 304.12 365.102 304.127 365.209 304.14C365.315 304.14 365.409 304.153 365.489 304.18L365.489 306.38C365.329 306.34 365.189 306.313 365.069 306.3C364.962 306.287 364.855 306.28 364.749 306.28C364.202 306.28 363.762 306.38 363.429 306.58C363.095 306.78 362.835 307.02 362.649 307.3C362.462 307.58 362.335 307.867 362.269 308.16C362.202 308.453 362.169 308.687 362.169 308.86L362.169 314L359.769 314L359.769 304.4ZM366.972 304.4L369.252 304.4L369.252 305.94L369.292 305.94C369.505 305.46 369.872 305.04 370.392 304.68C370.925 304.307 371.552 304.12 372.272 304.12C372.898 304.12 373.432 304.233 373.872 304.46C374.325 304.673 374.692 304.96 374.972 305.32C375.265 305.68 375.478 306.093 375.612 306.56C375.745 307.027 375.812 307.507 375.812 308L375.812 314L373.412 314L373.412 308.68C373.412 308.4 373.392 308.107 373.352 307.8C373.312 307.493 373.225 307.22 373.092 306.98C372.958 306.727 372.772 306.52 372.532 306.36C372.305 306.2 371.998 306.12 371.612 306.12C371.225 306.12 370.892 306.2 370.612 306.36C370.332 306.507 370.098 306.7 369.912 306.94C369.738 307.18 369.605 307.46 369.512 307.78C369.418 308.087 369.372 308.4 369.372 308.72L369.372 314L366.972 314L366.972 304.4ZM378.57 304.4L380.97 304.4L380.97 314L378.57 314L378.57 304.4ZM378.23 301.14C378.23 300.753 378.37 300.42 378.65 300.14C378.944 299.847 379.31 299.7 379.75 299.7C380.19 299.7 380.557 299.84 380.85 300.12C381.157 300.387 381.31 300.727 381.31 301.14C381.31 301.553 381.157 301.9 380.85 302.18C380.557 302.447 380.19 302.58 379.75 302.58C379.31 302.58 378.944 302.44 378.65 302.16C378.37 301.867 378.23 301.527 378.23 301.14ZM383.8 304.4L386.08 304.4L386.08 305.94L386.12 305.94C386.333 305.46 386.7 305.04 387.22 304.68C387.753 304.307 388.38 304.12 389.1 304.12C389.727 304.12 390.26 304.233 390.7 304.46C391.153 304.673 391.52 304.96 391.8 305.32C392.093 305.68 392.307 306.093 392.44 306.56C392.573 307.027 392.64 307.507 392.64 308L392.64 314L390.24 314L390.24 308.68C390.24 308.4 390.22 308.107 390.18 307.8C390.14 307.493 390.053 307.22 389.92 306.98C389.787 306.727 389.6 306.52 389.36 306.36C389.133 306.2 388.827 306.12 388.44 306.12C388.053 306.12 387.72 306.2 387.44 306.36C387.16 306.507 386.927 306.7 386.74 306.94C386.567 307.18 386.433 307.46 386.34 307.78C386.247 308.087 386.2 308.4 386.2 308.72L386.2 314L383.8 314L383.8 304.4ZM405.119 304.4L405.119 313.14C405.119 314.007 405.012 314.787 404.799 315.48C404.585 316.187 404.252 316.78 403.799 317.26C403.359 317.753 402.799 318.133 402.119 318.4C401.439 318.667 400.632 318.8 399.699 318.8C399.312 318.8 398.899 318.767 398.459 318.7C398.032 318.633 397.605 318.533 397.179 318.4C396.765 318.267 396.365 318.1 395.979 317.9C395.592 317.7 395.245 317.473 394.939 317.22L396.319 315.36C396.785 315.8 397.312 316.133 397.899 316.36C398.485 316.6 399.079 316.72 399.679 316.72C400.252 316.72 400.732 316.633 401.119 316.46C401.519 316.3 401.832 316.073 402.059 315.78C402.299 315.487 402.465 315.14 402.559 314.74C402.665 314.34 402.719 313.9 402.719 313.42L402.719 312.72L402.679 312.72C402.332 313.187 401.885 313.547 401.339 313.8C400.805 314.04 400.205 314.16 399.539 314.16C398.819 314.16 398.165 314.027 397.579 313.76C396.992 313.493 396.492 313.133 396.079 312.68C395.679 312.227 395.365 311.7 395.139 311.1C394.912 310.487 394.799 309.84 394.799 309.16C394.799 308.467 394.905 307.813 395.119 307.2C395.345 306.587 395.659 306.053 396.059 305.6C396.472 305.147 396.965 304.787 397.539 304.52C398.125 304.253 398.779 304.12 399.499 304.12C400.179 304.12 400.812 304.26 401.399 304.54C401.985 304.82 402.452 305.253 402.799 305.84L402.839 305.84L402.839 304.4L405.119 304.4ZM399.999 306.08C399.559 306.08 399.165 306.16 398.819 306.32C398.485 306.48 398.199 306.7 397.959 306.98C397.732 307.247 397.552 307.567 397.419 307.94C397.299 308.313 397.239 308.713 397.239 309.14C397.239 309.527 397.299 309.9 397.419 310.26C397.552 310.62 397.732 310.947 397.959 311.24C398.199 311.52 398.485 311.747 398.819 311.92C399.165 312.093 399.552 312.18 399.979 312.18C400.419 312.18 400.812 312.1 401.159 311.94C401.519 311.767 401.819 311.54 402.059 311.26C402.312 310.98 402.505 310.66 402.639 310.3C402.772 309.927 402.839 309.54 402.839 309.14C402.839 308.727 402.772 308.333 402.639 307.96C402.505 307.587 402.312 307.26 402.059 306.98C401.819 306.7 401.525 306.48 401.179 306.32C400.832 306.16 400.439 306.08 399.999 306.08Z" fill="#562F00"/>
<circle cx="605" cy="40" r="20" fill="#F2E9DC"/>
<g filter="url(#filter0_d_762_9728)">
<circle cx="613" cy="28" r="60" fill="#FCFBF9"/>
<circle cx="613" cy="28" r="58" stroke="#F2E9DC" stroke-width="4"/>
</g>
<circle cx="613" cy="28" r="38" fill="#F2E9DC" stroke="#F2E9DC" stroke-width="4"/>
</g>
<defs>
<filter id="filter0_d_762_9728" x="549" y="-35" width="128" height="128" filterUnits="userSpaceOnUse" color-interpolation-filters="sRGB">
<feFlood flood-opacity="0" result="BackgroundImageFix"/>
<feColorMatrix in="SourceAlpha" type="matrix" values="0 0 0 0 0 0 0 0 0 0 0 0 0 0 0 0 0 0 127 0" result="hardAlpha"/>
<feOffset dy="1"/>
<feGaussianBlur stdDeviation="2"/>
<feComposite in2="hardAlpha" operator="out"/>
<feColorMatrix type="matrix" values="0 0 0 0 0.0470588 0 0 0 0 0.0470588 0 0 0 0 0.0509804 0 0 0 0.05 0"/>
<feBlend mode="normal" in2="BackgroundImageFix" result="effect1_dropShadow_762_9728"/>
<feBlend mode="normal" in="SourceGraphic" in2="effect1_dropShadow_762_9728" result="shape"/>
</filter>
<clipPath id="clip0_762_9728">
<rect width="641" height="470" fill="white"/>
</clipPath>
<clipPath id="clip1_762_9728">
<rect width="24" height="24" fill="white" transform="translate(302 422)"/>
</clipPath>
<clipPath id="clip2_762_9728">
<rect width="24" height="24" fill="white" transform="translate(35 24)"/>
</clipPath>
<clipPath id="clip3_762_9728">
<rect width="24" height="24" fill="white" transform="translate(131 160)"/>
</clipPath>
<clipPath id="clip4_762_9728">
<rect width="24" height="24" fill="white" transform="translate(190 296)"/>
</clipPath>
</defs>
</svg>
