<svg width="56" height="56" viewBox="0 0 56 56" fill="none" xmlns="http://www.w3.org/2000/svg">
<rect x="0.5" y="0.5" width="55" height="55" rx="23.5" fill="#FEFDF0"/>
<rect x="0.5" y="0.5" width="55" height="55" rx="23.5" stroke="#F2E9DD"/>
<path d="M38.5002 26.9996C39.8808 26.9996 41 25.8804 41 24.4998C41 23.1192 39.8807 22 38.5001 22C37.1194 22 36 23.1193 36 24.5V26.9996H38.5002ZM31.5 26.9996C32.8807 26.9996 34 25.8803 34 24.4996V17.5C34 16.1193 32.8807 15 31.5 15C30.1193 15 29 16.1193 29 17.5V24.4996C29 25.8803 30.1193 26.9996 31.5 26.9996Z" fill="#2EB67D"/>
<path d="M17.4998 29.0004C16.1192 29.0004 15 30.1196 15 31.5002C15 32.8808 16.1193 34 17.4999 34C18.8806 34 20 32.8807 20 31.5V29.0004H17.4998ZM24.5 29.0004C23.1193 29.0004 22 30.1197 22 31.5004V38.5C22 39.8807 23.1193 41 24.5 41C25.8807 41 27 39.8807 27 38.5V31.5004C27 30.1197 25.8807 29.0004 24.5 29.0004Z" fill="#E01E5A"/>
<path d="M29.0004 38.5002C29.0004 39.8808 30.1196 41 31.5002 41C32.8808 41 34 39.8807 34 38.5001C34 37.1194 32.8807 36 31.5 36L29.0004 36L29.0004 38.5002ZM29.0004 31.5C29.0004 32.8807 30.1197 34 31.5004 34L38.5 34C39.8807 34 41 32.8807 41 31.5C41 30.1193 39.8807 29 38.5 29L31.5004 29C30.1197 29 29.0004 30.1193 29.0004 31.5Z" fill="#ECB22E"/>
<path d="M26.9996 17.4998C26.9996 16.1192 25.8804 15 24.4998 15C23.1192 15 22 16.1193 22 17.4999C22 18.8806 23.1193 20 24.5 20L26.9996 20L26.9996 17.4998ZM26.9996 24.5C26.9996 23.1193 25.8803 22 24.4996 22L17.5 22C16.1193 22 15 23.1193 15 24.5C15 25.8807 16.1193 27 17.5 27L24.4996 27C25.8803 27 26.9996 25.8807 26.9996 24.5Z" fill="#36C5F0"/>
</svg>
