<svg width="56" height="56" viewBox="0 0 56 56" fill="none" xmlns="http://www.w3.org/2000/svg">
<rect x="0.5" y="0.5" width="55" height="55" rx="23.5" fill="#FEFDF0"/>
<rect x="0.5" y="0.5" width="55" height="55" rx="23.5" stroke="#F2E9DD"/>
<circle cx="28" cy="28" r="14" fill="url(#paint0_linear_305_2182)"/>
<path d="M34.9866 22.2088C35.1112 21.4033 34.3454 20.7676 33.6292 21.082L19.3648 27.3448C18.8512 27.5703 18.8888 28.3483 19.4215 28.5179L22.3631 29.4547C22.9246 29.6335 23.5325 29.541 24.0228 29.2023L30.655 24.6203C30.855 24.4821 31.073 24.7665 30.9021 24.9426L26.1281 29.8646C25.665 30.3421 25.7569 31.1512 26.314 31.5005L31.659 34.8523C32.2585 35.2282 33.0297 34.8506 33.1418 34.1261L34.9866 22.2088Z" fill="white"/>
<defs>
<linearGradient id="paint0_linear_305_2182" x1="28" y1="14" x2="28" y2="42" gradientUnits="userSpaceOnUse">
<stop stop-color="#37BBFE"/>
<stop offset="1" stop-color="#007DBB"/>
</linearGradient>
</defs>
</svg>
