<svg width="361" height="193" viewBox="0 0 361 193" fill="none" xmlns="http://www.w3.org/2000/svg">
<rect x="0.5" y="0.5" width="360" height="192" rx="11.5" fill="white"/>
<rect x="0.5" y="0.5" width="360" height="192" rx="11.5" stroke="#8A7B6A"/>
<rect x="12" y="12" width="148" height="169" rx="4" fill="#F2E9DC"/>
<g filter="url(#filter0_dd_285_1455)">
<g filter="url(#filter1_dd_285_1455)">
<path d="M81.1027 111V91.8447C81.1027 91.2924 81.5504 90.8447 82.1027 90.8447H90.9823C91.5342 90.8447 91.9818 91.2918 91.9823 91.8437L92 111H97.5961V88.2136C97.5961 87.6613 98.0438 87.2136 98.5961 87.2136H107.826C108.378 87.2136 108.826 87.6613 108.826 88.2136V111H114.441V82.932C114.441 82.3798 114.888 81.932 115.441 81.932H124.325C124.875 81.932 125.322 82.376 125.325 82.9258L125.5 111H114.441H108.826H97.5961H92H81.1027Z" fill="white"/>
<path d="M124.325 79.9316C125.975 79.9316 127.315 81.2637 127.325 82.9131L127.5 110.987L127.513 113H79.1025V91.8447C79.1025 90.1879 80.4458 88.8448 82.1025 88.8447H90.9824C92.5864 88.8448 93.8968 90.1036 93.9785 91.6875L93.9824 91.8418L93.998 109H95.5957V88.2139C95.5957 86.5572 96.9391 85.2141 98.5957 85.2139H107.826C109.483 85.2141 110.826 86.5572 110.826 88.2139V109H112.44V82.9316C112.441 81.275 113.784 79.9317 115.44 79.9316H124.325Z" stroke="white" stroke-width="4" stroke-linecap="round"/>
</g>
<path d="M94.9004 47C100.202 47.0002 104.5 51.298 104.5 56.5996V136.4C104.5 141.702 100.202 146 94.9004 146H53.0996C47.798 146 43.5002 141.702 43.5 136.4V56.5996C43.5002 51.298 47.798 47.0002 53.0996 47H94.9004Z" fill="white" stroke="white" stroke-width="4" stroke-linecap="round"/>
<path d="M45.5 56.6C45.5 52.4026 48.9026 49 53.1 49H94.9C99.0974 49 102.5 52.4026 102.5 56.6V136.4C102.5 140.597 99.0974 144 94.9 144H53.1C48.9026 144 45.5 140.597 45.5 136.4V56.6Z" fill="#FFCE99"/>
<path d="M66.4 130.7H81.6M53.1 144H94.9C99.0974 144 102.5 140.597 102.5 136.4V56.6C102.5 52.4026 99.0974 49 94.9 49H53.1C48.9026 49 45.5 52.4026 45.5 56.6V136.4C45.5 140.597 48.9026 144 53.1 144Z" stroke="#FE7500" stroke-width="3" stroke-linecap="round"/>
<path d="M82.7914 111V93.8447C82.7914 93.2924 83.2391 92.8447 83.7914 92.8447H92.0657C92.618 92.8447 93.0657 93.2924 93.0657 93.8447V111H98.3686V90.2136C98.3686 89.6613 98.8163 89.2136 99.3686 89.2136H107.974C108.527 89.2136 108.974 89.6613 108.974 90.2136V111H114.277V84.932C114.277 84.3798 114.725 83.932 115.277 83.932H123.551C124.104 83.932 124.551 84.3798 124.551 84.932V111H114.277H108.974H98.3686H93.0657H82.7914Z" fill="#FECE99"/>
<path d="M77.5 77V110C77.5 110.552 77.9477 111 78.5 111H82.7914M128.5 111H124.551M82.7914 111V93.8447C82.7914 93.2924 83.2391 92.8447 83.7914 92.8447H92.0657C92.618 92.8447 93.0657 93.2924 93.0657 93.8447V111M82.7914 111H93.0657M93.0657 111H98.3686M98.3686 111V90.2136C98.3686 89.6613 98.8163 89.2136 99.3686 89.2136H107.974C108.527 89.2136 108.974 89.6613 108.974 90.2136V111M98.3686 111H108.974M108.974 111H114.277M114.277 111V84.932C114.277 84.3798 114.725 83.932 115.277 83.932H123.551C124.104 83.932 124.551 84.3798 124.551 84.932V111M114.277 111H124.551" stroke="#FE7500" stroke-width="3" stroke-linecap="round"/>
</g>
<path d="M344.77 27.084C344.368 27.084 344.004 27.056 343.678 27C343.351 26.9533 343.071 26.888 342.838 26.804C342.604 26.72 342.422 26.6313 342.292 26.538C342.17 26.4353 342.11 26.342 342.11 26.258C342.11 26.1647 342.133 26.0667 342.18 25.964C342.226 25.8613 342.282 25.7727 342.348 25.698C342.413 25.6233 342.469 25.586 342.516 25.586C342.6 25.586 342.73 25.628 342.908 25.712C343.094 25.7867 343.332 25.866 343.622 25.95C343.911 26.034 344.256 26.076 344.658 26.076C345.124 26.076 345.512 26.006 345.82 25.866C346.137 25.7167 346.375 25.4973 346.534 25.208C346.692 24.9187 346.772 24.564 346.772 24.144C346.772 23.4253 346.576 22.94 346.184 22.688C345.792 22.4267 345.278 22.296 344.644 22.296H344.042C343.855 22.296 343.762 22.156 343.762 21.876V21.722C343.762 21.5727 343.785 21.4653 343.832 21.4C343.878 21.3347 343.948 21.302 344.042 21.302H344.588C344.877 21.302 345.134 21.26 345.358 21.176C345.591 21.092 345.787 20.9707 345.946 20.812C346.114 20.6533 346.24 20.462 346.324 20.238C346.408 20.0047 346.45 19.748 346.45 19.468C346.45 19.2907 346.403 19.0993 346.31 18.894C346.226 18.6793 346.062 18.4973 345.82 18.348C345.586 18.1987 345.241 18.124 344.784 18.124C344.364 18.124 344.018 18.1613 343.748 18.236C343.477 18.3107 343.267 18.39 343.118 18.474C342.968 18.5487 342.852 18.586 342.768 18.586C342.721 18.586 342.665 18.5533 342.6 18.488C342.534 18.4133 342.478 18.3293 342.432 18.236C342.394 18.1427 342.376 18.0633 342.376 17.998C342.376 17.914 342.455 17.8207 342.614 17.718C342.772 17.6153 342.973 17.5173 343.216 17.424C343.468 17.3307 343.734 17.256 344.014 17.2C344.294 17.144 344.56 17.116 344.812 17.116C345.642 17.116 346.314 17.312 346.828 17.704C347.35 18.096 347.612 18.6933 347.612 19.496C347.612 19.8507 347.542 20.168 347.402 20.448C347.271 20.7187 347.098 20.952 346.884 21.148C346.669 21.3347 346.44 21.484 346.198 21.596V21.652C346.478 21.7267 346.753 21.8713 347.024 22.086C347.294 22.3007 347.518 22.5807 347.696 22.926C347.873 23.2713 347.962 23.682 347.962 24.158C347.962 24.7647 347.831 25.2873 347.57 25.726C347.318 26.1647 346.954 26.5007 346.478 26.734C346.002 26.9673 345.432 27.084 344.77 27.084Z" fill="#8A7B6A"/>
<path d="M276.554 131.068C275.942 131.068 275.489 130.989 275.194 130.83C274.922 130.649 274.786 130.399 274.786 130.082V111.008H268.972C268.383 111.008 268.088 110.521 268.088 109.546V108.662C268.088 107.687 268.383 107.2 268.972 107.2H285.02C285.632 107.2 285.938 107.687 285.938 108.662V109.546C285.938 110.521 285.632 111.008 285.02 111.008H279.274V130.082C279.274 130.399 279.138 130.649 278.866 130.83C278.594 130.989 278.141 131.068 277.506 131.068H276.554ZM288.462 131.068C287.827 131.068 287.362 130.989 287.068 130.83C286.796 130.649 286.66 130.399 286.66 130.082V118.862C286.66 117.887 286.626 117.105 286.558 116.516C286.512 115.904 286.456 115.428 286.388 115.088C286.342 114.748 286.32 114.476 286.32 114.272C286.32 114.068 286.444 113.898 286.694 113.762C286.966 113.626 287.283 113.524 287.646 113.456C288.031 113.388 288.394 113.343 288.734 113.32C289.096 113.275 289.368 113.252 289.55 113.252C289.799 113.252 289.992 113.32 290.128 113.456C290.264 113.592 290.377 113.841 290.468 114.204C290.581 114.567 290.694 115.099 290.808 115.802C291.057 115.213 291.386 114.714 291.794 114.306C292.202 113.875 292.655 113.547 293.154 113.32C293.652 113.093 294.162 112.98 294.684 112.98C295.25 112.98 295.624 113.093 295.806 113.32C296.01 113.547 296.112 113.887 296.112 114.34C296.112 114.544 296.089 114.816 296.044 115.156C296.021 115.496 295.964 115.847 295.874 116.21C295.783 116.55 295.67 116.845 295.534 117.094C295.42 117.343 295.262 117.468 295.058 117.468C294.876 117.468 294.672 117.411 294.446 117.298C294.219 117.185 293.89 117.128 293.46 117.128C292.916 117.128 292.417 117.264 291.964 117.536C291.533 117.808 291.204 118.182 290.978 118.658V130.082C290.978 130.399 290.83 130.649 290.536 130.83C290.264 130.989 289.799 131.068 289.142 131.068H288.462ZM302.789 131.238C301.021 131.238 299.695 130.785 298.811 129.878C297.927 128.949 297.485 127.736 297.485 126.24C297.485 125.379 297.621 124.574 297.893 123.826C298.187 123.055 298.697 122.387 299.423 121.82C300.148 121.231 301.179 120.777 302.517 120.46C303.877 120.12 305.622 119.95 307.753 119.95V118.726C307.753 118.25 307.651 117.842 307.447 117.502C307.265 117.162 306.948 116.901 306.495 116.72C306.064 116.516 305.486 116.414 304.761 116.414C303.877 116.414 303.083 116.516 302.381 116.72C301.701 116.901 301.123 117.094 300.647 117.298C300.193 117.479 299.865 117.57 299.661 117.57C299.525 117.57 299.389 117.479 299.253 117.298C299.117 117.117 298.992 116.901 298.879 116.652C298.765 116.38 298.675 116.119 298.607 115.87C298.539 115.598 298.505 115.383 298.505 115.224C298.505 114.952 298.697 114.691 299.083 114.442C299.468 114.17 299.978 113.921 300.613 113.694C301.247 113.467 301.95 113.297 302.721 113.184C303.514 113.048 304.296 112.98 305.067 112.98C306.291 112.98 307.345 113.116 308.229 113.388C309.113 113.637 309.838 114.011 310.405 114.51C310.971 115.009 311.391 115.598 311.663 116.278C311.935 116.958 312.071 117.706 312.071 118.522V125.322C312.071 126.41 312.093 127.26 312.139 127.872C312.207 128.484 312.275 128.949 312.343 129.266C312.411 129.583 312.445 129.844 312.445 130.048C312.445 130.229 312.32 130.388 312.071 130.524C311.821 130.637 311.515 130.739 311.153 130.83C310.813 130.898 310.461 130.955 310.099 131C309.759 131.023 309.487 131.034 309.283 131.034C308.965 131.034 308.727 130.921 308.569 130.694C308.433 130.467 308.319 130.173 308.229 129.81C308.161 129.447 308.093 129.073 308.025 128.688C307.821 128.937 307.492 129.266 307.039 129.674C306.608 130.082 306.03 130.445 305.305 130.762C304.602 131.079 303.763 131.238 302.789 131.238ZM303.945 127.804C304.511 127.804 305.033 127.702 305.509 127.498C305.985 127.294 306.415 127.022 306.801 126.682C307.186 126.342 307.503 125.968 307.753 125.56V122.976C306.642 122.976 305.713 123.033 304.965 123.146C304.217 123.259 303.605 123.429 303.129 123.656C302.675 123.883 302.347 124.189 302.143 124.574C301.939 124.937 301.837 125.356 301.837 125.832C301.837 126.444 302.007 126.931 302.347 127.294C302.709 127.634 303.242 127.804 303.945 127.804ZM324.502 131.238C321.646 131.238 319.549 130.513 318.212 129.062C316.897 127.611 316.24 125.333 316.24 122.228C316.24 119.213 316.931 116.924 318.314 115.36C319.696 113.773 321.838 112.98 324.74 112.98C325.374 112.98 326.009 113.037 326.644 113.15C327.278 113.263 327.856 113.433 328.378 113.66C328.922 113.864 329.352 114.091 329.67 114.34C330.01 114.589 330.18 114.85 330.18 115.122C330.18 115.303 330.112 115.587 329.976 115.972C329.84 116.335 329.67 116.663 329.466 116.958C329.284 117.253 329.092 117.4 328.888 117.4C328.684 117.4 328.4 117.321 328.038 117.162C327.675 116.981 327.21 116.811 326.644 116.652C326.1 116.493 325.431 116.414 324.638 116.414C323.255 116.414 322.235 116.879 321.578 117.808C320.943 118.715 320.626 120.143 320.626 122.092C320.626 124.087 320.943 125.537 321.578 126.444C322.235 127.351 323.278 127.804 324.706 127.804C325.499 127.804 326.19 127.713 326.78 127.532C327.392 127.328 327.902 127.124 328.31 126.92C328.718 126.716 329.012 126.614 329.194 126.614C329.398 126.614 329.579 126.761 329.738 127.056C329.919 127.351 330.066 127.679 330.18 128.042C330.293 128.405 330.35 128.688 330.35 128.892C330.35 129.187 330.157 129.47 329.772 129.742C329.409 130.014 328.933 130.263 328.344 130.49C327.754 130.717 327.12 130.898 326.44 131.034C325.76 131.17 325.114 131.238 324.502 131.238ZM335.418 131.068C334.783 131.068 334.318 130.989 334.024 130.83C333.752 130.649 333.616 130.399 333.616 130.082V106.384C333.616 106.067 333.752 105.829 334.024 105.67C334.318 105.489 334.783 105.398 335.418 105.398H336.166C336.8 105.398 337.254 105.489 337.526 105.67C337.82 105.829 337.968 106.067 337.968 106.384V120.358H338.138L342.966 113.83C343.079 113.626 343.215 113.479 343.374 113.388C343.532 113.297 343.736 113.241 343.986 113.218C344.258 113.173 344.62 113.15 345.074 113.15H345.958C346.479 113.15 346.876 113.184 347.148 113.252C347.42 113.297 347.556 113.433 347.556 113.66C347.556 113.773 347.51 113.909 347.42 114.068C347.352 114.227 347.238 114.408 347.08 114.612L341.402 122.024V120.494L347.828 129.776C347.941 129.935 348.032 130.082 348.1 130.218C348.168 130.331 348.202 130.433 348.202 130.524C348.202 130.751 348.043 130.898 347.726 130.966C347.431 131.034 347 131.068 346.434 131.068H345.618C344.915 131.068 344.394 131 344.054 130.864C343.714 130.728 343.419 130.467 343.17 130.082L338.138 122.67H337.968V130.082C337.968 130.399 337.82 130.649 337.526 130.83C337.254 130.989 336.8 131.068 336.166 131.068H335.418Z" fill="#562F00"/>
<path d="M211.198 156V147.656H208.454V146.2H215.538V147.656H212.71V156H211.198ZM216.171 156V148.65H217.627V150.96L217.487 150.4C217.59 150.045 217.762 149.723 218.005 149.434C218.257 149.145 218.542 148.916 218.859 148.748C219.186 148.58 219.522 148.496 219.867 148.496C220.026 148.496 220.175 148.51 220.315 148.538C220.464 148.566 220.581 148.599 220.665 148.636L220.287 150.204C220.175 150.157 220.049 150.12 219.909 150.092C219.778 150.055 219.648 150.036 219.517 150.036C219.265 150.036 219.022 150.087 218.789 150.19C218.565 150.283 218.364 150.419 218.187 150.596C218.019 150.764 217.884 150.965 217.781 151.198C217.678 151.422 217.627 151.669 217.627 151.94V156H216.171ZM224.297 156.14C223.691 156.14 223.135 155.972 222.631 155.636C222.137 155.3 221.74 154.843 221.441 154.264C221.143 153.685 220.993 153.032 220.993 152.304C220.993 151.567 221.143 150.913 221.441 150.344C221.749 149.765 222.16 149.313 222.673 148.986C223.196 148.659 223.779 148.496 224.423 148.496C224.806 148.496 225.156 148.552 225.473 148.664C225.791 148.776 226.066 148.935 226.299 149.14C226.542 149.336 226.738 149.565 226.887 149.826C227.046 150.087 227.144 150.367 227.181 150.666L226.859 150.554V148.65H228.315V156H226.859V154.25L227.195 154.152C227.139 154.404 227.023 154.651 226.845 154.894C226.677 155.127 226.458 155.337 226.187 155.524C225.926 155.711 225.632 155.86 225.305 155.972C224.988 156.084 224.652 156.14 224.297 156.14ZM224.675 154.81C225.114 154.81 225.501 154.703 225.837 154.488C226.173 154.273 226.435 153.979 226.621 153.606C226.817 153.223 226.915 152.789 226.915 152.304C226.915 151.828 226.817 151.403 226.621 151.03C226.435 150.657 226.173 150.363 225.837 150.148C225.501 149.933 225.114 149.826 224.675 149.826C224.246 149.826 223.863 149.933 223.527 150.148C223.201 150.363 222.939 150.657 222.743 151.03C222.557 151.403 222.463 151.828 222.463 152.304C222.463 152.789 222.557 153.223 222.743 153.606C222.939 153.979 223.201 154.273 223.527 154.488C223.863 154.703 224.246 154.81 224.675 154.81ZM233.417 156.14C232.736 156.14 232.125 155.972 231.583 155.636C231.051 155.3 230.627 154.843 230.309 154.264C230.001 153.685 229.847 153.037 229.847 152.318C229.847 151.599 230.001 150.951 230.309 150.372C230.627 149.793 231.051 149.336 231.583 149C232.125 148.664 232.736 148.496 233.417 148.496C234.071 148.496 234.663 148.631 235.195 148.902C235.737 149.163 236.147 149.523 236.427 149.98L235.629 150.96C235.48 150.745 235.289 150.549 235.055 150.372C234.822 150.195 234.575 150.055 234.313 149.952C234.052 149.849 233.8 149.798 233.557 149.798C233.109 149.798 232.708 149.91 232.353 150.134C232.008 150.349 231.733 150.647 231.527 151.03C231.322 151.413 231.219 151.842 231.219 152.318C231.219 152.794 231.327 153.223 231.541 153.606C231.756 153.979 232.041 154.278 232.395 154.502C232.75 154.726 233.142 154.838 233.571 154.838C233.823 154.838 234.066 154.796 234.299 154.712C234.542 154.628 234.775 154.502 234.999 154.334C235.223 154.166 235.433 153.961 235.629 153.718L236.427 154.698C236.129 155.118 235.699 155.463 235.139 155.734C234.589 156.005 234.015 156.14 233.417 156.14ZM239.07 153.704L239 152.136L242.514 148.65H244.46L239.07 153.704ZM237.754 156V145.64H239.196V156H237.754ZM242.71 156L239.938 152.766L240.96 151.828L244.558 156H242.71ZM252.997 156.14C252.241 156.14 251.569 155.981 250.981 155.664C250.403 155.337 249.945 154.894 249.609 154.334C249.283 153.774 249.119 153.13 249.119 152.402C249.119 151.823 249.213 151.296 249.399 150.82C249.586 150.344 249.843 149.933 250.169 149.588C250.505 149.233 250.902 148.963 251.359 148.776C251.826 148.58 252.33 148.482 252.871 148.482C253.347 148.482 253.791 148.575 254.201 148.762C254.612 148.939 254.967 149.187 255.265 149.504C255.573 149.821 255.807 150.199 255.965 150.638C256.133 151.067 256.213 151.539 256.203 152.052L256.189 152.668H250.183L249.861 151.52H254.943L254.733 151.758V151.422C254.705 151.114 254.603 150.839 254.425 150.596C254.248 150.353 254.024 150.162 253.753 150.022C253.483 149.882 253.189 149.812 252.871 149.812C252.367 149.812 251.943 149.91 251.597 150.106C251.252 150.293 250.991 150.573 250.813 150.946C250.636 151.31 250.547 151.763 250.547 152.304C250.547 152.817 250.655 153.265 250.869 153.648C251.084 154.021 251.387 154.311 251.779 154.516C252.171 154.721 252.624 154.824 253.137 154.824C253.501 154.824 253.837 154.763 254.145 154.642C254.463 154.521 254.803 154.301 255.167 153.984L255.895 155.006C255.671 155.23 255.396 155.426 255.069 155.594C254.752 155.762 254.411 155.897 254.047 156C253.693 156.093 253.343 156.14 252.997 156.14ZM257.737 156V148.65H259.179V150.162L258.927 150.33C259.02 150.003 259.202 149.705 259.473 149.434C259.744 149.154 260.066 148.93 260.439 148.762C260.812 148.585 261.195 148.496 261.587 148.496C262.147 148.496 262.614 148.608 262.987 148.832C263.36 149.047 263.64 149.378 263.827 149.826C264.014 150.274 264.107 150.839 264.107 151.52V156H262.665V151.618C262.665 151.198 262.609 150.853 262.497 150.582C262.385 150.302 262.212 150.101 261.979 149.98C261.746 149.849 261.456 149.793 261.111 149.812C260.831 149.812 260.574 149.859 260.341 149.952C260.108 150.036 259.902 150.157 259.725 150.316C259.557 150.475 259.422 150.661 259.319 150.876C259.226 151.081 259.179 151.305 259.179 151.548V156H258.465C258.344 156 258.222 156 258.101 156C257.98 156 257.858 156 257.737 156ZM269.32 159.22C268.797 159.22 268.274 159.136 267.752 158.968C267.238 158.809 266.823 158.599 266.506 158.338L267.038 157.218C267.224 157.358 267.444 157.479 267.696 157.582C267.948 157.694 268.214 157.778 268.494 157.834C268.774 157.899 269.049 157.932 269.32 157.932C269.833 157.932 270.262 157.848 270.608 157.68C270.953 157.512 271.214 157.265 271.392 156.938C271.569 156.611 271.658 156.205 271.658 155.72V154.306L271.812 154.404C271.765 154.693 271.611 154.973 271.35 155.244C271.098 155.505 270.78 155.72 270.398 155.888C270.015 156.056 269.623 156.14 269.222 156.14C268.522 156.14 267.896 155.977 267.346 155.65C266.804 155.314 266.375 154.861 266.058 154.292C265.74 153.713 265.582 153.055 265.582 152.318C265.582 151.581 265.736 150.927 266.044 150.358C266.361 149.779 266.79 149.327 267.332 149C267.882 148.664 268.498 148.496 269.18 148.496C269.46 148.496 269.73 148.533 269.992 148.608C270.253 148.673 270.496 148.771 270.72 148.902C270.944 149.023 271.144 149.159 271.322 149.308C271.499 149.457 271.644 149.616 271.756 149.784C271.868 149.952 271.938 150.111 271.966 150.26L271.658 150.372V148.65H273.1V155.552C273.1 156.14 273.011 156.658 272.834 157.106C272.666 157.563 272.418 157.946 272.092 158.254C271.765 158.571 271.368 158.809 270.902 158.968C270.435 159.136 269.908 159.22 269.32 159.22ZM269.376 154.81C269.833 154.81 270.239 154.703 270.594 154.488C270.948 154.273 271.224 153.979 271.42 153.606C271.616 153.233 271.714 152.803 271.714 152.318C271.714 151.833 271.611 151.403 271.406 151.03C271.21 150.647 270.934 150.349 270.58 150.134C270.234 149.919 269.833 149.812 269.376 149.812C268.928 149.812 268.526 149.924 268.172 150.148C267.826 150.363 267.551 150.661 267.346 151.044C267.15 151.417 267.052 151.842 267.052 152.318C267.052 152.794 267.15 153.223 267.346 153.606C267.551 153.979 267.826 154.273 268.172 154.488C268.526 154.703 268.928 154.81 269.376 154.81ZM277.916 156.14C277.309 156.14 276.754 155.972 276.25 155.636C275.755 155.3 275.358 154.843 275.06 154.264C274.761 153.685 274.612 153.032 274.612 152.304C274.612 151.567 274.761 150.913 275.06 150.344C275.368 149.765 275.778 149.313 276.292 148.986C276.814 148.659 277.398 148.496 278.042 148.496C278.424 148.496 278.774 148.552 279.092 148.664C279.409 148.776 279.684 148.935 279.918 149.14C280.16 149.336 280.356 149.565 280.506 149.826C280.664 150.087 280.762 150.367 280.8 150.666L280.478 150.554V148.65H281.934V156H280.478V154.25L280.814 154.152C280.758 154.404 280.641 154.651 280.464 154.894C280.296 155.127 280.076 155.337 279.806 155.524C279.544 155.711 279.25 155.86 278.924 155.972C278.606 156.084 278.27 156.14 277.916 156.14ZM278.294 154.81C278.732 154.81 279.12 154.703 279.456 154.488C279.792 154.273 280.053 153.979 280.24 153.606C280.436 153.223 280.534 152.789 280.534 152.304C280.534 151.828 280.436 151.403 280.24 151.03C280.053 150.657 279.792 150.363 279.456 150.148C279.12 149.933 278.732 149.826 278.294 149.826C277.864 149.826 277.482 149.933 277.146 150.148C276.819 150.363 276.558 150.657 276.362 151.03C276.175 151.403 276.082 151.828 276.082 152.304C276.082 152.789 276.175 153.223 276.362 153.606C276.558 153.979 276.819 154.273 277.146 154.488C277.482 154.703 277.864 154.81 278.294 154.81ZM287.204 159.22C286.681 159.22 286.158 159.136 285.636 158.968C285.122 158.809 284.707 158.599 284.39 158.338L284.922 157.218C285.108 157.358 285.328 157.479 285.58 157.582C285.832 157.694 286.098 157.778 286.378 157.834C286.658 157.899 286.933 157.932 287.204 157.932C287.717 157.932 288.146 157.848 288.492 157.68C288.837 157.512 289.098 157.265 289.276 156.938C289.453 156.611 289.542 156.205 289.542 155.72V154.306L289.696 154.404C289.649 154.693 289.495 154.973 289.234 155.244C288.982 155.505 288.664 155.72 288.282 155.888C287.899 156.056 287.507 156.14 287.106 156.14C286.406 156.14 285.78 155.977 285.23 155.65C284.688 155.314 284.259 154.861 283.942 154.292C283.624 153.713 283.466 153.055 283.466 152.318C283.466 151.581 283.62 150.927 283.928 150.358C284.245 149.779 284.674 149.327 285.216 149C285.766 148.664 286.382 148.496 287.064 148.496C287.344 148.496 287.614 148.533 287.876 148.608C288.137 148.673 288.38 148.771 288.604 148.902C288.828 149.023 289.028 149.159 289.206 149.308C289.383 149.457 289.528 149.616 289.64 149.784C289.752 149.952 289.822 150.111 289.85 150.26L289.542 150.372V148.65H290.984V155.552C290.984 156.14 290.895 156.658 290.718 157.106C290.55 157.563 290.302 157.946 289.976 158.254C289.649 158.571 289.252 158.809 288.786 158.968C288.319 159.136 287.792 159.22 287.204 159.22ZM287.26 154.81C287.717 154.81 288.123 154.703 288.478 154.488C288.832 154.273 289.108 153.979 289.304 153.606C289.5 153.233 289.598 152.803 289.598 152.318C289.598 151.833 289.495 151.403 289.29 151.03C289.094 150.647 288.818 150.349 288.464 150.134C288.118 149.919 287.717 149.812 287.26 149.812C286.812 149.812 286.41 149.924 286.056 150.148C285.71 150.363 285.435 150.661 285.23 151.044C285.034 151.417 284.936 151.842 284.936 152.318C284.936 152.794 285.034 153.223 285.23 153.606C285.435 153.979 285.71 154.273 286.056 154.488C286.41 154.703 286.812 154.81 287.26 154.81ZM296.402 156.14C295.646 156.14 294.974 155.981 294.386 155.664C293.807 155.337 293.35 154.894 293.014 154.334C292.687 153.774 292.524 153.13 292.524 152.402C292.524 151.823 292.617 151.296 292.804 150.82C292.99 150.344 293.247 149.933 293.574 149.588C293.91 149.233 294.306 148.963 294.764 148.776C295.23 148.58 295.734 148.482 296.276 148.482C296.752 148.482 297.195 148.575 297.606 148.762C298.016 148.939 298.371 149.187 298.67 149.504C298.978 149.821 299.211 150.199 299.37 150.638C299.538 151.067 299.617 151.539 299.608 152.052L299.594 152.668H293.588L293.266 151.52H298.348L298.138 151.758V151.422C298.11 151.114 298.007 150.839 297.83 150.596C297.652 150.353 297.428 150.162 297.158 150.022C296.887 149.882 296.593 149.812 296.276 149.812C295.772 149.812 295.347 149.91 295.002 150.106C294.656 150.293 294.395 150.573 294.218 150.946C294.04 151.31 293.952 151.763 293.952 152.304C293.952 152.817 294.059 153.265 294.274 153.648C294.488 154.021 294.792 154.311 295.184 154.516C295.576 154.721 296.028 154.824 296.542 154.824C296.906 154.824 297.242 154.763 297.55 154.642C297.867 154.521 298.208 154.301 298.572 153.984L299.3 155.006C299.076 155.23 298.8 155.426 298.474 155.594C298.156 155.762 297.816 155.897 297.452 156C297.097 156.093 296.747 156.14 296.402 156.14ZM301.113 156V148.65H302.569V150.218L302.303 150.386C302.378 150.143 302.495 149.91 302.653 149.686C302.821 149.462 303.022 149.266 303.255 149.098C303.498 148.921 303.755 148.781 304.025 148.678C304.305 148.575 304.59 148.524 304.879 148.524C305.299 148.524 305.668 148.594 305.985 148.734C306.303 148.874 306.564 149.084 306.769 149.364C306.975 149.644 307.124 149.994 307.217 150.414L306.993 150.358L307.091 150.12C307.194 149.905 307.334 149.705 307.511 149.518C307.698 149.322 307.908 149.149 308.141 149C308.375 148.851 308.622 148.734 308.883 148.65C309.145 148.566 309.401 148.524 309.653 148.524C310.204 148.524 310.657 148.636 311.011 148.86C311.375 149.084 311.646 149.425 311.823 149.882C312.01 150.339 312.103 150.909 312.103 151.59V156H310.647V151.674C310.647 151.254 310.591 150.913 310.479 150.652C310.377 150.381 310.218 150.181 310.003 150.05C309.789 149.919 309.513 149.854 309.177 149.854C308.916 149.854 308.669 149.901 308.435 149.994C308.211 150.078 308.015 150.199 307.847 150.358C307.679 150.517 307.549 150.703 307.455 150.918C307.362 151.123 307.315 151.352 307.315 151.604V156H305.859V151.646C305.859 151.263 305.803 150.941 305.691 150.68C305.579 150.409 305.416 150.204 305.201 150.064C304.987 149.924 304.725 149.854 304.417 149.854C304.156 149.854 303.913 149.901 303.689 149.994C303.465 150.078 303.269 150.199 303.101 150.358C302.933 150.507 302.803 150.689 302.709 150.904C302.616 151.109 302.569 151.333 302.569 151.576V156H301.113ZM317.43 156.14C316.674 156.14 316.002 155.981 315.414 155.664C314.836 155.337 314.378 154.894 314.042 154.334C313.716 153.774 313.552 153.13 313.552 152.402C313.552 151.823 313.646 151.296 313.832 150.82C314.019 150.344 314.276 149.933 314.602 149.588C314.938 149.233 315.335 148.963 315.792 148.776C316.259 148.58 316.763 148.482 317.304 148.482C317.78 148.482 318.224 148.575 318.634 148.762C319.045 148.939 319.4 149.187 319.698 149.504C320.006 149.821 320.24 150.199 320.398 150.638C320.566 151.067 320.646 151.539 320.636 152.052L320.622 152.668H314.616L314.294 151.52H319.376L319.166 151.758V151.422C319.138 151.114 319.036 150.839 318.858 150.596C318.681 150.353 318.457 150.162 318.186 150.022C317.916 149.882 317.622 149.812 317.304 149.812C316.8 149.812 316.376 149.91 316.03 150.106C315.685 150.293 315.424 150.573 315.246 150.946C315.069 151.31 314.98 151.763 314.98 152.304C314.98 152.817 315.088 153.265 315.302 153.648C315.517 154.021 315.82 154.311 316.212 154.516C316.604 154.721 317.057 154.824 317.57 154.824C317.934 154.824 318.27 154.763 318.578 154.642C318.896 154.521 319.236 154.301 319.6 153.984L320.328 155.006C320.104 155.23 319.829 155.426 319.502 155.594C319.185 155.762 318.844 155.897 318.48 156C318.126 156.093 317.776 156.14 317.43 156.14ZM322.17 156V148.65H323.612V150.162L323.36 150.33C323.453 150.003 323.635 149.705 323.906 149.434C324.176 149.154 324.498 148.93 324.872 148.762C325.245 148.585 325.628 148.496 326.02 148.496C326.58 148.496 327.046 148.608 327.42 148.832C327.793 149.047 328.073 149.378 328.26 149.826C328.446 150.274 328.54 150.839 328.54 151.52V156H327.098V151.618C327.098 151.198 327.042 150.853 326.93 150.582C326.818 150.302 326.645 150.101 326.412 149.98C326.178 149.849 325.889 149.793 325.544 149.812C325.264 149.812 325.007 149.859 324.774 149.952C324.54 150.036 324.335 150.157 324.158 150.316C323.99 150.475 323.854 150.661 323.752 150.876C323.658 151.081 323.612 151.305 323.612 151.548V156H322.898C322.776 156 322.655 156 322.534 156C322.412 156 322.291 156 322.17 156ZM331.372 156V146.774H332.814V156H331.372ZM329.846 150.05V148.65H334.522V150.05H329.846ZM346.734 156L345.46 154.642L345.236 154.39L342.814 151.688C342.581 151.427 342.357 151.161 342.142 150.89C341.927 150.61 341.736 150.335 341.568 150.064C341.409 149.793 341.279 149.532 341.176 149.28C341.083 149.019 341.036 148.776 341.036 148.552C341.036 148.076 341.157 147.651 341.4 147.278C341.652 146.895 341.993 146.597 342.422 146.382C342.861 146.167 343.365 146.06 343.934 146.06C344.354 146.06 344.746 146.139 345.11 146.298C345.474 146.447 345.787 146.662 346.048 146.942C346.319 147.213 346.515 147.53 346.636 147.894L345.544 148.594C345.367 148.165 345.147 147.852 344.886 147.656C344.634 147.46 344.317 147.362 343.934 147.362C343.645 147.362 343.402 147.409 343.206 147.502C343.01 147.586 342.861 147.712 342.758 147.88C342.655 148.048 342.604 148.258 342.604 148.51C342.604 148.715 342.66 148.944 342.772 149.196C342.893 149.439 343.043 149.686 343.22 149.938C343.397 150.19 343.579 150.423 343.766 150.638C343.953 150.853 344.116 151.039 344.256 151.198L346.202 153.368L346.608 153.816L348.61 156H346.734ZM342.968 156.14C342.305 156.14 341.703 156 341.162 155.72C340.621 155.431 340.187 155.053 339.86 154.586C339.543 154.11 339.384 153.592 339.384 153.032C339.384 152.295 339.585 151.655 339.986 151.114C340.397 150.573 340.994 150.157 341.778 149.868L342.674 150.946C342.077 151.077 341.633 151.296 341.344 151.604C341.055 151.903 340.91 152.309 340.91 152.822C340.91 153.214 341.003 153.559 341.19 153.858C341.377 154.157 341.643 154.39 341.988 154.558C342.343 154.726 342.763 154.81 343.248 154.81C343.668 154.81 344.051 154.731 344.396 154.572C344.751 154.404 345.068 154.171 345.348 153.872C345.628 153.573 345.857 153.214 346.034 152.794C346.221 152.374 346.356 151.907 346.44 151.394H347.728C347.653 151.963 347.518 152.491 347.322 152.976C347.135 153.461 346.897 153.9 346.608 154.292C346.328 154.684 346.001 155.02 345.628 155.3C345.264 155.571 344.858 155.781 344.41 155.93C343.962 156.07 343.481 156.14 342.968 156.14ZM277.813 176.14C277.132 176.14 276.521 175.972 275.979 175.636C275.447 175.3 275.023 174.843 274.705 174.264C274.397 173.685 274.243 173.037 274.243 172.318C274.243 171.599 274.397 170.951 274.705 170.372C275.023 169.793 275.447 169.336 275.979 169C276.521 168.664 277.132 168.496 277.813 168.496C278.467 168.496 279.059 168.631 279.591 168.902C280.133 169.163 280.543 169.523 280.823 169.98L280.025 170.96C279.876 170.745 279.685 170.549 279.451 170.372C279.218 170.195 278.971 170.055 278.709 169.952C278.448 169.849 278.196 169.798 277.953 169.798C277.505 169.798 277.104 169.91 276.749 170.134C276.404 170.349 276.129 170.647 275.923 171.03C275.718 171.413 275.615 171.842 275.615 172.318C275.615 172.794 275.723 173.223 275.937 173.606C276.152 173.979 276.437 174.278 276.791 174.502C277.146 174.726 277.538 174.838 277.967 174.838C278.219 174.838 278.462 174.796 278.695 174.712C278.938 174.628 279.171 174.502 279.395 174.334C279.619 174.166 279.829 173.961 280.025 173.718L280.823 174.698C280.525 175.118 280.095 175.463 279.535 175.734C278.985 176.005 278.411 176.14 277.813 176.14ZM285.454 176.14C284.735 176.14 284.091 175.977 283.522 175.65C282.962 175.314 282.519 174.861 282.192 174.292C281.865 173.713 281.702 173.055 281.702 172.318C281.702 171.581 281.865 170.927 282.192 170.358C282.519 169.779 282.962 169.327 283.522 169C284.091 168.664 284.735 168.496 285.454 168.496C286.163 168.496 286.798 168.664 287.358 169C287.927 169.327 288.375 169.779 288.702 170.358C289.029 170.927 289.192 171.581 289.192 172.318C289.192 173.055 289.029 173.713 288.702 174.292C288.375 174.861 287.927 175.314 287.358 175.65C286.798 175.977 286.163 176.14 285.454 176.14ZM285.454 174.824C285.893 174.824 286.285 174.717 286.63 174.502C286.975 174.278 287.246 173.979 287.442 173.606C287.638 173.223 287.731 172.794 287.722 172.318C287.731 171.833 287.638 171.403 287.442 171.03C287.246 170.647 286.975 170.349 286.63 170.134C286.285 169.919 285.893 169.812 285.454 169.812C285.015 169.812 284.619 169.924 284.264 170.148C283.919 170.363 283.648 170.661 283.452 171.044C283.256 171.417 283.163 171.842 283.172 172.318C283.163 172.794 283.256 173.223 283.452 173.606C283.648 173.979 283.919 174.278 284.264 174.502C284.619 174.717 285.015 174.824 285.454 174.824ZM290.702 176V168.65H292.158V170.218L291.892 170.386C291.966 170.143 292.083 169.91 292.242 169.686C292.41 169.462 292.61 169.266 292.844 169.098C293.086 168.921 293.343 168.781 293.614 168.678C293.894 168.575 294.178 168.524 294.468 168.524C294.888 168.524 295.256 168.594 295.574 168.734C295.891 168.874 296.152 169.084 296.358 169.364C296.563 169.644 296.712 169.994 296.806 170.414L296.582 170.358L296.68 170.12C296.782 169.905 296.922 169.705 297.1 169.518C297.286 169.322 297.496 169.149 297.73 169C297.963 168.851 298.21 168.734 298.472 168.65C298.733 168.566 298.99 168.524 299.242 168.524C299.792 168.524 300.245 168.636 300.6 168.86C300.964 169.084 301.234 169.425 301.412 169.882C301.598 170.339 301.692 170.909 301.692 171.59V176H300.236V171.674C300.236 171.254 300.18 170.913 300.068 170.652C299.965 170.381 299.806 170.181 299.592 170.05C299.377 169.919 299.102 169.854 298.766 169.854C298.504 169.854 298.257 169.901 298.024 169.994C297.8 170.078 297.604 170.199 297.436 170.358C297.268 170.517 297.137 170.703 297.044 170.918C296.95 171.123 296.904 171.352 296.904 171.604V176H295.448V171.646C295.448 171.263 295.392 170.941 295.28 170.68C295.168 170.409 295.004 170.204 294.79 170.064C294.575 169.924 294.314 169.854 294.006 169.854C293.744 169.854 293.502 169.901 293.278 169.994C293.054 170.078 292.858 170.199 292.69 170.358C292.522 170.507 292.391 170.689 292.298 170.904C292.204 171.109 292.158 171.333 292.158 171.576V176H290.702ZM303.589 179.08V168.65H305.045V170.33L304.821 170.204C304.877 169.924 305.035 169.658 305.297 169.406C305.558 169.145 305.875 168.935 306.249 168.776C306.631 168.608 307.023 168.524 307.425 168.524C308.087 168.524 308.675 168.687 309.189 169.014C309.702 169.341 310.108 169.789 310.407 170.358C310.705 170.927 310.855 171.581 310.855 172.318C310.855 173.046 310.705 173.699 310.407 174.278C310.117 174.847 309.716 175.3 309.203 175.636C308.689 175.963 308.111 176.126 307.467 176.126C307.037 176.126 306.622 176.042 306.221 175.874C305.819 175.697 305.479 175.473 305.199 175.202C304.919 174.931 304.746 174.651 304.681 174.362L305.045 174.166V179.08H303.589ZM307.229 174.796C307.658 174.796 308.041 174.689 308.377 174.474C308.713 174.259 308.979 173.965 309.175 173.592C309.371 173.219 309.469 172.794 309.469 172.318C309.469 171.842 309.371 171.422 309.175 171.058C308.988 170.685 308.727 170.391 308.391 170.176C308.055 169.961 307.667 169.854 307.229 169.854C306.79 169.854 306.403 169.961 306.067 170.176C305.731 170.381 305.465 170.671 305.269 171.044C305.073 171.417 304.975 171.842 304.975 172.318C304.975 172.794 305.073 173.219 305.269 173.592C305.465 173.965 305.731 174.259 306.067 174.474C306.403 174.689 306.79 174.796 307.229 174.796ZM312.415 176V165.64H313.857V176H312.415ZM319.16 176.14C318.404 176.14 317.732 175.981 317.144 175.664C316.566 175.337 316.108 174.894 315.772 174.334C315.446 173.774 315.282 173.13 315.282 172.402C315.282 171.823 315.376 171.296 315.562 170.82C315.749 170.344 316.006 169.933 316.332 169.588C316.668 169.233 317.065 168.963 317.522 168.776C317.989 168.58 318.493 168.482 319.034 168.482C319.51 168.482 319.954 168.575 320.364 168.762C320.775 168.939 321.13 169.187 321.428 169.504C321.736 169.821 321.97 170.199 322.128 170.638C322.296 171.067 322.376 171.539 322.366 172.052L322.352 172.668H316.346L316.024 171.52H321.106L320.896 171.758V171.422C320.868 171.114 320.766 170.839 320.588 170.596C320.411 170.353 320.187 170.162 319.916 170.022C319.646 169.882 319.352 169.812 319.034 169.812C318.53 169.812 318.106 169.91 317.76 170.106C317.415 170.293 317.154 170.573 316.976 170.946C316.799 171.31 316.71 171.763 316.71 172.304C316.71 172.817 316.818 173.265 317.032 173.648C317.247 174.021 317.55 174.311 317.942 174.516C318.334 174.721 318.787 174.824 319.3 174.824C319.664 174.824 320 174.763 320.308 174.642C320.626 174.521 320.966 174.301 321.33 173.984L322.058 175.006C321.834 175.23 321.559 175.426 321.232 175.594C320.915 175.762 320.574 175.897 320.21 176C319.856 176.093 319.506 176.14 319.16 176.14ZM324.81 176V166.774H326.252V176H324.81ZM323.284 170.05V168.65H327.96V170.05H323.284ZM329.477 176V168.65H330.919V176H329.477ZM330.177 167.026C329.869 167.026 329.631 166.947 329.463 166.788C329.295 166.629 329.211 166.405 329.211 166.116C329.211 165.845 329.295 165.626 329.463 165.458C329.641 165.29 329.879 165.206 330.177 165.206C330.485 165.206 330.723 165.285 330.891 165.444C331.059 165.603 331.143 165.827 331.143 166.116C331.143 166.387 331.055 166.606 330.877 166.774C330.709 166.942 330.476 167.026 330.177 167.026ZM336.406 176.14C335.687 176.14 335.043 175.977 334.474 175.65C333.914 175.314 333.471 174.861 333.144 174.292C332.817 173.713 332.654 173.055 332.654 172.318C332.654 171.581 332.817 170.927 333.144 170.358C333.471 169.779 333.914 169.327 334.474 169C335.043 168.664 335.687 168.496 336.406 168.496C337.115 168.496 337.75 168.664 338.31 169C338.879 169.327 339.327 169.779 339.654 170.358C339.981 170.927 340.144 171.581 340.144 172.318C340.144 173.055 339.981 173.713 339.654 174.292C339.327 174.861 338.879 175.314 338.31 175.65C337.75 175.977 337.115 176.14 336.406 176.14ZM336.406 174.824C336.845 174.824 337.237 174.717 337.582 174.502C337.927 174.278 338.198 173.979 338.394 173.606C338.59 173.223 338.683 172.794 338.674 172.318C338.683 171.833 338.59 171.403 338.394 171.03C338.198 170.647 337.927 170.349 337.582 170.134C337.237 169.919 336.845 169.812 336.406 169.812C335.967 169.812 335.571 169.924 335.216 170.148C334.871 170.363 334.6 170.661 334.404 171.044C334.208 171.417 334.115 171.842 334.124 172.318C334.115 172.794 334.208 173.223 334.404 173.606C334.6 173.979 334.871 174.278 335.216 174.502C335.571 174.717 335.967 174.824 336.406 174.824ZM341.682 176V168.65H343.124V170.162L342.872 170.33C342.965 170.003 343.147 169.705 343.418 169.434C343.688 169.154 344.01 168.93 344.384 168.762C344.757 168.585 345.14 168.496 345.532 168.496C346.092 168.496 346.558 168.608 346.932 168.832C347.305 169.047 347.585 169.378 347.772 169.826C347.958 170.274 348.052 170.839 348.052 171.52V176H346.61V171.618C346.61 171.198 346.554 170.853 346.442 170.582C346.33 170.302 346.157 170.101 345.924 169.98C345.69 169.849 345.401 169.793 345.056 169.812C344.776 169.812 344.519 169.859 344.286 169.952C344.052 170.036 343.847 170.157 343.67 170.316C343.502 170.475 343.366 170.661 343.264 170.876C343.17 171.081 343.124 171.305 343.124 171.548V176H342.41C342.288 176 342.167 176 342.046 176C341.924 176 341.803 176 341.682 176Z" fill="#8A7B6A"/>
<defs>
<filter id="filter0_dd_285_1455" x="37.5" y="42" width="99" height="111" filterUnits="userSpaceOnUse" color-interpolation-filters="sRGB">
<feFlood flood-opacity="0" result="BackgroundImageFix"/>
<feColorMatrix in="SourceAlpha" type="matrix" values="0 0 0 0 0 0 0 0 0 0 0 0 0 0 0 0 0 0 127 0" result="hardAlpha"/>
<feMorphology radius="1" operator="dilate" in="SourceAlpha" result="effect1_dropShadow_285_1455"/>
<feOffset dy="1"/>
<feGaussianBlur stdDeviation="1.5"/>
<feColorMatrix type="matrix" values="0 0 0 0 0 0 0 0 0 0 0 0 0 0 0 0 0 0 0.15 0"/>
<feBlend mode="normal" in2="BackgroundImageFix" result="effect1_dropShadow_285_1455"/>
<feColorMatrix in="SourceAlpha" type="matrix" values="0 0 0 0 0 0 0 0 0 0 0 0 0 0 0 0 0 0 127 0" result="hardAlpha"/>
<feOffset dy="1"/>
<feGaussianBlur stdDeviation="1"/>
<feColorMatrix type="matrix" values="0 0 0 0 0 0 0 0 0 0 0 0 0 0 0 0 0 0 0.3 0"/>
<feBlend mode="normal" in2="effect1_dropShadow_285_1455" result="effect2_dropShadow_285_1455"/>
<feBlend mode="normal" in="SourceGraphic" in2="effect2_dropShadow_285_1455" result="shape"/>
</filter>
<filter id="filter1_dd_285_1455" x="69.5" y="70" width="67" height="50" filterUnits="userSpaceOnUse" color-interpolation-filters="sRGB">
<feFlood flood-opacity="0" result="BackgroundImageFix"/>
<feColorMatrix in="SourceAlpha" type="matrix" values="0 0 0 0 0 0 0 0 0 0 0 0 0 0 0 0 0 0 127 0" result="hardAlpha"/>
<feMorphology radius="1" operator="dilate" in="SourceAlpha" result="effect1_dropShadow_285_1455"/>
<feOffset dy="1"/>
<feGaussianBlur stdDeviation="1.5"/>
<feColorMatrix type="matrix" values="0 0 0 0 0 0 0 0 0 0 0 0 0 0 0 0 0 0 0.15 0"/>
<feBlend mode="normal" in2="BackgroundImageFix" result="effect1_dropShadow_285_1455"/>
<feColorMatrix in="SourceAlpha" type="matrix" values="0 0 0 0 0 0 0 0 0 0 0 0 0 0 0 0 0 0 127 0" result="hardAlpha"/>
<feOffset dy="1"/>
<feGaussianBlur stdDeviation="1"/>
<feColorMatrix type="matrix" values="0 0 0 0 0 0 0 0 0 0 0 0 0 0 0 0 0 0 0.3 0"/>
<feBlend mode="normal" in2="effect1_dropShadow_285_1455" result="effect2_dropShadow_285_1455"/>
<feBlend mode="normal" in="SourceGraphic" in2="effect2_dropShadow_285_1455" result="shape"/>
</filter>
</defs>
</svg>
