<svg width="56" height="56" viewBox="0 0 56 56" fill="none" xmlns="http://www.w3.org/2000/svg">
<rect x="0.5" y="0.5" width="55" height="55" rx="23.5" fill="#FEFDF0"/>
<rect x="0.5" y="0.5" width="55" height="55" rx="23.5" stroke="#F2E9DD"/>
<path fill-rule="evenodd" clip-rule="evenodd" d="M28 43C35.732 43 42 36.732 42 29C42 21.268 35.732 15 28 15C20.268 15 14 21.268 14 29C14 31.5109 14.661 33.8674 15.8185 35.905L14 43L21.3149 41.3038C23.3014 42.3854 25.5789 43 28 43ZM28 40.8462C34.5425 40.8462 39.8462 35.5425 39.8462 29C39.8462 22.4576 34.5425 17.1538 28 17.1538C21.4576 17.1538 16.1538 22.4576 16.1538 29C16.1538 31.5261 16.9445 33.8675 18.2918 35.7902L17.2308 39.7692L21.2799 38.7569C23.1894 40.0746 25.5046 40.8462 28 40.8462Z" fill="#BFC8D0"/>
<path d="M40 28C40 34.6274 34.6274 40 28 40C25.4722 40 23.1269 39.2184 21.1927 37.8837L17.0909 38.9091L18.1658 34.8784C16.8009 32.9307 16 30.5589 16 28C16 21.3726 21.3726 16 28 16C34.6274 16 40 21.3726 40 28Z" fill="url(#paint0_linear_305_2188)"/>
<path fill-rule="evenodd" clip-rule="evenodd" d="M28 42C35.732 42 42 35.732 42 28C42 20.268 35.732 14 28 14C20.268 14 14 20.268 14 28C14 30.5109 14.661 32.8674 15.8185 34.905L14 42L21.3149 40.3038C23.3014 41.3854 25.5789 42 28 42ZM28 39.8462C34.5425 39.8462 39.8462 34.5425 39.8462 28C39.8462 21.4576 34.5425 16.1538 28 16.1538C21.4576 16.1538 16.1538 21.4576 16.1538 28C16.1538 30.5261 16.9445 32.8675 18.2918 34.7902L17.2308 38.7692L21.2799 37.7569C23.1894 39.0746 25.5046 39.8462 28 39.8462Z" fill="white"/>
<path d="M24.5 21.4994C24.1672 20.8308 23.6565 20.89 23.1407 20.89C22.2188 20.89 20.7812 21.9943 20.7812 24.0495C20.7813 25.7338 21.5234 27.5775 24.0244 30.3356C26.438 32.9974 29.6094 34.3743 32.2422 34.3275C34.875 34.2806 35.4167 32.015 35.4167 31.2498C35.4167 30.9107 35.2062 30.7415 35.0613 30.6955C34.1641 30.265 32.5093 29.4627 32.1328 29.3119C31.7563 29.1612 31.5597 29.3651 31.4375 29.476C31.0961 29.8014 30.4193 30.7603 30.1875 30.976C29.9558 31.1917 29.6103 31.0825 29.4665 31.001C28.9374 30.7887 27.5029 30.1506 26.3595 29.0421C24.9453 27.6713 24.8623 27.1997 24.5959 26.7798C24.3828 26.444 24.5392 26.2379 24.6172 26.1478C24.9219 25.7963 25.3426 25.2535 25.5313 24.9838C25.7199 24.714 25.5702 24.3045 25.4803 24.0495C25.0938 22.9525 24.7663 22.0343 24.5 21.4994Z" fill="white"/>
<defs>
<linearGradient id="paint0_linear_305_2188" x1="38.5" y1="19" x2="16" y2="40" gradientUnits="userSpaceOnUse">
<stop stop-color="#5BD066"/>
<stop offset="1" stop-color="#27B43E"/>
</linearGradient>
</defs>
</svg>
