<svg width="151" height="101" viewBox="0 0 151 101" fill="none" xmlns="http://www.w3.org/2000/svg">
<rect x="45.5508" y="13.082" width="48" height="48" rx="4" transform="rotate(-8 45.5508 13.082)" fill="#F2E9DC"/>
<g filter="url(#filter0_dd_282_2865)">
<rect x="71.5781" y="16.998" width="11.0769" height="11.0769" rx="5.53846" transform="rotate(-8 71.5781 16.998)" fill="#F2E9DC"/>
<rect x="70.188" y="15.9505" width="13.5385" height="13.5385" rx="6.76923" transform="rotate(-8 70.188 15.9505)" stroke="#F2E9DC" stroke-width="2.46154"/>
</g>
<g filter="url(#filter1_dd_282_2865)">
<path d="M62.0102 50.0139L58.2896 40.7823C57.6915 39.2983 58.6458 37.6472 60.2301 37.4245L69.0708 36.182L71.1816 32.4209C72.3095 30.4109 74.3113 29.0429 76.5937 28.7221L80.5995 28.1591C82.601 27.8779 84.6303 28.4292 86.2142 29.6846L86.9936 30.3024C87.9842 31.0875 88.6349 32.2237 88.8108 33.4754L89.1545 35.9209C89.4322 37.8969 88.7634 39.8884 87.3493 41.2962C86.3771 42.2641 85.1171 42.8906 83.7586 43.0815L79.4306 43.6897L81.8625 49.1103L64.6359 51.5314C63.516 51.6888 62.433 51.0628 62.0102 50.0139Z" fill="#F2E9DC"/>
<path d="M80.4281 26.9407C82.7632 26.6125 85.1309 27.2555 86.9788 28.7201L87.7578 29.3374C88.9961 30.3189 89.8093 31.7394 90.0293 33.3041L90.373 35.7498C90.7046 38.1093 89.9066 40.4877 88.218 42.1688C87.0571 43.3246 85.5522 44.072 83.9299 44.3L81.2241 44.6803L82.9858 48.6061L83.6556 50.1017L64.8076 52.7506C63.1278 52.9866 61.5026 52.0473 60.8684 50.4739L57.1481 41.2427C56.251 39.0169 57.6821 36.5398 60.0584 36.2056L68.2968 35.0478L70.1082 31.8189C71.4241 29.474 73.7598 27.8778 76.4226 27.5036L80.4281 26.9407Z" stroke="#F2E9DC" stroke-width="2.46154" stroke-linecap="round"/>
</g>
<path d="M62.0102 50.0139L58.2896 40.7823C57.6915 39.2983 58.6458 37.6472 60.2301 37.4245L69.0708 36.182L71.1816 32.4209C72.3095 30.4109 74.3113 29.0429 76.5937 28.7221L80.5995 28.1591C82.601 27.8779 84.6303 28.4292 86.2142 29.6846L86.9936 30.3024C87.9842 31.0875 88.6349 32.2237 88.8108 33.4754L89.1545 35.9209C89.4322 37.8969 88.7634 39.8884 87.3493 41.2962C86.3771 42.2641 85.1171 42.8906 83.7586 43.0815L79.4306 43.6897L81.8625 49.1103L64.6359 51.5314C63.516 51.6888 62.433 51.0628 62.0102 50.0139Z" fill="#FECE99"/>
<path d="M88.4394 48.186L81.8625 49.1103M81.8625 49.1103L64.6359 51.5314C63.516 51.6888 62.433 51.0628 62.0102 50.0139L58.2896 40.7823C57.6915 39.2983 58.6458 37.6472 60.2301 37.4245L69.0708 36.182M81.8625 49.1103L79.4306 43.6897M69.0708 36.182L73.8163 35.5151C74.9012 35.3626 75.9563 35.9455 76.4047 36.9451L76.9987 38.2691M69.0708 36.182L71.1816 32.4209C72.3095 30.4109 74.3113 29.0429 76.5937 28.7221L80.5995 28.1591C82.601 27.8779 84.6303 28.4292 86.2142 29.6846L86.9936 30.3024C87.9842 31.0875 88.6349 32.2237 88.8108 33.4754L89.1545 35.9209C89.4322 37.8969 88.7634 39.8884 87.3493 41.2962C86.3771 42.2641 85.1171 42.8906 83.7586 43.0815L79.4306 43.6897M79.4306 43.6897L76.9987 38.2691M76.9987 38.2691L81.424 37.6472C82.7702 37.458 83.7082 36.2133 83.519 34.8671L83.4204 34.1653" stroke="#FE7500" stroke-width="1.23077" stroke-linecap="round"/>
<rect x="70.8831" y="16.4743" width="12.3077" height="12.3077" rx="6.15385" transform="rotate(-8 70.8831 16.4743)" fill="#FECE99" stroke="#FE7500" stroke-width="1.23077"/>
<rect x="7.51562" y="72.959" width="140" height="28" rx="8" transform="rotate(-8 7.51562 72.959)" fill="#FECE99"/>
<path d="M37.4305 87.9414L36.0666 78.2368L39.8652 77.7029C40.5584 77.6055 41.1985 77.6333 41.7855 77.7865C42.3818 77.9383 42.9092 78.2035 43.3677 78.582C43.8261 78.9606 44.2032 79.4307 44.4989 79.9923C44.7946 80.554 44.9932 81.1952 45.0945 81.9161C45.1958 82.6371 45.1824 83.3128 45.0542 83.9435C44.9248 84.5649 44.6919 85.1207 44.3555 85.611C44.0271 86.0907 43.5972 86.4857 43.0659 86.796C42.5346 87.1063 41.9223 87.3101 41.2291 87.4075L37.4305 87.9414ZM38.7465 86.4417L38.6835 86.295L40.9572 85.9755C41.447 85.9066 41.8704 85.767 42.2272 85.5566C42.5933 85.3449 42.8856 85.0777 43.1042 84.7548C43.3306 84.4213 43.4833 84.0323 43.5622 83.5877C43.6411 83.143 43.6435 82.6573 43.5695 82.1305C43.4954 81.6037 43.3599 81.142 43.1628 80.7456C42.9644 80.3399 42.7104 80.008 42.4008 79.75C42.0912 79.4919 41.7359 79.3109 41.3349 79.207C40.9338 79.1032 40.4884 79.0856 39.9985 79.1545L37.6833 79.4799L37.7489 79.3434L38.7465 86.4417ZM50.8236 86.2005C50.0749 86.3057 49.3874 86.2421 48.7609 86.0097C48.1424 85.7668 47.6279 85.3914 47.2172 84.8836C46.8158 84.3745 46.5644 83.7595 46.4631 83.0386C46.3825 82.4656 46.4016 81.9304 46.5202 81.433C46.6388 80.9357 46.8358 80.4933 47.1112 80.1059C47.3946 79.7079 47.7497 79.3846 48.1766 79.1361C48.6115 78.8771 49.0969 78.7099 49.633 78.6346C50.1044 78.5683 50.5564 78.5991 50.989 78.7267C51.4204 78.8452 51.806 79.0408 52.1459 79.3134C52.4951 79.5848 52.7788 79.9267 52.9969 80.339C53.2231 80.7408 53.3672 81.1965 53.4294 81.7061L53.5013 82.3181L47.5537 83.1539L47.0751 82.0619L52.1076 81.3546L51.9328 81.6196L51.886 81.2868C51.8155 80.9857 51.6755 80.7274 51.4661 80.5117C51.2567 80.2961 51.0083 80.1378 50.7207 80.0368C50.4332 79.9359 50.1323 79.9075 49.8181 79.9516C49.319 80.0218 48.9121 80.1779 48.5974 80.4201C48.2814 80.653 48.0616 80.9666 47.938 81.361C47.813 81.7461 47.7882 82.2068 47.8635 82.7428C47.935 83.2512 48.1036 83.6799 48.3695 84.0289C48.634 84.3687 48.9746 84.613 49.3914 84.7618C49.8082 84.9106 50.2707 84.9493 50.779 84.8778C51.1395 84.8272 51.4638 84.7203 51.7519 84.5573C52.0493 84.393 52.3561 84.1284 52.6724 83.7635L53.5355 84.6742C53.3449 84.9272 53.0995 85.1596 52.7994 85.3715C52.5085 85.582 52.19 85.7634 51.8439 85.9157C51.5056 86.0575 51.1655 86.1524 50.8236 86.2005ZM57.9431 85.1999C57.3331 85.2857 56.7682 85.2567 56.2485 85.1129C55.7288 84.9692 55.278 84.7121 54.896 84.3416L55.7496 83.3734C56.0723 83.6579 56.4058 83.8514 56.7501 83.9538C57.1023 84.0457 57.4864 84.0624 57.9023 84.004C58.0686 83.9806 58.2185 83.9407 58.352 83.8842C58.4934 83.8172 58.6091 83.735 58.699 83.6375C58.7982 83.5387 58.8678 83.43 58.9077 83.3113C58.9462 83.1834 58.9558 83.0501 58.9363 82.9114C58.9025 82.6711 58.7874 82.4894 58.591 82.3662C58.4895 82.3145 58.3319 82.2659 58.1182 82.2206C57.9124 82.1647 57.6465 82.1172 57.3206 82.0782C56.765 82.0149 56.3039 81.9195 55.9373 81.7919C55.5706 81.6644 55.2793 81.5027 55.0633 81.3068C54.9 81.1507 54.7717 80.9755 54.6784 80.7813C54.5838 80.5778 54.519 80.3513 54.4839 80.1017C54.4411 79.7967 54.4668 79.5104 54.5611 79.2426C54.6634 78.9644 54.8171 78.7166 55.0221 78.4992C55.2352 78.2714 55.4917 78.0845 55.7916 77.9387C56.1008 77.7916 56.4356 77.6927 56.7961 77.642C57.1381 77.5939 57.4819 77.5927 57.8276 77.6384C58.1826 77.6828 58.5157 77.7726 58.8269 77.908C59.1381 78.0433 59.4076 78.2175 59.6355 78.4305L58.9442 79.4466C58.7439 79.2957 58.5283 79.1705 58.2976 79.0709C58.0748 78.9609 57.8519 78.8838 57.6289 78.8398C57.4059 78.7957 57.2066 78.786 57.031 78.8107C56.8369 78.838 56.6639 78.8811 56.512 78.9402C56.3601 78.9992 56.2339 79.0735 56.1333 79.163C56.0421 79.2513 55.9765 79.3547 55.9366 79.4734C55.8968 79.5921 55.8866 79.7208 55.906 79.8595C55.9322 79.9783 55.9761 80.0899 56.0379 80.1944C56.1077 80.2882 56.194 80.3656 56.2968 80.4266C56.4088 80.4862 56.5724 80.5434 56.7874 80.598C57.0024 80.6526 57.2723 80.6948 57.5969 80.7246C58.0759 80.7798 58.4737 80.8605 58.7902 80.9668C59.1147 81.0626 59.3778 81.1906 59.5793 81.3507C59.7889 81.5004 59.9468 81.6855 60.0533 81.9062C60.1597 82.1269 60.233 82.3805 60.2733 82.667C60.3317 83.0829 60.2642 83.4741 60.0706 83.8406C59.885 84.1966 59.6065 84.4949 59.2351 84.7356C58.8636 84.9763 58.433 85.1311 57.9431 85.1999ZM63.0819 82.0178L62.7943 80.4748L65.789 76.5336L67.716 76.2628L63.0819 82.0178ZM62.0982 84.4746L60.6564 74.2154L62.0844 74.0147L63.5262 84.2739L62.0982 84.4746ZM67.006 83.7848L63.8109 80.9681L64.6924 79.897L68.836 83.5277L67.006 83.7848ZM70.8457 83.2452L69.5617 74.109L70.9896 73.9083L72.2737 83.0445L70.8457 83.2452ZM68.5065 77.5655L68.3116 76.1791L72.9421 75.5283L73.137 76.9147L68.5065 77.5655ZM78.4557 82.3171C77.744 82.4171 77.0835 82.345 76.4743 82.1007C75.873 81.8459 75.3709 81.4594 74.9682 80.941C74.5642 80.4135 74.3109 79.7846 74.2083 79.0544C74.1056 78.3243 74.1765 77.6546 74.4207 77.0453C74.6637 76.4268 75.0397 75.9169 75.5488 75.5154C76.0658 75.1035 76.6802 74.8475 77.3918 74.7475C78.0943 74.6487 78.7461 74.7268 79.3474 74.9816C79.9567 75.2258 80.4633 75.6117 80.8674 76.1393C81.2701 76.6576 81.5228 77.2819 81.6254 78.012C81.728 78.7422 81.6578 79.4165 81.4149 80.035C81.1706 80.6443 80.79 81.1549 80.2729 81.5669C79.7639 81.9683 79.1581 82.2184 78.4557 82.3171ZM78.2725 81.0139C78.7069 80.9528 79.0802 80.792 79.3923 80.5313C79.7031 80.2615 79.9295 79.928 80.0717 79.5311C80.2125 79.1248 80.2452 78.6867 80.1697 78.2166C80.1114 77.7347 79.9592 77.3225 79.7131 76.9801C79.4658 76.6285 79.1562 76.3704 78.7843 76.2059C78.4125 76.0413 78.0094 75.9896 77.575 76.0507C77.1406 76.1117 76.7634 76.2778 76.4433 76.549C76.1312 76.8096 75.9048 77.1431 75.7639 77.5493C75.6218 77.9463 75.5885 78.3798 75.664 78.8499C75.721 79.3225 75.8731 79.7347 76.1205 80.0864C76.3665 80.4288 76.6761 80.6869 77.0493 80.8606C77.4304 81.0238 77.8381 81.0749 78.2725 81.0139ZM84.0892 84.4942L82.6376 74.1657L84.0794 73.9631L84.3132 75.6267L84.0739 75.5331C84.0904 75.2481 84.2105 74.9626 84.4342 74.6767C84.6566 74.3815 84.9416 74.1294 85.2892 73.9203C85.6448 73.7007 86.0213 73.5629 86.4187 73.5071C87.0749 73.4149 87.68 73.4948 88.2338 73.7468C88.7876 73.9989 89.252 74.386 89.627 74.9082C90.002 75.4305 90.2408 76.0566 90.3434 76.7868C90.4447 77.5077 90.3877 78.1755 90.1725 78.7901C89.9652 79.3941 89.6308 79.8983 89.1692 80.3024C88.7064 80.6974 88.156 80.9396 87.5183 81.0293C87.0932 81.089 86.6702 81.0636 86.2494 80.9531C85.8273 80.8334 85.4587 80.659 85.1438 80.4299C84.8288 80.2008 84.6189 79.9476 84.5139 79.6702L84.8471 79.4254L85.531 84.2916L84.0892 84.4942ZM87.0975 79.7453C87.5227 79.6856 87.8867 79.526 88.1895 79.2667C88.4924 79.0074 88.7149 78.6792 88.857 78.2822C88.9992 77.8852 89.0371 77.4511 88.9709 76.9797C88.9046 76.5083 88.7491 76.1061 88.5044 75.7729C88.2676 75.4292 87.9679 75.1744 87.6052 75.0086C87.2426 74.8428 86.8441 74.7904 86.4097 74.8514C85.9753 74.9125 85.6067 75.0727 85.3039 75.332C84.9997 75.5821 84.7766 75.9056 84.6344 76.3026C84.4923 76.6996 84.4544 77.1338 84.5206 77.6051C84.5868 78.0765 84.743 78.4834 84.989 78.8258C85.2351 79.1682 85.5394 79.4224 85.902 79.5882C86.2646 79.754 86.6631 79.8064 87.0975 79.7453ZM91.652 76.9987L91.4533 75.5846L95.4461 75.0235L95.6448 76.4376L91.652 76.9987ZM98.5864 79.3465L97.4486 71.2501C97.3901 70.8342 97.4306 70.4515 97.57 70.102C97.7093 69.7525 97.9278 69.4626 98.2253 69.2323C98.5228 69.002 98.8841 68.857 99.3093 68.7972C99.6051 68.7557 99.8901 68.7722 100.164 68.8467C100.439 68.9212 100.668 69.0399 100.851 69.2027L100.519 70.3661C100.384 70.2721 100.237 70.2031 100.08 70.1592C99.9313 70.1047 99.7921 70.0866 99.6627 70.1048C99.4686 70.1321 99.3068 70.1878 99.1773 70.272C99.0556 70.3456 98.9716 70.4517 98.9251 70.5902C98.8773 70.7194 98.8657 70.8718 98.8904 71.0474L100.028 79.1439L99.3073 79.2452C99.1872 79.2621 99.067 79.279 98.9469 79.2958C98.8267 79.3127 98.7066 79.3296 98.5864 79.3465ZM96.6016 73.6735L96.4165 72.3565L100.742 71.7486L100.927 73.0656L96.6016 73.6735ZM103.48 78.6587L102.457 71.3802L103.885 71.1795L104.908 78.458L103.48 78.6587ZM102.925 69.6746C102.62 69.7175 102.373 69.672 102.184 69.5383C101.996 69.4046 101.882 69.1944 101.841 68.9079C101.804 68.6399 101.856 68.411 101.999 68.2212C102.152 68.0302 102.376 67.9139 102.671 67.8723C102.976 67.8295 103.223 67.8749 103.411 68.0086C103.6 68.1424 103.714 68.3525 103.755 68.639C103.792 68.9071 103.735 69.1366 103.583 69.3277C103.44 69.5174 103.22 69.6331 102.925 69.6746ZM107.064 78.155L106.041 70.8766L107.483 70.6739L107.804 72.9615L107.588 72.4264C107.64 72.0609 107.766 71.718 107.966 71.3977C108.176 71.0761 108.426 70.8101 108.717 70.5995C109.017 70.3877 109.338 70.2577 109.68 70.2097C109.837 70.1876 109.987 70.1807 110.129 70.1889C110.281 70.1959 110.401 70.212 110.489 70.2373L110.333 71.8426C110.216 71.812 110.086 71.7926 109.943 71.7843C109.809 71.7655 109.677 71.7652 109.548 71.7834C109.298 71.8185 109.065 71.9031 108.848 72.0372C108.639 72.1608 108.459 72.3228 108.308 72.5231C108.165 72.7128 108.059 72.9304 107.99 73.1757C107.92 73.4118 107.903 73.6639 107.941 73.9319L108.506 77.9524L107.064 78.155ZM115.068 77.1715C114.458 77.2573 113.893 77.2283 113.373 77.0845C112.854 76.9408 112.403 76.6837 112.021 76.3133L112.874 75.3451C113.197 75.6296 113.531 75.823 113.875 75.9255C114.227 76.0173 114.611 76.034 115.027 75.9756C115.194 75.9522 115.343 75.9123 115.477 75.8558C115.618 75.7888 115.734 75.7066 115.824 75.6091C115.923 75.5104 115.993 75.4016 116.033 75.2829C116.071 75.155 116.081 75.0217 116.061 74.883C116.027 74.6427 115.912 74.461 115.716 74.3378C115.614 74.2861 115.457 74.2375 115.243 74.1922C115.037 74.1363 114.771 74.0888 114.445 74.0498C113.89 73.9865 113.429 73.8911 113.062 73.7635C112.696 73.636 112.404 73.4743 112.188 73.2785C112.025 73.1223 111.897 72.9471 111.803 72.7529C111.709 72.5494 111.644 72.3229 111.609 72.0734C111.566 71.7684 111.592 71.482 111.686 71.2143C111.788 70.936 111.942 70.6882 112.147 70.4709C112.36 70.243 112.617 70.0561 112.916 69.9103C113.226 69.7632 113.561 69.6643 113.921 69.6136C114.263 69.5656 114.607 69.5644 114.953 69.61C115.307 69.6544 115.641 69.7442 115.952 69.8796C116.263 70.0149 116.532 70.1891 116.76 70.4021L116.069 71.4182C115.869 71.2673 115.653 71.1421 115.422 71.0426C115.2 70.9325 114.977 70.8554 114.754 70.8114C114.531 70.7673 114.332 70.7576 114.156 70.7823C113.962 70.8096 113.789 70.8527 113.637 70.9118C113.485 70.9708 113.359 71.0451 113.258 71.1347C113.167 71.2229 113.101 71.3264 113.061 71.4451C113.022 71.5638 113.011 71.6924 113.031 71.8311C113.057 71.9499 113.101 72.0616 113.163 72.166C113.233 72.2599 113.319 72.3373 113.422 72.3982C113.534 72.4579 113.697 72.515 113.912 72.5696C114.127 72.6242 114.397 72.6664 114.722 72.6962C115.201 72.7514 115.599 72.8321 115.915 72.9385C116.24 73.0342 116.503 73.1622 116.704 73.3224C116.914 73.472 117.072 73.6571 117.178 73.8778C117.285 74.0985 117.358 74.3521 117.398 74.6386C117.457 75.0545 117.389 75.4457 117.196 75.8122C117.01 76.1682 116.731 76.4665 116.36 76.7072C115.989 76.9479 115.558 77.1027 115.068 77.1715ZM120.124 76.3196L118.84 67.1833L120.268 66.9827L121.552 76.1189L120.124 76.3196ZM117.785 70.6398L117.59 69.2535L122.221 68.6027L122.416 69.9891L117.785 70.6398Z" fill="#562F00"/>
<defs>
<filter id="filter0_dd_282_2865" x="64.909" y="10.0186" width="25.8501" height="25.8481" filterUnits="userSpaceOnUse" color-interpolation-filters="sRGB">
<feFlood flood-opacity="0" result="BackgroundImageFix"/>
<feColorMatrix in="SourceAlpha" type="matrix" values="0 0 0 0 0 0 0 0 0 0 0 0 0 0 0 0 0 0 127 0" result="hardAlpha"/>
<feMorphology radius="1.23077" operator="dilate" in="SourceAlpha" result="effect1_dropShadow_282_2865"/>
<feOffset dy="1.23077"/>
<feGaussianBlur stdDeviation="1.84615"/>
<feColorMatrix type="matrix" values="0 0 0 0 0 0 0 0 0 0 0 0 0 0 0 0 0 0 0.15 0"/>
<feBlend mode="normal" in2="BackgroundImageFix" result="effect1_dropShadow_282_2865"/>
<feColorMatrix in="SourceAlpha" type="matrix" values="0 0 0 0 0 0 0 0 0 0 0 0 0 0 0 0 0 0 127 0" result="hardAlpha"/>
<feOffset dy="1.23077"/>
<feGaussianBlur stdDeviation="1.23077"/>
<feColorMatrix type="matrix" values="0 0 0 0 0 0 0 0 0 0 0 0 0 0 0 0 0 0 0.3 0"/>
<feBlend mode="normal" in2="effect1_dropShadow_282_2865" result="effect2_dropShadow_282_2865"/>
<feBlend mode="normal" in="SourceGraphic" in2="effect2_dropShadow_282_2865" result="shape"/>
</filter>
<filter id="filter1_dd_282_2865" x="50.7215" y="21.9327" width="45.8813" height="38.2387" filterUnits="userSpaceOnUse" color-interpolation-filters="sRGB">
<feFlood flood-opacity="0" result="BackgroundImageFix"/>
<feColorMatrix in="SourceAlpha" type="matrix" values="0 0 0 0 0 0 0 0 0 0 0 0 0 0 0 0 0 0 127 0" result="hardAlpha"/>
<feMorphology radius="1.23077" operator="dilate" in="SourceAlpha" result="effect1_dropShadow_282_2865"/>
<feOffset dy="1.23077"/>
<feGaussianBlur stdDeviation="1.84615"/>
<feColorMatrix type="matrix" values="0 0 0 0 0 0 0 0 0 0 0 0 0 0 0 0 0 0 0.15 0"/>
<feBlend mode="normal" in2="BackgroundImageFix" result="effect1_dropShadow_282_2865"/>
<feColorMatrix in="SourceAlpha" type="matrix" values="0 0 0 0 0 0 0 0 0 0 0 0 0 0 0 0 0 0 127 0" result="hardAlpha"/>
<feOffset dy="1.23077"/>
<feGaussianBlur stdDeviation="1.23077"/>
<feColorMatrix type="matrix" values="0 0 0 0 0 0 0 0 0 0 0 0 0 0 0 0 0 0 0.3 0"/>
<feBlend mode="normal" in2="effect1_dropShadow_282_2865" result="effect2_dropShadow_282_2865"/>
<feBlend mode="normal" in="SourceGraphic" in2="effect2_dropShadow_282_2865" result="shape"/>
</filter>
</defs>
</svg>
