<svg width="64" height="64" viewBox="0 0 64 64" fill="none" xmlns="http://www.w3.org/2000/svg">
<rect y="7.79369" width="56" height="56" rx="4" transform="rotate(-8 0 7.79369)" fill="#F2E9DC"/>
<g filter="url(#filter0_dd_401_2347)">
<rect x="30.5469" y="15.114" width="11.0769" height="11.0769" rx="5.53846" transform="rotate(-8 30.5469 15.114)" fill="#F2E9DC"/>
<rect x="29.1568" y="14.0665" width="13.5385" height="13.5385" rx="6.76923" transform="rotate(-8 29.1568 14.0665)" stroke="#F2E9DC" stroke-width="2.46154"/>
</g>
<g filter="url(#filter1_dd_401_2347)">
<path d="M20.979 48.1299L17.2583 38.8982C16.6603 37.4143 17.6145 35.7631 19.1988 35.5405L28.0396 34.298L30.1503 30.5368C31.2783 28.5269 33.28 27.1589 35.5624 26.8381L39.5682 26.2751C41.5697 25.9938 43.599 26.5452 45.183 27.8006L45.9623 28.4183C46.953 29.2035 47.6036 30.3396 47.7795 31.5913L48.1232 34.0369C48.4009 36.0129 47.7321 38.0043 46.3181 39.4122C45.3458 40.3801 44.0859 41.0065 42.7274 41.1974L38.3994 41.8057L40.8313 47.2263L23.6047 49.6473C22.4848 49.8047 21.4017 49.1788 20.979 48.1299Z" fill="#F2E9DC"/>
<path d="M39.3969 25.0566C41.7319 24.7285 44.0996 25.3714 45.9475 26.8361L46.7266 27.4534C47.9648 28.4348 48.7781 29.8554 48.998 31.42L49.3417 33.8657C49.6733 36.2253 48.8754 38.6036 47.1868 40.2847C46.0258 41.4405 44.5209 42.1879 42.8987 42.4159L40.1928 42.7962L41.9546 46.7221L42.6243 48.2176L23.7764 50.8665C22.0965 51.1026 20.4713 50.1632 19.8372 48.5899L16.1168 39.3586C15.2198 37.1329 16.6509 34.6558 19.0271 34.3216L27.2655 33.1637L29.0769 29.9349C30.3929 27.5899 32.7285 25.9938 35.3913 25.6196L39.3969 25.0566Z" stroke="#F2E9DC" stroke-width="2.46154" stroke-linecap="round"/>
</g>
<path d="M20.979 48.1299L17.2583 38.8982C16.6603 37.4143 17.6145 35.7631 19.1988 35.5405L28.0396 34.298L30.1503 30.5368C31.2783 28.5269 33.28 27.1589 35.5624 26.8381L39.5682 26.2751C41.5697 25.9938 43.599 26.5452 45.183 27.8006L45.9623 28.4183C46.953 29.2035 47.6036 30.3396 47.7795 31.5913L48.1232 34.0369C48.4009 36.0129 47.7321 38.0043 46.3181 39.4122C45.3458 40.3801 44.0859 41.0065 42.7274 41.1974L38.3994 41.8057L40.8313 47.2263L23.6047 49.6473C22.4848 49.8047 21.4017 49.1788 20.979 48.1299Z" fill="#FECE99"/>
<path d="M47.4081 46.302L40.8313 47.2263M40.8313 47.2263L23.6047 49.6473C22.4848 49.8047 21.4017 49.1788 20.979 48.1299L17.2583 38.8982C16.6603 37.4143 17.6145 35.7631 19.1988 35.5405L28.0396 34.298M40.8313 47.2263L38.3994 41.8057M28.0396 34.298L32.785 33.6311C33.8699 33.4786 34.925 34.0615 35.3735 35.0611L35.9675 36.3851M28.0396 34.298L30.1503 30.5368C31.2783 28.5269 33.28 27.1589 35.5624 26.8381L39.5682 26.2751C41.5697 25.9938 43.599 26.5452 45.183 27.8006L45.9623 28.4183C46.953 29.2035 47.6036 30.3396 47.7795 31.5913L48.1232 34.0369C48.4009 36.0129 47.7321 38.0043 46.3181 39.4122C45.3458 40.3801 44.0859 41.0065 42.7274 41.1974L38.3994 41.8057M38.3994 41.8057L35.9675 36.3851M35.9675 36.3851L40.3927 35.7632C41.739 35.574 42.6769 34.3293 42.4877 32.983L42.3891 32.2813" stroke="#FE7500" stroke-width="1.23077" stroke-linecap="round"/>
<rect x="29.8518" y="14.5903" width="12.3077" height="12.3077" rx="6.15385" transform="rotate(-8 29.8518 14.5903)" fill="#FECE99" stroke="#FE7500" stroke-width="1.23077"/>
<defs>
<filter id="filter0_dd_401_2347" x="23.8777" y="8.13459" width="25.8501" height="25.8481" filterUnits="userSpaceOnUse" color-interpolation-filters="sRGB">
<feFlood flood-opacity="0" result="BackgroundImageFix"/>
<feColorMatrix in="SourceAlpha" type="matrix" values="0 0 0 0 0 0 0 0 0 0 0 0 0 0 0 0 0 0 127 0" result="hardAlpha"/>
<feMorphology radius="1.23077" operator="dilate" in="SourceAlpha" result="effect1_dropShadow_401_2347"/>
<feOffset dy="1.23077"/>
<feGaussianBlur stdDeviation="1.84615"/>
<feColorMatrix type="matrix" values="0 0 0 0 0 0 0 0 0 0 0 0 0 0 0 0 0 0 0.15 0"/>
<feBlend mode="normal" in2="BackgroundImageFix" result="effect1_dropShadow_401_2347"/>
<feColorMatrix in="SourceAlpha" type="matrix" values="0 0 0 0 0 0 0 0 0 0 0 0 0 0 0 0 0 0 127 0" result="hardAlpha"/>
<feOffset dy="1.23077"/>
<feGaussianBlur stdDeviation="1.23077"/>
<feColorMatrix type="matrix" values="0 0 0 0 0 0 0 0 0 0 0 0 0 0 0 0 0 0 0.3 0"/>
<feBlend mode="normal" in2="effect1_dropShadow_401_2347" result="effect2_dropShadow_401_2347"/>
<feBlend mode="normal" in="SourceGraphic" in2="effect2_dropShadow_401_2347" result="shape"/>
</filter>
<filter id="filter1_dd_401_2347" x="9.6902" y="20.0487" width="45.8813" height="38.2387" filterUnits="userSpaceOnUse" color-interpolation-filters="sRGB">
<feFlood flood-opacity="0" result="BackgroundImageFix"/>
<feColorMatrix in="SourceAlpha" type="matrix" values="0 0 0 0 0 0 0 0 0 0 0 0 0 0 0 0 0 0 127 0" result="hardAlpha"/>
<feMorphology radius="1.23077" operator="dilate" in="SourceAlpha" result="effect1_dropShadow_401_2347"/>
<feOffset dy="1.23077"/>
<feGaussianBlur stdDeviation="1.84615"/>
<feColorMatrix type="matrix" values="0 0 0 0 0 0 0 0 0 0 0 0 0 0 0 0 0 0 0.15 0"/>
<feBlend mode="normal" in2="BackgroundImageFix" result="effect1_dropShadow_401_2347"/>
<feColorMatrix in="SourceAlpha" type="matrix" values="0 0 0 0 0 0 0 0 0 0 0 0 0 0 0 0 0 0 127 0" result="hardAlpha"/>
<feOffset dy="1.23077"/>
<feGaussianBlur stdDeviation="1.23077"/>
<feColorMatrix type="matrix" values="0 0 0 0 0 0 0 0 0 0 0 0 0 0 0 0 0 0 0.3 0"/>
<feBlend mode="normal" in2="effect1_dropShadow_401_2347" result="effect2_dropShadow_401_2347"/>
<feBlend mode="normal" in="SourceGraphic" in2="effect2_dropShadow_401_2347" result="shape"/>
</filter>
</defs>
</svg>
