<svg width="151" height="101" viewBox="0 0 151 101" fill="none" xmlns="http://www.w3.org/2000/svg">
<rect x="56.9648" y="6.40234" width="48" height="48" rx="4" transform="rotate(8 56.9648 6.40234)" fill="#F2E9DC"/>
<g filter="url(#filter0_dd_282_3025)">
<path d="M73.9838 29.9001C69.942 26.1826 68.4566 22.4949 70.1127 16.3282L89.1258 19.0003C87.6756 27.5824 85.6497 30.169 82.1521 31.1575C81.2348 31.4168 80.4935 32.1369 80.3609 33.0808L80.1363 34.6787C80.0384 35.3753 80.2884 36.0733 80.7859 36.5704C84.9296 40.7109 86.2885 44.1915 85.1476 50.7557L65.1838 47.95C65.6756 41.3994 68.0803 38.3625 73.2789 35.5148C73.8987 35.1753 74.3348 34.571 74.4332 33.8712L74.7139 31.8739C74.8174 31.1373 74.5312 30.4036 73.9838 29.9001Z" fill="#F2E9DC"/>
<path d="M65.3594 15.6602L89.1258 19.0003M93.8791 19.6683L89.1258 19.0003M60.9058 47.3487L65.1838 47.95M89.4256 51.3569L85.1476 50.7557M70.1127 16.3282C68.4566 22.4949 69.942 26.1826 73.9838 29.9001C74.5312 30.4036 74.8174 31.1373 74.7139 31.8739L74.4332 33.8712C74.3348 34.571 73.8987 35.1753 73.2789 35.5148C68.0803 38.3625 65.6756 41.3994 65.1838 47.95M65.1838 47.95L85.1476 50.7557M85.1476 50.7557C86.2885 44.1915 84.9296 40.7109 80.7859 36.5704C80.2884 36.0733 80.0384 35.3753 80.1363 34.6787L80.3609 33.0808C80.4935 32.1369 81.2348 31.4168 82.1521 31.1575C85.6497 30.169 87.6756 27.5824 89.1258 19.0003" stroke="#F2E9DC" stroke-width="4" stroke-linecap="round"/>
</g>
<path d="M73.9838 29.9001C69.942 26.1826 68.4566 22.4949 70.1127 16.3282L89.1258 19.0003C87.6756 27.5824 85.6497 30.169 82.1521 31.1575C81.2348 31.4168 80.4935 32.1369 80.3609 33.0808L80.1363 34.6787C80.0384 35.3753 80.2884 36.0733 80.7859 36.5704C84.9296 40.7109 86.2885 44.1915 85.1476 50.7557L65.1838 47.95C65.6756 41.3994 68.0803 38.3625 73.2789 35.5148C73.8987 35.1753 74.3348 34.571 74.4332 33.8712L74.7139 31.8739C74.8174 31.1373 74.5312 30.4036 73.9838 29.9001Z" fill="#FFCE99"/>
<path d="M65.3594 15.6602L89.1258 19.0003M93.8791 19.6683L89.1258 19.0003M60.9058 47.3487L65.1838 47.95M89.4256 51.3569L85.1476 50.7557M70.1127 16.3282C68.4566 22.4949 69.942 26.1826 73.9838 29.9001C74.5312 30.4036 74.8174 31.1373 74.7139 31.8739L74.4332 33.8712C74.3348 34.571 73.8987 35.1753 73.2789 35.5148C68.0803 38.3625 65.6756 41.3994 65.1838 47.95M65.1838 47.95L85.1476 50.7557M85.1476 50.7557C86.2885 44.1915 84.9296 40.7109 80.7859 36.5704C80.2884 36.0733 80.0384 35.3753 80.1363 34.6787L80.3609 33.0808C80.4935 32.1369 81.2348 31.4168 82.1521 31.1575C85.6497 30.169 87.6756 27.5824 89.1258 19.0003" stroke="#FE7500" stroke-width="1.23" stroke-linecap="round"/>
<rect x="3.89844" y="53.4746" width="140" height="28" rx="8" transform="rotate(8 3.89844 53.4746)" fill="#FECE99"/>
<path d="M27.8411 76.0254L29.205 66.3208L30.7023 66.5312L29.541 74.794L34.0883 75.4331L33.8857 76.8749L27.8411 76.0254ZM38.7282 77.6969C38.0166 77.5969 37.4016 77.3455 36.8832 76.9428C36.3754 76.5321 35.9994 76.0221 35.7552 75.4129C35.5122 74.7944 35.4421 74.1201 35.5447 73.3899C35.6473 72.6597 35.9 72.0355 36.3027 71.5172C36.7067 70.9896 37.2087 70.603 37.8087 70.3575C38.4193 70.104 39.0804 70.0273 39.7921 70.1273C40.4945 70.226 41.0996 70.4807 41.6074 70.8914C42.1257 71.2941 42.5064 71.8047 42.7493 72.4232C42.9936 73.0324 43.0644 73.7021 42.9618 74.4323C42.8592 75.1625 42.6058 75.7913 42.2018 76.3189C41.7991 76.8372 41.2925 77.2231 40.6819 77.4766C40.0819 77.7222 39.4307 77.7956 38.7282 77.6969ZM38.9114 76.3937C39.3458 76.4547 39.7489 76.403 40.1208 76.2385C40.4939 76.0647 40.8035 75.8066 41.0496 75.4642C41.2969 75.1126 41.4491 74.7004 41.5061 74.2277C41.5829 73.7484 41.5502 73.3103 41.4081 72.9133C41.2672 72.5071 41.0408 72.1736 40.7287 71.913C40.4166 71.6524 40.0433 71.4915 39.6089 71.4305C39.1745 71.3694 38.7661 71.4251 38.3837 71.5976C38.0119 71.7621 37.7023 72.0202 37.4549 72.3719C37.2089 72.7143 37.0574 73.1218 37.0004 73.5945C36.9249 74.0646 36.9575 74.5027 37.0984 74.9089C37.2405 75.3059 37.467 75.6393 37.7778 75.9092C38.0991 76.1711 38.477 76.3326 38.9114 76.3937ZM43.9721 78.2925L44.995 71.014L46.4229 71.2147L46.2125 72.712L45.9396 72.8433C46.0775 72.5328 46.2993 72.2623 46.605 72.032C46.912 71.7924 47.262 71.6154 47.6551 71.501C48.0495 71.3773 48.4408 71.3428 48.8289 71.3973C49.3835 71.4753 49.83 71.6511 50.1686 71.9249C50.5084 72.1894 50.7395 72.5565 50.862 73.0261C50.9845 73.4957 50.9984 74.0679 50.9036 74.7426L50.2801 79.179L48.8521 78.9783L49.462 74.639C49.5204 74.2231 49.513 73.8733 49.4398 73.5897C49.3678 73.2968 49.2248 73.0741 49.0106 72.9214C48.7977 72.7596 48.519 72.6638 48.1744 72.6343C47.8972 72.5953 47.6365 72.6058 47.3924 72.6657C47.1497 72.7165 46.9295 72.808 46.7318 72.9405C46.5433 73.0742 46.3833 73.2402 46.2518 73.4385C46.1308 73.6289 46.0534 73.8442 46.0196 74.0845L45.4 78.4932L44.693 78.3938C44.5728 78.3769 44.4527 78.36 44.3325 78.3431C44.2124 78.3263 44.0922 78.3094 43.9721 78.2925ZM54.9938 83.0931C54.4762 83.0204 53.9703 82.8645 53.4761 82.6254C52.9898 82.3968 52.6078 82.131 52.3299 81.8281L53.0126 80.793C53.178 80.9576 53.3783 81.1083 53.6135 81.245C53.8475 81.391 54.0992 81.5112 54.3687 81.6057C54.6369 81.7093 54.905 81.78 55.173 81.8177C55.6814 81.8891 56.1182 81.8657 56.4836 81.7474C56.8489 81.6291 57.1421 81.4205 57.3632 81.1217C57.5843 80.8229 57.7286 80.4332 57.7961 79.9526L57.9929 78.5523L58.1318 78.6708C58.0453 78.9508 57.8538 79.2067 57.5574 79.4383C57.2715 79.6621 56.9273 79.8305 56.525 79.9436C56.1227 80.0567 55.7228 80.0853 55.3254 80.0295C54.6322 79.932 54.0357 79.6833 53.5358 79.2831C53.0465 78.8751 52.6844 78.3671 52.4494 77.7591C52.2157 77.1419 52.1501 76.4682 52.2527 75.7381C52.3553 75.0079 52.5988 74.3824 52.983 73.8614C53.3778 73.3326 53.8659 72.9441 54.4475 72.6959C55.0395 72.4398 55.6729 72.3592 56.3476 72.454C56.6249 72.493 56.8877 72.5676 57.1361 72.6779C57.3858 72.779 57.6125 72.9098 57.8161 73.0704C58.0211 73.2217 58.201 73.3837 58.3558 73.5562C58.5106 73.7288 58.6318 73.906 58.7193 74.088C58.8068 74.2699 58.8541 74.4368 58.861 74.5886L58.5404 74.6566L58.7801 72.9514L60.208 73.1521L59.2475 79.9869C59.1656 80.5692 59.0057 81.0698 58.7678 81.4888C58.5378 81.9183 58.2396 82.2628 57.8732 82.5223C57.5056 82.7911 57.0797 82.9716 56.5954 83.0637C56.1099 83.1652 55.5761 83.175 54.9938 83.0931ZM55.663 78.7338C56.1159 78.7975 56.5329 78.7477 56.9139 78.5845C57.295 78.4213 57.6086 78.1684 57.8547 77.826C58.1007 77.4836 58.2575 77.0721 58.325 76.5915C58.3926 76.1109 58.3507 75.6714 58.1993 75.2731C58.0585 74.8669 57.8274 74.5328 57.506 74.2709C57.1939 74.0103 56.8115 73.8481 56.3586 73.7845C55.9149 73.7221 55.5019 73.7772 55.1195 73.9496C54.7477 74.1142 54.4335 74.3716 54.1769 74.722C53.9308 75.0644 53.7747 75.4713 53.7084 75.9426C53.6422 76.414 53.6795 76.8528 53.8203 77.259C53.9717 77.6573 54.2034 77.9868 54.5155 78.2474C54.8369 78.5093 55.2193 78.6715 55.663 78.7338ZM68.0785 81.8218C67.4038 81.727 66.8218 81.4755 66.3325 81.0675C65.8524 80.6607 65.4955 80.1487 65.2618 79.5315C65.0373 78.9156 64.9751 78.2518 65.0751 77.5401C65.1752 76.8285 65.4179 76.2075 65.8035 75.6774C66.1983 75.1485 66.6824 74.7547 67.256 74.496C67.8388 74.2386 68.4676 74.1574 69.1423 74.2522C69.7893 74.3431 70.3574 74.5596 70.8465 74.9017C71.3462 75.2358 71.7029 75.6488 71.9165 76.1406L70.9899 77.0001C70.8719 76.7667 70.7097 76.546 70.5033 76.3379C70.2969 76.1298 70.0715 75.9567 69.827 75.8187C69.5825 75.6807 69.3401 75.5948 69.0997 75.561C68.6561 75.4986 68.2431 75.5537 67.8607 75.7262C67.4889 75.8907 67.1746 76.1481 66.918 76.4985C66.6615 76.8488 66.5 77.2597 66.4338 77.7311C66.3675 78.2024 66.4141 78.6425 66.5734 79.0514C66.734 79.4509 66.9743 79.7863 67.2944 80.0575C67.6144 80.3287 67.987 80.4941 68.4122 80.5539C68.6617 80.589 68.9079 80.5811 69.1506 80.5304C69.4026 80.481 69.6512 80.3887 69.8964 80.2535C70.1416 80.1183 70.3782 79.9442 70.606 79.7312L71.2599 80.8127C70.9057 81.1871 70.4324 81.4693 69.8402 81.6594C69.2572 81.8508 68.67 81.9049 68.0785 81.8218ZM75.6447 82.8852C74.933 82.7851 74.318 82.5338 73.7997 82.131C73.2919 81.7204 72.9159 81.2104 72.6716 80.6012C72.4287 79.9827 72.3585 79.3083 72.4611 78.5782C72.5638 77.848 72.8164 77.2238 73.2191 76.7054C73.6232 76.1779 74.1252 75.7913 74.7252 75.5458C75.3358 75.2923 75.9969 75.2155 76.7085 75.3155C77.411 75.4143 78.0161 75.669 78.5239 76.0796C79.0422 76.4823 79.4228 76.993 79.6658 77.6115C79.91 78.2207 79.9809 78.8904 79.8782 79.6206C79.7756 80.3507 79.5223 80.9796 79.1183 81.5072C78.7156 82.0255 78.2089 82.4114 77.5984 82.6649C76.9984 82.9105 76.3471 82.9839 75.6447 82.8852ZM75.8279 81.582C76.2623 81.643 76.6654 81.5913 77.0372 81.4268C77.4104 81.253 77.72 80.9949 77.966 80.6525C78.2134 80.3008 78.3655 79.8887 78.4226 79.416C78.4993 78.9367 78.4667 78.4985 78.3245 78.1016C78.1837 77.6953 77.9572 77.3619 77.6451 77.1013C77.333 76.8406 76.9598 76.6798 76.5254 76.6187C76.091 76.5577 75.6826 76.6134 75.3002 76.7859C74.9284 76.9504 74.6188 77.2085 74.3714 77.5601C74.1254 77.9025 73.9738 78.3101 73.9168 78.7828C73.8413 79.2528 73.874 79.691 74.0149 80.0972C74.157 80.4942 74.3835 80.8276 74.6943 81.0975C75.0156 81.3594 75.3935 81.5209 75.8279 81.582ZM83.42 83.9779C82.9024 83.9052 82.4664 83.7214 82.112 83.4265C81.7668 83.1329 81.5185 82.754 81.3669 82.2897C81.2247 81.8268 81.1957 81.2949 81.2802 80.6941L81.9114 76.2023L83.3394 76.403L82.7627 80.5066C82.7029 80.9318 82.7157 81.3106 82.8009 81.643C82.8967 81.9675 83.0576 82.2305 83.2838 82.4319C83.5192 82.6346 83.8172 82.7613 84.1776 82.812C84.4456 82.8497 84.6964 82.8425 84.9299 82.7905C85.1647 82.7292 85.3717 82.6311 85.5509 82.496C85.7394 82.3623 85.8954 82.191 86.019 81.9822C86.1426 81.7734 86.2226 81.5396 86.259 81.2808L86.8747 76.8998L88.3026 77.1005L87.2797 84.379L85.8518 84.1783L86.0661 82.6533L86.339 82.522C86.18 82.8484 85.947 83.1314 85.64 83.371C85.3423 83.6119 85.0015 83.7902 84.6177 83.9059C84.2351 84.0123 83.8359 84.0363 83.42 83.9779ZM89.2493 84.6558L90.2722 77.3773L91.7141 77.5799L91.3926 79.8675L91.3319 79.2934C91.4829 78.9565 91.6987 78.6617 91.9793 78.4089C92.2691 78.1575 92.5828 77.9707 92.9204 77.8485C93.2673 77.7276 93.6117 77.6911 93.9537 77.7392C94.1108 77.7613 94.2568 77.7959 94.3915 77.8431C94.5355 77.8916 94.6465 77.9402 94.7245 77.9889L94.1319 79.489C94.0275 79.4272 93.9079 79.3727 93.7732 79.3255C93.649 79.2704 93.5222 79.2337 93.3928 79.2155C93.1432 79.1804 92.8958 79.1975 92.6504 79.2667C92.4156 79.3279 92.1981 79.434 91.9978 79.5849C91.808 79.7279 91.6461 79.9078 91.512 80.1246C91.3791 80.3321 91.2939 80.5699 91.2562 80.8379L90.6912 84.8584L89.2493 84.6558ZM97.2143 85.9166C96.6043 85.8308 96.0693 85.6472 95.6093 85.3658C95.1493 85.0844 94.7868 84.713 94.5218 84.2516L95.6091 83.5562C95.8409 83.9187 96.1082 84.1966 96.4109 84.3899C96.7242 84.5753 97.0887 84.6972 97.5046 84.7557C97.671 84.7791 97.8261 84.782 97.9699 84.7645C98.1243 84.7391 98.2582 84.6919 98.3715 84.623C98.4941 84.5554 98.591 84.4701 98.662 84.367C98.7343 84.2546 98.7803 84.1291 98.7997 83.9905C98.8335 83.7502 98.773 83.5437 98.6182 83.3712C98.5348 83.2935 98.3967 83.2034 98.2038 83.1009C98.0214 82.9904 97.7789 82.8715 97.4763 82.7442C96.9597 82.5302 96.5428 82.3114 96.2255 82.0877C95.9082 81.864 95.6727 81.6283 95.5191 81.3805C95.4051 81.1854 95.3301 80.9816 95.2939 80.7692C95.2591 80.5475 95.2592 80.3119 95.2943 80.0624C95.3372 79.7574 95.4408 79.4892 95.6053 79.2578C95.7803 79.0185 95.9963 78.8227 96.2534 78.6703C96.521 78.51 96.819 78.4011 97.1476 78.3436C97.4853 78.2874 97.8345 78.2846 98.1949 78.3353C98.5369 78.3833 98.8677 78.4769 99.1875 78.6161C99.5165 78.7566 99.8119 78.9348 100.074 79.1507C100.336 79.3665 100.547 79.6083 100.707 79.8759L99.7623 80.662C99.6114 80.4618 99.4388 80.282 99.2444 80.1227C99.0605 79.9555 98.8675 79.82 98.6653 79.7162C98.4631 79.6123 98.2742 79.5481 98.0986 79.5234C97.9045 79.4961 97.7263 79.4899 97.564 79.5048C97.4017 79.5197 97.2599 79.5563 97.1386 79.6147C97.0265 79.6743 96.935 79.7557 96.8639 79.8588C96.7929 79.962 96.7476 80.0828 96.7281 80.2215C96.7205 80.3429 96.732 80.4624 96.7626 80.5798C96.8038 80.6892 96.8654 80.7874 96.9474 80.8743C97.0387 80.9626 97.1801 81.0626 97.3718 81.1743C97.5634 81.2861 97.8112 81.401 98.115 81.5191C98.5603 81.7042 98.9204 81.8915 99.1953 82.0809C99.4809 82.2624 99.6984 82.458 99.8481 82.6675C100.008 82.8691 100.109 83.0906 100.151 83.3321C100.192 83.5735 100.193 83.8375 100.152 84.124C100.094 84.5399 99.9211 84.8974 99.634 85.1963C99.3575 85.4873 99.0076 85.6973 98.5841 85.8263C98.1607 85.9553 97.7041 85.9854 97.2143 85.9166ZM104.785 86.9806C104.037 86.8754 103.393 86.6248 102.855 86.2287C102.328 85.8247 101.937 85.322 101.682 84.7207C101.436 84.1207 101.364 83.4602 101.465 82.7393C101.546 82.1663 101.712 81.657 101.963 81.2117C102.214 80.7663 102.525 80.3953 102.897 80.0988C103.279 79.7944 103.709 79.5815 104.188 79.4603C104.678 79.3312 105.19 79.3043 105.726 79.3796C106.198 79.4459 106.624 79.6 107.005 79.842C107.387 80.0747 107.703 80.369 107.955 80.7248C108.216 81.082 108.394 81.4888 108.49 81.9452C108.597 82.3938 108.61 82.8716 108.529 83.3786L108.43 83.9867L102.482 83.1508L102.323 81.9691L107.356 82.6764L107.114 82.8829L107.161 82.5501C107.176 82.2412 107.113 81.9543 106.971 81.6893C106.829 81.4243 106.634 81.2037 106.386 81.0274C106.137 80.8511 105.856 80.7408 105.541 80.6967C105.042 80.6265 104.608 80.6645 104.239 80.8105C103.871 80.9473 103.573 81.1882 103.346 81.5332C103.119 81.869 102.969 82.3049 102.893 82.841C102.822 83.3493 102.866 83.8079 103.025 84.2167C103.186 84.6163 103.446 84.945 103.805 85.2029C104.165 85.4608 104.599 85.6255 105.107 85.6969C105.468 85.7476 105.809 85.7343 106.131 85.657C106.462 85.581 106.83 85.4112 107.234 85.1476L107.813 86.261C107.56 86.4516 107.26 86.6074 106.913 86.7283C106.576 86.8505 106.219 86.9371 105.845 86.9881C105.481 87.0312 105.127 87.0287 104.785 86.9806ZM111.905 87.9812C111.295 87.8955 110.76 87.7119 110.3 87.4305C109.84 87.1491 109.478 86.7777 109.213 86.3163L110.3 85.6208C110.532 85.9833 110.799 86.2612 111.102 86.4545C111.415 86.6399 111.78 86.7619 112.195 86.8203C112.362 86.8437 112.517 86.8467 112.661 86.8292C112.815 86.8037 112.949 86.7566 113.062 86.6877C113.185 86.6201 113.282 86.5347 113.353 86.4316C113.425 86.3193 113.471 86.1938 113.491 86.0551C113.524 85.8148 113.464 85.6084 113.309 85.4358C113.226 85.3581 113.087 85.268 112.895 85.1655C112.712 85.0551 112.47 84.9362 112.167 84.8088C111.651 84.5948 111.234 84.376 110.916 84.1523C110.599 83.9287 110.364 83.6929 110.21 83.4451C110.096 83.25 110.021 83.0463 109.985 82.8339C109.95 82.6122 109.95 82.3766 109.985 82.127C110.028 81.822 110.132 81.5538 110.296 81.3225C110.471 81.0832 110.687 80.8873 110.944 80.735C111.212 80.5746 111.51 80.4657 111.838 80.4082C112.176 80.352 112.525 80.3493 112.886 80.3999C113.228 80.448 113.559 80.5416 113.878 80.6808C114.207 80.8213 114.503 80.9994 114.764 81.2153C115.026 81.4312 115.237 81.6729 115.398 81.9405L114.453 82.7267C114.302 82.5264 114.13 82.3466 113.935 82.1874C113.751 82.0201 113.558 81.8846 113.356 81.7808C113.154 81.677 112.965 81.6128 112.789 81.5881C112.595 81.5608 112.417 81.5546 112.255 81.5695C112.092 81.5844 111.951 81.621 111.829 81.6793C111.717 81.739 111.626 81.8204 111.555 81.9235C111.484 82.0266 111.438 82.1475 111.419 82.2861C111.411 82.4076 111.423 82.527 111.453 82.6444C111.495 82.7539 111.556 82.8521 111.638 82.939C111.729 83.0272 111.871 83.1272 112.063 83.239C112.254 83.3507 112.502 83.4657 112.806 83.5838C113.251 83.7689 113.611 83.9562 113.886 84.1456C114.172 84.3271 114.389 84.5226 114.539 84.7321C114.699 84.9337 114.8 85.1553 114.841 85.3967C114.883 85.6382 114.883 85.9021 114.843 86.1887C114.785 86.6046 114.612 86.962 114.325 87.261C114.048 87.552 113.698 87.762 113.275 87.891C112.852 88.02 112.395 88.0501 111.905 87.9812Z" fill="#562F00"/>
<defs>
<filter id="filter0_dd_282_3025" x="54.9062" y="10.6602" width="44.9727" height="47.6973" filterUnits="userSpaceOnUse" color-interpolation-filters="sRGB">
<feFlood flood-opacity="0" result="BackgroundImageFix"/>
<feColorMatrix in="SourceAlpha" type="matrix" values="0 0 0 0 0 0 0 0 0 0 0 0 0 0 0 0 0 0 127 0" result="hardAlpha"/>
<feMorphology radius="1" operator="dilate" in="SourceAlpha" result="effect1_dropShadow_282_3025"/>
<feOffset dy="1"/>
<feGaussianBlur stdDeviation="1.5"/>
<feColorMatrix type="matrix" values="0 0 0 0 0 0 0 0 0 0 0 0 0 0 0 0 0 0 0.15 0"/>
<feBlend mode="normal" in2="BackgroundImageFix" result="effect1_dropShadow_282_3025"/>
<feColorMatrix in="SourceAlpha" type="matrix" values="0 0 0 0 0 0 0 0 0 0 0 0 0 0 0 0 0 0 127 0" result="hardAlpha"/>
<feOffset dy="1"/>
<feGaussianBlur stdDeviation="1"/>
<feColorMatrix type="matrix" values="0 0 0 0 0 0 0 0 0 0 0 0 0 0 0 0 0 0 0.3 0"/>
<feBlend mode="normal" in2="effect1_dropShadow_282_3025" result="effect2_dropShadow_282_3025"/>
<feBlend mode="normal" in="SourceGraphic" in2="effect2_dropShadow_282_3025" result="shape"/>
</filter>
</defs>
</svg>
