<svg width="55" height="55" viewBox="0 0 55 55" fill="none" xmlns="http://www.w3.org/2000/svg">
<rect x="6.68031" width="48" height="48" rx="4" transform="rotate(8 6.68031 0)" fill="#F2E9DC"/>
<g filter="url(#filter0_dd_282_3026)">
<path d="M23.6992 23.4977C19.6575 19.7802 18.1721 16.0926 19.8281 9.92584L38.8413 12.598C37.3911 21.18 35.3652 23.7666 31.8675 24.7552C30.9503 25.0145 30.209 25.7345 30.0763 26.6785L29.8518 28.2764C29.7539 28.9729 30.0038 29.6709 30.5014 30.1681C34.645 34.3086 36.0039 37.7891 34.8631 44.3533L14.8993 41.5476C15.391 34.9971 17.7958 31.9601 22.9943 29.1125C23.6141 28.773 24.0503 28.1687 24.1487 27.4688L24.4294 25.4716C24.5329 24.735 24.2467 24.0013 23.6992 23.4977Z" fill="#F2E9DC"/>
<path d="M15.0748 9.25781L38.8413 12.598M43.5946 13.266L38.8413 12.598M10.6213 40.9464L14.8993 41.5476M39.141 44.9546L34.8631 44.3533M19.8281 9.92584C18.1721 16.0926 19.6575 19.7802 23.6992 23.4977C24.2467 24.0013 24.5329 24.735 24.4294 25.4715L24.1487 27.4688C24.0503 28.1687 23.6141 28.773 22.9943 29.1125C17.7958 31.9601 15.391 34.9971 14.8993 41.5476M14.8993 41.5476L34.8631 44.3533M34.8631 44.3533C36.0039 37.7891 34.645 34.3086 30.5014 30.1681C30.0038 29.6709 29.7539 28.9729 29.8518 28.2764L30.0763 26.6785C30.209 25.7345 30.9503 25.0145 31.8675 24.7552C35.3652 23.7666 37.3911 21.18 38.8413 12.598" stroke="#F2E9DC" stroke-width="4" stroke-linecap="round"/>
</g>
<path d="M23.6992 23.4977C19.6575 19.7802 18.1721 16.0926 19.8281 9.92584L38.8413 12.598C37.3911 21.18 35.3652 23.7666 31.8675 24.7552C30.9503 25.0145 30.209 25.7345 30.0763 26.6785L29.8518 28.2764C29.7539 28.9729 30.0038 29.6709 30.5014 30.1681C34.645 34.3086 36.0039 37.7891 34.8631 44.3533L14.8993 41.5476C15.391 34.9971 17.7958 31.9601 22.9943 29.1125C23.6141 28.773 24.0503 28.1687 24.1487 27.4688L24.4294 25.4716C24.5329 24.735 24.2467 24.0013 23.6992 23.4977Z" fill="#FFCE99"/>
<path d="M15.0748 9.25781L38.8413 12.598M43.5946 13.266L38.8413 12.598M10.6213 40.9464L14.8993 41.5476M39.141 44.9546L34.8631 44.3533M19.8281 9.92584C18.1721 16.0926 19.6575 19.7802 23.6992 23.4977C24.2467 24.0013 24.5329 24.735 24.4294 25.4715L24.1487 27.4688C24.0503 28.1687 23.6141 28.773 22.9943 29.1125C17.7958 31.9601 15.391 34.9971 14.8993 41.5476M14.8993 41.5476L34.8631 44.3533M34.8631 44.3533C36.0039 37.7891 34.645 34.3086 30.5014 30.1681C30.0038 29.6709 29.7539 28.9729 29.8518 28.2764L30.0763 26.6785C30.209 25.7345 30.9503 25.0145 31.8675 24.7552C35.3652 23.7666 37.3911 21.18 38.8413 12.598" stroke="#FE7500" stroke-width="1.23" stroke-linecap="round"/>
<defs>
<filter id="filter0_dd_282_3026" x="4.62172" y="4.25781" width="44.9727" height="47.6973" filterUnits="userSpaceOnUse" color-interpolation-filters="sRGB">
<feFlood flood-opacity="0" result="BackgroundImageFix"/>
<feColorMatrix in="SourceAlpha" type="matrix" values="0 0 0 0 0 0 0 0 0 0 0 0 0 0 0 0 0 0 127 0" result="hardAlpha"/>
<feMorphology radius="1" operator="dilate" in="SourceAlpha" result="effect1_dropShadow_282_3026"/>
<feOffset dy="1"/>
<feGaussianBlur stdDeviation="1.5"/>
<feColorMatrix type="matrix" values="0 0 0 0 0 0 0 0 0 0 0 0 0 0 0 0 0 0 0.15 0"/>
<feBlend mode="normal" in2="BackgroundImageFix" result="effect1_dropShadow_282_3026"/>
<feColorMatrix in="SourceAlpha" type="matrix" values="0 0 0 0 0 0 0 0 0 0 0 0 0 0 0 0 0 0 127 0" result="hardAlpha"/>
<feOffset dy="1"/>
<feGaussianBlur stdDeviation="1"/>
<feColorMatrix type="matrix" values="0 0 0 0 0 0 0 0 0 0 0 0 0 0 0 0 0 0 0.3 0"/>
<feBlend mode="normal" in2="effect1_dropShadow_282_3026" result="effect2_dropShadow_282_3026"/>
<feBlend mode="normal" in="SourceGraphic" in2="effect2_dropShadow_282_3026" result="shape"/>
</filter>
</defs>
</svg>
