<svg width="55" height="55" viewBox="0 0 55 55" fill="none" xmlns="http://www.w3.org/2000/svg">
<rect y="6.68031" width="48" height="48" rx="4" transform="rotate(-8 0 6.68031)" fill="#F2E9DC"/>
<g filter="url(#filter0_dd_282_3034)">
<path d="M18.4834 31.815L16.5378 35.309C16.14 36.0232 15.9864 36.8478 16.1002 37.6574C16.5329 40.7365 19.3798 42.8818 22.459 42.4491L35.8105 40.5727C38.8811 40.1411 41.0205 37.302 40.5889 34.2314C40.4739 33.4125 40.0908 32.6548 39.4997 32.0765L36.5685 29.2095C34.634 27.3173 31.9312 26.4295 29.2514 26.8061L24.8936 27.4185C22.1862 27.799 19.8136 29.4263 18.4834 31.815Z" fill="#F2E9DC"/>
<path d="M29.0772 25.5683C32.1406 25.1377 35.2307 26.1525 37.4423 28.3156L40.3737 31.1826C41.1623 31.9539 41.6734 32.9649 41.827 34.0571C42.3546 37.8114 39.7383 41.2834 35.984 41.811L22.6328 43.6874C18.8701 44.2161 15.3911 41.5937 14.8623 37.831C14.7107 36.7519 14.9158 35.6528 15.446 34.7007L17.3917 31.2065C18.9124 28.4759 21.6246 26.6157 24.7196 26.1807L29.0772 25.5683Z" stroke="#F2E9DC" stroke-width="2.5" stroke-linecap="round"/>
</g>
<g filter="url(#filter1_dd_282_3034)">
<rect x="18.5977" y="13.6139" width="13.0909" height="13.0909" rx="6.54545" transform="rotate(-8 18.5977 13.6139)" fill="#F2E9DC"/>
<rect x="16.9035" y="12.3373" width="16.0909" height="16.0909" rx="8.04545" transform="rotate(-8 16.9035 12.3373)" stroke="#F2E9DC" stroke-width="3"/>
</g>
<path d="M18.4834 31.815L16.5378 35.309C16.14 36.0232 15.9864 36.8478 16.1002 37.6574C16.5329 40.7365 19.3798 42.8818 22.459 42.4491L35.8105 40.5727C38.8811 40.1411 41.0205 37.302 40.5889 34.2314C40.4739 33.4125 40.0908 32.6548 39.4997 32.0765L36.5685 29.2095C34.634 27.3173 31.9312 26.4295 29.2514 26.8061L24.8936 27.4185C22.1862 27.799 19.8136 29.4263 18.4834 31.815Z" fill="#FFCE99" stroke="#FE7500" stroke-width="1.23" stroke-linecap="round"/>
<rect x="17.903" y="13.0905" width="14.3209" height="14.3209" rx="7.16045" transform="rotate(-8 17.903 13.0905)" fill="#FECE99" stroke="#FE7500" stroke-width="1.23"/>
<defs>
<filter id="filter0_dd_282_3034" x="9.5625" y="21.2213" width="37.582" height="28.7832" filterUnits="userSpaceOnUse" color-interpolation-filters="sRGB">
<feFlood flood-opacity="0" result="BackgroundImageFix"/>
<feColorMatrix in="SourceAlpha" type="matrix" values="0 0 0 0 0 0 0 0 0 0 0 0 0 0 0 0 0 0 127 0" result="hardAlpha"/>
<feMorphology radius="1" operator="dilate" in="SourceAlpha" result="effect1_dropShadow_282_3034"/>
<feOffset dy="1"/>
<feGaussianBlur stdDeviation="1.5"/>
<feColorMatrix type="matrix" values="0 0 0 0 0 0 0 0 0 0 0 0 0 0 0 0 0 0 0.15 0"/>
<feBlend mode="normal" in2="BackgroundImageFix" result="effect1_dropShadow_282_3034"/>
<feColorMatrix in="SourceAlpha" type="matrix" values="0 0 0 0 0 0 0 0 0 0 0 0 0 0 0 0 0 0 127 0" result="hardAlpha"/>
<feOffset dy="1"/>
<feGaussianBlur stdDeviation="1"/>
<feColorMatrix type="matrix" values="0 0 0 0 0 0 0 0 0 0 0 0 0 0 0 0 0 0 0.3 0"/>
<feBlend mode="normal" in2="effect1_dropShadow_282_3034" result="effect2_dropShadow_282_3034"/>
<feBlend mode="normal" in="SourceGraphic" in2="effect2_dropShadow_282_3034" result="shape"/>
</filter>
<filter id="filter1_dd_282_3034" x="12.4453" y="6.63734" width="27.0898" height="27.0938" filterUnits="userSpaceOnUse" color-interpolation-filters="sRGB">
<feFlood flood-opacity="0" result="BackgroundImageFix"/>
<feColorMatrix in="SourceAlpha" type="matrix" values="0 0 0 0 0 0 0 0 0 0 0 0 0 0 0 0 0 0 127 0" result="hardAlpha"/>
<feMorphology radius="1" operator="dilate" in="SourceAlpha" result="effect1_dropShadow_282_3034"/>
<feOffset dy="1"/>
<feGaussianBlur stdDeviation="1.5"/>
<feColorMatrix type="matrix" values="0 0 0 0 0 0 0 0 0 0 0 0 0 0 0 0 0 0 0.15 0"/>
<feBlend mode="normal" in2="BackgroundImageFix" result="effect1_dropShadow_282_3034"/>
<feColorMatrix in="SourceAlpha" type="matrix" values="0 0 0 0 0 0 0 0 0 0 0 0 0 0 0 0 0 0 127 0" result="hardAlpha"/>
<feOffset dy="1"/>
<feGaussianBlur stdDeviation="1"/>
<feColorMatrix type="matrix" values="0 0 0 0 0 0 0 0 0 0 0 0 0 0 0 0 0 0 0.3 0"/>
<feBlend mode="normal" in2="effect1_dropShadow_282_3034" result="effect2_dropShadow_282_3034"/>
<feBlend mode="normal" in="SourceGraphic" in2="effect2_dropShadow_282_3034" result="shape"/>
</filter>
</defs>
</svg>
