<svg width="151" height="101" viewBox="0 0 151 101" fill="none" xmlns="http://www.w3.org/2000/svg">
<rect x="45.5508" y="13.082" width="48" height="48" rx="4" transform="rotate(-8 45.5508 13.082)" fill="#F2E9DC"/>
<g filter="url(#filter0_dd_282_3033)">
<path d="M64.0342 38.2167L62.0886 41.7107C61.6908 42.425 61.5372 43.2495 61.6509 44.0591C62.0837 47.1382 64.9306 49.2836 68.0097 48.8508L81.3612 46.9744C84.4319 46.5428 86.5713 43.7038 86.1397 40.6331C86.0246 39.8142 85.6416 39.0565 85.0504 38.4782L82.1193 35.6112C80.1848 33.719 77.4819 32.8312 74.8022 33.2078L70.4444 33.8202C67.737 34.2007 65.3644 35.828 64.0342 38.2167Z" fill="#F2E9DC"/>
<path d="M74.628 31.97C77.6914 31.5395 80.7815 32.5543 82.9931 34.7173L85.9245 37.5843C86.713 38.3556 87.2242 39.3666 87.3778 40.4588C87.9054 44.2131 85.2891 47.6851 81.5348 48.2127L68.1836 50.0891C64.4209 50.6178 60.9419 47.9954 60.4131 44.2327C60.2615 43.1536 60.4666 42.0545 60.9968 41.1025L62.9425 37.6082C64.4632 34.8777 67.1754 33.0174 70.2704 32.5824L74.628 31.97Z" stroke="#F2E9DC" stroke-width="2.5" stroke-linecap="round"/>
</g>
<g filter="url(#filter1_dd_282_3033)">
<rect x="64.1484" y="20.0156" width="13.0909" height="13.0909" rx="6.54545" transform="rotate(-8 64.1484 20.0156)" fill="#F2E9DC"/>
<rect x="62.4543" y="18.739" width="16.0909" height="16.0909" rx="8.04545" transform="rotate(-8 62.4543 18.739)" stroke="#F2E9DC" stroke-width="3"/>
</g>
<path d="M64.0342 38.2167L62.0886 41.7107C61.6908 42.425 61.5372 43.2495 61.6509 44.0591C62.0837 47.1382 64.9306 49.2836 68.0097 48.8508L81.3612 46.9744C84.4319 46.5428 86.5713 43.7038 86.1397 40.6331C86.0246 39.8142 85.6416 39.0565 85.0504 38.4782L82.1193 35.6112C80.1848 33.719 77.4819 32.8312 74.8022 33.2078L70.4444 33.8202C67.737 34.2007 65.3644 35.828 64.0342 38.2167Z" fill="#FFCE99" stroke="#FE7500" stroke-width="1.23" stroke-linecap="round"/>
<rect x="63.4538" y="19.4922" width="14.3209" height="14.3209" rx="7.16045" transform="rotate(-8 63.4538 19.4922)" fill="#FECE99" stroke="#FE7500" stroke-width="1.23"/>
<rect x="7.51562" y="72.959" width="140" height="28" rx="8" transform="rotate(-8 7.51562 72.959)" fill="#FECE99"/>
<path d="M48.8123 86.3415L47.4484 76.6368L48.9457 76.4264L50.3096 86.131L48.8123 86.3415ZM42.4765 87.2319L41.1127 77.5273L42.6099 77.3168L43.9738 87.0215L42.4765 87.2319ZM42.5495 83.0228L42.3468 81.581L48.6964 80.6886L48.8991 82.1304L42.5495 83.0228ZM52.99 85.7543L51.6261 76.0497L55.7575 75.4691C56.3121 75.3911 56.8399 75.4583 57.341 75.6707C57.85 75.8724 58.2763 76.1895 58.6198 76.6219C58.962 77.0451 59.1741 77.5478 59.2559 78.1301C59.3299 78.6569 59.2602 79.1662 59.0465 79.6581C58.8329 80.1499 58.5145 80.567 58.0914 80.9092C57.6669 81.2422 57.1728 81.4483 56.609 81.5275L53.9749 81.8977L54.4873 85.5439L52.99 85.7543ZM58.7573 84.9438L55.6739 80.9097L57.1641 80.3468L60.5754 84.7024L58.7573 84.9438ZM53.7722 80.4559L56.545 80.0662C56.813 80.0285 57.0442 79.9301 57.2386 79.7708C57.4317 79.6023 57.5721 79.3941 57.6598 79.1461C57.7462 78.8889 57.7692 78.6171 57.7289 78.3305C57.6835 78.0071 57.5653 77.7362 57.3744 77.518C57.1915 77.2892 56.9516 77.125 56.6548 77.0253C56.3673 76.9244 56.0526 76.8979 55.7106 76.946L53.326 77.2811L53.7722 80.4559ZM68.6587 83.6936C68.1411 83.7663 67.6714 83.7098 67.2494 83.5241C66.8367 83.337 66.4935 83.0413 66.2199 82.6367C65.9555 82.2309 65.7811 81.7276 65.6967 81.1269L65.0654 76.635L66.4933 76.4343L67.0701 80.538C67.1298 80.9631 67.2465 81.3238 67.42 81.6198C67.6015 81.9053 67.8288 82.1137 68.1017 82.245C68.3839 82.375 68.7052 82.4147 69.0656 82.364C69.3337 82.3264 69.5727 82.2504 69.7829 82.136C69.9917 82.0124 70.1636 81.861 70.2987 81.6818C70.443 81.5013 70.5457 81.2936 70.607 81.0588C70.6682 80.824 70.6807 80.5772 70.6443 80.3184L70.0286 75.9375L71.4566 75.7368L72.4795 83.0153L71.0515 83.2159L70.8372 81.6909L71.0634 81.4895C71.0005 81.8471 70.8546 82.1833 70.6255 82.4983C70.4057 82.8119 70.1272 83.0772 69.7901 83.2943C69.4518 83.502 69.0746 83.6352 68.6587 83.6936ZM74.8777 85.7885L73.4262 75.46L74.868 75.2573L75.1018 76.921L74.8625 76.8274C74.8789 76.5423 74.999 76.2568 75.2228 75.9709C75.4452 75.6758 75.7302 75.4236 76.0778 75.2145C76.4334 74.9949 76.8099 74.8572 77.2073 74.8013C77.8635 74.7091 78.4685 74.789 79.0223 75.0411C79.5761 75.2931 80.0405 75.6802 80.4155 76.2025C80.7905 76.7247 81.0293 77.3509 81.1319 78.081C81.2333 78.802 81.1763 79.4697 80.9611 80.0843C80.7538 80.6884 80.4194 81.1925 79.9578 81.5967C79.4949 81.9916 78.9446 82.2339 78.3069 82.3235C77.8817 82.3833 77.4588 82.3579 77.0379 82.2474C76.6158 82.1276 76.2473 81.9532 75.9324 81.7241C75.6174 81.4951 75.4075 81.2418 75.3025 80.9644L75.6357 80.7197L76.3196 85.5858L74.8777 85.7885ZM77.8861 81.0396C78.3113 80.9798 78.6753 80.8203 78.9781 80.5609C79.281 80.3016 79.5035 79.9734 79.6456 79.5765C79.7877 79.1795 79.8257 78.7453 79.7594 78.2739C79.6932 77.8026 79.5377 77.4003 79.2929 77.0671C79.0561 76.7234 78.7564 76.4686 78.3938 76.3028C78.0312 76.137 77.6327 76.0846 77.1983 76.1457C76.7639 76.2067 76.3953 76.3669 76.0924 76.6263C75.7883 76.8764 75.5651 77.1999 75.423 77.5969C75.2809 77.9938 75.2429 78.428 75.3092 78.8994C75.3754 79.3708 75.5316 79.7776 75.7776 80.1201C76.0237 80.4625 76.328 80.7166 76.6906 80.8824C77.0532 81.0482 77.4517 81.1006 77.8861 81.0396ZM83.1896 81.51L81.7478 71.2509L83.1758 71.0502L84.6176 81.3094L83.1896 81.51ZM89.764 80.7274C89.0524 80.8275 88.3919 80.7553 87.7827 80.5111C87.1813 80.2563 86.6793 79.8697 86.2766 79.3514C85.8726 78.8238 85.6193 78.195 85.5166 77.4648C85.414 76.7347 85.4848 76.065 85.7291 75.4557C85.972 74.8372 86.3481 74.3272 86.8572 73.9258C87.3742 73.5138 87.9885 73.2579 88.7002 73.1578C89.4026 73.0591 90.0545 73.1372 90.6558 73.3919C91.2651 73.6362 91.7717 74.0221 92.1757 74.5497C92.5785 75.068 92.8311 75.6923 92.9337 76.4224C93.0364 77.1526 92.9662 77.8269 92.7232 78.4454C92.479 79.0547 92.0984 79.5653 91.5813 79.9772C91.0722 80.3787 90.4665 80.6287 89.764 80.7274ZM89.5809 79.4243C90.0153 79.3632 90.3885 79.2024 90.7006 78.9417C91.0114 78.6718 91.2379 78.3384 91.38 77.9414C91.5209 77.5352 91.5535 77.0971 91.4781 76.627C91.4197 76.1451 91.2676 75.7329 91.0215 75.3905C90.7742 75.0388 90.4646 74.7807 90.0927 74.6162C89.7209 74.4517 89.3178 74.4 88.8834 74.461C88.449 74.5221 88.0717 74.6882 87.7517 74.9594C87.4396 75.22 87.2131 75.5534 87.0723 75.9597C86.9302 76.3566 86.8968 76.7902 86.9723 77.2602C87.0293 77.7329 87.1815 78.1451 87.4289 78.4967C87.6749 78.8392 87.9845 79.0972 88.3577 79.271C88.7388 79.4342 89.1465 79.4853 89.5809 79.4243ZM97.7889 79.5996C97.1881 79.6841 96.6148 79.595 96.0689 79.3324C95.5323 79.0685 95.0759 78.6708 94.6996 78.1394C94.3233 77.6079 94.0845 76.9817 93.9831 76.2608C93.8805 75.5306 93.9375 74.8629 94.154 74.2575C94.3785 73.6416 94.7221 73.1362 95.185 72.7413C95.6571 72.345 96.2121 72.1021 96.8498 72.0125C97.2287 71.9592 97.5831 71.966 97.913 72.0327C98.2428 72.0995 98.5375 72.2183 98.7972 72.3891C99.0647 72.5495 99.2907 72.7486 99.4749 72.9866C99.6684 73.2233 99.8044 73.487 99.883 73.7775L99.5485 73.7114L99.2835 71.826L100.725 71.6233L101.748 78.9018L100.306 79.1044L100.063 77.3715L100.382 77.2277C100.362 77.485 100.28 77.7462 100.139 78.0111C100.005 78.2656 99.8168 78.5041 99.5747 78.7266C99.3419 78.9478 99.0716 79.1366 98.7637 79.293C98.465 79.4481 98.1401 79.5503 97.7889 79.5996ZM97.9781 78.23C98.4125 78.1689 98.7811 78.0087 99.084 77.7494C99.3868 77.49 99.6047 77.1625 99.7376 76.7669C99.8784 76.3606 99.9151 75.9172 99.8475 75.4366C99.7813 74.9652 99.6251 74.5583 99.3791 74.2159C99.1423 73.8722 98.8426 73.6174 98.4799 73.4516C98.1173 73.2858 97.7188 73.2334 97.2844 73.2945C96.8593 73.3542 96.4953 73.5138 96.1924 73.7731C95.8988 74.0311 95.6809 74.3587 95.5388 74.7556C95.4059 75.1513 95.3726 75.5848 95.4388 76.0562C95.5064 76.5368 95.6592 76.9536 95.8973 77.3066C96.1434 77.649 96.4431 77.9038 96.7964 78.0709C97.159 78.2367 97.5529 78.2897 97.9781 78.23ZM106.764 78.3382C106.099 78.4317 105.48 78.3538 104.908 78.1043C104.343 77.8443 103.869 77.4539 103.485 76.9329C103.099 76.4028 102.855 75.7726 102.753 75.0424C102.65 74.3123 102.707 73.6445 102.924 73.0392C103.148 72.4233 103.496 71.9172 103.968 71.521C104.439 71.1155 105.003 70.8667 105.659 70.7744C106.019 70.7238 106.374 70.7351 106.724 70.8085C107.082 70.8714 107.409 70.9856 107.705 71.1513C108.001 71.3077 108.239 71.4957 108.421 71.7152C108.61 71.9242 108.722 72.1488 108.756 72.3891L108.344 72.4753L107.66 67.6092L109.088 67.4085L110.53 77.6676L109.102 77.8683L108.858 76.1354L109.136 76.0964C109.167 76.3182 109.124 76.5504 109.007 76.793C108.889 77.0264 108.718 77.253 108.495 77.4729C108.281 77.6916 108.019 77.8791 107.712 78.0354C107.413 78.1905 107.097 78.2914 106.764 78.3382ZM106.785 77.077C107.22 77.016 107.587 76.8512 107.889 76.5826C108.191 76.314 108.407 75.9773 108.539 75.5723C108.678 75.1569 108.714 74.7042 108.645 74.2144C108.576 73.7245 108.418 73.3038 108.171 72.9521C107.931 72.5899 107.629 72.3213 107.266 72.1462C106.902 71.9711 106.502 71.9141 106.068 71.9752C105.634 72.0362 105.266 72.2011 104.964 72.4696C104.663 72.7382 104.442 73.0802 104.303 73.4957C104.171 73.9006 104.14 74.348 104.208 74.8379C104.277 75.3277 104.431 75.7537 104.671 76.116C104.918 76.4676 105.224 76.731 105.588 76.906C105.952 77.0811 106.351 77.1381 106.785 77.077ZM114.908 77.1937C114.298 77.2794 113.733 77.2504 113.213 77.1067C112.694 76.963 112.243 76.7059 111.861 76.3354L112.714 75.3672C113.037 75.6517 113.371 75.8452 113.715 75.9476C114.067 76.0395 114.451 76.0562 114.867 75.9978C115.033 75.9744 115.183 75.9345 115.317 75.878C115.458 75.811 115.574 75.7288 115.664 75.6313C115.763 75.5325 115.833 75.4238 115.872 75.3051C115.911 75.1772 115.92 75.0439 115.901 74.9052C115.867 74.6649 115.752 74.4832 115.556 74.36C115.454 74.3083 115.297 74.2597 115.083 74.2144C114.877 74.1585 114.611 74.111 114.285 74.072C113.73 74.0087 113.269 73.9133 112.902 73.7857C112.535 73.6582 112.244 73.4965 112.028 73.3006C111.865 73.1445 111.736 72.9693 111.643 72.7751C111.549 72.5716 111.484 72.3451 111.449 72.0955C111.406 71.7905 111.432 71.5042 111.526 71.2364C111.628 70.9581 111.782 70.7104 111.987 70.493C112.2 70.2652 112.456 70.0783 112.756 69.9325C113.066 69.7854 113.4 69.6865 113.761 69.6358C114.103 69.5877 114.447 69.5865 114.792 69.6322C115.147 69.6766 115.48 69.7664 115.792 69.9018C116.103 70.0371 116.372 70.2113 116.6 70.4243L115.909 71.4404C115.709 71.2895 115.493 71.1643 115.262 71.0647C115.039 70.9547 114.817 70.8776 114.594 70.8335C114.371 70.7895 114.171 70.7798 113.996 70.8045C113.802 70.8318 113.629 70.8749 113.477 70.934C113.325 70.993 113.199 71.0673 113.098 71.1568C113.007 71.2451 112.941 71.3485 112.901 71.4672C112.861 71.5859 112.851 71.7146 112.871 71.8532C112.897 71.9721 112.941 72.0837 113.003 72.1882C113.072 72.282 113.159 72.3594 113.262 72.4204C113.374 72.48 113.537 72.5372 113.752 72.5918C113.967 72.6464 114.237 72.6886 114.562 72.7183C115.041 72.7736 115.438 72.8543 115.755 72.9606C116.079 73.0564 116.342 73.1844 116.544 73.3445C116.754 73.4942 116.912 73.6793 117.018 73.9C117.124 74.1207 117.198 74.3743 117.238 74.6608C117.296 75.0767 117.229 75.4679 117.035 75.8344C116.85 76.1904 116.571 76.4887 116.2 76.7294C115.828 76.9701 115.398 77.1249 114.908 77.1937Z" fill="#562F00"/>
<defs>
<filter id="filter0_dd_282_3033" x="55.1133" y="27.623" width="37.582" height="28.7832" filterUnits="userSpaceOnUse" color-interpolation-filters="sRGB">
<feFlood flood-opacity="0" result="BackgroundImageFix"/>
<feColorMatrix in="SourceAlpha" type="matrix" values="0 0 0 0 0 0 0 0 0 0 0 0 0 0 0 0 0 0 127 0" result="hardAlpha"/>
<feMorphology radius="1" operator="dilate" in="SourceAlpha" result="effect1_dropShadow_282_3033"/>
<feOffset dy="1"/>
<feGaussianBlur stdDeviation="1.5"/>
<feColorMatrix type="matrix" values="0 0 0 0 0 0 0 0 0 0 0 0 0 0 0 0 0 0 0.15 0"/>
<feBlend mode="normal" in2="BackgroundImageFix" result="effect1_dropShadow_282_3033"/>
<feColorMatrix in="SourceAlpha" type="matrix" values="0 0 0 0 0 0 0 0 0 0 0 0 0 0 0 0 0 0 127 0" result="hardAlpha"/>
<feOffset dy="1"/>
<feGaussianBlur stdDeviation="1"/>
<feColorMatrix type="matrix" values="0 0 0 0 0 0 0 0 0 0 0 0 0 0 0 0 0 0 0.3 0"/>
<feBlend mode="normal" in2="effect1_dropShadow_282_3033" result="effect2_dropShadow_282_3033"/>
<feBlend mode="normal" in="SourceGraphic" in2="effect2_dropShadow_282_3033" result="shape"/>
</filter>
<filter id="filter1_dd_282_3033" x="57.9961" y="13.0391" width="27.0898" height="27.0938" filterUnits="userSpaceOnUse" color-interpolation-filters="sRGB">
<feFlood flood-opacity="0" result="BackgroundImageFix"/>
<feColorMatrix in="SourceAlpha" type="matrix" values="0 0 0 0 0 0 0 0 0 0 0 0 0 0 0 0 0 0 127 0" result="hardAlpha"/>
<feMorphology radius="1" operator="dilate" in="SourceAlpha" result="effect1_dropShadow_282_3033"/>
<feOffset dy="1"/>
<feGaussianBlur stdDeviation="1.5"/>
<feColorMatrix type="matrix" values="0 0 0 0 0 0 0 0 0 0 0 0 0 0 0 0 0 0 0.15 0"/>
<feBlend mode="normal" in2="BackgroundImageFix" result="effect1_dropShadow_282_3033"/>
<feColorMatrix in="SourceAlpha" type="matrix" values="0 0 0 0 0 0 0 0 0 0 0 0 0 0 0 0 0 0 127 0" result="hardAlpha"/>
<feOffset dy="1"/>
<feGaussianBlur stdDeviation="1"/>
<feColorMatrix type="matrix" values="0 0 0 0 0 0 0 0 0 0 0 0 0 0 0 0 0 0 0.3 0"/>
<feBlend mode="normal" in2="effect1_dropShadow_282_3033" result="effect2_dropShadow_282_3033"/>
<feBlend mode="normal" in="SourceGraphic" in2="effect2_dropShadow_282_3033" result="shape"/>
</filter>
</defs>
</svg>
