<svg width="55" height="55" viewBox="0 0 55 55" fill="none" xmlns="http://www.w3.org/2000/svg">
<rect x="6.68031" width="48" height="48" rx="4" transform="rotate(8 6.68031 0)" fill="#F2E9DC"/>
<g filter="url(#filter0_dd_282_3044)">
<path d="M31.8389 23.209L21.2663 10.7691C21.1192 10.596 20.8738 10.5439 20.669 10.6422L16.4669 12.659C16.1683 12.8023 16.089 13.1909 16.3076 13.4397L23.3126 21.4146C23.5258 21.6573 23.4564 22.0353 23.1709 22.1865L15.5754 26.2073C15.2869 26.36 15.2197 26.7437 15.4392 26.9853L27.9987 40.8138C28.2388 41.0781 28.1325 41.5016 27.796 41.6211L25.8041 42.329C25.3474 42.4913 25.3656 43.1433 25.8306 43.2799L36.5997 46.4431C36.9453 46.5446 37.2816 46.2584 37.2367 45.901L36.2592 38.1191C36.2166 37.7803 35.8545 37.5829 35.5467 37.7306L32.6801 39.1065C32.4753 39.2048 32.2299 39.1526 32.0828 38.9795L23.3319 28.683C23.1196 28.4333 23.201 28.0503 23.4965 27.9085L31.6742 23.9835C31.9697 23.8417 32.0511 23.4587 31.8389 23.209Z" fill="#F2E9DC"/>
<path d="M38.3127 45.9751C38.3089 46.9983 37.3159 47.7697 36.2975 47.4706L25.5283 44.308C24.0672 43.8785 24.0106 41.8293 25.4458 41.3193L26.6284 40.8987L14.6456 27.706C13.9559 26.9465 14.1679 25.7402 15.0746 25.2603L22.0302 21.5781L15.503 14.1465C14.8162 13.3646 15.0653 12.1434 16.0036 11.6931L20.2052 9.67589C20.849 9.36692 21.6207 9.53096 22.0832 10.0751L32.6556 22.5148C33.2809 23.2505 33.095 24.3547 32.3044 24.8572L32.138 24.9496L24.6279 28.5538L32.6145 37.9499L35.0829 36.7644C36.0502 36.3001 37.1884 36.9207 37.3223 37.9852L38.2998 45.7677L38.3127 45.9751Z" stroke="#F2E9DC" stroke-width="2.14286"/>
</g>
<path d="M31.8506 23.2129L21.278 10.7731C21.1309 10.5999 20.8855 10.5478 20.6807 10.6461L16.4786 12.6629C16.18 12.8062 16.1007 13.1949 16.3193 13.4436L23.3243 21.4185C23.5375 21.6612 23.4681 22.0392 23.1826 22.1904L15.5871 26.2112C15.2986 26.3639 15.2314 26.7476 15.4509 26.9892L28.0105 40.8177C28.2505 41.082 28.1442 41.5055 27.8078 41.625L25.8158 42.3329C25.3592 42.4952 25.3774 43.1472 25.8424 43.2838L36.6114 46.447C36.957 46.5485 37.2933 46.2623 37.2484 45.905L36.2709 38.123C36.2283 37.7842 35.8663 37.5868 35.5584 37.7345L32.6918 39.1104C32.487 39.2087 32.2416 39.1565 32.0945 38.9834L23.3436 28.6869C23.1313 28.4372 23.2127 28.0542 23.5082 27.9124L31.6859 23.9874C31.9814 23.8456 32.0628 23.4626 31.8506 23.2129Z" fill="#FFCE99" stroke="#FE7500" stroke-width="1.07143"/>
<defs>
<filter id="filter0_dd_282_3044" x="9.16468" y="5.44922" width="34.2188" height="48.1602" filterUnits="userSpaceOnUse" color-interpolation-filters="sRGB">
<feFlood flood-opacity="0" result="BackgroundImageFix"/>
<feColorMatrix in="SourceAlpha" type="matrix" values="0 0 0 0 0 0 0 0 0 0 0 0 0 0 0 0 0 0 127 0" result="hardAlpha"/>
<feMorphology radius="1" operator="dilate" in="SourceAlpha" result="effect1_dropShadow_282_3044"/>
<feOffset dy="1"/>
<feGaussianBlur stdDeviation="1.5"/>
<feColorMatrix type="matrix" values="0 0 0 0 0 0 0 0 0 0 0 0 0 0 0 0 0 0 0.15 0"/>
<feBlend mode="normal" in2="BackgroundImageFix" result="effect1_dropShadow_282_3044"/>
<feColorMatrix in="SourceAlpha" type="matrix" values="0 0 0 0 0 0 0 0 0 0 0 0 0 0 0 0 0 0 127 0" result="hardAlpha"/>
<feOffset dy="1"/>
<feGaussianBlur stdDeviation="1"/>
<feColorMatrix type="matrix" values="0 0 0 0 0 0 0 0 0 0 0 0 0 0 0 0 0 0 0.3 0"/>
<feBlend mode="normal" in2="effect1_dropShadow_282_3044" result="effect2_dropShadow_282_3044"/>
<feBlend mode="normal" in="SourceGraphic" in2="effect2_dropShadow_282_3044" result="shape"/>
</filter>
</defs>
</svg>
