<svg width="151" height="101" viewBox="0 0 151 101" fill="none" xmlns="http://www.w3.org/2000/svg">
<rect x="56.9648" y="6.40234" width="48" height="48" rx="4" transform="rotate(8 56.9648 6.40234)" fill="#F2E9DC"/>
<g filter="url(#filter0_dd_282_3043)">
<path d="M82.1234 29.6113L71.5508 17.1715C71.4037 16.9984 71.1583 16.9462 70.9535 17.0445L66.7514 19.0613C66.4529 19.2046 66.3736 19.5933 66.5921 19.8421L73.5971 27.8169C73.8103 28.0596 73.7409 28.4377 73.4554 28.5888L65.8599 32.6096C65.5714 32.7623 65.5043 33.146 65.7237 33.3877L78.2833 47.2162C78.5233 47.4804 78.417 47.9039 78.0806 48.0235L76.0887 48.7314C75.632 48.8937 75.6502 49.5456 76.1152 49.6822L86.8842 52.8454C87.2298 52.947 87.5661 52.6608 87.5213 52.3034L86.5437 44.5214C86.5011 44.1826 86.1391 43.9852 85.8312 44.133L82.9646 45.5088C82.7598 45.6071 82.5144 45.555 82.3673 45.3818L73.6164 35.0854C73.4041 34.8356 73.4855 34.4526 73.781 34.3108L81.9588 30.3859C82.2542 30.2441 82.3357 29.8611 82.1234 29.6113Z" fill="#F2E9DC"/>
<path d="M88.5972 52.3774C88.5935 53.4007 87.6004 54.1721 86.5821 53.873L75.8129 50.7103C74.3517 50.2809 74.2951 48.2316 75.7303 47.7216L76.9129 47.3011L64.9301 34.1083C64.2405 33.3489 64.4525 32.1426 65.3591 31.6626L72.3148 27.9805L65.7876 20.5489C65.1007 19.767 65.3498 18.5457 66.2881 18.0954L70.4897 16.0782C71.1335 15.7693 71.9053 15.9333 72.3677 16.4774L82.9401 28.9171C83.5654 29.6528 83.3796 30.757 82.589 31.2595L82.4226 31.352L74.9124 34.9562L82.899 44.3523L85.3674 43.1667C86.3347 42.7025 87.4729 43.323 87.6069 44.3875L88.5844 52.17L88.5972 52.3774Z" stroke="#F2E9DC" stroke-width="2.14286"/>
</g>
<path d="M82.1351 29.6152L71.5625 17.1754C71.4154 17.0023 71.17 16.9501 70.9652 17.0484L66.7631 19.0652C66.4646 19.2085 66.3853 19.5972 66.6038 19.846L73.6089 27.8208C73.822 28.0635 73.7526 28.4416 73.4671 28.5927L65.8716 32.6135C65.5831 32.7662 65.516 33.1499 65.7354 33.3916L78.295 47.2201C78.535 47.4844 78.4287 47.9078 78.0923 48.0274L76.1004 48.7353C75.6437 48.8976 75.6619 49.5495 76.1269 49.6861L86.896 52.8493C87.2416 52.9509 87.5779 52.6647 87.533 52.3073L86.5554 44.5253C86.5129 44.1865 86.1508 43.9891 85.843 44.1369L82.9764 45.5127C82.7715 45.611 82.5262 45.5589 82.379 45.3857L73.6281 35.0893C73.4158 34.8395 73.4973 34.4565 73.7927 34.3147L81.9705 30.3898C82.266 30.248 82.3474 29.865 82.1351 29.6152Z" fill="#FFCE99" stroke="#FE7500" stroke-width="1.07143"/>
<rect x="3.89844" y="53.4746" width="140" height="28" rx="8" transform="rotate(8 3.89844 53.4746)" fill="#FECE99"/>
<path d="M26.2948 75.8097L27.6587 66.1051L29.156 66.3155L27.9947 74.5783L32.5421 75.2174L32.3394 76.6592L26.2948 75.8097ZM37.182 77.4812C36.4703 77.3811 35.8553 77.1298 35.337 76.727C34.8292 76.3164 34.4532 75.8064 34.2089 75.1972C33.966 74.5787 33.8958 73.9043 33.9984 73.1742C34.101 72.444 34.3537 71.8198 34.7564 71.3014C35.1604 70.7739 35.6625 70.3873 36.2625 70.1418C36.873 69.8883 37.5341 69.8115 38.2458 69.9115C38.9482 70.0103 39.5533 70.265 40.0611 70.6756C40.5795 71.0783 40.9601 71.589 41.2031 72.2075C41.4473 72.8167 41.5181 73.4864 41.4155 74.2166C41.3129 74.9467 41.0596 75.5756 40.6556 76.1032C40.2528 76.6215 39.7462 77.0074 39.1356 77.2609C38.5356 77.5065 37.8844 77.5799 37.182 77.4812ZM37.3651 76.178C37.7995 76.239 38.2026 76.1873 38.5745 76.0228C38.9476 75.849 39.2572 75.5909 39.5033 75.2485C39.7506 74.8968 39.9028 74.4847 39.9598 74.012C40.0366 73.5327 40.0039 73.0945 39.8618 72.6976C39.721 72.2913 39.4945 71.9579 39.1824 71.6973C38.8703 71.4366 38.4971 71.2758 38.0627 71.2147C37.6283 71.1537 37.2199 71.2094 36.8375 71.3819C36.4656 71.5464 36.156 71.8045 35.9087 72.1561C35.6626 72.4985 35.5111 72.9061 35.4541 73.3788C35.3786 73.8488 35.4113 74.287 35.5521 74.6932C35.6943 75.0902 35.9207 75.4236 36.2315 75.6935C36.5529 75.9554 36.9307 76.1169 37.3651 76.178ZM43.9434 78.29L42.4848 70.6628L43.9285 70.8516L44.9374 76.5494L44.6224 76.4769L47.1476 72.4915L48.0072 72.6123L49.348 77.1552L48.9698 77.1303L51.5239 71.9332L52.9657 72.1358L49.4889 79.0694L48.5046 78.9311L47.1313 74.0161L47.4443 74.1025L44.9139 78.4264L43.9434 78.29ZM59.8434 80.666C59.2426 80.5816 58.7161 80.3379 58.2638 79.9351C57.8207 79.5335 57.4915 79.0254 57.2763 78.4108C57.0611 77.7962 57.0041 77.1284 57.1054 76.4075C57.208 75.6774 57.4468 75.0512 57.8218 74.5289C58.2074 73.9988 58.677 73.6077 59.2309 73.3556C59.7939 73.1049 60.3943 73.0243 61.032 73.1139C61.411 73.1672 61.7498 73.2714 62.0484 73.4264C62.3471 73.5815 62.5976 73.7769 62.8001 74.0128C63.0132 74.2406 63.1754 74.4943 63.2869 74.7739C63.4077 75.0548 63.4658 75.3457 63.4612 75.6467L63.1579 75.4909L63.4229 73.6055L64.8647 73.8081L63.8418 81.0866L62.4 80.8839L62.6435 79.151L62.9899 79.1007C62.8993 79.3424 62.7494 79.5711 62.54 79.7867C62.3412 79.9944 62.0948 80.1719 61.8007 80.319C61.516 80.4675 61.204 80.5745 60.865 80.6399C60.5351 80.7067 60.1946 80.7154 59.8434 80.666ZM60.4028 79.4016C60.8372 79.4626 61.2357 79.4102 61.5983 79.2444C61.9609 79.0786 62.2606 78.8238 62.4974 78.4801C62.7448 78.1284 62.9022 77.7123 62.9698 77.2317C63.036 76.7603 62.9981 76.3262 62.856 75.9292C62.7231 75.5335 62.5052 75.206 62.2023 74.9466C61.8995 74.6873 61.5309 74.5271 61.0965 74.4661C60.6713 74.4063 60.2774 74.4593 59.9148 74.6252C59.5615 74.7923 59.2617 75.047 59.0157 75.3895C58.7789 75.7332 58.6274 76.1407 58.5611 76.6121C58.4936 77.0927 58.5256 77.5355 58.6572 77.9404C58.7993 78.3374 59.0172 78.6649 59.3108 78.9229C59.6137 79.1823 59.9777 79.3418 60.4028 79.4016ZM68.819 81.9274C68.1535 81.8339 67.5801 81.5884 67.0987 81.1909C66.6279 80.7854 66.2796 80.2793 66.0539 79.6727C65.8294 79.0568 65.7685 78.3837 65.8711 77.6536C65.9737 76.9234 66.2125 76.2972 66.5875 75.775C66.973 75.2448 67.4473 74.8544 68.0104 74.6036C68.5747 74.3436 69.185 74.2598 69.8412 74.352C70.2017 74.4026 70.5398 74.5114 70.8557 74.6783C71.1821 74.8373 71.465 75.0373 71.7044 75.2783C71.9452 75.5101 72.1226 75.7565 72.2367 76.0176C72.3614 76.2707 72.4068 76.5175 72.373 76.7578L71.9532 76.727L72.6371 71.8609L74.0651 72.0615L72.6233 82.3207L71.1953 82.12L71.4388 80.3871L71.7161 80.426C71.6849 80.6479 71.5798 80.8593 71.4008 81.0603C71.223 81.2521 70.9964 81.4229 70.7209 81.5727C70.4546 81.7238 70.1519 81.832 69.8128 81.8975C69.483 81.9642 69.1517 81.9742 68.819 81.9274ZM69.1865 80.7208C69.6209 80.7819 70.02 80.7249 70.3839 80.5498C70.7478 80.3748 71.0488 80.1108 71.2869 79.7578C71.5356 79.3969 71.6943 78.9715 71.7632 78.4817C71.832 77.9918 71.796 77.5438 71.6552 77.1376C71.5249 76.7234 71.309 76.382 71.0074 76.1134C70.7059 75.8449 70.3379 75.68 69.9035 75.619C69.4691 75.5579 69.0699 75.6149 68.706 75.79C68.3421 75.9651 68.0359 76.233 67.7872 76.5939C67.5491 76.9469 67.3956 77.3683 67.3268 77.8582C67.2579 78.348 67.2887 78.8 67.419 79.2142C67.5598 79.6204 67.781 79.9578 68.0825 80.2264C68.3841 80.495 68.7521 80.6598 69.1865 80.7208ZM77.8081 83.1908C77.0964 83.0908 76.4814 82.8394 75.9631 82.4367C75.4553 82.026 75.0793 81.516 74.835 80.9068C74.5921 80.2883 74.5219 79.614 74.6245 78.8838C74.7271 78.1536 74.9798 77.5294 75.3825 77.0111C75.7865 76.4835 76.2886 76.0969 76.8886 75.8514C77.4991 75.5979 78.1602 75.5212 78.8719 75.6212C79.5743 75.7199 80.1795 75.9746 80.6872 76.3853C81.2056 76.788 81.5862 77.2986 81.8292 77.9171C82.0734 78.5263 82.1442 79.196 82.0416 79.9262C81.939 80.6564 81.6857 81.2852 81.2817 81.8128C80.8789 82.3311 80.3723 82.717 79.7617 82.9705C79.1617 83.2161 78.5105 83.2895 77.8081 83.1908ZM77.9912 81.8876C78.4256 81.9486 78.8287 81.8969 79.2006 81.7324C79.5737 81.5586 79.8833 81.3005 80.1294 80.9581C80.3767 80.6065 80.5289 80.1943 80.5859 79.7216C80.6627 79.2423 80.63 78.8042 80.4879 78.4072C80.3471 78.001 80.1206 77.6675 79.8085 77.4069C79.4964 77.1463 79.1232 76.9854 78.6888 76.9244C78.2544 76.8633 77.846 76.919 77.4636 77.0915C77.0917 77.256 76.7821 77.5141 76.5348 77.8657C76.2887 78.2082 76.1372 78.6157 76.0802 79.0884C76.0047 79.5585 76.0374 79.9966 76.1782 80.4028C76.3204 80.7998 76.5468 81.1332 76.8576 81.4031C77.179 81.665 77.5568 81.8265 77.9912 81.8876ZM82.6232 86.8364L84.0748 76.5079L85.5166 76.7105L85.2828 78.3742L85.0786 78.2182C85.173 77.9488 85.3671 77.7074 85.661 77.4943C85.9561 77.2718 86.2996 77.108 86.6914 77.0029C87.0937 76.8898 87.4936 76.8611 87.891 76.917C88.5472 77.0092 89.1068 77.2528 89.5697 77.6477C90.0325 78.0427 90.3722 78.5428 90.5888 79.1482C90.8053 79.7535 90.8622 80.4213 90.7596 81.1514C90.6583 81.8724 90.4195 82.4985 90.0432 83.03C89.6774 83.5535 89.217 83.9459 88.6619 84.2072C88.1081 84.4593 87.5124 84.5405 86.8746 84.4509C86.4495 84.3911 86.0499 84.2501 85.6758 84.0279C85.3031 83.7964 84.9969 83.5272 84.7573 83.2202C84.5177 82.9132 84.3857 82.6119 84.3612 82.3163L84.749 82.1729L84.0651 87.039L82.6232 86.8364ZM86.824 83.1007C87.2492 83.1604 87.6431 83.1074 88.0057 82.9416C88.3683 82.7758 88.6726 82.5217 88.9187 82.1792C89.1647 81.8368 89.3209 81.4299 89.3871 80.9585C89.4534 80.4872 89.4148 80.0576 89.2713 79.6699C89.1384 79.2742 88.9206 78.9467 88.6177 78.6874C88.3149 78.428 87.9462 78.2678 87.5118 78.2068C87.0774 78.1457 86.6789 78.1981 86.3163 78.3639C85.955 78.5205 85.6513 78.77 85.4053 79.1124C85.1592 79.4548 85.0031 79.8617 84.9368 80.3331C84.8706 80.8045 84.9085 81.2386 85.0507 81.6356C85.1928 82.0326 85.4153 82.3608 85.7182 82.6201C86.021 82.8794 86.3896 83.0396 86.824 83.1007ZM92.6658 85.1375L93.9499 76.0013L95.3778 76.202L94.0938 85.3382L92.6658 85.1375ZM91.9828 79.0331L92.1776 77.6467L96.8081 78.2975L96.6133 79.6838L91.9828 79.0331ZM97.2879 85.7871L98.3108 78.5086L99.7388 78.7093L98.7158 85.9878L97.2879 85.7871ZM99.23 76.9979C98.925 76.955 98.7004 76.8433 98.5561 76.6628C98.4118 76.4823 98.3598 76.2488 98.4 75.9623C98.4377 75.6942 98.5514 75.4887 98.7412 75.3458C98.9402 75.2041 99.1875 75.154 99.4833 75.1956C99.7883 75.2384 100.013 75.3501 100.157 75.5306C100.302 75.7111 100.354 75.9446 100.313 76.2312C100.276 76.4992 100.157 76.7041 99.9583 76.8457C99.7685 76.9887 99.5258 77.0394 99.23 76.9979ZM104.13 86.8901C103.418 86.79 102.803 86.5387 102.285 86.1359C101.777 85.7253 101.401 85.2153 101.157 84.6061C100.914 83.9876 100.844 83.3132 100.946 82.5831C101.049 81.8529 101.302 81.2287 101.704 80.7103C102.108 80.1828 102.61 79.7962 103.21 79.5507C103.821 79.2972 104.482 79.2204 105.194 79.3205C105.896 79.4192 106.501 79.6739 107.009 80.0845C107.527 80.4873 107.908 80.9979 108.151 81.6164C108.395 82.2256 108.466 82.8953 108.363 83.6255C108.261 84.3556 108.007 84.9845 107.603 85.5121C107.201 86.0304 106.694 86.4163 106.084 86.6698C105.483 86.9154 104.832 86.9888 104.13 86.8901ZM104.313 85.5869C104.747 85.6479 105.151 85.5962 105.522 85.4317C105.896 85.2579 106.205 84.9998 106.451 84.6574C106.699 84.3057 106.851 83.8936 106.908 83.4209C106.984 82.9416 106.952 82.5034 106.81 82.1065C106.669 81.7002 106.442 81.3668 106.13 81.1062C105.818 80.8455 105.445 80.6847 105.011 80.6236C104.576 80.5626 104.168 80.6183 103.785 80.7908C103.413 80.9553 103.104 81.2134 102.857 81.565C102.61 81.9075 102.459 82.315 102.402 82.7877C102.326 83.2577 102.359 83.6959 102.5 84.1021C102.642 84.4991 102.869 84.8325 103.179 85.1024C103.501 85.3643 103.879 85.5258 104.313 85.5869ZM109.374 87.4857L110.397 80.2072L111.825 80.4079L111.614 81.9052L111.341 82.0365C111.479 81.726 111.701 81.4555 112.007 81.2252C112.314 80.9856 112.664 80.8086 113.057 80.6941C113.451 80.5705 113.842 80.5359 114.231 80.5905C114.785 80.6684 115.232 80.8443 115.57 81.1181C115.91 81.3826 116.141 81.7497 116.264 82.2193C116.386 82.6889 116.4 83.2611 116.305 83.9358L115.682 88.3722L114.254 88.1715L114.864 83.8321C114.922 83.4162 114.915 83.0665 114.841 82.7828C114.769 82.49 114.626 82.2672 114.412 82.1146C114.199 81.9527 113.921 81.857 113.576 81.8274C113.299 81.7885 113.038 81.799 112.794 81.8589C112.551 81.9096 112.331 82.0012 112.133 82.1337C111.945 82.2674 111.785 82.4334 111.653 82.6317C111.532 82.822 111.455 83.0374 111.421 83.2777L110.802 87.6863L110.095 87.587C109.974 87.5701 109.854 87.5532 109.734 87.5363C109.614 87.5194 109.494 87.5025 109.374 87.4857Z" fill="#562F00"/>
<defs>
<filter id="filter0_dd_282_3043" x="59.4492" y="11.8516" width="34.2188" height="48.1602" filterUnits="userSpaceOnUse" color-interpolation-filters="sRGB">
<feFlood flood-opacity="0" result="BackgroundImageFix"/>
<feColorMatrix in="SourceAlpha" type="matrix" values="0 0 0 0 0 0 0 0 0 0 0 0 0 0 0 0 0 0 127 0" result="hardAlpha"/>
<feMorphology radius="1" operator="dilate" in="SourceAlpha" result="effect1_dropShadow_282_3043"/>
<feOffset dy="1"/>
<feGaussianBlur stdDeviation="1.5"/>
<feColorMatrix type="matrix" values="0 0 0 0 0 0 0 0 0 0 0 0 0 0 0 0 0 0 0.15 0"/>
<feBlend mode="normal" in2="BackgroundImageFix" result="effect1_dropShadow_282_3043"/>
<feColorMatrix in="SourceAlpha" type="matrix" values="0 0 0 0 0 0 0 0 0 0 0 0 0 0 0 0 0 0 127 0" result="hardAlpha"/>
<feOffset dy="1"/>
<feGaussianBlur stdDeviation="1"/>
<feColorMatrix type="matrix" values="0 0 0 0 0 0 0 0 0 0 0 0 0 0 0 0 0 0 0.3 0"/>
<feBlend mode="normal" in2="effect1_dropShadow_282_3043" result="effect2_dropShadow_282_3043"/>
<feBlend mode="normal" in="SourceGraphic" in2="effect2_dropShadow_282_3043" result="shape"/>
</filter>
</defs>
</svg>
