<svg width="151" height="101" viewBox="0 0 151 101" fill="none" xmlns="http://www.w3.org/2000/svg">
<rect x="45.5508" y="13.082" width="48" height="48" rx="4" transform="rotate(-8 45.5508 13.082)" fill="#F2E9DC"/>
<g filter="url(#filter0_dd_282_3051)">
<path d="M82.5088 34.8164L63.6364 37.4688C63.1221 37.5411 62.8841 38.1493 63.2152 38.5494C65.9085 41.8039 67.9007 43.6017 73.9559 42.7506C79.4708 41.9756 81.5595 39.942 83.2135 35.6913C83.3944 35.2263 83.0029 34.747 82.5088 34.8164Z" fill="#F2E9DC"/>
<path d="M82.5088 34.8164L63.6364 37.4688C63.1221 37.5411 62.8841 38.1493 63.2152 38.5494C65.9085 41.8039 67.9007 43.6017 73.9559 42.7506C79.4708 41.9756 81.5595 39.942 83.2135 35.6913C83.3944 35.2263 83.0029 34.747 82.5088 34.8164Z" stroke="#F2E9DC" stroke-width="1.23077"/>
</g>
<path fill-rule="evenodd" clip-rule="evenodd" d="M58.032 35.5649C59.1673 43.6424 66.6356 49.2702 74.713 48.135C82.7905 46.9998 88.4182 39.5314 87.283 31.454C86.1478 23.3766 78.6795 17.7488 70.6021 18.884C62.5246 20.0192 56.8968 27.4875 58.032 35.5649Z" fill="#FFCE99"/>
<path d="M66.7695 41.909C72.0739 40.4409 75.0223 39.9686 80.6333 39.9606M74.713 48.135C66.6356 49.2702 59.1673 43.6424 58.032 35.5649C56.8968 27.4875 62.5246 20.0192 70.6021 18.884C78.6795 17.7488 86.1478 23.3766 87.283 31.454C88.4182 39.5314 82.7905 46.9998 74.713 48.135Z" stroke="#FE7500" stroke-width="1.23077" stroke-linecap="round"/>
<path d="M74.1487 29.7647C74.3409 31.132 75.605 32.0846 76.9723 31.8925C78.3396 31.7003 79.2922 30.4361 79.1001 29.0689C78.9079 27.7016 77.6437 26.749 76.2765 26.9411C74.9092 27.1333 73.9566 28.3975 74.1487 29.7647Z" fill="#FE7500" stroke="#FE7500" stroke-width="1.23"/>
<path d="M64.2464 31.1554C64.4385 32.5226 65.7027 33.4753 67.07 33.2831C68.4372 33.0909 69.3899 31.8268 69.1977 30.4595C69.0056 29.0922 67.7414 28.1396 66.3741 28.3318C65.0068 28.5239 64.0542 29.7881 64.2464 31.1554Z" fill="#FE7500" stroke="#FE7500" stroke-width="1.23"/>
<rect x="7.51562" y="72.959" width="140" height="28" rx="8" transform="rotate(-8 7.51562 72.959)" fill="#FECE99"/>
<path d="M58.633 84.9608L57.2691 75.2562L61.3173 74.6872C61.9366 74.6002 62.4718 74.6192 62.9229 74.7443C63.374 74.8694 63.7319 75.1019 63.9964 75.4417C64.2689 75.771 64.4421 76.199 64.5162 76.7259C64.5902 77.2527 64.5053 77.7217 64.2615 78.133C64.027 78.543 63.6607 78.8536 63.1626 79.065L63.1236 78.7877C63.571 78.8191 63.9733 78.9322 64.3306 79.1271C64.6865 79.3127 64.977 79.5687 65.202 79.8953C65.4362 80.2205 65.5851 80.6096 65.6487 81.0625C65.7137 81.5246 65.6976 81.9463 65.6003 82.3275C65.5111 82.6982 65.34 83.0238 65.0873 83.3044C64.8438 83.5837 64.5324 83.8159 64.1532 84.0012C63.7726 84.1772 63.3282 84.3009 62.8199 84.3724L58.633 84.9608ZM59.9277 83.3085L62.534 82.9422C62.913 82.889 63.2241 82.7887 63.4673 82.6414C63.7197 82.4928 63.9003 82.3025 64.0091 82.0705C64.1258 81.8279 64.1627 81.5541 64.1198 81.2491C64.0796 80.9625 63.9666 80.7286 63.7809 80.5474C63.6044 80.3648 63.3704 80.2422 63.0789 80.1795C62.786 80.1076 62.4501 80.0982 62.0711 80.1515L59.5341 80.5081L59.9277 83.3085ZM59.3314 79.0662L61.7992 78.7194C62.0765 78.6804 62.3136 78.5906 62.5106 78.4498C62.7168 78.3077 62.8664 78.1312 62.9593 77.9202C63.0614 77.7079 63.0949 77.477 63.0598 77.2274C63.0014 76.8115 62.8179 76.5121 62.5095 76.3293C62.201 76.1464 61.788 76.0914 61.2704 76.1641L58.969 76.4876L59.3314 79.0662ZM70.9536 83.3706C70.242 83.4706 69.5815 83.3985 68.9722 83.1543C68.3709 82.8995 67.8689 82.5129 67.4662 81.9946C67.0622 81.467 66.8088 80.8381 66.7062 80.108C66.6036 79.3778 66.6744 78.7081 66.9187 78.0989C67.1616 77.4804 67.5377 76.9704 68.0467 76.569C68.5638 76.157 69.1781 75.901 69.8898 75.801C70.5922 75.7023 71.2441 75.7803 71.8454 76.0351C72.4547 76.2794 72.9613 76.6653 73.3653 77.1929C73.768 77.7112 74.0207 78.3354 74.1233 79.0656C74.226 79.7957 74.1558 80.4701 73.9128 81.0886C73.6686 81.6978 73.2879 82.2084 72.7709 82.6204C72.2618 83.0218 71.6561 83.2719 70.9536 83.3706ZM70.7705 82.0674C71.2049 82.0064 71.5781 81.8455 71.8902 81.5849C72.201 81.315 72.4275 80.9816 72.5696 80.5846C72.7105 80.1784 72.7431 79.7402 72.6676 79.2702C72.6093 78.7883 72.4572 78.3761 72.2111 78.0337C71.9638 77.682 71.6542 77.4239 71.2823 77.2594C70.9105 77.0949 70.5073 77.0432 70.0729 77.1042C69.6385 77.1653 69.2613 77.3314 68.9413 77.6025C68.6292 77.8632 68.4027 78.1966 68.2619 78.6028C68.1198 78.9998 68.0864 79.4333 68.1619 79.9034C68.2189 80.3761 68.3711 80.7882 68.6185 81.1399C68.8645 81.4823 69.1741 81.7404 69.5472 81.9142C69.9283 82.0774 70.3361 82.1285 70.7705 82.0674ZM76.1585 82.4977L75.1356 75.2193L76.5774 75.0166L76.8989 77.3042L76.6823 76.7691C76.7346 76.4036 76.8608 76.0607 77.0608 75.7404C77.2701 75.4188 77.5202 75.1528 77.811 74.9422C78.1112 74.7304 78.4322 74.6005 78.7742 74.5524C78.9313 74.5303 79.0811 74.5234 79.2236 74.5316C79.3754 74.5386 79.4955 74.5547 79.5839 74.58L79.4278 76.1853C79.3104 76.1547 79.1804 76.1353 79.0379 76.127C78.9033 76.1082 78.7713 76.1079 78.6419 76.1261C78.3923 76.1612 78.1592 76.2458 77.9424 76.3799C77.7336 76.5035 77.5537 76.6655 77.4028 76.8658C77.2598 77.0555 77.1537 77.2731 77.0845 77.5184C77.014 77.7545 76.9976 78.0066 77.0353 78.2746L77.6003 82.2951L76.1585 82.4977ZM81.9524 81.6835L80.9295 74.405L82.3575 74.2043L83.3804 81.4828L81.9524 81.6835ZM81.3967 72.6994C81.0917 72.7422 80.845 72.6968 80.6565 72.5631C80.4681 72.4293 80.3537 72.2192 80.3134 71.9327C80.2758 71.6646 80.3284 71.4357 80.4714 71.246C80.6236 71.055 80.8476 70.9387 81.1434 70.8971C81.4484 70.8542 81.6951 70.8997 81.8836 71.0334C82.072 71.1671 82.1864 71.3773 82.2266 71.6638C82.2643 71.9318 82.207 72.1614 82.0548 72.3524C81.9118 72.5422 81.6924 72.6578 81.3967 72.6994ZM85.542 81.179L84.5191 73.9005L85.9471 73.6998L86.1575 75.1971L85.9313 75.3985C85.9783 75.0621 86.117 74.741 86.3473 74.4353C86.5764 74.1203 86.8641 73.8537 87.2104 73.6354C87.5554 73.4078 87.922 73.2667 88.3102 73.2122C88.8648 73.1342 89.3425 73.1802 89.7434 73.3501C90.1429 73.5107 90.4663 73.7998 90.7135 74.2175C90.9607 74.6352 91.1317 75.1813 91.2266 75.856L91.85 80.2924L90.4221 80.4931L89.8122 76.1538C89.7538 75.7379 89.6503 75.4037 89.5017 75.1512C89.3518 74.8896 89.1529 74.7149 88.9049 74.6272C88.6557 74.5303 88.3614 74.5151 88.022 74.5816C87.7447 74.6206 87.4971 74.7025 87.279 74.8274C87.0596 74.9431 86.8732 75.0918 86.7196 75.2736C86.5753 75.4541 86.4673 75.6578 86.3955 75.8847C86.3317 76.101 86.3166 76.3293 86.3504 76.5696L86.97 80.9783L86.263 81.0777C86.1428 81.0945 86.0226 81.1114 85.9025 81.1283C85.7823 81.1452 85.6622 81.1621 85.542 81.179ZM97.46 82.7557C96.9424 82.8284 96.4132 82.818 95.8722 82.7243C95.3418 82.6387 94.9013 82.4885 94.5507 82.2739L94.9216 81.0907C95.1259 81.2034 95.36 81.293 95.6239 81.3596C95.889 81.4355 96.1641 81.4816 96.4492 81.4981C96.7355 81.5238 97.0127 81.5179 97.2808 81.4802C97.7891 81.4087 98.2026 81.2658 98.5212 81.0514C98.8398 80.837 99.0641 80.5557 99.1943 80.2075C99.3244 79.8593 99.3557 79.4449 99.2882 78.9643L99.0914 77.5641L99.2575 77.6397C99.2516 77.9327 99.138 78.2314 98.9169 78.5358C98.7037 78.8297 98.4194 79.0864 98.0638 79.3061C97.7083 79.5257 97.3318 79.6634 96.9343 79.7193C96.2411 79.8167 95.5992 79.742 95.0084 79.4951C94.4256 79.2377 93.9374 78.8492 93.5439 78.3296C93.1491 77.8007 92.9004 77.1712 92.7978 76.4411C92.6952 75.7109 92.7568 75.0425 92.9826 74.4358C93.2163 73.8186 93.5784 73.3106 94.069 72.9118C94.5676 72.5024 95.1542 72.2503 95.8289 72.1555C96.1062 72.1165 96.3794 72.1158 96.6486 72.1534C96.9165 72.1817 97.1704 72.245 97.4104 72.3432C97.6491 72.4322 97.8667 72.5383 98.0631 72.6615C98.2595 72.7847 98.4248 72.9217 98.5591 73.0725C98.6934 73.2232 98.7848 73.3706 98.8333 73.5146L98.5439 73.6684L98.3042 71.9631L99.7322 71.7624L100.693 78.5973C100.775 79.1796 100.759 79.7049 100.646 80.1732C100.543 80.6494 100.351 81.0628 100.071 81.4133C99.7913 81.773 99.4316 82.0639 98.9916 82.2859C98.5528 82.5172 98.0423 82.6738 97.46 82.7557ZM96.9017 78.3808C97.3546 78.3171 97.7417 78.1543 98.0631 77.8924C98.3844 77.6305 98.6161 77.301 98.7583 76.904C98.9004 76.507 98.9377 76.0683 98.8702 75.5876C98.8026 75.107 98.6412 74.6962 98.3859 74.355C98.1385 74.0034 97.8243 73.7459 97.4432 73.5827C97.0714 73.4182 96.659 73.3678 96.2061 73.4314C95.7625 73.4938 95.3807 73.6605 95.0606 73.9317C94.7485 74.1924 94.5174 74.5264 94.3674 74.934C94.2252 75.3309 94.1873 75.7651 94.2535 76.2365C94.3198 76.7078 94.4766 77.1194 94.7239 77.471C94.9792 77.8121 95.2928 78.065 95.6646 78.2295C96.0457 78.3927 96.4581 78.4431 96.9017 78.3808Z" fill="#562F00"/>
<defs>
<filter id="filter0_dd_282_3051" x="52.4835" y="14.224" width="40.3455" height="40.3455" filterUnits="userSpaceOnUse" color-interpolation-filters="sRGB">
<feFlood flood-opacity="0" result="BackgroundImageFix"/>
<feColorMatrix in="SourceAlpha" type="matrix" values="0 0 0 0 0 0 0 0 0 0 0 0 0 0 0 0 0 0 127 0" result="hardAlpha"/>
<feMorphology radius="0.888889" operator="dilate" in="SourceAlpha" result="effect1_dropShadow_282_3051"/>
<feOffset dy="0.888889"/>
<feGaussianBlur stdDeviation="1.33333"/>
<feColorMatrix type="matrix" values="0 0 0 0 0 0 0 0 0 0 0 0 0 0 0 0 0 0 0.15 0"/>
<feBlend mode="normal" in2="BackgroundImageFix" result="effect1_dropShadow_282_3051"/>
<feColorMatrix in="SourceAlpha" type="matrix" values="0 0 0 0 0 0 0 0 0 0 0 0 0 0 0 0 0 0 127 0" result="hardAlpha"/>
<feOffset dy="0.888889"/>
<feGaussianBlur stdDeviation="0.888889"/>
<feColorMatrix type="matrix" values="0 0 0 0 0 0 0 0 0 0 0 0 0 0 0 0 0 0 0.3 0"/>
<feBlend mode="normal" in2="effect1_dropShadow_282_3051" result="effect2_dropShadow_282_3051"/>
<feBlend mode="normal" in="SourceGraphic" in2="effect2_dropShadow_282_3051" result="shape"/>
</filter>
</defs>
</svg>
