<svg width="55" height="55" viewBox="0 0 55 55" fill="none" xmlns="http://www.w3.org/2000/svg">
<rect y="6.68031" width="48" height="48" rx="4" transform="rotate(-8 0 6.68031)" fill="#F2E9DC"/>
<g filter="url(#filter0_dd_282_3052)">
<path d="M36.958 28.4147L18.0856 31.0671C17.5713 31.1393 17.3334 31.7476 17.6645 32.1477C20.3577 35.4021 22.35 37.1999 28.4052 36.3489C33.92 35.5739 36.0087 33.5403 37.6627 29.2896C37.8436 28.8246 37.4521 28.3453 36.958 28.4147Z" fill="#F2E9DC"/>
<path d="M36.958 28.4147L18.0856 31.0671C17.5713 31.1393 17.3334 31.7476 17.6645 32.1477C20.3577 35.4021 22.35 37.1999 28.4052 36.3489C33.92 35.5739 36.0087 33.5403 37.6627 29.2896C37.8436 28.8246 37.4521 28.3453 36.958 28.4147Z" stroke="#F2E9DC" stroke-width="1.23077"/>
</g>
<path fill-rule="evenodd" clip-rule="evenodd" d="M12.4813 29.1632C13.6165 37.2407 21.0848 42.8685 29.1622 41.7332C37.2397 40.598 42.8675 33.1297 41.7323 25.0523C40.597 16.9748 33.1287 11.347 25.0513 12.4823C16.9738 13.6175 11.3461 21.0858 12.4813 29.1632Z" fill="#FFCE99"/>
<path d="M21.2187 35.5073C26.5231 34.0392 29.4715 33.5668 35.0825 33.5589M29.1622 41.7332C21.0848 42.8685 13.6165 37.2407 12.4813 29.1632C11.3461 21.0858 16.9738 13.6175 25.0513 12.4823C33.1287 11.347 40.597 16.9748 41.7323 25.0523C42.8675 33.1297 37.2397 40.598 29.1622 41.7332Z" stroke="#FE7500" stroke-width="1.23077" stroke-linecap="round"/>
<path d="M28.5979 23.363C28.7901 24.7303 30.0543 25.6829 31.4215 25.4907C32.7888 25.2986 33.7414 24.0344 33.5493 22.6671C33.3571 21.2999 32.0929 20.3472 30.7257 20.5394C29.3584 20.7316 28.4058 21.9957 28.5979 23.363Z" fill="#FE7500" stroke="#FE7500" stroke-width="1.23"/>
<path d="M18.6956 24.7536C18.8877 26.1209 20.1519 27.0735 21.5192 26.8814C22.8865 26.6892 23.8391 25.425 23.6469 24.0578C23.4548 22.6905 22.1906 21.7379 20.8233 21.93C19.4561 22.1222 18.5034 23.3864 18.6956 24.7536Z" fill="#FE7500" stroke="#FE7500" stroke-width="1.23"/>
<defs>
<filter id="filter0_dd_282_3052" x="6.93273" y="7.82224" width="40.3455" height="40.3455" filterUnits="userSpaceOnUse" color-interpolation-filters="sRGB">
<feFlood flood-opacity="0" result="BackgroundImageFix"/>
<feColorMatrix in="SourceAlpha" type="matrix" values="0 0 0 0 0 0 0 0 0 0 0 0 0 0 0 0 0 0 127 0" result="hardAlpha"/>
<feMorphology radius="0.888889" operator="dilate" in="SourceAlpha" result="effect1_dropShadow_282_3052"/>
<feOffset dy="0.888889"/>
<feGaussianBlur stdDeviation="1.33333"/>
<feColorMatrix type="matrix" values="0 0 0 0 0 0 0 0 0 0 0 0 0 0 0 0 0 0 0.15 0"/>
<feBlend mode="normal" in2="BackgroundImageFix" result="effect1_dropShadow_282_3052"/>
<feColorMatrix in="SourceAlpha" type="matrix" values="0 0 0 0 0 0 0 0 0 0 0 0 0 0 0 0 0 0 127 0" result="hardAlpha"/>
<feOffset dy="0.888889"/>
<feGaussianBlur stdDeviation="0.888889"/>
<feColorMatrix type="matrix" values="0 0 0 0 0 0 0 0 0 0 0 0 0 0 0 0 0 0 0.3 0"/>
<feBlend mode="normal" in2="effect1_dropShadow_282_3052" result="effect2_dropShadow_282_3052"/>
<feBlend mode="normal" in="SourceGraphic" in2="effect2_dropShadow_282_3052" result="shape"/>
</filter>
</defs>
</svg>
