<svg width="151" height="101" viewBox="0 0 151 101" fill="none" xmlns="http://www.w3.org/2000/svg">
<rect x="56.9648" y="6.40234" width="48" height="48" rx="4" transform="rotate(8 56.9648 6.40234)" fill="#F2E9DC"/>
<g filter="url(#filter0_dd_282_3060)">
<path d="M64.1385 26.4232L63.0099 34.4536C62.9029 35.2151 63.2419 35.9704 63.8819 36.3966L72.3668 42.0469L73.7472 32.2251L64.1385 26.4232Z" fill="#F2E9DC"/>
<path d="M73.7472 32.2251L72.3668 42.0469L94.3567 33.5111C95.0688 33.2346 95.5613 32.5767 95.6258 31.8156L96.3129 23.7113L73.7472 32.2251Z" fill="#F2E9DC"/>
<path d="M64.1385 26.4232L73.7472 32.2251L96.3129 23.7113L88.7887 17.6892C88.227 17.2396 87.467 17.1264 86.7986 17.3927L64.1385 26.4232Z" fill="#F2E9DC"/>
<path d="M86.428 16.4639C87.4307 16.0643 88.5712 16.2337 89.4138 16.9081L96.492 22.5744L97.4437 22.216L97.3546 23.2636L98.3084 24.0278L97.2556 24.4242L96.6221 31.9C96.5253 33.0418 95.7866 34.0284 94.7184 34.443L73.2752 42.7663L73.1355 43.7604L72.2446 43.1668L71.1389 43.5962L71.2888 42.5295L63.3279 37.2294C62.368 36.5901 61.8593 35.4569 62.0196 34.3148L63.0565 26.9371L61.8992 26.239L63.2292 25.708L63.359 24.7845L64.23 25.3092L86.428 16.4639Z" stroke="#F2E9DC" stroke-width="2"/>
</g>
<g filter="url(#filter1_dd_282_3060)">
<path d="M61.3221 34.4232L60.1935 42.4536C60.0865 43.2151 60.4255 43.9704 61.0655 44.3966L69.5504 50.0469L70.9308 40.2251L61.3221 34.4232Z" fill="#F2E9DC"/>
<path d="M70.9308 40.2251L69.5504 50.0469L91.5403 41.5111C92.2524 41.2346 92.7449 40.5767 92.8094 39.8156L93.4965 31.7113L70.9308 40.2251Z" fill="#F2E9DC"/>
<path d="M61.3221 34.4232L70.9308 40.2251L93.4965 31.7113L85.9723 25.6892C85.4105 25.2396 84.6506 25.1264 83.9822 25.3927L61.3221 34.4232Z" fill="#F2E9DC"/>
<path d="M83.6116 24.4639C84.6143 24.0643 85.7548 24.2337 86.5974 24.9081L93.6756 30.5744L94.6273 30.216L94.5382 31.2636L95.4919 32.0278L94.4392 32.4242L93.8057 39.9C93.7089 41.0418 92.9702 42.0284 91.902 42.443L70.4588 50.7663L70.3191 51.7604L69.4282 51.1668L68.3225 51.5962L68.4724 50.5295L60.5115 45.2294C59.5516 44.5901 59.0428 43.4569 59.2032 42.3148L60.2401 34.9371L59.0828 34.239L60.4128 33.708L60.5426 32.7845L61.4136 33.3092L83.6116 24.4639Z" stroke="#F2E9DC" stroke-width="2"/>
</g>
<path d="M64.1385 26.4232L63.0099 34.4536C62.9029 35.2151 63.2419 35.9704 63.8819 36.3966L72.3668 42.0469L73.7472 32.2251L64.1385 26.4232Z" fill="#FFCE99"/>
<path d="M73.7472 32.2251L72.3668 42.0469L94.3567 33.5111C95.0688 33.2346 95.5613 32.5767 95.6258 31.8156L96.3129 23.7113L73.7472 32.2251Z" fill="#FFCE99"/>
<path d="M64.1385 26.4232L73.7472 32.2251L96.3129 23.7113L88.7887 17.6892C88.227 17.2396 87.467 17.1264 86.7986 17.3927L64.1385 26.4232Z" fill="#FFCE99"/>
<path d="M64.1385 26.4232L63.0099 34.4536C62.9029 35.2151 63.2419 35.9704 63.8819 36.3966L72.3668 42.0469M64.1385 26.4232L73.7472 32.2251M64.1385 26.4232L86.7986 17.3927C87.467 17.1264 88.227 17.2396 88.7887 17.6892L96.3129 23.7113M72.3668 42.0469L73.7472 32.2251M72.3668 42.0469L94.3567 33.5111C95.0688 33.2346 95.5613 32.5767 95.6258 31.8156L96.3129 23.7113M73.7472 32.2251L96.3129 23.7113" stroke="#FE7500"/>
<path d="M61.3221 34.4232L60.1935 42.4536C60.0865 43.2151 60.4255 43.9704 61.0655 44.3966L69.5504 50.0469L70.9308 40.2251L61.3221 34.4232Z" fill="#FFCE99"/>
<path d="M70.9308 40.2251L69.5504 50.0469L91.5403 41.5111C92.2524 41.2346 92.7449 40.5767 92.8094 39.8156L93.4965 31.7113L70.9308 40.2251Z" fill="#FFCE99"/>
<path d="M61.3221 34.4232L70.9308 40.2251L93.4965 31.7113L85.9723 25.6892C85.4105 25.2396 84.6506 25.1264 83.9822 25.3927L61.3221 34.4232Z" fill="#FFCE99"/>
<path d="M61.3221 34.4232L60.1935 42.4536C60.0865 43.2151 60.4255 43.9704 61.0655 44.3966L69.5504 50.0469M61.3221 34.4232L70.9308 40.2251M61.3221 34.4232L83.9822 25.3927C84.6506 25.1264 85.4105 25.2396 85.9723 25.6892L93.4965 31.7113M69.5504 50.0469L70.9308 40.2251M69.5504 50.0469L91.5403 41.5111C92.2524 41.2346 92.7449 40.5767 92.8094 39.8156L93.4965 31.7113M70.9308 40.2251L93.4965 31.7113" stroke="#FE7500"/>
<rect x="3.89844" y="53.4746" width="140" height="28" rx="8" transform="rotate(8 3.89844 53.4746)" fill="#FECE99"/>
<path d="M54.743 79.8062L56.1068 70.1016L60.2382 70.6822C60.7928 70.7602 61.2816 70.9702 61.7048 71.3125C62.1385 71.6467 62.4609 72.069 62.6719 72.5794C62.8842 73.0805 62.9495 73.6222 62.8676 74.2044C62.7936 74.7313 62.5861 75.2016 62.2452 75.6155C61.9043 76.0295 61.4833 76.3426 60.9822 76.5549C60.4824 76.758 59.9506 76.8199 59.3868 76.7407L56.7527 76.3705L56.2402 80.0166L54.743 79.8062ZM60.5103 80.6168L58.6582 75.889L60.2458 75.7587L62.3245 80.8859L60.5103 80.6168ZM56.9553 74.9287L59.7281 75.3183C59.9961 75.356 60.2455 75.3251 60.4763 75.2256C60.7083 75.1168 60.9007 74.9553 61.0533 74.7412C61.2072 74.5177 61.3043 74.2628 61.3446 73.9763C61.39 73.6528 61.3511 73.3598 61.2277 73.0974C61.1149 72.8271 60.9296 72.6031 60.6718 72.4255C60.4233 72.2492 60.128 72.137 59.7861 72.089L57.4015 71.7539L56.9553 74.9287ZM64.2245 81.1388L65.2475 73.8603L66.6754 74.061L65.6525 81.3395L64.2245 81.1388ZM66.1667 72.3495C65.8617 72.3067 65.637 72.195 65.4927 72.0145C65.3485 71.834 65.2965 71.6005 65.3367 71.3139C65.3744 71.0459 65.4881 70.8404 65.6778 70.6974C65.8768 70.5557 66.1242 70.5057 66.42 70.5472C66.725 70.5901 66.9496 70.7018 67.0939 70.8823C67.2382 71.0628 67.2902 71.2963 67.2499 71.5828C67.2122 71.8509 67.0939 72.0557 66.8949 72.1974C66.7052 72.3404 66.4624 72.3911 66.1667 72.3495ZM70.624 85.2898C70.1064 85.2171 69.6005 85.0611 69.1063 84.822C68.6201 84.5935 68.238 84.3277 67.9601 84.0248L68.6428 82.9897C68.8082 83.1543 69.0085 83.305 69.2438 83.4417C69.4777 83.5877 69.7294 83.7079 69.9989 83.8023C70.2671 83.906 70.5352 83.9767 70.8033 84.0143C71.3116 84.0858 71.7484 84.0623 72.1138 83.944C72.4791 83.8257 72.7724 83.6172 72.9934 83.3184C73.2145 83.0196 73.3588 82.6299 73.4263 82.1492L73.6231 80.749L73.762 80.8675C73.6755 81.1475 73.4841 81.4034 73.1876 81.635C72.9017 81.8587 72.5576 82.0271 72.1552 82.1403C71.7529 82.2534 71.353 82.282 70.9556 82.2261C70.2624 82.1287 69.6659 81.8799 69.1661 81.4798C68.6768 81.0717 68.3146 80.5637 68.0796 79.9558C67.8459 79.3386 67.7803 78.6649 67.8829 77.9347C67.9856 77.2046 68.229 76.579 68.6132 76.0581C69.008 75.5292 69.4962 75.1407 70.0777 74.8926C70.6698 74.6365 71.3031 74.5559 71.9779 74.6507C72.2551 74.6896 72.518 74.7643 72.7664 74.8746C73.0161 74.9757 73.2427 75.1065 73.4464 75.2671C73.6513 75.4184 73.8312 75.5803 73.986 75.7529C74.1408 75.9254 74.262 76.1027 74.3495 76.2847C74.4371 76.4666 74.4843 76.6335 74.4912 76.7853L74.1706 76.8533L74.4103 75.1481L75.8383 75.3487L74.8777 82.1836C74.7959 82.7658 74.636 83.2665 74.398 83.6854C74.168 84.1149 73.8698 84.4594 73.5035 84.719C73.1358 84.9878 72.7099 85.1682 72.2257 85.2604C71.7402 85.3618 71.2063 85.3716 70.624 85.2898ZM71.2932 80.9305C71.7461 80.9942 72.1631 80.9444 72.5442 80.7812C72.9253 80.6179 73.2388 80.3651 73.4849 80.0227C73.7309 79.6803 73.8877 79.2688 73.9553 78.7882C74.0228 78.3075 73.9809 77.8681 73.8295 77.4698C73.6887 77.0636 73.4576 76.7295 73.1363 76.4676C72.8242 76.2069 72.4417 76.0448 71.9888 75.9812C71.5452 75.9188 71.1321 75.9739 70.7497 76.1463C70.3779 76.3108 70.0637 76.5683 69.8071 76.9186C69.561 77.2611 69.4049 77.668 69.3386 78.1393C69.2724 78.6107 69.3097 79.0495 69.4505 79.4557C69.6019 79.854 69.8336 80.1834 70.1457 80.4441C70.4671 80.706 70.8496 80.8682 71.2932 80.9305ZM77.0199 82.937L78.0428 75.6586L79.4708 75.8593L78.4478 83.1377L77.0199 82.937ZM78.962 74.1478C78.657 74.1049 78.4324 73.9932 78.2881 73.8127C78.1438 73.6322 78.0918 73.3987 78.1321 73.1122C78.1697 72.8442 78.2834 72.6387 78.4732 72.4957C78.6722 72.354 78.9195 72.3039 79.2153 72.3455C79.5203 72.3884 79.7449 72.5001 79.8892 72.6806C80.0335 72.8611 80.0855 73.0946 80.0453 73.3811C80.0076 73.6491 79.8893 73.854 79.6903 73.9957C79.5005 74.1387 79.2578 74.1894 78.962 74.1478ZM83.6262 84.0069C82.9607 83.9133 82.3873 83.6678 81.9059 83.2703C81.4351 82.8648 81.0868 82.3588 80.8611 81.7521C80.6366 81.1362 80.5757 80.4632 80.6783 79.733C80.7809 79.0029 81.0197 78.3767 81.3947 77.8544C81.7802 77.3243 82.2545 76.9338 82.8176 76.6831C83.3819 76.4231 83.9922 76.3392 84.6484 76.4314C85.0089 76.4821 85.347 76.5909 85.6629 76.7578C85.9892 76.9167 86.2722 77.1167 86.5116 77.3577C86.7524 77.5895 86.9298 77.8359 87.0439 78.097C87.1686 78.3502 87.214 78.5969 87.1802 78.8372L86.7604 78.8065L87.4443 73.9403L88.8723 74.141L87.4305 84.4001L86.0025 84.1995L86.246 82.4665L86.5233 82.5055C86.4921 82.7273 86.387 82.9387 86.208 83.1397C86.0302 83.3315 85.8036 83.5023 85.528 83.6521C85.2618 83.8032 84.9591 83.9114 84.62 83.9769C84.2902 84.0436 83.9589 84.0536 83.6262 84.0069ZM83.9937 82.8003C84.4281 82.8613 84.8272 82.8043 85.1911 82.6293C85.555 82.4542 85.856 82.1902 86.0941 81.8372C86.3428 81.4763 86.5015 81.0509 86.5704 80.5611C86.6392 80.0712 86.6032 79.6232 86.4624 79.217C86.3321 78.8028 86.1162 78.4614 85.8146 78.1929C85.5131 77.9243 85.1451 77.7595 84.7107 77.6984C84.2763 77.6374 83.8771 77.6944 83.5132 77.8694C83.1493 78.0445 82.8431 78.3125 82.5944 78.6734C82.3563 79.0263 82.2028 79.4477 82.134 79.9376C82.0651 80.4274 82.0959 80.8795 82.2262 81.2936C82.367 81.6998 82.5882 82.0372 82.8897 82.3058C83.1913 82.5744 83.5593 82.7392 83.9937 82.8003Z" fill="#562F00"/>
<defs>
<filter id="filter0_dd_282_3060" x="56.9922" y="12.25" width="45.4023" height="37.0371" filterUnits="userSpaceOnUse" color-interpolation-filters="sRGB">
<feFlood flood-opacity="0" result="BackgroundImageFix"/>
<feColorMatrix in="SourceAlpha" type="matrix" values="0 0 0 0 0 0 0 0 0 0 0 0 0 0 0 0 0 0 127 0" result="hardAlpha"/>
<feMorphology radius="1" operator="dilate" in="SourceAlpha" result="effect1_dropShadow_282_3060"/>
<feOffset dy="1"/>
<feGaussianBlur stdDeviation="1.5"/>
<feColorMatrix type="matrix" values="0 0 0 0 0 0 0 0 0 0 0 0 0 0 0 0 0 0 0.15 0"/>
<feBlend mode="normal" in2="BackgroundImageFix" result="effect1_dropShadow_282_3060"/>
<feColorMatrix in="SourceAlpha" type="matrix" values="0 0 0 0 0 0 0 0 0 0 0 0 0 0 0 0 0 0 127 0" result="hardAlpha"/>
<feOffset dy="1"/>
<feGaussianBlur stdDeviation="1"/>
<feColorMatrix type="matrix" values="0 0 0 0 0 0 0 0 0 0 0 0 0 0 0 0 0 0 0.3 0"/>
<feBlend mode="normal" in2="effect1_dropShadow_282_3060" result="effect2_dropShadow_282_3060"/>
<feBlend mode="normal" in="SourceGraphic" in2="effect2_dropShadow_282_3060" result="shape"/>
</filter>
<filter id="filter1_dd_282_3060" x="54.1758" y="20.25" width="45.4023" height="37.0371" filterUnits="userSpaceOnUse" color-interpolation-filters="sRGB">
<feFlood flood-opacity="0" result="BackgroundImageFix"/>
<feColorMatrix in="SourceAlpha" type="matrix" values="0 0 0 0 0 0 0 0 0 0 0 0 0 0 0 0 0 0 127 0" result="hardAlpha"/>
<feMorphology radius="1" operator="dilate" in="SourceAlpha" result="effect1_dropShadow_282_3060"/>
<feOffset dy="1"/>
<feGaussianBlur stdDeviation="1.5"/>
<feColorMatrix type="matrix" values="0 0 0 0 0 0 0 0 0 0 0 0 0 0 0 0 0 0 0.15 0"/>
<feBlend mode="normal" in2="BackgroundImageFix" result="effect1_dropShadow_282_3060"/>
<feColorMatrix in="SourceAlpha" type="matrix" values="0 0 0 0 0 0 0 0 0 0 0 0 0 0 0 0 0 0 127 0" result="hardAlpha"/>
<feOffset dy="1"/>
<feGaussianBlur stdDeviation="1"/>
<feColorMatrix type="matrix" values="0 0 0 0 0 0 0 0 0 0 0 0 0 0 0 0 0 0 0.3 0"/>
<feBlend mode="normal" in2="effect1_dropShadow_282_3060" result="effect2_dropShadow_282_3060"/>
<feBlend mode="normal" in="SourceGraphic" in2="effect2_dropShadow_282_3060" result="shape"/>
</filter>
</defs>
</svg>
