<svg width="55" height="55" viewBox="0 0 55 55" fill="none" xmlns="http://www.w3.org/2000/svg">
<rect x="6.68031" width="48" height="48" rx="4" transform="rotate(8 6.68031 0)" fill="#F2E9DC"/>
<g filter="url(#filter0_dd_282_3061)">
<path d="M13.854 20.0208L12.7254 28.0513C12.6184 28.8127 12.9574 29.5681 13.5974 29.9943L22.0823 35.6446L23.4626 25.8227L13.854 20.0208Z" fill="#F2E9DC"/>
<path d="M23.4626 25.8227L22.0823 35.6446L44.0722 27.1087C44.7843 26.8323 45.2768 26.1744 45.3413 25.4132L46.0284 17.309L23.4626 25.8227Z" fill="#F2E9DC"/>
<path d="M13.854 20.0208L23.4626 25.8227L46.0284 17.309L38.5042 11.2868C37.9424 10.8372 37.1824 10.724 36.514 10.9904L13.854 20.0208Z" fill="#F2E9DC"/>
<path d="M36.1435 10.0615C37.1461 9.66197 38.2867 9.83138 39.1293 10.5058L46.2074 16.172L47.1592 15.8137L47.0701 16.8613L48.0238 17.6255L46.9711 18.0219L46.3376 25.4977C46.2408 26.6394 45.5021 27.6261 44.4339 28.0407L22.9907 36.3639L22.8509 37.3581L21.9601 36.7644L20.8544 37.1938L21.0043 36.1272L13.0434 30.827C12.0835 30.1878 11.5747 29.0545 11.7351 27.9125L12.7719 20.5348L11.6147 19.8367L12.9447 19.3057L13.0745 18.3821L13.9455 18.9069L36.1435 10.0615Z" stroke="#F2E9DC" stroke-width="2"/>
</g>
<g filter="url(#filter1_dd_282_3061)">
<path d="M11.0376 28.0208L9.90899 36.0513C9.80198 36.8127 10.141 37.5681 10.781 37.9943L19.2659 43.6446L20.6462 33.8227L11.0376 28.0208Z" fill="#F2E9DC"/>
<path d="M20.6462 33.8227L19.2659 43.6446L41.2558 35.1087C41.9679 34.8323 42.4603 34.1744 42.5249 33.4132L43.212 25.309L20.6462 33.8227Z" fill="#F2E9DC"/>
<path d="M11.0376 28.0208L20.6462 33.8227L43.212 25.309L35.6878 19.2868C35.126 18.8372 34.366 18.724 33.6976 18.9904L11.0376 28.0208Z" fill="#F2E9DC"/>
<path d="M33.3271 18.0615C34.3297 17.662 35.4702 17.8314 36.3129 18.5058L43.391 24.172L44.3428 23.8137L44.2537 24.8613L45.2074 25.6255L44.1547 26.0219L43.5212 33.4977C43.4244 34.6394 42.6857 35.6261 41.6175 36.0407L20.1743 44.3639L20.0345 45.3581L19.1436 44.7644L18.038 45.1938L18.1879 44.1272L10.2269 38.827C9.26704 38.1878 8.75831 37.0545 8.91867 35.9125L9.95554 28.5348L8.79827 27.8367L10.1283 27.3057L10.2581 26.3821L11.1291 26.9069L33.3271 18.0615Z" stroke="#F2E9DC" stroke-width="2"/>
</g>
<path d="M13.854 20.0208L12.7254 28.0513C12.6184 28.8127 12.9574 29.5681 13.5974 29.9943L22.0823 35.6446L23.4626 25.8227L13.854 20.0208Z" fill="#FFCE99"/>
<path d="M23.4626 25.8227L22.0823 35.6446L44.0722 27.1087C44.7843 26.8323 45.2768 26.1744 45.3413 25.4132L46.0284 17.309L23.4626 25.8227Z" fill="#FFCE99"/>
<path d="M13.854 20.0208L23.4626 25.8227L46.0284 17.309L38.5042 11.2868C37.9424 10.8372 37.1824 10.724 36.514 10.9904L13.854 20.0208Z" fill="#FFCE99"/>
<path d="M13.854 20.0208L12.7254 28.0513C12.6184 28.8127 12.9574 29.5681 13.5974 29.9943L22.0823 35.6446M13.854 20.0208L23.4626 25.8227M13.854 20.0208L36.514 10.9904C37.1824 10.724 37.9424 10.8372 38.5042 11.2868L46.0284 17.309M22.0823 35.6446L23.4626 25.8227M22.0823 35.6446L44.0722 27.1087C44.7843 26.8323 45.2768 26.1744 45.3413 25.4132L46.0284 17.309M23.4626 25.8227L46.0284 17.309" stroke="#FE7500"/>
<path d="M11.0376 28.0208L9.90899 36.0513C9.80198 36.8127 10.141 37.5681 10.781 37.9943L19.2659 43.6446L20.6462 33.8227L11.0376 28.0208Z" fill="#FFCE99"/>
<path d="M20.6462 33.8227L19.2659 43.6446L41.2558 35.1087C41.9679 34.8323 42.4603 34.1744 42.5249 33.4132L43.212 25.309L20.6462 33.8227Z" fill="#FFCE99"/>
<path d="M11.0376 28.0208L20.6462 33.8227L43.212 25.309L35.6878 19.2868C35.126 18.8372 34.366 18.724 33.6976 18.9904L11.0376 28.0208Z" fill="#FFCE99"/>
<path d="M11.0376 28.0208L9.90899 36.0513C9.80198 36.8127 10.141 37.5681 10.781 37.9943L19.2659 43.6446M11.0376 28.0208L20.6462 33.8227M11.0376 28.0208L33.6976 18.9904C34.366 18.724 35.126 18.8372 35.6878 19.2868L43.212 25.309M19.2659 43.6446L20.6462 33.8227M19.2659 43.6446L41.2558 35.1087C41.9679 34.8323 42.4603 34.1744 42.5249 33.4132L43.212 25.309M20.6462 33.8227L43.212 25.309" stroke="#FE7500"/>
<defs>
<filter id="filter0_dd_282_3061" x="6.70765" y="5.84766" width="45.4023" height="37.0371" filterUnits="userSpaceOnUse" color-interpolation-filters="sRGB">
<feFlood flood-opacity="0" result="BackgroundImageFix"/>
<feColorMatrix in="SourceAlpha" type="matrix" values="0 0 0 0 0 0 0 0 0 0 0 0 0 0 0 0 0 0 127 0" result="hardAlpha"/>
<feMorphology radius="1" operator="dilate" in="SourceAlpha" result="effect1_dropShadow_282_3061"/>
<feOffset dy="1"/>
<feGaussianBlur stdDeviation="1.5"/>
<feColorMatrix type="matrix" values="0 0 0 0 0 0 0 0 0 0 0 0 0 0 0 0 0 0 0.15 0"/>
<feBlend mode="normal" in2="BackgroundImageFix" result="effect1_dropShadow_282_3061"/>
<feColorMatrix in="SourceAlpha" type="matrix" values="0 0 0 0 0 0 0 0 0 0 0 0 0 0 0 0 0 0 127 0" result="hardAlpha"/>
<feOffset dy="1"/>
<feGaussianBlur stdDeviation="1"/>
<feColorMatrix type="matrix" values="0 0 0 0 0 0 0 0 0 0 0 0 0 0 0 0 0 0 0.3 0"/>
<feBlend mode="normal" in2="effect1_dropShadow_282_3061" result="effect2_dropShadow_282_3061"/>
<feBlend mode="normal" in="SourceGraphic" in2="effect2_dropShadow_282_3061" result="shape"/>
</filter>
<filter id="filter1_dd_282_3061" x="3.89125" y="13.8477" width="45.4023" height="37.0371" filterUnits="userSpaceOnUse" color-interpolation-filters="sRGB">
<feFlood flood-opacity="0" result="BackgroundImageFix"/>
<feColorMatrix in="SourceAlpha" type="matrix" values="0 0 0 0 0 0 0 0 0 0 0 0 0 0 0 0 0 0 127 0" result="hardAlpha"/>
<feMorphology radius="1" operator="dilate" in="SourceAlpha" result="effect1_dropShadow_282_3061"/>
<feOffset dy="1"/>
<feGaussianBlur stdDeviation="1.5"/>
<feColorMatrix type="matrix" values="0 0 0 0 0 0 0 0 0 0 0 0 0 0 0 0 0 0 0.15 0"/>
<feBlend mode="normal" in2="BackgroundImageFix" result="effect1_dropShadow_282_3061"/>
<feColorMatrix in="SourceAlpha" type="matrix" values="0 0 0 0 0 0 0 0 0 0 0 0 0 0 0 0 0 0 127 0" result="hardAlpha"/>
<feOffset dy="1"/>
<feGaussianBlur stdDeviation="1"/>
<feColorMatrix type="matrix" values="0 0 0 0 0 0 0 0 0 0 0 0 0 0 0 0 0 0 0.3 0"/>
<feBlend mode="normal" in2="effect1_dropShadow_282_3061" result="effect2_dropShadow_282_3061"/>
<feBlend mode="normal" in="SourceGraphic" in2="effect2_dropShadow_282_3061" result="shape"/>
</filter>
</defs>
</svg>
