<svg width="1244" height="293" viewBox="0 0 1244 293" fill="none" xmlns="http://www.w3.org/2000/svg">
<g filter="url(#filter0_d_762_9552)">
<rect width="245" height="245" rx="24" transform="matrix(0.981627 -0.190809 0 1 48 46.7482)" fill="#FFFDF0"/>
<rect x="0.490814" y="0.404596" width="244" height="244" rx="23.5" transform="matrix(0.981627 -0.190809 0 1 48.009 46.8418)" stroke="#F2E9DC"/>
</g>
<path d="M104.74 151.878C100.307 152.739 97.0613 157.623 98.1535 161.787L104.699 186.744C105.465 189.664 108.177 191.285 111.286 190.681L159.343 181.34L154.777 166.545L150.211 151.751L149.117 148.206C148.261 145.434 145.61 143.933 142.602 144.518L129.338 147.096L104.74 151.878Z" fill="#FECE99"/>
<path d="M177.679 177.776L159.343 181.34M159.343 181.34L111.286 190.681C108.177 191.285 105.465 189.664 104.699 186.744L98.1535 161.787C97.0613 157.623 100.307 152.739 104.74 151.878L129.338 147.096M159.343 181.34L154.777 166.545M129.338 147.096L142.602 144.518C145.61 143.933 148.261 145.434 149.117 148.206L150.211 151.751M129.338 147.096L136.552 136.269C140.415 130.47 146.347 126.366 152.63 125.145L164.079 122.919C169.577 121.85 174.842 123.089 178.68 126.355L180.488 127.894C182.962 129.999 184.346 133.197 184.346 136.808V143.129C184.346 148.759 181.713 154.564 177.255 158.758C174.281 161.557 170.69 163.452 167.003 164.169L154.777 166.545M154.777 166.545L150.211 151.751M150.211 151.751L162.548 149.353C166.302 148.623 169.344 144.932 169.344 141.109V139.32" stroke="#FECE99" stroke-width="2" stroke-linecap="round"/>
<rect x="-0.981627" y="-0.809191" width="32" height="32" rx="16" transform="matrix(0.981627 -0.190809 0 1 142.611 91.9025)" fill="#FECE99" stroke="#FECE99" stroke-width="2"/>
<rect y="220" width="110" height="40" rx="8" fill="#F2E9DC"/>
<path d="M14.092 234.088L17.606 234.088C18.25 234.088 18.8987 234.172 19.552 234.34C20.2053 234.508 20.7933 234.788 21.316 235.18C21.8387 235.563 22.2633 236.071 22.59 236.706C22.9167 237.331 23.08 238.111 23.08 239.044C23.08 239.912 22.9167 240.659 22.59 241.284C22.2633 241.909 21.8387 242.423 21.316 242.824C20.7933 243.225 20.2053 243.524 19.552 243.72C18.8987 243.907 18.25 244 17.606 244L14.092 244L14.092 234.088ZM17.326 242.46C17.7833 242.46 18.2407 242.409 18.698 242.306C19.1553 242.194 19.566 242.012 19.93 241.76C20.3033 241.499 20.6067 241.149 20.84 240.71C21.0733 240.271 21.19 239.716 21.19 239.044C21.19 238.335 21.0733 237.756 20.84 237.308C20.6067 236.86 20.3033 236.51 19.93 236.258C19.566 236.006 19.1553 235.833 18.698 235.74C18.2407 235.647 17.7833 235.6 17.326 235.6L15.856 235.6L15.856 242.46L17.326 242.46ZM29.3978 239.968C29.3978 239.753 29.3651 239.548 29.2998 239.352C29.2438 239.156 29.1505 238.983 29.0198 238.834C28.8891 238.685 28.7211 238.568 28.5158 238.484C28.3198 238.391 28.0865 238.344 27.8158 238.344C27.3118 238.344 26.8825 238.498 26.5278 238.806C26.1825 239.105 25.9911 239.492 25.9538 239.968L29.3978 239.968ZM31.0778 240.724C31.0778 240.799 31.0778 240.873 31.0778 240.948C31.0778 241.023 31.0731 241.097 31.0638 241.172L25.9538 241.172C25.9725 241.415 26.0331 241.639 26.1358 241.844C26.2478 242.04 26.3925 242.213 26.5698 242.362C26.7471 242.502 26.9478 242.614 27.1718 242.698C27.3958 242.782 27.6291 242.824 27.8718 242.824C28.2918 242.824 28.6465 242.749 28.9358 242.6C29.2251 242.441 29.4631 242.227 29.6498 241.956L30.7698 242.852C30.1071 243.748 29.1458 244.196 27.8858 244.196C27.3631 244.196 26.8825 244.117 26.4438 243.958C26.0051 243.79 25.6225 243.557 25.2958 243.258C24.9785 242.959 24.7265 242.595 24.5398 242.166C24.3625 241.727 24.2738 241.233 24.2738 240.682C24.2738 240.141 24.3625 239.651 24.5398 239.212C24.7265 238.764 24.9785 238.386 25.2958 238.078C25.6131 237.761 25.9865 237.518 26.4158 237.35C26.8545 237.173 27.3258 237.084 27.8298 237.084C28.2965 237.084 28.7258 237.163 29.1178 237.322C29.5191 237.471 29.8645 237.7 30.1538 238.008C30.4431 238.307 30.6671 238.685 30.8258 239.142C30.9938 239.59 31.0778 240.117 31.0778 240.724ZM36.3533 239.072C36.2039 238.876 35.9986 238.708 35.7373 238.568C35.4759 238.419 35.1913 238.344 34.8833 238.344C34.6126 238.344 34.3653 238.4 34.1413 238.512C33.9173 238.624 33.8053 238.811 33.8053 239.072C33.8053 239.333 33.9266 239.52 34.1693 239.632C34.4213 239.735 34.7853 239.842 35.2613 239.954C35.5133 240.01 35.7653 240.085 36.0173 240.178C36.2786 240.271 36.5119 240.397 36.7173 240.556C36.9319 240.705 37.1046 240.897 37.2353 241.13C37.3659 241.354 37.4313 241.629 37.4313 241.956C37.4313 242.367 37.3519 242.717 37.1933 243.006C37.0439 243.286 36.8386 243.515 36.5773 243.692C36.3253 243.869 36.0266 243.995 35.6813 244.07C35.3453 244.154 34.9953 244.196 34.6313 244.196C34.1086 244.196 33.5999 244.103 33.1053 243.916C32.6106 243.72 32.1999 243.445 31.8733 243.09L32.9793 242.054C33.1659 242.297 33.4086 242.497 33.7073 242.656C34.0059 242.815 34.3373 242.894 34.7013 242.894C34.8226 242.894 34.9439 242.88 35.0653 242.852C35.1959 242.824 35.3126 242.782 35.4153 242.726C35.5273 242.661 35.6159 242.577 35.6813 242.474C35.7466 242.371 35.7793 242.245 35.7793 242.096C35.7793 241.816 35.6486 241.615 35.3873 241.494C35.1353 241.373 34.7526 241.251 34.2393 241.13C33.9873 241.074 33.7399 241.004 33.4973 240.92C33.2639 240.827 33.0539 240.71 32.8673 240.57C32.6806 240.421 32.5313 240.239 32.4193 240.024C32.3073 239.809 32.2513 239.543 32.2513 239.226C32.2513 238.853 32.3259 238.531 32.4753 238.26C32.6339 237.989 32.8393 237.77 33.0913 237.602C33.3433 237.425 33.6279 237.294 33.9453 237.21C34.2626 237.126 34.5893 237.084 34.9253 237.084C35.4106 237.084 35.8819 237.168 36.3393 237.336C36.8059 237.504 37.1746 237.761 37.4453 238.106L36.3533 239.072ZM38.8864 233.416L40.5664 233.416L40.5664 240.108L40.6084 240.108L43.1564 237.28L45.3124 237.28L42.4004 240.318L45.4944 244L43.2684 244L40.6084 240.556L40.5664 240.556L40.5664 244L38.8864 244L38.8864 233.416ZM45.4603 238.624L45.4603 237.28L46.6363 237.28L46.6363 235.334L48.2883 235.334L48.2883 237.28L49.9683 237.28L49.9683 238.624L48.2883 238.624L48.2883 241.746C48.2883 242.045 48.3397 242.292 48.4423 242.488C48.5543 242.684 48.797 242.782 49.1703 242.782C49.2823 242.782 49.4037 242.773 49.5343 242.754C49.665 242.726 49.7817 242.689 49.8843 242.642L49.9403 243.958C49.791 244.014 49.6137 244.056 49.4083 244.084C49.203 244.121 49.007 244.14 48.8203 244.14C48.3723 244.14 48.0083 244.079 47.7283 243.958C47.4483 243.827 47.2243 243.655 47.0563 243.44C46.8977 243.216 46.7857 242.964 46.7203 242.684C46.6643 242.395 46.6363 242.087 46.6363 241.76L46.6363 238.624L45.4603 238.624ZM50.7585 240.612C50.7585 240.08 50.8519 239.599 51.0385 239.17C51.2345 238.731 51.4959 238.358 51.8225 238.05C52.1492 237.742 52.5365 237.504 52.9845 237.336C53.4325 237.168 53.9085 237.084 54.4125 237.084C54.9165 237.084 55.3925 237.168 55.8405 237.336C56.2885 237.504 56.6759 237.742 57.0025 238.05C57.3292 238.358 57.5859 238.731 57.7725 239.17C57.9685 239.599 58.0665 240.08 58.0665 240.612C58.0665 241.144 57.9685 241.629 57.7725 242.068C57.5859 242.507 57.3292 242.885 57.0025 243.202C56.6759 243.51 56.2885 243.753 55.8405 243.93C55.3925 244.107 54.9165 244.196 54.4125 244.196C53.9085 244.196 53.4325 244.107 52.9845 243.93C52.5365 243.753 52.1492 243.51 51.8225 243.202C51.4959 242.885 51.2345 242.507 51.0385 242.068C50.8519 241.629 50.7585 241.144 50.7585 240.612ZM52.4665 240.612C52.4665 240.873 52.5039 241.135 52.5785 241.396C52.6625 241.657 52.7839 241.891 52.9425 242.096C53.1012 242.301 53.3019 242.469 53.5445 242.6C53.7872 242.731 54.0765 242.796 54.4125 242.796C54.7485 242.796 55.0379 242.731 55.2805 242.6C55.5232 242.469 55.7239 242.301 55.8825 242.096C56.0412 241.891 56.1579 241.657 56.2325 241.396C56.3165 241.135 56.3585 240.873 56.3585 240.612C56.3585 240.351 56.3165 240.094 56.2325 239.842C56.1579 239.581 56.0412 239.347 55.8825 239.142C55.7239 238.937 55.5232 238.773 55.2805 238.652C55.0379 238.521 54.7485 238.456 54.4125 238.456C54.0765 238.456 53.7872 238.521 53.5445 238.652C53.3019 238.773 53.1012 238.937 52.9425 239.142C52.7839 239.347 52.6625 239.581 52.5785 239.842C52.5039 240.094 52.4665 240.351 52.4665 240.612ZM61.2719 237.28L61.2719 238.218L61.3139 238.218C61.3979 238.087 61.5052 237.957 61.6359 237.826C61.7759 237.686 61.9439 237.565 62.1399 237.462C62.3359 237.35 62.5552 237.261 62.7979 237.196C63.0499 237.121 63.3299 237.084 63.6379 237.084C64.1139 237.084 64.5525 237.177 64.9539 237.364C65.3552 237.541 65.7005 237.789 65.9899 238.106C66.2792 238.423 66.5032 238.797 66.6619 239.226C66.8205 239.655 66.8999 240.117 66.8999 240.612C66.8999 241.107 66.8205 241.573 66.6619 242.012C66.5125 242.441 66.2932 242.819 66.0039 243.146C65.7239 243.463 65.3785 243.72 64.9679 243.916C64.5665 244.103 64.1092 244.196 63.5959 244.196C63.1199 244.196 62.6812 244.098 62.2799 243.902C61.8879 243.706 61.5845 243.44 61.3699 243.104L61.3419 243.104L61.3419 247.36L59.6619 247.36L59.6619 237.28L61.2719 237.28ZM65.1919 240.612C65.1919 240.351 65.1499 240.094 65.0659 239.842C64.9912 239.581 64.8745 239.347 64.7159 239.142C64.5572 238.937 64.3565 238.773 64.1139 238.652C63.8712 238.521 63.5865 238.456 63.2599 238.456C62.9519 238.456 62.6765 238.521 62.4339 238.652C62.1912 238.783 61.9812 238.951 61.8039 239.156C61.6359 239.361 61.5052 239.595 61.4119 239.856C61.3279 240.117 61.2859 240.379 61.2859 240.64C61.2859 240.901 61.3279 241.163 61.4119 241.424C61.5052 241.676 61.6359 241.905 61.8039 242.11C61.9812 242.315 62.1912 242.483 62.4339 242.614C62.6765 242.735 62.9519 242.796 63.2599 242.796C63.5865 242.796 63.8712 242.731 64.1139 242.6C64.3565 242.469 64.5572 242.301 64.7159 242.096C64.8745 241.891 64.9912 241.657 65.0659 241.396C65.1499 241.135 65.1919 240.873 65.1919 240.612ZM71.3996 241.27L68.0396 241.27L68.0396 239.842L71.3996 239.842L71.3996 241.27ZM77.6704 237.28L79.3504 237.28L79.3504 244L77.6704 244L77.6704 237.28ZM77.4324 234.998C77.4324 234.727 77.5304 234.494 77.7264 234.298C77.9318 234.093 78.1884 233.99 78.4964 233.99C78.8044 233.99 79.0611 234.088 79.2664 234.284C79.4811 234.471 79.5884 234.709 79.5884 234.998C79.5884 235.287 79.4811 235.53 79.2664 235.726C79.0611 235.913 78.8044 236.006 78.4964 236.006C78.1884 236.006 77.9318 235.908 77.7264 235.712C77.5304 235.507 77.4324 235.269 77.4324 234.998ZM73.2044 238.624L71.9304 238.624L71.9304 237.28L73.2044 237.28L73.2044 236.286C73.2044 235.885 73.2464 235.502 73.3304 235.138C73.4238 234.765 73.5731 234.438 73.7784 234.158C73.9931 233.878 74.2731 233.659 74.6184 233.5C74.9638 233.332 75.3978 233.248 75.9204 233.248C76.1071 233.248 76.2611 233.257 76.3824 233.276C76.5131 233.285 76.6438 233.309 76.7744 233.346L76.6624 234.774C76.5691 234.746 76.4664 234.723 76.3544 234.704C76.2518 234.685 76.1398 234.676 76.0184 234.676C75.7758 234.676 75.5798 234.723 75.4304 234.816C75.2811 234.909 75.1644 235.031 75.0804 235.18C75.0058 235.329 74.9544 235.493 74.9264 235.67C74.8984 235.847 74.8844 236.02 74.8844 236.188L74.8844 237.28L76.4384 237.28L76.4384 238.624L74.8844 238.624L74.8844 244L73.2044 244L73.2044 238.624ZM81.2036 237.28L82.8136 237.28L82.8136 238.4L82.8416 238.4C83.0283 238.008 83.2896 237.691 83.6256 237.448C83.9616 237.205 84.3536 237.084 84.8016 237.084C84.867 237.084 84.937 237.089 85.0116 237.098C85.0863 237.098 85.1516 237.107 85.2076 237.126L85.2076 238.666C85.0956 238.638 84.9976 238.619 84.9136 238.61C84.839 238.601 84.7643 238.596 84.6896 238.596C84.307 238.596 83.999 238.666 83.7656 238.806C83.5323 238.946 83.3503 239.114 83.2196 239.31C83.089 239.506 83.0003 239.707 82.9536 239.912C82.907 240.117 82.8836 240.281 82.8836 240.402L82.8836 244L81.2036 244L81.2036 237.28ZM89.9517 239.072C89.8023 238.876 89.597 238.708 89.3357 238.568C89.0743 238.419 88.7897 238.344 88.4817 238.344C88.211 238.344 87.9637 238.4 87.7397 238.512C87.5157 238.624 87.4037 238.811 87.4037 239.072C87.4037 239.333 87.525 239.52 87.7677 239.632C88.0197 239.735 88.3837 239.842 88.8597 239.954C89.1117 240.01 89.3637 240.085 89.6157 240.178C89.877 240.271 90.1103 240.397 90.3157 240.556C90.5303 240.705 90.703 240.897 90.8337 241.13C90.9643 241.354 91.0297 241.629 91.0297 241.956C91.0297 242.367 90.9503 242.717 90.7917 243.006C90.6423 243.286 90.437 243.515 90.1757 243.692C89.9237 243.869 89.625 243.995 89.2797 244.07C88.9437 244.154 88.5937 244.196 88.2297 244.196C87.707 244.196 87.1983 244.103 86.7037 243.916C86.209 243.72 85.7983 243.445 85.4717 243.09L86.5777 242.054C86.7643 242.297 87.007 242.497 87.3057 242.656C87.6043 242.815 87.9357 242.894 88.2997 242.894C88.421 242.894 88.5423 242.88 88.6637 242.852C88.7943 242.824 88.911 242.782 89.0137 242.726C89.1257 242.661 89.2143 242.577 89.2797 242.474C89.345 242.371 89.3777 242.245 89.3777 242.096C89.3777 241.816 89.247 241.615 88.9857 241.494C88.7337 241.373 88.351 241.251 87.8377 241.13C87.5857 241.074 87.3383 241.004 87.0957 240.92C86.8623 240.827 86.6523 240.71 86.4657 240.57C86.279 240.421 86.1297 240.239 86.0177 240.024C85.9057 239.809 85.8497 239.543 85.8497 239.226C85.8497 238.853 85.9243 238.531 86.0737 238.26C86.2323 237.989 86.4377 237.77 86.6897 237.602C86.9417 237.425 87.2263 237.294 87.5437 237.21C87.861 237.126 88.1877 237.084 88.5237 237.084C89.009 237.084 89.4803 237.168 89.9377 237.336C90.4043 237.504 90.773 237.761 91.0437 238.106L89.9517 239.072ZM91.4908 238.624L91.4908 237.28L92.6668 237.28L92.6668 235.334L94.3188 235.334L94.3188 237.28L95.9988 237.28L95.9988 238.624L94.3188 238.624L94.3188 241.746C94.3188 242.045 94.3701 242.292 94.4728 242.488C94.5848 242.684 94.8274 242.782 95.2008 242.782C95.3128 242.782 95.4341 242.773 95.5648 242.754C95.6954 242.726 95.8121 242.689 95.9148 242.642L95.9708 243.958C95.8214 244.014 95.6441 244.056 95.4388 244.084C95.2334 244.121 95.0374 244.14 94.8508 244.14C94.4028 244.14 94.0388 244.079 93.7588 243.958C93.4788 243.827 93.2548 243.655 93.0868 243.44C92.9281 243.216 92.8161 242.964 92.7508 242.684C92.6948 242.395 92.6668 242.087 92.6668 241.76L92.6668 238.624L91.4908 238.624Z" fill="#562F00"/>
<g filter="url(#filter1_d_762_9552)">
<rect width="245" height="245" rx="24" transform="matrix(0.981627 -0.190809 0 1 206.5 46.7482)" fill="#FFFDF0"/>
<rect x="0.490814" y="0.404596" width="244" height="244" rx="23.5" transform="matrix(0.981627 -0.190809 0 1 206.509 46.8418)" stroke="#F2E9DC"/>
</g>
<rect x="165.5" y="220" width="110" height="40" rx="8" fill="#F2E9DC"/>
<path d="M191.146 236.16C190.959 235.917 190.693 235.717 190.348 235.558C190.012 235.39 189.671 235.306 189.326 235.306C189.121 235.306 188.915 235.334 188.71 235.39C188.505 235.437 188.318 235.516 188.15 235.628C187.982 235.731 187.842 235.871 187.73 236.048C187.627 236.216 187.576 236.421 187.576 236.664C187.576 236.888 187.623 237.079 187.716 237.238C187.809 237.397 187.935 237.532 188.094 237.644C188.262 237.756 188.463 237.854 188.696 237.938C188.929 238.022 189.186 238.106 189.466 238.19C189.783 238.293 190.11 238.409 190.446 238.54C190.791 238.671 191.104 238.843 191.384 239.058C191.673 239.273 191.907 239.543 192.084 239.87C192.271 240.197 192.364 240.603 192.364 241.088C192.364 241.62 192.266 242.087 192.07 242.488C191.874 242.88 191.613 243.207 191.286 243.468C190.959 243.729 190.577 243.925 190.138 244.056C189.699 244.187 189.237 244.252 188.752 244.252C188.108 244.252 187.478 244.135 186.862 243.902C186.246 243.659 185.742 243.305 185.35 242.838L186.61 241.662C186.853 241.998 187.175 242.264 187.576 242.46C187.987 242.656 188.388 242.754 188.78 242.754C188.985 242.754 189.195 242.731 189.41 242.684C189.625 242.628 189.816 242.539 189.984 242.418C190.161 242.297 190.301 242.147 190.404 241.97C190.516 241.783 190.572 241.555 190.572 241.284C190.572 241.023 190.511 240.808 190.39 240.64C190.269 240.463 190.105 240.313 189.9 240.192C189.695 240.061 189.452 239.949 189.172 239.856C188.892 239.763 188.598 239.665 188.29 239.562C187.991 239.469 187.693 239.357 187.394 239.226C187.095 239.095 186.825 238.923 186.582 238.708C186.349 238.493 186.157 238.232 186.008 237.924C185.859 237.607 185.784 237.215 185.784 236.748C185.784 236.244 185.887 235.81 186.092 235.446C186.307 235.082 186.582 234.783 186.918 234.55C187.263 234.307 187.651 234.13 188.08 234.018C188.519 233.897 188.962 233.836 189.41 233.836C189.914 233.836 190.423 233.925 190.936 234.102C191.459 234.279 191.911 234.545 192.294 234.9L191.146 236.16ZM194.041 233.416L195.721 233.416L195.721 244L194.041 244L194.041 233.416ZM197.334 240.612C197.334 240.08 197.427 239.599 197.614 239.17C197.81 238.731 198.071 238.358 198.398 238.05C198.725 237.742 199.112 237.504 199.56 237.336C200.008 237.168 200.484 237.084 200.988 237.084C201.492 237.084 201.968 237.168 202.416 237.336C202.864 237.504 203.251 237.742 203.578 238.05C203.905 238.358 204.161 238.731 204.348 239.17C204.544 239.599 204.642 240.08 204.642 240.612C204.642 241.144 204.544 241.629 204.348 242.068C204.161 242.507 203.905 242.885 203.578 243.202C203.251 243.51 202.864 243.753 202.416 243.93C201.968 244.107 201.492 244.196 200.988 244.196C200.484 244.196 200.008 244.107 199.56 243.93C199.112 243.753 198.725 243.51 198.398 243.202C198.071 242.885 197.81 242.507 197.614 242.068C197.427 241.629 197.334 241.144 197.334 240.612ZM199.042 240.612C199.042 240.873 199.079 241.135 199.154 241.396C199.238 241.657 199.359 241.891 199.518 242.096C199.677 242.301 199.877 242.469 200.12 242.6C200.363 242.731 200.652 242.796 200.988 242.796C201.324 242.796 201.613 242.731 201.856 242.6C202.099 242.469 202.299 242.301 202.458 242.096C202.617 241.891 202.733 241.657 202.808 241.396C202.892 241.135 202.934 240.873 202.934 240.612C202.934 240.351 202.892 240.094 202.808 239.842C202.733 239.581 202.617 239.347 202.458 239.142C202.299 238.937 202.099 238.773 201.856 238.652C201.613 238.521 201.324 238.456 200.988 238.456C200.652 238.456 200.363 238.521 200.12 238.652C199.877 238.773 199.677 238.937 199.518 239.142C199.359 239.347 199.238 239.581 199.154 239.842C199.079 240.094 199.042 240.351 199.042 240.612ZM205.285 237.28L207.105 237.28L208.505 242.096L208.533 242.096L209.975 237.28L211.767 237.28L213.223 242.096L213.251 242.096L214.679 237.28L216.429 237.28L214.105 244L212.397 244L210.871 239.296L210.843 239.296L209.331 244L207.623 244L205.285 237.28ZM224.604 239.072C224.455 238.876 224.249 238.708 223.988 238.568C223.727 238.419 223.442 238.344 223.134 238.344C222.863 238.344 222.616 238.4 222.392 238.512C222.168 238.624 222.056 238.811 222.056 239.072C222.056 239.333 222.177 239.52 222.42 239.632C222.672 239.735 223.036 239.842 223.512 239.954C223.764 240.01 224.016 240.085 224.268 240.178C224.529 240.271 224.763 240.397 224.968 240.556C225.183 240.705 225.355 240.897 225.486 241.13C225.617 241.354 225.682 241.629 225.682 241.956C225.682 242.367 225.603 242.717 225.444 243.006C225.295 243.286 225.089 243.515 224.828 243.692C224.576 243.869 224.277 243.995 223.932 244.07C223.596 244.154 223.246 244.196 222.882 244.196C222.359 244.196 221.851 244.103 221.356 243.916C220.861 243.72 220.451 243.445 220.124 243.09L221.23 242.054C221.417 242.297 221.659 242.497 221.958 242.656C222.257 242.815 222.588 242.894 222.952 242.894C223.073 242.894 223.195 242.88 223.316 242.852C223.447 242.824 223.563 242.782 223.666 242.726C223.778 242.661 223.867 242.577 223.932 242.474C223.997 242.371 224.03 242.245 224.03 242.096C224.03 241.816 223.899 241.615 223.638 241.494C223.386 241.373 223.003 241.251 222.49 241.13C222.238 241.074 221.991 241.004 221.748 240.92C221.515 240.827 221.305 240.71 221.118 240.57C220.931 240.421 220.782 240.239 220.67 240.024C220.558 239.809 220.502 239.543 220.502 239.226C220.502 238.853 220.577 238.531 220.726 238.26C220.885 237.989 221.09 237.77 221.342 237.602C221.594 237.425 221.879 237.294 222.196 237.21C222.513 237.126 222.84 237.084 223.176 237.084C223.661 237.084 224.133 237.168 224.59 237.336C225.057 237.504 225.425 237.761 225.696 238.106L224.604 239.072ZM231.841 239.968C231.841 239.753 231.808 239.548 231.743 239.352C231.687 239.156 231.594 238.983 231.463 238.834C231.332 238.685 231.164 238.568 230.959 238.484C230.763 238.391 230.53 238.344 230.259 238.344C229.755 238.344 229.326 238.498 228.971 238.806C228.626 239.105 228.434 239.492 228.397 239.968L231.841 239.968ZM233.521 240.724C233.521 240.799 233.521 240.873 233.521 240.948C233.521 241.023 233.516 241.097 233.507 241.172L228.397 241.172C228.416 241.415 228.476 241.639 228.579 241.844C228.691 242.04 228.836 242.213 229.013 242.362C229.19 242.502 229.391 242.614 229.615 242.698C229.839 242.782 230.072 242.824 230.315 242.824C230.735 242.824 231.09 242.749 231.379 242.6C231.668 242.441 231.906 242.227 232.093 241.956L233.213 242.852C232.55 243.748 231.589 244.196 230.329 244.196C229.806 244.196 229.326 244.117 228.887 243.958C228.448 243.79 228.066 243.557 227.739 243.258C227.422 242.959 227.17 242.595 226.983 242.166C226.806 241.727 226.717 241.233 226.717 240.682C226.717 240.141 226.806 239.651 226.983 239.212C227.17 238.764 227.422 238.386 227.739 238.078C228.056 237.761 228.43 237.518 228.859 237.35C229.298 237.173 229.769 237.084 230.273 237.084C230.74 237.084 231.169 237.163 231.561 237.322C231.962 237.471 232.308 237.7 232.597 238.008C232.886 238.307 233.11 238.685 233.269 239.142C233.437 239.59 233.521 240.117 233.521 240.724ZM234.149 238.624L234.149 237.28L235.325 237.28L235.325 235.334L236.977 235.334L236.977 237.28L238.657 237.28L238.657 238.624L236.977 238.624L236.977 241.746C236.977 242.045 237.028 242.292 237.131 242.488C237.243 242.684 237.485 242.782 237.859 242.782C237.971 242.782 238.092 242.773 238.223 242.754C238.353 242.726 238.47 242.689 238.573 242.642L238.629 243.958C238.479 244.014 238.302 244.056 238.097 244.084C237.891 244.121 237.695 244.14 237.509 244.14C237.061 244.14 236.697 244.079 236.417 243.958C236.137 243.827 235.913 243.655 235.745 243.44C235.586 243.216 235.474 242.964 235.409 242.684C235.353 242.395 235.325 242.087 235.325 241.76L235.325 238.624L234.149 238.624ZM245.971 244L244.375 244L244.375 242.922L244.347 242.922C244.197 243.258 243.936 243.557 243.563 243.818C243.199 244.07 242.765 244.196 242.261 244.196C241.822 244.196 241.444 244.121 241.127 243.972C240.819 243.813 240.562 243.608 240.357 243.356C240.161 243.104 240.016 242.815 239.923 242.488C239.829 242.161 239.783 241.825 239.783 241.48L239.783 237.28L241.463 237.28L241.463 241.004C241.463 241.2 241.477 241.405 241.505 241.62C241.533 241.835 241.593 242.031 241.687 242.208C241.78 242.376 241.906 242.516 242.065 242.628C242.233 242.74 242.452 242.796 242.723 242.796C242.984 242.796 243.213 242.745 243.409 242.642C243.614 242.53 243.777 242.39 243.899 242.222C244.029 242.054 244.127 241.863 244.193 241.648C244.258 241.424 244.291 241.2 244.291 240.976L244.291 237.28L245.971 237.28L245.971 244ZM249.564 237.28L249.564 238.218L249.606 238.218C249.69 238.087 249.797 237.957 249.928 237.826C250.068 237.686 250.236 237.565 250.432 237.462C250.628 237.35 250.847 237.261 251.09 237.196C251.342 237.121 251.622 237.084 251.93 237.084C252.406 237.084 252.844 237.177 253.246 237.364C253.647 237.541 253.992 237.789 254.282 238.106C254.571 238.423 254.795 238.797 254.954 239.226C255.112 239.655 255.192 240.117 255.192 240.612C255.192 241.107 255.112 241.573 254.954 242.012C254.804 242.441 254.585 242.819 254.296 243.146C254.016 243.463 253.67 243.72 253.26 243.916C252.858 244.103 252.401 244.196 251.888 244.196C251.412 244.196 250.973 244.098 250.572 243.902C250.18 243.706 249.876 243.44 249.662 243.104L249.634 243.104L249.634 247.36L247.954 247.36L247.954 237.28L249.564 237.28ZM253.484 240.612C253.484 240.351 253.442 240.094 253.358 239.842C253.283 239.581 253.166 239.347 253.008 239.142C252.849 238.937 252.648 238.773 252.406 238.652C252.163 238.521 251.878 238.456 251.552 238.456C251.244 238.456 250.968 238.521 250.726 238.652C250.483 238.783 250.273 238.951 250.096 239.156C249.928 239.361 249.797 239.595 249.704 239.856C249.62 240.117 249.578 240.379 249.578 240.64C249.578 240.901 249.62 241.163 249.704 241.424C249.797 241.676 249.928 241.905 250.096 242.11C250.273 242.315 250.483 242.483 250.726 242.614C250.968 242.735 251.244 242.796 251.552 242.796C251.878 242.796 252.163 242.731 252.406 242.6C252.648 242.469 252.849 242.301 253.008 242.096C253.166 241.891 253.283 241.657 253.358 241.396C253.442 241.135 253.484 240.873 253.484 240.612Z" fill="#562F00"/>
<path d="M277.238 152.427C282.534 154.735 287.644 148.139 289.884 141.891C292.21 135.403 294.362 127.133 292.656 121.978C292.138 121.731 291.648 121.511 291.181 121.317C285.189 118.819 276.405 126.209 273.198 133.024C271.73 136.142 271.688 136.941 271.508 140.193C271.408 142.003 271.546 143.672 271.973 145.526C272.619 148.323 274.721 151.33 277.238 152.427Z" fill="#FECE99"/>
<path d="M292.656 121.978C294.362 127.133 292.21 135.403 289.884 141.891C287.644 148.139 282.534 154.735 277.238 152.427C274.721 151.33 272.619 148.323 271.973 145.526C271.546 143.672 271.408 142.003 271.508 140.193C271.688 136.941 271.73 136.142 273.198 133.024C276.405 126.209 285.189 118.819 291.181 121.317C291.648 121.511 292.138 121.731 292.656 121.978ZM292.656 121.978C294.71 123.425 296.226 124.692 297.652 127.023C300.626 131.882 301.641 138.077 300.976 144.33C300.85 145.514 300.674 146.657 300.45 147.791C298.918 155.529 295.496 164.195 288.653 168.547C288.481 168.656 288.306 168.762 288.129 168.864C284.69 170.843 280.816 171.081 277.214 170.881C271.693 170.574 268.21 168.893 263.812 165.141M263.812 165.141C258.65 158.321 256.586 154.52 255.946 147.836C254.768 138.802 254.566 133.74 256.994 124.804C260.281 114.981 262.872 111.141 268.008 105.555C271.483 101.427 274.228 98.9436 277.879 97.0114C282.005 94.8279 286.518 93.6953 290.788 93.8779C293.606 93.9984 295.947 94.6873 298.949 95.9451C304.279 99.1016 306.813 101.227 310.487 105.68C314.21 111.825 315.224 115.589 315.207 122.848C314.816 130.574 314.217 135.031 313.024 141.602C312.846 142.58 313.805 143.165 314.66 142.596C315.002 142.368 315.241 141.998 315.299 141.607L318.878 117.354C319.511 112.157 320.582 108.991 325.091 104.887C326.792 103.339 328.932 102 331 102M263.812 165.141L257.519 176.635C251.937 184.608 262.612 188.199 271.473 186.636L299.714 181.656C312.279 179.441 327.442 174.854 331.404 162.047C331.555 161.561 331.698 161.062 331.835 160.551C332.82 156.88 333.038 153.181 333.038 149.544V129.01C333.038 126.16 333.991 123.155 336.429 121.315C339.577 118.94 342.684 115.841 343.042 112.117C343.118 111.326 343.146 110.598 343.127 109.913C343.03 106.504 340.392 104.237 337.479 103.021C337.154 102.885 336.813 102.754 336.446 102.628M331 102C330.461 99.3026 330.103 97.6021 329.932 95.7803C329.611 92.3517 330.314 88.407 333.038 85.7806M331 102C333.282 101.927 334.379 101.921 336.446 102.628M336.446 102.628C336.357 101.846 336.28 101.175 336.22 100.578C335.757 96.0455 337.644 90.6611 341.953 88.3624" stroke="#FECE99" stroke-width="2" stroke-linecap="round"/>
<g filter="url(#filter2_d_762_9552)">
<rect width="245" height="245" rx="24" transform="matrix(0.981627 -0.190809 0 1 365 46.7482)" fill="#FFFDF0"/>
<rect x="0.490814" y="0.404596" width="244" height="244" rx="23.5" transform="matrix(0.981627 -0.190809 0 1 365.009 46.8418)" stroke="#F2E9DC"/>
</g>
<path d="M432.919 97.2999C429.951 97.877 427.407 100.626 427.271 103.673C426.491 121.204 433.732 129.443 448.339 135.828L466.008 132.394C479.323 125.73 485.776 117.423 486.622 86.8612L432.919 97.2999Z" fill="#FFCE99"/>
<path d="M448.339 135.828V149.116L466.008 145.682V132.394L448.339 135.828Z" fill="#FFCE99"/>
<path d="M413 101.172L486.622 86.8612M501.346 83.9991L486.622 86.8612M413 199.172L426.252 196.596M501.346 181.999L488.094 184.575M448.339 135.828C433.732 129.443 426.491 121.204 427.271 103.673C427.407 100.626 429.951 97.877 432.919 97.2999L486.622 86.8612M448.339 135.828V149.116M448.339 135.828L466.008 132.394M448.339 149.116C431.729 163.992 424.869 175.547 426.252 196.596M448.339 149.116L466.008 145.682M426.252 196.596L488.094 184.575M488.094 184.575C488.799 162.776 482.421 154.107 466.008 145.682M466.008 145.682V132.394M466.008 132.394C479.323 125.73 485.776 117.423 486.622 86.8612" stroke="#FFCE99" stroke-width="2" stroke-linecap="round"/>
<rect x="317" y="220" width="110" height="40" rx="8" fill="#F2E9DC"/>
<path d="M330.592 234.088L332.356 234.088L332.356 242.432L336.57 242.432L336.57 244L330.592 244L330.592 234.088ZM336.987 240.612C336.987 240.08 337.08 239.599 337.267 239.17C337.463 238.731 337.724 238.358 338.051 238.05C338.377 237.742 338.765 237.504 339.213 237.336C339.661 237.168 340.137 237.084 340.641 237.084C341.145 237.084 341.621 237.168 342.069 237.336C342.517 237.504 342.904 237.742 343.231 238.05C343.557 238.358 343.814 238.731 344.001 239.17C344.197 239.599 344.295 240.08 344.295 240.612C344.295 241.144 344.197 241.629 344.001 242.068C343.814 242.507 343.557 242.885 343.231 243.202C342.904 243.51 342.517 243.753 342.069 243.93C341.621 244.107 341.145 244.196 340.641 244.196C340.137 244.196 339.661 244.107 339.213 243.93C338.765 243.753 338.377 243.51 338.051 243.202C337.724 242.885 337.463 242.507 337.267 242.068C337.08 241.629 336.987 241.144 336.987 240.612ZM338.695 240.612C338.695 240.873 338.732 241.135 338.807 241.396C338.891 241.657 339.012 241.891 339.171 242.096C339.329 242.301 339.53 242.469 339.773 242.6C340.015 242.731 340.305 242.796 340.641 242.796C340.977 242.796 341.266 242.731 341.509 242.6C341.751 242.469 341.952 242.301 342.111 242.096C342.269 241.891 342.386 241.657 342.461 241.396C342.545 241.135 342.587 240.873 342.587 240.612C342.587 240.351 342.545 240.094 342.461 239.842C342.386 239.581 342.269 239.347 342.111 239.142C341.952 238.937 341.751 238.773 341.509 238.652C341.266 238.521 340.977 238.456 340.641 238.456C340.305 238.456 340.015 238.521 339.773 238.652C339.53 238.773 339.329 238.937 339.171 239.142C339.012 239.347 338.891 239.581 338.807 239.842C338.732 240.094 338.695 240.351 338.695 240.612ZM345.89 237.28L347.486 237.28L347.486 238.358L347.514 238.358C347.663 238.022 347.92 237.728 348.284 237.476C348.657 237.215 349.096 237.084 349.6 237.084C350.039 237.084 350.412 237.163 350.72 237.322C351.037 237.471 351.294 237.672 351.49 237.924C351.695 238.176 351.845 238.465 351.938 238.792C352.031 239.119 352.078 239.455 352.078 239.8L352.078 244L350.398 244L350.398 240.276C350.398 240.08 350.384 239.875 350.356 239.66C350.328 239.445 350.267 239.254 350.174 239.086C350.081 238.909 349.95 238.764 349.782 238.652C349.623 238.54 349.409 238.484 349.138 238.484C348.867 238.484 348.634 238.54 348.438 238.652C348.242 238.755 348.079 238.89 347.948 239.058C347.827 239.226 347.733 239.422 347.668 239.646C347.603 239.861 347.57 240.08 347.57 240.304L347.57 244L345.89 244L345.89 237.28ZM360.837 237.28L360.837 243.398C360.837 244.005 360.762 244.551 360.613 245.036C360.464 245.531 360.23 245.946 359.913 246.282C359.605 246.627 359.213 246.893 358.737 247.08C358.261 247.267 357.696 247.36 357.043 247.36C356.772 247.36 356.483 247.337 356.175 247.29C355.876 247.243 355.578 247.173 355.279 247.08C354.99 246.987 354.71 246.87 354.439 246.73C354.168 246.59 353.926 246.431 353.711 246.254L354.677 244.952C355.004 245.26 355.372 245.493 355.783 245.652C356.194 245.82 356.609 245.904 357.029 245.904C357.43 245.904 357.766 245.843 358.037 245.722C358.317 245.61 358.536 245.451 358.695 245.246C358.863 245.041 358.98 244.798 359.045 244.518C359.12 244.238 359.157 243.93 359.157 243.594L359.157 243.104L359.129 243.104C358.886 243.431 358.574 243.683 358.191 243.86C357.818 244.028 357.398 244.112 356.931 244.112C356.427 244.112 355.97 244.019 355.559 243.832C355.148 243.645 354.798 243.393 354.509 243.076C354.229 242.759 354.01 242.39 353.851 241.97C353.692 241.541 353.613 241.088 353.613 240.612C353.613 240.127 353.688 239.669 353.837 239.24C353.996 238.811 354.215 238.437 354.495 238.12C354.784 237.803 355.13 237.551 355.531 237.364C355.942 237.177 356.399 237.084 356.903 237.084C357.379 237.084 357.822 237.182 358.233 237.378C358.644 237.574 358.97 237.877 359.213 238.288L359.241 238.288L359.241 237.28L360.837 237.28ZM357.253 238.456C356.945 238.456 356.67 238.512 356.427 238.624C356.194 238.736 355.993 238.89 355.825 239.086C355.666 239.273 355.54 239.497 355.447 239.758C355.363 240.019 355.321 240.299 355.321 240.598C355.321 240.869 355.363 241.13 355.447 241.382C355.54 241.634 355.666 241.863 355.825 242.068C355.993 242.264 356.194 242.423 356.427 242.544C356.67 242.665 356.94 242.726 357.239 242.726C357.547 242.726 357.822 242.67 358.065 242.558C358.317 242.437 358.527 242.278 358.695 242.082C358.872 241.886 359.008 241.662 359.101 241.41C359.194 241.149 359.241 240.878 359.241 240.598C359.241 240.309 359.194 240.033 359.101 239.772C359.008 239.511 358.872 239.282 358.695 239.086C358.527 238.89 358.322 238.736 358.079 238.624C357.836 238.512 357.561 238.456 357.253 238.456ZM370.875 239.142C370.745 238.955 370.549 238.801 370.287 238.68C370.026 238.549 369.76 238.484 369.489 238.484C369.181 238.484 368.911 238.549 368.677 238.68C368.444 238.801 368.248 238.965 368.089 239.17C367.94 239.375 367.828 239.609 367.753 239.87C367.679 240.122 367.641 240.379 367.641 240.64C367.641 240.901 367.679 241.163 367.753 241.424C367.837 241.676 367.959 241.905 368.117 242.11C368.276 242.315 368.472 242.483 368.705 242.614C368.948 242.735 369.228 242.796 369.545 242.796C369.807 242.796 370.068 242.745 370.329 242.642C370.591 242.539 370.801 242.39 370.959 242.194L372.009 243.258C371.729 243.557 371.37 243.79 370.931 243.958C370.502 244.117 370.035 244.196 369.531 244.196C369.037 244.196 368.565 244.117 368.117 243.958C367.679 243.799 367.291 243.566 366.955 243.258C366.629 242.95 366.367 242.577 366.171 242.138C365.985 241.699 365.891 241.2 365.891 240.64C365.891 240.099 365.985 239.609 366.171 239.17C366.367 238.731 366.629 238.358 366.955 238.05C367.282 237.742 367.66 237.504 368.089 237.336C368.528 237.168 368.995 237.084 369.489 237.084C369.984 237.084 370.46 237.177 370.917 237.364C371.384 237.551 371.753 237.807 372.023 238.134L370.875 239.142ZM372.694 240.612C372.694 240.08 372.787 239.599 372.974 239.17C373.17 238.731 373.431 238.358 373.758 238.05C374.084 237.742 374.472 237.504 374.92 237.336C375.368 237.168 375.844 237.084 376.348 237.084C376.852 237.084 377.328 237.168 377.776 237.336C378.224 237.504 378.611 237.742 378.938 238.05C379.264 238.358 379.521 238.731 379.708 239.17C379.904 239.599 380.002 240.08 380.002 240.612C380.002 241.144 379.904 241.629 379.708 242.068C379.521 242.507 379.264 242.885 378.938 243.202C378.611 243.51 378.224 243.753 377.776 243.93C377.328 244.107 376.852 244.196 376.348 244.196C375.844 244.196 375.368 244.107 374.92 243.93C374.472 243.753 374.084 243.51 373.758 243.202C373.431 242.885 373.17 242.507 372.974 242.068C372.787 241.629 372.694 241.144 372.694 240.612ZM374.402 240.612C374.402 240.873 374.439 241.135 374.514 241.396C374.598 241.657 374.719 241.891 374.878 242.096C375.036 242.301 375.237 242.469 375.48 242.6C375.722 242.731 376.012 242.796 376.348 242.796C376.684 242.796 376.973 242.731 377.216 242.6C377.458 242.469 377.659 242.301 377.818 242.096C377.976 241.891 378.093 241.657 378.168 241.396C378.252 241.135 378.294 240.873 378.294 240.612C378.294 240.351 378.252 240.094 378.168 239.842C378.093 239.581 377.976 239.347 377.818 239.142C377.659 238.937 377.458 238.773 377.216 238.652C376.973 238.521 376.684 238.456 376.348 238.456C376.012 238.456 375.722 238.521 375.48 238.652C375.237 238.773 375.036 238.937 374.878 239.142C374.719 239.347 374.598 239.581 374.514 239.842C374.439 240.094 374.402 240.351 374.402 240.612ZM387.729 244L386.133 244L386.133 242.922L386.105 242.922C385.956 243.258 385.694 243.557 385.321 243.818C384.957 244.07 384.523 244.196 384.019 244.196C383.58 244.196 383.202 244.121 382.885 243.972C382.577 243.813 382.32 243.608 382.115 243.356C381.919 243.104 381.774 242.815 381.681 242.488C381.588 242.161 381.541 241.825 381.541 241.48L381.541 237.28L383.221 237.28L383.221 241.004C383.221 241.2 383.235 241.405 383.263 241.62C383.291 241.835 383.352 242.031 383.445 242.208C383.538 242.376 383.664 242.516 383.823 242.628C383.991 242.74 384.21 242.796 384.481 242.796C384.742 242.796 384.971 242.745 385.167 242.642C385.372 242.53 385.536 242.39 385.657 242.222C385.788 242.054 385.886 241.863 385.951 241.648C386.016 241.424 386.049 241.2 386.049 240.976L386.049 237.28L387.729 237.28L387.729 244ZM389.712 237.28L391.322 237.28L391.322 238.4L391.35 238.4C391.537 238.008 391.798 237.691 392.134 237.448C392.47 237.205 392.862 237.084 393.31 237.084C393.375 237.084 393.445 237.089 393.52 237.098C393.595 237.098 393.66 237.107 393.716 237.126L393.716 238.666C393.604 238.638 393.506 238.619 393.422 238.61C393.347 238.601 393.273 238.596 393.198 238.596C392.815 238.596 392.507 238.666 392.274 238.806C392.041 238.946 391.859 239.114 391.728 239.31C391.597 239.506 391.509 239.707 391.462 239.912C391.415 240.117 391.392 240.281 391.392 240.402L391.392 244L389.712 244L389.712 237.28ZM398.46 239.072C398.311 238.876 398.105 238.708 397.844 238.568C397.583 238.419 397.298 238.344 396.99 238.344C396.719 238.344 396.472 238.4 396.248 238.512C396.024 238.624 395.912 238.811 395.912 239.072C395.912 239.333 396.033 239.52 396.276 239.632C396.528 239.735 396.892 239.842 397.368 239.954C397.62 240.01 397.872 240.085 398.124 240.178C398.385 240.271 398.619 240.397 398.824 240.556C399.039 240.705 399.211 240.897 399.342 241.13C399.473 241.354 399.538 241.629 399.538 241.956C399.538 242.367 399.459 242.717 399.3 243.006C399.151 243.286 398.945 243.515 398.684 243.692C398.432 243.869 398.133 243.995 397.788 244.07C397.452 244.154 397.102 244.196 396.738 244.196C396.215 244.196 395.707 244.103 395.212 243.916C394.717 243.72 394.307 243.445 393.98 243.09L395.086 242.054C395.273 242.297 395.515 242.497 395.814 242.656C396.113 242.815 396.444 242.894 396.808 242.894C396.929 242.894 397.051 242.88 397.172 242.852C397.303 242.824 397.419 242.782 397.522 242.726C397.634 242.661 397.723 242.577 397.788 242.474C397.853 242.371 397.886 242.245 397.886 242.096C397.886 241.816 397.755 241.615 397.494 241.494C397.242 241.373 396.859 241.251 396.346 241.13C396.094 241.074 395.847 241.004 395.604 240.92C395.371 240.827 395.161 240.71 394.974 240.57C394.787 240.421 394.638 240.239 394.526 240.024C394.414 239.809 394.358 239.543 394.358 239.226C394.358 238.853 394.433 238.531 394.582 238.26C394.741 237.989 394.946 237.77 395.198 237.602C395.45 237.425 395.735 237.294 396.052 237.21C396.369 237.126 396.696 237.084 397.032 237.084C397.517 237.084 397.989 237.168 398.446 237.336C398.913 237.504 399.281 237.761 399.552 238.106L398.46 239.072ZM405.697 239.968C405.697 239.753 405.664 239.548 405.599 239.352C405.543 239.156 405.45 238.983 405.319 238.834C405.188 238.685 405.02 238.568 404.815 238.484C404.619 238.391 404.386 238.344 404.115 238.344C403.611 238.344 403.182 238.498 402.827 238.806C402.482 239.105 402.29 239.492 402.253 239.968L405.697 239.968ZM407.377 240.724C407.377 240.799 407.377 240.873 407.377 240.948C407.377 241.023 407.372 241.097 407.363 241.172L402.253 241.172C402.272 241.415 402.332 241.639 402.435 241.844C402.547 242.04 402.692 242.213 402.869 242.362C403.046 242.502 403.247 242.614 403.471 242.698C403.695 242.782 403.928 242.824 404.171 242.824C404.591 242.824 404.946 242.749 405.235 242.6C405.524 242.441 405.762 242.227 405.949 241.956L407.069 242.852C406.406 243.748 405.445 244.196 404.185 244.196C403.662 244.196 403.182 244.117 402.743 243.958C402.304 243.79 401.922 243.557 401.595 243.258C401.278 242.959 401.026 242.595 400.839 242.166C400.662 241.727 400.573 241.233 400.573 240.682C400.573 240.141 400.662 239.651 400.839 239.212C401.026 238.764 401.278 238.386 401.595 238.078C401.912 237.761 402.286 237.518 402.715 237.35C403.154 237.173 403.625 237.084 404.129 237.084C404.596 237.084 405.025 237.163 405.417 237.322C405.818 237.471 406.164 237.7 406.453 238.008C406.742 238.307 406.966 238.685 407.125 239.142C407.293 239.59 407.377 240.117 407.377 240.724ZM412.652 239.072C412.503 238.876 412.298 238.708 412.036 238.568C411.775 238.419 411.49 238.344 411.182 238.344C410.912 238.344 410.664 238.4 410.44 238.512C410.216 238.624 410.104 238.811 410.104 239.072C410.104 239.333 410.226 239.52 410.468 239.632C410.72 239.735 411.084 239.842 411.56 239.954C411.812 240.01 412.064 240.085 412.316 240.178C412.578 240.271 412.811 240.397 413.016 240.556C413.231 240.705 413.404 240.897 413.534 241.13C413.665 241.354 413.73 241.629 413.73 241.956C413.73 242.367 413.651 242.717 413.492 243.006C413.343 243.286 413.138 243.515 412.876 243.692C412.624 243.869 412.326 243.995 411.98 244.07C411.644 244.154 411.294 244.196 410.93 244.196C410.408 244.196 409.899 244.103 409.404 243.916C408.91 243.72 408.499 243.445 408.172 243.09L409.278 242.054C409.465 242.297 409.708 242.497 410.006 242.656C410.305 242.815 410.636 242.894 411 242.894C411.122 242.894 411.243 242.88 411.364 242.852C411.495 242.824 411.612 242.782 411.714 242.726C411.826 242.661 411.915 242.577 411.98 242.474C412.046 242.371 412.078 242.245 412.078 242.096C412.078 241.816 411.948 241.615 411.686 241.494C411.434 241.373 411.052 241.251 410.538 241.13C410.286 241.074 410.039 241.004 409.796 240.92C409.563 240.827 409.353 240.71 409.166 240.57C408.98 240.421 408.83 240.239 408.718 240.024C408.606 239.809 408.55 239.543 408.55 239.226C408.55 238.853 408.625 238.531 408.774 238.26C408.933 237.989 409.138 237.77 409.39 237.602C409.642 237.425 409.927 237.294 410.244 237.21C410.562 237.126 410.888 237.084 411.224 237.084C411.71 237.084 412.181 237.168 412.638 237.336C413.105 237.504 413.474 237.761 413.744 238.106L412.652 239.072Z" fill="#562F00"/>
<g filter="url(#filter3_d_762_9552)">
<rect width="245" height="245" rx="24" transform="matrix(0.981627 -0.190809 0 1 523.5 46.7482)" fill="#FFFDF0"/>
<rect x="0.490814" y="0.404596" width="244" height="244" rx="23.5" transform="matrix(0.981627 -0.190809 0 1 523.509 46.8418)" stroke="#F2E9DC"/>
</g>
<path d="M586.365 160.71L578.888 173.167C577.384 175.672 576.578 178.456 576.578 181.147C576.578 192.108 585.301 199.299 596.061 197.207L634.451 189.745C645.182 187.659 653.881 177.106 653.881 166.174C653.881 163.45 653.054 160.954 651.512 159.027L643.765 149.346C638.537 142.815 630.036 139.978 620.968 141.741L609.303 144.008C600.149 145.787 591.576 152.029 586.365 160.71Z" stroke="#FFCE99" stroke-width="2" stroke-linecap="round"/>
<rect x="-0.981627" y="-0.809191" width="44.1875" height="47" rx="22.0938" transform="matrix(0.981627 -0.190809 0 1 595.888 99.8986)" fill="#FECE99" stroke="#FFCE99" stroke-width="2"/>
<rect x="480.5" y="220" width="110" height="40" rx="8" fill="#F2E9DC"/>
<path d="M499.092 234.088L500.856 234.088L500.856 238.092L505.49 238.092L505.49 234.088L507.254 234.088L507.254 244L505.49 244L505.49 239.604L500.856 239.604L500.856 244L499.092 244L499.092 234.088ZM509.408 234.088L512.852 234.088C513.319 234.088 513.771 234.139 514.21 234.242C514.649 234.335 515.036 234.494 515.372 234.718C515.717 234.942 515.993 235.236 516.198 235.6C516.403 235.964 516.506 236.407 516.506 236.93C516.506 237.649 516.301 238.237 515.89 238.694C515.489 239.142 514.938 239.445 514.238 239.604L516.884 244L514.756 244L512.46 239.8L511.172 239.8L511.172 244L509.408 244L509.408 234.088ZM512.614 238.358C512.866 238.358 513.118 238.339 513.37 238.302C513.622 238.265 513.846 238.195 514.042 238.092C514.247 237.989 514.415 237.845 514.546 237.658C514.677 237.462 514.742 237.215 514.742 236.916C514.742 236.645 514.681 236.426 514.56 236.258C514.439 236.081 514.285 235.941 514.098 235.838C513.911 235.735 513.697 235.665 513.454 235.628C513.221 235.591 512.992 235.572 512.768 235.572L511.172 235.572L511.172 238.358L512.614 238.358ZM527.693 244L526.097 244L526.097 242.922L526.069 242.922C525.92 243.258 525.659 243.557 525.285 243.818C524.921 244.07 524.487 244.196 523.983 244.196C523.545 244.196 523.167 244.121 522.849 243.972C522.541 243.813 522.285 243.608 522.079 243.356C521.883 243.104 521.739 242.815 521.645 242.488C521.552 242.161 521.505 241.825 521.505 241.48L521.505 237.28L523.185 237.28L523.185 241.004C523.185 241.2 523.199 241.405 523.227 241.62C523.255 241.835 523.316 242.031 523.409 242.208C523.503 242.376 523.629 242.516 523.787 242.628C523.955 242.74 524.175 242.796 524.445 242.796C524.707 242.796 524.935 242.745 525.131 242.642C525.337 242.53 525.5 242.39 525.621 242.222C525.752 242.054 525.85 241.863 525.915 241.648C525.981 241.424 526.013 241.2 526.013 240.976L526.013 237.28L527.693 237.28L527.693 244ZM531.286 237.28L531.286 238.218L531.328 238.218C531.412 238.087 531.52 237.957 531.65 237.826C531.79 237.686 531.958 237.565 532.154 237.462C532.35 237.35 532.57 237.261 532.812 237.196C533.064 237.121 533.344 237.084 533.652 237.084C534.128 237.084 534.567 237.177 534.968 237.364C535.37 237.541 535.715 237.789 536.004 238.106C536.294 238.423 536.518 238.797 536.676 239.226C536.835 239.655 536.914 240.117 536.914 240.612C536.914 241.107 536.835 241.573 536.676 242.012C536.527 242.441 536.308 242.819 536.018 243.146C535.738 243.463 535.393 243.72 534.982 243.916C534.581 244.103 534.124 244.196 533.61 244.196C533.134 244.196 532.696 244.098 532.294 243.902C531.902 243.706 531.599 243.44 531.384 243.104L531.356 243.104L531.356 247.36L529.676 247.36L529.676 237.28L531.286 237.28ZM535.206 240.612C535.206 240.351 535.164 240.094 535.08 239.842C535.006 239.581 534.889 239.347 534.73 239.142C534.572 238.937 534.371 238.773 534.128 238.652C533.886 238.521 533.601 238.456 533.274 238.456C532.966 238.456 532.691 238.521 532.448 238.652C532.206 238.783 531.996 238.951 531.818 239.156C531.65 239.361 531.52 239.595 531.426 239.856C531.342 240.117 531.3 240.379 531.3 240.64C531.3 240.901 531.342 241.163 531.426 241.424C531.52 241.676 531.65 241.905 531.818 242.11C531.996 242.315 532.206 242.483 532.448 242.614C532.691 242.735 532.966 242.796 533.274 242.796C533.601 242.796 533.886 242.731 534.128 242.6C534.371 242.469 534.572 242.301 534.73 242.096C534.889 241.891 535.006 241.657 535.08 241.396C535.164 241.135 535.206 240.873 535.206 240.612ZM538.53 233.416L540.21 233.416L540.21 244L538.53 244L538.53 233.416ZM541.823 240.612C541.823 240.08 541.916 239.599 542.103 239.17C542.299 238.731 542.56 238.358 542.887 238.05C543.213 237.742 543.601 237.504 544.049 237.336C544.497 237.168 544.973 237.084 545.477 237.084C545.981 237.084 546.457 237.168 546.905 237.336C547.353 237.504 547.74 237.742 548.067 238.05C548.393 238.358 548.65 238.731 548.837 239.17C549.033 239.599 549.131 240.08 549.131 240.612C549.131 241.144 549.033 241.629 548.837 242.068C548.65 242.507 548.393 242.885 548.067 243.202C547.74 243.51 547.353 243.753 546.905 243.93C546.457 244.107 545.981 244.196 545.477 244.196C544.973 244.196 544.497 244.107 544.049 243.93C543.601 243.753 543.213 243.51 542.887 243.202C542.56 242.885 542.299 242.507 542.103 242.068C541.916 241.629 541.823 241.144 541.823 240.612ZM543.531 240.612C543.531 240.873 543.568 241.135 543.643 241.396C543.727 241.657 543.848 241.891 544.007 242.096C544.165 242.301 544.366 242.469 544.609 242.6C544.851 242.731 545.141 242.796 545.477 242.796C545.813 242.796 546.102 242.731 546.345 242.6C546.587 242.469 546.788 242.301 546.947 242.096C547.105 241.891 547.222 241.657 547.297 241.396C547.381 241.135 547.423 240.873 547.423 240.612C547.423 240.351 547.381 240.094 547.297 239.842C547.222 239.581 547.105 239.347 546.947 239.142C546.788 238.937 546.587 238.773 546.345 238.652C546.102 238.521 545.813 238.456 545.477 238.456C545.141 238.456 544.851 238.521 544.609 238.652C544.366 238.773 544.165 238.937 544.007 239.142C543.848 239.347 543.727 239.581 543.643 239.842C543.568 240.094 543.531 240.351 543.531 240.612ZM554.898 243.146L554.856 243.146C554.688 243.445 554.417 243.692 554.044 243.888C553.671 244.075 553.246 244.168 552.77 244.168C552.499 244.168 552.215 244.131 551.916 244.056C551.627 243.991 551.356 243.879 551.104 243.72C550.861 243.552 550.656 243.337 550.488 243.076C550.329 242.805 550.25 242.474 550.25 242.082C550.25 241.578 550.39 241.177 550.67 240.878C550.959 240.579 551.328 240.351 551.776 240.192C552.224 240.033 552.719 239.931 553.26 239.884C553.811 239.828 554.347 239.8 554.87 239.8L554.87 239.632C554.87 239.212 554.716 238.904 554.408 238.708C554.109 238.503 553.75 238.4 553.33 238.4C552.975 238.4 552.635 238.475 552.308 238.624C551.981 238.773 551.711 238.955 551.496 239.17L550.628 238.148C551.011 237.793 551.449 237.527 551.944 237.35C552.448 237.173 552.957 237.084 553.47 237.084C554.067 237.084 554.557 237.168 554.94 237.336C555.332 237.504 555.64 237.723 555.864 237.994C556.088 238.265 556.242 238.568 556.326 238.904C556.419 239.24 556.466 239.576 556.466 239.912L556.466 244L554.898 244L554.898 243.146ZM554.87 240.934L554.492 240.934C554.221 240.934 553.937 240.948 553.638 240.976C553.339 240.995 553.064 241.046 552.812 241.13C552.56 241.205 552.35 241.317 552.182 241.466C552.014 241.606 551.93 241.802 551.93 242.054C551.93 242.213 551.963 242.348 552.028 242.46C552.103 242.563 552.196 242.647 552.308 242.712C552.42 242.777 552.546 242.824 552.686 242.852C552.826 242.88 552.966 242.894 553.106 242.894C553.685 242.894 554.123 242.74 554.422 242.432C554.721 242.124 554.87 241.704 554.87 241.172L554.87 240.934ZM565.222 244L563.626 244L563.626 242.992L563.598 242.992C563.364 243.384 563.038 243.683 562.618 243.888C562.207 244.093 561.764 244.196 561.288 244.196C560.774 244.196 560.312 244.103 559.902 243.916C559.5 243.72 559.155 243.463 558.866 243.146C558.586 242.819 558.366 242.441 558.208 242.012C558.058 241.573 557.984 241.107 557.984 240.612C557.984 240.117 558.063 239.655 558.222 239.226C558.38 238.797 558.604 238.423 558.894 238.106C559.183 237.789 559.528 237.541 559.93 237.364C560.331 237.177 560.77 237.084 561.246 237.084C561.554 237.084 561.829 237.121 562.072 237.196C562.314 237.261 562.524 237.345 562.702 237.448C562.888 237.551 563.047 237.663 563.178 237.784C563.308 237.905 563.416 238.022 563.5 238.134L563.542 238.134L563.542 233.416L565.222 233.416L565.222 244ZM559.692 240.612C559.692 240.873 559.729 241.135 559.804 241.396C559.888 241.657 560.009 241.891 560.168 242.096C560.326 242.301 560.527 242.469 560.77 242.6C561.012 242.731 561.297 242.796 561.624 242.796C561.932 242.796 562.207 242.735 562.45 242.614C562.692 242.483 562.898 242.315 563.066 242.11C563.243 241.905 563.374 241.676 563.458 241.424C563.551 241.163 563.598 240.901 563.598 240.64C563.598 240.379 563.551 240.117 563.458 239.856C563.374 239.595 563.243 239.361 563.066 239.156C562.898 238.951 562.692 238.783 562.45 238.652C562.207 238.521 561.932 238.456 561.624 238.456C561.297 238.456 561.012 238.521 560.77 238.652C560.527 238.773 560.326 238.937 560.168 239.142C560.009 239.347 559.888 239.581 559.804 239.842C559.729 240.094 559.692 240.351 559.692 240.612ZM570.911 239.072C570.762 238.876 570.556 238.708 570.295 238.568C570.034 238.419 569.749 238.344 569.441 238.344C569.17 238.344 568.923 238.4 568.699 238.512C568.475 238.624 568.363 238.811 568.363 239.072C568.363 239.333 568.484 239.52 568.727 239.632C568.979 239.735 569.343 239.842 569.819 239.954C570.071 240.01 570.323 240.085 570.575 240.178C570.836 240.271 571.07 240.397 571.275 240.556C571.49 240.705 571.662 240.897 571.793 241.13C571.924 241.354 571.989 241.629 571.989 241.956C571.989 242.367 571.91 242.717 571.751 243.006C571.602 243.286 571.396 243.515 571.135 243.692C570.883 243.869 570.584 243.995 570.239 244.07C569.903 244.154 569.553 244.196 569.189 244.196C568.666 244.196 568.158 244.103 567.663 243.916C567.168 243.72 566.758 243.445 566.431 243.09L567.537 242.054C567.724 242.297 567.966 242.497 568.265 242.656C568.564 242.815 568.895 242.894 569.259 242.894C569.38 242.894 569.502 242.88 569.623 242.852C569.754 242.824 569.87 242.782 569.973 242.726C570.085 242.661 570.174 242.577 570.239 242.474C570.304 242.371 570.337 242.245 570.337 242.096C570.337 241.816 570.206 241.615 569.945 241.494C569.693 241.373 569.31 241.251 568.797 241.13C568.545 241.074 568.298 241.004 568.055 240.92C567.822 240.827 567.612 240.71 567.425 240.57C567.238 240.421 567.089 240.239 566.977 240.024C566.865 239.809 566.809 239.543 566.809 239.226C566.809 238.853 566.884 238.531 567.033 238.26C567.192 237.989 567.397 237.77 567.649 237.602C567.901 237.425 568.186 237.294 568.503 237.21C568.82 237.126 569.147 237.084 569.483 237.084C569.968 237.084 570.44 237.168 570.897 237.336C571.364 237.504 571.732 237.761 572.003 238.106L570.911 239.072Z" fill="#562F00"/>
<g filter="url(#filter4_d_762_9552)">
<rect width="245" height="245" rx="24" transform="matrix(0.981627 -0.190809 0 1 682 46.7482)" fill="#FFFDF0"/>
<rect x="0.490814" y="0.404596" width="244" height="244" rx="23.5" transform="matrix(0.981627 -0.190809 0 1 682.009 46.8418)" stroke="#F2E9DC"/>
</g>
<path d="M737.012 133.706L762.511 139.964L814.784 100.367L794.394 91.8762C792.814 91.2183 790.845 91.5845 789.25 92.8328L737.012 133.706Z" fill="#FFCE99"/>
<path d="M737.012 133.706V154.301C737.012 156.279 738.121 157.869 739.868 158.394L762.511 165.195M737.012 133.706L762.511 139.964M737.012 133.706L789.25 92.8328C790.845 91.5845 792.814 91.2183 794.394 91.8762L814.784 100.367M762.511 165.195V139.964M762.511 165.195L813.319 126.059C814.997 124.766 815.992 122.72 815.887 120.78L814.784 100.367M762.511 139.964L814.784 100.367" stroke="#FFCE99" stroke-width="2"/>
<path d="M732.359 163.67L757.858 170.314L810.131 129.702L789.806 120.81C788.194 120.105 786.16 120.483 784.531 121.79L732.359 163.67Z" fill="#FFCE99"/>
<path d="M732.359 163.67V185.134C732.359 187.087 733.441 188.664 735.155 189.208L757.858 196.414M732.359 163.67L757.858 170.314M732.359 163.67L784.531 121.79C786.16 120.483 788.194 120.105 789.806 120.81L810.131 129.702M757.858 196.414V170.314M757.858 196.414L808.739 156.212C810.377 154.918 811.343 152.904 811.244 150.993L810.131 129.702M757.858 170.314L810.131 129.702" stroke="#FFCE99" stroke-width="2"/>
<rect x="659" y="220" width="110" height="40" rx="8" fill="#F2E9DC"/>
<path d="M698.092 234.088L701.536 234.088C702.003 234.088 702.455 234.139 702.894 234.242C703.333 234.335 703.72 234.494 704.056 234.718C704.401 234.942 704.677 235.236 704.882 235.6C705.087 235.964 705.19 236.407 705.19 236.93C705.19 237.649 704.985 238.237 704.574 238.694C704.173 239.142 703.622 239.445 702.922 239.604L705.568 244L703.44 244L701.144 239.8L699.856 239.8L699.856 244L698.092 244L698.092 234.088ZM701.298 238.358C701.55 238.358 701.802 238.339 702.054 238.302C702.306 238.265 702.53 238.195 702.726 238.092C702.931 237.989 703.099 237.845 703.23 237.658C703.361 237.462 703.426 237.215 703.426 236.916C703.426 236.645 703.365 236.426 703.244 236.258C703.123 236.081 702.969 235.941 702.782 235.838C702.595 235.735 702.381 235.665 702.138 235.628C701.905 235.591 701.676 235.572 701.452 235.572L699.856 235.572L699.856 238.358L701.298 238.358ZM706.807 237.28L708.487 237.28L708.487 244L706.807 244L706.807 237.28ZM706.569 234.998C706.569 234.727 706.667 234.494 706.863 234.298C707.068 234.093 707.325 233.99 707.633 233.99C707.941 233.99 708.198 234.088 708.403 234.284C708.618 234.471 708.725 234.709 708.725 234.998C708.725 235.287 708.618 235.53 708.403 235.726C708.198 235.913 707.941 236.006 707.633 236.006C707.325 236.006 707.068 235.908 706.863 235.712C706.667 235.507 706.569 235.269 706.569 234.998ZM717.324 237.28L717.324 243.398C717.324 244.005 717.249 244.551 717.1 245.036C716.95 245.531 716.717 245.946 716.4 246.282C716.092 246.627 715.7 246.893 715.224 247.08C714.748 247.267 714.183 247.36 713.53 247.36C713.259 247.36 712.97 247.337 712.662 247.29C712.363 247.243 712.064 247.173 711.766 247.08C711.476 246.987 711.196 246.87 710.926 246.73C710.655 246.59 710.412 246.431 710.198 246.254L711.164 244.952C711.49 245.26 711.859 245.493 712.27 245.652C712.68 245.82 713.096 245.904 713.516 245.904C713.917 245.904 714.253 245.843 714.524 245.722C714.804 245.61 715.023 245.451 715.182 245.246C715.35 245.041 715.466 244.798 715.532 244.518C715.606 244.238 715.644 243.93 715.644 243.594L715.644 243.104L715.616 243.104C715.373 243.431 715.06 243.683 714.678 243.86C714.304 244.028 713.884 244.112 713.418 244.112C712.914 244.112 712.456 244.019 712.046 243.832C711.635 243.645 711.285 243.393 710.996 243.076C710.716 242.759 710.496 242.39 710.338 241.97C710.179 241.541 710.1 241.088 710.1 240.612C710.1 240.127 710.174 239.669 710.324 239.24C710.482 238.811 710.702 238.437 710.982 238.12C711.271 237.803 711.616 237.551 712.018 237.364C712.428 237.177 712.886 237.084 713.39 237.084C713.866 237.084 714.309 237.182 714.72 237.378C715.13 237.574 715.457 237.877 715.7 238.288L715.728 238.288L715.728 237.28L717.324 237.28ZM713.74 238.456C713.432 238.456 713.156 238.512 712.914 238.624C712.68 238.736 712.48 238.89 712.312 239.086C712.153 239.273 712.027 239.497 711.934 239.758C711.85 240.019 711.808 240.299 711.808 240.598C711.808 240.869 711.85 241.13 711.934 241.382C712.027 241.634 712.153 241.863 712.312 242.068C712.48 242.264 712.68 242.423 712.914 242.544C713.156 242.665 713.427 242.726 713.726 242.726C714.034 242.726 714.309 242.67 714.552 242.558C714.804 242.437 715.014 242.278 715.182 242.082C715.359 241.886 715.494 241.662 715.588 241.41C715.681 241.149 715.728 240.878 715.728 240.598C715.728 240.309 715.681 240.033 715.588 239.772C715.494 239.511 715.359 239.282 715.182 239.086C715.014 238.89 714.808 238.736 714.566 238.624C714.323 238.512 714.048 238.456 713.74 238.456ZM719.332 237.28L721.012 237.28L721.012 244L719.332 244L719.332 237.28ZM719.094 234.998C719.094 234.727 719.192 234.494 719.388 234.298C719.593 234.093 719.85 233.99 720.158 233.99C720.466 233.99 720.722 234.088 720.928 234.284C721.142 234.471 721.25 234.709 721.25 234.998C721.25 235.287 721.142 235.53 720.928 235.726C720.722 235.913 720.466 236.006 720.158 236.006C719.85 236.006 719.593 235.908 719.388 235.712C719.192 235.507 719.094 235.269 719.094 234.998ZM729.848 244L728.252 244L728.252 242.992L728.224 242.992C727.991 243.384 727.664 243.683 727.244 243.888C726.834 244.093 726.39 244.196 725.914 244.196C725.401 244.196 724.939 244.103 724.528 243.916C724.127 243.72 723.782 243.463 723.492 243.146C723.212 242.819 722.993 242.441 722.834 242.012C722.685 241.573 722.61 241.107 722.61 240.612C722.61 240.117 722.69 239.655 722.848 239.226C723.007 238.797 723.231 238.423 723.52 238.106C723.81 237.789 724.155 237.541 724.556 237.364C724.958 237.177 725.396 237.084 725.872 237.084C726.18 237.084 726.456 237.121 726.698 237.196C726.941 237.261 727.151 237.345 727.328 237.448C727.515 237.551 727.674 237.663 727.804 237.784C727.935 237.905 728.042 238.022 728.126 238.134L728.168 238.134L728.168 233.416L729.848 233.416L729.848 244ZM724.318 240.612C724.318 240.873 724.356 241.135 724.43 241.396C724.514 241.657 724.636 241.891 724.794 242.096C724.953 242.301 725.154 242.469 725.396 242.6C725.639 242.731 725.924 242.796 726.25 242.796C726.558 242.796 726.834 242.735 727.076 242.614C727.319 242.483 727.524 242.315 727.692 242.11C727.87 241.905 728 241.676 728.084 241.424C728.178 241.163 728.224 240.901 728.224 240.64C728.224 240.379 728.178 240.117 728.084 239.856C728 239.595 727.87 239.361 727.692 239.156C727.524 238.951 727.319 238.783 727.076 238.652C726.834 238.521 726.558 238.456 726.25 238.456C725.924 238.456 725.639 238.521 725.396 238.652C725.154 238.773 724.953 238.937 724.794 239.142C724.636 239.347 724.514 239.581 724.43 239.842C724.356 240.094 724.318 240.351 724.318 240.612Z" fill="#562F00"/>
<g filter="url(#filter5_d_762_9552)">
<rect width="245" height="245" rx="24" transform="matrix(0.981627 -0.190809 0 1 840.5 46.7482)" fill="#FFFDF0"/>
<rect x="0.490814" y="0.404596" width="244" height="244" rx="23.5" transform="matrix(0.981627 -0.190809 0 1 840.509 46.8418)" stroke="#F2E9DC"/>
</g>
<path d="M914.028 162.083C928.989 157.176 937.174 155.425 952.411 154.622M933.219 178.66C910.856 183.007 892.727 168.063 892.727 145.281C892.727 122.5 910.856 100.507 933.219 96.1604C955.582 91.8134 973.711 106.758 973.711 129.54C973.711 152.321 955.582 174.313 933.219 178.66Z" stroke="#FFCE99" stroke-width="2" stroke-linecap="round"/>
<path d="M938.195 126.668C938.195 130.551 941.285 133.099 945.097 132.358C948.909 131.617 951.999 127.868 951.999 123.985C951.999 120.101 948.909 117.554 945.097 118.295C941.285 119.036 938.195 122.785 938.195 126.668Z" fill="#FFCE99" stroke="#FFCE99" stroke-width="2"/>
<path d="M910.586 132.035C910.586 135.918 913.676 138.466 917.488 137.725C921.3 136.984 924.39 133.235 924.39 129.352C924.39 125.469 921.3 122.921 917.488 123.662C913.676 124.403 910.586 128.152 910.586 132.035Z" fill="#FFCE99" stroke="#FFCE99" stroke-width="2"/>
<rect x="812.5" y="220" width="110" height="40" rx="8" fill="#F2E9DC"/>
<path d="M846.592 234.088L850.456 234.088C850.829 234.088 851.198 234.135 851.562 234.228C851.926 234.312 852.248 234.457 852.528 234.662C852.817 234.858 853.051 235.115 853.228 235.432C853.405 235.749 853.494 236.132 853.494 236.58C853.494 237.14 853.335 237.602 853.018 237.966C852.701 238.33 852.285 238.591 851.772 238.75L851.772 238.778C852.397 238.862 852.911 239.105 853.312 239.506C853.713 239.907 853.914 240.444 853.914 241.116C853.914 241.657 853.807 242.115 853.592 242.488C853.377 242.852 853.093 243.146 852.738 243.37C852.393 243.594 851.991 243.757 851.534 243.86C851.086 243.953 850.629 244 850.162 244L846.592 244L846.592 234.088ZM848.356 238.12L849.924 238.12C850.512 238.12 850.96 238.003 851.268 237.77C851.576 237.537 851.73 237.205 851.73 236.776C851.73 236.328 851.571 236.011 851.254 235.824C850.937 235.637 850.442 235.544 849.77 235.544L848.356 235.544L848.356 238.12ZM848.356 242.516L849.938 242.516C850.162 242.516 850.405 242.502 850.666 242.474C850.927 242.437 851.165 242.367 851.38 242.264C851.604 242.161 851.786 242.012 851.926 241.816C852.075 241.62 852.15 241.359 852.15 241.032C852.15 240.509 851.973 240.145 851.618 239.94C851.263 239.735 850.727 239.632 850.008 239.632L848.356 239.632L848.356 242.516ZM855.147 240.612C855.147 240.08 855.24 239.599 855.427 239.17C855.623 238.731 855.884 238.358 856.211 238.05C856.538 237.742 856.925 237.504 857.373 237.336C857.821 237.168 858.297 237.084 858.801 237.084C859.305 237.084 859.781 237.168 860.229 237.336C860.677 237.504 861.064 237.742 861.391 238.05C861.718 238.358 861.974 238.731 862.161 239.17C862.357 239.599 862.455 240.08 862.455 240.612C862.455 241.144 862.357 241.629 862.161 242.068C861.974 242.507 861.718 242.885 861.391 243.202C861.064 243.51 860.677 243.753 860.229 243.93C859.781 244.107 859.305 244.196 858.801 244.196C858.297 244.196 857.821 244.107 857.373 243.93C856.925 243.753 856.538 243.51 856.211 243.202C855.884 242.885 855.623 242.507 855.427 242.068C855.24 241.629 855.147 241.144 855.147 240.612ZM856.855 240.612C856.855 240.873 856.892 241.135 856.967 241.396C857.051 241.657 857.172 241.891 857.331 242.096C857.49 242.301 857.69 242.469 857.933 242.6C858.176 242.731 858.465 242.796 858.801 242.796C859.137 242.796 859.426 242.731 859.669 242.6C859.912 242.469 860.112 242.301 860.271 242.096C860.43 241.891 860.546 241.657 860.621 241.396C860.705 241.135 860.747 240.873 860.747 240.612C860.747 240.351 860.705 240.094 860.621 239.842C860.546 239.581 860.43 239.347 860.271 239.142C860.112 238.937 859.912 238.773 859.669 238.652C859.426 238.521 859.137 238.456 858.801 238.456C858.465 238.456 858.176 238.521 857.933 238.652C857.69 238.773 857.49 238.937 857.331 239.142C857.172 239.347 857.051 239.581 856.967 239.842C856.892 240.094 856.855 240.351 856.855 240.612ZM864.05 237.28L865.66 237.28L865.66 238.4L865.688 238.4C865.875 238.008 866.136 237.691 866.472 237.448C866.808 237.205 867.2 237.084 867.648 237.084C867.714 237.084 867.784 237.089 867.858 237.098C867.933 237.098 867.998 237.107 868.054 237.126L868.054 238.666C867.942 238.638 867.844 238.619 867.76 238.61C867.686 238.601 867.611 238.596 867.536 238.596C867.154 238.596 866.846 238.666 866.612 238.806C866.379 238.946 866.197 239.114 866.066 239.31C865.936 239.506 865.847 239.707 865.8 239.912C865.754 240.117 865.73 240.281 865.73 240.402L865.73 244L864.05 244L864.05 237.28ZM869.144 237.28L870.824 237.28L870.824 244L869.144 244L869.144 237.28ZM868.906 234.998C868.906 234.727 869.004 234.494 869.2 234.298C869.406 234.093 869.662 233.99 869.97 233.99C870.278 233.99 870.535 234.088 870.74 234.284C870.955 234.471 871.062 234.709 871.062 234.998C871.062 235.287 870.955 235.53 870.74 235.726C870.535 235.913 870.278 236.006 869.97 236.006C869.662 236.006 869.406 235.908 869.2 235.712C869.004 235.507 868.906 235.269 868.906 234.998ZM872.829 237.28L874.425 237.28L874.425 238.358L874.453 238.358C874.602 238.022 874.859 237.728 875.223 237.476C875.596 237.215 876.035 237.084 876.539 237.084C876.977 237.084 877.351 237.163 877.659 237.322C877.976 237.471 878.233 237.672 878.429 237.924C878.634 238.176 878.783 238.465 878.877 238.792C878.97 239.119 879.017 239.455 879.017 239.8L879.017 244L877.337 244L877.337 240.276C877.337 240.08 877.323 239.875 877.295 239.66C877.267 239.445 877.206 239.254 877.113 239.086C877.019 238.909 876.889 238.764 876.721 238.652C876.562 238.54 876.347 238.484 876.077 238.484C875.806 238.484 875.573 238.54 875.377 238.652C875.181 238.755 875.017 238.89 874.887 239.058C874.765 239.226 874.672 239.422 874.607 239.646C874.541 239.861 874.509 240.08 874.509 240.304L874.509 244L872.829 244L872.829 237.28ZM887.776 237.28L887.776 243.398C887.776 244.005 887.701 244.551 887.552 245.036C887.402 245.531 887.169 245.946 886.852 246.282C886.544 246.627 886.152 246.893 885.676 247.08C885.2 247.267 884.635 247.36 883.982 247.36C883.711 247.36 883.422 247.337 883.114 247.29C882.815 247.243 882.516 247.173 882.218 247.08C881.928 246.987 881.648 246.87 881.378 246.73C881.107 246.59 880.864 246.431 880.65 246.254L881.616 244.952C881.942 245.26 882.311 245.493 882.722 245.652C883.132 245.82 883.548 245.904 883.968 245.904C884.369 245.904 884.705 245.843 884.976 245.722C885.256 245.61 885.475 245.451 885.634 245.246C885.802 245.041 885.918 244.798 885.984 244.518C886.058 244.238 886.096 243.93 886.096 243.594L886.096 243.104L886.068 243.104C885.825 243.431 885.512 243.683 885.13 243.86C884.756 244.028 884.336 244.112 883.87 244.112C883.366 244.112 882.908 244.019 882.498 243.832C882.087 243.645 881.737 243.393 881.448 243.076C881.168 242.759 880.948 242.39 880.79 241.97C880.631 241.541 880.552 241.088 880.552 240.612C880.552 240.127 880.626 239.669 880.776 239.24C880.934 238.811 881.154 238.437 881.434 238.12C881.723 237.803 882.068 237.551 882.47 237.364C882.88 237.177 883.338 237.084 883.842 237.084C884.318 237.084 884.761 237.182 885.172 237.378C885.582 237.574 885.909 237.877 886.152 238.288L886.18 238.288L886.18 237.28L887.776 237.28ZM884.192 238.456C883.884 238.456 883.608 238.512 883.366 238.624C883.132 238.736 882.932 238.89 882.764 239.086C882.605 239.273 882.479 239.497 882.386 239.758C882.302 240.019 882.26 240.299 882.26 240.598C882.26 240.869 882.302 241.13 882.386 241.382C882.479 241.634 882.605 241.863 882.764 242.068C882.932 242.264 883.132 242.423 883.366 242.544C883.608 242.665 883.879 242.726 884.178 242.726C884.486 242.726 884.761 242.67 885.004 242.558C885.256 242.437 885.466 242.278 885.634 242.082C885.811 241.886 885.946 241.662 886.04 241.41C886.133 241.149 886.18 240.878 886.18 240.598C886.18 240.309 886.133 240.033 886.04 239.772C885.946 239.511 885.811 239.282 885.634 239.086C885.466 238.89 885.26 238.736 885.018 238.624C884.775 238.512 884.5 238.456 884.192 238.456Z" fill="#562F00"/>
<g filter="url(#filter6_d_762_9552)">
<rect width="245" height="245" rx="24" transform="matrix(0.981627 -0.190809 0 1 999 46.7482)" fill="#FFFDF0"/>
<rect x="0.490814" y="0.404596" width="244" height="244" rx="23.5" transform="matrix(0.981627 -0.190809 0 1 999.009 46.8418)" stroke="#F2E9DC"/>
</g>
<path d="M1074.61 114.472C1074.32 114.006 1074.45 113.388 1074.92 113.092C1075.39 112.795 1076 112.932 1076.3 113.398L1075.46 113.935L1074.61 114.472ZM1100.31 152.953L1101.12 153.536L1100.26 154.738L1099.47 153.491L1100.31 152.953ZM1128.27 113.935L1127.46 113.353L1128.42 112.011L1129.16 113.484L1128.27 113.935ZM1160.67 178.084L1151.01 171.761L1161.32 166.555L1160.67 178.084ZM1075.46 113.935L1076.3 113.398L1101.15 152.416L1100.31 152.953L1099.47 153.491L1074.61 114.472L1075.46 113.935ZM1100.31 152.953L1099.5 152.371L1127.46 113.353L1128.27 113.935L1129.08 114.518L1101.12 153.536L1100.31 152.953ZM1128.27 113.935L1129.16 113.484L1157.51 169.6L1156.61 170.05L1155.72 170.501L1127.38 114.386L1128.27 113.935Z" fill="#FECE99"/>
<path d="M1161.86 155.183L1139.24 163.205C1137.64 163.775 1137.44 165.967 1138.91 166.821L1159.04 178.457C1160.28 179.173 1161.85 178.395 1162.03 176.976L1164.51 157.319C1164.69 155.841 1163.26 154.686 1161.86 155.183Z" fill="#FECE99" stroke="#FECE99" stroke-linejoin="round"/>
<rect x="948" y="220" width="110" height="40" rx="8" fill="#F2E9DC"/>
<path d="M959.092 234.088L960.856 234.088L960.856 242.432L965.07 242.432L965.07 244L959.092 244L959.092 234.088ZM965.487 240.612C965.487 240.08 965.58 239.599 965.767 239.17C965.963 238.731 966.224 238.358 966.551 238.05C966.877 237.742 967.265 237.504 967.713 237.336C968.161 237.168 968.637 237.084 969.141 237.084C969.645 237.084 970.121 237.168 970.569 237.336C971.017 237.504 971.404 237.742 971.731 238.05C972.057 238.358 972.314 238.731 972.501 239.17C972.697 239.599 972.795 240.08 972.795 240.612C972.795 241.144 972.697 241.629 972.501 242.068C972.314 242.507 972.057 242.885 971.731 243.202C971.404 243.51 971.017 243.753 970.569 243.93C970.121 244.107 969.645 244.196 969.141 244.196C968.637 244.196 968.161 244.107 967.713 243.93C967.265 243.753 966.877 243.51 966.551 243.202C966.224 242.885 965.963 242.507 965.767 242.068C965.58 241.629 965.487 241.144 965.487 240.612ZM967.195 240.612C967.195 240.873 967.232 241.135 967.307 241.396C967.391 241.657 967.512 241.891 967.671 242.096C967.829 242.301 968.03 242.469 968.273 242.6C968.515 242.731 968.805 242.796 969.141 242.796C969.477 242.796 969.766 242.731 970.009 242.6C970.251 242.469 970.452 242.301 970.611 242.096C970.769 241.891 970.886 241.657 970.961 241.396C971.045 241.135 971.087 240.873 971.087 240.612C971.087 240.351 971.045 240.094 970.961 239.842C970.886 239.581 970.769 239.347 970.611 239.142C970.452 238.937 970.251 238.773 970.009 238.652C969.766 238.521 969.477 238.456 969.141 238.456C968.805 238.456 968.515 238.521 968.273 238.652C968.03 238.773 967.829 238.937 967.671 239.142C967.512 239.347 967.391 239.581 967.307 239.842C967.232 240.094 967.195 240.351 967.195 240.612ZM973.438 237.28L975.258 237.28L976.658 242.096L976.686 242.096L978.128 237.28L979.92 237.28L981.376 242.096L981.404 242.096L982.832 237.28L984.582 237.28L982.258 244L980.55 244L979.024 239.296L978.996 239.296L977.484 244L975.776 244L973.438 237.28ZM993.247 243.146L993.205 243.146C993.037 243.445 992.766 243.692 992.393 243.888C992.019 244.075 991.595 244.168 991.119 244.168C990.848 244.168 990.563 244.131 990.265 244.056C989.975 243.991 989.705 243.879 989.453 243.72C989.21 243.552 989.005 243.337 988.837 243.076C988.678 242.805 988.599 242.474 988.599 242.082C988.599 241.578 988.739 241.177 989.019 240.878C989.308 240.579 989.677 240.351 990.125 240.192C990.573 240.033 991.067 239.931 991.609 239.884C992.159 239.828 992.696 239.8 993.219 239.8L993.219 239.632C993.219 239.212 993.065 238.904 992.757 238.708C992.458 238.503 992.099 238.4 991.679 238.4C991.324 238.4 990.983 238.475 990.657 238.624C990.33 238.773 990.059 238.955 989.845 239.17L988.977 238.148C989.359 237.793 989.798 237.527 990.293 237.35C990.797 237.173 991.305 237.084 991.819 237.084C992.416 237.084 992.906 237.168 993.289 237.336C993.681 237.504 993.989 237.723 994.213 237.994C994.437 238.265 994.591 238.568 994.675 238.904C994.768 239.24 994.815 239.576 994.815 239.912L994.815 244L993.247 244L993.247 243.146ZM993.219 240.934L992.841 240.934C992.57 240.934 992.285 240.948 991.987 240.976C991.688 240.995 991.413 241.046 991.161 241.13C990.909 241.205 990.699 241.317 990.531 241.466C990.363 241.606 990.279 241.802 990.279 242.054C990.279 242.213 990.311 242.348 990.377 242.46C990.451 242.563 990.545 242.647 990.657 242.712C990.769 242.777 990.895 242.824 991.035 242.852C991.175 242.88 991.315 242.894 991.455 242.894C992.033 242.894 992.472 242.74 992.771 242.432C993.069 242.124 993.219 241.704 993.219 241.172L993.219 240.934ZM1003.57 244L1001.97 244L1001.97 242.992L1001.95 242.992C1001.71 243.384 1001.39 243.683 1000.97 243.888C1000.56 244.093 1000.11 244.196 999.636 244.196C999.123 244.196 998.661 244.103 998.25 243.916C997.849 243.72 997.504 243.463 997.214 243.146C996.934 242.819 996.715 242.441 996.556 242.012C996.407 241.573 996.332 241.107 996.332 240.612C996.332 240.117 996.412 239.655 996.57 239.226C996.729 238.797 996.953 238.423 997.242 238.106C997.532 237.789 997.877 237.541 998.278 237.364C998.68 237.177 999.118 237.084 999.594 237.084C999.902 237.084 1000.18 237.121 1000.42 237.196C1000.66 237.261 1000.87 237.345 1001.05 237.448C1001.24 237.551 1001.4 237.663 1001.53 237.784C1001.66 237.905 1001.76 238.022 1001.85 238.134L1001.89 238.134L1001.89 233.416L1003.57 233.416L1003.57 244ZM998.04 240.612C998.04 240.873 998.078 241.135 998.152 241.396C998.236 241.657 998.358 241.891 998.516 242.096C998.675 242.301 998.876 242.469 999.118 242.6C999.361 242.731 999.646 242.796 999.972 242.796C1000.28 242.796 1000.56 242.735 1000.8 242.614C1001.04 242.483 1001.25 242.315 1001.41 242.11C1001.59 241.905 1001.72 241.676 1001.81 241.424C1001.9 241.163 1001.95 240.901 1001.95 240.64C1001.95 240.379 1001.9 240.117 1001.81 239.856C1001.72 239.595 1001.59 239.361 1001.41 239.156C1001.25 238.951 1001.04 238.783 1000.8 238.652C1000.56 238.521 1000.28 238.456 999.972 238.456C999.646 238.456 999.361 238.521 999.118 238.652C998.876 238.773 998.675 238.937 998.516 239.142C998.358 239.347 998.236 239.581 998.152 239.842C998.078 240.094 998.04 240.351 998.04 240.612ZM1005.19 240.612C1005.19 240.08 1005.28 239.599 1005.47 239.17C1005.66 238.731 1005.92 238.358 1006.25 238.05C1006.58 237.742 1006.96 237.504 1007.41 237.336C1007.86 237.168 1008.34 237.084 1008.84 237.084C1009.34 237.084 1009.82 237.168 1010.27 237.336C1010.72 237.504 1011.1 237.742 1011.43 238.05C1011.76 238.358 1012.01 238.731 1012.2 239.17C1012.4 239.599 1012.49 240.08 1012.49 240.612C1012.49 241.144 1012.4 241.629 1012.2 242.068C1012.01 242.507 1011.76 242.885 1011.43 243.202C1011.1 243.51 1010.72 243.753 1010.27 243.93C1009.82 244.107 1009.34 244.196 1008.84 244.196C1008.34 244.196 1007.86 244.107 1007.41 243.93C1006.96 243.753 1006.58 243.51 1006.25 243.202C1005.92 242.885 1005.66 242.507 1005.47 242.068C1005.28 241.629 1005.19 241.144 1005.19 240.612ZM1006.89 240.612C1006.89 240.873 1006.93 241.135 1007.01 241.396C1007.09 241.657 1007.21 241.891 1007.37 242.096C1007.53 242.301 1007.73 242.469 1007.97 242.6C1008.21 242.731 1008.5 242.796 1008.84 242.796C1009.18 242.796 1009.47 242.731 1009.71 242.6C1009.95 242.469 1010.15 242.301 1010.31 242.096C1010.47 241.891 1010.59 241.657 1010.66 241.396C1010.74 241.135 1010.79 240.873 1010.79 240.612C1010.79 240.351 1010.74 240.094 1010.66 239.842C1010.59 239.581 1010.47 239.347 1010.31 239.142C1010.15 238.937 1009.95 238.773 1009.71 238.652C1009.47 238.521 1009.18 238.456 1008.84 238.456C1008.5 238.456 1008.21 238.521 1007.97 238.652C1007.73 238.773 1007.53 238.937 1007.37 239.142C1007.21 239.347 1007.09 239.581 1007.01 239.842C1006.93 240.094 1006.89 240.351 1006.89 240.612ZM1015.7 237.28L1015.7 238.218L1015.74 238.218C1015.83 238.087 1015.93 237.957 1016.06 237.826C1016.2 237.686 1016.37 237.565 1016.57 237.462C1016.76 237.35 1016.98 237.261 1017.23 237.196C1017.48 237.121 1017.76 237.084 1018.07 237.084C1018.54 237.084 1018.98 237.177 1019.38 237.364C1019.78 237.541 1020.13 237.789 1020.42 238.106C1020.71 238.423 1020.93 238.797 1021.09 239.226C1021.25 239.655 1021.33 240.117 1021.33 240.612C1021.33 241.107 1021.25 241.573 1021.09 242.012C1020.94 242.441 1020.72 242.819 1020.43 243.146C1020.15 243.463 1019.81 243.72 1019.4 243.916C1018.99 244.103 1018.54 244.196 1018.02 244.196C1017.55 244.196 1017.11 244.098 1016.71 243.902C1016.32 243.706 1016.01 243.44 1015.8 243.104L1015.77 243.104L1015.77 247.36L1014.09 247.36L1014.09 237.28L1015.7 237.28ZM1019.62 240.612C1019.62 240.351 1019.58 240.094 1019.49 239.842C1019.42 239.581 1019.3 239.347 1019.14 239.142C1018.98 238.937 1018.78 238.773 1018.54 238.652C1018.3 238.521 1018.01 238.456 1017.69 238.456C1017.38 238.456 1017.1 238.521 1016.86 238.652C1016.62 238.783 1016.41 238.951 1016.23 239.156C1016.06 239.361 1015.93 239.595 1015.84 239.856C1015.76 240.117 1015.71 240.379 1015.71 240.64C1015.71 240.901 1015.76 241.163 1015.84 241.424C1015.93 241.676 1016.06 241.905 1016.23 242.11C1016.41 242.315 1016.62 242.483 1016.86 242.614C1017.1 242.735 1017.38 242.796 1017.69 242.796C1018.01 242.796 1018.3 242.731 1018.54 242.6C1018.78 242.469 1018.98 242.301 1019.14 242.096C1019.3 241.891 1019.42 241.657 1019.49 241.396C1019.58 241.135 1019.62 240.873 1019.62 240.612ZM1021.95 238.624L1021.95 237.28L1023.12 237.28L1023.12 235.334L1024.78 235.334L1024.78 237.28L1026.46 237.28L1026.46 238.624L1024.78 238.624L1024.78 241.746C1024.78 242.045 1024.83 242.292 1024.93 242.488C1025.04 242.684 1025.29 242.782 1025.66 242.782C1025.77 242.782 1025.89 242.773 1026.02 242.754C1026.15 242.726 1026.27 242.689 1026.37 242.642L1026.43 243.958C1026.28 244.014 1026.1 244.056 1025.9 244.084C1025.69 244.121 1025.5 244.14 1025.31 244.14C1024.86 244.14 1024.5 244.079 1024.22 243.958C1023.94 243.827 1023.71 243.655 1023.54 243.44C1023.39 243.216 1023.27 242.964 1023.21 242.684C1023.15 242.395 1023.12 242.087 1023.12 241.76L1023.12 238.624L1021.95 238.624ZM1027.67 237.28L1029.35 237.28L1029.35 244L1027.67 244L1027.67 237.28ZM1027.43 234.998C1027.43 234.727 1027.53 234.494 1027.72 234.298C1027.93 234.093 1028.19 233.99 1028.49 233.99C1028.8 233.99 1029.06 234.088 1029.26 234.284C1029.48 234.471 1029.59 234.709 1029.59 234.998C1029.59 235.287 1029.48 235.53 1029.26 235.726C1029.06 235.913 1028.8 236.006 1028.49 236.006C1028.19 236.006 1027.93 235.908 1027.72 235.712C1027.53 235.507 1027.43 235.269 1027.43 234.998ZM1030.96 240.612C1030.96 240.08 1031.05 239.599 1031.24 239.17C1031.44 238.731 1031.7 238.358 1032.02 238.05C1032.35 237.742 1032.74 237.504 1033.19 237.336C1033.63 237.168 1034.11 237.084 1034.61 237.084C1035.12 237.084 1035.59 237.168 1036.04 237.336C1036.49 237.504 1036.88 237.742 1037.2 238.05C1037.53 238.358 1037.79 238.731 1037.97 239.17C1038.17 239.599 1038.27 240.08 1038.27 240.612C1038.27 241.144 1038.17 241.629 1037.97 242.068C1037.79 242.507 1037.53 242.885 1037.2 243.202C1036.88 243.51 1036.49 243.753 1036.04 243.93C1035.59 244.107 1035.12 244.196 1034.61 244.196C1034.11 244.196 1033.63 244.107 1033.19 243.93C1032.74 243.753 1032.35 243.51 1032.02 243.202C1031.7 242.885 1031.44 242.507 1031.24 242.068C1031.05 241.629 1030.96 241.144 1030.96 240.612ZM1032.67 240.612C1032.67 240.873 1032.71 241.135 1032.78 241.396C1032.86 241.657 1032.99 241.891 1033.14 242.096C1033.3 242.301 1033.5 242.469 1033.75 242.6C1033.99 242.731 1034.28 242.796 1034.61 242.796C1034.95 242.796 1035.24 242.731 1035.48 242.6C1035.72 242.469 1035.93 242.301 1036.08 242.096C1036.24 241.891 1036.36 241.657 1036.43 241.396C1036.52 241.135 1036.56 240.873 1036.56 240.612C1036.56 240.351 1036.52 240.094 1036.43 239.842C1036.36 239.581 1036.24 239.347 1036.08 239.142C1035.93 238.937 1035.72 238.773 1035.48 238.652C1035.24 238.521 1034.95 238.456 1034.61 238.456C1034.28 238.456 1033.99 238.521 1033.75 238.652C1033.5 238.773 1033.3 238.937 1033.14 239.142C1032.99 239.347 1032.86 239.581 1032.78 239.842C1032.71 240.094 1032.67 240.351 1032.67 240.612ZM1039.86 237.28L1041.46 237.28L1041.46 238.358L1041.49 238.358C1041.64 238.022 1041.89 237.728 1042.26 237.476C1042.63 237.215 1043.07 237.084 1043.57 237.084C1044.01 237.084 1044.39 237.163 1044.69 237.322C1045.01 237.471 1045.27 237.672 1045.46 237.924C1045.67 238.176 1045.82 238.465 1045.91 238.792C1046 239.119 1046.05 239.455 1046.05 239.8L1046.05 244L1044.37 244L1044.37 240.276C1044.37 240.08 1044.36 239.875 1044.33 239.66C1044.3 239.445 1044.24 239.254 1044.15 239.086C1044.05 238.909 1043.92 238.764 1043.76 238.652C1043.6 238.54 1043.38 238.484 1043.11 238.484C1042.84 238.484 1042.61 238.54 1042.41 238.652C1042.22 238.755 1042.05 238.89 1041.92 239.058C1041.8 239.226 1041.71 239.422 1041.64 239.646C1041.58 239.861 1041.54 240.08 1041.54 240.304L1041.54 244L1039.86 244L1039.86 237.28Z" fill="#562F00"/>
<defs>
<filter id="filter0_d_762_9552" x="44" y="1.14197" width="248.499" height="291.464" filterUnits="userSpaceOnUse" color-interpolation-filters="sRGB">
<feFlood flood-opacity="0" result="BackgroundImageFix"/>
<feColorMatrix in="SourceAlpha" type="matrix" values="0 0 0 0 0 0 0 0 0 0 0 0 0 0 0 0 0 0 127 0" result="hardAlpha"/>
<feOffset dy="1"/>
<feGaussianBlur stdDeviation="2"/>
<feComposite in2="hardAlpha" operator="out"/>
<feColorMatrix type="matrix" values="0 0 0 0 0.0470588 0 0 0 0 0.0470588 0 0 0 0 0.0509804 0 0 0 0.05 0"/>
<feBlend mode="normal" in2="BackgroundImageFix" result="effect1_dropShadow_762_9552"/>
<feBlend mode="normal" in="SourceGraphic" in2="effect1_dropShadow_762_9552" result="shape"/>
</filter>
<filter id="filter1_d_762_9552" x="202.5" y="1.14197" width="248.499" height="291.464" filterUnits="userSpaceOnUse" color-interpolation-filters="sRGB">
<feFlood flood-opacity="0" result="BackgroundImageFix"/>
<feColorMatrix in="SourceAlpha" type="matrix" values="0 0 0 0 0 0 0 0 0 0 0 0 0 0 0 0 0 0 127 0" result="hardAlpha"/>
<feOffset dy="1"/>
<feGaussianBlur stdDeviation="2"/>
<feComposite in2="hardAlpha" operator="out"/>
<feColorMatrix type="matrix" values="0 0 0 0 0.0470588 0 0 0 0 0.0470588 0 0 0 0 0.0509804 0 0 0 0.05 0"/>
<feBlend mode="normal" in2="BackgroundImageFix" result="effect1_dropShadow_762_9552"/>
<feBlend mode="normal" in="SourceGraphic" in2="effect1_dropShadow_762_9552" result="shape"/>
</filter>
<filter id="filter2_d_762_9552" x="361" y="1.14197" width="248.499" height="291.464" filterUnits="userSpaceOnUse" color-interpolation-filters="sRGB">
<feFlood flood-opacity="0" result="BackgroundImageFix"/>
<feColorMatrix in="SourceAlpha" type="matrix" values="0 0 0 0 0 0 0 0 0 0 0 0 0 0 0 0 0 0 127 0" result="hardAlpha"/>
<feOffset dy="1"/>
<feGaussianBlur stdDeviation="2"/>
<feComposite in2="hardAlpha" operator="out"/>
<feColorMatrix type="matrix" values="0 0 0 0 0.0470588 0 0 0 0 0.0470588 0 0 0 0 0.0509804 0 0 0 0.05 0"/>
<feBlend mode="normal" in2="BackgroundImageFix" result="effect1_dropShadow_762_9552"/>
<feBlend mode="normal" in="SourceGraphic" in2="effect1_dropShadow_762_9552" result="shape"/>
</filter>
<filter id="filter3_d_762_9552" x="519.5" y="1.14197" width="248.499" height="291.464" filterUnits="userSpaceOnUse" color-interpolation-filters="sRGB">
<feFlood flood-opacity="0" result="BackgroundImageFix"/>
<feColorMatrix in="SourceAlpha" type="matrix" values="0 0 0 0 0 0 0 0 0 0 0 0 0 0 0 0 0 0 127 0" result="hardAlpha"/>
<feOffset dy="1"/>
<feGaussianBlur stdDeviation="2"/>
<feComposite in2="hardAlpha" operator="out"/>
<feColorMatrix type="matrix" values="0 0 0 0 0.0470588 0 0 0 0 0.0470588 0 0 0 0 0.0509804 0 0 0 0.05 0"/>
<feBlend mode="normal" in2="BackgroundImageFix" result="effect1_dropShadow_762_9552"/>
<feBlend mode="normal" in="SourceGraphic" in2="effect1_dropShadow_762_9552" result="shape"/>
</filter>
<filter id="filter4_d_762_9552" x="678" y="1.14197" width="248.499" height="291.464" filterUnits="userSpaceOnUse" color-interpolation-filters="sRGB">
<feFlood flood-opacity="0" result="BackgroundImageFix"/>
<feColorMatrix in="SourceAlpha" type="matrix" values="0 0 0 0 0 0 0 0 0 0 0 0 0 0 0 0 0 0 127 0" result="hardAlpha"/>
<feOffset dy="1"/>
<feGaussianBlur stdDeviation="2"/>
<feComposite in2="hardAlpha" operator="out"/>
<feColorMatrix type="matrix" values="0 0 0 0 0.0470588 0 0 0 0 0.0470588 0 0 0 0 0.0509804 0 0 0 0.05 0"/>
<feBlend mode="normal" in2="BackgroundImageFix" result="effect1_dropShadow_762_9552"/>
<feBlend mode="normal" in="SourceGraphic" in2="effect1_dropShadow_762_9552" result="shape"/>
</filter>
<filter id="filter5_d_762_9552" x="836.5" y="1.14197" width="248.499" height="291.464" filterUnits="userSpaceOnUse" color-interpolation-filters="sRGB">
<feFlood flood-opacity="0" result="BackgroundImageFix"/>
<feColorMatrix in="SourceAlpha" type="matrix" values="0 0 0 0 0 0 0 0 0 0 0 0 0 0 0 0 0 0 127 0" result="hardAlpha"/>
<feOffset dy="1"/>
<feGaussianBlur stdDeviation="2"/>
<feComposite in2="hardAlpha" operator="out"/>
<feColorMatrix type="matrix" values="0 0 0 0 0.0470588 0 0 0 0 0.0470588 0 0 0 0 0.0509804 0 0 0 0.05 0"/>
<feBlend mode="normal" in2="BackgroundImageFix" result="effect1_dropShadow_762_9552"/>
<feBlend mode="normal" in="SourceGraphic" in2="effect1_dropShadow_762_9552" result="shape"/>
</filter>
<filter id="filter6_d_762_9552" x="995" y="1.14197" width="248.499" height="291.464" filterUnits="userSpaceOnUse" color-interpolation-filters="sRGB">
<feFlood flood-opacity="0" result="BackgroundImageFix"/>
<feColorMatrix in="SourceAlpha" type="matrix" values="0 0 0 0 0 0 0 0 0 0 0 0 0 0 0 0 0 0 127 0" result="hardAlpha"/>
<feOffset dy="1"/>
<feGaussianBlur stdDeviation="2"/>
<feComposite in2="hardAlpha" operator="out"/>
<feColorMatrix type="matrix" values="0 0 0 0 0.0470588 0 0 0 0 0.0470588 0 0 0 0 0.0509804 0 0 0 0.05 0"/>
<feBlend mode="normal" in2="BackgroundImageFix" result="effect1_dropShadow_762_9552"/>
<feBlend mode="normal" in="SourceGraphic" in2="effect1_dropShadow_762_9552" result="shape"/>
</filter>
</defs>
</svg>
